<?xml version="1.0" standalone="no"?>
<!DOCTYPE svg PUBLIC "-//W3C//DTD SVG 1.1//EN" "http://www.w3.org/Graphics/SVG/1.1/DTD/svg11.dtd" >
<svg xmlns="http://www.w3.org/2000/svg">
<metadata>
Created by FontPrep 20130207 at Mon Oct 26 22:35:04 2015
 By Alex
(c) 2014 Apple Inc. All rights reserved.
</metadata>
<defs>
<font id="9cbc0a271b522634852b696027a32a9b" horiz-adv-x='1024' >
  <font-face 
    font-family="SFUIDisplay-Thin"
    font-weight="200"
    font-stretch="normal"
    units-per-em="2048"
    panose-1="0 0 3 0 0 0 0 0 0 0"
    ascent="1638"
    descent="-410"
    x-height="1077"
    cap-height="1443"
    bbox="-477 -849 2434 2086"
    underline-thickness="50"
    underline-position="-25"
    unicode-range="U+0020-FB02"
  />
<missing-glyph horiz-adv-x="1293" 
d="M632 1018q56 0 88 -30q33 -30 33 -74q-1 -44 -21 -72t-86 -74t-91 -97q-26 -51 -22 -140h166v15q0 48 19 76t90 78t101 101q30 50 30 116q0 113 -81 181q-82 68 -220 69q-138 0 -220 -76t-79 -203h169q0 58 34 94t90 36zM501 314q-1 -48 33 -78t88 -30t88 30t33 78
q1 48 -33 78t-88 29q-54 0 -88 -30q-33 -29 -33 -77zM120 0v1365h1053v-1365h-1053z" />
    <glyph glyph-name=".notdef" horiz-adv-x="1293" 
d="M632 1018q56 0 88 -30q33 -30 33 -74q-1 -44 -21 -72t-86 -74t-91 -97q-26 -51 -22 -140h166v15q0 48 19 76t90 78t101 101q30 50 30 116q0 113 -81 181q-82 68 -220 69q-138 0 -220 -76t-79 -203h169q0 58 34 94t90 36zM501 314q-1 -48 33 -78t88 -30t88 30t33 78
q1 48 -33 78t-88 29q-54 0 -88 -30q-33 -29 -33 -77zM120 0v1365h1053v-1365h-1053z" />
    <glyph glyph-name=".null" 
 />
    <glyph glyph-name="nonmarkingreturn" 
 />
    <glyph glyph-name="space" unicode=" " horiz-adv-x="406" 
 />
    <glyph glyph-name="exclam" unicode="!" horiz-adv-x="510" 
d="M256 -10q-30 0 -51 20t-21 50t21 50t51 21q30 -1 50 -21t20 -50t-20 -50t-50 -20zM214 1443h82l-3 -1017h-76z" />
    <glyph glyph-name="quotedbl" unicode="&#x22;" horiz-adv-x="564" 
d="M457 984h-73v459h73v-459zM181 984h-74v459h74v-459z" />
    <glyph glyph-name="numbersign" unicode="#" horiz-adv-x="1224" 
d="M457 940l-87 -431h384l85 431h-382zM1180 940h-271l-86 -430h258l-14 -67h-258l-92 -443h-70l92 443h-383l-92 -443h-69l92 443h-247l12 67h250l85 430h-235l13 67h235l92 441h69l-90 -441h382l92 441h69l-91 -441h271z" />
    <glyph glyph-name="dollar" unicode="$" horiz-adv-x="1192" 
d="M199 1094q0 -120 83 -190q83 -68 281 -115v603q-157 -6 -261 -92t-103 -206zM1020 372q0 130 -89 203q-89 74 -304 123v-643q169 7 281 97t112 220zM627 -167h-64v151q-203 8 -338 122t-139 279h77q8 -133 122 -227t278 -102v656l-22 6q-227 56 -323 140t-96 234t123 256
q123 105 318 114v135h64v-135q185 -10 311 -114t131 -252h-77q-4 116 -110 202t-255 94v-617l24 -6q243 -59 345 -147t101 -249t-131 -269t-339 -120v-151z" />
    <glyph glyph-name="percent" unicode="%" horiz-adv-x="1420" 
d="M211 0h-85l1075 1443h85zM303 823q84 -1 132 77t48 209q1 131 -47 208t-132 77t-132 -78t-48 -208t48 -208t131 -77zM556 1109q0 -158 -68 -252t-184 -94q-118 0 -186 94q-68 93 -68 251t68 252t186 94t184 -94q68 -94 68 -251zM1117 48q84 0 132 78t48 208
q1 131 -47 208t-132 77q-84 1 -132 -77t-48 -208t48 -208t131 -78zM1370 334q0 -158 -68 -252t-184 -94q-118 0 -186 94t-68 252t68 251q68 94 186 94q118 1 184 -93q68 -94 68 -252z" />
    <glyph glyph-name="ampersand" unicode="&#x26;" horiz-adv-x="1374" 
d="M839 1161q1 100 -75 168t-186 68q-110 -1 -188 -71q-79 -70 -79 -168q-1 -68 43 -136t166 -193q319 156 319 332zM153 368q0 -138 106 -229t275 -91q116 0 238 56t198 144l-471 499q-96 -48 -104 -56q-242 -133 -242 -323zM1140 726v79h75v-77q1 -122 -39 -250t-107 -224
l246 -254h-101l-192 199q-94 -103 -226 -161t-267 -59q-201 1 -328 109t-127 278q0 229 276 378q5 2 54 28l48 26q-123 126 -170 204t-47 159q0 127 99 215t244 87q145 0 241 -85q96 -84 96 -202t-82 -210t-268 -185l451 -476q124 192 124 421z" />
    <glyph glyph-name="quotesingle" unicode="'" horiz-adv-x="287" 
d="M181 984h-74v459h74v-459z" />
    <glyph glyph-name="parenleft" unicode="(" horiz-adv-x="570" 
d="M153 598q0 494 272 845h74q-119 -155 -193 -375t-74 -470t72 -468t194 -387h-76q-124 159 -196 377t-73 478z" />
    <glyph glyph-name="parenright" unicode=")" horiz-adv-x="570" 
d="M338 598q0 250 -74 470t-193 375h74q271 -350 271 -845q0 -260 -72 -478t-196 -377h-76q122 170 194 388q72 217 72 467z" />
    <glyph glyph-name="asterisk" unicode="*" horiz-adv-x="953" 
d="M797 842l-292 175l5 -341h-66l5 341l-293 -175l-32 57l297 166l-297 165l32 58l293 -176l-5 342h66l-5 -342l292 176l33 -57l-297 -166l297 -166z" />
    <glyph glyph-name="plus" unicode="+" horiz-adv-x="1192" 
d="M633 539v-504h-74v504h-453v73h453v490h74v-490h453v-73h-453z" />
    <glyph glyph-name="comma" unicode="," horiz-adv-x="501" 
d="M218 -222h-62l65 402h83z" />
    <glyph glyph-name="hyphen" unicode="-" horiz-adv-x="868" 
d="M762 539h-656v73h656v-73z" />
    <glyph glyph-name="period" unicode="." horiz-adv-x="496" 
d="M248 -10q-30 0 -50 20t-20 50t20 50t50 20t50 -20t20 -50t-20 -50t-50 -20z" />
    <glyph glyph-name="slash" unicode="/" horiz-adv-x="518" 
d="M70 -331h-70l446 1774h72z" />
    <glyph glyph-name="zero" unicode="0" horiz-adv-x="1194" 
d="M598 50q200 0 316 181t115 490q0 309 -116 491q-115 182 -315 181q-200 1 -316 -181t-116 -491t116 -490t316 -181zM598 -21q-236 0 -374 200t-138 542q0 343 138 543t374 200t373 -200t137 -542t-137 -543q-137 -200 -373 -200z" />
    <glyph glyph-name="one" unicode="1" horiz-adv-x="804" 
d="M562 1448v-1448h-78v1359h-2q-19 -12 -134 -88t-260 -166v88l396 255h78z" />
    <glyph glyph-name="two" unicode="2" horiz-adv-x="1142" 
d="M564 1464q186 0 312 -113t126 -279q0 -116 -64 -224t-244 -295l-451 -477v-4h813v-72h-927v60l513 544q166 176 224 270t57 195q0 137 -103 231t-256 93q-153 0 -256 -96t-107 -243h-77q4 178 129 294t311 116z" />
    <glyph glyph-name="three" unicode="3" horiz-adv-x="1146" 
d="M384 714v70h161q163 0 266 86t103 219t-100 219t-253 85q-151 -1 -253 -85t-111 -213h-77q9 161 132 265t308 104t309 -104t124 -250t-82 -238t-224 -118v-4q169 -12 269 -108t100 -262t-138 -284t-346 -117q-208 -1 -344 109t-141 275h77q4 -133 120 -223t288 -90
t288 96t116 246t-114 236t-315 86h-163z" />
    <glyph glyph-name="four" unicode="4" horiz-adv-x="1181" 
d="M157 433h656v935h-2q-357 -475 -654 -933v-2zM813 0v361h-743v73q297 460 707 1013l114 1v-1015h229v-72h-229v-361h-78z" />
    <glyph glyph-name="five" unicode="5" horiz-adv-x="1171" 
d="M595 -21q-123 0 -227 48q-104 47 -168 133t-76 193h79q17 -131 129 -217t277 -86q167 0 285 116t118 292t-116 294t-290 117q-120 -1 -220 -57t-159 -156h-80l86 787h765v-72h-697l-68 -617h3q58 86 160 136t219 50q204 0 340 -137t136 -344q-1 -207 -141 -343t-355 -137
z" />
    <glyph glyph-name="six" unicode="6" horiz-adv-x="1179" 
d="M614 51q174 0 290 120q118 121 118 295t-117 290t-290 117q-111 0 -207 -53t-152 -143t-56 -195q0 -182 120 -306t294 -125zM616 -21q-124 0 -226 53t-168 151q-132 177 -132 519t144 552t389 210q175 0 299 -98t148 -258h-80q-23 125 -126 205t-242 80q-220 1 -340 -205
t-114 -571h4q38 143 164 235t287 92q205 0 342 -136t137 -342t-138 -347q-138 -140 -348 -140z" />
    <glyph glyph-name="seven" unicode="7" horiz-adv-x="1085" 
d="M921 1371h-839v72h920v-76l-685 -1367h-86l690 1368v3z" />
    <glyph glyph-name="eight" unicode="8" horiz-adv-x="1189" 
d="M594 799q162 0 266 81q104 80 103 210q1 130 -101 216t-268 87q-166 0 -268 -87t-102 -216t104 -210t266 -81zM594 50q190 0 306 98t116 246t-116 240t-306 92q-188 0 -304 -92t-117 -240q0 -148 116 -246t305 -98zM594 -21q-224 1 -362 117q-139 116 -139 298
q-1 138 93 240t244 131v3q-130 28 -207 116t-77 207q0 163 126 268t322 105t322 -105t126 -268q0 -116 -78 -204t-204 -119v-3q148 -29 242 -131t94 -240q0 -183 -139 -299t-363 -116z" />
    <glyph glyph-name="nine" unicode="9" horiz-adv-x="1179" 
d="M561 570q173 0 295 116t123 286t-119 295t-295 125t-292 -122t-117 -294q0 -174 116 -290t289 -116zM556 499q-207 1 -343 135t-136 341t138 348t348 141q255 0 394 -206q132 -178 132 -518t-142 -551q-142 -210 -390 -210q-179 1 -301 99t-147 257h80q23 -125 123 -205
t245 -80q211 0 330 186q139 217 124 590h-2q-36 -140 -164 -234t-289 -93z" />
    <glyph glyph-name="colon" unicode=":" horiz-adv-x="496" 
d="M248 760q-30 0 -50 20t-20 50t20 50t50 20t50 -20t20 -50t-20 -50t-50 -20zM248 -10q-30 0 -50 20t-20 50t20 50t50 20t50 -20t20 -50t-20 -50t-50 -20z" />
    <glyph glyph-name="semicolon" unicode=";" horiz-adv-x="496" 
d="M203 -222h-63l65 402h84zM248 760q-30 0 -50 20t-20 50t20 50t50 20t50 -20t20 -50t-20 -50t-50 -20z" />
    <glyph glyph-name="less" unicode="&#x3c;" horiz-adv-x="1192" 
d="M1004 1053l-730 -508v-6l730 -501v-85l-815 554v67l815 564v-85z" />
    <glyph glyph-name="equal" unicode="=" horiz-adv-x="1192" 
d="M1081 728h-969v70h969v-70zM1081 353h-969v70h969v-70z" />
    <glyph glyph-name="greater" unicode="&#x3e;" horiz-adv-x="1192" 
d="M189 1053v85l815 -564v-66l-815 -555v85l730 502v6z" />
    <glyph glyph-name="question" unicode="?" horiz-adv-x="931" 
d="M424 -10q-30 0 -50 20t-20 50t20 50t50 21q30 -1 50 -21t21 -50q-1 -30 -21 -50t-50 -20zM458 1460q168 0 279 -101t111 -253q0 -102 -50 -180t-158 -152t-144 -132q-36 -56 -36 -144v-90h-77v98q-1 98 41 165t150 143q106 76 150 142t43 147q0 125 -89 205t-221 81
q-132 -1 -220 -81t-101 -212h-76q10 158 120 261t278 103z" />
    <glyph glyph-name="at" unicode="@" horiz-adv-x="1741" 
d="M1203 432q0 -197 176 -197q114 1 178 117t64 322q-1 206 -93 364q-92 157 -259 244t-381 87t-384 -98q-172 -99 -268 -273t-96 -369t56 -340t155 -245t239 -156t328 -55q188 0 302 38v-64q-114 -37 -310 -37t-348 60t-260 168t-169 266q-61 156 -61 338t62 336t169 262
q108 108 260 170t327 62q176 0 324 -56t252 -153q104 -99 164 -239q59 -140 59 -305q1 -240 -83 -374t-234 -134q-100 0 -164 55t-73 149h-5q-38 -95 -108 -147t-164 -52q-155 0 -253 116t-98 302q0 184 98 302t253 117q92 1 166 -51t103 -135h5v165h71v-560zM865 947
q-123 -1 -203 -101t-81 -256q0 -156 78 -251q78 -96 202 -96t197 98q73 97 73 259q1 162 -71 254t-195 93z" />
    <glyph glyph-name="A" unicode="A" horiz-adv-x="1221" 
d="M608 1340l-296 -788h598l-297 788h-5zM1115 0l-180 481h-649l-179 -481h-86l550 1443h80l549 -1443h-85z" />
    <glyph glyph-name="B" unicode="B" horiz-adv-x="1165" 
d="M207 72h410q194 0 304 84t110 233q0 148 -115 233t-320 85h-389v-635zM207 1371v-593h376q170 0 271 83t101 219t-96 214t-257 77h-395zM625 0h-497v1443h486q188 0 304 -97t117 -240t-77 -235t-207 -117v-6q158 -17 259 -114t101 -262q0 -164 -130 -268t-356 -104z" />
    <glyph glyph-name="C" unicode="C" horiz-adv-x="1326" 
d="M702 -21q-290 -1 -462 203t-173 544q0 340 172 540q172 198 463 198q220 0 382 -138t185 -345h-79q-22 173 -162 291t-326 118q-254 0 -404 -178t-150 -485t150 -491t404 -183q192 -1 328 105t160 278h79q-25 -205 -181 -331t-386 -126z" />
    <glyph glyph-name="D" unicode="D" horiz-adv-x="1332" 
d="M208 1370v-1297h365q295 1 453 169t159 480q0 312 -159 480t-453 168h-365zM128 1443h449q328 0 508 -189q180 -188 180 -532t-180 -533t-508 -189h-449v1443z" />
    <glyph glyph-name="E" unicode="E" horiz-adv-x="1068" 
d="M969 73v-73h-841v1443h841v-73h-762v-594h726v-72h-726v-631h762z" />
    <glyph glyph-name="F" unicode="F" horiz-adv-x="1033" 
d="M207 0h-79v1443h830v-73h-751v-603h691v-72h-691v-695z" />
    <glyph glyph-name="G" unicode="G" horiz-adv-x="1358" 
d="M1281 571q1 -276 -155 -434t-427 -158q-186 0 -330 94q-144 95 -223 265t-79 392q-1 330 173 532t459 202q217 0 375 -120t198 -317h-81q-43 167 -177 265t-315 98q-251 0 -401 -180t-150 -482t152 -488q152 -187 392 -187q240 1 374 137q136 136 136 369v83h-503v72h582
v-143z" />
    <glyph glyph-name="H" unicode="H" horiz-adv-x="1327" 
d="M1199 0h-79v705h-913v-705h-79v1443h79v-666h913v666h79v-1443z" />
    <glyph glyph-name="I" unicode="I" horiz-adv-x="335" 
d="M207 0h-79v1443h79v-1443z" />
    <glyph glyph-name="J" unicode="J" horiz-adv-x="951" 
d="M436 50q140 0 224 89t84 250v1054h80v-1058q0 -189 -106 -299t-282 -110q-175 0 -283 96t-112 248h78q7 -118 92 -194t225 -76z" />
    <glyph glyph-name="K" unicode="K" horiz-adv-x="1142" 
d="M207 0h-79v1443h79v-806h6l750 806h101l-594 -636l660 -807h-101l-615 751l-207 -223v-528z" />
    <glyph glyph-name="L" unicode="L" horiz-adv-x="1024" 
d="M964 73v-73h-836v1443h79v-1370h757z" />
    <glyph glyph-name="M" unicode="M" horiz-adv-x="1604" 
d="M1476 1443v-1443h-76v1279h-4l-556 -1276h-76l-556 1276h-4v-1279h-76v1443h88l583 -1340h6l581 1340h90z" />
    <glyph glyph-name="N" unicode="N" horiz-adv-x="1341" 
d="M206 0h-78v1443h82l919 -1299h6v1299h79v-1443h-75l-927 1307h-6v-1307z" />
    <glyph glyph-name="O" unicode="O" horiz-adv-x="1420" 
d="M710 1390q-258 0 -410 -180t-152 -488q0 -306 152 -488t410 -181q258 0 410 181t152 488q0 308 -152 488t-410 180zM710 1464q295 0 469 -201t174 -542q1 -341 -173 -541t-470 -201q-296 1 -470 201t-173 541q0 341 174 542t469 201z" />
    <glyph glyph-name="P" unicode="P" horiz-adv-x="1116" 
d="M207 1371v-717h377q184 0 290 96t106 262t-106 263q-106 96 -290 96h-377zM128 1443h469q211 1 337 -117t127 -314q0 -196 -127 -312q-127 -118 -337 -118h-390v-582h-79v1443z" />
    <glyph glyph-name="Q" unicode="Q" horiz-adv-x="1420" 
d="M710 53q132 0 238 50l-196 269h91l170 -233q125 82 191 232t67 351q0 306 -152 487t-409 181q-258 0 -410 -181t-152 -487t152 -488t410 -181zM710 -21q-296 1 -470 201t-173 541q0 341 174 542t469 201t469 -201t174 -541q-1 -221 -77 -388t-217 -258l185 -253h-91
l-159 217q-128 -61 -284 -61z" />
    <glyph glyph-name="R" unicode="R" horiz-adv-x="1150" 
d="M207 616v-616h-79v1443h471q215 -1 339 -111t124 -301q0 -157 -88 -263t-246 -137l371 -631h-93l-361 619q-19 -3 -51 -3h-387zM207 1371v-683h387q181 0 284 91t103 251q1 160 -103 250t-286 91h-385z" />
    <glyph glyph-name="S" unicode="S" horiz-adv-x="1137" 
d="M580 52q186 0 302 92t117 235q0 113 -81 183t-263 116l-171 42q-200 50 -294 136t-94 221q0 167 137 277t338 110t338 -106t144 -266h-79q-8 130 -122 214t-282 85q-168 -1 -280 -89t-113 -209q0 -121 81 -188t257 -111l161 -41q212 -53 308 -139t96 -229
q0 -180 -139 -293t-363 -113t-368 113t-153 293h79q9 -147 134 -240q124 -93 310 -93z" />
    <glyph glyph-name="T" unicode="T" horiz-adv-x="1138" 
d="M609 0h-80v1370h-508v73h1096v-73h-508v-1370z" />
    <glyph glyph-name="U" unicode="U" horiz-adv-x="1334" 
d="M207 1443v-939q0 -207 124 -329t336 -122t336 122t124 329v939h79v-942q0 -237 -146 -379t-393 -143q-247 1 -393 143t-146 379v942h79z" />
    <glyph glyph-name="V" unicode="V" horiz-adv-x="1223" 
d="M651 0h-80l-550 1443h85l503 -1338h5l503 1338h84z" />
    <glyph glyph-name="W" unicode="W" horiz-adv-x="1803" 
d="M899 1295l-384 -1295h-70l-403 1443h82l356 -1306h5l379 1306h74l380 -1306h5l355 1306h83l-403 -1443h-70l-384 1295h-5z" />
    <glyph glyph-name="X" unicode="X" horiz-adv-x="1215" 
d="M42 0l516 722v2l-514 719h95l469 -658h2l471 658h92l-518 -721v-2l515 -720h-95l-468 656h-2l-471 -656h-92z" />
    <glyph glyph-name="Y" unicode="Y" horiz-adv-x="1172" 
d="M626 0h-79v629l-525 814h93l469 -733h5l469 733h92l-524 -814v-629z" />
    <glyph glyph-name="Z" unicode="Z" horiz-adv-x="1173" 
d="M71 0v62l925 1303v5h-896v73h997v-62l-923 -1303v-5h928v-73h-1031z" />
    <glyph glyph-name="bracketleft" unicode="[" horiz-adv-x="580" 
d="M162 1443h370v-65h-294v-1549h308v-65h-384v1679z" />
    <glyph glyph-name="backslash" unicode="\" horiz-adv-x="518" 
d="M448 -331l-448 1774h72l446 -1774h-70z" />
    <glyph glyph-name="bracketright" unicode="]" horiz-adv-x="580" 
d="M419 1443v-1679h-384v65h308v1549h-294v65h370z" />
    <glyph glyph-name="asciicircum" unicode="^" horiz-adv-x="782" 
d="M388 1341l-255 -518h-80l301 603h75l300 -603h-79l-256 518h-6z" />
    <glyph glyph-name="underscore" unicode="_" horiz-adv-x="807" 
d="M870 -205h-933v63h933v-63z" />
    <glyph glyph-name="grave" unicode="`" horiz-adv-x="758" 
d="M553 1253h-74l-249 303h93z" />
    <glyph glyph-name="a" unicode="a" horiz-adv-x="1030" 
d="M432 -14q-148 0 -246 84q-100 84 -100 222q0 136 98 214t287 92l369 27v96q0 141 -82 220t-222 79q-141 0 -228 -67t-106 -189h-75q14 149 125 238q110 89 284 89t278 -98t103 -267v-726h-75v232h-2q-40 -110 -150 -178t-258 -68zM470 55q144 1 257 101t113 243v161
l-359 -27q-155 -11 -236 -73t-81 -168t82 -171q80 -66 224 -66z" />
    <glyph glyph-name="b" unicode="b" horiz-adv-x="1129" 
d="M600 1020q-172 0 -283 -135q-110 -135 -110 -347q-1 -212 109 -347t283 -135t279 134t107 348q-1 216 -107 349t-278 133zM611 -14q-144 0 -253 82t-151 220h-3v-288h-75v1506h78v-713h3q40 136 148 217t253 81q201 0 327 -153t126 -399q0 -245 -126 -399t-327 -154z" />
    <glyph glyph-name="c" unicode="c" horiz-adv-x="1028" 
d="M539 1020q-181 0 -289 -130t-107 -352q-1 -222 107 -352t290 -130q137 0 232 71t119 188h78q-25 -147 -142 -238t-287 -91q-217 0 -346 149t-129 403t129 403q129 150 345 150q169 0 287 -96t143 -242h-77q-24 119 -120 193t-233 74z" />
    <glyph glyph-name="d" unicode="d" horiz-adv-x="1136" 
d="M534 1020q-174 0 -282 -133t-108 -348t108 -349t282 -134t285 135t111 347t-111 348q-111 134 -285 134zM525 -14q-203 0 -331 154t-129 398q1 246 129 400t330 153q146 -1 256 -85t147 -213h2v713h78v-1506h-73v290h-3q-39 -134 -149 -219t-257 -85z" />
    <glyph glyph-name="e" unicode="e" horiz-adv-x="1062" 
d="M545 -14q-221 0 -351 146t-129 401q-1 254 129 406t340 152q210 -1 337 -143q126 -142 126 -377v-45h-853v-4q0 -218 109 -342t293 -124q144 0 240 68t119 177h79q-28 -139 -146 -227t-293 -88zM537 1021q-169 0 -276 -118t-116 -311h773q0 191 -106 310t-275 119z" />
    <glyph glyph-name="f" unicode="f" horiz-adv-x="536" 
d="M413 1412q-164 0 -164 -187v-148h231v-68h-231v-1009h-78v1009h-150v68h150v153q0 250 238 250q49 0 79 -9v-68q-33 9 -75 9z" />
    <glyph glyph-name="g" unicode="g" horiz-adv-x="1119" 
d="M562 -361q-188 0 -300 68q-113 68 -135 180h81q21 -79 113 -129t244 -50q153 0 255 79t102 215v285h-2q-37 -131 -146 -215t-254 -84q-203 0 -329 152t-126 400q1 246 127 398t329 153q145 0 255 -85t148 -217h3v288h73v-1070q0 -172 -125 -270t-313 -98zM530 59
q172 0 282 134q110 135 110 347t-110 346t-282 134q-174 0 -280 -133t-106 -347t106 -348q106 -133 280 -133z" />
    <glyph glyph-name="h" unicode="h" horiz-adv-x="1095" 
d="M129 0v1506h78v-666h3q38 114 139 182t236 69q177 0 287 -109t110 -288v-694h-77v685q0 155 -92 245t-248 90t-257 -106t-101 -275v-639h-78z" />
    <glyph glyph-name="i" unicode="i" horiz-adv-x="336" 
d="M168 1341q-26 0 -44 18q-18 17 -18 43t18 44t44 18t44 -18t19 -44q-1 -26 -19 -43q-18 -18 -44 -18zM129 0v1077h78v-1077h-78z" />
    <glyph glyph-name="j" unicode="j" horiz-adv-x="336" 
d="M168 1341q-26 0 -44 18q-18 17 -18 43t18 44t44 18t44 -18t19 -44q-1 -26 -19 -43q-18 -18 -44 -18zM207 1077v-1157q0 -145 -68 -210t-210 -65h-30v69h27q107 0 155 48t48 154v1161h78z" />
    <glyph glyph-name="k" unicode="k" horiz-adv-x="938" 
d="M207 0h-78v1506h78v-982h1l609 553h102l-507 -464l511 -613h-95l-474 565l-147 -132v-433z" />
    <glyph glyph-name="l" unicode="l" horiz-adv-x="336" 
d="M129 0v1506h78v-1506h-78z" />
    <glyph glyph-name="m" unicode="m" horiz-adv-x="1645" 
d="M119 0v1077h73v-237h3q31 112 116 182t209 69t210 -73q87 -72 113 -183h2q31 109 123 183t234 73q142 0 236 -100t94 -267v-724h-78v707q0 145 -76 229t-210 84t-219 -98t-85 -255v-667h-77v710q0 138 -79 224q-80 86 -210 86t-216 -104t-85 -275v-641h-78z" />
    <glyph glyph-name="n" unicode="n" horiz-adv-x="1080" 
d="M119 0v1077h73v-237h3q39 114 139 182t236 69q179 1 288 -107t109 -289v-695h-78v686q0 154 -92 244t-247 90t-254 -106t-99 -273v-641h-78z" />
    <glyph glyph-name="o" unicode="o" horiz-adv-x="1089" 
d="M544 56q182 0 292 130t109 352q0 222 -109 352t-292 130t-292 -130t-109 -352q-1 -222 109 -352t292 -130zM544 -14q-216 0 -348 150t-131 402q-1 252 131 403q132 150 348 150t348 -150q132 -151 132 -403t-132 -402t-348 -150z" />
    <glyph glyph-name="p" unicode="p" horiz-adv-x="1119" 
d="M588 56q172 0 280 134q107 134 107 348t-107 348q-108 134 -280 134t-282 -134t-109 -348q-1 -214 109 -348t282 -134zM598 1091q204 1 330 -153t126 -400t-126 -399t-329 -153q-147 0 -255 84t-144 214h-3v-629h-78v1422h73v-288h3q37 131 147 217t256 85z" />
    <glyph glyph-name="q" unicode="q" horiz-adv-x="1126" 
d="M533 56q173 0 285 134t111 348q1 214 -111 348t-285 134t-281 -134t-108 -348t108 -348t281 -134zM524 1091q147 -1 258 -85t149 -217h3v288h73v-1422h-78v629h-2q-37 -130 -147 -214t-257 -84q-202 0 -330 153t-128 399t128 400t331 153z" />
    <glyph glyph-name="r" unicode="r" horiz-adv-x="614" 
d="M119 0v1077h73v-213h3q33 110 107 168t182 59q53 0 98 -18v-78q-44 22 -110 22q-125 0 -200 -97t-75 -251v-669h-78z" />
    <glyph glyph-name="s" unicode="s" horiz-adv-x="923" 
d="M94 813q0 115 106 197t266 81t264 -89t116 -235h-76q-12 115 -94 185t-208 71t-212 -61t-86 -149t54 -133t172 -74l167 -41q161 -39 231 -104t69 -187q0 -122 -112 -205q-113 -83 -285 -83t-285 91t-122 227h78q11 -108 103 -180t228 -71q136 0 227 63q91 64 91 156
t-57 142t-189 82l-173 42q-139 32 -206 96t-67 179z" />
    <glyph glyph-name="t" unicode="t" horiz-adv-x="551" 
d="M179 1354h77v-277h224v-68h-224v-762q0 -96 37 -138t116 -42t85 2v-69q-12 -2 -111 -2t-151 58t-53 189v764h-158v68h158v277z" />
    <glyph glyph-name="u" unicode="u" horiz-adv-x="1080" 
d="M960 1077v-1077h-72v235h-3q-36 -109 -142 -179t-239 -70q-176 0 -284 106t-107 286v699h78v-687q-1 -158 89 -246t244 -88t256 104q103 104 103 273v644h77z" />
    <glyph glyph-name="v" unicode="v" horiz-adv-x="918" 
d="M911 1077l-406 -1077h-92l-406 1077h83l368 -998h2l369 998h82z" />
    <glyph glyph-name="w" unicode="w" horiz-adv-x="1430" 
d="M1422 1077l-314 -1077h-91l-301 976h-2l-301 -976h-91l-314 1077h82l277 -990h3l301 990h88l301 -990h3l277 990h82z" />
    <glyph glyph-name="x" unicode="x" horiz-adv-x="897" 
d="M449 485h-2l-347 -485h-90l395 546l-394 531h92l345 -471h3l344 471h92l-394 -529l392 -548h-90z" />
    <glyph glyph-name="y" unicode="y" horiz-adv-x="919" 
d="M186 -354q-24 0 -54 9v69q24 -8 56 -8q72 0 117 45t87 154l27 70l-412 1092h83l369 -1001h2l369 1001h82l-417 -1111q-73 -192 -134 -256t-175 -64z" />
    <glyph glyph-name="z" unicode="z" horiz-adv-x="928" 
d="M66 0v65l704 942v2h-704v68h795v-66l-705 -941v-2h706v-68h-796z" />
    <glyph glyph-name="braceleft" unicode="{" horiz-adv-x="694" 
d="M352 386v-395q0 -237 250 -237h65v-67h-50q-180 -1 -260 75t-80 248v336q-1 124 -39 174t-135 49v113q96 0 135 50t39 175v284q0 168 79 241t261 73h50v-66h-65q-130 1 -190 -57t-60 -181v-335q0 -110 -40 -166t-128 -63v-22q88 -7 128 -63t40 -166z" />
    <glyph glyph-name="bar" unicode="|" horiz-adv-x="355" 
d="M212 -330h-69v1773h69v-1773z" />
    <glyph glyph-name="braceright" unicode="}" horiz-adv-x="694" 
d="M342 866v335q0 123 -60 181t-191 57h-65v66h51q182 0 261 -73t79 -241v-284q0 -125 39 -175t136 -50v-113q-97 1 -136 -49t-39 -174v-336q0 -172 -80 -248t-260 -75h-51v67h65q251 0 251 237v395q0 110 40 166t128 63v22q-88 7 -128 63t-40 166z" />
    <glyph glyph-name="asciitilde" unicode="~" horiz-adv-x="1192" 
d="M374 779q-74 1 -118 -59t-47 -161h-73q-2 133 64 213t175 80q56 0 106 -26t121 -92q70 -66 116 -91t89 -25q73 0 123 64t53 165h74q0 -131 -71 -217t-179 -86q-65 0 -115 26t-124 94t-113 92q-40 24 -81 23z" />
    <glyph glyph-name="nonbreakingspace" unicode="&#xa0;" horiz-adv-x="406" 
 />
    <glyph glyph-name="exclamdown" unicode="&#xa1;" horiz-adv-x="510" 
d="M256 974q-30 0 -51 21t-21 51t21 50t51 20t50 -20t20 -50t-20 -51t-50 -21zM214 -338l3 1017h76l3 -1017h-82z" />
    <glyph glyph-name="cent" unicode="&#xa2;" horiz-adv-x="1192" 
d="M656 -68h-77v213q-209 15 -340 163t-131 390t132 391t339 162v199h77v-198q164 -10 286 -104t143 -238h-79q-24 124 -134 198t-255 75q-187 0 -309 -132q-122 -133 -122 -353t122 -352t309 -133q148 1 257 71t131 194h78q-21 -142 -141 -233t-286 -100v-213z" />
    <glyph glyph-name="sterling" unicode="&#xa3;" horiz-adv-x="1192" 
d="M259 1087q0 177 122 282t339 105q102 0 188 -18t132 -41v-74q-44 25 -130 43t-186 18q-184 0 -284 -86t-101 -230q0 -105 41 -225q14 -41 41 -112h469v-67h-444q53 -150 53 -238q0 -163 -89 -248q-89 -86 -192 -122v-4h913v-70h-1065v71q151 38 253 125q102 88 102 232
q0 100 -57 254h-264v67h239q-80 209 -80 338z" />
    <glyph glyph-name="currency" unicode="&#xa4;" horiz-adv-x="1192" 
d="M976 656q0 -136 -88 -243l167 -167l-50 -50l-167 167q-106 -87 -242 -87t-240 87l-168 -167l-51 50l168 168q-87 106 -87 242t87 241l-168 167l51 50l166 -167q106 88 243 88t241 -87l167 166l50 -50l-166 -166q87 -106 87 -242zM282 655q0 -131 92 -223t222 -92t222 93
t93 223q0 130 -92 222t-222 93q-131 -1 -223 -93t-92 -223z" />
    <glyph glyph-name="yen" unicode="&#xa5;" horiz-adv-x="1192" 
d="M976 363h-339v-363h-80v363h-341v66h341v208h-341v65h308l-492 741h93l470 -711h4l469 711h92l-490 -741h306v-65h-339v-208h339v-66z" />
    <glyph glyph-name="brokenbar" unicode="&#xa6;" horiz-adv-x="356" 
d="M213 -330h-70v695h70v-695zM213 752h-70v691h70v-691z" />
    <glyph glyph-name="section" unicode="&#xa7;" horiz-adv-x="953" 
d="M853 45q-1 -125 -105 -205t-266 -80t-268 74q-107 74 -120 196h78q14 -91 100 -146t213 -55t209 60q82 61 83 147q0 86 -61 138t-194 82l-113 27q-169 40 -249 109t-80 175q0 107 70 179t195 95v6q-243 73 -243 261q0 125 104 205t264 80t266 -73t120 -194h-77
q-15 90 -99 144t-210 54t-208 -60t-82 -146t60 -138t193 -83l113 -27q170 -40 249 -109t79 -175t-74 -181q-74 -74 -200 -97v-6q253 -63 253 -257zM795 564q0 94 -64 150q-64 54 -201 85l-78 17q-128 -2 -210 -68t-83 -160q1 -94 65 -148q64 -55 201 -86l78 -17
q128 1 210 67t82 160z" />
    <glyph glyph-name="dieresis" unicode="&#xa8;" horiz-adv-x="758" 
d="M532 1256q-28 0 -48 20t-20 46q0 28 20 48t48 19q28 1 47 -19q20 -20 20 -48t-20 -46q-19 -20 -47 -20zM226 1256q-28 0 -47 20q-20 20 -20 46q0 28 20 48q19 20 47 19q28 1 48 -19t20 -48t-20 -46q-20 -20 -48 -20z" />
    <glyph glyph-name="copyright" unicode="&#xa9;" horiz-adv-x="1732" 
d="M848 997q-128 0 -218 -98q-90 -97 -90 -267t90 -270t220 -100t204 52t94 140h69q-22 -114 -115 -184t-252 -70t-269 117t-110 314q-1 197 109 313t268 115t253 -77q96 -76 117 -187h-68q-24 89 -99 145t-203 57zM866 -78q146 0 276 54t224 146t148 224q54 131 54 305
q0 173 -92 335t-254 253q-161 91 -331 91t-300 -54t-224 -146q-95 -92 -149 -224t-54 -280t55 -280t149 -224t223 -146t275 -54zM866 -145q-214 1 -390 101t-278 277t-102 393t102 394q102 177 278 277t390 100t390 -100t278 -277q102 -178 102 -394t-102 -393t-278 -277
t-390 -101z" />
    <glyph glyph-name="ordfeminine" unicode="&#xaa;" horiz-adv-x="879" 
d="M380 581q-114 -1 -192 67t-77 177q0 109 77 171t225 74l285 22v83q0 101 -64 160t-172 59t-170 -45t-78 -118h-70q16 101 98 163t221 62t222 -76t83 -205v-585h-67v174h-6q-33 -82 -117 -132t-198 -51zM182 828q0 -82 62 -134t172 -52t197 76q86 76 86 182v136l-274 -22
q-243 -20 -243 -186z" />
    <glyph glyph-name="guillemotleft" unicode="&#xab;" horiz-adv-x="1185" 
d="M252 571v-8l366 -408h-95l-370 410v5l370 409h95zM666 571v-8l366 -408h-95l-370 410v5l370 409h95z" />
    <glyph glyph-name="logicalnot" unicode="&#xac;" horiz-adv-x="1192" 
d="M1076 707v-537h-70v468h-890v69h960z" />
    <glyph glyph-name="registered" unicode="&#xae;" horiz-adv-x="1207" 
d="M474 1219v-217h131q61 0 94 30t33 79t-34 79t-93 29h-131zM474 756h-53v511h197q74 1 121 -41t47 -108t-36 -107q-36 -40 -86 -47l148 -208h-66l-141 200h-131v-200zM604 569q180 -1 302 123q123 124 123 303t-123 302q-122 123 -302 123t-303 -123t-123 -302t123 -303
t303 -123zM604 514q-202 0 -342 140t-141 341q0 133 64 243t175 174t243 63q203 1 343 -139t140 -341t-140 -341t-342 -140z" />
    <glyph glyph-name="macron" unicode="&#xaf;" horiz-adv-x="856" 
d="M726 1366v-58h-596v58h596z" />
    <glyph glyph-name="degree" unicode="&#xb0;" horiz-adv-x="591" 
d="M296 1059q66 -1 114 47t48 114t-48 114t-114 48q-67 0 -115 -48t-48 -114t48 -114q49 -48 115 -47zM295 998q-92 0 -157 65t-65 157t65 158t157 65q91 1 157 -65t66 -158t-66 -156q-66 -66 -157 -66z" />
    <glyph glyph-name="plusminus" unicode="&#xb1;" horiz-adv-x="1192" 
d="M631 682v-350h-70v350h-455v66h455v332h70v-332h455v-66h-455zM1086 113h-980v69h980v-69z" />
    <glyph glyph-name="two.sups" unicode="&#xb2;" horiz-adv-x="565" 
d="M281 1790q95 0 155 -52t60 -119q0 -66 -30 -115t-106 -128l-193 -202v-2h348v-61h-449v52l245 251q65 70 89 108t23 86t-41 84t-102 37q-62 0 -104 -39t-43 -99v-2h-70v2q1 87 63 143t155 56z" />
    <glyph glyph-name="three.sups" unicode="&#xb3;" horiz-adv-x="572" 
d="M198 1427v57h78q65 0 106 35t41 88t-41 88q-40 35 -102 35t-103 -34t-45 -89h-69q5 81 65 132t153 51t153 -49t60 -117t-38 -110t-102 -54v-3q78 -5 123 -49t45 -122q0 -77 -68 -132t-170 -55q-104 0 -168 53t-67 136h71q2 -55 47 -91t116 -36q71 1 117 39t47 98
q0 60 -45 94q-45 35 -125 35h-79z" />
    <glyph glyph-name="acute" unicode="&#xb4;" horiz-adv-x="758" 
d="M279 1253h-74l230 303h93z" />
    <glyph glyph-name="paragraph" unicode="&#xb6;" horiz-adv-x="1165" 
d="M917 -162v1605h79v-1605h-79zM742 -162h-79v737h-20q-208 1 -341 123t-133 313q1 191 131 311t344 121h98v-1605z" />
    <glyph glyph-name="periodcentered" unicode="&#xb7;" horiz-adv-x="496" 
d="M248 528q-30 0 -50 20t-20 50t20 50t50 20t50 -20t20 -50t-20 -50t-50 -20z" />
    <glyph glyph-name="cedilla" unicode="&#xb8;" horiz-adv-x="758" 
d="M478 -295q0 102 -160 102h-52v43l67 157l60 -7l-58 -141q95 0 151 -41q56 -42 56 -114t-60 -120t-145 -48q-84 -1 -140 17v56q43 -17 117 -17t118 32q46 32 46 81z" />
    <glyph glyph-name="one.sups" unicode="&#xb9;" horiz-adv-x="434" 
d="M237 1111v598h-3l-178 -118v70l178 118h74v-668h-71z" />
    <glyph glyph-name="ordmasculine" unicode="&#xba;" horiz-adv-x="970" 
d="M484 580q-173 0 -275 118t-102 318q1 202 103 320t274 119q172 -1 276 -119q103 -118 103 -319t-103 -319t-276 -118zM180 1016q0 -172 82 -272t222 -99q140 -1 223 99t83 272t-83 274q-83 100 -223 100t-222 -100q-82 -102 -82 -274z" />
    <glyph glyph-name="guillemotright" unicode="&#xbb;" horiz-adv-x="1185" 
d="M932 571l-365 408h94l371 -409v-5l-371 -410h-94l365 408v8zM518 571l-365 408h95l370 -409v-5l-370 -410h-95l365 408v8z" />
    <glyph glyph-name="onequarter" unicode="&#xbc;" horiz-adv-x="1394" 
d="M174 1h-85l1075 1443h85zM240 775v598h-3l-178 -118v70l178 118h74v-668h-71zM916 210h271v399h-2q-158 -220 -269 -398v-1zM1185 0v150h-339v65q115 184 306 453h105v-457h99v-61h-99v-150h-72z" />
    <glyph glyph-name="onehalf" unicode="&#xbd;" horiz-adv-x="1409" 
d="M174 1h-85l1075 1443h85zM240 775v598h-3l-178 -118v70l178 118h74v-668h-71zM1130 679q94 -1 154 -53t61 -118t-29 -115t-107 -128l-193 -202v-2h348v-61h-449v52l245 251q64 69 88 107t24 87t-40 85t-104 36q-62 0 -104 -39t-42 -99v-2h-70v2q0 87 62 143t156 56z" />
    <glyph glyph-name="threequarters" unicode="&#xbe;" horiz-adv-x="1460" 
d="M270 1h-85l1075 1443h85zM983 210h271v399h-2q-158 -220 -269 -398v-1zM1252 0v150h-339v65q115 184 306 453h105v-457h99v-61h-99v-150h-72zM191 1091v57h78q65 0 106 35t41 88t-41 88t-103 35t-102 -34q-41 -34 -45 -89h-69q4 81 64 132t154 51q93 0 153 -49t60 -117
q1 -68 -37 -110t-103 -54v-3q78 -5 123 -49t45 -122q1 -77 -67 -132t-172 -55t-168 53t-66 136h71q2 -55 47 -91t116 -36q72 1 118 39t46 98t-45 94q-45 35 -125 35h-79z" />
    <glyph glyph-name="questiondown" unicode="&#xbf;" horiz-adv-x="931" 
d="M502 974q-30 0 -50 21t-21 51q1 30 21 50t50 20t50 -20t20 -50t-20 -51t-50 -21zM474 -363q-168 -1 -280 101q-111 102 -111 254q1 102 51 180t157 152t143 131q36 56 36 144v90h78v-98q0 -99 -42 -165t-148 -142t-150 -142t-44 -147q0 -125 89 -206t221 -81t220 80
t101 214h76q-9 -158 -119 -262t-278 -103z" />
    <glyph glyph-name="Agrave" unicode="&#xc0;" horiz-adv-x="1221" 
d="M580 1553l-297 290h95l280 -290h-78zM608 1340l-296 -788h598l-297 788h-5zM1115 0l-180 481h-649l-179 -481h-86l550 1443h80l549 -1443h-85z" />
    <glyph glyph-name="Aacute" unicode="&#xc1;" horiz-adv-x="1221" 
d="M643 1553h-78l279 290h96zM608 1340l-296 -788h598l-297 788h-5zM1115 0l-180 481h-649l-179 -481h-86l550 1443h80l549 -1443h-85z" />
    <glyph glyph-name="Acircumflex" unicode="&#xc2;" horiz-adv-x="1221" 
d="M577 1843h68l271 -290h-83l-221 238h-2l-221 -238h-83zM608 1340l-296 -788h598l-297 788h-5zM1115 0l-180 481h-649l-179 -481h-86l550 1443h80l549 -1443h-85z" />
    <glyph glyph-name="Atilde" unicode="&#xc3;" horiz-adv-x="1221" 
d="M478 1713q-91 0 -91 -153h-60q1 98 39 155t108 57t128 -58q24 -24 45 -48q53 -58 99 -58q89 0 89 154h61q0 -97 -39 -155t-108 -58t-125 58q-24 24 -46 48q-53 58 -100 58zM608 1340l-296 -788h598l-297 788h-5zM1115 0l-180 481h-649l-179 -481h-86l550 1443h80
l549 -1443h-85z" />
    <glyph glyph-name="Adieresis" unicode="&#xc4;" horiz-adv-x="1221" 
d="M764 1563q-28 -1 -48 19t-20 48t20 46q20 20 48 20t47 -20q20 -20 20 -46q0 -28 -20 -48q-19 -20 -47 -19zM458 1563q-28 -1 -47 19q-20 20 -20 48t20 46q19 20 47 20t48 -20t20 -46q0 -28 -20 -48t-48 -19zM608 1340l-296 -788h598l-297 788h-5zM1115 0l-180 481h-649
l-179 -481h-86l550 1443h80l549 -1443h-85z" />
    <glyph glyph-name="Aring" unicode="&#xc5;" horiz-adv-x="1221" 
d="M611 1554q52 0 88 36t36 89t-36 89t-88 36t-88 -36t-36 -89t36 -89t88 -36zM611 1506q-71 0 -121 51t-51 122q1 71 51 122t121 51t121 -51t51 -122q-1 -71 -51 -122t-121 -51zM608 1340l-296 -788h598l-297 788h-5zM1115 0l-180 481h-649l-179 -481h-86l550 1443h80
l549 -1443h-85z" />
    <glyph glyph-name="AE" unicode="&#xc6;" horiz-adv-x="1900" 
d="M999 0v422h-659l-210 -422h-84l722 1443h1021v-73h-712v-597h676v-72h-676v-628h712v-73h-790zM999 492v881h-184l-441 -881h625z" />
    <glyph glyph-name="Ccedilla" unicode="&#xc7;" horiz-adv-x="1326" 
d="M821 -295q0 102 -160 102h-52v43l55 130q-274 14 -436 216t-161 536q0 334 172 534q172 198 463 198q220 0 382 -138t185 -345h-79q-22 173 -162 291t-326 118q-254 0 -404 -178t-150 -485t150 -491t404 -183q192 -1 328 105t160 278h79q-25 -199 -173 -324t-368 -133
l-50 -120q96 0 152 -41q56 -42 55 -114t-61 -120t-144 -48q-84 -1 -140 17v56q42 -17 116 -17t120 32t45 81z" />
    <glyph glyph-name="Egrave" unicode="&#xc8;" horiz-adv-x="1068" 
d="M969 73v-73h-841v1443h841v-73h-762v-594h726v-72h-726v-631h762zM517 1553l-297 290h95l280 -290h-78z" />
    <glyph glyph-name="Eacute" unicode="&#xc9;" horiz-adv-x="1068" 
d="M969 73v-73h-841v1443h841v-73h-762v-594h726v-72h-726v-631h762zM580 1553h-78l279 290h96z" />
    <glyph glyph-name="Ecircumflex" unicode="&#xca;" horiz-adv-x="1068" 
d="M969 73v-73h-841v1443h841v-73h-762v-594h726v-72h-726v-631h762zM514 1843h68l271 -290h-83l-221 238h-2l-221 -238h-83z" />
    <glyph glyph-name="Edieresis" unicode="&#xcb;" horiz-adv-x="1068" 
d="M969 73v-73h-841v1443h841v-73h-762v-594h726v-72h-726v-631h762zM700 1563q-28 -1 -47 19q-20 20 -20 48t20 46q19 20 47 20t48 -20t20 -46q0 -28 -20 -48t-48 -19zM396 1563q-28 -1 -48 19t-20 48t20 46q20 20 48 20t47 -20q20 -20 20 -46q0 -28 -20 -48
q-19 -20 -47 -19z" />
    <glyph glyph-name="Igrave" unicode="&#xcc;" horiz-adv-x="335" 
d="M136 1553l-297 290h95l280 -290h-78zM207 0h-79v1443h79v-1443z" />
    <glyph glyph-name="Iacute" unicode="&#xcd;" horiz-adv-x="335" 
d="M199 1553h-78l279 290h96zM207 0h-79v1443h79v-1443z" />
    <glyph glyph-name="Icircumflex" unicode="&#xce;" horiz-adv-x="335" 
d="M133 1843h68l271 -290h-83l-221 238h-2l-221 -238h-83zM207 0h-79v1443h79v-1443z" />
    <glyph glyph-name="Idieresis" unicode="&#xcf;" horiz-adv-x="335" 
d="M320 1563q-28 -1 -48 19t-20 48t20 46q20 20 48 20t47 -20q20 -20 20 -46q0 -28 -20 -48q-19 -20 -47 -19zM14 1563q-28 -1 -47 19q-20 20 -20 48t20 46q19 20 47 20t48 -20t20 -46q0 -28 -20 -48t-48 -19zM207 0h-79v1443h79v-1443z" />
    <glyph glyph-name="Eth" unicode="&#xd0;" horiz-adv-x="1399" 
d="M128 1443h449q328 0 508 -189q180 -188 180 -532t-180 -533t-508 -189h-449v705h-115v73h115v665zM208 73h365q295 1 453 169t159 480q0 312 -159 480t-453 168h-365v-592h358v-73h-358v-632z" />
    <glyph glyph-name="Ntilde" unicode="&#xd1;" horiz-adv-x="1341" 
d="M206 0h-78v1443h82l919 -1299h6v1299h79v-1443h-75l-927 1307h-6v-1307zM538 1713q-91 0 -91 -153h-60q1 98 39 155t108 57t128 -58q24 -24 45 -48q53 -58 99 -58q89 0 89 154h61q0 -97 -39 -155t-108 -58t-125 58q-24 24 -46 48q-53 58 -100 58z" />
    <glyph glyph-name="Ograve" unicode="&#xd2;" horiz-adv-x="1420" 
d="M710 1390q-258 0 -410 -180t-152 -488q0 -306 152 -488t410 -181q258 0 410 181t152 488q0 308 -152 488t-410 180zM710 1464q295 0 469 -201t174 -542q1 -341 -173 -541t-470 -201q-296 1 -470 201t-173 541q0 341 174 542t469 201zM679 1553l-297 290h95l280 -290h-78z
" />
    <glyph glyph-name="Oacute" unicode="&#xd3;" horiz-adv-x="1420" 
d="M710 1390q-258 0 -410 -180t-152 -488q0 -306 152 -488t410 -181q258 0 410 181t152 488q0 308 -152 488t-410 180zM710 1464q295 0 469 -201t174 -542q1 -341 -173 -541t-470 -201q-296 1 -470 201t-173 541q0 341 174 542t469 201zM742 1553h-78l279 290h96z" />
    <glyph glyph-name="Ocircumflex" unicode="&#xd4;" horiz-adv-x="1420" 
d="M710 1390q-258 0 -410 -180t-152 -488q0 -306 152 -488t410 -181q258 0 410 181t152 488q0 308 -152 488t-410 180zM710 1464q295 0 469 -201t174 -542q1 -341 -173 -541t-470 -201q-296 1 -470 201t-173 541q0 341 174 542t469 201zM676 1843h68l271 -290h-83l-221 238
h-2l-221 -238h-83z" />
    <glyph glyph-name="Otilde" unicode="&#xd5;" horiz-adv-x="1420" 
d="M577 1713q-91 0 -91 -153h-60q0 98 38 155t109 57q69 0 127 -58q24 -24 46 -48q53 -58 99 -58q89 0 89 154h61q0 -97 -39 -155t-108 -58q-70 0 -126 58q-24 24 -45 48q-53 58 -100 58zM710 1390q-258 0 -410 -180t-152 -488q0 -306 152 -488t410 -181q258 0 410 181
t152 488q0 308 -152 488t-410 180zM710 1464q295 0 469 -201t174 -542q1 -341 -173 -541t-470 -201q-296 1 -470 201t-173 541q0 341 174 542t469 201z" />
    <glyph glyph-name="Odieresis" unicode="&#xd6;" horiz-adv-x="1420" 
d="M710 1390q-258 0 -410 -180t-152 -488q0 -306 152 -488t410 -181q258 0 410 181t152 488q0 308 -152 488t-410 180zM710 1464q295 0 469 -201t174 -542q1 -341 -173 -541t-470 -201q-296 1 -470 201t-173 541q0 341 174 542t469 201zM862 1563q-28 -1 -47 19
q-20 20 -20 48t20 46q19 20 47 20t48 -20t20 -46q0 -28 -20 -48t-48 -19zM558 1563q-28 -1 -48 19t-20 48t20 46q20 20 48 20t47 -20q20 -20 20 -46q0 -28 -20 -48q-19 -20 -47 -19z" />
    <glyph glyph-name="multiply" unicode="&#xd7;" horiz-adv-x="1192" 
d="M597 530l-322 -322l-50 49l322 322l-322 323l50 50l321 -323l322 321l50 -48l-321 -323l321 -321l-50 -50z" />
    <glyph glyph-name="Oslash" unicode="&#xd8;" horiz-adv-x="1420" 
d="M1353 717q1 -337 -173 -537t-470 -201q-243 0 -407 139l-157 -202l-51 37l162 208q-190 201 -190 551t174 551t454 201t449 -164l144 184l50 -35l-151 -195q166 -200 166 -537zM700 1390q-246 0 -400 -180q-152 -180 -152 -492q0 -310 160 -492l787 1010
q-149 154 -395 154zM710 53q258 0 410 181t152 478t-136 477l-784 -1008q143 -128 358 -128z" />
    <glyph glyph-name="Ugrave" unicode="&#xd9;" horiz-adv-x="1332" 
d="M207 1443v-939q0 -207 124 -329t336 -122t336 122t124 329v939h79v-942q0 -237 -146 -379t-393 -143q-247 1 -393 143t-146 379v942h79zM635 1553l-297 290h95l280 -290h-78z" />
    <glyph glyph-name="Uacute" unicode="&#xda;" horiz-adv-x="1332" 
d="M207 1443v-939q0 -207 124 -329t336 -122t336 122t124 329v939h79v-942q0 -237 -146 -379t-393 -143q-247 1 -393 143t-146 379v942h79zM698 1553h-78l279 290h96z" />
    <glyph glyph-name="Ucircumflex" unicode="&#xdb;" horiz-adv-x="1332" 
d="M207 1443v-939q0 -207 124 -329t336 -122t336 122t124 329v939h79v-942q0 -237 -146 -379t-393 -143q-247 1 -393 143t-146 379v942h79zM632 1843h68l271 -290h-83l-221 238h-2l-221 -238h-83z" />
    <glyph glyph-name="Udieresis" unicode="&#xdc;" horiz-adv-x="1332" 
d="M207 1443v-939q0 -207 124 -329t336 -122t336 122t124 329v939h79v-942q0 -237 -146 -379t-393 -143q-247 1 -393 143t-146 379v942h79zM818 1563q-28 -1 -47 19q-20 20 -20 48t20 46q19 20 47 20t48 -20t20 -46q0 -28 -20 -48t-48 -19zM514 1563q-28 -1 -48 19t-20 48
t20 46q20 20 48 20t47 -20q20 -20 20 -46q0 -28 -20 -48q-19 -20 -47 -19z" />
    <glyph glyph-name="Yacute" unicode="&#xdd;" horiz-adv-x="1172" 
d="M618 1553h-78l279 290h96zM626 0h-79v629l-525 814h93l469 -733h5l469 733h92l-524 -814v-629z" />
    <glyph glyph-name="Thorn" unicode="&#xde;" horiz-adv-x="1209" 
d="M243 1085v-661h390q175 0 275 88t100 242t-100 242q-100 89 -275 89h-390zM163 1443h80v-285h404q197 0 319 -108t121 -296q-1 -186 -121 -294t-320 -108h-403v-352h-80v1443z" />
    <glyph glyph-name="germandbls" unicode="&#xdf;" horiz-adv-x="1090" 
d="M210 0h-76v1072q0 178 100 278t276 99q175 -1 281 -95t106 -233t-74 -234t-185 -122v-3q166 -16 272 -117t106 -266t-126 -281t-321 -116q-90 0 -170 16v72q70 -18 167 -18q159 0 266 96t107 243t-116 237t-303 90h-99v75h96q127 0 215 91t88 217t-84 202t-224 76
t-221 -83t-81 -229v-1067z" />
    <glyph glyph-name="agrave" unicode="&#xe0;" horiz-adv-x="1030" 
d="M583 1253h-74l-249 303h93zM432 -14q-148 0 -246 84q-100 84 -100 222q0 136 98 214t287 92l369 27v96q0 141 -82 220t-222 79q-141 0 -228 -67t-106 -189h-75q14 149 125 238q110 89 284 89t278 -98t103 -267v-726h-75v232h-2q-40 -110 -150 -178t-258 -68zM470 55
q144 1 257 101t113 243v161l-359 -27q-155 -11 -236 -73t-81 -168t82 -171q80 -66 224 -66z" />
    <glyph glyph-name="aacute" unicode="&#xe1;" horiz-adv-x="1030" 
d="M552 1253h-74l230 303h93zM432 -14q-148 0 -246 84q-100 84 -100 222q0 136 98 214t287 92l369 27v96q0 141 -82 220t-222 79q-141 0 -228 -67t-106 -189h-75q14 149 125 238q110 89 284 89t278 -98t103 -267v-726h-75v232h-2q-40 -110 -150 -178t-258 -68zM470 55
q144 1 257 101t113 243v161l-359 -27q-155 -11 -236 -73t-81 -168t82 -171q80 -66 224 -66z" />
    <glyph glyph-name="acircumflex" unicode="&#xe2;" horiz-adv-x="1030" 
d="M563 1556l268 -303h-80l-217 249h-3l-217 -249h-81l268 303h62zM432 -14q-148 0 -246 84q-100 84 -100 222q0 136 98 214t287 92l369 27v96q0 141 -82 220t-222 79q-141 0 -228 -67t-106 -189h-75q14 149 125 238q110 89 284 89t278 -98t103 -267v-726h-75v232h-2
q-40 -110 -150 -178t-258 -68zM470 55q144 1 257 101t113 243v161l-359 -27q-155 -11 -236 -73t-81 -168t82 -171q80 -66 224 -66z" />
    <glyph glyph-name="atilde" unicode="&#xe3;" horiz-adv-x="1030" 
d="M308 1266h-60q0 98 38 155t109 57q69 0 127 -58q24 -24 46 -48q53 -58 99 -58q89 0 89 154h61q0 -97 -39 -155t-108 -58q-70 0 -126 58q-24 24 -45 48q-53 58 -100 58q-91 0 -91 -153zM432 -14q-148 0 -246 84q-100 84 -100 222q0 136 98 214t287 92l369 27v96
q0 141 -82 220t-222 79q-141 0 -228 -67t-106 -189h-75q14 149 125 238q110 89 284 89t278 -98t103 -267v-726h-75v232h-2q-40 -110 -150 -178t-258 -68zM470 55q144 1 257 101t113 243v161l-359 -27q-155 -11 -236 -73t-81 -168t82 -171q80 -66 224 -66z" />
    <glyph glyph-name="adieresis" unicode="&#xe4;" horiz-adv-x="1030" 
d="M684 1256q-28 0 -47 20q-20 20 -20 46q0 28 20 48q19 20 47 19q28 1 48 -19t20 -48t-20 -46q-20 -20 -48 -20zM380 1256q-28 0 -48 20t-20 46q0 28 20 48t48 19q28 1 47 -19q20 -20 20 -48t-20 -46q-19 -20 -47 -20zM432 -14q-148 0 -246 84q-100 84 -100 222
q0 136 98 214t287 92l369 27v96q0 141 -82 220t-222 79q-141 0 -228 -67t-106 -189h-75q14 149 125 238q110 89 284 89t278 -98t103 -267v-726h-75v232h-2q-40 -110 -150 -178t-258 -68zM470 55q144 1 257 101t113 243v161l-359 -27q-155 -11 -236 -73t-81 -168t82 -171
q80 -66 224 -66z" />
    <glyph glyph-name="aring" unicode="&#xe5;" horiz-adv-x="1030" 
d="M532 1282q52 0 88 36t36 89t-36 89t-88 36t-88 -36t-36 -89t36 -89t88 -36zM532 1234q-72 0 -122 51t-50 122t50 122t122 51t122 -51t50 -122t-50 -122t-122 -51zM432 -14q-148 0 -246 84q-100 84 -100 222q0 136 98 214t287 92l369 27v96q0 141 -82 220t-222 79
q-141 0 -228 -67t-106 -189h-75q14 149 125 238q110 89 284 89t278 -98t103 -267v-726h-75v232h-2q-40 -110 -150 -178t-258 -68zM470 55q144 1 257 101t113 243v161l-359 -27q-155 -11 -236 -73t-81 -168t82 -171q80 -66 224 -66z" />
    <glyph glyph-name="ae" unicode="&#xe6;" horiz-adv-x="1830" 
d="M470 55q146 -1 258 101t112 247v134l-362 -23q-154 -10 -234 -68t-80 -160t80 -166q80 -65 226 -65zM1312 1021q-170 -1 -278 -117t-116 -306h768q-1 191 -103 307q-101 116 -271 116zM1326 -14q-163 0 -274 78t-160 225h-6q-44 -141 -160 -222t-278 -81q-160 0 -261 83
t-101 216t97 208t284 86l373 24v127q0 136 -84 213t-226 77t-229 -68q-88 -68 -104 -188h-76q15 148 125 238t272 89q160 -1 262 -77t116 -210h6q47 130 155 208t259 79q206 1 328 -139t121 -374v-46h-848v-9q-1 -211 109 -339t293 -128q140 0 233 68t118 177h79
q-28 -139 -144 -227t-279 -88z" />
    <glyph glyph-name="ccedilla" unicode="&#xe7;" horiz-adv-x="1028" 
d="M659 -295q0 102 -160 102h-52v43l58 137q-202 12 -321 160t-119 396t129 398t345 150q169 0 287 -96t143 -242h-77q-24 119 -120 193t-233 74q-181 0 -289 -130t-107 -352q-1 -222 107 -352t290 -130q137 0 232 71t119 188h78q-25 -141 -133 -231t-267 -97l-53 -128
q96 0 152 -41q56 -42 55 -114t-61 -120t-144 -48q-84 -1 -140 17v56q42 -17 116 -17t120 32t45 81z" />
    <glyph glyph-name="egrave" unicode="&#xe8;" horiz-adv-x="1062" 
d="M545 -14q-221 0 -351 146t-129 401q-1 254 129 406t340 152q210 -1 337 -143q126 -142 126 -377v-45h-853v-4q0 -218 109 -342t293 -124q144 0 240 68t119 177h79q-28 -139 -146 -227t-293 -88zM537 1021q-169 0 -276 -118t-116 -311h773q0 191 -106 310t-275 119z
M588 1253h-74l-249 303h93z" />
    <glyph glyph-name="eacute" unicode="&#xe9;" horiz-adv-x="1062" 
d="M545 -14q-221 0 -351 146t-129 401q-1 254 129 406t340 152q210 -1 337 -143q126 -142 126 -377v-45h-853v-4q0 -218 109 -342t293 -124q144 0 240 68t119 177h79q-28 -139 -146 -227t-293 -88zM537 1021q-169 0 -276 -118t-116 -311h773q0 191 -106 310t-275 119z
M557 1253h-74l230 303h93z" />
    <glyph glyph-name="ecircumflex" unicode="&#xea;" horiz-adv-x="1062" 
d="M545 -14q-221 0 -351 146t-129 401q-1 254 129 406t340 152q210 -1 337 -143q126 -142 126 -377v-45h-853v-4q0 -218 109 -342t293 -124q144 0 240 68t119 177h79q-28 -139 -146 -227t-293 -88zM537 1021q-169 0 -276 -118t-116 -311h773q0 191 -106 310t-275 119z
M568 1556l268 -303h-80l-217 249h-3l-217 -249h-81l268 303h62z" />
    <glyph glyph-name="edieresis" unicode="&#xeb;" horiz-adv-x="1062" 
d="M690 1256q-28 0 -48 20t-20 46q0 28 20 48t48 19q28 1 47 -19q20 -20 20 -48t-20 -46q-19 -20 -47 -20zM384 1256q-28 0 -47 20q-20 20 -20 46q0 28 20 48q19 20 47 19q28 1 48 -19t20 -48t-20 -46q-20 -20 -48 -20zM545 -14q-221 0 -351 146t-129 401q-1 254 129 406
t340 152q210 -1 337 -143q126 -142 126 -377v-45h-853v-4q0 -218 109 -342t293 -124q144 0 240 68t119 177h79q-28 -139 -146 -227t-293 -88zM537 1021q-169 0 -276 -118t-116 -311h773q0 191 -106 310t-275 119z" />
    <glyph glyph-name="igrave" unicode="&#xec;" horiz-adv-x="336" 
d="M129 0v1077h78v-1077h-78zM219 1253h-74l-249 303h93z" />
    <glyph glyph-name="iacute" unicode="&#xed;" horiz-adv-x="336" 
d="M129 0v1077h78v-1077h-78zM188 1253h-74l230 303h93z" />
    <glyph glyph-name="icircumflex" unicode="&#xee;" horiz-adv-x="336" 
d="M129 0v1077h78v-1077h-78zM199 1556l268 -303h-80l-217 249h-3l-217 -249h-81l268 303h62z" />
    <glyph glyph-name="idieresis" unicode="&#xef;" horiz-adv-x="336" 
d="M320 1256q-28 0 -47 20q-20 20 -20 46q0 28 20 48q19 20 47 19q28 1 48 -19t20 -48t-20 -46q-20 -20 -48 -20zM16 1256q-28 0 -48 20t-20 46q0 28 20 48t48 19q28 1 47 -19q20 -20 20 -48t-20 -46q-19 -20 -47 -20zM129 0v1077h78v-1077h-78z" />
    <glyph glyph-name="eth" unicode="&#xf0;" horiz-adv-x="1120" 
d="M546 983q-176 -1 -286 -127t-111 -331q1 -205 111 -338t285 -133t283 130t108 340q0 209 -107 334t-283 125zM547 -17q-213 -1 -345 151t-132 390t130 383q130 146 336 146q122 0 222 -60t152 -166h8q-59 275 -224 448l-290 -117l-20 55l267 109q-73 72 -233 167h108
q120 -69 193 -142l267 107l20 -55l-243 -98q248 -283 248 -742q1 -264 -125 -420t-339 -156z" />
    <glyph glyph-name="ntilde" unicode="&#xf1;" horiz-adv-x="1080" 
d="M119 0v1077h73v-237h3q39 114 139 182t236 69q179 1 288 -107t109 -289v-695h-78v686q0 154 -92 244t-247 90t-254 -106t-99 -273v-641h-78zM413 1419q-91 0 -91 -153h-60q0 98 38 155t109 57q69 0 127 -58q24 -24 46 -48q53 -58 99 -58q89 0 89 154h61q0 -97 -39 -155
t-108 -58q-70 0 -126 58q-24 24 -45 48q-53 58 -100 58z" />
    <glyph glyph-name="ograve" unicode="&#xf2;" horiz-adv-x="1089" 
d="M544 56q182 0 292 130t109 352q0 222 -109 352t-292 130t-292 -130t-109 -352q-1 -222 109 -352t292 -130zM544 -14q-216 0 -348 150t-131 402q-1 252 131 403q132 150 348 150t348 -150q132 -151 132 -403t-132 -402t-348 -150zM595 1252h-74l-249 303h93z" />
    <glyph glyph-name="oacute" unicode="&#xf3;" horiz-adv-x="1089" 
d="M544 56q182 0 292 130t109 352q0 222 -109 352t-292 130t-292 -130t-109 -352q-1 -222 109 -352t292 -130zM544 -14q-216 0 -348 150t-131 402q-1 252 131 403q132 150 348 150t348 -150q132 -151 132 -403t-132 -402t-348 -150zM564 1252h-74l230 303h93z" />
    <glyph glyph-name="ocircumflex" unicode="&#xf4;" horiz-adv-x="1089" 
d="M544 56q182 0 292 130t109 352q0 222 -109 352t-292 130t-292 -130t-109 -352q-1 -222 109 -352t292 -130zM544 -14q-216 0 -348 150t-131 402q-1 252 131 403q132 150 348 150t348 -150q132 -151 132 -403t-132 -402t-348 -150zM575 1555l268 -303h-80l-217 249h-3
l-217 -249h-81l268 303h62z" />
    <glyph glyph-name="otilde" unicode="&#xf5;" horiz-adv-x="1089" 
d="M544 56q182 0 292 130t109 352q0 222 -109 352t-292 130t-292 -130t-109 -352q-1 -222 109 -352t292 -130zM544 -14q-216 0 -348 150t-131 402q-1 252 131 403q132 150 348 150t348 -150q132 -151 132 -403t-132 -402t-348 -150zM411 1418q-91 0 -91 -153h-60
q0 98 38 155t109 57q69 0 127 -58q24 -24 46 -48q53 -58 99 -58q89 0 89 154h61q0 -97 -39 -155t-108 -58q-70 0 -126 58q-24 24 -45 48q-53 58 -100 58z" />
    <glyph glyph-name="odieresis" unicode="&#xf6;" horiz-adv-x="1089" 
d="M544 56q182 0 292 130t109 352q0 222 -109 352t-292 130t-292 -130t-109 -352q-1 -222 109 -352t292 -130zM544 -14q-216 0 -348 150t-131 402q-1 252 131 403q132 150 348 150t348 -150q132 -151 132 -403t-132 -402t-348 -150zM696 1255q-28 -1 -47 19q-20 20 -20 48
t20 46q19 20 47 20t48 -20t20 -46q0 -28 -20 -48t-48 -19zM392 1255q-28 -1 -48 19t-20 48t20 46q20 20 48 20t47 -20q20 -20 20 -46q0 -28 -20 -48q-19 -20 -47 -19z" />
    <glyph glyph-name="divide" unicode="&#xf7;" horiz-adv-x="1192" 
d="M1086 541h-980v69h980v-69zM597 138q-35 0 -59 24t-24 58t24 59q24 24 59 24t59 -24q24 -25 23 -59q1 -34 -23 -58t-59 -24zM597 832q-35 0 -59 24t-24 59t24 59t59 23q35 1 59 -23t23 -59q1 -35 -23 -59t-59 -24z" />
    <glyph glyph-name="oslash" unicode="&#xf8;" horiz-adv-x="1089" 
d="M1024 540q0 -254 -132 -404t-348 -150q-161 0 -277 85l-110 -154l-53 35l114 160q-153 151 -153 415q-1 264 131 414t348 150q176 0 300 -102l102 143l51 -33l-109 -153q136 -152 136 -406zM528 1020q-168 0 -276 -130q-109 -130 -109 -356t120 -360l537 753
q-104 93 -272 93zM544 56q182 0 292 130t109 348q0 218 -102 348l-534 -751q98 -75 235 -75z" />
    <glyph glyph-name="ugrave" unicode="&#xf9;" horiz-adv-x="1080" 
d="M960 1077v-1077h-72v235h-3q-36 -109 -142 -179t-239 -70q-176 0 -284 106t-107 286v699h78v-687q-1 -158 89 -246t244 -88t256 104q103 104 103 273v644h77zM588 1252h-74l-249 303h93z" />
    <glyph glyph-name="uacute" unicode="&#xfa;" horiz-adv-x="1080" 
d="M960 1077v-1077h-72v235h-3q-36 -109 -142 -179t-239 -70q-176 0 -284 106t-107 286v699h78v-687q-1 -158 89 -246t244 -88t256 104q103 104 103 273v644h77zM557 1252h-74l230 303h93z" />
    <glyph glyph-name="ucircumflex" unicode="&#xfb;" horiz-adv-x="1080" 
d="M960 1077v-1077h-72v235h-3q-36 -109 -142 -179t-239 -70q-176 0 -284 106t-107 286v699h78v-687q-1 -158 89 -246t244 -88t256 104q103 104 103 273v644h77zM568 1555l268 -303h-80l-217 249h-3l-217 -249h-81l268 303h62z" />
    <glyph glyph-name="udieresis" unicode="&#xfc;" horiz-adv-x="1080" 
d="M690 1255q-28 -1 -48 19t-20 48t20 46q20 20 48 20t47 -20q20 -20 20 -46q0 -28 -20 -48q-19 -20 -47 -19zM384 1255q-28 -1 -47 19q-20 20 -20 48t20 46q19 20 47 20t48 -20t20 -46q0 -28 -20 -48t-48 -19zM960 1077v-1077h-72v235h-3q-36 -109 -142 -179t-239 -70
q-176 0 -284 106t-107 286v699h78v-687q-1 -158 89 -246t244 -88t256 104q103 104 103 273v644h77z" />
    <glyph glyph-name="yacute" unicode="&#xfd;" horiz-adv-x="919" 
d="M480 1252h-74l230 303h93zM186 -354q-24 0 -54 9v69q24 -8 56 -8q72 0 117 45t87 154l27 70l-412 1092h83l369 -1001h2l369 1001h82l-417 -1111q-73 -192 -134 -256t-175 -64z" />
    <glyph glyph-name="thorn" unicode="&#xfe;" horiz-adv-x="1129" 
d="M598 54q174 0 280 133t107 351q-1 218 -107 352t-280 133q-174 0 -284 -135q-110 -136 -109 -350q-1 -214 109 -349t284 -135zM610 1093q202 1 328 -153t126 -402t-126 -401q-126 -154 -328 -154q-138 0 -244 75t-153 203h-7v-646h-77v1868h74v-680h7q47 133 154 211
t246 79z" />
    <glyph glyph-name="ydieresis" unicode="&#xff;" horiz-adv-x="919" 
d="M612 1255q-28 -1 -47 19q-20 20 -20 48t20 46q19 20 47 20t48 -20t20 -46q0 -28 -20 -48t-48 -19zM308 1255q-28 -1 -48 19t-20 48t20 46q20 20 48 20t47 -20q20 -20 20 -46q0 -28 -20 -48q-19 -20 -47 -19zM186 -354q-24 0 -54 9v69q24 -8 56 -8q72 0 117 45t87 154
l27 70l-412 1092h83l369 -1001h2l369 1001h82l-417 -1111q-73 -192 -134 -256t-175 -64z" />
    <glyph glyph-name="Amacron" unicode="&#x100;" horiz-adv-x="1221" 
d="M901 1679v-57h-580v57h580zM608 1340l-296 -788h598l-297 788h-5zM1115 0l-180 481h-649l-179 -481h-86l550 1443h80l549 -1443h-85z" />
    <glyph glyph-name="amacron" unicode="&#x101;" horiz-adv-x="1030" 
d="M825 1366v-58h-596v58h596zM432 -14q-148 0 -246 84q-100 84 -100 222q0 136 98 214t287 92l369 27v96q0 141 -82 220t-222 79q-141 0 -228 -67t-106 -189h-75q14 149 125 238q110 89 284 89t278 -98t103 -267v-726h-75v232h-2q-40 -110 -150 -178t-258 -68zM470 55
q144 1 257 101t113 243v161l-359 -27q-155 -11 -236 -73t-81 -168t82 -171q80 -66 224 -66z" />
    <glyph glyph-name="Abreve" unicode="&#x102;" horiz-adv-x="1221" 
d="M342 1789h61q0 -77 58 -129t150 -51q92 -1 150 51t58 129h61q0 -107 -76 -171t-193 -65q-117 1 -193 65t-76 171zM608 1340l-296 -788h598l-297 788h-5zM1115 0l-180 481h-649l-179 -481h-86l550 1443h80l549 -1443h-85z" />
    <glyph glyph-name="abreve" unicode="&#x103;" horiz-adv-x="1030" 
d="M260 1503h62q0 -88 58 -142t152 -54t152 54t58 142h62q0 -117 -76 -185t-196 -68t-196 68t-76 185zM432 -14q-148 0 -246 84q-100 84 -100 222q0 136 98 214t287 92l369 27v96q0 141 -82 220t-222 79q-141 0 -228 -67t-106 -189h-75q14 149 125 238q110 89 284 89
t278 -98t103 -267v-726h-75v232h-2q-40 -110 -150 -178t-258 -68zM470 55q144 1 257 101t113 243v161l-359 -27q-155 -11 -236 -73t-81 -168t82 -171q80 -66 224 -66z" />
    <glyph glyph-name="Aogonek" unicode="&#x104;" horiz-adv-x="1221" 
d="M607 1336l-295 -784h598l-296 784h-7zM1160 -412q-88 0 -144 54t-56 137q0 134 151 235l-176 467h-649l-179 -481h-86l550 1443h80l548 -1441q-164 -87 -164 -214q0 -58 40 -96t103 -38q18 0 22 1v-64q-12 -3 -40 -3z" />
    <glyph glyph-name="aogonek" unicode="&#x105;" horiz-adv-x="1030" 
d="M470 55q144 1 257 101t113 243v161l-359 -27q-155 -11 -236 -73t-81 -168t82 -171q80 -66 224 -66zM878 -412q-88 0 -143 52t-55 137q0 137 162 240v215h-2q-40 -110 -150 -178t-258 -68t-246 84q-100 84 -100 222q0 136 98 214t287 92l369 27v96q0 141 -82 220t-222 79
q-141 0 -228 -67t-106 -189h-75q14 149 125 238q110 89 284 89t278 -98t103 -267v-724q-87 -52 -125 -102t-38 -110q0 -62 40 -99t102 -37q18 0 21 1v-64q-11 -3 -39 -3z" />
    <glyph glyph-name="Cacute" unicode="&#x106;" horiz-adv-x="1326" 
d="M702 -21q-290 -1 -462 203t-173 544q0 340 172 540q172 198 463 198q220 0 382 -138t185 -345h-79q-22 173 -162 291t-326 118q-254 0 -404 -178t-150 -485t150 -491t404 -183q192 -1 328 105t160 278h79q-25 -205 -181 -331t-386 -126zM734 1554h-78l279 290h96z" />
    <glyph glyph-name="cacute" unicode="&#x107;" horiz-adv-x="1028" 
d="M559 1253h-74l230 303h93zM539 1020q-181 0 -289 -130t-107 -352q-1 -222 107 -352t290 -130q137 0 232 71t119 188h78q-25 -147 -142 -238t-287 -91q-217 0 -346 149t-129 403t129 403q129 150 345 150q169 0 287 -96t143 -242h-77q-24 119 -120 193t-233 74z" />
    <glyph glyph-name="Ccircumflex" unicode="&#x108;" horiz-adv-x="1326" 
d="M668 1844h68l271 -290h-83l-221 238h-2l-221 -238h-83zM702 -21q-290 -1 -462 203t-173 544q0 340 172 540q172 198 463 198q220 0 382 -138t185 -345h-79q-22 173 -162 291t-326 118q-254 0 -404 -178t-150 -485t150 -491t404 -183q192 -1 328 105t160 278h79
q-25 -205 -181 -331t-386 -126z" />
    <glyph glyph-name="ccircumflex" unicode="&#x109;" horiz-adv-x="1028" 
d="M539 1020q-181 0 -289 -130t-107 -352q-1 -222 107 -352t290 -130q137 0 232 71t119 188h78q-25 -147 -142 -238t-287 -91q-217 0 -346 149t-129 403t129 403q129 150 345 150q169 0 287 -96t143 -242h-77q-24 119 -120 193t-233 74zM570 1556l268 -303h-80l-217 249h-3
l-217 -249h-81l268 303h62z" />
    <glyph glyph-name="Cdotaccent" unicode="&#x10a;" horiz-adv-x="1326" 
d="M702 -21q-290 -1 -462 203t-173 544q0 340 172 540q172 198 463 198q220 0 382 -138t185 -345h-79q-22 173 -162 291t-326 118q-254 0 -404 -178t-150 -485t150 -491t404 -183q192 -1 328 105t160 278h79q-25 -205 -181 -331t-386 -126zM702 1564q-32 0 -54 22t-23 54
q1 32 23 54t54 22t54 -22t23 -54q-1 -32 -23 -54t-54 -22z" />
    <glyph glyph-name="cdotaccent" unicode="&#x10b;" horiz-adv-x="1028" 
d="M539 1256q-32 0 -55 23t-23 54t23 54t55 23t55 -23t23 -54t-23 -54t-55 -23zM539 1020q-181 0 -289 -130t-107 -352q-1 -222 107 -352t290 -130q137 0 232 71t119 188h78q-25 -147 -142 -238t-287 -91q-217 0 -346 149t-129 403t129 403q129 150 345 150q169 0 287 -96
t143 -242h-77q-24 119 -120 193t-233 74z" />
    <glyph glyph-name="Ccaron" unicode="&#x10c;" horiz-adv-x="1326" 
d="M668 1554l-271 290h83l221 -239h2l221 239h83l-271 -290h-68zM702 -21q-290 -1 -462 203t-173 544q0 340 172 540q172 198 463 198q220 0 382 -138t185 -345h-79q-22 173 -162 291t-326 118q-254 0 -404 -178t-150 -485t150 -491t404 -183q192 -1 328 105t160 278h79
q-25 -205 -181 -331t-386 -126z" />
    <glyph glyph-name="ccaron" unicode="&#x10d;" horiz-adv-x="1028" 
d="M539 1020q-181 0 -289 -130t-107 -352q-1 -222 107 -352t290 -130q137 0 232 71t119 188h78q-25 -147 -142 -238t-287 -91q-217 0 -346 149t-129 403t129 403q129 150 345 150q169 0 287 -96t143 -242h-77q-24 119 -120 193t-233 74zM570 1253h-62l-268 303h81l217 -249
h3l217 249h80z" />
    <glyph glyph-name="Dcaron" unicode="&#x10e;" horiz-adv-x="1332" 
d="M208 1370v-1297h365q295 1 453 169t159 480q0 312 -159 480t-453 168h-365zM128 1443h449q328 0 508 -189q180 -188 180 -532t-180 -533t-508 -189h-449v1443zM518 1553l-271 290h83l221 -239h2l221 239h83l-271 -290h-68z" />
    <glyph glyph-name="dcaron" unicode="&#x10f;" horiz-adv-x="1231" 
d="M534 1020q-174 0 -282 -133t-108 -348t108 -349t282 -134t285 135t111 347t-111 348q-111 134 -285 134zM525 -14q-203 0 -331 154t-129 398q1 246 129 400t330 153q146 -1 256 -85t147 -213h2v713h78v-1506h-73v290h-3q-39 -134 -149 -219t-257 -85zM1193 1483h68
l-15 -385h-53v385z" />
    <glyph glyph-name="Dcroat" unicode="&#x110;" horiz-adv-x="1404" 
d="M179 1443h449q328 0 508 -189q180 -188 180 -532t-180 -533t-508 -189h-449v705h-115v73h115v665zM259 73h365q296 1 454 169t158 480t-159 480t-453 168h-365v-592h358v-73h-358v-632z" />
    <glyph glyph-name="dcroat" unicode="&#x111;" horiz-adv-x="1147" 
d="M1123 1345v-62h-111v-1283h-74v271h-7q-46 -132 -153 -210t-247 -78q-205 0 -333 154q-128 155 -128 401t128 400t333 155q139 1 245 -75t152 -205h7v470h-289v62h289v177h77v-177h111zM542 54q174 0 284 134t110 350q0 215 -110 350t-284 135q-175 -1 -284 -135
t-109 -350t109 -350t284 -134z" />
    <glyph glyph-name="Emacron" unicode="&#x112;" horiz-adv-x="1068" 
d="M838 1679v-57h-580v57h580zM969 73v-73h-841v1443h841v-73h-762v-594h726v-72h-726v-631h762z" />
    <glyph glyph-name="emacron" unicode="&#x113;" horiz-adv-x="1062" 
d="M830 1366v-58h-596v58h596zM545 -14q-221 0 -351 146t-129 401q-1 254 129 406t340 152q210 -1 337 -143q126 -142 126 -377v-45h-853v-4q0 -218 109 -342t293 -124q144 0 240 68t119 177h79q-28 -139 -146 -227t-293 -88zM537 1021q-169 0 -276 -118t-116 -311h773
q0 191 -106 310t-275 119z" />
    <glyph glyph-name="Ebreve" unicode="&#x114;" horiz-adv-x="1068" 
d="M279 1789h61q0 -77 58 -129t150 -51q92 -1 150 51t58 129h61q1 -107 -75 -171t-194 -65q-118 1 -194 65t-75 171zM969 73v-73h-841v1443h841v-73h-762v-594h726v-72h-726v-631h762z" />
    <glyph glyph-name="ebreve" unicode="&#x115;" horiz-adv-x="1062" 
d="M265 1503h62q0 -88 58 -142t152 -54t152 54t58 142h62q1 -117 -75 -185t-197 -68t-197 68t-75 185zM545 -14q-221 0 -351 146t-129 401q-1 254 129 406t340 152q210 -1 337 -143q126 -142 126 -377v-45h-853v-4q0 -218 109 -342t293 -124q144 0 240 68t119 177h79
q-28 -139 -146 -227t-293 -88zM537 1021q-169 0 -276 -118t-116 -311h773q0 191 -106 310t-275 119z" />
    <glyph glyph-name="Edotaccent" unicode="&#x116;" horiz-adv-x="1068" 
d="M969 73v-73h-841v1443h841v-73h-762v-594h726v-72h-726v-631h762zM548 1563q-32 1 -54 23t-23 53q1 31 23 53t54 23q32 -1 54 -23t23 -53q-1 -31 -23 -53t-54 -23z" />
    <glyph glyph-name="edotaccent" unicode="&#x117;" horiz-adv-x="1062" 
d="M545 -14q-221 0 -351 146t-129 401q-1 254 129 406t340 152q210 -1 337 -143q126 -142 126 -377v-45h-853v-4q0 -218 109 -342t293 -124q144 0 240 68t119 177h79q-28 -139 -146 -227t-293 -88zM537 1021q-169 0 -276 -118t-116 -311h773q0 191 -106 310t-275 119z
M537 1256q-32 0 -55 23t-23 54t23 54t55 23t55 -23t23 -54t-23 -54t-55 -23z" />
    <glyph glyph-name="Eogonek" unicode="&#x118;" horiz-adv-x="1068" 
d="M128 0v1443h841v-73h-762v-594h726v-72h-726v-631h762v-62q-173 -93 -173 -223q0 -58 40 -96t103 -38q22 0 30 2v-62q-7 -6 -48 -6q-89 0 -145 53t-56 137q0 124 133 222h-725z" />
    <glyph glyph-name="eogonek" unicode="&#x119;" horiz-adv-x="1062" 
d="M538 1021q-168 0 -276 -118t-117 -311h773q0 192 -106 310t-274 119zM727 -412q-84 0 -140 56t-56 140q0 118 118 208v3q-36 -9 -104 -9q-222 0 -351 148t-129 400q-1 252 129 405q130 152 340 152q210 -1 337 -143q126 -142 126 -377v-45h-853v-4q0 -216 108 -341
t294 -125q140 0 236 66t123 179h79q-32 -159 -188 -264q-192 -123 -192 -243q0 -62 40 -100t101 -38q23 0 30 3v-65q-7 -6 -48 -6z" />
    <glyph glyph-name="Ecaron" unicode="&#x11a;" horiz-adv-x="1068" 
d="M969 73v-73h-841v1443h841v-73h-762v-594h726v-72h-726v-631h762zM514 1553l-271 290h83l221 -239h2l221 239h83l-271 -290h-68z" />
    <glyph glyph-name="ecaron" unicode="&#x11b;" horiz-adv-x="1062" 
d="M545 -14q-221 0 -351 146t-129 401q-1 254 129 406t340 152q210 -1 337 -143q126 -142 126 -377v-45h-853v-4q0 -218 109 -342t293 -124q144 0 240 68t119 177h79q-28 -139 -146 -227t-293 -88zM537 1021q-169 0 -276 -118t-116 -311h773q0 191 -106 310t-275 119z
M568 1253h-62l-268 303h81l217 -249h3l217 249h80z" />
    <glyph glyph-name="Gcircumflex" unicode="&#x11c;" horiz-adv-x="1358" 
d="M1281 571q1 -276 -155 -434t-427 -158q-186 0 -330 94q-144 95 -223 265t-79 392q-1 330 173 532t459 202q217 0 375 -120t198 -317h-81q-43 167 -177 265t-315 98q-251 0 -401 -180t-150 -482t152 -488q152 -187 392 -187q240 1 374 137q136 136 136 369v83h-503v72h582
v-143zM665 1843h68l271 -290h-83l-221 238h-2l-221 -238h-83z" />
    <glyph glyph-name="gcircumflex" unicode="&#x11d;" horiz-adv-x="1119" 
d="M562 -361q-188 0 -300 68q-113 68 -135 180h81q21 -79 113 -129t244 -50q153 0 255 79t102 215v285h-2q-37 -131 -146 -215t-254 -84q-203 0 -329 152t-126 400q1 246 127 398t329 153q145 0 255 -85t148 -217h3v288h73v-1070q0 -172 -125 -270t-313 -98zM530 59
q172 0 282 134q110 135 110 347t-110 346t-282 134q-174 0 -280 -133t-106 -347t106 -348q106 -133 280 -133zM589 1556l268 -303h-80l-217 249h-3l-217 -249h-81l268 303h62z" />
    <glyph glyph-name="Gbreve" unicode="&#x11e;" horiz-adv-x="1358" 
d="M430 1789h61q0 -77 58 -129t150 -51q92 -1 150 51t58 129h61q0 -107 -76 -171t-193 -65q-117 1 -193 65t-76 171zM1281 571q1 -276 -155 -434t-427 -158q-186 0 -330 94q-144 95 -223 265t-79 392q-1 330 173 532t459 202q217 0 375 -120t198 -317h-81q-43 167 -177 265
t-315 98q-251 0 -401 -180t-150 -482t152 -488q152 -187 392 -187q240 1 374 137q136 136 136 369v83h-503v72h582v-143z" />
    <glyph glyph-name="gbreve" unicode="&#x11f;" horiz-adv-x="1119" 
d="M562 -361q-188 0 -300 68q-113 68 -135 180h81q21 -79 113 -129t244 -50q153 0 255 79t102 215v285h-2q-37 -131 -146 -215t-254 -84q-203 0 -329 152t-126 400q1 246 127 398t329 153q145 0 255 -85t148 -217h3v288h73v-1070q0 -172 -125 -270t-313 -98zM530 59
q172 0 282 134q110 135 110 347t-110 346t-282 134q-174 0 -280 -133t-106 -347t106 -348q106 -133 280 -133zM286 1503h62q0 -88 58 -142t152 -54t152 54t58 142h62q0 -117 -76 -185t-196 -68t-196 68t-76 185z" />
    <glyph glyph-name="Gdotaccent" unicode="&#x120;" horiz-adv-x="1358" 
d="M1281 571q1 -276 -155 -434t-427 -158q-186 0 -330 94q-144 95 -223 265t-79 392q-1 330 173 532t459 202q217 0 375 -120t198 -317h-81q-43 167 -177 265t-315 98q-251 0 -401 -180t-150 -482t152 -488q152 -187 392 -187q240 1 374 137q136 136 136 369v83h-503v72h582
v-143zM699 1563q-33 1 -55 23t-22 53t22 53t55 23q33 -1 55 -23t22 -53t-22 -53t-55 -23z" />
    <glyph glyph-name="gdotaccent" unicode="&#x121;" horiz-adv-x="1119" 
d="M562 -361q-188 0 -300 68q-113 68 -135 180h81q21 -79 113 -129t244 -50q153 0 255 79t102 215v285h-2q-37 -131 -146 -215t-254 -84q-203 0 -329 152t-126 400q1 246 127 398t329 153q145 0 255 -85t148 -217h3v288h73v-1070q0 -172 -125 -270t-313 -98zM530 59
q172 0 282 134q110 135 110 347t-110 346t-282 134q-174 0 -280 -133t-106 -347t106 -348q106 -133 280 -133zM558 1256q-32 0 -55 23t-23 54t23 54t55 23t55 -23t23 -54t-23 -54t-55 -23z" />
    <glyph glyph-name="Gcommaaccent" unicode="&#x122;" horiz-adv-x="1358" 
d="M1281 571q1 -276 -155 -434t-427 -158q-186 0 -330 94q-144 95 -223 265t-79 392q-1 330 173 532t459 202q217 0 375 -120t198 -317h-81q-43 167 -177 265t-315 98q-251 0 -401 -180t-150 -482t152 -488q152 -187 392 -187q240 1 374 137q136 136 136 369v83h-503v72h582
v-143zM642 -493h-63l99 344h78z" />
    <glyph glyph-name="gcommaaccent" unicode="&#x123;" horiz-adv-x="1119" 
d="M562 -361q-188 0 -300 68q-113 68 -135 180h81q21 -79 113 -129t244 -50q153 0 255 79t102 215v285h-2q-37 -131 -146 -215t-254 -84q-203 0 -329 152t-126 400q1 246 127 398t329 153q145 0 255 -85t148 -217h3v288h73v-1070q0 -172 -125 -270t-313 -98zM530 59
q172 0 282 134q110 135 110 347t-110 346t-282 134q-174 0 -280 -133t-106 -347t106 -348q106 -133 280 -133zM488 -849h-63l99 344h78z" />
    <glyph glyph-name="Hcircumflex" unicode="&#x124;" horiz-adv-x="1327" 
d="M629 1843h68l271 -290h-83l-221 238h-2l-221 -238h-83zM1199 0h-79v705h-913v-705h-79v1443h79v-666h913v666h79v-1443z" />
    <glyph glyph-name="hcircumflex" unicode="&#x125;" horiz-adv-x="1095" 
d="M134 1906h68l271 -290h-83l-221 238h-2l-221 -238h-83zM129 0v1506h78v-666h3q38 114 139 182t236 69q177 0 287 -109t110 -288v-694h-77v685q0 155 -92 245t-248 90t-257 -106t-101 -275v-639h-78z" />
    <glyph glyph-name="Hbar" unicode="&#x126;" horiz-adv-x="1386" 
d="M1370 1189v-67h-141v-1122h-79v705h-913v-705h-79v1122h-142v67h142v254h79v-254h913v254h79v-254h141zM1150 777v345h-913v-345h913z" />
    <glyph glyph-name="hbar" unicode="&#x127;" horiz-adv-x="1164" 
d="M241 848h4q41 113 141 178t232 65q178 -1 288 -107t110 -284v-700h-77v686q-1 150 -95 242t-246 92t-254 -106t-103 -277v-637h-78v1272h-142v62h142v186h78v-186h289v-62h-289v-424z" />
    <glyph glyph-name="Itilde" unicode="&#x128;" horiz-adv-x="335" 
d="M34 1713q-91 0 -91 -153h-60q1 98 39 155t108 57t128 -58q24 -24 45 -48q53 -58 99 -58q89 0 89 154h61q0 -97 -39 -155t-108 -58t-125 58q-24 24 -46 48q-53 58 -100 58zM207 0h-79v1443h79v-1443z" />
    <glyph glyph-name="itilde" unicode="&#x129;" horiz-adv-x="336" 
d="M35 1419q-91 0 -91 -153h-60q0 98 38 155t109 57q69 0 127 -58q24 -24 46 -48q53 -58 99 -58q89 0 89 154h61q0 -97 -39 -155t-108 -58q-70 0 -126 58q-24 24 -45 48q-53 58 -100 58zM129 0v1077h78v-1077h-78z" />
    <glyph glyph-name="Imacron" unicode="&#x12a;" horiz-adv-x="335" 
d="M457 1679v-57h-580v57h580zM207 0h-79v1443h79v-1443z" />
    <glyph glyph-name="imacron" unicode="&#x12b;" horiz-adv-x="336" 
d="M461 1366v-58h-596v58h596zM129 0v1077h78v-1077h-78z" />
    <glyph glyph-name="Ibreve" unicode="&#x12c;" horiz-adv-x="335" 
d="M-102 1789h61q0 -77 58 -129t150 -51q92 -1 150 51t58 129h61q0 -107 -76 -171t-193 -65q-117 1 -193 65t-76 171zM207 0h-79v1443h79v-1443z" />
    <glyph glyph-name="ibreve" unicode="&#x12d;" horiz-adv-x="336" 
d="M-104 1503h62q0 -88 58 -142t152 -54t152 54t58 142h62q0 -117 -76 -185t-196 -68t-196 68t-76 185zM129 0v1077h78v-1077h-78z" />
    <glyph glyph-name="Iogonek" unicode="&#x12e;" horiz-adv-x="335" 
d="M-31 -223q0 137 159 240v1426h79v-1443q-89 -52 -127 -101t-38 -110t40 -98t102 -37q18 0 22 1v-64q-12 -3 -39 -3q-88 0 -143 52t-55 137z" />
    <glyph glyph-name="iogonek" unicode="&#x12f;" horiz-adv-x="336" 
d="M168 -412q-88 0 -143 52t-55 137q0 137 159 240v1060h78v-1075q-87 -52 -125 -102t-39 -110q-1 -62 39 -99t103 -37q18 0 22 1v-64q-12 -3 -39 -3zM168 1341q-26 0 -44 18q-18 17 -18 43t18 44t44 18t44 -18t19 -44q-1 -26 -19 -43q-18 -18 -44 -18z" />
    <glyph glyph-name="Idotaccent" unicode="&#x130;" horiz-adv-x="335" 
d="M167 1563q-33 1 -55 23t-22 53t22 53t55 23q33 -1 55 -23t22 -53t-22 -53t-55 -23zM207 0h-79v1443h79v-1443z" />
    <glyph glyph-name="dotlessi" unicode="&#x131;" horiz-adv-x="336" 
d="M129 0v1077h78v-1077h-78z" />
    <glyph glyph-name="u0132" unicode="&#x132;" horiz-adv-x="1286" 
d="M770 50q140 0 224 89t85 250v1054h80v-1058q-1 -189 -107 -299t-281 -110t-283 96t-112 248h78q7 -118 92 -194q84 -76 224 -76zM207 0h-79v1443h79v-1443z" />
    <glyph glyph-name="u0133" unicode="&#x133;" horiz-adv-x="673" 
d="M504 1341q-26 0 -44 18q-18 17 -18 43t18 44t44 18t44 -18t19 -44q-1 -26 -19 -43q-18 -18 -44 -18zM543 1077v-1157q0 -145 -68 -210t-210 -65h-30v69h27q107 0 155 48t48 154v1161h78zM168 1341q-26 0 -44 18q-18 17 -18 43t18 44t44 18t44 -18t19 -44q-1 -26 -19 -43
q-18 -18 -44 -18zM129 0v1077h78v-1077h-78z" />
    <glyph glyph-name="Jcircumflex" unicode="&#x134;" horiz-adv-x="951" 
d="M750 1843h68l271 -290h-83l-221 238h-2l-221 -238h-83zM436 50q140 0 224 89t84 250v1054h80v-1058q0 -189 -106 -299t-282 -110q-175 0 -283 96t-112 248h78q7 -118 92 -194t225 -76z" />
    <glyph glyph-name="jcircumflex" unicode="&#x135;" horiz-adv-x="336" 
d="M199 1556l268 -303h-80l-217 249h-3l-217 -249h-81l268 303h62zM206 1077v-1157q0 -145 -68 -210t-210 -65h-29v69h27q107 0 155 48t48 154v1161h77z" />
    <glyph glyph-name="Kcommaaccent" unicode="&#x136;" horiz-adv-x="1142" 
d="M487 -493h-63l99 344h78zM207 0h-79v1443h79v-806h6l750 806h101l-594 -636l660 -807h-101l-615 751l-207 -223v-528z" />
    <glyph glyph-name="kcommaaccent" unicode="&#x137;" horiz-adv-x="938" 
d="M430 -493h-63l99 344h78zM207 0h-78v1506h78v-982h1l609 553h102l-507 -464l511 -613h-95l-474 565l-147 -132v-433z" />
    <glyph glyph-name="Lacute" unicode="&#x139;" horiz-adv-x="1024" 
d="M964 73v-73h-836v1443h79v-1370h757zM199 1553h-78l279 290h96z" />
    <glyph glyph-name="lacute" unicode="&#x13a;" horiz-adv-x="336" 
d="M129 0v1506h78v-1506h-78zM200 1616h-78l279 290h96z" />
    <glyph glyph-name="Lcommaaccent" unicode="&#x13b;" horiz-adv-x="1024" 
d="M964 73v-73h-836v1443h79v-1370h757zM489 -493h-63l99 344h78z" />
    <glyph glyph-name="lcommaaccent" unicode="&#x13c;" horiz-adv-x="336" 
d="M129 0v1506h78v-1506h-78zM111 -493h-63l99 344h78z" />
    <glyph glyph-name="Lcaron" unicode="&#x13d;" horiz-adv-x="1024" 
d="M964 73v-73h-836v1443h79v-1370h757zM449 1443h76l-20 -385h-56v385z" />
    <glyph glyph-name="lcaron" unicode="&#x13e;" horiz-adv-x="432" 
d="M129 0v1506h78v-1506h-78zM393 1483h68l-15 -385h-53v385z" />
    <glyph glyph-name="Lslash" unicode="&#x141;" horiz-adv-x="1052" 
d="M236 73h757v-73h-836v715l-127 -67v69l127 67v659h79v-617l390 206v-68l-390 -207v-684z" />
    <glyph glyph-name="lslash" unicode="&#x142;" horiz-adv-x="347" 
d="M207 0h-78v734l-114 -66v71l114 66v701h78v-656l123 71v-72l-123 -71v-778z" />
    <glyph glyph-name="Nacute" unicode="&#x143;" horiz-adv-x="1341" 
d="M206 0h-78v1443h82l919 -1299h6v1299h79v-1443h-75l-927 1307h-6v-1307zM703 1553h-78l279 290h96z" />
    <glyph glyph-name="nacute" unicode="&#x144;" horiz-adv-x="1080" 
d="M119 0v1077h73v-237h3q39 114 139 182t236 69q179 1 288 -107t109 -289v-695h-78v686q0 154 -92 244t-247 90t-254 -106t-99 -273v-641h-78zM566 1253h-74l230 303h93z" />
    <glyph glyph-name="Ncommaaccent" unicode="&#x145;" horiz-adv-x="1341" 
d="M206 0h-78v1443h82l919 -1299h6v1299h79v-1443h-75l-927 1307h-6v-1307zM614 -493h-63l99 344h78z" />
    <glyph glyph-name="ncommaaccent" unicode="&#x146;" horiz-adv-x="1080" 
d="M119 0v1077h73v-237h3q39 114 139 182t236 69q179 1 288 -107t109 -289v-695h-78v686q0 154 -92 244t-247 90t-254 -106t-99 -273v-641h-78zM474 -493h-63l99 344h78z" />
    <glyph glyph-name="Ncaron" unicode="&#x147;" horiz-adv-x="1341" 
d="M206 0h-78v1443h82l919 -1299h6v1299h79v-1443h-75l-927 1307h-6v-1307zM637 1553l-271 290h83l221 -239h2l221 239h83l-271 -290h-68z" />
    <glyph glyph-name="ncaron" unicode="&#x148;" horiz-adv-x="1080" 
d="M119 0v1077h73v-237h3q39 114 139 182t236 69q179 1 288 -107t109 -289v-695h-78v686q0 154 -92 244t-247 90t-254 -106t-99 -273v-641h-78zM577 1253h-62l-268 303h81l217 -249h3l217 249h80z" />
    <glyph glyph-name="Omacron" unicode="&#x14c;" horiz-adv-x="1420" 
d="M1000 1679v-57h-580v57h580zM710 1390q-258 0 -410 -180t-152 -488q0 -306 152 -488t410 -181q258 0 410 181t152 488q0 308 -152 488t-410 180zM710 1464q295 0 469 -201t174 -542q1 -341 -173 -541t-470 -201q-296 1 -470 201t-173 541q0 341 174 542t469 201z" />
    <glyph glyph-name="omacron" unicode="&#x14d;" horiz-adv-x="1089" 
d="M544 56q182 0 292 130t109 352q0 222 -109 352t-292 130t-292 -130t-109 -352q-1 -222 109 -352t292 -130zM544 -14q-216 0 -348 150t-131 402q-1 252 131 403q132 150 348 150t348 -150q132 -151 132 -403t-132 -402t-348 -150zM837 1365v-58h-596v58h596z" />
    <glyph glyph-name="Obreve" unicode="&#x14e;" horiz-adv-x="1420" 
d="M441 1789h61q0 -77 58 -129t150 -51q92 -1 150 51t58 129h61q1 -107 -75 -171t-194 -65q-118 1 -194 65t-75 171zM710 1390q-258 0 -410 -180t-152 -488q0 -306 152 -488t410 -181q258 0 410 181t152 488q0 308 -152 488t-410 180zM710 1464q295 0 469 -201t174 -542
q1 -341 -173 -541t-470 -201q-296 1 -470 201t-173 541q0 341 174 542t469 201z" />
    <glyph glyph-name="obreve" unicode="&#x14f;" horiz-adv-x="1089" 
d="M544 56q182 0 292 130t109 352q0 222 -109 352t-292 130t-292 -130t-109 -352q-1 -222 109 -352t292 -130zM544 -14q-216 0 -348 150t-131 402q-1 252 131 403q132 150 348 150t348 -150q132 -151 132 -403t-132 -402t-348 -150zM272 1502h62q0 -88 58 -142t152 -54
t152 54t58 142h62q0 -117 -76 -185t-196 -68t-196 68t-76 185z" />
    <glyph glyph-name="Ohungarumlaut" unicode="&#x150;" horiz-adv-x="1420" 
d="M710 1390q-258 0 -410 -180t-152 -488q0 -306 152 -488t410 -181q258 0 410 181t152 488q0 308 -152 488t-410 180zM710 1464q295 0 469 -201t174 -542q1 -341 -173 -541t-470 -201q-296 1 -470 201t-173 541q0 341 174 542t469 201zM621 1553h-75l280 290h93zM888 1553
h-75l280 290h92z" />
    <glyph glyph-name="ohungarumlaut" unicode="&#x151;" horiz-adv-x="1089" 
d="M544 56q182 0 292 130t109 352q0 222 -109 352t-292 130t-292 -130t-109 -352q-1 -222 109 -352t292 -130zM544 -14q-216 0 -348 150t-131 402q-1 252 131 403q132 150 348 150t348 -150q132 -151 132 -403t-132 -402t-348 -150zM386 1252l226 303h92l-247 -303h-71z
M630 1252l226 303h92l-247 -303h-71z" />
    <glyph glyph-name="OE" unicode="&#x152;" horiz-adv-x="2178" 
d="M1285 0v372q-67 -188 -215 -290t-354 -103q-300 0 -474 200t-175 543q1 342 175 542t474 200q205 0 353 -102t216 -289v370h815v-73h-735v-594h698v-72h-698v-631h735v-73h-815zM716 1390q-260 0 -414 -181t-154 -487t154 -488t414 -181q260 0 414 181t154 487
q0 305 -154 487t-414 182z" />
    <glyph glyph-name="oe" unicode="&#x153;" horiz-adv-x="1943" 
d="M143 536q-1 -222 109 -352t292 -130t292 130t109 352q1 222 -109 352t-292 130t-292 -130t-109 -352zM1418 1021q-168 -1 -276 -119t-117 -311h773q0 191 -106 311t-274 119zM1430 -14q-172 0 -292 96t-152 250h-5q-33 -159 -151 -254t-286 -95q-218 -1 -348 149
t-131 404q1 254 131 403q130 150 348 150q166 0 284 -95t153 -252h5q32 154 150 252t282 97q208 -1 334 -143t126 -377v-46h-853v-4q-1 -209 109 -337t294 -128q144 0 238 68t120 177h78q-27 -139 -145 -227t-289 -88z" />
    <glyph glyph-name="Racute" unicode="&#x154;" horiz-adv-x="1150" 
d="M207 616v-616h-79v1443h471q215 -1 339 -111t124 -301q0 -157 -88 -263t-246 -137l371 -631h-93l-361 619q-19 -3 -51 -3h-387zM207 1371v-683h387q181 0 284 91t103 251q1 160 -103 250t-286 91h-385zM527 1553h-78l279 290h96z" />
    <glyph glyph-name="racute" unicode="&#x155;" horiz-adv-x="614" 
d="M119 0v1077h73v-213h3q33 110 107 168t182 59q53 0 98 -18v-78q-44 22 -110 22q-125 0 -200 -97t-75 -251v-669h-78zM362 1253h-74l230 303h93z" />
    <glyph glyph-name="Rcommaaccent" unicode="&#x156;" horiz-adv-x="1150" 
d="M438 -493h-63l99 344h78zM207 616v-616h-79v1443h471q215 -1 339 -111t124 -301q0 -157 -88 -263t-246 -137l371 -631h-93l-361 619q-19 -3 -51 -3h-387zM207 1371v-683h387q181 0 284 91t103 251q1 160 -103 250t-286 91h-385z" />
    <glyph glyph-name="rcommaaccent" unicode="&#x157;" horiz-adv-x="614" 
d="M101 -493h-63l99 344h78zM119 0v1077h73v-213h3q33 110 107 168t182 59q53 0 98 -18v-78q-44 22 -110 22q-125 0 -200 -97t-75 -251v-669h-78z" />
    <glyph glyph-name="Rcaron" unicode="&#x158;" horiz-adv-x="1150" 
d="M461 1553l-271 290h83l221 -239h2l221 239h83l-271 -290h-68zM207 616v-616h-79v1443h471q215 -1 339 -111t124 -301q0 -157 -88 -263t-246 -137l371 -631h-93l-361 619q-19 -3 -51 -3h-387zM207 1371v-683h387q181 0 284 91t103 251q1 160 -103 250t-286 91h-385z" />
    <glyph glyph-name="rcaron" unicode="&#x159;" horiz-adv-x="614" 
d="M119 0v1077h73v-213h3q33 110 107 168t182 59q53 0 98 -18v-78q-44 22 -110 22q-125 0 -200 -97t-75 -251v-669h-78zM373 1253h-62l-268 303h81l217 -249h3l217 249h80z" />
    <glyph glyph-name="Sacute" unicode="&#x15a;" horiz-adv-x="1137" 
d="M580 52q186 0 302 92t117 235q0 113 -81 183t-263 116l-171 42q-200 50 -294 136t-94 221q0 167 137 277t338 110t338 -106t144 -266h-79q-8 130 -122 214t-282 85q-168 -1 -280 -89t-113 -209q0 -121 81 -188t257 -111l161 -41q212 -53 308 -139t96 -229
q0 -180 -139 -293t-363 -113t-368 113t-153 293h79q9 -147 134 -240q124 -93 310 -93zM601 1553h-78l279 290h96z" />
    <glyph glyph-name="sacute" unicode="&#x15b;" horiz-adv-x="923" 
d="M484 1253h-74l230 303h93zM94 813q0 115 106 197t266 81t264 -89t116 -235h-76q-12 115 -94 185t-208 71t-212 -61t-86 -149t54 -133t172 -74l167 -41q161 -39 231 -104t69 -187q0 -122 -112 -205q-113 -83 -285 -83t-285 91t-122 227h78q11 -108 103 -180t228 -71
q136 0 227 63q91 64 91 156t-57 142t-189 82l-173 42q-139 32 -206 96t-67 179z" />
    <glyph glyph-name="Scircumflex" unicode="&#x15c;" horiz-adv-x="1137" 
d="M535 1843h68l271 -290h-83l-221 238h-2l-221 -238h-83zM580 52q186 0 302 92t117 235q0 113 -81 183t-263 116l-171 42q-200 50 -294 136t-94 221q0 167 137 277t338 110t338 -106t144 -266h-79q-8 130 -122 214t-282 85q-168 -1 -280 -89t-113 -209q0 -121 81 -188
t257 -111l161 -41q212 -53 308 -139t96 -229q0 -180 -139 -293t-363 -113t-368 113t-153 293h79q9 -147 134 -240q124 -93 310 -93z" />
    <glyph glyph-name="scircumflex" unicode="&#x15d;" horiz-adv-x="923" 
d="M94 813q0 115 106 197t266 81t264 -89t116 -235h-76q-12 115 -94 185t-208 71t-212 -61t-86 -149t54 -133t172 -74l167 -41q161 -39 231 -104t69 -187q0 -122 -112 -205q-113 -83 -285 -83t-285 91t-122 227h78q11 -108 103 -180t228 -71q136 0 227 63q91 64 91 156
t-57 142t-189 82l-173 42q-139 32 -206 96t-67 179zM495 1556l268 -303h-80l-217 249h-3l-217 -249h-81l268 303h62z" />
    <glyph glyph-name="Scedilla" unicode="&#x15e;" horiz-adv-x="1137" 
d="M697 -295q0 102 -160 102h-52v43l55 130q-207 10 -341 122t-142 283h79q9 -147 134 -240q124 -93 310 -93t302 92t117 235q0 113 -81 183t-263 116l-171 42q-200 50 -294 136t-94 221q0 167 137 277t338 110t338 -106t144 -266h-79q-8 130 -122 214t-282 85
q-168 -1 -280 -89t-113 -209q0 -121 81 -188t257 -111l161 -41q212 -53 308 -139t96 -229q0 -175 -130 -287t-346 -119l-50 -120q96 0 152 -41q56 -42 55 -114t-61 -120t-144 -48q-84 -1 -140 17v56q42 -17 116 -17t120 32t45 81z" />
    <glyph glyph-name="scedilla" unicode="&#x15f;" horiz-adv-x="923" 
d="M584 -295q0 102 -160 102h-52v43l58 137q-158 10 -260 99t-111 218h78q11 -108 103 -180t228 -71q136 0 227 63q91 64 91 156t-57 142t-189 82l-173 42q-139 32 -206 96t-67 179t106 197t266 81t264 -89t116 -235h-76q-12 115 -94 185t-208 71t-212 -61t-86 -149t54 -133
t172 -74l167 -41q161 -39 231 -104t69 -184q0 -119 -103 -201t-267 -89l-52 -128q95 0 151 -41q56 -42 56 -114t-60 -120t-145 -48q-84 -1 -140 17v56q43 -17 117 -17t118 32q46 32 46 81z" />
    <glyph glyph-name="Scaron" unicode="&#x160;" horiz-adv-x="1137" 
d="M535 1553l-271 290h83l221 -239h2l221 239h83l-271 -290h-68zM580 52q186 0 302 92t117 235q0 113 -81 183t-263 116l-171 42q-200 50 -294 136t-94 221q0 167 137 277t338 110t338 -106t144 -266h-79q-8 130 -122 214t-282 85q-168 -1 -280 -89t-113 -209
q0 -121 81 -188t257 -111l161 -41q212 -53 308 -139t96 -229q0 -180 -139 -293t-363 -113t-368 113t-153 293h79q9 -147 134 -240q124 -93 310 -93z" />
    <glyph glyph-name="scaron" unicode="&#x161;" horiz-adv-x="923" 
d="M94 813q0 115 106 197t266 81t264 -89t116 -235h-76q-12 115 -94 185t-208 71t-212 -61t-86 -149t54 -133t172 -74l167 -41q161 -39 231 -104t69 -187q0 -122 -112 -205q-113 -83 -285 -83t-285 91t-122 227h78q11 -108 103 -180t228 -71q136 0 227 63q91 64 91 156
t-57 142t-189 82l-173 42q-139 32 -206 96t-67 179zM495 1253h-62l-268 303h81l217 -249h3l217 249h80z" />
    <glyph glyph-name="Tcedilla" unicode="&#x162;" horiz-adv-x="1138" 
d="M688 -295q0 102 -160 102h-52v43l64 150h-11v1370h-508v73h1096v-73h-508v-1370h-6l-58 -141q95 0 151 -41q56 -42 56 -114t-60 -120t-145 -48q-84 -1 -140 17v56q43 -17 117 -17t118 32q46 32 46 81z" />
    <glyph glyph-name="tcedilla" unicode="&#x163;" horiz-adv-x="551" 
d="M474 -295q0 102 -160 102h-52v43l66 155q-78 16 -114 73t-35 167v764h-158v68h158v277h77v-277h224v-68h-224v-762q0 -96 37 -138t116 -42t85 2v-69q-12 -2 -92 -2h-14l-57 -139q95 0 151 -41q56 -42 56 -114t-60 -120t-145 -48q-84 -1 -140 17v56q43 -17 117 -17t118 32
q46 32 46 81z" />
    <glyph glyph-name="Tcaron" unicode="&#x164;" horiz-adv-x="1138" 
d="M609 0h-80v1370h-508v73h1096v-73h-508v-1370zM535 1553l-271 290h83l221 -239h2l221 239h83l-271 -290h-68z" />
    <glyph glyph-name="tcaron" unicode="&#x165;" horiz-adv-x="656" 
d="M179 1354h77v-277h224v-68h-224v-762q0 -96 37 -138t116 -42t85 2v-69q-12 -2 -111 -2t-151 58t-53 189v764h-158v68h158v277zM399 1619h68l-15 -385h-53v385z" />
    <glyph glyph-name="Tbar" unicode="&#x166;" horiz-adv-x="1149" 
d="M1117 1370h-508v-588h307v-67h-307v-715h-80v715h-295v67h295v588h-508v73h1096v-73z" />
    <glyph glyph-name="tbar" unicode="&#x167;" horiz-adv-x="552" 
d="M256 598v-351q0 -96 37 -138t116 -42t85 2v-69q-12 -2 -111 -2t-151 58t-53 189v353h-158v68h158v343h-158v68h158v277h77v-277h224v-68h-224v-343h224v-68h-224z" />
    <glyph glyph-name="Utilde" unicode="&#x168;" horiz-adv-x="1332" 
d="M533 1713q-91 0 -91 -153h-60q0 98 38 155t109 57q69 0 127 -58q24 -24 46 -48q53 -58 99 -58q89 0 89 154h61q0 -97 -39 -155t-108 -58q-70 0 -126 58q-24 24 -45 48q-53 58 -100 58zM207 1443v-939q0 -207 124 -329t336 -122t336 122t124 329v939h79v-942
q0 -237 -146 -379t-393 -143q-247 1 -393 143t-146 379v942h79z" />
    <glyph glyph-name="utilde" unicode="&#x169;" horiz-adv-x="1080" 
d="M404 1418q-91 0 -91 -153h-60q1 98 39 155t108 57t128 -58q24 -24 45 -48q53 -58 99 -58q89 0 89 154h61q0 -97 -39 -155t-108 -58t-125 58q-24 24 -46 48q-53 58 -100 58zM960 1077v-1077h-72v235h-3q-36 -109 -142 -179t-239 -70q-176 0 -284 106t-107 286v699h78v-687
q-1 -158 89 -246t244 -88t256 104q103 104 103 273v644h77z" />
    <glyph glyph-name="Umacron" unicode="&#x16a;" horiz-adv-x="1332" 
d="M956 1679v-57h-580v57h580zM207 1443v-939q0 -207 124 -329t336 -122t336 122t124 329v939h79v-942q0 -237 -146 -379t-393 -143q-247 1 -393 143t-146 379v942h79z" />
    <glyph glyph-name="umacron" unicode="&#x16b;" horiz-adv-x="1080" 
d="M830 1365v-58h-596v58h596zM960 1077v-1077h-72v235h-3q-36 -109 -142 -179t-239 -70q-176 0 -284 106t-107 286v699h78v-687q-1 -158 89 -246t244 -88t256 104q103 104 103 273v644h77z" />
    <glyph glyph-name="Ubreve" unicode="&#x16c;" horiz-adv-x="1332" 
d="M397 1789h61q0 -77 58 -129t150 -51q92 -1 150 51t58 129h61q1 -107 -75 -171t-194 -65q-118 1 -194 65t-75 171zM207 1443v-939q0 -207 124 -329t336 -122t336 122t124 329v939h79v-942q0 -237 -146 -379t-393 -143q-247 1 -393 143t-146 379v942h79z" />
    <glyph glyph-name="ubreve" unicode="&#x16d;" horiz-adv-x="1080" 
d="M265 1502h62q0 -88 58 -142t152 -54t152 54t58 142h62q1 -117 -75 -185t-197 -68t-197 68t-75 185zM960 1077v-1077h-72v235h-3q-36 -109 -142 -179t-239 -70q-176 0 -284 106t-107 286v699h78v-687q-1 -158 89 -246t244 -88t256 104q103 104 103 273v644h77z" />
    <glyph glyph-name="Uring" unicode="&#x16e;" horiz-adv-x="1332" 
d="M207 1443v-939q0 -207 124 -329t336 -122t336 122t124 329v939h79v-942q0 -237 -146 -379t-393 -143q-247 1 -393 143t-146 379v942h79zM666 1554q52 0 88 36t36 89t-36 89t-88 36t-88 -36t-36 -89t36 -89t88 -36zM666 1506q-72 0 -122 51t-50 122t50 122t122 51t122 -51
t50 -122t-50 -122t-122 -51z" />
    <glyph glyph-name="uring" unicode="&#x16f;" horiz-adv-x="1080" 
d="M537 1281q52 1 88 37t36 88t-36 88t-88 37q-52 -1 -88 -37t-36 -88t36 -88t88 -37zM537 1233q-71 0 -121 51t-51 122q1 71 51 122t121 51t121 -51t51 -122q-1 -71 -51 -122t-121 -51zM960 1077v-1077h-72v235h-3q-36 -109 -142 -179t-239 -70q-176 0 -284 106t-107 286
v699h78v-687q-1 -158 89 -246t244 -88t256 104q103 104 103 273v644h77z" />
    <glyph glyph-name="Uhungarumlaut" unicode="&#x170;" horiz-adv-x="1332" 
d="M577 1553h-75l280 290h93zM844 1553h-75l280 290h92zM207 1443v-939q0 -207 124 -329t336 -122t336 122t124 329v939h79v-942q0 -237 -146 -379t-393 -143q-247 1 -393 143t-146 379v942h79z" />
    <glyph glyph-name="uhungarumlaut" unicode="&#x171;" horiz-adv-x="1080" 
d="M960 1077v-1077h-72v235h-3q-36 -109 -142 -179t-239 -70q-176 0 -284 106t-107 286v699h78v-687q-1 -158 89 -246t244 -88t256 104q103 104 103 273v644h77zM379 1252l226 303h92l-247 -303h-71zM623 1252l226 303h92l-247 -303h-71z" />
    <glyph glyph-name="Uogonek" unicode="&#x172;" horiz-adv-x="1334" 
d="M869 -412q-87 0 -143 52t-56 135q0 120 127 218v4q-60 -18 -130 -18q-247 -1 -393 141t-146 381v942h79v-939q0 -204 126 -328q125 -124 333 -123q208 0 334 124t127 327v939h79v-942q0 -167 -68 -278t-220 -205q-87 -58 -131 -112t-44 -116q1 -60 41 -98t103 -38
q14 0 28 2v-63q-13 -5 -46 -5z" />
    <glyph glyph-name="uogonek" unicode="&#x173;" horiz-adv-x="1080" 
d="M921 -412q-88 0 -143 52t-55 137q0 137 164 240v213h-4q-42 -116 -142 -180t-236 -64q-177 0 -285 106t-107 283v702h78v-684q-1 -153 89 -245t245 -92t257 106t101 275v640h77v-1075q-87 -52 -125 -102t-38 -110q0 -62 39 -99t102 -37q19 0 22 1v-64q-11 -3 -39 -3z" />
    <glyph glyph-name="Wcircumflex" unicode="&#x174;" horiz-adv-x="1803" 
d="M899 1295l-384 -1295h-70l-403 1443h82l356 -1306h5l379 1306h74l380 -1306h5l355 1306h83l-403 -1443h-70l-384 1295h-5zM867 1843h68l271 -290h-83l-221 238h-2l-221 -238h-83z" />
    <glyph glyph-name="wcircumflex" unicode="&#x175;" horiz-adv-x="1430" 
d="M1422 1077l-314 -1077h-91l-301 976h-2l-301 -976h-91l-314 1077h82l277 -990h3l301 990h88l301 -990h3l277 990h82zM746 1556l268 -303h-80l-217 249h-3l-217 -249h-81l268 303h62z" />
    <glyph glyph-name="Ycircumflex" unicode="&#x176;" horiz-adv-x="1172" 
d="M552 1843h68l271 -290h-83l-221 238h-2l-221 -238h-83zM626 0h-79v629l-525 814h93l469 -733h5l469 733h92l-524 -814v-629z" />
    <glyph glyph-name="ycircumflex" unicode="&#x177;" horiz-adv-x="919" 
d="M491 1555l268 -303h-80l-217 249h-3l-217 -249h-81l268 303h62zM186 -354q-24 0 -54 9v69q24 -8 56 -8q72 0 117 45t87 154l27 70l-412 1092h83l369 -1001h2l369 1001h82l-417 -1111q-73 -192 -134 -256t-175 -64z" />
    <glyph glyph-name="Ydieresis" unicode="&#x178;" horiz-adv-x="1172" 
d="M738 1563q-28 -1 -47 19q-20 20 -20 48t20 46q19 20 47 20t48 -20t20 -46q0 -28 -20 -48t-48 -19zM434 1563q-28 -1 -48 19t-20 48t20 46q20 20 48 20t47 -20q20 -20 20 -46q0 -28 -20 -48q-19 -20 -47 -19zM626 0h-79v629l-525 814h93l469 -733h5l469 733h92l-524 -814
v-629z" />
    <glyph glyph-name="Zacute" unicode="&#x179;" horiz-adv-x="1173" 
d="M71 0v62l925 1303v5h-896v73h997v-62l-923 -1303v-5h928v-73h-1031zM619 1553h-78l279 290h96z" />
    <glyph glyph-name="zacute" unicode="&#x17a;" horiz-adv-x="928" 
d="M66 0v65l704 942v2h-704v68h795v-66l-705 -941v-2h706v-68h-796zM484 1252h-74l230 303h93z" />
    <glyph glyph-name="Zdotaccent" unicode="&#x17b;" horiz-adv-x="1173" 
d="M71 0v62l925 1303v5h-896v73h997v-62l-923 -1303v-5h928v-73h-1031zM587 1563q-33 1 -55 23t-22 53t22 53t55 23q33 -1 55 -23t22 -53t-22 -53t-55 -23z" />
    <glyph glyph-name="zdotaccent" unicode="&#x17c;" horiz-adv-x="928" 
d="M66 0v65l704 942v2h-704v68h795v-66l-705 -941v-2h706v-68h-796zM464 1255q-32 0 -55 23t-23 54t23 54t55 23t55 -23t23 -54t-23 -54t-55 -23z" />
    <glyph glyph-name="Zcaron" unicode="&#x17d;" horiz-adv-x="1173" 
d="M553 1553l-271 290h83l221 -239h2l221 239h83l-271 -290h-68zM71 0v62l925 1303v5h-896v73h997v-62l-923 -1303v-5h928v-73h-1031z" />
    <glyph glyph-name="zcaron" unicode="&#x17e;" horiz-adv-x="928" 
d="M66 0v65l704 942v2h-704v68h795v-66l-705 -941v-2h706v-68h-796zM495 1252h-62l-268 303h81l217 -249h3l217 249h80z" />
    <glyph glyph-name="florin" unicode="&#x192;" horiz-adv-x="1192" 
d="M957 1464q131 0 192 -35v-74q-60 38 -174 38q-115 0 -183 -67t-92 -213l-48 -289h416v-68h-427l-72 -429q-29 -179 -115 -263t-237 -84q-109 0 -174 37v76q68 -42 179 -42t177 68t92 217l70 420h-396v68h408l49 296q30 176 117 260t218 84z" />
    <glyph glyph-name="Ohorn" unicode="&#x1a0;" horiz-adv-x="1458" 
d="M1353 718q-1 -341 -173 -540t-470 -199t-470 199t-173 543q0 343 173 543t472 200q150 0 271 -54q50 -22 124 -62q74 -38 138 -38q110 0 110 146v141h73v-155q0 -92 -41 -144t-105 -52t-107 23l-4 -4q182 -206 182 -547zM710 1390q-258 0 -410 -181t-152 -487t152 -488
t410 -181q258 -1 410 181t152 488t-152 487t-410 181z" />
    <glyph glyph-name="ohorn" unicode="&#x1a1;" horiz-adv-x="1179" 
d="M1099 1074v139h73v-153q0 -94 -46 -146t-128 -53q-28 0 -50 10q-3 -3 -4 -3q80 -135 80 -330q0 -252 -130 -402t-350 -150t-350 150t-130 403t131 403t353 149q137 0 231 -58q39 -24 72 -48q80 -58 135 -58q113 0 113 147zM544 56q184 0 292 131q109 131 109 351
t-109 351q-108 131 -292 131t-292 -130t-109 -352q1 -222 109 -352t292 -130z" />
    <glyph glyph-name="Uhorn" unicode="&#x1af;" horiz-adv-x="1502" 
d="M1288 1308q70 0 103 37t33 122v127h73v-145q-1 -101 -53 -155t-137 -53q-85 0 -101 12v-752q0 -239 -146 -381t-394 -141q-246 -1 -392 141t-146 381v942h79v-939q0 -204 126 -328t334 -123q208 -1 334 123t126 328v939h79v-123q12 -12 82 -12z" />
    <glyph glyph-name="uhorn" unicode="&#x1b0;" horiz-adv-x="1250" 
d="M1037 926q130 0 130 160v127h73v-145q0 -102 -52 -155t-132 -53t-96 11v-871h-73v230h-4q-42 -116 -142 -180t-236 -64q-177 0 -285 106t-107 283v702h78v-684q0 -153 89 -245q88 -92 244 -92t258 106t101 275v640h77v-141q13 -10 77 -10z" />
    <glyph glyph-name="u01C4" unicode="&#x1c4;" horiz-adv-x="2505" 
d="M1885 1553l-271 290h83l221 -239h2l221 239h83l-271 -290h-68zM1403 0v62l925 1303v5h-896v73h997v-62l-923 -1303v-5h928v-73h-1031zM208 1370v-1297h365q295 1 453 169t159 480q0 312 -159 480t-453 168h-365zM128 1443h449q328 0 508 -189q180 -188 180 -532
t-180 -533t-508 -189h-449v1443z" />
    <glyph glyph-name="u01C5" unicode="&#x1c5;" horiz-adv-x="2260" 
d="M1398 0v65l704 942v2h-704v68h795v-66l-705 -941v-2h706v-68h-796zM1827 1252h-62l-268 303h81l217 -249h3l217 249h80zM208 1370v-1297h365q295 1 453 169t159 480q0 312 -159 480t-453 168h-365zM128 1443h449q328 0 508 -189q180 -188 180 -532t-180 -533t-508 -189
h-449v1443z" />
    <glyph glyph-name="u01C6" unicode="&#x1c6;" horiz-adv-x="2064" 
d="M1202 0v65l704 942v2h-704v68h795v-66l-705 -941v-2h706v-68h-796zM1631 1252h-62l-268 303h81l217 -249h3l217 249h80zM534 1020q-174 0 -282 -133t-108 -348t108 -349t282 -134t285 135t111 347t-111 348q-111 134 -285 134zM525 -14q-203 0 -331 154t-129 398
q1 246 129 400t330 153q146 -1 256 -85t147 -213h2v713h78v-1506h-73v290h-3q-39 -134 -149 -219t-257 -85z" />
    <glyph glyph-name="u01C7" unicode="&#x1c7;" horiz-adv-x="1968" 
d="M964 73v-73h-836v1443h79v-1370h757zM1452 50q140 0 224 89t85 250v1054h80v-1058q-1 -189 -107 -299t-281 -110t-283 96t-112 248h78q7 -118 92 -194q84 -76 224 -76z" />
    <glyph glyph-name="u01C8" unicode="&#x1c8;" horiz-adv-x="1354" 
d="M964 73v-73h-836v1443h79v-1370h757zM1185 1341q-26 0 -44 18q-18 17 -18 43t18 44t44 18q27 0 45 -18t18 -44t-18 -43q-18 -18 -45 -18zM1224 1077v-1157q0 -145 -68 -210t-210 -65h-30v69h27q107 0 155 48t48 154v1161h78z" />
    <glyph glyph-name="u01C9" unicode="&#x1c9;" horiz-adv-x="673" 
d="M129 0v1506h78v-1506h-78zM504 1341q-26 0 -44 18q-18 17 -18 43t18 44t44 18t44 -18t19 -44q-1 -26 -19 -43q-18 -18 -44 -18zM543 1077v-1157q0 -145 -68 -210t-210 -65h-30v69h27q107 0 155 48t48 154v1161h78z" />
    <glyph glyph-name="u01CA" unicode="&#x1ca;" horiz-adv-x="2293" 
d="M206 0h-78v1443h82l919 -1299h6v1299h79v-1443h-75l-927 1307h-6v-1307zM1776 50q140 0 224 89t85 250v1054h80v-1058q-1 -189 -107 -299t-281 -110t-283 96t-112 248h78q7 -118 92 -194q84 -76 224 -76z" />
    <glyph glyph-name="u01CB" unicode="&#x1cb;" horiz-adv-x="1678" 
d="M206 0h-78v1443h82l919 -1299h6v1299h79v-1443h-75l-927 1307h-6v-1307zM1509 1341q-26 0 -44 18q-18 17 -18 43t18 44t44 18q27 0 45 -18t18 -44t-18 -43q-18 -18 -45 -18zM1548 1077v-1157q0 -145 -68 -210t-210 -65h-30v69h27q107 0 155 48t48 154v1161h78z" />
    <glyph glyph-name="u01CC" unicode="&#x1cc;" horiz-adv-x="1416" 
d="M119 0v1077h73v-237h3q39 114 139 182t236 69q179 1 288 -107t109 -289v-695h-78v686q0 154 -92 244t-247 90t-254 -106t-99 -273v-641h-78zM1248 1341q-26 0 -44 18q-18 17 -18 43t18 44t44 18t44 -18t19 -44q-1 -26 -19 -43q-18 -18 -44 -18zM1287 1077v-1157
q0 -145 -68 -210t-210 -65h-30v69h27q107 0 155 48t48 154v1161h78z" />
    <glyph glyph-name="Acaron" unicode="&#x1cd;" horiz-adv-x="1221" 
d="M577 1553l-271 290h83l221 -239h2l221 239h83l-271 -290h-68zM608 1340l-296 -788h598l-297 788h-5zM1115 0l-180 481h-649l-179 -481h-86l550 1443h80l549 -1443h-85z" />
    <glyph glyph-name="acaron" unicode="&#x1ce;" horiz-adv-x="1030" 
d="M563 1253h-62l-268 303h81l217 -249h3l217 249h80zM432 -14q-148 0 -246 84q-100 84 -100 222q0 136 98 214t287 92l369 27v96q0 141 -82 220t-222 79q-141 0 -228 -67t-106 -189h-75q14 149 125 238q110 89 284 89t278 -98t103 -267v-726h-75v232h-2q-40 -110 -150 -178
t-258 -68zM470 55q144 1 257 101t113 243v161l-359 -27q-155 -11 -236 -73t-81 -168t82 -171q80 -66 224 -66z" />
    <glyph glyph-name="Icaron" unicode="&#x1cf;" horiz-adv-x="335" 
d="M133 1553l-271 290h83l221 -239h2l221 239h83l-271 -290h-68zM207 0h-79v1443h79v-1443z" />
    <glyph glyph-name="icaron" unicode="&#x1d0;" horiz-adv-x="336" 
d="M129 0v1077h78v-1077h-78zM199 1253h-62l-268 303h81l217 -249h3l217 249h80z" />
    <glyph glyph-name="Ocaron" unicode="&#x1d1;" horiz-adv-x="1420" 
d="M710 1390q-258 0 -410 -180t-152 -488q0 -306 152 -488t410 -181q258 0 410 181t152 488q0 308 -152 488t-410 180zM710 1464q295 0 469 -201t174 -542q1 -341 -173 -541t-470 -201q-296 1 -470 201t-173 541q0 341 174 542t469 201zM676 1553l-271 290h83l221 -239h2
l221 239h83l-271 -290h-68z" />
    <glyph glyph-name="ocaron" unicode="&#x1d2;" horiz-adv-x="1089" 
d="M544 56q182 0 292 130t109 352q0 222 -109 352t-292 130t-292 -130t-109 -352q-1 -222 109 -352t292 -130zM544 -14q-216 0 -348 150t-131 402q-1 252 131 403q132 150 348 150t348 -150q132 -151 132 -403t-132 -402t-348 -150zM575 1252h-62l-268 303h81l217 -249h3
l217 249h80z" />
    <glyph glyph-name="Ucaron" unicode="&#x1d3;" horiz-adv-x="1332" 
d="M207 1443v-939q0 -207 124 -329t336 -122t336 122t124 329v939h79v-942q0 -237 -146 -379t-393 -143q-247 1 -393 143t-146 379v942h79zM632 1553l-271 290h83l221 -239h2l221 239h83l-271 -290h-68z" />
    <glyph glyph-name="ucaron" unicode="&#x1d4;" horiz-adv-x="1080" 
d="M960 1077v-1077h-72v235h-3q-36 -109 -142 -179t-239 -70q-176 0 -284 106t-107 286v699h78v-687q-1 -158 89 -246t244 -88t256 104q103 104 103 273v644h77zM568 1252h-62l-268 303h81l217 -249h3l217 249h80z" />
    <glyph glyph-name="Udieresismacron" unicode="&#x1d5;" horiz-adv-x="1332" 
d="M816 1691q26 -1 44 -19q19 -18 19 -44t-19 -44t-45 -19q-27 1 -45 19t-18 44t19 44t45 19zM376 1919h580v-57h-580v57zM516 1691q26 -1 45 -19t19 -44t-18 -44t-45 -19q-26 1 -45 19t-19 44t19 44q18 18 44 19zM207 1443v-939q0 -207 124 -329t336 -122t336 122t124 329
v939h79v-942q0 -237 -146 -379t-393 -143q-247 1 -393 143t-146 379v942h79z" />
    <glyph glyph-name="udieresismacron" unicode="&#x1d6;" horiz-adv-x="1080" 
d="M830 1658v-58h-596v58h596zM690 1255q-28 0 -48 19t-19 46q-1 27 19 46t48 19t46 -19q19 -19 19 -46t-19 -46q-18 -19 -46 -19zM385 1255q-27 0 -47 19t-19 46q-1 27 19 46t47 19t47 -19t19 -46q1 -27 -19 -46t-47 -19zM960 1077v-1077h-72v235h-3q-36 -109 -142 -179
t-239 -70q-176 0 -284 106t-107 286v699h78v-687q-1 -158 89 -246t244 -88t256 104q103 104 103 273v644h77z" />
    <glyph glyph-name="Udieresisacute" unicode="&#x1d7;" horiz-adv-x="1332" 
d="M207 1443v-939q0 -207 124 -329t336 -122t336 122t124 329v939h79v-942q0 -237 -146 -379t-393 -143q-247 1 -393 143t-146 379v942h79zM815 1565q-27 1 -45 19t-18 44t19 44t45 19q26 -1 44 -19q19 -18 19 -44t-19 -44t-45 -19zM517 1565q-26 1 -45 19t-19 44t19 44
q18 18 44 19q26 -1 45 -19t19 -44t-18 -44t-45 -19zM617 1776l207 203h91l-224 -203h-74z" />
    <glyph glyph-name="udieresisacute" unicode="&#x1d8;" horiz-adv-x="1080" 
d="M960 1077v-1077h-72v235h-3q-36 -109 -142 -179t-239 -70q-176 0 -284 106t-107 286v699h78v-687q-1 -158 89 -246t244 -88t256 104q103 104 103 273v644h77zM690 1255q-28 -1 -48 19t-20 48t20 46q20 20 48 20t47 -20q20 -20 20 -46q0 -28 -20 -48q-19 -20 -47 -19z
M384 1255q-28 -1 -47 19q-20 20 -20 48t20 46q19 20 47 20t48 -20t20 -46q0 -28 -20 -48t-48 -19zM490 1529l222 284h93l-240 -284h-75z" />
    <glyph glyph-name="Udieresiscaron" unicode="&#x1d9;" horiz-adv-x="1332" 
d="M207 1443v-939q0 -207 124 -329t336 -122t336 122t124 329v939h79v-942q0 -237 -146 -379t-393 -143q-247 1 -393 143t-146 379v942h79zM816 1691q26 -1 44 -19q19 -18 19 -44t-19 -44t-45 -19q-27 1 -45 19t-18 44t19 44t45 19zM516 1691q26 -1 45 -19t19 -44t-18 -44
t-45 -19q-26 1 -45 19t-19 44t19 44q18 18 44 19zM631 1776l-266 203h93l205 -157h6l205 157h93l-266 -203h-70z" />
    <glyph glyph-name="udieresiscaron" unicode="&#x1da;" horiz-adv-x="1080" 
d="M960 1077v-1077h-72v235h-3q-36 -109 -142 -179t-239 -70q-176 0 -284 106t-107 286v699h78v-687q-1 -158 89 -246t244 -88t256 104q103 104 103 273v644h77zM574 1529h-74l-264 284h80l219 -237h4l219 237h80zM690 1255q-28 -1 -48 19t-20 48t20 46q20 20 48 20t47 -20
q20 -20 20 -46q0 -28 -20 -48q-19 -20 -47 -19zM384 1255q-28 -1 -47 19q-20 20 -20 48t20 46q19 20 47 20t48 -20t20 -46q0 -28 -20 -48t-48 -19z" />
    <glyph glyph-name="Udieresisgrave" unicode="&#x1db;" horiz-adv-x="1332" 
d="M207 1443v-939q0 -207 124 -329t336 -122t336 122t124 329v939h79v-942q0 -237 -146 -379t-393 -143q-247 1 -393 143t-146 379v942h79zM815 1565q-27 1 -45 19t-18 44t19 44t45 19q26 -1 44 -19q19 -18 19 -44t-19 -44t-45 -19zM517 1565q-26 1 -45 19t-19 44t19 44
q18 18 44 19q26 -1 45 -19t19 -44t-18 -44t-45 -19zM715 1776h-74l-224 203h91z" />
    <glyph glyph-name="udieresisgrave" unicode="&#x1dc;" horiz-adv-x="1080" 
d="M960 1077v-1077h-72v235h-3q-36 -109 -142 -179t-239 -70q-176 0 -284 106t-107 286v699h78v-687q-1 -158 89 -246t244 -88t256 104q103 104 103 273v644h77zM690 1255q-28 -1 -48 19t-20 48t20 46q20 20 48 20t47 -20q20 -20 20 -46q0 -28 -20 -48q-19 -20 -47 -19z
M384 1255q-28 -1 -47 19q-20 20 -20 48t20 46q19 20 47 20t48 -20t20 -46q0 -28 -20 -48t-48 -19zM584 1529h-75l-240 284h93z" />
    <glyph glyph-name="Adieresismacron" unicode="&#x1de;" horiz-adv-x="1221" 
d="M760 1691q26 -1 45 -19t19 -44t-19 -44t-45 -19q-26 1 -44 19t-19 44q1 26 19 44t44 19zM321 1919h580v-57h-580v57zM462 1691q26 -1 44 -19t19 -44q-1 -26 -19 -44t-44 -19q-26 1 -45 19t-19 44t19 44t45 19zM608 1340l-296 -788h598l-297 788h-5zM1115 0l-180 481h-649
l-179 -481h-86l550 1443h80l549 -1443h-85z" />
    <glyph glyph-name="adieresismacron" unicode="&#x1df;" horiz-adv-x="1030" 
d="M825 1659v-58h-596v58h596zM684 1256q-28 0 -46 19q-20 19 -20 46t20 46t46 19q28 0 47 -19t19 -46t-19 -46t-47 -19zM380 1256q-26 0 -46 19t-20 46t20 46t46 19t46 -19t20 -46t-20 -46t-46 -19zM432 -14q-148 0 -246 84q-100 84 -100 222q0 136 98 214t287 92l369 27
v96q0 141 -82 220t-222 79q-141 0 -228 -67t-106 -189h-75q14 149 125 238q110 89 284 89t278 -98t103 -267v-726h-75v232h-2q-40 -110 -150 -178t-258 -68zM470 55q144 1 257 101t113 243v161l-359 -27q-155 -11 -236 -73t-81 -168t82 -171q80 -66 224 -66z" />
    <glyph glyph-name="Adotmacron" unicode="&#x1e0;" horiz-adv-x="1221" 
d="M901 1919v-57h-580v57h580zM611 1560q-31 0 -53 22t-23 53q1 31 23 53t53 22t53 -22t23 -53q-1 -31 -23 -53t-53 -22zM608 1340l-296 -788h598l-297 788h-5zM1115 0l-180 481h-649l-179 -481h-86l550 1443h80l549 -1443h-85z" />
    <glyph glyph-name="adotmacron" unicode="&#x1e1;" horiz-adv-x="1030" 
d="M825 1659v-58h-596v58h596zM532 1256q-32 0 -54 23t-23 54q0 31 23 53t54 23q31 -1 54 -23t23 -53q-1 -31 -23 -54t-54 -23zM432 -14q-148 0 -246 84q-100 84 -100 222q0 136 98 214t287 92l369 27v96q0 141 -82 220t-222 79q-141 0 -228 -67t-106 -189h-75
q14 149 125 238q110 89 284 89t278 -98t103 -267v-726h-75v232h-2q-40 -110 -150 -178t-258 -68zM470 55q144 1 257 101t113 243v161l-359 -27q-155 -11 -236 -73t-81 -168t82 -171q80 -66 224 -66z" />
    <glyph glyph-name="AEmacron" unicode="&#x1e2;" horiz-adv-x="1908" 
d="M1621 1679v-57h-580v57h580zM999 0v422h-659l-210 -422h-84l722 1443h1021v-73h-712v-597h676v-72h-676v-628h712v-73h-790zM999 492v881h-184l-441 -881h625z" />
    <glyph glyph-name="aemacron" unicode="&#x1e3;" horiz-adv-x="1830" 
d="M1217 1366v-58h-596v58h596zM470 55q146 -1 258 101t112 247v134l-362 -23q-154 -10 -234 -68t-80 -160t80 -166q80 -65 226 -65zM1312 1021q-170 -1 -278 -117t-116 -306h768q-1 191 -103 307q-101 116 -271 116zM1326 -14q-163 0 -274 78t-160 225h-6
q-44 -141 -160 -222t-278 -81q-160 0 -261 83t-101 216t97 208t284 86l373 24v127q0 136 -84 213t-226 77t-229 -68q-88 -68 -104 -188h-76q15 148 125 238t272 89q160 -1 262 -77t116 -210h6q47 130 155 208t259 79q206 1 328 -139t121 -374v-46h-848v-9q-1 -211 109 -339
t293 -128q140 0 233 68t118 177h79q-28 -139 -144 -227t-279 -88z" />
    <glyph glyph-name="Gcaron" unicode="&#x1e6;" horiz-adv-x="1358" 
d="M1281 571q1 -276 -155 -434t-427 -158q-186 0 -330 94q-144 95 -223 265t-79 392q-1 330 173 532t459 202q217 0 375 -120t198 -317h-81q-43 167 -177 265t-315 98q-251 0 -401 -180t-150 -482t152 -488q152 -187 392 -187q240 1 374 137q136 136 136 369v83h-503v72h582
v-143zM665 1553l-271 290h83l221 -239h2l221 239h83l-271 -290h-68z" />
    <glyph glyph-name="gcaron" unicode="&#x1e7;" horiz-adv-x="1119" 
d="M562 -361q-188 0 -300 68q-113 68 -135 180h81q21 -79 113 -129t244 -50q153 0 255 79t102 215v285h-2q-37 -131 -146 -215t-254 -84q-203 0 -329 152t-126 400q1 246 127 398t329 153q145 0 255 -85t148 -217h3v288h73v-1070q0 -172 -125 -270t-313 -98zM530 59
q172 0 282 134q110 135 110 347t-110 346t-282 134q-174 0 -280 -133t-106 -347t106 -348q106 -133 280 -133zM589 1253h-62l-268 303h81l217 -249h3l217 249h80z" />
    <glyph glyph-name="Kcaron" unicode="&#x1e8;" horiz-adv-x="1142" 
d="M510 1553l-271 290h83l221 -239h2l221 239h83l-271 -290h-68zM207 0h-79v1443h79v-806h6l750 806h101l-594 -636l660 -807h-101l-615 751l-207 -223v-528z" />
    <glyph glyph-name="kcaron" unicode="&#x1e9;" horiz-adv-x="938" 
d="M134 1616l-271 290h83l221 -239h2l221 239h83l-271 -290h-68zM207 0h-78v1506h78v-982h1l609 553h102l-507 -464l511 -613h-95l-474 565l-147 -132v-433z" />
    <glyph glyph-name="Oogonek" unicode="&#x1ea;" horiz-adv-x="1420" 
d="M710 1390q-258 0 -410 -181t-152 -487t152 -488q152 -181 410 -181t410 181t152 488q0 308 -152 488t-410 180zM926 -412q-88 0 -144 52t-56 136q0 123 126 217v4q-57 -18 -142 -18q-299 0 -471 199t-172 543q0 343 173 543q172 200 470 200t470 -199t173 -543
q1 -262 -93 -422q-59 -101 -126 -159q-66 -58 -153 -117q-181 -121 -181 -236q0 -58 40 -96t103 -38q22 0 28 2v-63q-12 -5 -45 -5z" />
    <glyph glyph-name="oogonek" unicode="&#x1eb;" horiz-adv-x="1089" 
d="M544 56q184 0 292 131q109 131 109 351t-109 351q-108 131 -292 131t-292 -130t-109 -352q1 -222 109 -352t292 -130zM714 -412q-85 0 -141 56t-56 140q0 120 116 208v4q-33 -10 -89 -10q-220 0 -350 150t-130 402q0 253 130 403t350 150t350 -150t130 -403
q0 -339 -240 -493q-102 -67 -148 -127t-46 -122q0 -64 40 -103t102 -39q22 0 32 2v-62q-16 -6 -50 -6z" />
    <glyph glyph-name="Oogonekmacron" unicode="&#x1ec;" horiz-adv-x="1420" 
d="M1000 1679v-57h-580v57h580zM710 1390q-258 0 -410 -181t-152 -487t152 -488q152 -181 410 -181t410 181t152 488q0 308 -152 488t-410 180zM926 -412q-88 0 -144 52t-56 136q0 123 126 217v4q-57 -18 -142 -18q-299 0 -471 199t-172 543q0 343 173 543q172 200 470 200
t470 -199t173 -543q1 -262 -93 -422q-59 -101 -126 -159q-66 -58 -153 -117q-181 -121 -181 -236q0 -58 40 -96t103 -38q22 0 28 2v-63q-12 -5 -45 -5z" />
    <glyph glyph-name="oogonekmacron" unicode="&#x1ed;" horiz-adv-x="1089" 
d="M544 56q184 0 292 131q109 131 109 351t-109 351q-108 131 -292 131t-292 -130t-109 -352q1 -222 109 -352t292 -130zM714 -412q-85 0 -141 56t-56 140q0 120 116 208v4q-33 -10 -89 -10q-220 0 -350 150t-130 402q0 253 130 403t350 150t350 -150t130 -403
q0 -339 -240 -493q-102 -67 -148 -127t-46 -122q0 -64 40 -103t102 -39q22 0 32 2v-62q-16 -6 -50 -6zM837 1365v-58h-596v58h596z" />
    <glyph glyph-name="u01F1" unicode="&#x1f1;" horiz-adv-x="2505" 
d="M208 1370v-1297h365q295 1 453 169t159 480q0 312 -159 480t-453 168h-365zM128 1443h449q328 0 508 -189q180 -188 180 -532t-180 -533t-508 -189h-449v1443zM1403 0v62l925 1303v5h-896v73h997v-62l-923 -1303v-5h928v-73h-1031z" />
    <glyph glyph-name="u01F2" unicode="&#x1f2;" horiz-adv-x="2260" 
d="M208 1370v-1297h365q295 1 453 169t159 480q0 312 -159 480t-453 168h-365zM128 1443h449q328 0 508 -189q180 -188 180 -532t-180 -533t-508 -189h-449v1443zM1398 0v65l704 942v2h-704v68h795v-66l-705 -941v-2h706v-68h-796z" />
    <glyph glyph-name="u01F3" unicode="&#x1f3;" horiz-adv-x="2064" 
d="M534 1020q-174 0 -282 -133t-108 -348t108 -349t282 -134t285 135t111 347t-111 348q-111 134 -285 134zM525 -14q-203 0 -331 154t-129 398q1 246 129 400t330 153q146 -1 256 -85t147 -213h2v713h78v-1506h-73v290h-3q-39 -134 -149 -219t-257 -85zM1202 0v65l704 942
v2h-704v68h795v-66l-705 -941v-2h706v-68h-796z" />
    <glyph glyph-name="Gacute" unicode="&#x1f4;" horiz-adv-x="1358" 
d="M1281 571q1 -276 -155 -434t-427 -158q-186 0 -330 94q-144 95 -223 265t-79 392q-1 330 173 532t459 202q217 0 375 -120t198 -317h-81q-43 167 -177 265t-315 98q-251 0 -401 -180t-150 -482t152 -488q152 -187 392 -187q240 1 374 137q136 136 136 369v83h-503v72h582
v-143zM731 1553h-78l279 290h96z" />
    <glyph glyph-name="gacute" unicode="&#x1f5;" horiz-adv-x="1119" 
d="M562 -361q-188 0 -300 68q-113 68 -135 180h81q21 -79 113 -129t244 -50q153 0 255 79t102 215v285h-2q-37 -131 -146 -215t-254 -84q-203 0 -329 152t-126 400q1 246 127 398t329 153q145 0 255 -85t148 -217h3v288h73v-1070q0 -172 -125 -270t-313 -98zM530 59
q172 0 282 134q110 135 110 347t-110 346t-282 134q-174 0 -280 -133t-106 -347t106 -348q106 -133 280 -133zM578 1253h-74l230 303h93z" />
    <glyph glyph-name="Ngrave" unicode="&#x1f8;" horiz-adv-x="1341" 
d="M206 0h-78v1443h82l919 -1299h6v1299h79v-1443h-75l-927 1307h-6v-1307zM640 1553l-297 290h95l280 -290h-78z" />
    <glyph glyph-name="ngrave" unicode="&#x1f9;" horiz-adv-x="1080" 
d="M119 0v1077h73v-237h3q39 114 139 182t236 69q179 1 288 -107t109 -289v-695h-78v686q0 154 -92 244t-247 90t-254 -106t-99 -273v-641h-78zM597 1253h-74l-249 303h93z" />
    <glyph glyph-name="Aringacute" unicode="&#x1fa;" horiz-adv-x="1221" 
d="M719 2086h88l-167 -169h-67zM611 1546q52 0 88 36t36 88t-36 90q-36 36 -88 36t-88 -36t-36 -90q0 -52 36 -88t88 -36zM611 1498q-71 0 -121 51t-51 122q1 71 51 122t121 51t121 -51t51 -122q-1 -71 -51 -122t-121 -51zM608 1340l-296 -788h598l-297 788h-5zM1115 0
l-180 481h-649l-179 -481h-86l550 1443h80l549 -1443h-85z" />
    <glyph glyph-name="aringacute" unicode="&#x1fb;" horiz-adv-x="1030" 
d="M492 1649l146 172h82l-161 -172h-67zM408 1393q0 -53 36 -89t88 -36t88 36t36 89t-36 89t-88 36t-88 -36t-36 -89zM532 1220q-72 0 -122 51t-50 122t50 122t122 51t122 -51t50 -122t-50 -122t-122 -51zM432 -14q-148 0 -246 84q-100 84 -100 222q0 136 98 214t287 92
l369 27v96q0 141 -82 220t-222 79q-141 0 -228 -67t-106 -189h-75q14 149 125 238q110 89 284 89t278 -98t103 -267v-726h-75v232h-2q-40 -110 -150 -178t-258 -68zM470 55q144 1 257 101t113 243v161l-359 -27q-155 -11 -236 -73t-81 -168t82 -171q80 -66 224 -66z" />
    <glyph glyph-name="AEacute" unicode="&#x1fc;" horiz-adv-x="1908" 
d="M999 0v422h-659l-210 -422h-84l722 1443h1021v-73h-712v-597h676v-72h-676v-628h712v-73h-790zM999 492v881h-184l-441 -881h625zM1363 1553h-78l279 290h96z" />
    <glyph glyph-name="aeacute" unicode="&#x1fd;" horiz-adv-x="1830" 
d="M470 55q146 -1 258 101t112 247v134l-362 -23q-154 -10 -234 -68t-80 -160t80 -166q80 -65 226 -65zM1312 1021q-170 -1 -278 -117t-116 -306h768q-1 191 -103 307q-101 116 -271 116zM1326 -14q-163 0 -274 78t-160 225h-6q-44 -141 -160 -222t-278 -81q-160 0 -261 83
t-101 216t97 208t284 86l373 24v127q0 136 -84 213t-226 77t-229 -68q-88 -68 -104 -188h-76q15 148 125 238t272 89q160 -1 262 -77t116 -210h6q47 130 155 208t259 79q206 1 328 -139t121 -374v-46h-848v-9q-1 -211 109 -339t293 -128q140 0 233 68t118 177h79
q-28 -139 -144 -227t-279 -88zM944 1253h-74l230 303h93z" />
    <glyph glyph-name="Oslashacute" unicode="&#x1fe;" horiz-adv-x="1420" 
d="M1353 717q1 -337 -173 -537t-470 -201q-243 0 -407 139l-157 -202l-51 37l162 208q-190 201 -190 551t174 551t454 201t449 -164l144 184l50 -35l-151 -195q166 -200 166 -537zM700 1390q-246 0 -400 -180q-152 -180 -152 -492q0 -310 160 -492l787 1010
q-149 154 -395 154zM710 53q258 0 410 181t152 478t-136 477l-784 -1008q143 -128 358 -128zM1081 1843l-297 -290h-78l279 290h96z" />
    <glyph glyph-name="oslashacute" unicode="&#x1ff;" horiz-adv-x="1089" 
d="M1024 540q0 -254 -132 -404t-348 -150q-161 0 -277 85l-110 -154l-53 35l114 160q-153 151 -153 415q-1 264 131 414t348 150q176 0 300 -102l102 143l51 -33l-109 -153q136 -152 136 -406zM528 1020q-168 0 -276 -130q-109 -130 -109 -356t120 -360l537 753
q-104 93 -272 93zM544 56q182 0 292 130t109 348q0 218 -102 348l-534 -751q98 -75 235 -75zM848 1556l-249 -303h-74l230 303h93z" />
    <glyph glyph-name="Adblgrave" unicode="&#x200;" horiz-adv-x="1221" 
d="M433 1553l-297 290h92l280 -290h-75zM700 1553l-298 290h93l280 -290h-75zM608 1340l-296 -788h598l-297 788h-5zM1115 0l-180 481h-649l-179 -481h-86l550 1443h80l549 -1443h-85z" />
    <glyph glyph-name="adblgrave" unicode="&#x201;" horiz-adv-x="1030" 
d="M691 1253h-72l-247 303h92zM447 1253h-72l-247 303h92zM432 -14q-148 0 -246 84q-100 84 -100 222q0 136 98 214t287 92l369 27v96q0 141 -82 220t-222 79q-141 0 -228 -67t-106 -189h-75q14 149 125 238q110 89 284 89t278 -98t103 -267v-726h-75v232h-2
q-40 -110 -150 -178t-258 -68zM470 55q144 1 257 101t113 243v161l-359 -27q-155 -11 -236 -73t-81 -168t82 -171q80 -66 224 -66z" />
    <glyph glyph-name="Ainvertedbreve" unicode="&#x202;" horiz-adv-x="1221" 
d="M342 1553q0 106 76 171t193 65t193 -65t76 -171h-61q0 77 -58 128t-150 51t-150 -51t-58 -128h-61zM608 1340l-296 -788h598l-297 788h-5zM1115 0l-180 481h-649l-179 -481h-86l550 1443h80l549 -1443h-85z" />
    <glyph glyph-name="ainvertedbreve" unicode="&#x203;" horiz-adv-x="1030" 
d="M260 1253q0 117 76 185t196 68t196 -68t76 -185h-62q0 88 -58 142t-152 54t-152 -54t-58 -142h-62zM432 -14q-148 0 -246 84q-100 84 -100 222q0 136 98 214t287 92l369 27v96q0 141 -82 220t-222 79q-141 0 -228 -67t-106 -189h-75q14 149 125 238q110 89 284 89
t278 -98t103 -267v-726h-75v232h-2q-40 -110 -150 -178t-258 -68zM470 55q144 1 257 101t113 243v161l-359 -27q-155 -11 -236 -73t-81 -168t82 -171q80 -66 224 -66z" />
    <glyph glyph-name="Edblgrave" unicode="&#x204;" horiz-adv-x="1068" 
d="M969 73v-73h-841v1443h841v-73h-762v-594h726v-72h-726v-631h762zM370 1553l-297 290h92l280 -290h-75zM637 1553l-298 290h93l280 -290h-75z" />
    <glyph glyph-name="edblgrave" unicode="&#x205;" horiz-adv-x="1062" 
d="M696 1253h-72l-247 303h92zM452 1253h-72l-247 303h92zM545 -14q-221 0 -351 146t-129 401q-1 254 129 406t340 152q210 -1 337 -143q126 -142 126 -377v-45h-853v-4q0 -218 109 -342t293 -124q144 0 240 68t119 177h79q-28 -139 -146 -227t-293 -88zM537 1021
q-169 0 -276 -118t-116 -311h773q0 191 -106 310t-275 119z" />
    <glyph glyph-name="Einvertedbreve" unicode="&#x206;" horiz-adv-x="1068" 
d="M279 1553q-1 106 75 171t194 65t194 -65t75 -171h-61q0 77 -58 128t-150 51t-150 -51t-58 -128h-61zM969 73v-73h-841v1443h841v-73h-762v-594h726v-72h-726v-631h762z" />
    <glyph glyph-name="einvertedbreve" unicode="&#x207;" horiz-adv-x="1062" 
d="M265 1253q-1 117 75 185t197 68t197 -68t75 -185h-62q0 88 -58 142t-152 54t-152 -54t-58 -142h-62zM545 -14q-221 0 -351 146t-129 401q-1 254 129 406t340 152q210 -1 337 -143q126 -142 126 -377v-45h-853v-4q0 -218 109 -342t293 -124q144 0 240 68t119 177h79
q-28 -139 -146 -227t-293 -88zM537 1021q-169 0 -276 -118t-116 -311h773q0 191 -106 310t-275 119z" />
    <glyph glyph-name="Idblgrave" unicode="&#x208;" horiz-adv-x="335" 
d="M-11 1553l-297 290h92l280 -290h-75zM256 1553l-298 290h93l280 -290h-75zM207 0h-79v1443h79v-1443z" />
    <glyph glyph-name="idblgrave" unicode="&#x209;" horiz-adv-x="336" 
d="M327 1253h-72l-247 303h92zM83 1253h-72l-247 303h92zM129 0v1077h78v-1077h-78z" />
    <glyph glyph-name="Iinvertedbreve" unicode="&#x20a;" horiz-adv-x="335" 
d="M-102 1553q0 106 76 171t193 65t193 -65t76 -171h-61q0 77 -58 128t-150 51t-150 -51t-58 -128h-61zM207 0h-79v1443h79v-1443z" />
    <glyph glyph-name="iinvertedbreve" unicode="&#x20b;" horiz-adv-x="336" 
d="M-104 1253q0 117 76 185t196 68t196 -68t76 -185h-62q0 88 -58 142t-152 54t-152 -54t-58 -142h-62zM129 0v1077h78v-1077h-78z" />
    <glyph glyph-name="Odblgrave" unicode="&#x20c;" horiz-adv-x="1420" 
d="M710 1390q-258 0 -410 -180t-152 -488q0 -306 152 -488t410 -181q258 0 410 181t152 488q0 308 -152 488t-410 180zM710 1464q295 0 469 -201t174 -542q1 -341 -173 -541t-470 -201q-296 1 -470 201t-173 541q0 341 174 542t469 201zM532 1553l-297 290h92l280 -290h-75z
M799 1553l-298 290h93l280 -290h-75z" />
    <glyph glyph-name="odblgrave" unicode="&#x20d;" horiz-adv-x="1089" 
d="M703 1252h-72l-247 303h92zM459 1252h-72l-247 303h92zM544 56q182 0 292 130t109 352q0 222 -109 352t-292 130t-292 -130t-109 -352q-1 -222 109 -352t292 -130zM544 -14q-216 0 -348 150t-131 402q-1 252 131 403q132 150 348 150t348 -150q132 -151 132 -403
t-132 -402t-348 -150z" />
    <glyph glyph-name="Oinvertedbreve" unicode="&#x20e;" horiz-adv-x="1420" 
d="M710 1390q-258 0 -410 -180t-152 -488q0 -306 152 -488t410 -181q258 0 410 181t152 488q0 308 -152 488t-410 180zM710 1464q295 0 469 -201t174 -542q1 -341 -173 -541t-470 -201q-296 1 -470 201t-173 541q0 341 174 542t469 201zM441 1553q-1 106 75 171t194 65
t194 -65t75 -171h-61q0 77 -58 128t-150 51t-150 -51t-58 -128h-61z" />
    <glyph glyph-name="oinvertedbreve" unicode="&#x20f;" horiz-adv-x="1089" 
d="M272 1252q0 117 76 185t196 68t196 -68t76 -185h-62q0 88 -58 142t-152 54t-152 -54t-58 -142h-62zM544 56q182 0 292 130t109 352q0 222 -109 352t-292 130t-292 -130t-109 -352q-1 -222 109 -352t292 -130zM544 -14q-216 0 -348 150t-131 402q-1 252 131 403
q132 150 348 150t348 -150q132 -151 132 -403t-132 -402t-348 -150z" />
    <glyph glyph-name="Rdblgrave" unicode="&#x210;" horiz-adv-x="1150" 
d="M207 616v-616h-79v1443h471q215 -1 339 -111t124 -301q0 -157 -88 -263t-246 -137l371 -631h-93l-361 619q-19 -3 -51 -3h-387zM207 1371v-683h387q181 0 284 91t103 251q1 160 -103 250t-286 91h-385zM317 1553l-297 290h92l280 -290h-75zM584 1553l-298 290h93
l280 -290h-75z" />
    <glyph glyph-name="rdblgrave" unicode="&#x211;" horiz-adv-x="614" 
d="M501 1253h-72l-247 303h92zM257 1253h-72l-247 303h92zM119 0v1077h73v-213h3q33 110 107 168t182 59q53 0 98 -18v-78q-44 22 -110 22q-125 0 -200 -97t-75 -251v-669h-78z" />
    <glyph glyph-name="Rinvertedbreve" unicode="&#x212;" horiz-adv-x="1150" 
d="M226 1553q0 106 76 171t193 65t193 -65t76 -171h-61q0 77 -58 128t-150 51t-150 -51t-58 -128h-61zM207 616v-616h-79v1443h471q215 -1 339 -111t124 -301q0 -157 -88 -263t-246 -137l371 -631h-93l-361 619q-19 -3 -51 -3h-387zM207 1371v-683h387q181 0 284 91t103 251
q1 160 -103 250t-286 91h-385z" />
    <glyph glyph-name="rinvertedbreve" unicode="&#x213;" horiz-adv-x="614" 
d="M70 1253q0 117 76 185t196 68t196 -68t76 -185h-62q0 88 -58 142t-152 54t-152 -54t-58 -142h-62zM119 0v1077h73v-213h3q33 110 107 168t182 59q53 0 98 -18v-78q-44 22 -110 22q-125 0 -200 -97t-75 -251v-669h-78z" />
    <glyph glyph-name="Udblgrave" unicode="&#x214;" horiz-adv-x="1332" 
d="M207 1443v-939q0 -207 124 -329t336 -122t336 122t124 329v939h79v-942q0 -237 -146 -379t-393 -143q-247 1 -393 143t-146 379v942h79zM488 1553l-297 290h92l280 -290h-75zM755 1553l-298 290h93l280 -290h-75z" />
    <glyph glyph-name="udblgrave" unicode="&#x215;" horiz-adv-x="1080" 
d="M696 1252h-72l-247 303h92zM452 1252h-72l-247 303h92zM960 1077v-1077h-72v235h-3q-36 -109 -142 -179t-239 -70q-176 0 -284 106t-107 286v699h78v-687q-1 -158 89 -246t244 -88t256 104q103 104 103 273v644h77z" />
    <glyph glyph-name="Uinvertedbreve" unicode="&#x216;" horiz-adv-x="1332" 
d="M397 1553q-1 106 75 171t194 65t194 -65t75 -171h-61q0 77 -58 128t-150 51t-150 -51t-58 -128h-61zM207 1443v-939q0 -207 124 -329t336 -122t336 122t124 329v939h79v-942q0 -237 -146 -379t-393 -143q-247 1 -393 143t-146 379v942h79z" />
    <glyph glyph-name="uinvertedbreve" unicode="&#x217;" horiz-adv-x="1080" 
d="M265 1252q-1 117 75 185t197 68t197 -68t75 -185h-62q0 88 -58 142t-152 54t-152 -54t-58 -142h-62zM960 1077v-1077h-72v235h-3q-36 -109 -142 -179t-239 -70q-176 0 -284 106t-107 286v699h78v-687q-1 -158 89 -246t244 -88t256 104q103 104 103 273v644h77z" />
    <glyph glyph-name="Scommaaccent" unicode="&#x218;" horiz-adv-x="1137" 
d="M521 -493h-63l99 344h78zM580 52q186 0 302 92t117 235q0 113 -81 183t-263 116l-171 42q-200 50 -294 136t-94 221q0 167 137 277t338 110t338 -106t144 -266h-79q-8 130 -122 214t-282 85q-168 -1 -280 -89t-113 -209q0 -121 81 -188t257 -111l161 -41
q212 -53 308 -139t96 -229q0 -180 -139 -293t-363 -113t-368 113t-153 293h79q9 -147 134 -240q124 -93 310 -93z" />
    <glyph glyph-name="scommaaccent" unicode="&#x219;" horiz-adv-x="923" 
d="M408 -493h-63l99 344h78zM94 813q0 115 106 197t266 81t264 -89t116 -235h-76q-12 115 -94 185t-208 71t-212 -61t-86 -149t54 -133t172 -74l167 -41q161 -39 231 -104t69 -187q0 -122 -112 -205q-113 -83 -285 -83t-285 91t-122 227h78q11 -108 103 -180t228 -71
q136 0 227 63q91 64 91 156t-57 142t-189 82l-173 42q-139 32 -206 96t-67 179z" />
    <glyph glyph-name="Tcommaaccent" unicode="&#x21a;" horiz-adv-x="1138" 
d="M609 0h-80v1370h-508v73h1096v-73h-508v-1370zM512 -493h-63l99 344h78z" />
    <glyph glyph-name="tcommaaccent" unicode="&#x21b;" horiz-adv-x="551" 
d="M179 1354h77v-277h224v-68h-224v-762q0 -96 37 -138t116 -42t85 2v-69q-12 -2 -111 -2t-151 58t-53 189v764h-158v68h158v277zM298 -493h-63l99 344h78z" />
    <glyph glyph-name="Hcaron" unicode="&#x21e;" horiz-adv-x="1327" 
d="M629 1553l-271 290h83l221 -239h2l221 239h83l-271 -290h-68zM1199 0h-79v705h-913v-705h-79v1443h79v-666h913v666h79v-1443z" />
    <glyph glyph-name="hcaron" unicode="&#x21f;" horiz-adv-x="1095" 
d="M134 1616l-271 290h83l221 -239h2l221 239h83l-271 -290h-68zM129 0v1506h78v-666h3q38 114 139 182t236 69q177 0 287 -109t110 -288v-694h-77v685q0 155 -92 245t-248 90t-257 -106t-101 -275v-639h-78z" />
    <glyph glyph-name="Adotaccent" unicode="&#x226;" horiz-adv-x="1221" 
d="M611 1563q-33 1 -55 23t-22 53t22 53t55 23q33 -1 55 -23t22 -53t-22 -53t-55 -23zM608 1340l-296 -788h598l-297 788h-5zM1115 0l-180 481h-649l-179 -481h-86l550 1443h80l549 -1443h-85z" />
    <glyph glyph-name="adotaccent" unicode="&#x227;" horiz-adv-x="1030" 
d="M532 1256q-32 0 -55 23t-23 54t23 54t55 23t55 -23t23 -54t-23 -54t-55 -23zM432 -14q-148 0 -246 84q-100 84 -100 222q0 136 98 214t287 92l369 27v96q0 141 -82 220t-222 79q-141 0 -228 -67t-106 -189h-75q14 149 125 238q110 89 284 89t278 -98t103 -267v-726h-75
v232h-2q-40 -110 -150 -178t-258 -68zM470 55q144 1 257 101t113 243v161l-359 -27q-155 -11 -236 -73t-81 -168t82 -171q80 -66 224 -66z" />
    <glyph glyph-name="Ecedilla" unicode="&#x228;" horiz-adv-x="1068" 
d="M667 -295q0 102 -160 102h-52v43l64 150h-391v1443h841v-73h-762v-594h726v-72h-726v-631h762v-73h-387l-58 -141q96 0 152 -41q56 -42 55 -114t-61 -120t-144 -48q-84 -1 -140 17v56q42 -17 116 -17t120 32t45 81z" />
    <glyph glyph-name="ecedilla" unicode="&#x229;" horiz-adv-x="1062" 
d="M664 -295q0 102 -160 102h-52v43l58 137q-206 11 -326 157t-119 394q-1 248 129 401q130 152 340 152q210 -1 337 -143q126 -142 126 -377v-45h-853v-4q0 -218 109 -342t293 -124q144 0 240 68t119 177h79q-26 -135 -136 -221t-274 -93l-53 -128q95 0 151 -41
q56 -42 56 -114t-60 -120t-145 -48q-84 -1 -140 17v56q43 -17 117 -17t118 32q46 32 46 81zM537 1021q-169 0 -276 -118t-116 -311h773q0 191 -106 310t-275 119z" />
    <glyph glyph-name="Odieresismacron" unicode="&#x22a;" horiz-adv-x="1420" 
d="M860 1691q26 -1 44 -19q19 -18 19 -44t-19 -44t-45 -19q-27 1 -45 19t-18 44t19 44t45 19zM420 1919h580v-57h-580v57zM560 1691q26 -1 45 -19t19 -44t-18 -44t-45 -19q-26 1 -45 19t-19 44t19 44q18 18 44 19zM710 1390q-258 0 -410 -180t-152 -488q0 -306 152 -488
t410 -181q258 0 410 181t152 488q0 308 -152 488t-410 180zM710 1464q295 0 469 -201t174 -542q1 -341 -173 -541t-470 -201q-296 1 -470 201t-173 541q0 341 174 542t469 201z" />
    <glyph glyph-name="odieresismacron" unicode="&#x22b;" horiz-adv-x="1089" 
d="M544 56q182 0 292 130t109 352q0 222 -109 352t-292 130t-292 -130t-109 -352q-1 -222 109 -352t292 -130zM544 -14q-216 0 -348 150t-131 402q-1 252 131 403q132 150 348 150t348 -150q132 -151 132 -403t-132 -402t-348 -150zM837 1658v-58h-596v58h596zM696 1255
q-28 0 -46 19q-20 19 -20 46t20 46t46 19q28 0 47 -19t19 -46t-19 -46t-47 -19zM392 1255q-26 0 -46 19t-20 46t20 46t46 19t46 -19t20 -46t-20 -46t-46 -19z" />
    <glyph glyph-name="Otildemacron" unicode="&#x22c;" horiz-adv-x="1420" 
d="M710 1390q-258 0 -410 -180t-152 -488q0 -306 152 -488t410 -181q258 0 410 181t152 488q0 308 -152 488t-410 180zM710 1464q295 0 469 -201t174 -542q1 -341 -173 -541t-470 -201q-296 1 -470 201t-173 541q0 341 174 542t469 201zM1000 1919v-57h-580v57h580z
M590 1698q-88 0 -88 -132h-60q0 87 38 139t106 52q66 0 116 -53l40 -44q45 -53 88 -53q85 0 85 132h61q0 -87 -39 -139t-105 -52t-114 53q-20 22 -38 44q-44 53 -90 53z" />
    <glyph glyph-name="otildemacron" unicode="&#x22d;" horiz-adv-x="1089" 
d="M544 56q182 0 292 130t109 352q0 222 -109 352t-292 130t-292 -130t-109 -352q-1 -222 109 -352t292 -130zM544 -14q-216 0 -348 150t-131 402q-1 252 131 403q132 150 348 150t348 -150q132 -151 132 -403t-132 -402t-348 -150zM842 1658v-58h-596v58h596zM417 1400
q-91 0 -91 -153h-60q0 98 38 155t109 57q69 0 127 -58q24 -24 46 -48q53 -58 99 -58q89 0 89 154h61q0 -97 -39 -155t-108 -58q-70 0 -126 58q-24 24 -45 48q-53 58 -100 58z" />
    <glyph glyph-name="Odotaccent" unicode="&#x22e;" horiz-adv-x="1420" 
d="M710 1390q-258 0 -410 -180t-152 -488q0 -306 152 -488t410 -181q258 0 410 181t152 488q0 308 -152 488t-410 180zM710 1464q295 0 469 -201t174 -542q1 -341 -173 -541t-470 -201q-296 1 -470 201t-173 541q0 341 174 542t469 201zM710 1563q-32 1 -54 23t-23 53
q1 31 23 53t54 23q32 -1 54 -23t23 -53q-1 -31 -23 -53t-54 -23z" />
    <glyph glyph-name="odotaccent" unicode="&#x22f;" horiz-adv-x="1089" 
d="M544 56q182 0 292 130t109 352q0 222 -109 352t-292 130t-292 -130t-109 -352q-1 -222 109 -352t292 -130zM544 -14q-216 0 -348 150t-131 402q-1 252 131 403q132 150 348 150t348 -150q132 -151 132 -403t-132 -402t-348 -150zM544 1255q-32 0 -55 23t-23 54t23 54
t55 23t55 -23t23 -54t-23 -54t-55 -23z" />
    <glyph glyph-name="Odotaccentmacron" unicode="&#x230;" horiz-adv-x="1420" 
d="M710 1390q-258 0 -410 -180t-152 -488q0 -306 152 -488t410 -181q258 0 410 181t152 488q0 308 -152 488t-410 180zM710 1464q295 0 469 -201t174 -542q1 -341 -173 -541t-470 -201q-296 1 -470 201t-173 541q0 341 174 542t469 201zM1000 1919v-57h-580v57h580z
M710 1560q-32 0 -54 22t-22 53t22 53t54 22t54 -22t22 -53t-22 -53t-54 -22z" />
    <glyph glyph-name="odotaccentmacron" unicode="&#x231;" horiz-adv-x="1089" 
d="M837 1658v-58h-596v58h596zM544 1255q-32 1 -54 23t-23 54q0 32 23 54t54 22t54 -22t23 -54q-1 -32 -23 -54t-54 -23zM544 56q182 0 292 130t109 352q0 222 -109 352t-292 130t-292 -130t-109 -352q-1 -222 109 -352t292 -130zM544 -14q-216 0 -348 150t-131 402
q-1 252 131 403q132 150 348 150t348 -150q132 -151 132 -403t-132 -402t-348 -150z" />
    <glyph glyph-name="Ymacron" unicode="&#x232;" horiz-adv-x="1172" 
d="M876 1679v-57h-580v57h580zM626 0h-79v629l-525 814h93l469 -733h5l469 733h92l-524 -814v-629z" />
    <glyph glyph-name="ymacron" unicode="&#x233;" horiz-adv-x="919" 
d="M753 1365v-58h-596v58h596zM186 -354q-24 0 -54 9v69q24 -8 56 -8q72 0 117 45t87 154l27 70l-412 1092h83l369 -1001h2l369 1001h82l-417 -1111q-73 -192 -134 -256t-175 -64z" />
    <glyph glyph-name="dotlessj" unicode="&#x237;" horiz-adv-x="336" 
d="M206 1077v-1157q0 -145 -68 -210t-210 -65h-29v69h27q107 0 155 48t48 154v1161h77z" />
    <glyph glyph-name="circumflex" unicode="&#x2c6;" horiz-adv-x="758" 
d="M410 1556l268 -303h-80l-217 249h-3l-217 -249h-81l268 303h62z" />
    <glyph glyph-name="caron" unicode="&#x2c7;" horiz-adv-x="758" 
d="M410 1253h-62l-268 303h81l217 -249h3l217 249h80z" />
    <glyph glyph-name="breve" unicode="&#x2d8;" horiz-adv-x="856" 
d="M156 1503h62q0 -88 58 -142t152 -54t152 54t58 142h62q0 -117 -76 -185t-196 -68t-196 68t-76 185z" />
    <glyph glyph-name="dotaccent" unicode="&#x2d9;" horiz-adv-x="827" 
d="M414 1256q-32 0 -55 23t-23 54t23 54t55 23t55 -23t23 -54t-23 -54t-55 -23z" />
    <glyph glyph-name="ring" unicode="&#x2da;" horiz-adv-x="770" 
d="M385 1283q52 1 88 37t36 88t-36 88t-88 37q-52 -1 -88 -37t-36 -88t36 -88t88 -37zM385 1235q-71 0 -121 51t-51 122q1 71 51 122t121 51t121 -51t51 -122q-1 -71 -51 -122t-121 -51z" />
    <glyph glyph-name="ogonek" unicode="&#x2db;" horiz-adv-x="626" 
d="M346 -396q-74 0 -124 47q-51 47 -51 125q0 142 154 241l55 -5q-140 -95 -140 -217q0 -59 36 -93t94 -34q59 0 100 23v-62q-50 -25 -124 -25z" />
    <glyph glyph-name="tilde" unicode="&#x2dc;" horiz-adv-x="758" 
d="M246 1419q-91 0 -91 -153h-60q1 98 39 155t108 57t128 -58q24 -24 45 -48q53 -58 99 -58q89 0 89 154h61q0 -97 -39 -155t-108 -58t-125 58q-24 24 -46 48q-53 58 -100 58z" />
    <glyph glyph-name="hungarumlaut" unicode="&#x2dd;" horiz-adv-x="857" 
d="M164 1253l226 303h92l-247 -303h-71zM408 1253l226 303h92l-247 -303h-71z" />
    <glyph glyph-name="gravecmb" unicode="&#x300;" 
d="M51 1253h-74l-249 303h93z" />
    <glyph glyph-name="acutecmb" unicode="&#x301;" 
d="M20 1253h-74l230 303h93z" />
    <glyph glyph-name="circumflexcmb" unicode="&#x302;" 
d="M31 1556l268 -303h-80l-217 249h-3l-217 -249h-81l268 303h62z" />
    <glyph glyph-name="tildecmb" unicode="&#x303;" 
d="M-132 1419q-91 0 -91 -153h-60q1 98 39 155t108 57t128 -58q24 -24 45 -48q53 -58 99 -58q89 0 89 154h61q0 -97 -39 -155t-108 -58t-125 58q-24 24 -46 48q-53 58 -100 58z" />
    <glyph glyph-name="macroncmb" unicode="&#x304;" 
d="M293 1366v-58h-596v58h596z" />
    <glyph glyph-name="brevecmb" unicode="&#x306;" 
d="M-272 1503h62q0 -88 58 -142t152 -54t152 54t58 142h62q0 -117 -76 -185t-196 -68t-196 68t-76 185z" />
    <glyph glyph-name="dotaccentcmb" unicode="&#x307;" 
d="M0 1256q-32 0 -55 23t-23 54t23 54t55 23t55 -23t23 -54t-23 -54t-55 -23z" />
    <glyph glyph-name="dieresiscmb" unicode="&#x308;" 
d="M152 1256q-28 0 -47 20q-20 20 -20 46q0 28 20 48q19 20 47 19q28 1 48 -19t20 -48t-20 -46q-20 -20 -48 -20zM-152 1256q-28 0 -48 20t-20 46q0 28 20 48t48 19q28 1 47 -19q20 -20 20 -48t-20 -46q-19 -20 -47 -20z" />
    <glyph glyph-name="hookabovecmb" unicode="&#x309;" 
d="M0 1524q67 0 110 -39t43 -95q1 -56 -31 -97q-32 -42 -82 -63l-35 44q83 34 83 106q0 39 -28 63t-80 24q-51 0 -95 -29v58q48 28 115 28z" />
    <glyph glyph-name="ringcmb" unicode="&#x30a;" 
d="M0 1282q52 0 88 36t36 89t-36 89t-88 36t-88 -36t-36 -89t36 -89t88 -36zM0 1234q-72 0 -122 51t-50 122t50 122t122 51t122 -51t50 -122t-50 -122t-122 -51z" />
    <glyph glyph-name="hungarumlautcmb" unicode="&#x30b;" 
d="M-158 1253l226 303h92l-247 -303h-71zM86 1253l226 303h92l-247 -303h-71z" />
    <glyph glyph-name="caroncmb" unicode="&#x30c;" 
d="M31 1253h-62l-268 303h81l217 -249h3l217 249h80z" />
    <glyph glyph-name="dblgravecmb" unicode="&#x30f;" 
d="M159 1253h-72l-247 303h92zM-85 1253h-72l-247 303h92z" />
    <glyph glyph-name="invertedbrevecmb" unicode="&#x311;" 
d="M-272 1253q0 117 76 185t196 68t196 -68t76 -185h-62q0 88 -58 142t-152 54t-152 -54t-58 -142h-62z" />
    <glyph glyph-name="horncmb" unicode="&#x31b;" 
d="M55 1082q155 0 155 163v123h74v-141q0 -102 -60 -157t-159 -55q-48 0 -65 12v67q10 -12 55 -12z" />
    <glyph glyph-name="dotbelowcmb" unicode="&#x323;" 
d="M0 -295q-32 1 -54 23t-23 53q1 31 23 53t54 23q32 -1 54 -23t23 -53q-1 -31 -23 -53t-54 -23z" />
    <glyph glyph-name="dieresisbelowcmb" unicode="&#x324;" 
d="M152 -279q-28 -1 -47 19q-20 20 -20 48t20 46q19 20 47 20t48 -20t20 -46q0 -28 -20 -48t-48 -19zM-152 -279q-28 -1 -48 19t-20 48t20 46q20 20 48 20t47 -20q20 -20 20 -46q0 -28 -20 -48q-19 -20 -47 -19z" />
    <glyph glyph-name="ringbelowcmb" unicode="&#x325;" 
d="M0 -444q52 0 88 36t36 89t-36 89t-88 36t-88 -36t-36 -89t36 -89t88 -36zM0 -492q-72 0 -122 51t-50 122t50 122t122 51t122 -51t50 -122t-50 -122t-122 -51z" />
    <glyph glyph-name="commabelowcmb" unicode="&#x326;" 
d="M-57 -493h-63l99 344h78z" />
    <glyph glyph-name="cedillacmb" unicode="&#x327;" 
d="M119 -295q0 102 -160 102h-52v43l67 157l60 -7l-58 -141q96 0 152 -41q56 -42 55 -114t-61 -120t-144 -48q-84 -1 -140 17v56q42 -17 116 -17t120 32t45 81z" />
    <glyph glyph-name="ogonekcmb" unicode="&#x328;" 
d="M-4 -396q-74 0 -125 47t-51 125q0 142 154 241l55 -5q-140 -95 -140 -217q-1 -59 35 -93t95 -34t100 23v-62q-49 -25 -123 -25z" />
    <glyph glyph-name="circumflexbelowcmb" unicode="&#x32d;" 
d="M-34 -147h68l271 -290h-83l-221 238h-2l-221 -238h-83z" />
    <glyph glyph-name="brevebelowcmb" unicode="&#x32e;" 
d="M-269 -155h61q0 -77 58 -129t150 -51q92 -1 150 51t58 129h61q1 -107 -75 -171t-194 -65q-118 1 -194 65t-75 171z" />
    <glyph glyph-name="tildebelowcmb" unicode="&#x330;" 
d="M-133 -202q-91 0 -91 -153h-60q0 98 38 155t109 57q69 0 127 -58q24 -24 46 -48q53 -58 99 -58q89 0 89 154h61q0 -97 -39 -155t-108 -58q-70 0 -126 58q-24 24 -45 48q-53 58 -100 58z" />
    <glyph glyph-name="macronbelowcmb" unicode="&#x331;" 
d="M290 -205v-57h-580v57h580z" />
    <glyph glyph-name="greekquestionmark" unicode="&#x37e;" horiz-adv-x="496" 
d="M203 -222h-63l65 402h84zM248 760q-30 0 -50 20t-20 50t20 50t50 20t50 -20t20 -50t-20 -50t-50 -20z" />
    <glyph glyph-name="tonosgreek" unicode="&#x384;" horiz-adv-x="621" 
d="M205 1253l88 316h98l-121 -316h-65z" />
    <glyph glyph-name="dieresistonosgreek" unicode="&#x385;" horiz-adv-x="889" 
d="M457 1253h-64l48 316h97zM642 1256q-28 0 -47 20q-20 20 -20 46q0 28 20 48q19 20 47 19q28 1 48 -19t20 -48t-20 -46q-20 -20 -48 -20zM246 1256q-28 0 -47 20q-20 20 -20 46q0 28 20 48q19 20 47 19q28 1 48 -19t20 -48t-20 -46q-20 -20 -48 -20z" />
    <glyph glyph-name="Alphatonosgreek" unicode="&#x386;" horiz-adv-x="1220" 
d="M202 1109h-67l94 334h99zM607 1340l-296 -788h598l-297 788h-5zM1114 0l-180 481h-649l-179 -481h-86l550 1443h80l549 -1443h-85z" />
    <glyph glyph-name="anoteleia" unicode="&#x387;" horiz-adv-x="496" 
d="M248 939q-30 1 -50 21t-20 49t20 49t50 21q30 -1 50 -21t20 -49t-20 -49t-50 -21z" />
    <glyph glyph-name="Epsilontonosgreek" unicode="&#x388;" horiz-adv-x="1283" 
d="M1204 73v-73h-841v1443h841v-73h-762v-594h726v-72h-726v-631h762zM115 1109h-67l94 334h99z" />
    <glyph glyph-name="Etatonosgreek" unicode="&#x389;" horiz-adv-x="1562" 
d="M1434 0h-79v705h-913v-705h-79v1443h79v-666h913v666h79v-1443zM115 1109h-67l94 334h99z" />
    <glyph glyph-name="Iotatonosgreek" unicode="&#x38a;" horiz-adv-x="570" 
d="M115 1109h-67l94 334h99zM442 0h-79v1443h79v-1443z" />
    <glyph glyph-name="Omicrontonosgreek" unicode="&#x38c;" horiz-adv-x="1553" 
d="M108 1109h-67l94 334h99zM843 1390q-257 0 -409 -180t-153 -488q1 -306 153 -488t409 -181q257 0 409 181t153 488q-1 308 -153 488t-409 180zM843 1464q295 0 469 -201t174 -542t-174 -541t-469 -201q-295 1 -469 201t-174 541t174 542t469 201z" />
    <glyph glyph-name="Upsilontonosgreek" unicode="&#x38e;" horiz-adv-x="1477" 
d="M931 0h-79v629l-525 814h93l469 -733h5l469 733h92l-524 -814v-629zM109 1110h-67l94 334h99z" />
    <glyph glyph-name="Omegatonosgreek" unicode="&#x38f;" horiz-adv-x="1614" 
d="M108 1109h-67l94 334h99zM1429 747q-1 399 -271 564q-130 79 -297 79q-255 0 -413 -172t-158 -447q0 -228 108 -391t337 -278v-102h-528v73h439v5q-437 226 -437 695q0 307 181 499t471 192q191 0 339 -88t229 -245t81 -358q0 -469 -436 -695v-5h438v-73h-527v102
q444 224 444 645z" />
    <glyph glyph-name="iotadieresistonosgreek" unicode="&#x390;" horiz-adv-x="493" 
d="M189 1253h-64l48 316h97zM374 1256q-28 0 -47 20q-20 20 -20 46q0 28 20 48q19 20 47 19q28 1 48 -19t20 -48t-20 -46q-20 -20 -48 -20zM-22 1256q-28 0 -47 20q-20 20 -20 46q0 28 20 48q19 20 47 19q28 1 48 -19t20 -48t-20 -46q-20 -20 -48 -20zM370 -9
q-136 1 -194 61t-58 200v825h77v-815q0 -107 43 -155t139 -48q51 0 88 10l2 -68q-33 -10 -97 -10z" />
    <glyph glyph-name="Alphagreek" unicode="&#x391;" horiz-adv-x="1221" 
d="M608 1340l-296 -788h598l-297 788h-5zM1115 0l-180 481h-649l-179 -481h-86l550 1443h80l549 -1443h-85z" />
    <glyph glyph-name="Betagreek" unicode="&#x392;" horiz-adv-x="1165" 
d="M207 72h410q194 0 304 84t110 233q0 148 -115 233t-320 85h-389v-635zM207 1371v-593h376q170 0 271 83t101 219t-96 214t-257 77h-395zM625 0h-497v1443h486q188 0 304 -97t117 -240t-77 -235t-207 -117v-6q158 -17 259 -114t101 -262q0 -164 -130 -268t-356 -104z" />
    <glyph glyph-name="Gammagreek" unicode="&#x393;" horiz-adv-x="993" 
d="M207 0h-79v1443h810v-73h-731v-1370z" />
    <glyph glyph-name="Deltagreek" unicode="&#x394;" horiz-adv-x="1264" 
d="M136 73h991v5l-493 1265h-5l-493 -1265v-5zM1220 0h-1176v57l548 1386h80l548 -1386v-57z" />
    <glyph glyph-name="Epsilongreek" unicode="&#x395;" horiz-adv-x="1047" 
d="M969 73v-73h-841v1443h841v-73h-762v-594h726v-72h-726v-631h762z" />
    <glyph glyph-name="Zetagreek" unicode="&#x396;" horiz-adv-x="1173" 
d="M71 0v62l925 1303v5h-896v73h997v-62l-923 -1303v-5h928v-73h-1031z" />
    <glyph glyph-name="Etagreek" unicode="&#x397;" horiz-adv-x="1327" 
d="M1199 0h-79v705h-913v-705h-79v1443h79v-666h913v666h79v-1443z" />
    <glyph glyph-name="Thetagreek" unicode="&#x398;" horiz-adv-x="1423" 
d="M712 1390q-260 0 -412 -180t-152 -488q0 -307 152 -488t412 -181q258 0 410 181t153 488q0 308 -152 488t-411 180zM712 1464q296 0 470 -200t174 -542t-174 -542t-470 -201q-297 1 -471 201t-174 542q1 342 175 542t470 200zM1053 691h-683v73h683v-73z" />
    <glyph glyph-name="Iotagreek" unicode="&#x399;" horiz-adv-x="335" 
d="M207 0h-79v1443h79v-1443z" />
    <glyph glyph-name="Kappagreek" unicode="&#x39a;" horiz-adv-x="1142" 
d="M207 0h-79v1443h79v-806h6l750 806h101l-594 -636l660 -807h-101l-615 751l-207 -223v-528z" />
    <glyph glyph-name="Lambdagreek" unicode="&#x39b;" horiz-adv-x="1181" 
d="M1075 0l-482 1334h-5l-481 -1334h-86l530 1443h80l529 -1443h-85z" />
    <glyph glyph-name="Mugreek" unicode="&#x39c;" horiz-adv-x="1604" 
d="M1476 1443v-1443h-76v1279h-4l-556 -1276h-76l-556 1276h-4v-1279h-76v1443h88l583 -1340h6l581 1340h90z" />
    <glyph glyph-name="Nugreek" unicode="&#x39d;" horiz-adv-x="1341" 
d="M206 0h-78v1443h82l919 -1299h6v1299h79v-1443h-75l-927 1307h-6v-1307z" />
    <glyph glyph-name="Xigreek" unicode="&#x39e;" horiz-adv-x="1177" 
d="M78 75h1020v-75h-1020v75zM1034 704h-891v75h891v-75zM78 1443h1020v-75h-1020v75z" />
    <glyph glyph-name="Omicrongreek" unicode="&#x39f;" horiz-adv-x="1420" 
d="M710 1390q-258 0 -410 -180t-152 -488q0 -306 152 -488t410 -181q258 0 410 181t152 488q0 308 -152 488t-410 180zM710 1464q295 0 469 -201t174 -542q1 -341 -173 -541t-470 -201q-296 1 -470 201t-173 541q0 341 174 542t469 201z" />
    <glyph glyph-name="Pigreek" unicode="&#x3a0;" horiz-adv-x="1307" 
d="M1179 0h-79v1370h-893v-1370h-79v1443h1051v-1443z" />
    <glyph glyph-name="Rhogreek" unicode="&#x3a1;" horiz-adv-x="1116" 
d="M207 1371v-717h377q184 0 290 96t106 262t-106 263q-106 96 -290 96h-377zM128 1443h469q211 1 337 -117t127 -314q0 -196 -127 -312q-127 -118 -337 -118h-390v-582h-79v1443z" />
    <glyph glyph-name="Sigmagreek" unicode="&#x3a3;" horiz-adv-x="1150" 
d="M171 73h908v-73h-1008v62l469 675l-450 640v66h967v-73h-866v-5l438 -622v-5l-458 -660v-5z" />
    <glyph glyph-name="Taugreek" unicode="&#x3a4;" horiz-adv-x="1138" 
d="M609 0h-80v1370h-508v73h1096v-73h-508v-1370z" />
    <glyph glyph-name="Upsilongreek" unicode="&#x3a5;" horiz-adv-x="1172" 
d="M626 0h-79v629l-525 814h93l469 -733h5l469 733h92l-524 -814v-629z" />
    <glyph glyph-name="Phigreek" unicode="&#x3a6;" horiz-adv-x="1533" 
d="M805 -59h-79v127q-318 4 -498 178t-181 476q1 302 181 476t498 178v116h79v-116q319 -4 500 -178t181 -476t-181 -476t-500 -178v-127zM128 722q0 -270 159 -424t439 -157v1163q-282 -4 -440 -158t-158 -424zM1404 722q0 270 -158 424t-441 158v-1163q281 3 440 157
t159 424z" />
    <glyph glyph-name="Chigreek" unicode="&#x3a7;" horiz-adv-x="1215" 
d="M42 0l516 722v2l-514 719h95l469 -658h2l471 658h92l-518 -721v-2l515 -720h-95l-468 656h-2l-471 -656h-92z" />
    <glyph glyph-name="Psigreek" unicode="&#x3a8;" horiz-adv-x="1430" 
d="M755 0h-80v353q-277 1 -425 145t-148 414v531h79v-530q1 -237 127 -361t367 -125v1016h80v-1016q241 1 367 125t127 361v530h79v-531q0 -270 -148 -414t-425 -145v-353z" />
    <glyph glyph-name="Omegagreek" unicode="&#x3a9;" horiz-adv-x="1509" 
d="M1324 747q0 399 -270 564q-130 79 -298 79q-255 0 -413 -172t-158 -447q1 -228 109 -391t336 -278v-102h-528v73h439v5q-437 226 -437 695q0 307 181 499t471 192q191 0 339 -88t229 -245t81 -358q0 -469 -436 -695v-5h438v-73h-527v102q444 224 444 645z" />
    <glyph glyph-name="Iotadieresisgreek" unicode="&#x3aa;" horiz-adv-x="373" 
d="M358 1563q-28 -1 -48 19t-20 48t20 46q20 20 48 20t47 -20q20 -20 20 -46q0 -28 -20 -48q-19 -20 -47 -19zM52 1563q-28 -1 -47 19q-20 20 -20 48t20 46q19 20 47 20t48 -20t20 -46q0 -28 -20 -48t-48 -19zM245 0h-79v1443h79v-1443z" />
    <glyph glyph-name="Upsilondieresisgreek" unicode="&#x3ab;" horiz-adv-x="1218" 
d="M786 1563q-28 -1 -48 19t-20 48t20 46q20 20 48 20t47 -20q20 -20 20 -46q0 -28 -20 -48q-19 -20 -47 -19zM480 1563q-28 -1 -47 19q-20 20 -20 48t20 46q19 20 47 20t48 -20t20 -46q0 -28 -20 -48t-48 -19zM673 0h-79v629l-525 814h93l469 -733h5l469 733h92l-524 -814
v-629z" />
    <glyph glyph-name="alphatonosgreek" unicode="&#x3ac;" horiz-adv-x="1214" 
d="M503 1253l88 316h98l-121 -316h-65zM987 212q-1 -151 99 -151q46 0 76 10l7 -69q-35 -10 -82 -10q-169 0 -178 187v105h-2q-33 -124 -143 -211t-243 -87q-200 0 -328 155t-128 397q-1 242 127 398q128 155 327 155q131 -1 244 -85t148 -217h3v288h73v-865zM524 56
q168 0 276 136t109 346q-1 210 -111 346t-275 136t-272 -136t-107 -347t106 -346t274 -135z" />
    <glyph glyph-name="epsilontonosgreek" unicode="&#x3ad;" horiz-adv-x="1031" 
d="M486 -14q-188 0 -298 80t-110 218q0 103 60 173t166 92v3q-96 14 -150 78t-54 161q0 136 112 218t298 82q186 -1 304 -91t138 -244h-78q-12 120 -112 192t-252 72t-244 -63t-91 -167q0 -202 296 -202h148v-70h-149q-146 0 -230 -61t-84 -170t88 -170t244 -61
q155 0 264 70t138 187h79q-29 -145 -161 -236q-134 -91 -322 -91zM478 1253l88 316h98l-121 -316h-65z" />
    <glyph glyph-name="etatonosgreek" unicode="&#x3ae;" horiz-adv-x="1213" 
d="M478 1253l88 316h98l-121 -316h-65zM182 1084q154 0 154 -244h2q43 118 143 184q101 66 253 67q152 -1 259 -109t107 -281v-1086h-77v1063q-1 154 -89 248t-242 94t-252 -105t-99 -279v-636h-78v864q0 151 -105 151q-50 0 -77 -9v68q37 10 101 10z" />
    <glyph glyph-name="iotatonosgreek" unicode="&#x3af;" horiz-adv-x="493" 
d="M128 1253l88 316h98l-121 -316h-65zM370 -9q-136 1 -194 61t-58 200v825h77v-815q0 -107 43 -155t139 -48q51 0 88 10l2 -68q-33 -10 -97 -10z" />
    <glyph glyph-name="upsilondieresistonosgreek" unicode="&#x3b0;" horiz-adv-x="1048" 
d="M526 -14q-200 0 -307 111q-106 111 -106 315v665h77v-661q0 -174 84 -266t251 -93q165 -1 261 135t96 406t-84 479h79q83 -210 83 -494q0 -285 -117 -441t-317 -156zM508 1253h-64l48 316h97zM694 1256q-28 0 -48 20t-20 46q0 28 20 48t48 19q28 1 47 -19q20 -20 20 -48
t-20 -46q-19 -20 -47 -20zM298 1256q-28 0 -48 20t-20 46q0 28 20 48t48 19q28 1 47 -19q20 -20 20 -48t-20 -46q-19 -20 -47 -20z" />
    <glyph glyph-name="alphagreek" unicode="&#x3b1;" horiz-adv-x="1214" 
d="M987 212q-1 -151 99 -151q46 0 76 10l7 -69q-35 -10 -82 -10q-169 0 -178 187v105h-2q-33 -124 -143 -211t-243 -87q-200 0 -328 155t-128 397q-1 242 127 398q128 155 327 155q131 -1 244 -85t148 -217h3v288h73v-865zM524 56q168 0 276 136t109 346q-1 210 -111 346
t-275 136t-272 -136t-107 -347t106 -346t274 -135z" />
    <glyph glyph-name="betagreek" unicode="&#x3b2;" horiz-adv-x="1124" 
d="M119 1022q0 240 114 369q115 129 313 129t305 -99t107 -267q0 -122 -68 -212t-191 -121v-2q175 -28 267 -133q92 -104 93 -284q-1 -180 -121 -298t-296 -118t-289 78t-153 220h-3v-669h-78v1407zM428 779v71h136q146 0 232 82t86 218t-88 218t-250 82t-255 -110t-93 -326
v-470q0 -224 114 -356t292 -132t278 99t100 266t-114 263t-313 95h-125z" />
    <glyph glyph-name="gammagreek" unicode="&#x3b3;" horiz-adv-x="999" 
d="M904 900q0 -219 -93 -415q-93 -197 -314 -496v-342h-77v337l-384 1093h83l347 -1005h2q198 270 280 454t81 388q0 83 -13 163h76q12 -72 12 -177z" />
    <glyph glyph-name="deltagreek" unicode="&#x3b4;" horiz-adv-x="1064" 
d="M531 55q176 0 285 118t109 309q0 234 -121 346q-121 113 -284 113t-274 -119q-111 -120 -111 -322t110 -324t286 -121zM530 -14q-210 0 -340 140q-132 140 -132 365q0 226 119 361t319 146v4q-138 54 -198 118t-60 166t92 168t264 66t299 -67l-3 -71q-146 69 -292 69
q-282 0 -283 -178q0 -77 66 -131q67 -54 255 -132t277 -202q89 -126 89 -336t-131 -348t-341 -138z" />
    <glyph glyph-name="epsilongreek" unicode="&#x3b5;" horiz-adv-x="1031" 
d="M486 -14q-188 0 -298 80t-110 218q0 103 60 173t166 92v3q-96 14 -150 78t-54 161q0 136 112 218t298 82q186 -1 304 -91t138 -244h-78q-12 120 -112 192t-252 72t-244 -63t-91 -167q0 -202 296 -202h148v-70h-149q-146 0 -230 -61t-84 -170t88 -170t244 -61
q155 0 264 70t138 187h79q-29 -145 -161 -236q-134 -91 -322 -91z" />
    <glyph glyph-name="zetagreek" unicode="&#x3b6;" horiz-adv-x="849" 
d="M766 -206q0 82 -54 136q-54 52 -191 101q-256 91 -356 205t-100 312q0 238 179 482t456 401v3h-553v72h681v-72q-312 -173 -498 -409t-186 -475q0 -119 36 -195q36 -75 124 -135t252 -122t225 -125q61 -64 61 -166t-64 -192l-66 15q54 82 54 164z" />
    <glyph glyph-name="etagreek" unicode="&#x3b7;" horiz-adv-x="1213" 
d="M182 1084q154 0 154 -244h2q43 118 143 184q101 66 253 67q152 -1 259 -109t107 -281v-1086h-77v1063q-1 154 -89 248t-242 94t-252 -105t-99 -279v-636h-78v864q0 151 -105 151q-50 0 -77 -9v68q37 10 101 10z" />
    <glyph glyph-name="thetagreek" unicode="&#x3b8;" horiz-adv-x="1114" 
d="M557 1450q-191 0 -291 -166t-103 -490h789q-4 324 -104 490t-291 166zM558 56q192 0 292 169t102 499h-789q2 -328 102 -498t293 -170zM558 -14q-474 0 -474 769q0 377 120 571t354 194q232 0 352 -195t120 -573t-119 -572t-353 -194z" />
    <glyph glyph-name="iotagreek" unicode="&#x3b9;" horiz-adv-x="493" 
d="M370 -9q-136 1 -194 61t-58 200v825h77v-815q0 -107 43 -155t139 -48q51 0 88 10l2 -68q-33 -10 -97 -10z" />
    <glyph glyph-name="kappagreek" unicode="&#x3ba;" horiz-adv-x="1069" 
d="M119 0v1077h77v-689h2l493 568q61 72 109 100t104 28t83 -10v-68q-27 9 -71 9q-44 1 -82 -23t-92 -88l-210 -243l472 -661h-92l-430 604l-286 -323v-281h-77z" />
    <glyph glyph-name="lambdagreek" unicode="&#x3bb;" horiz-adv-x="1091" 
d="M212 1449q-62 0 -90 -9v70q38 10 80 10q106 0 165 -53t109 -196l389 -1107q21 -59 49 -81t70 -22q43 0 70 10l7 -69q-33 -10 -93 -10t-100 31t-71 120l-278 799h-2l-395 -942h-82l444 1040l-75 207q-43 119 -89 161t-108 41z" />
    <glyph glyph-name="mugreek" unicode="&#x3bc;" horiz-adv-x="1197" 
d="M957 212q-1 -151 99 -151q46 0 76 10l7 -69q-29 -10 -97 -10t-110 44t-49 137q-2 6 -2 59h-2q-41 -114 -139 -180t-220 -66t-209 56t-112 148h-2v-575h-78v1462h78v-677q0 -162 85 -252q84 -90 240 -91q156 1 256 107t101 273v640h78v-865z" />
    <glyph glyph-name="nugreek" unicode="&#x3bd;" horiz-adv-x="994" 
d="M822 914q0 75 -13 163h78q12 -80 12 -163q1 -229 -85 -424t-308 -490h-91l-379 1077h83l347 -1005h2q194 266 274 450t80 392z" />
    <glyph glyph-name="xigreek" unicode="&#x3be;" horiz-adv-x="882" 
d="M766 -205q0 85 -56 136t-214 109t-256 120q-98 60 -136 128q-39 68 -39 164q1 148 93 244t257 115v2q-145 40 -215 114t-71 193q0 119 86 201t241 111v2h-325v72h671v-66l-113 -10q-490 -45 -490 -313q0 -128 111 -196t316 -68h100v-72h-99q-484 0 -484 -326
q0 -118 83 -191q84 -73 286 -148t266 -138t64 -168t-64 -195l-66 15q54 80 54 165z" />
    <glyph glyph-name="omicrongreek" unicode="&#x3bf;" horiz-adv-x="1079" 
d="M539 56q179 0 288 130t109 352q0 220 -110 351t-287 131q-179 0 -287 -130t-108 -352t108 -352t287 -130zM539 -14q-215 0 -345 150t-129 402q-1 253 129 403t346 150t344 -150q130 -150 130 -403q0 -252 -130 -402t-345 -150z" />
    <glyph glyph-name="pigreek" unicode="&#x3c0;" horiz-adv-x="1293" 
d="M997 210q-1 -149 99 -149q46 0 76 10l7 -69q-33 -10 -82 -10q-90 0 -133 51t-43 160v803h-565v-1005h-75v1005h-209v71h1143v-71h-218v-796z" />
    <glyph glyph-name="rhogreek" unicode="&#x3c1;" horiz-adv-x="1085" 
d="M86 -385v931q0 251 127 398t337 147q210 1 340 -153t130 -401t-126 -399t-333 -152q-139 0 -249 84t-146 214h-3v-669h-77zM554 56q174 0 282 134q106 134 106 350q0 218 -107 349t-285 131t-282 -126t-104 -346t108 -356t282 -136z" />
    <glyph glyph-name="sigmafinalgreek" unicode="&#x3c2;" horiz-adv-x="1023" 
d="M766 -206q0 82 -54 136q-54 52 -191 101q-256 91 -356 205t-100 311q0 249 127 397t342 147q172 -1 288 -93t143 -245h-78q-25 121 -119 194t-231 73q-181 0 -287 -128t-106 -344q0 -118 36 -194t125 -136q87 -60 251 -120q164 -61 225 -125t61 -166t-64 -192l-66 15
q54 82 54 164z" />
    <glyph glyph-name="sigmagreek" unicode="&#x3c3;" horiz-adv-x="1208" 
d="M536 57q178 -1 288 131t110 348t-102 342t-284 126q-184 0 -294 -129t-110 -345t107 -344q107 -129 285 -129zM535 -14q-211 0 -341 149t-129 398q0 249 135 397t370 147h566v-71h-365v-3q112 -54 175 -177t63 -289q1 -247 -131 -399t-343 -152z" />
    <glyph glyph-name="taugreek" unicode="&#x3c4;" horiz-adv-x="985" 
d="M685 -9q-138 1 -197 61t-59 201v753h-369v71h873v-71h-427v-741q0 -110 44 -158t143 -48q55 0 87 10l7 -68q-39 -10 -102 -10z" />
    <glyph glyph-name="upsilongreek" unicode="&#x3c5;" horiz-adv-x="1048" 
d="M526 -14q-200 0 -307 111q-106 111 -106 315v665h77v-661q0 -174 84 -266t251 -93q165 -1 261 135t96 406t-84 479h79q83 -210 83 -494q0 -285 -117 -441t-317 -156z" />
    <glyph glyph-name="phigreek" unicode="&#x3c6;" horiz-adv-x="1369" 
d="M134 538q0 -216 140 -348q140 -133 373 -137v971q-233 -2 -373 -136t-140 -350zM1235 538q0 216 -140 350t-373 136v-971q232 4 372 137q140 132 141 348zM647 -385v371q-271 8 -431 158t-160 396t158 395t433 156v271h75v-271q274 -7 432 -156t159 -395t-159 -396
t-432 -158v-371h-75z" />
    <glyph glyph-name="chigreek" unicode="&#x3c7;" horiz-adv-x="1149" 
d="M143 1015q-47 0 -74 -9v68q37 10 97 10t102 -33q43 -33 87 -121l259 -517h2l361 664h85l-408 -735l273 -545q34 -69 66 -95t76 -26t72 9l7 -68q-33 -10 -83 -10q-50 -1 -88 17q-37 18 -61 48t-53 89l-259 511h-2l-356 -657h-85l404 729l-275 551q-36 71 -68 95t-79 25z
" />
    <glyph glyph-name="psigreek" unicode="&#x3c8;" horiz-adv-x="1302" 
d="M609 -385v371q-236 0 -366 110t-130 314v667h77v-664q0 -163 103 -259t316 -97v1305h76v-1306q287 6 394 232q56 119 56 282q0 306 -87 507h80q86 -200 86 -502t-172 -464q-130 -122 -357 -126v-370h-76z" />
    <glyph glyph-name="omegagreek" unicode="&#x3c9;" horiz-adv-x="1468" 
d="M344 1077q-178 -234 -178 -603q0 -188 71 -304t197 -116t194 96t67 264v330h77v-330q0 -168 68 -264t194 -96t197 116t71 304q0 369 -178 603h90q74 -103 120 -263t46 -315q0 -248 -90 -382t-257 -134q-111 1 -189 67t-109 188h-3q-32 -122 -109 -188t-188 -67
q-167 0 -257 134t-90 382q0 155 46 315t120 263h90z" />
    <glyph glyph-name="iotadieresisgreek" unicode="&#x3ca;" horiz-adv-x="493" 
d="M370 -9q-136 1 -194 61t-58 200v825h77v-815q0 -107 43 -155t139 -48q51 0 88 10l2 -68q-33 -10 -97 -10zM318 1256q-28 0 -48 20t-20 46q0 28 20 48t48 19q28 1 47 -19q20 -20 20 -48t-20 -46q-19 -20 -47 -20zM12 1256q-28 0 -47 20q-20 20 -20 46q0 28 20 48
q19 20 47 19q28 1 48 -19t20 -48t-20 -46q-20 -20 -48 -20z" />
    <glyph glyph-name="upsilondieresisgreek" unicode="&#x3cb;" horiz-adv-x="1048" 
d="M526 -14q-200 0 -307 111q-106 111 -106 315v665h77v-661q0 -174 84 -266t251 -93q165 -1 261 135t96 406t-84 479h79q83 -210 83 -494q0 -285 -117 -441t-317 -156zM648 1256q-28 0 -48 20t-20 46q0 28 20 48t48 19q28 1 47 -19q20 -20 20 -48t-20 -46q-19 -20 -47 -20z
M342 1256q-28 0 -47 20q-20 20 -20 46q0 28 20 48q19 20 47 19q28 1 48 -19t20 -48t-20 -46q-20 -20 -48 -20z" />
    <glyph glyph-name="omicrontonosgreek" unicode="&#x3cc;" horiz-adv-x="1079" 
d="M505 1253l88 316h98l-121 -316h-65zM539 56q179 0 288 130t109 352q0 220 -110 351t-287 131q-179 0 -287 -130t-108 -352t108 -352t287 -130zM539 -14q-215 0 -345 150t-129 402q-1 253 129 403t346 150t344 -150q130 -150 130 -403q0 -252 -130 -402t-345 -150z" />
    <glyph glyph-name="upsilontonosgreek" unicode="&#x3cd;" horiz-adv-x="1048" 
d="M526 -14q-200 0 -307 111q-106 111 -106 315v665h77v-661q0 -174 84 -266t251 -93q165 -1 261 135t96 406t-84 479h79q83 -210 83 -494q0 -285 -117 -441t-317 -156zM442 1253l88 316h98l-121 -316h-65z" />
    <glyph glyph-name="omegatonosgreek" unicode="&#x3ce;" horiz-adv-x="1468" 
d="M703 1253l88 316h98l-121 -316h-65zM344 1077q-178 -234 -178 -603q0 -188 71 -304t197 -116t194 96t67 264v330h77v-330q0 -168 68 -264t194 -96t197 116t71 304q0 369 -178 603h90q74 -103 120 -263t46 -315q0 -248 -90 -382t-257 -134q-111 1 -189 67t-109 188h-3
q-32 -122 -109 -188t-188 -67q-167 0 -257 134t-90 382q0 155 46 315t120 263h90z" />
    <glyph glyph-name="Iocyrillic" unicode="&#x401;" horiz-adv-x="1067" 
d="M979 73v-73h-841v1443h841v-73h-762v-594h726v-72h-726v-631h762zM710 1563q-28 -1 -47 19q-20 20 -20 48t20 46q19 20 47 20t48 -20t20 -46q0 -28 -20 -48t-48 -19zM406 1563q-28 -1 -48 19t-20 48t20 46q20 20 48 20t47 -20q20 -20 20 -46q0 -28 -20 -48
q-19 -20 -47 -19z" />
    <glyph glyph-name="Djecyrillic" unicode="&#x402;" horiz-adv-x="1558" 
d="M1068 -12q-76 0 -108 13v72q33 -10 106 -10q144 1 230 99t85 264q1 166 -101 268q-102 101 -274 101q-116 0 -222 -51t-166 -133v-611h-79v1370h-508v73h1096v-73h-509v-654h5q70 71 171 111t215 40q207 1 329 -121t122 -320t-108 -318t-284 -120z" />
    <glyph glyph-name="Gjecyrillic" unicode="&#x403;" horiz-adv-x="1024" 
d="M217 0h-79v1443h824v-73h-745v-1370zM557 1553h-78l279 290h96z" />
    <glyph glyph-name="Ecyrillic" unicode="&#x404;" horiz-adv-x="1345" 
d="M712 -21q-290 -1 -462 203t-173 544q0 340 172 540q172 198 463 198q218 0 380 -134t186 -335h-80q-24 167 -163 281t-323 114q-245 0 -394 -165t-159 -448h743v-72h-743q5 -300 155 -476t398 -176q190 -1 326 101t159 268h80q-25 -199 -181 -321t-384 -122z" />
    <glyph glyph-name="Dzecyrillic" unicode="&#x405;" horiz-adv-x="1157" 
d="M590 52q186 0 302 92t117 235q0 113 -81 183t-263 116l-171 42q-200 50 -294 136t-94 221q0 167 137 277t338 110t338 -106t144 -266h-79q-8 130 -122 214t-282 85q-168 -1 -280 -89t-113 -209q0 -121 81 -188t257 -111l161 -41q212 -53 308 -139t96 -229
q0 -180 -139 -293t-363 -113t-368 113t-153 293h79q9 -147 134 -240q124 -93 310 -93z" />
    <glyph glyph-name="Icyrillic" unicode="&#x406;" horiz-adv-x="355" 
d="M217 0h-79v1443h79v-1443z" />
    <glyph glyph-name="Yicyrillic" unicode="&#x407;" horiz-adv-x="355" 
d="M330 1563q-28 -1 -48 19t-20 48t20 46q20 20 48 20t47 -20q20 -20 20 -46q0 -28 -20 -48q-19 -20 -47 -19zM24 1563q-28 -1 -47 19q-20 20 -20 48t20 46q19 20 47 20t48 -20t20 -46q0 -28 -20 -48t-48 -19zM217 0h-79v1443h79v-1443z" />
    <glyph glyph-name="Jecyrillic" unicode="&#x408;" horiz-adv-x="971" 
d="M446 50q140 0 224 89t84 250v1054h80v-1058q0 -189 -106 -299t-282 -110q-175 0 -283 96t-112 248h78q7 -118 92 -194t225 -76z" />
    <glyph glyph-name="Ljecyrillic" unicode="&#x409;" horiz-adv-x="2064" 
d="M1143 73h374q185 -1 291 95t106 260t-107 260t-290 95h-374v-710zM83 -9q-13 0 -58 9v73q24 -8 67 -8t83 31q103 80 119 381l58 966h791v-588h387q210 -1 337 -117t127 -310t-126 -311t-338 -117h-466v1370h-637l-55 -900q-20 -351 -158 -443q-54 -36 -131 -36z" />
    <glyph glyph-name="Njecyrillic" unicode="&#x40a;" horiz-adv-x="2099" 
d="M217 705v-705h-79v1443h79v-666h887v666h80v-666h386q212 1 338 -103t126 -280t-126 -286q-126 -108 -337 -108h-467v705h-887zM1184 73h374q184 -1 290 87t106 234t-107 228q-107 83 -289 83h-374v-632z" />
    <glyph glyph-name="Tshecyrillic" unicode="&#x40b;" horiz-adv-x="1578" 
d="M990 867q219 -1 341 -129t122 -340v-398h-80v389q-1 185 -101 295t-269 111q-112 0 -218 -51t-167 -133v-611h-79v1370h-508v73h1096v-73h-509v-654h5q148 151 367 151z" />
    <glyph glyph-name="Kjecyrillic" unicode="&#x40c;" horiz-adv-x="1165" 
d="M217 718v-718h-79v1443h79v-679h5l753 679h107l-778 -697l835 -746h-114l-803 718h-5zM882 1843l-297 -290h-78l279 290h96z" />
    <glyph glyph-name="Ushortcyrillic" unicode="&#x40e;" horiz-adv-x="1138" 
d="M266 -9q-45 0 -70 10v73q27 -9 69 -9q89 0 151 70t127 210l-511 1098h87l463 -1005h6l437 1005h84l-468 -1062q-95 -216 -159 -287t-118 -87q-53 -16 -98 -16zM316 1789h64q0 -84 57 -133t149 -49t149 49t57 133h64q0 -109 -74 -173t-196 -63q-122 -1 -196 63t-74 173z
" />
    <glyph glyph-name="Dzhecyrillic" unicode="&#x40f;" horiz-adv-x="1334" 
d="M629 0h-491v1443h79v-1370h900v1370h79v-1443h-491v-285h-76v285z" />
    <glyph glyph-name="Acyrillic" unicode="&#x410;" horiz-adv-x="1241" 
d="M618 1340l-296 -788h598l-297 788h-5zM1125 0l-180 481h-649l-179 -481h-86l550 1443h80l549 -1443h-85z" />
    <glyph glyph-name="Becyrillic" unicode="&#x411;" horiz-adv-x="1150" 
d="M217 73h379q184 0 290 92q106 91 106 249t-107 250t-289 93h-379v-684zM1072 416q0 -188 -126 -302t-337 -114h-471v1443h811v-73h-732v-540h391q212 0 338 -113t126 -301z" />
    <glyph glyph-name="Vecyrillic" unicode="&#x412;" horiz-adv-x="1185" 
d="M217 72h410q194 0 304 84t110 233q0 148 -115 233t-320 85h-389v-635zM217 1371v-593h376q170 0 271 83t101 219t-96 214t-257 77h-395zM635 0h-497v1443h486q188 0 304 -97t117 -240t-77 -235t-207 -117v-6q158 -17 259 -114t101 -262q0 -164 -130 -268t-356 -104z" />
    <glyph glyph-name="Gecyrillic" unicode="&#x413;" horiz-adv-x="1024" 
d="M217 0h-79v1443h824v-73h-745v-1370z" />
    <glyph glyph-name="Decyrillic" unicode="&#x414;" horiz-adv-x="1372" 
d="M91 0v-286h-75v359h96q137 68 157 399l59 971h833v-1370h187v-359h-76v286h-1181zM228 73h854v1297h-681l-54 -903q-9 -141 -35 -237t-84 -151v-6z" />
    <glyph glyph-name="Iecyrillic" unicode="&#x415;" horiz-adv-x="1067" 
d="M979 73v-73h-841v1443h841v-73h-762v-594h726v-72h-726v-631h762z" />
    <glyph glyph-name="Zhecyrillic" unicode="&#x416;" horiz-adv-x="1804" 
d="M941 718v-718h-80v718h-5l-728 -718h-109l756 745l-702 698h107l676 -679h5v679h80v-679h5l677 679h104l-700 -696l757 -747h-111l-727 718h-5z" />
    <glyph glyph-name="Zecyrillic" unicode="&#x417;" horiz-adv-x="1121" 
d="M366 712v72h172q178 0 282 86t105 219q1 134 -99 220t-259 86t-261 -83t-120 -215h-77q18 165 141 268t316 103t316 -106t123 -250q1 -144 -81 -236t-225 -120v-5q169 -13 263 -110t95 -263q-1 -166 -139 -284t-352 -118t-353 111q-138 111 -148 274h78q9 -131 127 -222
t298 -91t294 98t114 248q0 152 -110 235t-326 83h-174z" />
    <glyph glyph-name="Iicyrillic" unicode="&#x418;" horiz-adv-x="1361" 
d="M1145 0v1311h-7l-922 -1311h-78v1443h78v-1312h8l921 1312h79v-1443h-79z" />
    <glyph glyph-name="Iishortcyrillic" unicode="&#x419;" horiz-adv-x="1361" 
d="M1145 0v1311h-7l-922 -1311h-78v1443h78v-1312h8l921 1312h79v-1443h-79zM411 1789h64q0 -84 57 -133t149 -49t149 49t57 133h64q-1 -109 -75 -173t-195 -63q-121 -1 -195 63t-75 173z" />
    <glyph glyph-name="Kacyrillic" unicode="&#x41a;" horiz-adv-x="1168" 
d="M217 718v-718h-79v1443h79v-679h5l753 679h107l-778 -697l835 -746h-114l-803 718h-5z" />
    <glyph glyph-name="Elcyrillic" unicode="&#x41b;" horiz-adv-x="1288" 
d="M1150 0h-79v1370h-644l-55 -900q-23 -356 -161 -444q-54 -34 -128 -35q-13 0 -58 9v73q24 -8 54 -8q103 0 153 107t62 305l58 966h798v-1443z" />
    <glyph glyph-name="Emcyrillic" unicode="&#x41c;" horiz-adv-x="1624" 
d="M1486 1443v-1443h-76v1279h-4l-556 -1276h-76l-556 1276h-4v-1279h-76v1443h88l583 -1340h6l581 1340h90z" />
    <glyph glyph-name="Encyrillic" unicode="&#x41d;" horiz-adv-x="1347" 
d="M1209 0h-79v705h-913v-705h-79v1443h79v-666h913v666h79v-1443z" />
    <glyph glyph-name="Ocyrillic" unicode="&#x41e;" horiz-adv-x="1440" 
d="M720 1390q-258 0 -410 -180t-152 -488q0 -306 152 -488t410 -181q258 0 410 181t152 488q0 308 -152 488t-410 180zM720 1464q295 0 469 -201t174 -542q1 -341 -173 -541t-470 -201q-296 1 -470 201t-173 541q0 341 174 542t469 201z" />
    <glyph glyph-name="Pecyrillic" unicode="&#x41f;" horiz-adv-x="1334" 
d="M1196 0h-79v1370h-900v-1370h-79v1443h1058v-1443z" />
    <glyph glyph-name="Ercyrillic" unicode="&#x420;" horiz-adv-x="1136" 
d="M217 1371v-717h377q184 0 290 96t106 262t-106 263q-106 96 -290 96h-377zM138 1443h469q211 1 337 -117t127 -314q0 -196 -127 -312q-127 -118 -337 -118h-390v-582h-79v1443z" />
    <glyph glyph-name="Escyrillic" unicode="&#x421;" horiz-adv-x="1345" 
d="M712 -21q-290 -1 -462 203t-173 544q0 340 172 540q172 198 463 198q218 0 380 -134t186 -335h-80q-24 167 -163 281t-323 114q-254 0 -404 -178t-150 -485t150 -491t404 -183q190 -1 326 101t159 268h80q-25 -199 -181 -321t-384 -122z" />
    <glyph glyph-name="Tecyrillic" unicode="&#x422;" horiz-adv-x="1158" 
d="M619 0h-80v1370h-508v73h1096v-73h-508v-1370z" />
    <glyph glyph-name="Ucyrillic" unicode="&#x423;" horiz-adv-x="1138" 
d="M266 -9q-45 0 -70 10v73q27 -9 69 -9q89 0 151 70t127 210l-511 1098h87l463 -1005h6l437 1005h84l-468 -1062q-95 -216 -159 -287t-118 -87q-53 -16 -98 -16z" />
    <glyph glyph-name="Efcyrillic" unicode="&#x424;" horiz-adv-x="1527" 
d="M68 723q0 265 176 421t480 157v155h79v-155q302 -1 479 -157t177 -421q-1 -265 -177 -421t-479 -157v-158h-79v158q-304 1 -480 157t-176 421zM1379 724q0 230 -156 366q-156 137 -420 139v-1012q263 1 419 139t157 368zM147 723q0 -229 157 -367t420 -139v1012
q-264 -1 -420 -139t-157 -367z" />
    <glyph glyph-name="Xacyrillic" unicode="&#x425;" horiz-adv-x="1235" 
d="M52 0l516 722v2l-514 719h95l469 -658h2l471 658h92l-518 -721v-2l515 -720h-95l-468 656h-2l-471 -656h-92z" />
    <glyph glyph-name="Tsecyrillic" unicode="&#x426;" horiz-adv-x="1400" 
d="M1376 -285h-75v285h-1163v1443h79v-1370h893v1370h79v-1370h187v-358z" />
    <glyph glyph-name="Checyrillic" unicode="&#x427;" horiz-adv-x="1226" 
d="M1088 0h-79v737h-4q-63 -65 -169 -113t-248 -48q-213 0 -346 131t-133 347v389h79v-380q0 -193 112 -303t288 -110q222 0 372 135q34 30 49 56v602h79v-1443z" />
    <glyph glyph-name="Shacyrillic" unicode="&#x428;" horiz-adv-x="1770" 
d="M138 0v1443h79v-1370h629v1370h79v-1370h628v1370h79v-1443h-1494z" />
    <glyph glyph-name="Shchacyrillic" unicode="&#x429;" horiz-adv-x="1844" 
d="M1820 -285h-76v285h-1606v1443h79v-1370h629v1370h79v-1370h628v1370h79v-1370h188v-358z" />
    <glyph glyph-name="Hardsigncyrillic" unicode="&#x42a;" horiz-adv-x="1389" 
d="M473 73h374q185 -1 291 95t106 260t-107 260t-290 95h-374v-710zM861 0h-467v1370h-352v73h431v-588h387q210 -1 337 -117t127 -310t-126 -311t-337 -117z" />
    <glyph glyph-name="Yericyrillic" unicode="&#x42b;" horiz-adv-x="1509" 
d="M217 73h374q185 -1 291 95t106 260t-107 260t-290 95h-374v-710zM138 0v1443h79v-588h387q210 -1 337 -117t127 -310t-126 -311t-338 -117h-466zM1371 0h-79v1443h79v-1443z" />
    <glyph glyph-name="Softsigncyrillic" unicode="&#x42c;" horiz-adv-x="1133" 
d="M217 73h374q185 -1 291 95t106 260t-107 260t-290 95h-374v-710zM138 0v1443h79v-588h387q210 -1 337 -117t127 -310t-126 -311t-338 -117h-466z" />
    <glyph glyph-name="Ereversedcyrillic" unicode="&#x42d;" horiz-adv-x="1353" 
d="M649 -21q-234 -1 -394 121t-188 322h80q27 -163 167 -266t335 -103q247 0 395 177t151 475h-736v72h734q-11 281 -158 447t-386 166q-185 0 -330 -114t-172 -281h-80q19 131 101 239t209 169t272 61q291 0 459 -200t168 -544q0 -342 -168 -542t-459 -199z" />
    <glyph glyph-name="IUcyrillic" unicode="&#x42e;" horiz-adv-x="1853" 
d="M1152 1393q-248 0 -396 -182t-148 -489q0 -308 147 -490t397 -182t396 182q147 182 147 490q0 307 -147 489t-396 182zM1154 -24q-288 0 -455 196q-166 196 -171 533h-311v-705h-79v1443h79v-666h312q15 321 181 505t448 185q282 0 450 -200t168 -545q0 -346 -167 -546
t-455 -200z" />
    <glyph glyph-name="IAcyrillic" unicode="&#x42f;" horiz-adv-x="1157" 
d="M90 1039q0 179 125 291t338 113h466v-1443h-79v612h-395l-416 -612h-92l423 622q-166 26 -268 132t-102 285zM940 685v685h-374q-184 0 -290 -92t-106 -251q0 -160 106 -251t290 -91h374z" />
    <glyph glyph-name="acyrillic" unicode="&#x430;" horiz-adv-x="1040" 
d="M442 -14q-148 0 -246 84q-100 84 -100 222q0 136 98 214t287 92l369 27v96q0 141 -82 220t-222 79q-141 0 -228 -67t-106 -189h-75q14 149 125 238q110 89 284 89t278 -98t103 -267v-726h-75v232h-2q-40 -110 -150 -178t-258 -68zM480 55q144 1 257 101t113 243v161
l-359 -27q-155 -11 -236 -73t-81 -168t82 -171q80 -66 224 -66z" />
    <glyph glyph-name="becyrillic" unicode="&#x431;" horiz-adv-x="1125" 
d="M568 51q184 1 294 131q109 130 109 348q-1 218 -109 345t-293 127t-293 -127t-109 -345q1 -218 109 -348t292 -131zM576 1073q216 1 345 -147t129 -396t-131 -400q-131 -150 -356 -150t-349 160t-125 457q1 588 181 764q126 123 367 125t342 46v-68q-85 -46 -354 -48
q-227 -1 -333 -141q-58 -75 -88 -189t-45 -289h4q50 131 158 203t255 73z" />
    <glyph glyph-name="vecyrillic" unicode="&#x432;" horiz-adv-x="984" 
d="M129 0v1077h401q150 0 238 -71t87 -180q0 -109 -56 -177t-148 -85v-4q112 -10 186 -78t74 -181q1 -145 -97 -223t-277 -78h-408zM535 68q300 0 300 234q0 108 -84 164t-233 57h-312v-455h329zM525 1008h-319v-417h308q124 0 194 58t70 156q0 99 -66 151t-187 52z" />
    <glyph glyph-name="gecyrillic" unicode="&#x433;" horiz-adv-x="859" 
d="M804 1009h-598v-1009h-77v1077h675v-68z" />
    <glyph glyph-name="decyrillic" unicode="&#x434;" horiz-adv-x="1188" 
d="M98 -285h-74v353h85q105 70 133 390t44 619h693v-1009h178v-353h-74v285h-985v-285zM902 68v941h-546q-24 -389 -39 -543t-39 -248t-71 -147v-3h695z" />
    <glyph glyph-name="iecyrillic" unicode="&#x435;" horiz-adv-x="1082" 
d="M555 -14q-221 0 -351 146t-129 401q-1 254 129 406t340 152q210 -1 337 -143q126 -142 126 -377v-45h-853v-4q0 -218 109 -342t293 -124q144 0 240 68t119 177h79q-28 -139 -146 -227t-293 -88zM547 1021q-169 0 -276 -118t-116 -311h773q0 191 -106 310t-275 119z" />
    <glyph glyph-name="zhecyrillic" unicode="&#x436;" horiz-adv-x="1424" 
d="M749 535v-535h-77v535h-4l-537 -535h-105l566 560l-542 517h104l514 -495h4v495h77v-495h4l514 495h102l-539 -514l568 -563h-108l-537 535h-4z" />
    <glyph glyph-name="zecyrillic" unicode="&#x437;" horiz-adv-x="939" 
d="M479 -19q-173 0 -281 80t-134 212h78q23 -99 110 -161q86 -62 226 -63q140 1 224 65t83 178q0 114 -84 171q-84 58 -235 58h-173v68h173q133 0 208 59q75 58 75 158q-1 100 -73 158t-200 59q-128 -1 -212 -65q-82 -64 -104 -168h-77q25 133 127 217t266 84t256 -76
t93 -205q0 -94 -61 -162t-156 -86v-5q110 -15 182 -83t72 -179q0 -148 -105 -231t-278 -83z" />
    <glyph glyph-name="iicyrillic" unicode="&#x438;" horiz-adv-x="1103" 
d="M129 0v1077h77v-955h5l686 955h77v-1077h-77v954h-4l-687 -954h-77z" />
    <glyph glyph-name="iishortcyrillic" unicode="&#x439;" horiz-adv-x="1103" 
d="M129 0v1077h77v-955h5l686 955h77v-1077h-77v954h-4l-687 -954h-77zM297 1503h65q0 -91 56 -145t152 -53q96 -1 152 53t56 145h65q0 -117 -74 -185t-199 -68t-199 68t-74 185z" />
    <glyph glyph-name="kacyrillic" unicode="&#x43a;" horiz-adv-x="948" 
d="M206 535v-535h-77v1077h77v-495h4l580 495h104l-605 -516l633 -561h-109l-603 535h-4z" />
    <glyph glyph-name="elcyrillic" unicode="&#x43b;" horiz-adv-x="1091" 
d="M85 -9q-47 0 -62 10v71q17 -9 53 -9t64 20q52 38 78 138q42 161 77 856h667v-1077h-77v1009h-519q-34 -568 -50 -667q-16 -100 -34 -162t-44 -101t-66 -63t-87 -25z" />
    <glyph glyph-name="emcyrillic" unicode="&#x43c;" horiz-adv-x="1382" 
d="M206 0h-77v1077h90l472 -976h4l470 976h87v-1077h-77v929h-5l-448 -921h-62l-449 921h-5v-929z" />
    <glyph glyph-name="encyrillic" unicode="&#x43d;" horiz-adv-x="1092" 
d="M885 0v524h-679v-524h-77v1077h77v-485h679v485h77v-1077h-77z" />
    <glyph glyph-name="ocyrillic" unicode="&#x43e;" horiz-adv-x="1109" 
d="M554 56q182 0 292 130t109 352q0 222 -109 352t-292 130t-292 -130t-109 -352q-1 -222 109 -352t292 -130zM554 -14q-216 0 -348 150t-131 402q-1 252 131 403q132 150 348 150t348 -150q132 -151 132 -403t-132 -402t-348 -150z" />
    <glyph glyph-name="pecyrillic" unicode="&#x43f;" horiz-adv-x="1082" 
d="M875 0v1009h-669v-1009h-77v1077h823v-1077h-77z" />
    <glyph glyph-name="ercyrillic" unicode="&#x440;" horiz-adv-x="1139" 
d="M598 56q172 0 280 134q107 134 107 348t-107 348q-108 134 -280 134t-282 -134t-109 -348q-1 -214 109 -348t282 -134zM608 1091q204 1 330 -153t126 -400t-126 -399t-329 -153q-147 0 -255 84t-144 214h-3v-629h-78v1422h73v-288h3q37 131 147 217t256 85z" />
    <glyph glyph-name="escyrillic" unicode="&#x441;" horiz-adv-x="1037" 
d="M542 1020q-180 0 -288 -130t-108 -352t108 -352t289 -130q128 0 220 63t124 168h78q-33 -137 -147 -219t-276 -82q-218 0 -346 149t-128 403t129 403q129 150 345 150q162 1 278 -89t148 -228h-78q-30 110 -124 178t-224 68z" />
    <glyph glyph-name="tecyrillic" unicode="&#x442;" horiz-adv-x="940" 
d="M900 1077v-68h-391v-1009h-77v1009h-392v68h860z" />
    <glyph glyph-name="ucyrillic" unicode="&#x443;" horiz-adv-x="954" 
d="M203 -354q-24 0 -54 9v69q24 -8 56 -8q72 0 117 45t87 154l27 70l-412 1092h83l369 -1001h2l369 1001h82l-417 -1111q-73 -192 -134 -256t-175 -64z" />
    <glyph glyph-name="efcyrillic" unicode="&#x444;" horiz-adv-x="1379" 
d="M75 536q0 252 157 399q157 148 420 155v375h76v-375q262 -6 419 -154t157 -400t-157 -400t-419 -154v-367h-76v367q-264 6 -420 154t-157 400zM1226 536q0 220 -136 349t-362 135v-969q226 7 362 136t136 349zM153 536q-1 -220 135 -349t364 -136v969q-228 -6 -364 -136
q-136 -128 -135 -348z" />
    <glyph glyph-name="hacyrillic" unicode="&#x445;" horiz-adv-x="917" 
d="M459 485h-2l-347 -485h-90l395 546l-394 531h92l345 -471h3l344 471h92l-394 -529l392 -548h-90z" />
    <glyph glyph-name="tsecyrillic" unicode="&#x446;" horiz-adv-x="1159" 
d="M1127 -285h-74v285h-924v1077h77v-1009h667v1009h77v-1009h177v-353z" />
    <glyph glyph-name="checyrillic" unicode="&#x447;" horiz-adv-x="1008" 
d="M879 0h-77v543h-4q-52 -63 -136 -100t-186 -37q-176 0 -276 106t-100 280v285h77v-275q0 -150 80 -238t206 -88q127 0 211 48t128 118v435h77v-1077z" />
    <glyph glyph-name="shacyrillic" unicode="&#x448;" horiz-adv-x="1568" 
d="M129 0v1077h77v-1009h539v1009h77v-1009h539v1009h77v-1077h-1309z" />
    <glyph glyph-name="shchacyrillic" unicode="&#x449;" horiz-adv-x="1648" 
d="M1616 -285h-74v285h-1413v1077h77v-1009h539v1009h77v-1009h539v1009h77v-1009h178v-353z" />
    <glyph glyph-name="hardsigncyrillic" unicode="&#x44a;" horiz-adv-x="1122" 
d="M681 615h-274v-547h274q134 0 214 74t80 200q-1 124 -81 198t-213 75zM681 0h-351v1009h-290v68h367v-395h274q171 0 271 -92t100 -248t-100 -250q-100 -92 -271 -92z" />
    <glyph glyph-name="yericyrillic" unicode="&#x44b;" horiz-adv-x="1250" 
d="M129 0v1077h77v-395h275q168 0 269 -92t101 -248t-101 -249t-269 -93h-352zM481 615h-275v-547h275q133 0 213 74t80 200q0 124 -80 198t-213 75zM1044 0v1077h77v-1077h-77z" />
    <glyph glyph-name="softsigncyrillic" unicode="&#x44c;" horiz-adv-x="921" 
d="M129 0v1077h77v-395h275q168 0 269 -92t101 -248t-101 -249t-269 -93h-352zM481 615h-275v-547h275q133 0 213 74t80 200q0 124 -80 198t-213 75z" />
    <glyph glyph-name="ereversedcyrillic" unicode="&#x44d;" horiz-adv-x="1046" 
d="M500 56q178 0 284 126t108 342h-572v68h570q-12 196 -116 312t-273 116q-131 0 -227 -68t-125 -178h-78q31 138 149 228t281 89q216 0 343 -150q127 -149 127 -403t-127 -403t-344 -149q-162 0 -278 82t-148 219h78q33 -105 126 -168t222 -63z" />
    <glyph glyph-name="iucyrillic" unicode="&#x44e;" horiz-adv-x="1494" 
d="M950 51q178 0 284 131t107 354q-1 224 -107 354t-284 130t-285 -130q-106 -130 -106 -354t106 -354q107 -130 285 -131zM950 -20q-214 0 -339 146q-126 146 -130 398h-275v-524h-77v1077h77v-485h277q14 231 140 365t334 134t335 -150t127 -406q1 -255 -127 -405
t-342 -150z" />
    <glyph glyph-name="iacyrillic" unicode="&#x44f;" horiz-adv-x="954" 
d="M748 0v434h-274l-325 -434h-92l333 444q-140 16 -221 98t-81 221t100 227t271 87h366v-1077h-77zM459 502h289v507h-289q-134 1 -214 -69t-80 -185q1 -115 81 -184t213 -69z" />
    <glyph glyph-name="iocyrillic" unicode="&#x451;" horiz-adv-x="1082" 
d="M700 1256q-28 0 -48 20t-20 46q0 28 20 48t48 19q28 1 47 -19q20 -20 20 -48t-20 -46q-19 -20 -47 -20zM394 1256q-28 0 -47 20q-20 20 -20 46q0 28 20 48q19 20 47 19q28 1 48 -19t20 -48t-20 -46q-20 -20 -48 -20zM555 -14q-221 0 -351 146t-129 401q-1 254 129 406
t340 152q210 -1 337 -143q126 -142 126 -377v-45h-853v-4q0 -218 109 -342t293 -124q144 0 240 68t119 177h79q-28 -139 -146 -227t-293 -88zM547 1021q-169 0 -276 -118t-116 -311h773q0 191 -106 310t-275 119z" />
    <glyph glyph-name="djecyrillic" unicode="&#x452;" horiz-adv-x="1149" 
d="M1026 -81q0 -145 -68 -209t-211 -65h-29v69h27q108 0 156 48t48 154v770q-1 150 -95 242t-246 92t-254 -106t-103 -277v-637h-78v1272h-142v62h142v186h78v-186h289v-62h-289v-424h4q41 113 141 178t232 65q178 -1 288 -107t110 -284v-781z" />
    <glyph glyph-name="gjecyrillic" unicode="&#x453;" horiz-adv-x="862" 
d="M804 1009h-598v-1009h-77v1077h675v-68zM472 1253h-74l230 303h93z" />
    <glyph glyph-name="ecyrillic" unicode="&#x454;" horiz-adv-x="1061" 
d="M557 -14q-217 0 -346 149t-129 403t129 403q129 150 345 150q164 1 280 -89t146 -228h-78q-30 110 -124 178t-224 68q-169 0 -275 -116t-118 -312h571v-68h-573q1 -216 109 -342t287 -126q128 0 220 63t124 168h79q-34 -137 -148 -219t-275 -82z" />
    <glyph glyph-name="dzecyrillic" unicode="&#x455;" horiz-adv-x="943" 
d="M104 813q0 115 106 197t266 81t264 -89t116 -235h-76q-12 115 -94 185t-208 71t-212 -61t-86 -149t54 -133t172 -74l167 -41q161 -39 231 -104t69 -187q0 -122 -112 -205q-113 -83 -285 -83t-285 91t-122 227h78q11 -108 103 -180t228 -71q136 0 227 63q91 64 91 156
t-57 142t-189 82l-173 42q-139 32 -206 96t-67 179z" />
    <glyph glyph-name="icyrillic" unicode="&#x456;" horiz-adv-x="377" 
d="M188 1341q-26 0 -44 18q-18 17 -18 43t18 44t44 18t44 -18t19 -44q-1 -26 -19 -43q-18 -18 -44 -18zM149 0v1077h78v-1077h-78z" />
    <glyph glyph-name="yicyrillic" unicode="&#x457;" horiz-adv-x="356" 
d="M330 1256q-28 0 -47 20q-20 20 -20 46q0 28 20 48q19 20 47 19q28 1 48 -19t20 -48t-20 -46q-20 -20 -48 -20zM26 1256q-28 0 -48 20t-20 46q0 28 20 48t48 19q28 1 47 -19q20 -20 20 -48t-20 -46q-19 -20 -47 -20zM139 0v1077h78v-1077h-78z" />
    <glyph glyph-name="jecyrillic" unicode="&#x458;" horiz-adv-x="360" 
d="M178 1341q-26 0 -44 18q-18 17 -18 43t18 44t44 18t44 -18t19 -44q-1 -26 -19 -43q-18 -18 -44 -18zM217 1077v-1157q0 -145 -68 -210t-210 -65h-30v69h27q107 0 155 48t48 154v1161h78z" />
    <glyph glyph-name="ljecyrillic" unicode="&#x459;" horiz-adv-x="1677" 
d="M1236 615h-274v-547h274q134 0 214 74t80 200q0 124 -80 198t-214 75zM85 -9q-47 0 -62 10v71q17 -9 53 -9t64 20q52 38 78 138q42 161 77 856h667v-395h274q170 0 270 -92t101 -248q-1 -156 -101 -250q-100 -92 -270 -92h-351v1009h-519q-34 -568 -50 -667
q-16 -100 -34 -162t-44 -101t-66 -63t-87 -25z" />
    <glyph glyph-name="njecyrillic" unicode="&#x45a;" horiz-adv-x="1657" 
d="M865 0v550h-659v-550h-77v1077h77v-459h659v459h77v-457h277q169 0 269 -84t99 -226q1 -142 -99 -226t-269 -84h-354zM1219 552h-277v-484h277q133 0 212 66t79 176t-79 176t-212 66z" />
    <glyph glyph-name="tshecyrillic" unicode="&#x45b;" horiz-adv-x="1149" 
d="M251 848h4q41 113 141 178t232 65q178 -1 288 -107t110 -284v-700h-77v686q-1 150 -95 242t-246 92t-254 -106t-103 -277v-637h-78v1272h-142v62h142v186h78v-186h289v-62h-289v-424z" />
    <glyph glyph-name="kjecyrillic" unicode="&#x45c;" horiz-adv-x="948" 
d="M206 535v-535h-77v1077h77v-495h4l580 495h104l-605 -516l633 -561h-109l-603 535h-4zM745 1556l-249 -303h-74l230 303h93z" />
    <glyph glyph-name="ushortcyrillic" unicode="&#x45e;" horiz-adv-x="954" 
d="M203 -354q-24 0 -54 9v69q24 -8 56 -8q72 0 117 45t87 154l27 70l-412 1092h83l369 -1001h2l369 1001h82l-417 -1111q-73 -192 -134 -256t-175 -64zM220 1503h65q0 -91 56 -145t152 -53q96 -1 152 53t56 145h65q0 -117 -74 -185t-199 -68t-199 68t-74 185z" />
    <glyph glyph-name="dzhecyrillic" unicode="&#x45f;" horiz-adv-x="1082" 
d="M952 0h-374v-285h-74v285h-375v1077h77v-1009h669v1009h77v-1077z" />
    <glyph glyph-name="Geupturncyrillic" unicode="&#x490;" horiz-adv-x="1024" 
d="M217 1370v-1370h-79v1443h749v258h75v-331h-745z" />
    <glyph glyph-name="geupturncyrillic" unicode="&#x491;" horiz-adv-x="859" 
d="M804 1009h-598v-1009h-77v1077h600v257h75v-325z" />
    <glyph glyph-name="baht" unicode="&#xe3f;" horiz-adv-x="1192" 
d="M1075 392q0 -186 -129 -289t-368 -103h-29v-167h-64v167h-368v1443h368v154h64v-154h18q201 0 317 -94t116 -257q0 -132 -77 -218t-208 -110v-7q159 -13 259 -113t101 -252zM557 1371h-8v-582q171 3 271 79t100 212t-98 214q-98 77 -265 77zM196 1371v-582h289v582h-289z
M196 72h289v646h-289v-646zM549 72h21q205 0 315 84t110 238t-116 239t-325 85h-5v-646z" />
    <glyph glyph-name="Aringbelow" unicode="&#x1e00;" horiz-adv-x="1221" 
d="M611 -444q52 0 88 36t36 89t-36 89t-88 36t-88 -36t-36 -89t36 -89t88 -36zM611 -492q-71 0 -121 51t-51 122q1 71 51 122t121 51t121 -51t51 -122q-1 -71 -51 -122t-121 -51zM608 1340l-296 -788h598l-297 788h-5zM1115 0l-180 481h-649l-179 -481h-86l550 1443h80
l549 -1443h-85z" />
    <glyph glyph-name="aringbelow" unicode="&#x1e01;" horiz-adv-x="1030" 
d="M518 -444q52 0 88 36t36 89t-36 89t-88 36t-88 -36t-36 -89t36 -89t88 -36zM518 -492q-72 0 -122 51t-50 122t50 122t122 51t122 -51t50 -122t-50 -122t-122 -51zM432 -14q-148 0 -246 84q-100 84 -100 222q0 136 98 214t287 92l369 27v96q0 141 -82 220t-222 79
q-141 0 -228 -67t-106 -189h-75q14 149 125 238q110 89 284 89t278 -98t103 -267v-726h-75v232h-2q-40 -110 -150 -178t-258 -68zM470 55q144 1 257 101t113 243v161l-359 -27q-155 -11 -236 -73t-81 -168t82 -171q80 -66 224 -66z" />
    <glyph glyph-name="Bdotaccent" unicode="&#x1e02;" horiz-adv-x="1165" 
d="M207 72h410q194 0 304 84t110 233q0 148 -115 233t-320 85h-389v-635zM207 1371v-593h376q170 0 271 83t101 219t-96 214t-257 77h-395zM625 0h-497v1443h486q188 0 304 -97t117 -240t-77 -235t-207 -117v-6q158 -17 259 -114t101 -262q0 -164 -130 -268t-356 -104z
M516 1563q-32 1 -54 23t-23 53q1 31 23 53t54 23q32 -1 54 -23t23 -53q-1 -31 -23 -53t-54 -23z" />
    <glyph glyph-name="bdotaccent" unicode="&#x1e03;" horiz-adv-x="1129" 
d="M600 1020q-172 0 -283 -135q-110 -135 -110 -347q-1 -212 109 -347t283 -135t279 134t107 348q-1 216 -107 349t-278 133zM611 -14q-144 0 -253 82t-151 220h-3v-288h-75v1506h78v-713h3q40 136 148 217t253 81q201 0 327 -153t126 -399q0 -245 -126 -399t-327 -154z
M168 1626q-32 0 -54 22t-23 54q1 32 23 54t54 22t54 -22t23 -54q-1 -32 -23 -54t-54 -22z" />
    <glyph glyph-name="Bdotbelow" unicode="&#x1e04;" horiz-adv-x="1165" 
d="M207 72h410q194 0 304 84t110 233q0 148 -115 233t-320 85h-389v-635zM207 1371v-593h376q170 0 271 83t101 219t-96 214t-257 77h-395zM625 0h-497v1443h486q188 0 304 -97t117 -240t-77 -235t-207 -117v-6q158 -17 259 -114t101 -262q0 -164 -130 -268t-356 -104z
M516 -295q-32 1 -54 23t-23 53q1 31 23 53t54 23q32 -1 54 -23t23 -53q-1 -31 -23 -53t-54 -23z" />
    <glyph glyph-name="bdotbelow" unicode="&#x1e05;" horiz-adv-x="1129" 
d="M600 1020q-172 0 -283 -135q-110 -135 -110 -347q-1 -212 109 -347t283 -135t279 134t107 348q-1 216 -107 349t-278 133zM611 -14q-144 0 -253 82t-151 220h-3v-288h-75v1506h78v-713h3q40 136 148 217t253 81q201 0 327 -153t126 -399q0 -245 -126 -399t-327 -154z
M600 -295q-32 1 -54 23t-23 53q1 31 23 53t54 23q32 -1 54 -23t23 -53q-1 -31 -23 -53t-54 -23z" />
    <glyph glyph-name="Blinebelow" unicode="&#x1e06;" horiz-adv-x="1165" 
d="M806 -205v-57h-580v57h580zM207 72h410q194 0 304 84t110 233q0 148 -115 233t-320 85h-389v-635zM207 1371v-593h376q170 0 271 83t101 219t-96 214t-257 77h-395zM625 0h-497v1443h486q188 0 304 -97t117 -240t-77 -235t-207 -117v-6q158 -17 259 -114t101 -262
q0 -164 -130 -268t-356 -104z" />
    <glyph glyph-name="blinebelow" unicode="&#x1e07;" horiz-adv-x="1129" 
d="M600 1020q-172 0 -283 -135q-110 -135 -110 -347q-1 -212 109 -347t283 -135t279 134t107 348q-1 216 -107 349t-278 133zM611 -14q-144 0 -253 82t-151 220h-3v-288h-75v1506h78v-713h3q40 136 148 217t253 81q201 0 327 -153t126 -399q0 -245 -126 -399t-327 -154z
M890 -205v-57h-580v57h580z" />
    <glyph glyph-name="Ccedillaacute" unicode="&#x1e08;" horiz-adv-x="1326" 
d="M821 -295q0 102 -160 102h-52v43l55 130q-274 14 -436 216t-161 536q0 334 172 534q172 198 463 198q220 0 382 -138t185 -345h-79q-22 173 -162 291t-326 118q-254 0 -404 -178t-150 -485t150 -491t404 -183q192 -1 328 105t160 278h79q-25 -199 -173 -324t-368 -133
l-50 -120q96 0 152 -41q56 -42 55 -114t-61 -120t-144 -48q-84 -1 -140 17v56q42 -17 116 -17t120 32t45 81zM1031 1844l-297 -290h-78l279 290h96z" />
    <glyph glyph-name="ccedillaacute" unicode="&#x1e09;" horiz-adv-x="1028" 
d="M659 -295q0 102 -160 102h-52v43l58 137q-202 12 -321 160t-119 396t129 398t345 150q169 0 287 -96t143 -242h-77q-24 119 -120 193t-233 74q-181 0 -289 -130t-107 -352q-1 -222 107 -352t290 -130q137 0 232 71t119 188h78q-25 -141 -133 -231t-267 -97l-53 -128
q96 0 152 -41q56 -42 55 -114t-61 -120t-144 -48q-84 -1 -140 17v56q42 -17 116 -17t120 32t45 81zM808 1556l-249 -303h-74l230 303h93z" />
    <glyph glyph-name="Ddotaccent" unicode="&#x1e0a;" horiz-adv-x="1332" 
d="M208 1370v-1297h365q295 1 453 169t159 480q0 312 -159 480t-453 168h-365zM128 1443h449q328 0 508 -189q180 -188 180 -532t-180 -533t-508 -189h-449v1443zM552 1563q-32 1 -54 23t-23 53q1 31 23 53t54 23q32 -1 54 -23t23 -53q-1 -31 -23 -53t-54 -23z" />
    <glyph glyph-name="ddotaccent" unicode="&#x1e0b;" horiz-adv-x="1136" 
d="M534 1020q-174 0 -282 -133t-108 -348t108 -349t282 -134t285 135t111 347t-111 348q-111 134 -285 134zM525 -14q-203 0 -331 154t-129 398q1 246 129 400t330 153q146 -1 256 -85t147 -213h2v713h78v-1506h-73v290h-3q-39 -134 -149 -219t-257 -85zM968 1626
q-32 0 -54 22t-23 54q1 32 23 54t54 22t54 -22t23 -54q-1 -32 -23 -54t-54 -22z" />
    <glyph glyph-name="Ddotbelow" unicode="&#x1e0c;" horiz-adv-x="1332" 
d="M208 1370v-1297h365q295 1 453 169t159 480q0 312 -159 480t-453 168h-365zM128 1443h449q328 0 508 -189q180 -188 180 -532t-180 -533t-508 -189h-449v1443zM552 -295q-32 1 -54 23t-23 53q1 31 23 53t54 23q32 -1 54 -23t23 -53q-1 -31 -23 -53t-54 -23z" />
    <glyph glyph-name="ddotbelow" unicode="&#x1e0d;" horiz-adv-x="1136" 
d="M534 1020q-174 0 -282 -133t-108 -348t108 -349t282 -134t285 135t111 347t-111 348q-111 134 -285 134zM525 -14q-203 0 -331 154t-129 398q1 246 129 400t330 153q146 -1 256 -85t147 -213h2v713h78v-1506h-73v290h-3q-39 -134 -149 -219t-257 -85zM546 -295
q-32 1 -54 23t-23 53q1 31 23 53t54 23q32 -1 54 -23t23 -53q-1 -31 -23 -53t-54 -23z" />
    <glyph glyph-name="Dlinebelow" unicode="&#x1e0e;" horiz-adv-x="1332" 
d="M208 1370v-1297h365q295 1 453 169t159 480q0 312 -159 480t-453 168h-365zM128 1443h449q328 0 508 -189q180 -188 180 -532t-180 -533t-508 -189h-449v1443zM842 -205v-57h-580v57h580z" />
    <glyph glyph-name="dlinebelow" unicode="&#x1e0f;" horiz-adv-x="1136" 
d="M534 1020q-174 0 -282 -133t-108 -348t108 -349t282 -134t285 135t111 347t-111 348q-111 134 -285 134zM525 -14q-203 0 -331 154t-129 398q1 246 129 400t330 153q146 -1 256 -85t147 -213h2v713h78v-1506h-73v290h-3q-39 -134 -149 -219t-257 -85zM836 -205v-57h-580
v57h580z" />
    <glyph glyph-name="Dcommaaccent" unicode="&#x1e10;" horiz-adv-x="1332" 
d="M208 1370v-1297h365q295 1 453 169t159 480q0 312 -159 480t-453 168h-365zM128 1443h449q328 0 508 -189q180 -188 180 -532t-180 -533t-508 -189h-449v1443zM495 -493h-63l99 344h78z" />
    <glyph glyph-name="dcommaaccent" unicode="&#x1e11;" horiz-adv-x="1136" 
d="M534 1020q-174 0 -282 -133t-108 -348t108 -349t282 -134t285 135t111 347t-111 348q-111 134 -285 134zM525 -14q-203 0 -331 154t-129 398q1 246 129 400t330 153q146 -1 256 -85t147 -213h2v713h78v-1506h-73v290h-3q-39 -134 -149 -219t-257 -85zM489 -493h-63
l99 344h78z" />
    <glyph glyph-name="Dcircumflexbelow" unicode="&#x1e12;" horiz-adv-x="1332" 
d="M518 -147h68l271 -290h-83l-221 238h-2l-221 -238h-83zM208 1370v-1297h365q295 1 453 169t159 480q0 312 -159 480t-453 168h-365zM128 1443h449q328 0 508 -189q180 -188 180 -532t-180 -533t-508 -189h-449v1443z" />
    <glyph glyph-name="dcircumflexbelow" unicode="&#x1e13;" horiz-adv-x="1136" 
d="M512 -147h68l271 -290h-83l-221 238h-2l-221 -238h-83zM534 1020q-174 0 -282 -133t-108 -348t108 -349t282 -134t285 135t111 347t-111 348q-111 134 -285 134zM525 -14q-203 0 -331 154t-129 398q1 246 129 400t330 153q146 -1 256 -85t147 -213h2v713h78v-1506h-73
v290h-3q-39 -134 -149 -219t-257 -85z" />
    <glyph glyph-name="Emacrongrave" unicode="&#x1e14;" horiz-adv-x="1068" 
d="M969 73v-73h-841v1443h841v-73h-762v-594h726v-72h-726v-631h762zM597 1776h-74l-224 203h91zM258 1622v57h580v-57h-580z" />
    <glyph glyph-name="emacrongrave" unicode="&#x1e15;" horiz-adv-x="1062" 
d="M830 1366v-58h-596v58h596zM594 1526h-74l-244 295h89zM545 -14q-221 0 -351 146t-129 401q-1 254 129 406t340 152q210 -1 337 -143q126 -142 126 -377v-45h-853v-4q0 -218 109 -342t293 -124q144 0 240 68t119 177h79q-28 -139 -146 -227t-293 -88zM537 1021
q-169 0 -276 -118t-116 -311h773q0 191 -106 310t-275 119z" />
    <glyph glyph-name="Emacronacute" unicode="&#x1e16;" horiz-adv-x="1068" 
d="M969 73v-73h-841v1443h841v-73h-762v-594h726v-72h-726v-631h762zM499 1776l207 203h91l-224 -203h-74zM838 1622h-580v57h580v-57z" />
    <glyph glyph-name="emacronacute" unicode="&#x1e17;" horiz-adv-x="1062" 
d="M830 1366v-58h-596v58h596zM480 1526l229 295h89l-244 -295h-74zM545 -14q-221 0 -351 146t-129 401q-1 254 129 406t340 152q210 -1 337 -143q126 -142 126 -377v-45h-853v-4q0 -218 109 -342t293 -124q144 0 240 68t119 177h79q-28 -139 -146 -227t-293 -88zM537 1021
q-169 0 -276 -118t-116 -311h773q0 191 -106 310t-275 119z" />
    <glyph glyph-name="Ecircumflexbelow" unicode="&#x1e18;" horiz-adv-x="1068" 
d="M514 -147h68l271 -290h-83l-221 238h-2l-221 -238h-83zM969 73v-73h-841v1443h841v-73h-762v-594h726v-72h-726v-631h762z" />
    <glyph glyph-name="ecircumflexbelow" unicode="&#x1e19;" horiz-adv-x="1062" 
d="M511 -147h68l271 -290h-83l-221 238h-2l-221 -238h-83zM545 -14q-221 0 -351 146t-129 401q-1 254 129 406t340 152q210 -1 337 -143q126 -142 126 -377v-45h-853v-4q0 -218 109 -342t293 -124q144 0 240 68t119 177h79q-28 -139 -146 -227t-293 -88zM537 1021
q-169 0 -276 -118t-116 -311h773q0 191 -106 310t-275 119z" />
    <glyph glyph-name="Etildebelow" unicode="&#x1e1a;" horiz-adv-x="1068" 
d="M969 73v-73h-841v1443h841v-73h-762v-594h726v-72h-726v-631h762zM324 -355h-60q0 98 38 155t109 57q69 0 127 -58q24 -24 46 -48q53 -58 99 -58q89 0 89 154h61q0 -97 -39 -155t-108 -58q-70 0 -126 58q-24 24 -45 48q-53 58 -100 58q-91 0 -91 -153z" />
    <glyph glyph-name="etildebelow" unicode="&#x1e1b;" horiz-adv-x="1062" 
d="M545 -14q-221 0 -351 146t-129 401q-1 254 129 406t340 152q210 -1 337 -143q126 -142 126 -377v-45h-853v-4q0 -218 109 -342t293 -124q144 0 240 68t119 177h79q-28 -139 -146 -227t-293 -88zM537 1021q-169 0 -276 -118t-116 -311h773q0 191 -106 310t-275 119z
M321 -355h-60q1 98 39 155t108 57t128 -58q24 -24 45 -48q53 -58 99 -58q89 0 89 154h61q0 -97 -39 -155t-108 -58t-125 58q-24 24 -46 48q-53 58 -100 58q-91 0 -91 -153z" />
    <glyph glyph-name="Ecedillabreve" unicode="&#x1e1c;" horiz-adv-x="1068" 
d="M667 -295q0 102 -160 102h-52v43l64 150h-391v1443h841v-73h-762v-594h726v-72h-726v-631h762v-73h-387l-58 -141q96 0 152 -41q56 -42 55 -114t-61 -120t-144 -48q-84 -1 -140 17v56q42 -17 116 -17t120 32t45 81zM756 1789h61q1 -107 -75 -171t-194 -65q-118 1 -194 65
t-75 171h61q0 -77 58 -129t150 -51q92 -1 150 51t58 129z" />
    <glyph glyph-name="ecedillabreve" unicode="&#x1e1d;" horiz-adv-x="1062" 
d="M664 -295q0 102 -160 102h-52v43l58 137q-206 11 -326 157t-119 394q-1 248 129 401q130 152 340 152q210 -1 337 -143q126 -142 126 -377v-45h-853v-4q0 -218 109 -342t293 -124q144 0 240 68t119 177h79q-26 -135 -136 -221t-274 -93l-53 -128q95 0 151 -41
q56 -42 56 -114t-60 -120t-145 -48q-84 -1 -140 17v56q43 -17 117 -17t118 32q46 32 46 81zM537 1021q-169 0 -276 -118t-116 -311h773q0 191 -106 310t-275 119zM747 1503h62q1 -117 -75 -185t-197 -68t-197 68t-75 185h62q0 -88 58 -142t152 -54t152 54t58 142z" />
    <glyph glyph-name="Fdotaccent" unicode="&#x1e1e;" horiz-adv-x="1033" 
d="M207 0h-79v1443h830v-73h-751v-603h691v-72h-691v-695zM543 1563q-33 1 -55 23t-22 53t22 53t55 23q33 -1 55 -23t22 -53t-22 -53t-55 -23z" />
    <glyph glyph-name="fdotaccent" unicode="&#x1e1f;" horiz-adv-x="536" 
d="M413 1412q-164 0 -164 -187v-148h231v-68h-231v-1009h-78v1009h-150v68h150v153q0 250 238 250q49 0 79 -9v-68q-33 9 -75 9zM319 1589q-33 1 -55 23t-22 53t22 53t55 23q33 -1 55 -23t22 -53t-22 -53t-55 -23z" />
    <glyph glyph-name="Gmacron" unicode="&#x1e20;" horiz-adv-x="1358" 
d="M989 1679v-57h-580v57h580zM1281 571q1 -276 -155 -434t-427 -158q-186 0 -330 94q-144 95 -223 265t-79 392q-1 330 173 532t459 202q217 0 375 -120t198 -317h-81q-43 167 -177 265t-315 98q-251 0 -401 -180t-150 -482t152 -488q152 -187 392 -187q240 1 374 137
q136 136 136 369v83h-503v72h582v-143z" />
    <glyph glyph-name="gmacron" unicode="&#x1e21;" horiz-adv-x="1119" 
d="M562 -361q-188 0 -300 68q-113 68 -135 180h81q21 -79 113 -129t244 -50q153 0 255 79t102 215v285h-2q-37 -131 -146 -215t-254 -84q-203 0 -329 152t-126 400q1 246 127 398t329 153q145 0 255 -85t148 -217h3v288h73v-1070q0 -172 -125 -270t-313 -98zM530 59
q172 0 282 134q110 135 110 347t-110 346t-282 134q-174 0 -280 -133t-106 -347t106 -348q106 -133 280 -133zM851 1366v-58h-596v58h596z" />
    <glyph glyph-name="Hdotaccent" unicode="&#x1e22;" horiz-adv-x="1327" 
d="M663 1563q-33 1 -55 23t-22 53t22 53t55 23q33 -1 55 -23t22 -53t-22 -53t-55 -23zM1199 0h-79v705h-913v-705h-79v1443h79v-666h913v666h79v-1443z" />
    <glyph glyph-name="hdotaccent" unicode="&#x1e23;" horiz-adv-x="1095" 
d="M168 1626q-32 0 -54 22t-23 54q1 32 23 54t54 22t54 -22t23 -54q-1 -32 -23 -54t-54 -22zM129 0v1506h78v-666h3q38 114 139 182t236 69q177 0 287 -109t110 -288v-694h-77v685q0 155 -92 245t-248 90t-257 -106t-101 -275v-639h-78z" />
    <glyph glyph-name="Hdotbelow" unicode="&#x1e24;" horiz-adv-x="1327" 
d="M663 -295q-33 1 -55 23t-22 53t22 53t55 23q33 -1 55 -23t22 -53t-22 -53t-55 -23zM1199 0h-79v705h-913v-705h-79v1443h79v-666h913v666h79v-1443z" />
    <glyph glyph-name="hdotbelow" unicode="&#x1e25;" horiz-adv-x="1095" 
d="M554 -295q-32 1 -54 23t-23 53q1 31 23 53t54 23q32 -1 54 -23t23 -53q-1 -31 -23 -53t-54 -23zM129 0v1506h78v-666h3q38 114 139 182t236 69q177 0 287 -109t110 -288v-694h-77v685q0 155 -92 245t-248 90t-257 -106t-101 -275v-639h-78z" />
    <glyph glyph-name="Hdieresis" unicode="&#x1e26;" horiz-adv-x="1327" 
d="M816 1563q-28 -1 -48 19t-20 48t20 46q20 20 48 20t47 -20q20 -20 20 -46q0 -28 -20 -48q-19 -20 -47 -19zM510 1563q-28 -1 -47 19q-20 20 -20 48t20 46q19 20 47 20t48 -20t20 -46q0 -28 -20 -48t-48 -19zM1199 0h-79v705h-913v-705h-79v1443h79v-666h913v666h79v-1443
z" />
    <glyph glyph-name="hdieresis" unicode="&#x1e27;" horiz-adv-x="1095" 
d="M320 1626q-28 0 -47 20q-20 20 -20 46q0 28 20 48q19 20 47 19q28 1 48 -19t20 -48t-20 -46q-20 -20 -48 -20zM16 1626q-28 0 -48 20t-20 46q0 28 20 48t48 19q28 1 47 -19q20 -20 20 -48t-20 -46q-19 -20 -47 -20zM129 0v1506h78v-666h3q38 114 139 182t236 69
q177 0 287 -109t110 -288v-694h-77v685q0 155 -92 245t-248 90t-257 -106t-101 -275v-639h-78z" />
    <glyph glyph-name="Hcedilla" unicode="&#x1e28;" horiz-adv-x="1327" 
d="M286 -295q0 102 -160 102h-52v43l64 150h-10v1443h79v-666h913v666h79v-1443h-79v705h-913v-705h-6l-58 -141q95 0 151 -41q56 -42 56 -114t-60 -120t-145 -48q-84 -1 -140 17v56q43 -17 117 -17t118 32q46 32 46 81z" />
    <glyph glyph-name="hcedilla" unicode="&#x1e29;" horiz-adv-x="1095" 
d="M287 -295q0 102 -160 102h-52v43l64 150h-10v1506h78v-666h3q38 114 139 182t236 69q177 0 287 -109t110 -288v-694h-77v685q0 155 -92 245t-248 90t-257 -106t-101 -275v-639h-5l-58 -141q96 0 152 -41q56 -42 55 -114t-61 -120t-144 -48q-84 -1 -140 17v56
q42 -17 116 -17t120 32t45 81z" />
    <glyph glyph-name="Hbrevebelow" unicode="&#x1e2a;" horiz-adv-x="1327" 
d="M1199 0h-79v705h-913v-705h-79v1443h79v-666h913v666h79v-1443zM394 -155h61q0 -77 58 -129t150 -51q92 -1 150 51t58 129h61q0 -107 -76 -171t-193 -65q-117 1 -193 65t-76 171z" />
    <glyph glyph-name="hbrevebelow" unicode="&#x1e2b;" horiz-adv-x="1095" 
d="M129 0v1506h78v-666h3q38 114 139 182t236 69q177 0 287 -109t110 -288v-694h-77v685q0 155 -92 245t-248 90t-257 -106t-101 -275v-639h-78zM285 -155h61q0 -77 58 -129t150 -51q92 -1 150 51t58 129h61q1 -107 -75 -171t-194 -65q-118 1 -194 65t-75 171z" />
    <glyph glyph-name="Itildebelow" unicode="&#x1e2c;" horiz-adv-x="335" 
d="M34 -202q-91 0 -91 -153h-60q1 98 39 155t108 57t128 -58q24 -24 45 -48q53 -58 99 -58q89 0 89 154h61q0 -97 -39 -155t-108 -58t-125 58q-24 24 -46 48q-53 58 -100 58zM207 0h-79v1443h79v-1443z" />
    <glyph glyph-name="itildebelow" unicode="&#x1e2d;" horiz-adv-x="336" 
d="M35 -202q-91 0 -91 -153h-60q0 98 38 155t109 57q69 0 127 -58q24 -24 46 -48q53 -58 99 -58q89 0 89 154h61q0 -97 -39 -155t-108 -58q-70 0 -126 58q-24 24 -45 48q-53 58 -100 58zM168 1341q-26 0 -44 18q-18 17 -18 43t18 44t44 18t44 -18t19 -44q-1 -26 -19 -43
q-18 -18 -44 -18zM129 0v1077h78v-1077h-78z" />
    <glyph glyph-name="Idieresisacute" unicode="&#x1e2e;" horiz-adv-x="335" 
d="M316 1565q-26 1 -44 19t-19 44q1 26 19 44t44 19q26 -1 45 -19t19 -44t-19 -44t-45 -19zM18 1565q-26 1 -45 19t-19 44t19 44t45 19q26 -1 44 -19t19 -44q-1 -26 -19 -44t-44 -19zM118 1776l207 203h91l-224 -203h-74zM207 0h-79v1443h79v-1443z" />
    <glyph glyph-name="idieresisacute" unicode="&#x1e2f;" horiz-adv-x="336" 
d="M129 0v1077h78v-1077h-78zM320 1256q-28 0 -47 20q-20 20 -20 46q0 28 20 48q19 20 47 19q28 1 48 -19t20 -48t-20 -46q-20 -20 -48 -20zM16 1256q-28 0 -48 20t-20 46q0 28 20 48t48 19q28 1 47 -19q20 -20 20 -48t-20 -46q-19 -20 -47 -20zM121 1530l222 284h93
l-240 -284h-75z" />
    <glyph glyph-name="Kacute" unicode="&#x1e30;" horiz-adv-x="1142" 
d="M207 0h-79v1443h79v-806h6l750 806h101l-594 -636l660 -807h-101l-615 751l-207 -223v-528zM576 1553h-78l279 290h96z" />
    <glyph glyph-name="kacute" unicode="&#x1e31;" horiz-adv-x="938" 
d="M207 0h-78v1506h78v-982h1l609 553h102l-507 -464l511 -613h-95l-474 565l-147 -132v-433zM200 1616h-78l279 290h96z" />
    <glyph glyph-name="Kdotbelow" unicode="&#x1e32;" horiz-adv-x="1142" 
d="M207 0h-79v1443h79v-806h6l750 806h101l-594 -636l660 -807h-101l-615 751l-207 -223v-528zM544 -295q-32 1 -54 23t-23 53q1 31 23 53t54 23q32 -1 54 -23t23 -53q-1 -31 -23 -53t-54 -23z" />
    <glyph glyph-name="kdotbelow" unicode="&#x1e33;" horiz-adv-x="938" 
d="M207 0h-78v1506h78v-982h1l609 553h102l-507 -464l511 -613h-95l-474 565l-147 -132v-433zM487 -295q-33 1 -55 23t-22 53t22 53t55 23q33 -1 55 -23t22 -53t-22 -53t-55 -23z" />
    <glyph glyph-name="Klinebelow" unicode="&#x1e34;" horiz-adv-x="1142" 
d="M834 -205v-57h-580v57h580zM207 0h-79v1443h79v-806h6l750 806h101l-594 -636l660 -807h-101l-615 751l-207 -223v-528z" />
    <glyph glyph-name="klinebelow" unicode="&#x1e35;" horiz-adv-x="938" 
d="M777 -205v-57h-580v57h580zM207 0h-78v1506h78v-982h1l609 553h102l-507 -464l511 -613h-95l-474 565l-147 -132v-433z" />
    <glyph glyph-name="Ldotbelow" unicode="&#x1e36;" horiz-adv-x="1024" 
d="M964 73v-73h-836v1443h79v-1370h757zM546 -295q-32 1 -54 23t-23 53q1 31 23 53t54 23q32 -1 54 -23t23 -53q-1 -31 -23 -53t-54 -23z" />
    <glyph glyph-name="ldotbelow" unicode="&#x1e37;" horiz-adv-x="336" 
d="M129 0v1506h78v-1506h-78zM168 -295q-32 1 -54 23t-23 53q1 31 23 53t54 23q32 -1 54 -23t23 -53q-1 -31 -23 -53t-54 -23z" />
    <glyph glyph-name="Ldotbelowmacron" unicode="&#x1e38;" horiz-adv-x="1024" 
d="M457 1679v-57h-580v57h580zM964 73v-73h-836v1443h79v-1370h757zM546 -295q-32 1 -54 23t-23 53q1 31 23 53t54 23q32 -1 54 -23t23 -53q-1 -31 -23 -53t-54 -23z" />
    <glyph glyph-name="ldotbelowmacron" unicode="&#x1e39;" horiz-adv-x="336" 
d="M458 1742v-57h-580v57h580zM129 0v1506h78v-1506h-78zM168 -295q-32 1 -54 23t-23 53q1 31 23 53t54 23q32 -1 54 -23t23 -53q-1 -31 -23 -53t-54 -23z" />
    <glyph glyph-name="Llinebelow" unicode="&#x1e3a;" horiz-adv-x="1024" 
d="M964 73v-73h-836v1443h79v-1370h757zM836 -205v-57h-580v57h580z" />
    <glyph glyph-name="llinebelow" unicode="&#x1e3b;" horiz-adv-x="336" 
d="M129 0v1506h78v-1506h-78zM458 -205v-57h-580v57h580z" />
    <glyph glyph-name="Lcircumflexbelow" unicode="&#x1e3c;" horiz-adv-x="1024" 
d="M512 -147h68l271 -290h-83l-221 238h-2l-221 -238h-83zM964 73v-73h-836v1443h79v-1370h757z" />
    <glyph glyph-name="lcircumflexbelow" unicode="&#x1e3d;" horiz-adv-x="336" 
d="M134 -147h68l271 -290h-83l-221 238h-2l-221 -238h-83zM129 0v1506h78v-1506h-78z" />
    <glyph glyph-name="Macute" unicode="&#x1e3e;" horiz-adv-x="1604" 
d="M835 1553h-78l279 290h96zM1476 1443v-1443h-76v1279h-4l-556 -1276h-76l-556 1276h-4v-1279h-76v1443h88l583 -1340h6l581 1340h90z" />
    <glyph glyph-name="macute" unicode="&#x1e3f;" horiz-adv-x="1645" 
d="M119 0v1077h73v-237h3q31 112 116 182t209 69t210 -73q87 -72 113 -183h2q31 109 123 183t234 73q142 0 236 -100t94 -267v-724h-78v707q0 145 -76 229t-210 84t-219 -98t-85 -255v-667h-77v710q0 138 -79 224q-80 86 -210 86t-216 -104t-85 -275v-641h-78zM846 1253h-74
l230 303h93z" />
    <glyph glyph-name="Mdotaccent" unicode="&#x1e40;" horiz-adv-x="1604" 
d="M803 1563q-33 1 -55 23t-22 53t22 53t55 23q33 -1 55 -23t22 -53t-22 -53t-55 -23zM1476 1443v-1443h-76v1279h-4l-556 -1276h-76l-556 1276h-4v-1279h-76v1443h88l583 -1340h6l581 1340h90z" />
    <glyph glyph-name="mdotaccent" unicode="&#x1e41;" horiz-adv-x="1645" 
d="M119 0v1077h73v-237h3q31 112 116 182t209 69t210 -73q87 -72 113 -183h2q31 109 123 183t234 73q142 0 236 -100t94 -267v-724h-78v707q0 145 -76 229t-210 84t-219 -98t-85 -255v-667h-77v710q0 138 -79 224q-80 86 -210 86t-216 -104t-85 -275v-641h-78zM826 1256
q-32 0 -55 23t-23 54t23 54t55 23t55 -23t23 -54t-23 -54t-55 -23z" />
    <glyph glyph-name="Mdotbelow" unicode="&#x1e42;" horiz-adv-x="1604" 
d="M803 -295q-33 1 -55 23t-22 53t22 53t55 23q33 -1 55 -23t22 -53t-22 -53t-55 -23zM1476 1443v-1443h-76v1279h-4l-556 -1276h-76l-556 1276h-4v-1279h-76v1443h88l583 -1340h6l581 1340h90z" />
    <glyph glyph-name="mdotbelow" unicode="&#x1e43;" horiz-adv-x="1645" 
d="M119 0v1077h73v-237h3q31 112 116 182t209 69t210 -73q87 -72 113 -183h2q31 109 123 183t234 73q142 0 236 -100t94 -267v-724h-78v707q0 145 -76 229t-210 84t-219 -98t-85 -255v-667h-77v710q0 138 -79 224q-80 86 -210 86t-216 -104t-85 -275v-641h-78zM826 -295
q-32 1 -54 23t-23 53q1 31 23 53t54 23q32 -1 54 -23t23 -53q-1 -31 -23 -53t-54 -23z" />
    <glyph glyph-name="Ndotaccent" unicode="&#x1e44;" horiz-adv-x="1341" 
d="M206 0h-78v1443h82l919 -1299h6v1299h79v-1443h-75l-927 1307h-6v-1307zM671 1563q-33 1 -55 23t-22 53t22 53t55 23q33 -1 55 -23t22 -53t-22 -53t-55 -23z" />
    <glyph glyph-name="ndotaccent" unicode="&#x1e45;" horiz-adv-x="1080" 
d="M119 0v1077h73v-237h3q39 114 139 182t236 69q179 1 288 -107t109 -289v-695h-78v686q0 154 -92 244t-247 90t-254 -106t-99 -273v-641h-78zM546 1256q-32 0 -55 23t-23 54t23 54t55 23t55 -23t23 -54t-23 -54t-55 -23z" />
    <glyph glyph-name="Ndotbelow" unicode="&#x1e46;" horiz-adv-x="1341" 
d="M206 0h-78v1443h82l919 -1299h6v1299h79v-1443h-75l-927 1307h-6v-1307zM671 -295q-33 1 -55 23t-22 53t22 53t55 23q33 -1 55 -23t22 -53t-22 -53t-55 -23z" />
    <glyph glyph-name="ndotbelow" unicode="&#x1e47;" horiz-adv-x="1080" 
d="M119 0v1077h73v-237h3q39 114 139 182t236 69q179 1 288 -107t109 -289v-695h-78v686q0 154 -92 244t-247 90t-254 -106t-99 -273v-641h-78zM531 -295q-33 1 -55 23t-22 53t22 53t55 23q33 -1 55 -23t22 -53t-22 -53t-55 -23z" />
    <glyph glyph-name="Nlinebelow" unicode="&#x1e48;" horiz-adv-x="1341" 
d="M206 0h-78v1443h82l919 -1299h6v1299h79v-1443h-75l-927 1307h-6v-1307zM961 -205v-57h-580v57h580z" />
    <glyph glyph-name="nlinebelow" unicode="&#x1e49;" horiz-adv-x="1080" 
d="M119 0v1077h73v-237h3q39 114 139 182t236 69q179 1 288 -107t109 -289v-695h-78v686q0 154 -92 244t-247 90t-254 -106t-99 -273v-641h-78zM821 -205v-57h-580v57h580z" />
    <glyph glyph-name="Ncircumflexbelow" unicode="&#x1e4a;" horiz-adv-x="1341" 
d="M637 -147h68l271 -290h-83l-221 238h-2l-221 -238h-83zM206 0h-78v1443h82l919 -1299h6v1299h79v-1443h-75l-927 1307h-6v-1307z" />
    <glyph glyph-name="ncircumflexbelow" unicode="&#x1e4b;" horiz-adv-x="1080" 
d="M497 -147h68l271 -290h-83l-221 238h-2l-221 -238h-83zM119 0v1077h73v-237h3q39 114 139 182t236 69q179 1 288 -107t109 -289v-695h-78v686q0 154 -92 244t-247 90t-254 -106t-99 -273v-641h-78z" />
    <glyph glyph-name="Otildeacute" unicode="&#x1e4c;" horiz-adv-x="1420" 
d="M704 1805l165 174h91l-183 -174h-73zM830 1607q86 0 86 132h61q0 -87 -39 -139t-105 -52t-115 53q-20 22 -38 44q-45 53 -89 53q-88 0 -88 -132h-61q0 87 38 139t107 52q68 0 116 -53q21 -22 39 -44q44 -53 88 -53zM710 1390q-258 0 -410 -180t-152 -488q0 -306 152 -488
t410 -181q258 0 410 181t152 488q0 308 -152 488t-410 180zM710 1464q295 0 469 -201t174 -542q1 -341 -173 -541t-470 -201q-296 1 -470 201t-173 541q0 341 174 542t469 201z" />
    <glyph glyph-name="otildeacute" unicode="&#x1e4d;" horiz-adv-x="1089" 
d="M544 56q182 0 292 130t109 352q0 222 -109 352t-292 130t-292 -130t-109 -352q-1 -222 109 -352t292 -130zM544 -14q-216 0 -348 150t-131 402q-1 252 131 403q132 150 348 150t348 -150q132 -151 132 -403t-132 -402t-348 -150zM412 1400q-91 0 -91 -153h-60
q1 98 39 155t108 57t128 -58q24 -24 45 -48q53 -58 99 -58q89 0 89 154h61q0 -97 -39 -155t-108 -58t-125 58q-24 24 -46 48q-53 58 -100 58zM490 1554l157 266h83l-172 -266h-68z" />
    <glyph glyph-name="Otildedieresis" unicode="&#x1e4e;" horiz-adv-x="1420" 
d="M710 1390q-258 0 -410 -180t-152 -488q0 -306 152 -488t410 -181q258 0 410 181t152 488q0 308 -152 488t-410 180zM710 1464q295 0 469 -201t174 -542q1 -341 -173 -541t-470 -201q-296 1 -470 201t-173 541q0 341 174 542t469 201zM859 1982q26 0 45 -18t19 -45
t-19 -45t-45 -18q-27 0 -45 18t-18 45t18 45t45 18zM561 1982q27 0 45 -18t18 -45t-18 -45t-45 -18q-26 0 -45 18t-19 45t19 45t45 18zM831 1607q86 0 86 132h60q0 -87 -39 -139t-105 -52t-114 53q-21 22 -39 44q-45 53 -89 53q-88 0 -88 -132h-60q1 87 39 139t105 52
t117 -53q20 -22 38 -44q44 -53 89 -53z" />
    <glyph glyph-name="otildedieresis" unicode="&#x1e4f;" horiz-adv-x="1089" 
d="M544 56q182 0 292 130t109 352q0 222 -109 352t-292 130t-292 -130t-109 -352q-1 -222 109 -352t292 -130zM544 -14q-216 0 -348 150t-131 402q-1 252 131 403q132 150 348 150t348 -150q132 -151 132 -403t-132 -402t-348 -150zM412 1400q-91 0 -91 -153h-60
q1 98 39 155t108 57t128 -58q24 -24 45 -48q53 -58 99 -58q89 0 89 154h61q0 -97 -39 -155t-108 -58t-125 58q-24 24 -46 48q-53 58 -100 58zM693 1554q-27 0 -47 19t-19 45q-1 26 19 46q20 19 47 19t47 -19q20 -20 19 -46q1 -26 -19 -45t-47 -19zM395 1554q-27 0 -47 19
t-19 45q-1 26 19 46q20 19 47 19t47 -19q20 -20 19 -46q1 -26 -19 -45t-47 -19z" />
    <glyph glyph-name="Omacrongrave" unicode="&#x1e50;" horiz-adv-x="1420" 
d="M710 1390q-258 0 -410 -180t-152 -488q0 -306 152 -488t410 -181q258 0 410 181t152 488q0 308 -152 488t-410 180zM710 1464q295 0 469 -201t174 -542q1 -341 -173 -541t-470 -201q-296 1 -470 201t-173 541q0 341 174 542t469 201zM759 1776h-74l-224 203h91zM420 1622
v57h580v-57h-580z" />
    <glyph glyph-name="omacrongrave" unicode="&#x1e51;" horiz-adv-x="1089" 
d="M837 1365v-58h-596v58h596zM601 1525h-74l-244 295h89zM544 56q182 0 292 130t109 352q0 222 -109 352t-292 130t-292 -130t-109 -352q-1 -222 109 -352t292 -130zM544 -14q-216 0 -348 150t-131 402q-1 252 131 403q132 150 348 150t348 -150q132 -151 132 -403
t-132 -402t-348 -150z" />
    <glyph glyph-name="Omacronacute" unicode="&#x1e52;" horiz-adv-x="1420" 
d="M710 1390q-258 0 -410 -180t-152 -488q0 -306 152 -488t410 -181q258 0 410 181t152 488q0 308 -152 488t-410 180zM710 1464q295 0 469 -201t174 -542q1 -341 -173 -541t-470 -201q-296 1 -470 201t-173 541q0 341 174 542t469 201zM661 1776l207 203h91l-224 -203h-74z
M1000 1622h-580v57h580v-57z" />
    <glyph glyph-name="omacronacute" unicode="&#x1e53;" horiz-adv-x="1089" 
d="M837 1365v-58h-596v58h596zM487 1525l229 295h89l-244 -295h-74zM544 56q182 0 292 130t109 352q0 222 -109 352t-292 130t-292 -130t-109 -352q-1 -222 109 -352t292 -130zM544 -14q-216 0 -348 150t-131 402q-1 252 131 403q132 150 348 150t348 -150
q132 -151 132 -403t-132 -402t-348 -150z" />
    <glyph glyph-name="Pacute" unicode="&#x1e54;" horiz-adv-x="1116" 
d="M207 1371v-717h377q184 0 290 96t106 262t-106 263q-106 96 -290 96h-377zM128 1443h469q211 1 337 -117t127 -314q0 -196 -127 -312q-127 -118 -337 -118h-390v-582h-79v1443zM525 1553h-78l279 290h96z" />
    <glyph glyph-name="pacute" unicode="&#x1e55;" horiz-adv-x="1119" 
d="M608 1253h-74l230 303h93zM588 56q172 0 280 134q107 134 107 348t-107 348q-108 134 -280 134t-282 -134t-109 -348q-1 -214 109 -348t282 -134zM598 1091q204 1 330 -153t126 -400t-126 -399t-329 -153q-147 0 -255 84t-144 214h-3v-629h-78v1422h73v-288h3
q37 131 147 217t256 85z" />
    <glyph glyph-name="Pdotaccent" unicode="&#x1e56;" horiz-adv-x="1116" 
d="M493 1563q-33 1 -55 23t-22 53t22 53t55 23q33 -1 55 -23t22 -53t-22 -53t-55 -23zM207 1371v-717h377q184 0 290 96t106 262t-106 263q-106 96 -290 96h-377zM128 1443h469q211 1 337 -117t127 -314q0 -196 -127 -312q-127 -118 -337 -118h-390v-582h-79v1443z" />
    <glyph glyph-name="pdotaccent" unicode="&#x1e57;" horiz-adv-x="1119" 
d="M588 1256q-32 0 -55 23t-23 54t23 54t55 23t55 -23t23 -54t-23 -54t-55 -23zM588 56q172 0 280 134q107 134 107 348t-107 348q-108 134 -280 134t-282 -134t-109 -348q-1 -214 109 -348t282 -134zM598 1091q204 1 330 -153t126 -400t-126 -399t-329 -153q-147 0 -255 84
t-144 214h-3v-629h-78v1422h73v-288h3q37 131 147 217t256 85z" />
    <glyph glyph-name="Rdotaccent" unicode="&#x1e58;" horiz-adv-x="1150" 
d="M207 616v-616h-79v1443h471q215 -1 339 -111t124 -301q0 -157 -88 -263t-246 -137l371 -631h-93l-361 619q-19 -3 -51 -3h-387zM207 1371v-683h387q181 0 284 91t103 251q1 160 -103 250t-286 91h-385zM495 1563q-33 1 -55 23t-22 53t22 53t55 23q33 -1 55 -23t22 -53
t-22 -53t-55 -23z" />
    <glyph glyph-name="rdotaccent" unicode="&#x1e59;" horiz-adv-x="614" 
d="M342 1256q-32 0 -55 23t-23 54t23 54t55 23t55 -23t23 -54t-23 -54t-55 -23zM119 0v1077h73v-213h3q33 110 107 168t182 59q53 0 98 -18v-78q-44 22 -110 22q-125 0 -200 -97t-75 -251v-669h-78z" />
    <glyph glyph-name="Rdotbelow" unicode="&#x1e5a;" horiz-adv-x="1150" 
d="M207 616v-616h-79v1443h471q215 -1 339 -111t124 -301q0 -157 -88 -263t-246 -137l371 -631h-93l-361 619q-19 -3 -51 -3h-387zM207 1371v-683h387q181 0 284 91t103 251q1 160 -103 250t-286 91h-385zM495 -295q-33 1 -55 23t-22 53t22 53t55 23q33 -1 55 -23t22 -53
t-22 -53t-55 -23z" />
    <glyph glyph-name="rdotbelow" unicode="&#x1e5b;" horiz-adv-x="614" 
d="M119 0v1077h73v-213h3q33 110 107 168t182 59q53 0 98 -18v-78q-44 22 -110 22q-125 0 -200 -97t-75 -251v-669h-78zM158 -295q-32 1 -54 23t-23 53q1 31 23 53t54 23q32 -1 54 -23t23 -53q-1 -31 -23 -53t-54 -23z" />
    <glyph glyph-name="Rdotbelowmacron" unicode="&#x1e5c;" horiz-adv-x="1150" 
d="M785 1679v-57h-580v57h580zM207 616v-616h-79v1443h471q215 -1 339 -111t124 -301q0 -157 -88 -263t-246 -137l371 -631h-93l-361 619q-19 -3 -51 -3h-387zM207 1371v-683h387q181 0 284 91t103 251q1 160 -103 250t-286 91h-385zM495 -295q-33 1 -55 23t-22 53t22 53
t55 23q33 -1 55 -23t22 -53t-22 -53t-55 -23z" />
    <glyph glyph-name="rdotbelowmacron" unicode="&#x1e5d;" horiz-adv-x="614" 
d="M635 1366v-58h-596v58h596zM119 0v1077h73v-213h3q33 110 107 168t182 59q53 0 98 -18v-78q-44 22 -110 22q-125 0 -200 -97t-75 -251v-669h-78zM158 -295q-32 1 -54 23t-23 53q1 31 23 53t54 23q32 -1 54 -23t23 -53q-1 -31 -23 -53t-54 -23z" />
    <glyph glyph-name="Rlinebelow" unicode="&#x1e5e;" horiz-adv-x="1150" 
d="M785 -205v-57h-580v57h580zM207 616v-616h-79v1443h471q215 -1 339 -111t124 -301q0 -157 -88 -263t-246 -137l371 -631h-93l-361 619q-19 -3 -51 -3h-387zM207 1371v-683h387q181 0 284 91t103 251q1 160 -103 250t-286 91h-385z" />
    </font>
</defs>
</svg>
