<?xml version="1.0" standalone="no"?>
<!DOCTYPE svg PUBLIC "-//W3C//DTD SVG 1.1//EN" "http://www.w3.org/Graphics/SVG/1.1/DTD/svg11.dtd" >
<svg xmlns="http://www.w3.org/2000/svg">
<metadata>
Created by FontPrep 20130207 at Mon Oct 26 22:35:08 2015
 By Alex
(c) 2014 Apple Inc. All rights reserved.
</metadata>
<defs>
<font id="1a31f86f60d7c122b902c21955e8cb36" horiz-adv-x='1024' >
  <font-face 
    font-family="SFUIDisplay-Ultralight"
    font-weight="100"
    font-stretch="normal"
    units-per-em="2048"
    panose-1="0 0 2 0 0 0 0 0 0 0"
    ascent="1638"
    descent="-410"
    x-height="1076"
    cap-height="1443"
    bbox="-467 -833 2396 2083"
    underline-thickness="50"
    underline-position="-25"
    unicode-range="U+0020-FB02"
  />
<missing-glyph horiz-adv-x="1293" 
d="M632 1018q56 0 88 -30q33 -30 33 -74q-1 -44 -21 -72t-86 -74t-91 -97q-26 -51 -22 -140h166v15q0 48 19 76t90 78t101 101q30 50 30 116q0 113 -81 181q-82 68 -220 69q-138 0 -220 -76t-79 -203h169q0 58 34 94t90 36zM501 314q-1 -48 33 -78t88 -30t88 30t33 78
q1 48 -33 78t-88 29q-54 0 -88 -30q-33 -29 -33 -77zM120 0v1365h1053v-1365h-1053z" />
    <glyph glyph-name=".notdef" horiz-adv-x="1293" 
d="M632 1018q56 0 88 -30q33 -30 33 -74q-1 -44 -21 -72t-86 -74t-91 -97q-26 -51 -22 -140h166v15q0 48 19 76t90 78t101 101q30 50 30 116q0 113 -81 181q-82 68 -220 69q-138 0 -220 -76t-79 -203h169q0 58 34 94t90 36zM501 314q-1 -48 33 -78t88 -30t88 30t33 78
q1 48 -33 78t-88 29q-54 0 -88 -30q-33 -29 -33 -77zM120 0v1365h1053v-1365h-1053z" />
    <glyph glyph-name=".null" 
 />
    <glyph glyph-name="nonmarkingreturn" 
 />
    <glyph glyph-name="space" unicode=" " horiz-adv-x="381" 
 />
    <glyph glyph-name="exclam" unicode="!" horiz-adv-x="500" 
d="M250 -10q-24 0 -41 17t-17 41t17 40t41 17q24 -1 41 -17t17 -40t-17 -41t-41 -17zM223 1443h54l-1 -1032h-52z" />
    <glyph glyph-name="quotedbl" unicode="&#x22;" horiz-adv-x="494" 
d="M395 998h-49v445h49v-445zM147 998h-48v445h48v-445z" />
    <glyph glyph-name="numbersign" unicode="#" horiz-adv-x="1229" 
d="M446 951l-91 -455h405l90 455h-404zM1181 951h-282l-91 -454h269l-9 -46h-269l-95 -451h-49l95 451h-405l-94 -451h-49l96 451h-257l8 46h258l91 454h-244l8 46h244l94 453h48l-94 -453h405l94 453h48l-94 -453h283z" />
    <glyph glyph-name="dollar" unicode="$" horiz-adv-x="1179" 
d="M166 1097q0 -129 89 -200t310 -124v644q-171 -5 -285 -98t-114 -222zM1037 366q1 136 -95 214t-333 134v-687q181 6 305 104t123 235zM609 -176h-44v156q-202 7 -341 122t-143 280h49q7 -144 133 -246t302 -109v696l-5 2q-245 59 -344 140t-99 231q1 150 127 256
q126 105 321 111v133h44v-133q183 -7 313 -111t135 -249h-50q-5 123 -121 215t-277 99v-655l6 -1q261 -60 367 -148q106 -87 105 -247q0 -160 -135 -269t-343 -117v-156z" />
    <glyph glyph-name="percent" unicode="%" horiz-adv-x="1395" 
d="M182 0h-59l1081 1443h59zM288 811q90 0 140 81q50 82 51 218q-1 136 -51 218t-139 81q-89 1 -140 -81t-51 -218t50 -218t140 -81zM528 1110q0 -156 -64 -248t-175 -93q-111 1 -175 93t-64 248t64 248t175 93q111 -1 175 -93t64 -248zM1106 32q90 0 140 81t50 217t-50 218
t-140 82q-89 0 -140 -82t-51 -217q1 -135 51 -217t140 -82zM1345 331q1 -157 -63 -249t-176 -92t-176 92t-63 249q-1 157 63 249t176 92t176 -92t63 -249z" />
    <glyph glyph-name="ampersand" unicode="&#x26;" horiz-adv-x="1375" 
d="M849 1167q0 105 -81 177q-82 72 -198 73t-202 -75t-86 -178q0 -71 46 -143t178 -205q343 164 343 351zM121 360q-1 -142 111 -238t288 -96q122 0 252 62t212 157l-490 514q-119 -64 -120 -64q-253 -135 -253 -335zM519 -20q-199 0 -323 107t-124 274q0 224 273 371
q1 0 30 16t58 30l29 16q-132 132 -180 211t-49 160q0 125 98 211t239 86q140 0 234 -84t94 -198q0 -115 -85 -208t-276 -189l478 -503q64 96 102 214t38 219v88h49v-87q0 -110 -42 -238t-112 -227l244 -249h-65l-209 215q-94 -109 -228 -172t-273 -63z" />
    <glyph glyph-name="quotesingle" unicode="'" horiz-adv-x="246" 
d="M147 998h-48v445h48v-445z" />
    <glyph glyph-name="parenleft" unicode="(" horiz-adv-x="550" 
d="M147 597q0 498 269 846h53q-127 -169 -199 -389t-73 -456q0 -236 72 -457t200 -392h-54q-128 165 -198 383t-70 465z" />
    <glyph glyph-name="parenright" unicode=")" horiz-adv-x="550" 
d="M403 597q1 -247 -69 -465t-199 -383h-53q128 173 200 393t72 455t-72 455t-200 391h53q268 -349 268 -846z" />
    <glyph glyph-name="asterisk" unicode="*" horiz-adv-x="943" 
d="M799 829l-306 180l2 -355h-47l2 355l-306 -180l-23 40l308 176l-308 175l23 41l306 -180l-2 356h47l-2 -356l306 180l23 -40l-308 -175l308 -176z" />
    <glyph glyph-name="plus" unicode="+" horiz-adv-x="1178" 
d="M614 554v-517h-49v517h-461v47h461v503h49v-503h460v-47h-460z" />
    <glyph glyph-name="comma" unicode="," horiz-adv-x="490" 
d="M214 -211h-42l56 384h53z" />
    <glyph glyph-name="hyphen" unicode="-" horiz-adv-x="865" 
d="M760 554h-656v47h656v-47z" />
    <glyph glyph-name="period" unicode="." horiz-adv-x="488" 
d="M244 -10q-24 0 -40 17q-17 17 -17 41t17 40q16 17 40 17t40 -17q16 -16 17 -40q-1 -24 -17 -41t-40 -17z" />
    <glyph glyph-name="slash" unicode="/" horiz-adv-x="497" 
d="M48 -332h-48l448 1775h49z" />
    <glyph glyph-name="zero" unicode="0" horiz-adv-x="1181" 
d="M590 26q210 0 332 188t123 508q-1 320 -123 508t-332 187q-210 1 -332 -187q-123 -188 -123 -508q1 -320 123 -508t332 -188zM590 -20q-233 0 -369 200t-136 542t136 541q136 200 369 200t369 -200q136 -199 136 -541t-136 -542t-369 -200z" />
    <glyph glyph-name="one" unicode="1" horiz-adv-x="774" 
d="M484 0v1390h-2q-17 -10 -397 -247v57q297 188 399 250h49v-1450h-49z" />
    <glyph glyph-name="two" unicode="2" horiz-adv-x="1138" 
d="M560 1463q183 0 306 -112t123 -278q0 -113 -64 -221t-242 -296l-476 -505v-4h845v-47h-919v41l514 547q172 180 232 280t60 204q0 146 -109 246t-270 99q-162 -1 -270 -101t-112 -254h-50q5 175 127 288t305 113z" />
    <glyph glyph-name="three" unicode="3" horiz-adv-x="1126" 
d="M376 728v46h158q175 0 284 90t109 231q0 140 -108 231q-109 91 -267 91t-266 -90t-118 -224h-49q8 155 130 257q123 102 303 103t302 -103t123 -249q-1 -145 -83 -237t-226 -119v-4q170 -11 271 -109t101 -263q0 -167 -136 -283t-340 -116t-340 108t-139 269h50
q1 -92 58 -168q57 -75 155 -119t214 -44q184 0 306 104t122 261t-121 247t-335 90h-158z" />
    <glyph glyph-name="four" unicode="4" horiz-adv-x="1164" 
d="M128 425h688v965h-2q-342 -446 -686 -962v-3zM816 0v379h-748v47q333 501 729 1023l68 1v-1025h237v-46h-237v-379h-49z" />
    <glyph glyph-name="five" unicode="5" horiz-adv-x="1163" 
d="M604 -20q-196 0 -328 103t-150 258h50q18 -135 136 -225t294 -90q174 0 300 123t125 307q0 184 -123 310q-123 124 -305 124q-126 0 -232 -60t-168 -168h-54l89 781h747v-47h-704l-74 -659h2q62 91 168 145t227 54q204 0 340 -137t137 -342q0 -205 -140 -341
q-141 -136 -337 -136z" />
    <glyph glyph-name="six" unicode="6" horiz-adv-x="1166" 
d="M606 26q184 0 309 128q124 128 124 312q-1 184 -125 308t-307 124q-115 0 -217 -56t-161 -152q-60 -96 -60 -203q1 -195 127 -328t310 -133zM90 684q0 356 142 567q142 212 383 212q171 0 293 -97t145 -254h-50q-22 133 -131 219t-257 86q-231 0 -357 -220t-119 -607h4
q35 154 167 254t318 100t324 -136t137 -342q1 -206 -137 -346t-356 -140t-362 174t-144 530z" />
    <glyph glyph-name="seven" unicode="7" horiz-adv-x="1074" 
d="M941 1396h-857v47h910v-50l-698 -1393h-56l701 1394v2z" />
    <glyph glyph-name="eight" unicode="8" horiz-adv-x="1178" 
d="M588 789q172 -1 283 85t111 222t-108 228q-108 93 -284 93t-286 -93q-109 -92 -109 -228t111 -222q110 -86 282 -85zM588 26q200 0 323 104t123 261q0 156 -122 253t-322 97t-323 -97t-123 -253q0 -157 122 -261t322 -104zM588 -20q-222 0 -358 116t-136 299
q0 141 96 243t248 129v2q-133 28 -213 115t-80 208q0 163 124 267q123 104 319 104t320 -104t124 -267q0 -117 -81 -205t-211 -118v-2q152 -27 248 -130t96 -242q0 -183 -136 -299q-138 -116 -360 -116z" />
    <glyph glyph-name="nine" unicode="9" horiz-adv-x="1166" 
d="M558 545q116 -1 218 57t162 153t59 201q-1 193 -127 327t-312 134t-308 -129t-123 -313q0 -184 122 -307t309 -123zM556 499q-207 0 -343 134t-136 334q-1 139 61 253t172 178t246 65q230 0 370 -172q149 -179 149 -533t-140 -566t-384 -212q-177 0 -296 98t-142 252h50
q23 -132 127 -218t261 -86q220 0 344 194q143 225 131 633h-2q-32 -150 -166 -252t-302 -102z" />
    <glyph glyph-name="colon" unicode=":" horiz-adv-x="488" 
d="M244 770q-24 0 -40 17q-17 17 -17 41t17 40q16 16 40 16t40 -16t17 -40q-1 -24 -17 -41t-40 -17zM244 -10q-24 0 -40 17q-17 17 -17 41t17 40q16 17 40 17t40 -17q16 -16 17 -40q-1 -24 -17 -41t-40 -17z" />
    <glyph glyph-name="semicolon" unicode=";" horiz-adv-x="488" 
d="M204 -211h-41l56 384h53zM244 770q-24 0 -40 17q-17 17 -17 41t17 40q16 16 40 16t40 -16t17 -40q-1 -24 -17 -41t-40 -17z" />
    <glyph glyph-name="less" unicode="&#x3c;" horiz-adv-x="1179" 
d="M987 1074l-736 -539v-5l736 -537v-56l-796 573v44l796 576v-56z" />
    <glyph glyph-name="equal" unicode="=" horiz-adv-x="1179" 
d="M1073 741h-967v46h967v-46zM1073 368h-967v46h967v-46z" />
    <glyph glyph-name="greater" unicode="&#x3e;" horiz-adv-x="1179" 
d="M191 1074v56l796 -575v-45l-796 -573v56l737 537v5z" />
    <glyph glyph-name="question" unicode="?" horiz-adv-x="911" 
d="M415 -10q-24 0 -41 17t-17 41t17 40t41 17q25 -1 41 -17t16 -40t-16 -41t-41 -17zM450 1461q161 0 270 -100t109 -250q0 -99 -49 -175t-160 -156q-112 -79 -148 -137t-36 -149v-97h-49v99q1 99 41 165q40 67 149 147t155 150t46 151q0 133 -96 219t-233 87
q-138 1 -232 -85t-107 -225h-48q10 154 118 255t270 101z" />
    <glyph glyph-name="at" unicode="@" horiz-adv-x="1727" 
d="M1185 440q0 -223 195 -223q120 0 186 119t66 306t-56 320q-56 132 -154 226t-238 146t-303 53q-164 0 -307 -59q-143 -60 -244 -162q-102 -102 -160 -246t-58 -298q0 -152 36 -276q70 -240 264 -385t466 -145q212 0 326 35v-46q-106 -33 -304 -33t-350 62t-258 170
q-106 109 -167 265q-60 155 -60 365t105 398t292 294t421 105q174 0 322 -56t252 -155q104 -98 163 -240t59 -307q0 -238 -79 -369t-222 -131q-104 0 -168 57t-72 157h-4q-38 -103 -110 -157t-168 -54q-155 0 -253 116t-98 300q1 184 99 303q98 118 252 118q95 1 172 -55
t105 -145h4v178h48v-551zM858 968q-130 0 -218 -108t-87 -271q1 -162 85 -265t215 -103t207 105q76 106 77 276q0 170 -75 268q-74 98 -204 98z" />
    <glyph glyph-name="A" unicode="A" horiz-adv-x="1201" 
d="M598 1374l-315 -827h635l-315 827h-5zM1125 0l-189 501h-671l-190 -501h-55l555 1443h51l555 -1443h-56z" />
    <glyph glyph-name="B" unicode="B" horiz-adv-x="1139" 
d="M174 46h426q204 0 321 90t117 246q0 155 -123 246t-337 91h-404v-673zM174 1397v-632h401q173 -1 279 89t106 233t-103 227t-273 83h-410zM602 0h-478v1443h464q188 -1 305 -97t117 -240t-78 -238q-78 -92 -215 -119v-4q161 -15 265 -113t105 -262q0 -164 -130 -268
q-130 -102 -355 -102z" />
    <glyph glyph-name="C" unicode="C" horiz-adv-x="1303" 
d="M692 -20q-287 0 -458 204t-171 544q-1 340 169 538q170 197 460 197q215 -1 377 -141t181 -343h-49q-20 185 -167 311t-342 126q-266 0 -422 -184t-157 -504t157 -510t422 -191q203 0 347 115t162 298h49q-10 -134 -86 -239t-200 -163t-272 -58z" />
    <glyph glyph-name="D" unicode="D" horiz-adv-x="1313" 
d="M175 1396v-1349h384q309 0 475 175q166 176 166 500t-166 499t-475 175h-384zM124 1443h436q330 0 510 -188q180 -187 180 -533t-180 -534t-510 -188h-436v1443z" />
    <glyph glyph-name="E" unicode="E" horiz-adv-x="1050" 
d="M950 47v-47h-826v1443h826v-47h-776v-632h740v-46h-740v-671h776z" />
    <glyph glyph-name="F" unicode="F" horiz-adv-x="1020" 
d="M174 0h-50v1443h817v-47h-767v-634h706v-47h-706v-715z" />
    <glyph glyph-name="G" unicode="G" horiz-adv-x="1332" 
d="M1259 564q1 -272 -153 -428t-421 -156q-181 0 -323 94t-220 266q-78 171 -79 391q0 329 171 531t451 201q213 0 369 -118t195 -309h-49q-42 172 -183 276t-332 104q-258 0 -415 -188t-157 -499t159 -507t408 -195q250 0 390 143t140 392v100h-531v46h580v-144z" />
    <glyph glyph-name="H" unicode="H" horiz-adv-x="1296" 
d="M1172 0h-50v718h-948v-718h-50v1443h50v-678h948v678h50v-1443z" />
    <glyph glyph-name="I" unicode="I" horiz-adv-x="298" 
d="M174 0h-50v1443h50v-1443z" />
    <glyph glyph-name="J" unicode="J" horiz-adv-x="933" 
d="M428 26q148 0 240 95q91 95 91 263v1059h50v-1062q-1 -185 -105 -293t-275 -109q-171 0 -277 94t-111 242h49q6 -129 98 -209t240 -80z" />
    <glyph glyph-name="K" unicode="K" horiz-adv-x="1107" 
d="M174 0h-50v1443h50v-836h4l784 836h64l-594 -635l664 -808h-64l-636 773l-222 -237v-536z" />
    <glyph glyph-name="L" unicode="L" horiz-adv-x="1009" 
d="M949 47v-47h-825v1443h50v-1396h775z" />
    <glyph glyph-name="M" unicode="M" horiz-adv-x="1576" 
d="M1451 1443v-1443h-49v1328h-4l-584 -1327h-53l-584 1327h-4v-1328h-49v1443h53l609 -1380h4l606 1380h55z" />
    <glyph glyph-name="N" unicode="N" horiz-adv-x="1315" 
d="M174 0h-50v1443h55l958 -1348h4v1348h50v-1443h-46l-967 1359h-4v-1359z" />
    <glyph glyph-name="O" unicode="O" horiz-adv-x="1398" 
d="M698 1416q-268 0 -426 -188t-159 -506q0 -318 159 -506q158 -188 426 -189q268 1 428 189t159 506q0 318 -159 506q-160 188 -428 188zM698 1463q292 -1 464 -201t173 -540q0 -340 -172 -542q-173 -200 -465 -200t-464 200t-171 542q0 340 172 540q171 200 463 201z" />
    <glyph glyph-name="P" unicode="P" horiz-adv-x="1087" 
d="M174 1396v-748h394q192 0 304 100t113 274q-1 174 -113 274t-304 100h-394zM124 1443h448q212 0 338 -114t125 -307q0 -193 -126 -307t-338 -114h-397v-601h-50v1443z" />
    <glyph glyph-name="Q" unicode="Q" horiz-adv-x="1398" 
d="M699 27q145 0 263 58l-201 275h59l183 -252q137 84 209 243t72 371q0 318 -159 506t-427 188t-426 -188q-159 -188 -159 -506t159 -506t427 -189zM699 -20q-293 0 -465 200t-171 542q0 340 172 540q171 200 463 201q292 -1 464 -201t173 -540q0 -224 -79 -394t-224 -260
l183 -250h-59l-166 227q-130 -65 -291 -65z" />
    <glyph glyph-name="R" unicode="R" horiz-adv-x="1124" 
d="M174 630v-630h-50v1443h448q216 -1 340 -109t124 -282t-92 -279t-255 -133l381 -640h-57l-376 632q-36 -2 -66 -2h-397zM174 1396v-720h397q193 0 303 96t111 266q0 168 -110 263t-305 95h-396z" />
    <glyph glyph-name="S" unicode="S" horiz-adv-x="1114" 
d="M568 26q196 0 319 100t123 251q0 120 -85 193t-277 121l-167 42q-201 49 -295 133t-94 216q0 163 135 272t331 109q196 1 331 -103q136 -104 143 -258h-50q-7 135 -129 225t-297 90q-174 1 -294 -95t-120 -240q0 -114 85 -185t270 -117l165 -41q206 -53 302 -137t96 -223
q0 -175 -136 -287t-356 -112q-218 0 -363 113t-153 289h50q8 -156 140 -256q130 -100 326 -100z" />
    <glyph glyph-name="T" unicode="T" horiz-adv-x="1117" 
d="M583 0h-49v1396h-521v47h1091v-47h-521v-1396z" />
    <glyph glyph-name="U" unicode="U" horiz-adv-x="1307" 
d="M174 1443v-943q0 -218 130 -346t350 -127q220 -1 350 127t129 346v943h50v-944q1 -237 -143 -378t-387 -141t-386 141t-143 378v944h50z" />
    <glyph glyph-name="V" unicode="V" horiz-adv-x="1203" 
d="M627 0h-51l-556 1443h55l524 -1372h4l525 1372h54z" />
    <glyph glyph-name="W" unicode="W" horiz-adv-x="1777" 
d="M886 1338l-398 -1338h-41l-406 1443h52l374 -1344h4l396 1344h43l395 -1344h5l374 1344h51l-406 -1443h-40l-398 1338h-5z" />
    <glyph glyph-name="X" unicode="X" horiz-adv-x="1190" 
d="M41 0l524 721v1l-523 721h60l493 -680h1l494 680h59l-523 -721l522 -722h-60l-492 680h-1l-495 -680h-59z" />
    <glyph glyph-name="Y" unicode="Y" horiz-adv-x="1148" 
d="M600 0h-50v631l-529 812h60l492 -758h4l491 758h59l-527 -812v-631z" />
    <glyph glyph-name="Z" unicode="Z" horiz-adv-x="1147" 
d="M64 0v42l954 1350v4h-925v47h989v-43l-953 -1349v-4h954v-47h-1019z" />
    <glyph glyph-name="bracketleft" unicode="[" horiz-adv-x="556" 
d="M149 1443h346v-45h-297v-1589h312v-44h-361v1678z" />
    <glyph glyph-name="backslash" unicode="\" horiz-adv-x="497" 
d="M449 -332l-449 1775h49l448 -1775h-48z" />
    <glyph glyph-name="bracketright" unicode="]" horiz-adv-x="556" 
d="M407 1443v-1678h-361v44h312v1589h-297v45h346z" />
    <glyph glyph-name="asciicircum" unicode="^" horiz-adv-x="749" 
d="M373 1355l-266 -530h-55l302 596h41l302 -596h-55l-266 530h-3z" />
    <glyph glyph-name="underscore" unicode="_" horiz-adv-x="801" 
d="M867 -196h-933v44h933v-44z" />
    <glyph glyph-name="grave" unicode="`" horiz-adv-x="686" 
d="M509 1254h-53l-246 303h63z" />
    <glyph glyph-name="a" unicode="a" horiz-adv-x="1021" 
d="M440 -16q-150 0 -250 84t-100 220q0 274 380 304l389 30v97q-1 153 -87 240t-238 87t-244 -74q-93 -74 -114 -209h-47q17 153 126 241t281 88t272 -100t100 -270v-722h-49v245h-1q-40 -117 -154 -189t-264 -72zM466 30q152 0 272 108t121 258v182l-381 -29
q-166 -13 -252 -80t-86 -181t88 -186q86 -72 238 -72z" />
    <glyph glyph-name="b" unicode="b" horiz-adv-x="1116" 
d="M594 1046q-182 0 -298 -143q-117 -143 -117 -365q1 -222 117 -365q116 -142 298 -142t294 141q114 140 114 366t-113 367t-295 141zM600 -16q-152 0 -266 91t-153 244h-2v-319h-49v1506h49v-745h2q37 151 151 241t267 90q200 0 326 -154t126 -399q0 -247 -126 -401
t-325 -154z" />
    <glyph glyph-name="c" unicode="c" horiz-adv-x="1019" 
d="M534 1046q-193 0 -306 -138t-113 -370q1 -233 113 -370t306 -137q145 0 246 76t126 200h50q-26 -145 -141 -234t-281 -89q-215 0 -342 150t-127 404t127 404t342 150q163 0 280 -94t144 -238h-50q-26 126 -128 206t-246 80z" />
    <glyph glyph-name="d" unicode="d" horiz-adv-x="1126" 
d="M528 1046q-182 0 -298 -141q-115 -141 -115 -367t115 -366q116 -141 298 -141q182 -1 300 141t118 366t-118 366t-300 142zM524 -16q-202 0 -330 154t-129 400q1 246 129 400t330 154q156 0 272 -95t148 -236h2v745h50v-1506h-46v322h-2q-36 -146 -152 -242t-272 -96z
" />
    <glyph glyph-name="e" unicode="e" horiz-adv-x="1056" 
d="M541 -16q-219 0 -347 147t-129 402q0 255 128 407q129 152 337 152t334 -143t127 -375v-38h-876v-2q0 -236 116 -370t311 -134q156 0 258 75t126 194h51q-28 -139 -144 -227t-292 -88zM534 1046q-182 0 -295 -128q-114 -128 -123 -337h825q-1 207 -113 336t-294 129z" />
    <glyph glyph-name="f" unicode="f" horiz-adv-x="509" 
d="M170 0v1031h-150v45h150v169q0 123 58 181t165 59q47 0 74 -10v-46q-30 10 -73 10q-174 0 -174 -201v-162h237v-45h-237v-1031h-50z" />
    <glyph glyph-name="g" unicode="g" horiz-adv-x="1106" 
d="M558 -354q-182 0 -293 64q-110 64 -134 169h53q20 -83 118 -135t258 -52t268 82t109 224v318h-2q-33 -142 -147 -236t-269 -95q-202 -1 -328 153t-126 400q1 246 127 400t327 154q156 0 270 -96t149 -241h2v321h46v-1076q0 -166 -123 -260t-305 -94zM522 31
q182 -1 299 141q116 142 116 366t-116 366q-117 142 -299 142t-294 -141t-113 -367q1 -226 113 -366t294 -141z" />
    <glyph glyph-name="h" unicode="h" horiz-adv-x="1075" 
d="M130 0v1506h49v-684h2q35 120 139 195t244 75q178 0 288 -108t110 -289v-695h-50v693q0 163 -98 258t-260 95t-268 -112t-107 -289v-645h-49z" />
    <glyph glyph-name="i" unicode="i" horiz-adv-x="309" 
d="M154 1366q-20 0 -34 14t-14 34t14 34t35 14q20 0 34 -14t14 -34q-1 -20 -15 -34t-34 -14zM130 0v1076h49v-1076h-49z" />
    <glyph glyph-name="j" unicode="j" horiz-adv-x="309" 
d="M154 1366q-20 0 -34 14t-14 34t14 34t35 14q20 0 34 -14t14 -34q-1 -20 -15 -34t-34 -14zM179 1076v-1156q0 -138 -65 -200t-198 -62h-29v45h27q112 0 164 50t52 163v1160h49z" />
    <glyph glyph-name="k" unicode="k" horiz-adv-x="913" 
d="M179 0h-49v1506h49v-1003h2l645 573h70l-517 -463l519 -613h-65l-493 583l-161 -142v-441z" />
    <glyph glyph-name="l" unicode="l" horiz-adv-x="309" 
d="M130 0v1506h49v-1506h-49z" />
    <glyph glyph-name="m" unicode="m" horiz-adv-x="1628" 
d="M120 0v1076h46v-254h2q30 118 116 194t214 76t218 -78t112 -193h2q25 113 118 192t236 79t237 -101t94 -270v-721h-49v710q0 156 -80 246t-223 90q-141 0 -231 -106t-90 -276v-664h-49v708q0 150 -84 244t-222 94t-228 -112t-90 -301v-633h-49z" />
    <glyph glyph-name="n" unicode="n" horiz-adv-x="1063" 
d="M120 0v1076h46v-254h2q35 122 139 196t243 74q180 0 290 -108t110 -288v-696h-49v694q0 160 -99 256q-100 96 -262 96t-266 -112t-105 -288v-646h-49z" />
    <glyph glyph-name="o" unicode="o" horiz-adv-x="1078" 
d="M539 31q193 -1 309 137t116 370t-116 370t-309 138q-192 0 -308 -138t-116 -370q0 -233 116 -370t308 -137zM538 -16q-214 0 -343 150q-130 150 -130 404q1 254 131 404t343 150t343 -150t131 -404q-1 -254 -131 -404t-344 -150z" />
    <glyph glyph-name="p" unicode="p" horiz-adv-x="1106" 
d="M583 31q181 1 295 141t114 366t-114 366q-114 142 -295 142q-182 0 -298 -142t-116 -366t116 -366t298 -141zM587 1092q201 0 327 -154t127 -400q0 -246 -126 -400t-328 -154q-155 0 -269 94t-147 237h-2v-655h-49v1416h46v-321h2q34 145 148 241t271 96z" />
    <glyph glyph-name="q" unicode="q" horiz-adv-x="1116" 
d="M528 31q182 -1 300 141t118 366t-118 366t-300 142t-298 -142q-115 -142 -115 -366t115 -366q116 -141 298 -141zM524 1092q156 0 272 -96t152 -241h2v321h46v-1416h-50v655h-2q-32 -141 -148 -236t-272 -95q-202 0 -330 154t-129 400q1 246 129 400t330 154z" />
    <glyph glyph-name="r" unicode="r" horiz-adv-x="603" 
d="M465 1092q59 0 108 -21v-51q-50 25 -116 25q-132 -1 -210 -105t-78 -270v-670h-49v1076h46v-223h2q71 239 297 239z" />
    <glyph glyph-name="s" unicode="s" horiz-adv-x="905" 
d="M92 820q0 112 105 192t261 80t258 -88t116 -240h-48q-14 126 -102 204t-222 78q-135 0 -227 -67t-92 -161t57 -142t182 -78l167 -40q160 -38 231 -104t71 -186t-110 -202t-280 -82q-171 0 -283 92t-120 228h50q10 -114 109 -194t243 -80t242 68t99 170q0 101 -62 156
t-205 89l-169 39q-139 33 -205 94q-66 62 -66 174z" />
    <glyph glyph-name="t" unicode="t" horiz-adv-x="527" 
d="M180 1364h49v-288h228v-45h-228v-796q1 -102 39 -146t124 -44l41 1h42v-46h-42q-42 -1 -44 -1q-109 0 -159 55t-50 180v797h-160v45h160v288z" />
    <glyph glyph-name="u" unicode="u" horiz-adv-x="1063" 
d="M944 1076v-1076h-46v251h-2q-34 -115 -144 -191t-246 -76q-175 0 -284 106t-109 285v701h49v-694q0 -164 96 -258t257 -93q159 0 269 109t110 287v649h50z" />
    <glyph glyph-name="v" unicode="v" horiz-adv-x="888" 
d="M886 1076l-408 -1076h-68l-408 1076h53l388 -1028h2l388 1028h53z" />
    <glyph glyph-name="w" unicode="w" horiz-adv-x="1406" 
d="M1404 1076l-317 -1076h-66l-317 1016h-2l-317 -1016h-66l-317 1076h55l294 -1021h2l317 1021h66l317 -1021h2l294 1021h55z" />
    <glyph glyph-name="x" unicode="x" horiz-adv-x="869" 
d="M436 506h-3l-370 -506h-61l403 548l-402 528h62l369 -489h2l369 489h62l-402 -527l401 -549h-60z" />
    <glyph glyph-name="y" unicode="y" horiz-adv-x="888" 
d="M178 -343q-26 0 -47 9v47q23 -9 53 -9q70 0 116 46t89 159l28 72l-415 1095h54l387 -1029h2l388 1029h54l-417 -1101q-74 -195 -130 -257t-162 -61z" />
    <glyph glyph-name="z" unicode="z" horiz-adv-x="910" 
d="M58 0v47l734 982v2h-734v45h794v-47l-736 -982v-2h736v-45h-794z" />
    <glyph glyph-name="braceleft" unicode="{" horiz-adv-x="682" 
d="M312 392v-412q0 -242 255 -242h71v-45h-48q-176 1 -252 73t-75 242v349q0 126 -39 176t-135 50v91q96 0 135 51t39 178v292q1 167 75 237t252 69h48v-46h-71q-131 -1 -193 -59t-62 -182v-347q0 -111 -40 -165t-126 -62v-20q86 -8 126 -62t40 -166z" />
    <glyph glyph-name="bar" unicode="|" horiz-adv-x="329" 
d="M188 -332h-47v1775h47v-1775z" />
    <glyph glyph-name="braceright" unicode="}" horiz-adv-x="683" 
d="M370 867v347q0 124 -62 182t-193 59h-71v46h48q178 1 252 -69t75 -237v-292q0 -127 39 -178t135 -51v-91q-96 0 -135 -50t-39 -176v-349q1 -170 -75 -242t-252 -73h-48v45h71q255 0 255 242v412q0 112 40 166t126 62v20q-86 8 -126 62t-40 165z" />
    <glyph glyph-name="asciitilde" unicode="~" horiz-adv-x="1179" 
d="M362 791q-74 0 -122 -64t-50 -167h-48q0 126 60 202t160 76q54 0 101 -26t121 -92q74 -67 123 -93t96 -26q75 0 128 70t57 174h49q-1 -123 -69 -207t-166 -84q-64 0 -112 24t-125 96q-77 70 -118 94t-85 23z" />
    <glyph glyph-name="nonbreakingspace" unicode="&#xa0;" horiz-adv-x="381" 
 />
    <glyph glyph-name="exclamdown" unicode="&#xa1;" horiz-adv-x="500" 
d="M250 1000q-24 0 -41 18t-17 41q0 24 17 41t41 17t41 -17t17 -41q0 -23 -17 -41t-41 -18zM223 -336l1 1031h52l1 -1031h-54z" />
    <glyph glyph-name="cent" unicode="&#xa2;" horiz-adv-x="1179" 
d="M637 -87h-49v225q-138 6 -246 72t-172 191t-64 291q0 247 136 396t346 157v207h49v-207q165 -7 288 -97t148 -235h-50q-27 129 -143 208t-269 79q-197 0 -327 -138t-129 -370q0 -234 129 -372t327 -138q153 0 270 76t140 203h50q-23 -141 -145 -229t-289 -95v-224z" />
    <glyph glyph-name="sterling" unicode="&#xa3;" horiz-adv-x="1179" 
d="M712 1427q-200 0 -304 -92t-103 -242q1 -108 45 -237q14 -39 43 -120h468v-46h-451q64 -168 64 -264q0 -175 -95 -259t-206 -117v-4h950v-46h-1066v48q267 70 340 222q29 60 29 150t-68 270h-257v46h240q-86 226 -86 358q-1 171 117 275t328 104q106 -1 194 -19t132 -41
v-49q-114 63 -314 63z" />
    <glyph glyph-name="currency" unicode="&#xa4;" horiz-adv-x="1179" 
d="M965 655q0 -142 -95 -248l169 -167l-35 -34l-167 168q-106 -95 -247 -95t-248 94l-168 -167l-34 34l167 168q-93 106 -93 248t94 247l-168 167l34 34l167 -167q107 94 249 94t247 -93l167 166l35 -34l-167 -167q93 -106 93 -248zM260 656q0 -136 96 -234q96 -97 234 -97
q136 0 232 97q96 98 97 234q-1 136 -97 233t-232 97t-234 -97q-96 -97 -96 -233z" />
    <glyph glyph-name="yen" unicode="&#xa5;" horiz-adv-x="1179" 
d="M973 391h-358v-391h-50v391h-359v45h359v220h-359v44h331l-500 743h60l491 -730h4l491 730h59l-499 -743h330v-44h-358v-220h358v-45z" />
    <glyph glyph-name="brokenbar" unicode="&#xa6;" horiz-adv-x="329" 
d="M188 -332h-47v703h47v-703zM188 746h-47v697h47v-697z" />
    <glyph glyph-name="section" unicode="&#xa7;" horiz-adv-x="943" 
d="M476 -235q-158 0 -262 72q-105 72 -118 189h49q15 -97 107 -156t226 -59q134 1 222 65t88 158t-65 150t-205 86l-106 24q-172 38 -252 108t-81 178q0 108 74 180q74 73 204 95v3q-128 34 -189 97t-61 172q-1 109 101 187t259 77q157 0 262 -71t119 -189h-50
q-14 97 -106 156t-226 59t-222 -65t-87 -159q0 -94 65 -149t205 -86l106 -25q171 -38 251 -107t80 -177t-74 -182t-206 -95v-3q130 -34 192 -96t61 -172q1 -109 -101 -187t-260 -78zM814 564q0 100 -70 159q-70 58 -223 93l-77 17q-138 -1 -226 -71t-88 -170t70 -158
t223 -94l77 -17q138 1 226 71t88 170z" />
    <glyph glyph-name="dieresis" unicode="&#xa8;" horiz-adv-x="686" 
d="M482 1254q-22 0 -38 16t-16 38t16 38t38 15q22 1 39 -15q16 -16 16 -38q-1 -22 -17 -38t-38 -16zM204 1254q-22 0 -38 16t-17 38q0 22 16 38q17 16 39 15q22 1 38 -15t16 -38t-16 -38t-38 -16z" />
    <glyph glyph-name="copyright" unicode="&#xa9;" horiz-adv-x="1739" 
d="M846 1018q-135 0 -232 -104t-97 -282t97 -284t235 -106q139 0 217 57t99 147h48q-24 -112 -116 -180t-249 -68q-158 0 -268 118t-110 316t110 314t266 116t252 -75t116 -184h-47q-26 95 -106 155t-215 60zM895 -92q174 0 338 93q165 93 259 258t94 367t-94 368t-259 258
q-164 92 -338 92q-175 0 -307 -54t-228 -150q-96 -94 -150 -228q-56 -134 -56 -286t56 -285q56 -135 150 -229q96 -94 228 -149t307 -55zM870 -138q-159 0 -300 58q-140 58 -242 160t-162 244t-59 302q-1 160 59 303q60 142 162 243q102 102 242 160q141 58 300 58
q158 0 300 -58t244 -160q102 -101 160 -243q59 -143 59 -303t-59 -302q-58 -142 -160 -244t-244 -160t-300 -58z" />
    <glyph glyph-name="ordfeminine" unicode="&#xaa;" horiz-adv-x="877" 
d="M388 573q-118 0 -198 67q-78 68 -78 176q0 219 302 243l303 24v88q0 111 -70 177q-71 66 -187 65t-184 -51t-84 -131h-46q16 99 96 161t220 62q138 0 220 -76t83 -206v-594h-45v193h-5q-31 -87 -120 -143t-207 -55zM159 816q-1 -89 67 -145t187 -56q119 -1 212 81t93 197
v151l-294 -25q-265 -23 -265 -203z" />
    <glyph glyph-name="guillemotleft" unicode="&#xab;" horiz-adv-x="1150" 
d="M227 571v-6l370 -407h-63l-376 408v4l376 408h63zM623 571v-6l369 -407h-62l-377 408v4l377 408h62z" />
    <glyph glyph-name="logicalnot" unicode="&#xac;" horiz-adv-x="1179" 
d="M1072 723v-540h-48v494h-917v46h965z" />
    <glyph glyph-name="registered" unicode="&#xae;" horiz-adv-x="1247" 
d="M481 1206v-245h140q69 0 107 34t38 89q0 54 -38 88t-107 34h-140zM481 706h-44v541h197q77 1 126 -43t49 -115q-1 -71 -39 -113t-91 -49l157 -221h-53l-153 215h-149v-215zM623 507q189 0 321 131t132 321t-131 321t-321 131t-322 -131q-131 -131 -131 -321t131 -321
t321 -131zM623 463q-136 0 -250 66t-180 180t-66 250q0 137 66 251t180 180t250 65q209 0 353 -144q144 -143 144 -351t-144 -352t-353 -145z" />
    <glyph glyph-name="macron" unicode="&#xaf;" horiz-adv-x="814" 
d="M699 1348v-43h-584v43h584z" />
    <glyph glyph-name="degree" unicode="&#xb0;" horiz-adv-x="550" 
d="M274 1078q68 0 116 48t48 116t-48 116t-116 47q-68 0 -115 -48q-48 -47 -48 -115t48 -116q47 -48 115 -48zM274 1038q-84 0 -144 60t-59 144q-1 84 59 144t144 60t145 -60q60 -60 60 -144q-1 -84 -61 -144t-144 -60z" />
    <glyph glyph-name="plusminus" unicode="&#xb1;" horiz-adv-x="1179" 
d="M613 688v-367h-47v367h-462v45h462v344h47v-344h461v-45h-461zM1074 113h-970v46h970v-46z" />
    <glyph glyph-name="two.sups" unicode="&#xb2;" horiz-adv-x="550" 
d="M274 1779q88 0 146 -51t58 -116q0 -64 -30 -114t-108 -132l-202 -215v-2h362v-42h-430v35l239 253q69 75 95 117t26 93q0 52 -44 92t-112 40t-112 -42t-47 -107v-1h-47v1q2 83 60 137t146 54z" />
    <glyph glyph-name="three.sups" unicode="&#xb3;" horiz-adv-x="552" 
d="M189 1430v40h76q71 0 115 38t45 96q-1 58 -45 95q-44 38 -110 38t-111 -37q-44 -37 -48 -94h-46q3 76 61 124t144 49q86 -1 145 -49q58 -48 58 -114t-37 -109q-37 -42 -102 -54v-2q76 -4 122 -49q46 -44 46 -120t-66 -130t-162 -55q-98 0 -160 51t-64 128h47
q2 -58 51 -98q50 -40 126 -39t127 43t51 107t-50 103t-136 38h-77z" />
    <glyph glyph-name="acute" unicode="&#xb4;" horiz-adv-x="686" 
d="M230 1254h-53l236 303h63z" />
    <glyph glyph-name="paragraph" unicode="&#xb6;" horiz-adv-x="1155" 
d="M915 -146v1589h50v-1589h-50zM733 -146h-50v721h-20q-210 1 -342 123t-132 314q1 192 129 312t346 119h69v-1589z" />
    <glyph glyph-name="periodcentered" unicode="&#xb7;" horiz-adv-x="488" 
d="M244 538q-24 0 -40 17q-17 17 -17 41t17 40q16 17 40 17t40 -17q16 -16 17 -40q-1 -24 -17 -41t-40 -17z" />
    <glyph glyph-name="cedilla" unicode="&#xb8;" horiz-adv-x="686" 
d="M239 -182v33l69 155l44 -6l-59 -140q94 0 150 -42t56 -114t-60 -118t-146 -48q-86 0 -132 17v43q45 -17 119 -17t124 36t49 89q-1 52 -43 82t-121 30h-50z" />
    <glyph glyph-name="one.sups" unicode="&#xb9;" horiz-adv-x="416" 
d="M232 1107v614h-2l-179 -118v49l180 119h48v-664h-47z" />
    <glyph glyph-name="ordmasculine" unicode="&#xba;" horiz-adv-x="976" 
d="M487 572q-172 0 -274 119t-102 321q1 202 103 322t274 120t274 -120q103 -120 103 -321t-103 -321t-275 -120zM159 1013q-1 -183 89 -289t239 -106t239 106t91 289q-1 181 -91 289t-239 108t-239 -108t-89 -289z" />
    <glyph glyph-name="guillemotright" unicode="&#xbb;" horiz-adv-x="1150" 
d="M923 571l-370 407h63l376 -408v-4l-376 -408h-63l370 407v6zM528 571l-370 407h63l376 -408v-4l-376 -408h-63l370 407v6z" />
    <glyph glyph-name="onequarter" unicode="&#xbc;" horiz-adv-x="1374" 
d="M148 1h-59l1081 1443h59zM233 779v614h-2l-179 -118v49l180 119h48v-664h-47zM895 202h290v418h-2q-173 -236 -288 -417v-1zM1184 0v160h-339v44q122 192 318 460h69v-462h102v-42h-102v-160h-48z" />
    <glyph glyph-name="onehalf" unicode="&#xbd;" horiz-adv-x="1393" 
d="M148 1h-59l1081 1443h59zM233 779v614h-2l-179 -118v49l180 119h48v-664h-47zM1118 672q88 0 146 -51t58 -116t-30 -115t-108 -131l-202 -215v-2h362v-42h-430v35l239 253q69 74 95 116t26 94t-44 92t-112 40t-112 -42t-47 -107v-1h-47v1q2 83 60 137t146 54z" />
    <glyph glyph-name="threequarters" unicode="&#xbe;" horiz-adv-x="1428" 
d="M239 1h-59l1081 1443h59zM949 202h290v418h-2q-173 -236 -288 -417v-1zM1238 0v160h-339v44q122 192 318 460h69v-462h102v-42h-102v-160h-48zM180 1102v40h76q72 0 116 38t44 96t-44 95q-44 38 -112 38q-66 0 -110 -37t-48 -94h-46q4 76 62 124t144 49q86 -1 144 -49
t58 -114t-37 -109q-37 -42 -102 -54v-2q77 -4 123 -49q46 -44 45 -120q1 -76 -65 -130t-164 -55q-98 0 -159 51q-62 51 -64 128h47q2 -58 51 -98t125 -39t128 43q51 42 51 107q1 65 -49 103t-137 38h-77z" />
    <glyph glyph-name="questiondown" unicode="&#xbf;" horiz-adv-x="911" 
d="M492 1000q-24 0 -40 18q-17 18 -17 41q0 24 17 41q16 17 40 17t41 -17t17 -41q0 -23 -17 -41t-41 -18zM461 -364q-161 0 -270 100t-109 251q0 98 49 175t159 156q110 78 148 136q36 58 36 149v97h49v-99q0 -99 -40 -165t-149 -146t-155 -150q-46 -69 -46 -151
q-1 -135 95 -221t234 -86t232 86t107 225h48q-11 -153 -119 -255t-269 -102z" />
    <glyph glyph-name="Agrave" unicode="&#xc0;" horiz-adv-x="1201" 
d="M582 1554l-303 287h66l294 -287h-57zM598 1374l-315 -827h635l-315 827h-5zM1125 0l-189 501h-671l-190 -501h-55l555 1443h51l555 -1443h-56z" />
    <glyph glyph-name="Aacute" unicode="&#xc1;" horiz-adv-x="1201" 
d="M618 1554h-56l293 287h66zM598 1374l-315 -827h635l-315 827h-5zM1125 0l-189 501h-671l-190 -501h-55l555 1443h51l555 -1443h-56z" />
    <glyph glyph-name="Acircumflex" unicode="&#xc2;" horiz-adv-x="1201" 
d="M577 1841h46l266 -287h-59l-229 249h-2l-229 -249h-59zM598 1374l-315 -827h635l-315 827h-5zM1125 0l-189 501h-671l-190 -501h-55l555 1443h51l555 -1443h-56z" />
    <glyph glyph-name="Atilde" unicode="&#xc3;" horiz-adv-x="1201" 
d="M463 1720q-97 0 -97 -158h-45q0 92 36 146t105 55q68 -1 124 -59q24 -24 46 -49q53 -59 105 -59q97 0 97 158h45q0 -94 -36 -148t-104 -54q-67 0 -125 60q-24 24 -46 48q-54 60 -105 60zM598 1374l-315 -827h635l-315 827h-5zM1125 0l-189 501h-671l-190 -501h-55
l555 1443h51l555 -1443h-56z" />
    <glyph glyph-name="Adieresis" unicode="&#xc4;" horiz-adv-x="1201" 
d="M739 1556q-22 0 -38 16t-16 38t16 38q17 16 39 15q22 1 38 -15t16 -38t-16 -38t-39 -16zM461 1556q-23 0 -39 16t-16 38t16 38t38 15q22 1 39 -15q16 -16 16 -38t-16 -38t-38 -16zM598 1374l-315 -827h635l-315 827h-5zM1125 0l-189 501h-671l-190 -501h-55l555 1443h51
l555 -1443h-56z" />
    <glyph glyph-name="Aring" unicode="&#xc5;" horiz-adv-x="1201" 
d="M600 1545q54 0 90 37t36 90t-36 90t-90 37t-90 -37t-37 -90q1 -53 37 -90t90 -37zM600 1506q-68 0 -116 49t-49 117q1 68 49 116t116 49q68 -1 116 -49t48 -116t-48 -117t-116 -49zM598 1374l-315 -827h635l-315 827h-5zM1125 0l-189 501h-671l-190 -501h-55l555 1443h51
l555 -1443h-56z" />
    <glyph glyph-name="AE" unicode="&#xc6;" horiz-adv-x="1878" 
d="M1010 0v411h-689l-208 -411h-55l733 1443h985v-47h-718v-633h681v-46h-681v-670h718v-47h-766zM1010 458v939h-191l-476 -939h667z" />
    <glyph glyph-name="Ccedilla" unicode="&#xc7;" horiz-adv-x="1303" 
d="M692 1416q-266 0 -422 -184t-157 -504t157 -510t422 -191q203 0 347 115t162 298h49q-10 -131 -84 -235t-194 -163t-264 -62l-51 -120q94 0 150 -42t56 -114t-60 -118t-146 -48q-86 0 -132 17v43q45 -17 119 -17t124 36t49 89q-1 52 -43 82t-121 30h-50v33l58 130
q-274 11 -436 214t-162 539q-1 336 169 532q170 197 460 197q215 -1 377 -141t181 -343h-49q-20 185 -167 311t-342 126z" />
    <glyph glyph-name="Egrave" unicode="&#xc8;" horiz-adv-x="1050" 
d="M950 47v-47h-826v1443h826v-47h-776v-632h740v-46h-740v-671h776zM519 1554l-303 287h66l294 -287h-57z" />
    <glyph glyph-name="Eacute" unicode="&#xc9;" horiz-adv-x="1050" 
d="M950 47v-47h-826v1443h826v-47h-776v-632h740v-46h-740v-671h776zM555 1554h-56l293 287h66z" />
    <glyph glyph-name="Ecircumflex" unicode="&#xca;" horiz-adv-x="1050" 
d="M950 47v-47h-826v1443h826v-47h-776v-632h740v-46h-740v-671h776zM514 1841h46l266 -287h-59l-229 249h-2l-229 -249h-59z" />
    <glyph glyph-name="Edieresis" unicode="&#xcb;" horiz-adv-x="1050" 
d="M950 47v-47h-826v1443h826v-47h-776v-632h740v-46h-740v-671h776zM676 1556q-22 0 -38 16t-16 38t16 38t38 15q22 1 39 -15q16 -16 16 -38q-1 -22 -17 -38t-38 -16zM398 1556q-22 0 -38 16t-17 38q0 22 16 38q17 16 39 15q22 1 38 -15t16 -38t-16 -38t-38 -16z" />
    <glyph glyph-name="Igrave" unicode="&#xcc;" horiz-adv-x="298" 
d="M131 1554l-303 287h66l294 -287h-57zM174 0h-50v1443h50v-1443z" />
    <glyph glyph-name="Iacute" unicode="&#xcd;" horiz-adv-x="298" 
d="M167 1554h-56l293 287h66zM174 0h-50v1443h50v-1443z" />
    <glyph glyph-name="Icircumflex" unicode="&#xce;" horiz-adv-x="298" 
d="M126 1841h46l266 -287h-59l-229 249h-2l-229 -249h-59zM174 0h-50v1443h50v-1443z" />
    <glyph glyph-name="Idieresis" unicode="&#xcf;" horiz-adv-x="298" 
d="M288 1556q-22 0 -38 16t-16 38t16 38t38 15q22 1 39 -15q16 -16 16 -38q-1 -22 -17 -38t-38 -16zM10 1556q-22 0 -38 16t-17 38q0 22 16 38q17 16 39 15q22 1 38 -15t16 -38t-16 -38t-38 -16zM174 0h-50v1443h50v-1443z" />
    <glyph glyph-name="Eth" unicode="&#xd0;" horiz-adv-x="1383" 
d="M124 1443h436q330 0 510 -188q180 -187 180 -533t-180 -534t-510 -188h-436v717h-110v47h110v679zM175 47h384q309 0 475 175q166 176 166 500t-166 499t-475 175h-384v-632h382v-47h-382v-670z" />
    <glyph glyph-name="Ntilde" unicode="&#xd1;" horiz-adv-x="1315" 
d="M174 0h-50v1443h55l958 -1348h4v1348h50v-1443h-46l-967 1359h-4v-1359zM520 1720q-97 0 -97 -158h-45q0 92 36 146t105 55q69 -1 125 -59q24 -24 46 -49q53 -59 104 -59q97 0 97 158h45q0 -94 -36 -148t-104 -54t-126 60q-24 24 -46 48q-54 60 -104 60z" />
    <glyph glyph-name="Ograve" unicode="&#xd2;" horiz-adv-x="1398" 
d="M698 1416q-268 0 -426 -188t-159 -506q0 -318 159 -506q158 -188 426 -189q268 1 428 189t159 506q0 318 -159 506q-160 188 -428 188zM698 1463q292 -1 464 -201t173 -540q0 -340 -172 -542q-173 -200 -465 -200t-464 200t-171 542q0 340 172 540q171 200 463 201z
M681 1554l-303 287h66l294 -287h-57z" />
    <glyph glyph-name="Oacute" unicode="&#xd3;" horiz-adv-x="1398" 
d="M698 1416q-268 0 -426 -188t-159 -506q0 -318 159 -506q158 -188 426 -189q268 1 428 189t159 506q0 318 -159 506q-160 188 -428 188zM698 1463q292 -1 464 -201t173 -540q0 -340 -172 -542q-173 -200 -465 -200t-464 200t-171 542q0 340 172 540q171 200 463 201z
M717 1554h-56l293 287h66z" />
    <glyph glyph-name="Ocircumflex" unicode="&#xd4;" horiz-adv-x="1398" 
d="M698 1416q-268 0 -426 -188t-159 -506q0 -318 159 -506q158 -188 426 -189q268 1 428 189t159 506q0 318 -159 506q-160 188 -428 188zM698 1463q292 -1 464 -201t173 -540q0 -340 -172 -542q-173 -200 -465 -200t-464 200t-171 542q0 340 172 540q171 200 463 201z
M676 1841h46l266 -287h-59l-229 249h-2l-229 -249h-59z" />
    <glyph glyph-name="Otilde" unicode="&#xd5;" horiz-adv-x="1398" 
d="M465 1562h-45q0 92 36 146t105 55q69 -1 125 -59q24 -24 46 -49q53 -59 104 -59q97 0 97 158h45q0 -94 -36 -148t-104 -54t-126 60q-24 24 -46 48q-55 59 -104 60q-97 0 -97 -158zM698 1416q-268 0 -426 -188t-159 -506q0 -318 159 -506q158 -188 426 -189q268 1 428 189
t159 506q0 318 -159 506q-160 188 -428 188zM698 1463q292 -1 464 -201t173 -540q0 -340 -172 -542q-173 -200 -465 -200t-464 200t-171 542q0 340 172 540q171 200 463 201z" />
    <glyph glyph-name="Odieresis" unicode="&#xd6;" horiz-adv-x="1398" 
d="M698 1416q-268 0 -426 -188t-159 -506q0 -318 159 -506q158 -188 426 -189q268 1 428 189t159 506q0 318 -159 506q-160 188 -428 188zM698 1463q292 -1 464 -201t173 -540q0 -340 -172 -542q-173 -200 -465 -200t-464 200t-171 542q0 340 172 540q171 200 463 201z
M838 1556q-22 0 -38 16t-16 38t16 38t38 15q22 1 39 -15q16 -16 16 -38q-1 -22 -17 -38t-38 -16zM560 1556q-22 0 -38 16t-17 38q0 22 16 38q17 16 39 15q22 1 38 -15t16 -38t-16 -38t-38 -16z" />
    <glyph glyph-name="multiply" unicode="&#xd7;" horiz-adv-x="1179" 
d="M590 546l-326 -326l-34 32l326 327l-327 327l35 34l325 -328l327 326l33 -32l-325 -327l325 -325l-34 -34z" />
    <glyph glyph-name="Oslash" unicode="&#xd8;" horiz-adv-x="1398" 
d="M1335 718q0 -338 -172 -538t-464 -200q-248 0 -412 147l-173 -222l-37 25l178 228q-192 200 -192 552t172 552t453 201q281 0 450 -174l151 194l36 -25l-157 -202q167 -200 167 -538zM690 1416q-260 0 -418 -188t-159 -513q0 -326 174 -516l820 1050q-157 167 -417 167z
M699 27q267 1 427 189t159 500q0 312 -149 500l-818 -1049q152 -140 381 -140z" />
    <glyph glyph-name="Ugrave" unicode="&#xd9;" horiz-adv-x="1305" 
d="M174 1443v-943q0 -218 130 -346t350 -127q220 -1 350 127t129 346v943h50v-944q1 -237 -143 -378t-387 -141t-386 141t-143 378v944h50zM635 1554l-303 287h66l294 -287h-57z" />
    <glyph glyph-name="Uacute" unicode="&#xda;" horiz-adv-x="1305" 
d="M174 1443v-943q0 -218 130 -346t350 -127q220 -1 350 127t129 346v943h50v-944q1 -237 -143 -378t-387 -141t-386 141t-143 378v944h50zM671 1554h-56l293 287h66z" />
    <glyph glyph-name="Ucircumflex" unicode="&#xdb;" horiz-adv-x="1305" 
d="M174 1443v-943q0 -218 130 -346t350 -127q220 -1 350 127t129 346v943h50v-944q1 -237 -143 -378t-387 -141t-386 141t-143 378v944h50zM630 1841h46l266 -287h-59l-229 249h-2l-229 -249h-59z" />
    <glyph glyph-name="Udieresis" unicode="&#xdc;" horiz-adv-x="1305" 
d="M174 1443v-943q0 -218 130 -346t350 -127q220 -1 350 127t129 346v943h50v-944q1 -237 -143 -378t-387 -141t-386 141t-143 378v944h50zM792 1556q-22 0 -38 16t-16 38t16 38t38 15q22 1 39 -15q16 -16 16 -38q-1 -22 -17 -38t-38 -16zM514 1556q-22 0 -38 16t-17 38
q0 22 16 38q17 16 39 15q22 1 38 -15t16 -38t-16 -38t-38 -16z" />
    <glyph glyph-name="Yacute" unicode="&#xdd;" horiz-adv-x="1148" 
d="M592 1554h-56l293 287h66zM600 0h-50v631l-529 812h60l492 -758h4l491 758h59l-527 -812v-631z" />
    <glyph glyph-name="Thorn" unicode="&#xde;" horiz-adv-x="1202" 
d="M214 1105v-704h411q187 1 293 95t106 256t-106 258t-293 95h-411zM164 1443h50v-291h413q205 0 326 -107t121 -293t-120 -292t-327 -106h-413v-354h-50v1443z" />
    <glyph glyph-name="germandbls" unicode="&#xdf;" horiz-adv-x="1047" 
d="M169 0h-49v1064q0 176 96 274t268 98t276 -92t103 -228q-1 -137 -79 -233t-190 -121v-3q170 -13 280 -115t110 -266t-127 -280q-127 -118 -316 -118q-87 0 -179 17v49q77 -20 178 -20q165 0 280 104t115 257q1 151 -123 247t-319 96h-109v47h108q131 0 226 97
q95 96 95 226t-90 210t-237 80t-232 -87t-85 -240v-1063z" />
    <glyph glyph-name="agrave" unicode="&#xe0;" horiz-adv-x="1021" 
d="M581 1254h-53l-246 303h63zM440 -16q-150 0 -250 84t-100 220q0 274 380 304l389 30v97q-1 153 -87 240t-238 87t-244 -74q-93 -74 -114 -209h-47q17 153 126 241t281 88t272 -100t100 -270v-722h-49v245h-1q-40 -117 -154 -189t-264 -72zM466 30q152 0 272 108t121 258
v182l-381 -29q-166 -13 -252 -80t-86 -181t88 -186q86 -72 238 -72z" />
    <glyph glyph-name="aacute" unicode="&#xe1;" horiz-adv-x="1021" 
d="M538 1254h-53l236 303h63zM440 -16q-150 0 -250 84t-100 220q0 274 380 304l389 30v97q-1 153 -87 240t-238 87t-244 -74q-93 -74 -114 -209h-47q17 153 126 241t281 88t272 -100t100 -270v-722h-49v245h-1q-40 -117 -154 -189t-264 -72zM466 30q152 0 272 108t121 258
v182l-381 -29q-166 -13 -252 -80t-86 -181t88 -186q86 -72 238 -72z" />
    <glyph glyph-name="acircumflex" unicode="&#xe2;" horiz-adv-x="1021" 
d="M555 1557l265 -303h-56l-230 264h-2l-230 -264h-56l265 303h44zM440 -16q-150 0 -250 84t-100 220q0 274 380 304l389 30v97q-1 153 -87 240t-238 87t-244 -74q-93 -74 -114 -209h-47q17 153 126 241t281 88t272 -100t100 -270v-722h-49v245h-1q-40 -117 -154 -189
t-264 -72zM466 30q152 0 272 108t121 258v182l-381 -29q-166 -13 -252 -80t-86 -181t88 -186q86 -72 238 -72z" />
    <glyph glyph-name="atilde" unicode="&#xe3;" horiz-adv-x="1021" 
d="M396 1422q-97 0 -97 -158h-45q0 92 36 146t105 55q69 -1 125 -59q24 -24 46 -49q53 -59 104 -59q97 0 97 158h45q0 -94 -36 -148t-104 -54t-126 60q-24 24 -46 48q-54 60 -104 60zM440 -16q-150 0 -250 84t-100 220q0 274 380 304l389 30v97q-1 153 -87 240t-238 87
t-244 -74q-93 -74 -114 -209h-47q17 153 126 241t281 88t272 -100t100 -270v-722h-49v245h-1q-40 -117 -154 -189t-264 -72zM466 30q152 0 272 108t121 258v182l-381 -29q-166 -13 -252 -80t-86 -181t88 -186q86 -72 238 -72z" />
    <glyph glyph-name="adieresis" unicode="&#xe4;" horiz-adv-x="1021" 
d="M672 1254q-22 0 -38 16t-16 38t16 38t38 15q22 1 39 -15q16 -16 16 -38q-1 -22 -17 -38t-38 -16zM394 1254q-22 0 -38 16t-17 38q0 22 16 38q17 16 39 15q22 1 38 -15t16 -38t-16 -38t-38 -16zM440 -16q-150 0 -250 84t-100 220q0 274 380 304l389 30v97q-1 153 -87 240
t-238 87t-244 -74q-93 -74 -114 -209h-47q17 153 126 241t281 88t272 -100t100 -270v-722h-49v245h-1q-40 -117 -154 -189t-264 -72zM466 30q152 0 272 108t121 258v182l-381 -29q-166 -13 -252 -80t-86 -181t88 -186q86 -72 238 -72z" />
    <glyph glyph-name="aring" unicode="&#xe5;" horiz-adv-x="1021" 
d="M532 1288q54 0 90 37t37 90q-1 53 -37 90t-90 37t-90 -37t-36 -90t36 -90t90 -37zM532 1249q-68 0 -116 49t-48 117q0 69 48 117t116 48t116 -48t49 -117q-1 -68 -49 -117t-116 -49zM440 -16q-150 0 -250 84t-100 220q0 274 380 304l389 30v97q-1 153 -87 240t-238 87
t-244 -74q-93 -74 -114 -209h-47q17 153 126 241t281 88t272 -100t100 -270v-722h-49v245h-1q-40 -117 -154 -189t-264 -72zM466 30q152 0 272 108t121 258v182l-381 -29q-166 -13 -252 -80t-86 -181t88 -186q86 -72 238 -72z" />
    <glyph glyph-name="ae" unicode="&#xe6;" horiz-adv-x="1848" 
d="M468 30q154 0 272 108q119 108 119 263v150l-384 -26q-165 -11 -250 -73t-85 -171t87 -180t241 -71zM1330 1046q-182 0 -297 -126t-124 -332h824q0 206 -110 332q-111 126 -293 126zM1340 -16q-166 0 -280 84t-163 243h-4q-39 -151 -159 -239t-282 -88t-262 83t-100 213
q0 264 375 289l394 27v141q0 145 -88 227t-239 82t-246 -75t-114 -208h-48q16 149 126 239t274 90t266 -82t109 -226h5q44 136 156 222t272 86q206 0 328 -138t123 -371v-40h-875v-7q0 -230 117 -368t311 -138q153 0 253 75t125 194h51q-28 -139 -143 -227
q-116 -88 -282 -88z" />
    <glyph glyph-name="ccedilla" unicode="&#xe7;" horiz-adv-x="1019" 
d="M534 1046q-193 0 -306 -138t-113 -370q1 -233 113 -370t306 -137q145 0 246 76t126 200h50q-25 -141 -135 -229t-271 -94l-52 -124q94 0 150 -42t56 -114t-60 -118t-146 -48q-86 0 -132 17v43q45 -17 119 -17q73 0 123 36t50 89q0 52 -42 82t-122 30h-50v33l60 134
q-203 11 -321 159t-118 398t127 400t342 150q163 0 280 -94t144 -238h-50q-26 126 -128 206t-246 80z" />
    <glyph glyph-name="egrave" unicode="&#xe8;" horiz-adv-x="1056" 
d="M541 -16q-219 0 -347 147t-129 402q0 255 128 407q129 152 337 152t334 -143t127 -375v-38h-876v-2q0 -236 116 -370t311 -134q156 0 258 75t126 194h51q-28 -139 -144 -227t-292 -88zM534 1046q-182 0 -295 -128q-114 -128 -123 -337h825q-1 207 -113 336t-294 129z
M581 1254h-53l-246 303h63z" />
    <glyph glyph-name="eacute" unicode="&#xe9;" horiz-adv-x="1056" 
d="M541 -16q-219 0 -347 147t-129 402q0 255 128 407q129 152 337 152t334 -143t127 -375v-38h-876v-2q0 -236 116 -370t311 -134q156 0 258 75t126 194h51q-28 -139 -144 -227t-292 -88zM534 1046q-182 0 -295 -128q-114 -128 -123 -337h825q-1 207 -113 336t-294 129z
M538 1254h-53l236 303h63z" />
    <glyph glyph-name="ecircumflex" unicode="&#xea;" horiz-adv-x="1056" 
d="M541 -16q-219 0 -347 147t-129 402q0 255 128 407q129 152 337 152t334 -143t127 -375v-38h-876v-2q0 -236 116 -370t311 -134q156 0 258 75t126 194h51q-28 -139 -144 -227t-292 -88zM534 1046q-182 0 -295 -128q-114 -128 -123 -337h825q-1 207 -113 336t-294 129z
M555 1557l265 -303h-56l-230 264h-2l-230 -264h-56l265 303h44z" />
    <glyph glyph-name="edieresis" unicode="&#xeb;" horiz-adv-x="1056" 
d="M672 1254q-22 0 -38 16t-16 38t16 38t38 15q22 1 39 -15q16 -16 16 -38q-1 -22 -17 -38t-38 -16zM394 1254q-22 0 -38 16t-17 38q0 22 16 38q17 16 39 15q22 1 38 -15t16 -38t-16 -38t-38 -16zM541 -16q-219 0 -347 147t-129 402q0 255 128 407q129 152 337 152t334 -143
t127 -375v-38h-876v-2q0 -236 116 -370t311 -134q156 0 258 75t126 194h51q-28 -139 -144 -227t-292 -88zM534 1046q-182 0 -295 -128q-114 -128 -123 -337h825q-1 207 -113 336t-294 129z" />
    <glyph glyph-name="igrave" unicode="&#xec;" horiz-adv-x="309" 
d="M130 0v1076h49v-1076h-49zM203 1254h-53l-246 303h63z" />
    <glyph glyph-name="iacute" unicode="&#xed;" horiz-adv-x="309" 
d="M130 0v1076h49v-1076h-49zM160 1254h-53l236 303h63z" />
    <glyph glyph-name="icircumflex" unicode="&#xee;" horiz-adv-x="309" 
d="M130 0v1076h49v-1076h-49zM177 1557l265 -303h-56l-230 264h-2l-230 -264h-56l265 303h44z" />
    <glyph glyph-name="idieresis" unicode="&#xef;" horiz-adv-x="309" 
d="M294 1254q-22 0 -38 16t-16 38t16 38t38 15q22 1 39 -15q16 -16 16 -38q-1 -22 -17 -38t-38 -16zM16 1254q-22 0 -38 16t-17 38q0 22 16 38q17 16 39 15q22 1 38 -15t16 -38t-16 -38t-38 -16zM130 0v1076h49v-1076h-49z" />
    <glyph glyph-name="eth" unicode="&#xf0;" horiz-adv-x="1114" 
d="M536 1006q-186 0 -302 -132q-118 -132 -118 -347q0 -213 118 -355t302 -142t298 138t114 358t-113 350t-299 130zM539 -16q-209 0 -341 154t-132 388t132 380t333 146q131 0 235 -64t161 -179h4q-59 297 -236 477l-292 -126l-16 40l277 118q-82 75 -243 160h79
q136 -73 208 -142l272 115l16 -39l-256 -108q257 -275 257 -749q-1 -261 -125 -416t-333 -155z" />
    <glyph glyph-name="ntilde" unicode="&#xf1;" horiz-adv-x="1063" 
d="M120 0v1076h46v-254h2q35 122 139 196t243 74q180 0 290 -108t110 -288v-696h-49v694q0 160 -99 256q-100 96 -262 96t-266 -112t-105 -288v-646h-49zM400 1422q-97 0 -97 -158h-45q0 92 36 146t105 55q69 -1 125 -59q24 -24 46 -49q53 -59 104 -59q97 0 97 158h45
q0 -94 -36 -148t-104 -54t-126 60q-24 24 -46 48q-54 60 -104 60z" />
    <glyph glyph-name="ograve" unicode="&#xf2;" horiz-adv-x="1078" 
d="M539 31q193 -1 309 137t116 370t-116 370t-309 138q-192 0 -308 -138t-116 -370q0 -233 116 -370t308 -137zM538 -16q-214 0 -343 150q-130 150 -130 404q1 254 131 404t343 150t343 -150t131 -404q-1 -254 -131 -404t-344 -150zM587 1253h-53l-246 303h63z" />
    <glyph glyph-name="oacute" unicode="&#xf3;" horiz-adv-x="1078" 
d="M539 31q193 -1 309 137t116 370t-116 370t-309 138q-192 0 -308 -138t-116 -370q0 -233 116 -370t308 -137zM538 -16q-214 0 -343 150q-130 150 -130 404q1 254 131 404t343 150t343 -150t131 -404q-1 -254 -131 -404t-344 -150zM544 1253h-53l236 303h63z" />
    <glyph glyph-name="ocircumflex" unicode="&#xf4;" horiz-adv-x="1078" 
d="M539 31q193 -1 309 137t116 370t-116 370t-309 138q-192 0 -308 -138t-116 -370q0 -233 116 -370t308 -137zM538 -16q-214 0 -343 150q-130 150 -130 404q1 254 131 404t343 150t343 -150t131 -404q-1 -254 -131 -404t-344 -150zM561 1556l265 -303h-56l-230 264h-2
l-230 -264h-56l265 303h44z" />
    <glyph glyph-name="otilde" unicode="&#xf5;" horiz-adv-x="1078" 
d="M539 31q193 -1 309 137t116 370t-116 370t-309 138q-192 0 -308 -138t-116 -370q0 -233 116 -370t308 -137zM538 -16q-214 0 -343 150q-130 150 -130 404q1 254 131 404t343 150t343 -150t131 -404q-1 -254 -131 -404t-344 -150zM401 1421q-97 0 -97 -158h-45
q0 93 36 147t105 54q68 0 124 -59q24 -25 46 -49q54 -59 105 -59q97 0 97 158h45q0 -93 -36 -147t-104 -55q-67 -1 -125 59q-24 24 -46 50q-54 60 -105 59z" />
    <glyph glyph-name="odieresis" unicode="&#xf6;" horiz-adv-x="1078" 
d="M539 31q193 -1 309 137t116 370t-116 370t-309 138q-192 0 -308 -138t-116 -370q0 -233 116 -370t308 -137zM538 -16q-214 0 -343 150q-130 150 -130 404q1 254 131 404t343 150t343 -150t131 -404q-1 -254 -131 -404t-344 -150zM678 1253q-22 0 -38 16t-16 38
q0 21 16 37t38 16t39 -16q16 -16 16 -37q-1 -22 -17 -38t-38 -16zM400 1253q-22 0 -38 16t-17 38q0 21 16 37q17 16 39 16t38 -16t16 -37q0 -22 -16 -38t-38 -16z" />
    <glyph glyph-name="divide" unicode="&#xf7;" horiz-adv-x="1179" 
d="M1074 555h-970v45h970v-45zM590 152q-28 0 -49 21t-21 50t20 49t50 20t50 -20t20 -50t-20 -50q-22 -20 -50 -20zM590 841q-28 1 -49 21t-21 50t20 49q20 20 50 20t50 -20q20 -19 20 -49t-20 -50q-22 -20 -50 -21z" />
    <glyph glyph-name="oslash" unicode="&#xf8;" horiz-adv-x="1078" 
d="M1013 540q-1 -254 -131 -406q-130 -150 -343 -150q-165 0 -284 93l-125 -174l-37 26l128 178q-156 151 -156 417q1 266 131 418q130 150 329 150t322 -114l115 159l37 -25l-120 -167q134 -151 134 -405zM528 1046q-180 0 -297 -138q-116 -138 -116 -379q0 -242 135 -382
l569 791q-111 108 -291 108zM539 31q193 -1 309 137t116 369t-114 368l-566 -788q104 -86 255 -86z" />
    <glyph glyph-name="ugrave" unicode="&#xf9;" horiz-adv-x="1063" 
d="M944 1076v-1076h-46v251h-2q-34 -115 -144 -191t-246 -76q-175 0 -284 106t-109 285v701h49v-694q0 -164 96 -258t257 -93q159 0 269 109t110 287v649h50zM576 1253h-53l-246 303h63z" />
    <glyph glyph-name="uacute" unicode="&#xfa;" horiz-adv-x="1063" 
d="M944 1076v-1076h-46v251h-2q-34 -115 -144 -191t-246 -76q-175 0 -284 106t-109 285v701h49v-694q0 -164 96 -258t257 -93q159 0 269 109t110 287v649h50zM533 1253h-53l236 303h63z" />
    <glyph glyph-name="ucircumflex" unicode="&#xfb;" horiz-adv-x="1063" 
d="M944 1076v-1076h-46v251h-2q-34 -115 -144 -191t-246 -76q-175 0 -284 106t-109 285v701h49v-694q0 -164 96 -258t257 -93q159 0 269 109t110 287v649h50zM550 1556l265 -303h-56l-230 264h-2l-230 -264h-56l265 303h44z" />
    <glyph glyph-name="udieresis" unicode="&#xfc;" horiz-adv-x="1063" 
d="M667 1253q-22 0 -38 16t-16 38q0 21 16 37q17 16 39 16t38 -16t16 -37q0 -22 -16 -38t-39 -16zM389 1253q-23 0 -39 16t-16 38q0 21 16 37t38 16t39 -16q16 -16 16 -37q0 -22 -16 -38t-38 -16zM944 1076v-1076h-46v251h-2q-34 -115 -144 -191t-246 -76q-175 0 -284 106
t-109 285v701h49v-694q0 -164 96 -258t257 -93q159 0 269 109t110 287v649h50z" />
    <glyph glyph-name="yacute" unicode="&#xfd;" horiz-adv-x="888" 
d="M449 1253h-53l236 303h63zM178 -343q-26 0 -47 9v47q23 -9 53 -9q70 0 116 46t89 159l28 72l-415 1095h54l387 -1029h2l388 1029h54l-417 -1101q-74 -195 -130 -257t-162 -61z" />
    <glyph glyph-name="thorn" unicode="&#xfe;" horiz-adv-x="1116" 
d="M594 30q182 0 294 140t113 367q0 225 -113 367t-295 142t-298 -142t-116 -366q1 -224 117 -366t298 -142zM597 1092q202 0 328 -154t126 -400t-126 -400t-328 -154q-143 0 -255 82t-158 224h-5v-683h-49v1869h47v-701h5q44 145 156 231t259 86z" />
    <glyph glyph-name="ydieresis" unicode="&#xff;" horiz-adv-x="888" 
d="M583 1253q-22 0 -38 16t-16 38q0 21 16 37q17 16 39 16t38 -16t16 -37q0 -22 -16 -38t-39 -16zM305 1253q-23 0 -39 16t-16 38q0 21 16 37t38 16t39 -16q16 -16 16 -37q0 -22 -16 -38t-38 -16zM178 -343q-26 0 -47 9v47q23 -9 53 -9q70 0 116 46t89 159l28 72l-415 1095
h54l387 -1029h2l388 1029h54l-417 -1101q-74 -195 -130 -257t-162 -61z" />
    <glyph glyph-name="Amacron" unicode="&#x100;" horiz-adv-x="1201" 
d="M882 1659v-43h-564v43h564zM598 1374l-315 -827h635l-315 827h-5zM1125 0l-189 501h-671l-190 -501h-55l555 1443h51l555 -1443h-56z" />
    <glyph glyph-name="amacron" unicode="&#x101;" horiz-adv-x="1021" 
d="M818 1348v-43h-584v43h584zM440 -16q-150 0 -250 84t-100 220q0 274 380 304l389 30v97q-1 153 -87 240t-238 87t-244 -74q-93 -74 -114 -209h-47q17 153 126 241t281 88t272 -100t100 -270v-722h-49v245h-1q-40 -117 -154 -189t-264 -72zM466 30q152 0 272 108t121 258
v182l-381 -29q-166 -13 -252 -80t-86 -181t88 -186q86 -72 238 -72z" />
    <glyph glyph-name="Abreve" unicode="&#x102;" horiz-adv-x="1201" 
d="M343 1771h45q0 -75 58 -125t154 -50t154 50t58 125h45q1 -99 -71 -158t-186 -59t-186 59t-71 158zM598 1374l-315 -827h635l-315 827h-5zM1125 0l-189 501h-671l-190 -501h-55l555 1443h51l555 -1443h-56z" />
    <glyph glyph-name="abreve" unicode="&#x103;" horiz-adv-x="1021" 
d="M275 1490h45q0 -88 58 -141t155 -53t155 53t58 141h45q0 -112 -72 -174t-186 -63q-114 1 -186 63t-72 174zM440 -16q-150 0 -250 84t-100 220q0 274 380 304l389 30v97q-1 153 -87 240t-238 87t-244 -74q-93 -74 -114 -209h-47q17 153 126 241t281 88t272 -100t100 -270
v-722h-49v245h-1q-40 -117 -154 -189t-264 -72zM466 30q152 0 272 108t121 258v182l-381 -29q-166 -13 -252 -80t-86 -181t88 -186q86 -72 238 -72z" />
    <glyph glyph-name="Aogonek" unicode="&#x104;" horiz-adv-x="1201" 
d="M598 1373l-315 -826h635l-315 826h-5zM1156 -406q-84 0 -136 50t-52 131q0 134 154 237l-186 488h-671l-190 -500h-55l555 1443h51l554 -1445q-163 -91 -163 -219q-1 -63 41 -101t108 -38h15v-45q-2 -1 -25 -1z" />
    <glyph glyph-name="aogonek" unicode="&#x105;" horiz-adv-x="1021" 
d="M466 30q152 0 272 108t121 258v182l-381 -29q-166 -13 -252 -80t-86 -181t88 -186q86 -72 238 -72zM883 -406q-83 0 -135 50t-53 131q0 134 164 240v230h-1q-40 -117 -154 -189t-264 -72t-250 84t-100 220q0 274 380 304l389 30v97q-1 153 -87 240t-238 87t-244 -74
q-93 -74 -114 -209h-47q17 153 126 241t281 88t272 -100t100 -270v-725q-90 -56 -127 -105t-37 -112q0 -64 42 -102t107 -38h15v-45q-2 -1 -25 -1z" />
    <glyph glyph-name="Cacute" unicode="&#x106;" horiz-adv-x="1303" 
d="M692 -20q-287 0 -458 204t-171 544q-1 340 169 538q170 197 460 197q215 -1 377 -141t181 -343h-49q-20 185 -167 311t-342 126q-266 0 -422 -184t-157 -504t157 -510t422 -191q203 0 347 115t162 298h49q-10 -134 -86 -239t-200 -163t-272 -58zM711 1554h-56l293 287h66
z" />
    <glyph glyph-name="cacute" unicode="&#x107;" horiz-adv-x="1019" 
d="M539 1254h-53l236 303h63zM534 1046q-193 0 -306 -138t-113 -370q1 -233 113 -370t306 -137q145 0 246 76t126 200h50q-26 -145 -141 -234t-281 -89q-215 0 -342 150t-127 404t127 404t342 150q163 0 280 -94t144 -238h-50q-26 126 -128 206t-246 80z" />
    <glyph glyph-name="Ccircumflex" unicode="&#x108;" horiz-adv-x="1303" 
d="M670 1841h46l266 -287h-59l-229 249h-2l-229 -249h-59zM692 -20q-287 0 -458 204t-171 544q-1 340 169 538q170 197 460 197q215 -1 377 -141t181 -343h-49q-20 185 -167 311t-342 126q-266 0 -422 -184t-157 -504t157 -510t422 -191q203 0 347 115t162 298h49
q-10 -134 -86 -239t-200 -163t-272 -58z" />
    <glyph glyph-name="ccircumflex" unicode="&#x109;" horiz-adv-x="1019" 
d="M534 1046q-193 0 -306 -138t-113 -370q1 -233 113 -370t306 -137q145 0 246 76t126 200h50q-26 -145 -141 -234t-281 -89q-215 0 -342 150t-127 404t127 404t342 150q163 0 280 -94t144 -238h-50q-26 126 -128 206t-246 80zM556 1557l265 -303h-56l-230 264h-2l-230 -264
h-56l265 303h44z" />
    <glyph glyph-name="Cdotaccent" unicode="&#x10a;" horiz-adv-x="1303" 
d="M692 -20q-287 0 -458 204t-171 544q-1 340 169 538q170 197 460 197q215 -1 377 -141t181 -343h-49q-20 185 -167 311t-342 126q-266 0 -422 -184t-157 -504t157 -510t422 -191q203 0 347 115t162 298h49q-10 -134 -86 -239t-200 -163t-272 -58zM693 1556q-26 0 -45 19
t-19 45t19 44q19 19 45 19t45 -19q19 -18 19 -44t-19 -45t-45 -19z" />
    <glyph glyph-name="cdotaccent" unicode="&#x10b;" horiz-adv-x="1019" 
d="M534 1254q-26 0 -45 19t-19 45t19 45t45 19t46 -19t19 -45q1 -26 -19 -45t-46 -19zM534 1046q-193 0 -306 -138t-113 -370q1 -233 113 -370t306 -137q145 0 246 76t126 200h50q-26 -145 -141 -234t-281 -89q-215 0 -342 150t-127 404t127 404t342 150q163 0 280 -94
t144 -238h-50q-26 126 -128 206t-246 80z" />
    <glyph glyph-name="Ccaron" unicode="&#x10c;" horiz-adv-x="1303" 
d="M670 1554l-266 287h59l229 -250h2l229 250h59l-266 -287h-46zM692 -20q-287 0 -458 204t-171 544q-1 340 169 538q170 197 460 197q215 -1 377 -141t181 -343h-49q-20 185 -167 311t-342 126q-266 0 -422 -184t-157 -504t157 -510t422 -191q203 0 347 115t162 298h49
q-10 -134 -86 -239t-200 -163t-272 -58z" />
    <glyph glyph-name="ccaron" unicode="&#x10d;" horiz-adv-x="1019" 
d="M534 1046q-193 0 -306 -138t-113 -370q1 -233 113 -370t306 -137q145 0 246 76t126 200h50q-26 -145 -141 -234t-281 -89q-215 0 -342 150t-127 404t127 404t342 150q163 0 280 -94t144 -238h-50q-26 126 -128 206t-246 80zM556 1254h-44l-265 303h56l230 -264h2l230 264
h56z" />
    <glyph glyph-name="Dcaron" unicode="&#x10e;" horiz-adv-x="1313" 
d="M175 1396v-1349h384q309 0 475 175q166 176 166 500t-166 499t-475 175h-384zM124 1443h436q330 0 510 -188q180 -187 180 -533t-180 -534t-510 -188h-436v1443zM530 1554l-266 287h59l229 -250h2l229 250h59l-266 -287h-46z" />
    <glyph glyph-name="dcaron" unicode="&#x10f;" horiz-adv-x="1209" 
d="M528 1046q-182 0 -298 -141q-115 -141 -115 -367t115 -366q116 -141 298 -141q182 -1 300 141t118 366t-118 366t-300 142zM524 -16q-202 0 -330 154t-129 400q1 246 129 400t330 154q156 0 272 -95t148 -236h2v745h50v-1506h-46v322h-2q-36 -146 -152 -242t-272 -96z
M1192 1476h47l-10 -355h-37v355z" />
    <glyph glyph-name="Dcroat" unicode="&#x110;" horiz-adv-x="1367" 
d="M167 1443h436q330 0 510 -188q180 -187 180 -533t-180 -534t-510 -188h-436v717h-110v47h110v679zM218 47h384q308 0 474 175q166 176 167 500q-1 324 -167 499t-474 175h-384v-632h382v-47h-382v-670z" />
    <glyph glyph-name="dcroat" unicode="&#x111;" horiz-adv-x="1128" 
d="M1104 1326v-44h-107v-1282h-47v300h-5q-44 -144 -156 -230t-259 -86q-204 0 -334 154t-130 399q0 243 130 399t334 156q144 0 256 -83t157 -224h5v497h-298v44h298v184h49v-184h107zM532 30q184 0 300 142t116 366t-116 366t-300 142t-300 -142t-116 -366t116 -366
t300 -142z" />
    <glyph glyph-name="Emacron" unicode="&#x112;" horiz-adv-x="1050" 
d="M819 1659v-43h-564v43h564zM950 47v-47h-826v1443h826v-47h-776v-632h740v-46h-740v-671h776z" />
    <glyph glyph-name="emacron" unicode="&#x113;" horiz-adv-x="1056" 
d="M818 1348v-43h-584v43h584zM541 -16q-219 0 -347 147t-129 402q0 255 128 407q129 152 337 152t334 -143t127 -375v-38h-876v-2q0 -236 116 -370t311 -134q156 0 258 75t126 194h51q-28 -139 -144 -227t-292 -88zM534 1046q-182 0 -295 -128q-114 -128 -123 -337h825
q-1 207 -113 336t-294 129z" />
    <glyph glyph-name="Ebreve" unicode="&#x114;" horiz-adv-x="1050" 
d="M280 1771h45q1 -75 59 -125t153 -50t153 50t59 125h45q0 -99 -72 -158t-185 -59t-185 59t-72 158zM950 47v-47h-826v1443h826v-47h-776v-632h740v-46h-740v-671h776z" />
    <glyph glyph-name="ebreve" unicode="&#x115;" horiz-adv-x="1056" 
d="M275 1490h45q0 -88 58 -141t155 -53t155 53t58 141h45q0 -112 -72 -174t-186 -63q-114 1 -186 63t-72 174zM541 -16q-219 0 -347 147t-129 402q0 255 128 407q129 152 337 152t334 -143t127 -375v-38h-876v-2q0 -236 116 -370t311 -134q156 0 258 75t126 194h51
q-28 -139 -144 -227t-292 -88zM534 1046q-182 0 -295 -128q-114 -128 -123 -337h825q-1 207 -113 336t-294 129z" />
    <glyph glyph-name="Edotaccent" unicode="&#x116;" horiz-adv-x="1050" 
d="M950 47v-47h-826v1443h826v-47h-776v-632h740v-46h-740v-671h776zM537 1556q-26 0 -45 19t-19 45t19 44q19 19 45 19t45 -19q19 -18 19 -44t-19 -45t-45 -19z" />
    <glyph glyph-name="edotaccent" unicode="&#x117;" horiz-adv-x="1056" 
d="M541 -16q-219 0 -347 147t-129 402q0 255 128 407q129 152 337 152t334 -143t127 -375v-38h-876v-2q0 -236 116 -370t311 -134q156 0 258 75t126 194h51q-28 -139 -144 -227t-292 -88zM534 1046q-182 0 -295 -128q-114 -128 -123 -337h825q-1 207 -113 336t-294 129z
M534 1254q-26 0 -46 19t-19 45q0 26 19 45t45 19q25 0 45 -19t20 -45t-20 -45q-18 -19 -44 -19z" />
    <glyph glyph-name="Eogonek" unicode="&#x118;" horiz-adv-x="1050" 
d="M124 0v1443h826v-47h-776v-632h740v-46h-740v-671h776v-44q-166 -93 -166 -222q0 -61 42 -101t107 -40h17v-45l-12 -1h-15q-83 0 -136 51t-53 131q0 125 136 224h-746z" />
    <glyph glyph-name="eogonek" unicode="&#x119;" horiz-adv-x="1056" 
d="M534 1046q-181 0 -295 -128t-123 -337h825q0 209 -113 337t-294 128zM531 -217q0 122 123 210v2q-41 -11 -113 -11q-221 0 -349 148t-127 402q0 254 128 406q129 152 337 152t334 -143t127 -375v-38h-876v-2q0 -234 114 -369t313 -135q150 0 254 72t130 197h51
q-34 -169 -190 -263q-109 -64 -158 -124t-49 -125t42 -106t107 -41q16 0 17 1v-46l-27 -1q-80 0 -134 54t-54 135z" />
    <glyph glyph-name="Ecaron" unicode="&#x11a;" horiz-adv-x="1050" 
d="M950 47v-47h-826v1443h826v-47h-776v-632h740v-46h-740v-671h776zM514 1554l-266 287h59l229 -250h2l229 250h59l-266 -287h-46z" />
    <glyph glyph-name="ecaron" unicode="&#x11b;" horiz-adv-x="1056" 
d="M541 -16q-219 0 -347 147t-129 402q0 255 128 407q129 152 337 152t334 -143t127 -375v-38h-876v-2q0 -236 116 -370t311 -134q156 0 258 75t126 194h51q-28 -139 -144 -227t-292 -88zM534 1046q-182 0 -295 -128q-114 -128 -123 -337h825q-1 207 -113 336t-294 129z
M555 1254h-44l-265 303h56l230 -264h2l230 264h56z" />
    <glyph glyph-name="Gcircumflex" unicode="&#x11c;" horiz-adv-x="1332" 
d="M1259 564q1 -272 -153 -428t-421 -156q-181 0 -323 94t-220 266q-78 171 -79 391q0 329 171 531t451 201q213 0 369 -118t195 -309h-49q-42 172 -183 276t-332 104q-258 0 -415 -188t-157 -499t159 -507t408 -195q250 0 390 143t140 392v100h-531v46h580v-144zM662 1841
h46l266 -287h-59l-229 249h-2l-229 -249h-59z" />
    <glyph glyph-name="gcircumflex" unicode="&#x11d;" horiz-adv-x="1106" 
d="M558 -354q-182 0 -293 64q-110 64 -134 169h53q20 -83 118 -135t258 -52t268 82t109 224v318h-2q-33 -142 -147 -236t-269 -95q-202 -1 -328 153t-126 400q1 246 127 400t327 154q156 0 270 -96t149 -241h2v321h46v-1076q0 -166 -123 -260t-305 -94zM522 31
q182 -1 299 141q116 142 116 366t-116 366q-117 142 -299 142t-294 -141t-113 -367q1 -226 113 -366t294 -141zM581 1557l265 -303h-56l-230 264h-2l-230 -264h-56l265 303h44z" />
    <glyph glyph-name="Gbreve" unicode="&#x11e;" horiz-adv-x="1332" 
d="M428 1771h45q1 -75 59 -125t153 -50t153 50t59 125h45q0 -99 -72 -158t-185 -59t-185 59t-72 158zM1259 564q1 -272 -153 -428t-421 -156q-181 0 -323 94t-220 266q-78 171 -79 391q0 329 171 531t451 201q213 0 369 -118t195 -309h-49q-42 172 -183 276t-332 104
q-258 0 -415 -188t-157 -499t159 -507t408 -195q250 0 390 143t140 392v100h-531v46h580v-144z" />
    <glyph glyph-name="gbreve" unicode="&#x11f;" horiz-adv-x="1106" 
d="M558 -354q-182 0 -293 64q-110 64 -134 169h53q20 -83 118 -135t258 -52t268 82t109 224v318h-2q-33 -142 -147 -236t-269 -95q-202 -1 -328 153t-126 400q1 246 127 400t327 154q156 0 270 -96t149 -241h2v321h46v-1076q0 -166 -123 -260t-305 -94zM522 31
q182 -1 299 141q116 142 116 366t-116 366q-117 142 -299 142t-294 -141t-113 -367q1 -226 113 -366t294 -141zM301 1490h45q0 -88 58 -141t155 -53t155 53t58 141h45q0 -112 -72 -174t-186 -63q-114 1 -186 63t-72 174z" />
    <glyph glyph-name="Gdotaccent" unicode="&#x120;" horiz-adv-x="1332" 
d="M1259 564q1 -272 -153 -428t-421 -156q-181 0 -323 94t-220 266q-78 171 -79 391q0 329 171 531t451 201q213 0 369 -118t195 -309h-49q-42 172 -183 276t-332 104q-258 0 -415 -188t-157 -499t159 -507t408 -195q250 0 390 143t140 392v100h-531v46h580v-144zM685 1556
q-26 0 -45 19t-19 45t19 44q19 19 45 19t45 -19q19 -18 19 -44t-19 -45t-45 -19z" />
    <glyph glyph-name="gdotaccent" unicode="&#x121;" horiz-adv-x="1106" 
d="M558 -354q-182 0 -293 64q-110 64 -134 169h53q20 -83 118 -135t258 -52t268 82t109 224v318h-2q-33 -142 -147 -236t-269 -95q-202 -1 -328 153t-126 400q1 246 127 400t327 154q156 0 270 -96t149 -241h2v321h46v-1076q0 -166 -123 -260t-305 -94zM522 31
q182 -1 299 141q116 142 116 366t-116 366q-117 142 -299 142t-294 -141t-113 -367q1 -226 113 -366t294 -141zM560 1254q-26 0 -46 19t-19 45q0 26 19 45t45 19q25 0 45 -19t20 -45t-20 -45q-18 -19 -44 -19z" />
    <glyph glyph-name="Gcommaaccent" unicode="&#x122;" horiz-adv-x="1332" 
d="M1259 564q1 -272 -153 -428t-421 -156q-181 0 -323 94t-220 266q-78 171 -79 391q0 329 171 531t451 201q213 0 369 -118t195 -309h-49q-42 172 -183 276t-332 104q-258 0 -415 -188t-157 -499t159 -507t408 -195q250 0 390 143t140 392v100h-531v46h580v-144zM616 -480
h-46l102 338h57z" />
    <glyph glyph-name="gcommaaccent" unicode="&#x123;" horiz-adv-x="1106" 
d="M558 -354q-182 0 -293 64q-110 64 -134 169h53q20 -83 118 -135t258 -52t268 82t109 224v318h-2q-33 -142 -147 -236t-269 -95q-202 -1 -328 153t-126 400q1 246 127 400t327 154q156 0 270 -96t149 -241h2v321h46v-1076q0 -166 -123 -260t-305 -94zM522 31
q182 -1 299 141q116 142 116 366t-116 366q-117 142 -299 142t-294 -141t-113 -367q1 -226 113 -366t294 -141zM473 -833h-46l102 338h57z" />
    <glyph glyph-name="Hcircumflex" unicode="&#x124;" horiz-adv-x="1296" 
d="M625 1841h46l266 -287h-59l-229 249h-2l-229 -249h-59zM1172 0h-50v718h-948v-718h-50v1443h50v-678h948v678h50v-1443z" />
    <glyph glyph-name="hcircumflex" unicode="&#x125;" horiz-adv-x="1075" 
d="M132 1904h46l266 -287h-59l-229 249h-2l-229 -249h-59zM130 0v1506h49v-684h2q35 120 139 195t244 75q178 0 288 -108t110 -289v-695h-50v693q0 163 -98 258t-260 95t-268 -112t-107 -289v-645h-49z" />
    <glyph glyph-name="Hbar" unicode="&#x126;" horiz-adv-x="1373" 
d="M1354 1181v-46h-144v-1135h-50v718h-948v-718h-50v1135h-143v46h143v262h50v-262h948v262h50v-262h144zM1160 765v370h-948v-370h948z" />
    <glyph glyph-name="hbar" unicode="&#x127;" horiz-adv-x="1152" 
d="M218 831h4q40 121 142 191t237 70q177 0 288 -106t111 -282v-704h-49v694q0 158 -101 255t-258 97q-158 0 -266 -112t-108 -292v-642h-50v1280h-148v44h148v186h50v-186h297v-44h-297v-449z" />
    <glyph glyph-name="Itilde" unicode="&#x128;" horiz-adv-x="298" 
d="M12 1720q-97 0 -97 -158h-45q0 92 36 146t105 55q69 -1 125 -59q24 -24 46 -49q53 -59 104 -59q97 0 97 158h45q0 -94 -36 -148t-104 -54t-126 60q-24 24 -46 48q-54 60 -104 60zM174 0h-50v1443h50v-1443z" />
    <glyph glyph-name="itilde" unicode="&#x129;" horiz-adv-x="309" 
d="M17 1422q-97 0 -97 -158h-45q0 92 36 146t105 55q68 -1 124 -59q24 -24 46 -49q53 -59 105 -59q97 0 97 158h45q0 -94 -36 -148t-104 -54q-67 0 -125 60q-24 24 -46 48q-54 60 -105 60zM130 0v1076h49v-1076h-49z" />
    <glyph glyph-name="Imacron" unicode="&#x12a;" horiz-adv-x="298" 
d="M431 1659v-43h-564v43h564zM174 0h-50v1443h50v-1443z" />
    <glyph glyph-name="imacron" unicode="&#x12b;" horiz-adv-x="309" 
d="M440 1348v-43h-584v43h584zM130 0v1076h49v-1076h-49z" />
    <glyph glyph-name="Ibreve" unicode="&#x12c;" horiz-adv-x="298" 
d="M-108 1771h45q1 -75 59 -125t153 -50t153 50t59 125h45q0 -99 -72 -158t-185 -59t-185 59t-72 158zM174 0h-50v1443h50v-1443z" />
    <glyph glyph-name="ibreve" unicode="&#x12d;" horiz-adv-x="309" 
d="M-103 1490h45q0 -88 58 -141t155 -53t155 53t58 141h45q0 -112 -72 -174t-186 -63q-114 1 -186 63t-72 174zM130 0v1076h49v-1076h-49z" />
    <glyph glyph-name="Iogonek" unicode="&#x12e;" horiz-adv-x="298" 
d="M149 -406q-83 0 -135 50t-53 131q0 135 163 240v1428h50v-1447q-90 -56 -127 -105t-37 -111t42 -102q42 -38 107 -38h15v-45q-2 -1 -25 -1z" />
    <glyph glyph-name="iogonek" unicode="&#x12f;" horiz-adv-x="309" 
d="M154 -406q-84 0 -136 50t-52 131q0 135 164 240v1061h49v-1079q-90 -57 -127 -106t-37 -111q-1 -62 41 -102q42 -38 108 -38h15v-45q-2 -1 -25 -1zM154 1366q-20 0 -34 14t-14 34t14 34t35 14q20 0 34 -14t14 -34q-1 -20 -15 -34t-34 -14z" />
    <glyph glyph-name="Idotaccent" unicode="&#x130;" horiz-adv-x="298" 
d="M149 1556q-26 0 -45 19t-19 45t19 44q19 19 45 19t45 -19q19 -18 19 -44t-19 -45t-45 -19zM174 0h-50v1443h50v-1443z" />
    <glyph glyph-name="dotlessi" unicode="&#x131;" horiz-adv-x="309" 
d="M130 0v1076h49v-1076h-49z" />
    <glyph glyph-name="u0132" unicode="&#x132;" horiz-adv-x="1231" 
d="M726 26q148 0 240 95q91 95 91 263v1059h50v-1062q-1 -185 -105 -293t-275 -109q-171 0 -277 94t-111 242h49q6 -129 98 -209t240 -80zM174 0h-50v1443h50v-1443z" />
    <glyph glyph-name="u0133" unicode="&#x133;" horiz-adv-x="618" 
d="M464 1366q-20 0 -34 14t-15 34q1 20 15 34t34 14t34 -14t14 -34t-14 -34t-34 -14zM488 1076v-1156q0 -138 -65 -200t-198 -62h-29v45h27q113 0 165 50t51 163v1160h49zM154 1366q-20 0 -34 14t-14 34t14 34t35 14q20 0 34 -14t14 -34q-1 -20 -15 -34t-34 -14zM130 0v1076
h49v-1076h-49z" />
    <glyph glyph-name="Jcircumflex" unicode="&#x134;" horiz-adv-x="933" 
d="M761 1841h46l266 -287h-59l-229 249h-2l-229 -249h-59zM428 26q148 0 240 95q91 95 91 263v1059h50v-1062q-1 -185 -105 -293t-275 -109q-171 0 -277 94t-111 242h49q6 -129 98 -209t240 -80z" />
    <glyph glyph-name="jcircumflex" unicode="&#x135;" horiz-adv-x="309" 
d="M176 1557l265 -303h-56l-230 264h-2l-230 -264h-56l265 303h44zM179 1076v-1156q0 -138 -65 -200t-198 -62h-29v45h27q112 0 164 50t52 163v1160h49z" />
    <glyph glyph-name="Kcommaaccent" unicode="&#x136;" horiz-adv-x="1107" 
d="M456 -480h-46l102 338h57zM174 0h-50v1443h50v-836h4l784 836h64l-594 -635l664 -808h-64l-636 773l-222 -237v-536z" />
    <glyph glyph-name="kcommaaccent" unicode="&#x137;" horiz-adv-x="913" 
d="M398 -480h-46l102 338h57zM179 0h-49v1506h49v-1003h2l645 573h70l-517 -463l519 -613h-65l-493 583l-161 -142v-441z" />
    <glyph glyph-name="Lacute" unicode="&#x139;" horiz-adv-x="1009" 
d="M949 47v-47h-825v1443h50v-1396h775zM167 1554h-56l293 287h66z" />
    <glyph glyph-name="lacute" unicode="&#x13a;" horiz-adv-x="309" 
d="M130 0v1506h49v-1506h-49zM173 1617h-56l293 287h66z" />
    <glyph glyph-name="Lcommaaccent" unicode="&#x13b;" horiz-adv-x="1009" 
d="M949 47v-47h-825v1443h50v-1396h775zM468 -480h-46l102 338h57z" />
    <glyph glyph-name="lcommaaccent" unicode="&#x13c;" horiz-adv-x="309" 
d="M130 0v1506h49v-1506h-49zM86 -480h-46l102 338h57z" />
    <glyph glyph-name="Lcaron" unicode="&#x13d;" horiz-adv-x="1009" 
d="M949 47v-47h-825v1443h50v-1396h775zM408 1443h49l-12 -355h-37v355z" />
    <glyph glyph-name="lcaron" unicode="&#x13e;" horiz-adv-x="393" 
d="M130 0v1506h49v-1506h-49zM376 1476h47l-11 -355h-36v355z" />
    <glyph glyph-name="Lslash" unicode="&#x141;" horiz-adv-x="1046" 
d="M211 47h775v-47h-825v721l-128 -71v47l128 71v675h50v-648l406 224v-47l-406 -224v-701z" />
    <glyph glyph-name="lslash" unicode="&#x142;" horiz-adv-x="312" 
d="M179 0h-49v745l-116 -71v51l116 71v710h49v-680l118 73v-51l-118 -73v-775z" />
    <glyph glyph-name="Nacute" unicode="&#x143;" horiz-adv-x="1315" 
d="M174 0h-50v1443h55l958 -1348h4v1348h50v-1443h-46l-967 1359h-4v-1359zM675 1554h-56l293 287h66z" />
    <glyph glyph-name="nacute" unicode="&#x144;" horiz-adv-x="1063" 
d="M120 0v1076h46v-254h2q35 122 139 196t243 74q180 0 290 -108t110 -288v-696h-49v694q0 160 -99 256q-100 96 -262 96t-266 -112t-105 -288v-646h-49zM543 1254h-53l236 303h63z" />
    <glyph glyph-name="Ncommaaccent" unicode="&#x145;" horiz-adv-x="1315" 
d="M174 0h-50v1443h55l958 -1348h4v1348h50v-1443h-46l-967 1359h-4v-1359zM588 -480h-46l102 338h57z" />
    <glyph glyph-name="ncommaaccent" unicode="&#x146;" horiz-adv-x="1063" 
d="M120 0v1076h46v-254h2q35 122 139 196t243 74q180 0 290 -108t110 -288v-696h-49v694q0 160 -99 256q-100 96 -262 96t-266 -112t-105 -288v-646h-49zM451 -480h-46l102 338h57z" />
    <glyph glyph-name="Ncaron" unicode="&#x147;" horiz-adv-x="1315" 
d="M174 0h-50v1443h55l958 -1348h4v1348h50v-1443h-46l-967 1359h-4v-1359zM634 1554l-266 287h59l229 -250h2l229 250h59l-266 -287h-46z" />
    <glyph glyph-name="ncaron" unicode="&#x148;" horiz-adv-x="1063" 
d="M120 0v1076h46v-254h2q35 122 139 196t243 74q180 0 290 -108t110 -288v-696h-49v694q0 160 -99 256q-100 96 -262 96t-266 -112t-105 -288v-646h-49zM560 1254h-44l-265 303h56l230 -264h2l230 264h56z" />
    <glyph glyph-name="Omacron" unicode="&#x14c;" horiz-adv-x="1398" 
d="M981 1659v-43h-564v43h564zM698 1416q-268 0 -426 -188t-159 -506q0 -318 159 -506q158 -188 426 -189q268 1 428 189t159 506q0 318 -159 506q-160 188 -428 188zM698 1463q292 -1 464 -201t173 -540q0 -340 -172 -542q-173 -200 -465 -200t-464 200t-171 542
q0 340 172 540q171 200 463 201z" />
    <glyph glyph-name="omacron" unicode="&#x14d;" horiz-adv-x="1078" 
d="M539 31q193 -1 309 137t116 370t-116 370t-309 138q-192 0 -308 -138t-116 -370q0 -233 116 -370t308 -137zM538 -16q-214 0 -343 150q-130 150 -130 404q1 254 131 404t343 150t343 -150t131 -404q-1 -254 -131 -404t-344 -150zM824 1347v-43h-584v43h584z" />
    <glyph glyph-name="Obreve" unicode="&#x14e;" horiz-adv-x="1398" 
d="M442 1771h45q1 -75 59 -125t153 -50t153 50t59 125h45q0 -99 -72 -158t-185 -59t-185 59t-72 158zM698 1416q-268 0 -426 -188t-159 -506q0 -318 159 -506q158 -188 426 -189q268 1 428 189t159 506q0 318 -159 506q-160 188 -428 188zM698 1463q292 -1 464 -201
t173 -540q0 -340 -172 -542q-173 -200 -465 -200t-464 200t-171 542q0 340 172 540q171 200 463 201z" />
    <glyph glyph-name="obreve" unicode="&#x14f;" horiz-adv-x="1078" 
d="M539 31q193 -1 309 137t116 370t-116 370t-309 138q-192 0 -308 -138t-116 -370q0 -233 116 -370t308 -137zM538 -16q-214 0 -343 150q-130 150 -130 404q1 254 131 404t343 150t343 -150t131 -404q-1 -254 -131 -404t-344 -150zM281 1489h45q0 -88 58 -141t155 -53
t155 53t58 141h45q0 -113 -72 -175t-186 -62t-186 62t-72 175z" />
    <glyph glyph-name="Ohungarumlaut" unicode="&#x150;" horiz-adv-x="1398" 
d="M698 1416q-268 0 -426 -188t-159 -506q0 -318 159 -506q158 -188 426 -189q268 1 428 189t159 506q0 318 -159 506q-160 188 -428 188zM698 1463q292 -1 464 -201t173 -540q0 -340 -172 -542q-173 -200 -465 -200t-464 200t-171 542q0 340 172 540q171 200 463 201z
M609 1554h-56l293 287h66zM863 1554h-56l294 287h65z" />
    <glyph glyph-name="ohungarumlaut" unicode="&#x151;" horiz-adv-x="1078" 
d="M539 31q193 -1 309 137t116 370t-116 370t-309 138q-192 0 -308 -138t-116 -370q0 -233 116 -370t308 -137zM538 -16q-214 0 -343 150q-130 150 -130 404q1 254 131 404t343 150t343 -150t131 -404q-1 -254 -131 -404t-344 -150zM400 1253l235 303h62l-245 -303h-52z
M623 1253l235 303h62l-245 -303h-52z" />
    <glyph glyph-name="OE" unicode="&#x152;" horiz-adv-x="2167" 
d="M1297 0v414q-65 -208 -219 -321t-373 -113q-297 0 -469 200t-173 542q1 343 173 542t469 199q219 0 373 -113t219 -320v413h797v-47h-747v-632h711v-46h-711v-671h747v-47h-797zM704 1416q-270 0 -430 -188t-161 -506q1 -317 161 -506t431 -189q271 1 431 189t161 506
q0 318 -161 506q-162 188 -432 188z" />
    <glyph glyph-name="oe" unicode="&#x153;" horiz-adv-x="1955" 
d="M115 534q0 -232 116 -370t308 -137q193 0 309 138t116 370t-116 370t-309 138q-192 0 -308 -138q-116 -139 -116 -371zM1840 580q0 206 -114 336t-292 130q-180 0 -295 -128t-124 -338h825zM1440 -16q-176 0 -302 109q-124 109 -147 276h-5q-23 -172 -146 -280t-301 -108
q-216 -1 -345 149t-129 404q-1 254 129 405q130 150 345 150q177 1 300 -107t147 -277h5q23 167 145 277t312 110t316 -142t126 -375v-40h-876v-2q0 -227 116 -365t311 -138q155 0 257 75t127 194h51q-28 -139 -144 -227t-292 -88z" />
    <glyph glyph-name="Racute" unicode="&#x154;" horiz-adv-x="1124" 
d="M174 630v-630h-50v1443h448q216 -1 340 -109t124 -282t-92 -279t-255 -133l381 -640h-57l-376 632q-36 -2 -66 -2h-397zM174 1396v-720h397q193 0 303 96t111 266q0 168 -110 263t-305 95h-396zM501 1554h-56l293 287h66z" />
    <glyph glyph-name="racute" unicode="&#x155;" horiz-adv-x="603" 
d="M465 1092q59 0 108 -21v-51q-50 25 -116 25q-132 -1 -210 -105t-78 -270v-670h-49v1076h46v-223h2q71 239 297 239zM339 1254h-53l236 303h63z" />
    <glyph glyph-name="Rcommaaccent" unicode="&#x156;" horiz-adv-x="1124" 
d="M414 -480h-46l102 338h57zM174 630v-630h-50v1443h448q216 -1 340 -109t124 -282t-92 -279t-255 -133l381 -640h-57l-376 632q-36 -2 -66 -2h-397zM174 1396v-720h397q193 0 303 96t111 266q0 168 -110 263t-305 95h-396z" />
    <glyph glyph-name="rcommaaccent" unicode="&#x157;" horiz-adv-x="603" 
d="M76 -480h-46l102 338h57zM465 1092q59 0 108 -21v-51q-50 25 -116 25q-132 -1 -210 -105t-78 -270v-670h-49v1076h46v-223h2q71 239 297 239z" />
    <glyph glyph-name="Rcaron" unicode="&#x158;" horiz-adv-x="1124" 
d="M460 1554l-266 287h59l229 -250h2l229 250h59l-266 -287h-46zM174 630v-630h-50v1443h448q216 -1 340 -109t124 -282t-92 -279t-255 -133l381 -640h-57l-376 632q-36 -2 -66 -2h-397zM174 1396v-720h397q193 0 303 96t111 266q0 168 -110 263t-305 95h-396z" />
    <glyph glyph-name="rcaron" unicode="&#x159;" horiz-adv-x="603" 
d="M465 1092q59 0 108 -21v-51q-50 25 -116 25q-132 -1 -210 -105t-78 -270v-670h-49v1076h46v-223h2q71 239 297 239zM356 1254h-44l-265 303h56l230 -264h2l230 264h56z" />
    <glyph glyph-name="Sacute" unicode="&#x15a;" horiz-adv-x="1114" 
d="M568 26q196 0 319 100t123 251q0 120 -85 193t-277 121l-167 42q-201 49 -295 133t-94 216q0 163 135 272t331 109q196 1 331 -103q136 -104 143 -258h-50q-7 135 -129 225t-297 90q-174 1 -294 -95t-120 -240q0 -114 85 -185t270 -117l165 -41q206 -53 302 -137t96 -223
q0 -175 -136 -287t-356 -112q-218 0 -363 113t-153 289h50q8 -156 140 -256q130 -100 326 -100zM571 1554h-56l293 287h66z" />
    <glyph glyph-name="sacute" unicode="&#x15b;" horiz-adv-x="905" 
d="M459 1254h-53l236 303h63zM92 820q0 112 105 192t261 80t258 -88t116 -240h-48q-14 126 -102 204t-222 78q-135 0 -227 -67t-92 -161t57 -142t182 -78l167 -40q160 -38 231 -104t71 -186t-110 -202t-280 -82q-171 0 -283 92t-120 228h50q10 -114 109 -194t243 -80t242 68
t99 170q0 101 -62 156t-205 89l-169 39q-139 33 -205 94q-66 62 -66 174z" />
    <glyph glyph-name="Scircumflex" unicode="&#x15c;" horiz-adv-x="1114" 
d="M530 1841h46l266 -287h-59l-229 249h-2l-229 -249h-59zM568 26q196 0 319 100t123 251q0 120 -85 193t-277 121l-167 42q-201 49 -295 133t-94 216q0 163 135 272t331 109q196 1 331 -103q136 -104 143 -258h-50q-7 135 -129 225t-297 90q-174 1 -294 -95t-120 -240
q0 -114 85 -185t270 -117l165 -41q206 -53 302 -137t96 -223q0 -175 -136 -287t-356 -112q-218 0 -363 113t-153 289h50q8 -156 140 -256q130 -100 326 -100z" />
    <glyph glyph-name="scircumflex" unicode="&#x15d;" horiz-adv-x="905" 
d="M92 820q0 112 105 192t261 80t258 -88t116 -240h-48q-14 126 -102 204t-222 78q-135 0 -227 -67t-92 -161t57 -142t182 -78l167 -40q160 -38 231 -104t71 -186t-110 -202t-280 -82q-171 0 -283 92t-120 228h50q10 -114 109 -194t243 -80t242 68t99 170q0 101 -62 156
t-205 89l-169 39q-139 33 -205 94q-66 62 -66 174zM476 1557l265 -303h-56l-230 264h-2l-230 -264h-56l265 303h44z" />
    <glyph glyph-name="Scedilla" unicode="&#x15e;" horiz-adv-x="1114" 
d="M1060 379q0 -171 -132 -283t-343 -116l-51 -120q94 0 150 -42t56 -114t-60 -118t-146 -48q-86 0 -132 17v43q45 -17 119 -17q73 0 123 36t50 89q0 52 -42 82t-122 30h-50v33l58 130q-208 7 -343 119t-143 282h50q8 -156 140 -256t326 -100q196 0 319 100t123 251
q0 120 -85 193t-277 121l-167 42q-201 49 -295 133t-94 216q0 163 135 272t331 109q196 1 331 -103q136 -104 143 -258h-50q-7 135 -129 225t-297 90q-174 1 -294 -95t-120 -240q0 -114 85 -185t270 -117l165 -41q206 -53 302 -137t96 -223z" />
    <glyph glyph-name="scedilla" unicode="&#x15f;" horiz-adv-x="905" 
d="M849 270q-1 -118 -105 -200t-269 -86l-52 -124q94 0 150 -42t56 -114t-60 -118t-146 -48q-86 0 -132 17v43q45 -17 119 -17t124 36t49 89q-1 52 -43 82t-121 30h-50v33l60 134q-159 9 -262 100t-111 219h50q10 -114 109 -194t243 -80t242 68t99 170q0 101 -62 156
t-205 89l-169 39q-139 33 -205 94q-66 62 -66 174t105 192t261 80t258 -88t116 -240h-48q-14 126 -102 204t-222 78q-135 0 -227 -67t-92 -161t57 -142t182 -78l167 -40q160 -38 231 -104t71 -184z" />
    <glyph glyph-name="Scaron" unicode="&#x160;" horiz-adv-x="1114" 
d="M530 1554l-266 287h59l229 -250h2l229 250h59l-266 -287h-46zM568 26q196 0 319 100t123 251q0 120 -85 193t-277 121l-167 42q-201 49 -295 133t-94 216q0 163 135 272t331 109q196 1 331 -103q136 -104 143 -258h-50q-7 135 -129 225t-297 90q-174 1 -294 -95
t-120 -240q0 -114 85 -185t270 -117l165 -41q206 -53 302 -137t96 -223q0 -175 -136 -287t-356 -112q-218 0 -363 113t-153 289h50q8 -156 140 -256q130 -100 326 -100z" />
    <glyph glyph-name="scaron" unicode="&#x161;" horiz-adv-x="905" 
d="M92 820q0 112 105 192t261 80t258 -88t116 -240h-48q-14 126 -102 204t-222 78q-135 0 -227 -67t-92 -161t57 -142t182 -78l167 -40q160 -38 231 -104t71 -186t-110 -202t-280 -82q-171 0 -283 92t-120 228h50q10 -114 109 -194t243 -80t242 68t99 170q0 101 -62 156
t-205 89l-169 39q-139 33 -205 94q-66 62 -66 174zM476 1254h-44l-265 303h56l230 -264h2l230 264h56z" />
    <glyph glyph-name="Tcedilla" unicode="&#x162;" horiz-adv-x="1117" 
d="M583 0h-1l-59 -140q94 0 150 -42t56 -114t-60 -118t-146 -48q-86 0 -132 17v43q45 -17 119 -17t124 36t49 89q-1 52 -43 82t-121 30h-50v33l66 149h-1v1396h-521v47h1091v-47h-521v-1396z" />
    <glyph glyph-name="tcedilla" unicode="&#x163;" horiz-adv-x="527" 
d="M522 -296q0 -72 -60 -118t-146 -48q-86 0 -132 17v43q45 -17 119 -17q73 0 123 36t50 89q0 52 -42 82t-122 30h-50v33l68 153q-78 13 -114 68t-36 162v797h-160v45h160v288h49v-288h228v-45h-228v-796q1 -102 39 -146t124 -44l41 1h42v-46h-42q-42 -1 -44 -1h-14
l-59 -139q94 0 150 -42t56 -114z" />
    <glyph glyph-name="Tcaron" unicode="&#x164;" horiz-adv-x="1117" 
d="M583 0h-49v1396h-521v47h1091v-47h-521v-1396zM536 1554l-266 287h59l229 -250h2l229 250h59l-266 -287h-46z" />
    <glyph glyph-name="tcaron" unicode="&#x165;" horiz-adv-x="637" 
d="M180 1364h49v-288h228v-45h-228v-796q1 -102 39 -146t124 -44l41 1h42v-46h-42q-42 -1 -44 -1q-109 0 -159 55t-50 180v797h-160v45h160v288zM370 1590h47l-11 -355h-36v355z" />
    <glyph glyph-name="Tbar" unicode="&#x166;" horiz-adv-x="1120" 
d="M1104 1396h-521v-617h302v-45h-302v-734h-49v734h-299v45h299v617h-521v47h1091v-47z" />
    <glyph glyph-name="tbar" unicode="&#x167;" horiz-adv-x="527" 
d="M229 628v-393q1 -102 39 -146t124 -44l41 1h42v-46h-42q-42 -1 -44 -1q-109 0 -159 55t-50 180v394h-160v45h160v358h-160v45h160v288h49v-288h228v-45h-228v-358h228v-45h-228z" />
    <glyph glyph-name="Utilde" unicode="&#x168;" horiz-adv-x="1305" 
d="M516 1720q-97 0 -97 -158h-45q0 92 36 146t105 55q69 -1 125 -59q24 -24 46 -49q53 -59 104 -59q97 0 97 158h45q0 -94 -36 -148t-104 -54t-126 60q-24 24 -46 48q-54 60 -104 60zM174 1443v-943q0 -218 130 -346t350 -127q220 -1 350 127t129 346v943h50v-944
q1 -237 -143 -378t-387 -141t-386 141t-143 378v944h50z" />
    <glyph glyph-name="utilde" unicode="&#x169;" horiz-adv-x="1063" 
d="M390 1421q-97 0 -97 -158h-45q0 93 36 147t105 54t125 -59q24 -25 46 -49q54 -58 104 -59q97 0 97 158h45q0 -93 -36 -147t-104 -55t-126 59q-24 24 -46 50q-54 60 -104 59zM944 1076v-1076h-46v251h-2q-34 -115 -144 -191t-246 -76q-175 0 -284 106t-109 285v701h49
v-694q0 -164 96 -258t257 -93q159 0 269 109t110 287v649h50z" />
    <glyph glyph-name="Umacron" unicode="&#x16a;" horiz-adv-x="1305" 
d="M935 1659v-43h-564v43h564zM174 1443v-943q0 -218 130 -346t350 -127q220 -1 350 127t129 346v943h50v-944q1 -237 -143 -378t-387 -141t-386 141t-143 378v944h50z" />
    <glyph glyph-name="umacron" unicode="&#x16b;" horiz-adv-x="1063" 
d="M813 1347v-43h-584v43h584zM944 1076v-1076h-46v251h-2q-34 -115 -144 -191t-246 -76q-175 0 -284 106t-109 285v701h49v-694q0 -164 96 -258t257 -93q159 0 269 109t110 287v649h50z" />
    <glyph glyph-name="Ubreve" unicode="&#x16c;" horiz-adv-x="1305" 
d="M396 1771h45q1 -75 59 -125t153 -50t153 50t59 125h45q0 -99 -72 -158t-185 -59t-185 59t-72 158zM174 1443v-943q0 -218 130 -346t350 -127q220 -1 350 127t129 346v943h50v-944q1 -237 -143 -378t-387 -141t-386 141t-143 378v944h50z" />
    <glyph glyph-name="ubreve" unicode="&#x16d;" horiz-adv-x="1063" 
d="M270 1489h45q0 -88 58 -141t155 -53t155 53t58 141h45q0 -113 -72 -175t-186 -62t-186 62t-72 175zM944 1076v-1076h-46v251h-2q-34 -115 -144 -191t-246 -76q-175 0 -284 106t-109 285v701h49v-694q0 -164 96 -258t257 -93q159 0 269 109t110 287v649h50z" />
    <glyph glyph-name="Uring" unicode="&#x16e;" horiz-adv-x="1305" 
d="M174 1443v-943q0 -218 130 -346t350 -127q220 -1 350 127t129 346v943h50v-944q1 -237 -143 -378t-387 -141t-386 141t-143 378v944h50zM652 1545q54 0 90 37t37 90q-1 53 -37 90t-90 37t-90 -37t-36 -90t36 -90t90 -37zM652 1506q-68 0 -116 49t-48 117t48 116t116 49
q68 -1 116 -49t49 -116q-1 -68 -49 -117t-116 -49z" />
    <glyph glyph-name="uring" unicode="&#x16f;" horiz-adv-x="1063" 
d="M528 1287q54 0 90 37t36 90t-36 90t-90 37t-90 -37t-37 -90q1 -53 37 -90t90 -37zM528 1248q-68 0 -116 49t-49 117q1 68 49 116t116 49q68 -1 116 -49t48 -116t-48 -117t-116 -49zM944 1076v-1076h-46v251h-2q-34 -115 -144 -191t-246 -76q-175 0 -284 106t-109 285v701
h49v-694q0 -164 96 -258t257 -93q159 0 269 109t110 287v649h50z" />
    <glyph glyph-name="Uhungarumlaut" unicode="&#x170;" horiz-adv-x="1305" 
d="M563 1554h-56l293 287h66zM817 1554h-56l294 287h65zM174 1443v-943q0 -218 130 -346t350 -127q220 -1 350 127t129 346v943h50v-944q1 -237 -143 -378t-387 -141t-386 141t-143 378v944h50z" />
    <glyph glyph-name="uhungarumlaut" unicode="&#x171;" horiz-adv-x="1063" 
d="M944 1076v-1076h-46v251h-2q-34 -115 -144 -191t-246 -76q-175 0 -284 106t-109 285v701h49v-694q0 -164 96 -258t257 -93q159 0 269 109t110 287v649h50zM389 1253l235 303h62l-245 -303h-52zM612 1253l235 303h62l-245 -303h-52z" />
    <glyph glyph-name="Uogonek" unicode="&#x172;" horiz-adv-x="1307" 
d="M650 -234q0 72 32 123t105 104v4q-59 -17 -134 -17q-241 0 -385 140t-144 379v944h50v-943q0 -213 132 -343t346 -130q216 1 348 131t133 342v943h50v-944q-1 -172 -73 -286t-242 -214q-168 -101 -168 -220q0 -63 42 -101t107 -38h16v-45l-26 -1q-83 0 -136 50t-53 122z
" />
    <glyph glyph-name="uogonek" unicode="&#x173;" horiz-adv-x="1063" 
d="M919 -406q-83 0 -135 50t-53 131q0 133 166 240v230h-4q-40 -121 -143 -191t-261 -70t-267 107t-109 280v705h49v-691q0 -160 96 -257t258 -97q162 1 270 113t108 288v644h50v-1079q-90 -56 -127 -105q-37 -50 -37 -112t42 -101t106 -39h16v-45q-2 -1 -25 -1z" />
    <glyph glyph-name="Wcircumflex" unicode="&#x174;" horiz-adv-x="1777" 
d="M886 1338l-398 -1338h-41l-406 1443h52l374 -1344h4l396 1344h43l395 -1344h5l374 1344h51l-406 -1443h-40l-398 1338h-5zM865 1841h46l266 -287h-59l-229 249h-2l-229 -249h-59z" />
    <glyph glyph-name="wcircumflex" unicode="&#x175;" horiz-adv-x="1406" 
d="M1404 1076l-317 -1076h-66l-317 1016h-2l-317 -1016h-66l-317 1076h55l294 -1021h2l317 1021h66l317 -1021h2l294 1021h55zM725 1557l265 -303h-56l-230 264h-2l-230 -264h-56l265 303h44z" />
    <glyph glyph-name="Ycircumflex" unicode="&#x176;" horiz-adv-x="1148" 
d="M551 1841h46l266 -287h-59l-229 249h-2l-229 -249h-59zM600 0h-50v631l-529 812h60l492 -758h4l491 758h59l-527 -812v-631z" />
    <glyph glyph-name="ycircumflex" unicode="&#x177;" horiz-adv-x="888" 
d="M466 1556l265 -303h-56l-230 264h-2l-230 -264h-56l265 303h44zM178 -343q-26 0 -47 9v47q23 -9 53 -9q70 0 116 46t89 159l28 72l-415 1095h54l387 -1029h2l388 1029h54l-417 -1101q-74 -195 -130 -257t-162 -61z" />
    <glyph glyph-name="Ydieresis" unicode="&#x178;" horiz-adv-x="1148" 
d="M713 1556q-22 0 -38 16t-16 38t16 38q17 16 39 15q22 1 38 -15t16 -38t-16 -38t-39 -16zM435 1556q-23 0 -39 16t-16 38t16 38t38 15q22 1 39 -15q16 -16 16 -38t-16 -38t-38 -16zM600 0h-50v631l-529 812h60l492 -758h4l491 758h59l-527 -812v-631z" />
    <glyph glyph-name="Zacute" unicode="&#x179;" horiz-adv-x="1147" 
d="M64 0v42l954 1350v4h-925v47h989v-43l-953 -1349v-4h954v-47h-1019zM591 1554h-56l293 287h66z" />
    <glyph glyph-name="zacute" unicode="&#x17a;" horiz-adv-x="910" 
d="M58 0v47l734 982v2h-734v45h794v-47l-736 -982v-2h736v-45h-794zM460 1253h-53l236 303h63z" />
    <glyph glyph-name="Zdotaccent" unicode="&#x17b;" horiz-adv-x="1147" 
d="M64 0v42l954 1350v4h-925v47h989v-43l-953 -1349v-4h954v-47h-1019zM573 1556q-26 0 -45 19t-19 45t19 44q19 19 45 19t45 -19q19 -18 19 -44t-19 -45t-45 -19z" />
    <glyph glyph-name="zdotaccent" unicode="&#x17c;" horiz-adv-x="910" 
d="M58 0v47l734 982v2h-734v45h794v-47l-736 -982v-2h736v-45h-794zM456 1253q-26 -1 -46 19t-19 46q0 26 19 44q19 19 45 19q25 0 45 -19t20 -45t-20 -45q-18 -19 -44 -19z" />
    <glyph glyph-name="Zcaron" unicode="&#x17d;" horiz-adv-x="1147" 
d="M550 1554l-266 287h59l229 -250h2l229 250h59l-266 -287h-46zM64 0v42l954 1350v4h-925v47h989v-43l-953 -1349v-4h954v-47h-1019z" />
    <glyph glyph-name="zcaron" unicode="&#x17e;" horiz-adv-x="910" 
d="M58 0v47l734 982v2h-734v45h794v-47l-736 -982v-2h736v-45h-794zM477 1253h-44l-265 303h56l230 -264h2l230 264h56z" />
    <glyph glyph-name="florin" unicode="&#x192;" horiz-adv-x="1179" 
d="M966 1417q-231 0 -283 -300l-53 -308h431v-46h-439l-77 -441q-31 -176 -113 -258t-226 -83q-101 0 -161 35v48q67 -37 175 -37q221 0 275 302l76 434h-415v46h423l54 313q60 341 322 341q127 0 178 -33v-49q-52 36 -167 36z" />
    <glyph glyph-name="Ohorn" unicode="&#x1a0;" horiz-adv-x="1436" 
d="M1335 734q-1 -356 -171 -555t-465 -199t-465 199t-171 543t171 542q172 199 468 199q96 1 182 -23t138 -52q138 -75 217 -75q111 0 111 138v136h48v-140q0 -85 -40 -131t-104 -47q-64 0 -116 26l-4 -4q201 -201 201 -557zM698 1416q-268 0 -426 -188q-159 -188 -159 -506
q0 -317 159 -506q158 -189 426 -189t428 189t159 506q1 318 -159 506t-428 188z" />
    <glyph glyph-name="ohorn" unicode="&#x1a1;" horiz-adv-x="1157" 
d="M1013 516q-1 -232 -129 -382t-345 -150t-346 151t-129 405t130 402q130 150 349 150q137 0 232 -60q39 -24 72 -49q79 -60 138 -60q113 0 113 138v135h49v-138q1 -88 -39 -134t-114 -47q-33 0 -65 13l-4 -3q88 -140 88 -371zM538 31q194 1 310 139t116 368t-116 369
t-310 139q-192 0 -308 -138t-116 -370q0 -230 116 -368t308 -139z" />
    <glyph glyph-name="Uhorn" unicode="&#x1af;" horiz-adv-x="1456" 
d="M1258 1312q72 0 106 36t34 120v119h49v-128q0 -192 -192 -192q-69 0 -72 3v-771q1 -239 -143 -379t-386 -140t-386 140t-144 379v944h50v-943q0 -213 132 -343t348 -130t348 130t131 343v943h50v-128q3 -3 75 -3z" />
    <glyph glyph-name="uhorn" unicode="&#x1b0;" horiz-adv-x="1198" 
d="M489 -16q-158 0 -267 107t-109 280v705h49v-691q0 -160 96 -257t258 -97q162 1 270 113t108 288v644h50v-152q1 -2 68 -2t101 36t34 119v119h49v-128q0 -192 -192 -192q-57 0 -60 3v-879h-47v245h-4q-40 -121 -143 -191t-261 -70z" />
    <glyph glyph-name="u01C4" unicode="&#x1c4;" horiz-adv-x="2459" 
d="M1863 1554l-266 287h59l229 -250h2l229 250h59l-266 -287h-46zM1377 0v42l954 1350v4h-925v47h989v-43l-953 -1349v-4h954v-47h-1019zM175 1396v-1349h384q309 0 475 175q166 176 166 500t-166 499t-475 175h-384zM124 1443h436q330 0 510 -188q180 -187 180 -533
t-180 -534t-510 -188h-436v1443z" />
    <glyph glyph-name="u01C5" unicode="&#x1c5;" horiz-adv-x="2223" 
d="M1371 0v47l734 982v2h-734v45h794v-47l-736 -982v-2h736v-45h-794zM1790 1253h-44l-265 303h56l230 -264h2l230 264h56zM175 1396v-1349h384q309 0 475 175q166 176 166 500t-166 499t-475 175h-384zM124 1443h436q330 0 510 -188q180 -187 180 -533t-180 -534t-510 -188
h-436v1443z" />
    <glyph glyph-name="u01C6" unicode="&#x1c6;" horiz-adv-x="2036" 
d="M1184 0v47l734 982v2h-734v45h794v-47l-736 -982v-2h736v-45h-794zM1603 1253h-44l-265 303h56l230 -264h2l230 264h56zM528 1046q-182 0 -298 -141q-115 -141 -115 -367t115 -366q116 -141 298 -141q182 -1 300 141t118 366t-118 366t-300 142zM524 -16q-202 0 -330 154
t-129 400q1 246 129 400t330 154q156 0 272 -95t148 -236h2v745h50v-1506h-46v322h-2q-36 -146 -152 -242t-272 -96z" />
    <glyph glyph-name="u01C7" unicode="&#x1c7;" horiz-adv-x="1934" 
d="M949 47v-47h-825v1443h50v-1396h775zM1430 26q148 0 239 95t91 263v1059h50v-1062q0 -185 -104 -293t-276 -109q-171 0 -277 94t-111 242h49q7 -129 99 -209t240 -80z" />
    <glyph glyph-name="u01C8" unicode="&#x1c8;" horiz-adv-x="1310" 
d="M949 47v-47h-825v1443h50v-1396h775zM1156 1366q-20 0 -34 14t-15 34q1 20 15 34t34 14t34 -14t14 -34t-14 -34t-34 -14zM1180 1076v-1156q0 -138 -65 -200t-198 -62h-29v45h27q113 0 165 50t51 163v1160h49z" />
    <glyph glyph-name="u01C9" unicode="&#x1c9;" horiz-adv-x="618" 
d="M130 0v1506h49v-1506h-49zM464 1366q-20 0 -34 14t-15 34q1 20 15 34t34 14t34 -14t14 -34t-14 -34t-34 -14zM488 1076v-1156q0 -138 -65 -200t-198 -62h-29v45h27q113 0 165 50t51 163v1160h49z" />
    <glyph glyph-name="u01CA" unicode="&#x1ca;" horiz-adv-x="2248" 
d="M174 0h-50v1443h55l958 -1348h4v1348h50v-1443h-46l-967 1359h-4v-1359zM1744 26q148 0 239 95t91 263v1059h50v-1062q0 -185 -104 -293t-276 -109q-171 0 -277 94t-111 242h49q7 -129 99 -209t240 -80z" />
    <glyph glyph-name="u01CB" unicode="&#x1cb;" horiz-adv-x="1624" 
d="M174 0h-50v1443h55l958 -1348h4v1348h50v-1443h-46l-967 1359h-4v-1359zM1470 1366q-20 0 -34 14t-15 34q1 20 15 34t34 14t34 -14t14 -34t-14 -34t-34 -14zM1494 1076v-1156q0 -138 -65 -200t-198 -62h-29v45h27q113 0 165 50t51 163v1160h49z" />
    <glyph glyph-name="u01CC" unicode="&#x1cc;" horiz-adv-x="1372" 
d="M120 0v1076h46v-254h2q35 122 139 196t243 74q180 0 290 -108t110 -288v-696h-49v694q0 160 -99 256q-100 96 -262 96t-266 -112t-105 -288v-646h-49zM1218 1366q-20 0 -34 14t-15 34q1 20 15 34t34 14t34 -14t14 -34t-14 -34t-34 -14zM1242 1076v-1156q0 -138 -65 -200
t-198 -62h-29v45h27q113 0 165 50t51 163v1160h49z" />
    <glyph glyph-name="Acaron" unicode="&#x1cd;" horiz-adv-x="1201" 
d="M577 1554l-266 287h59l229 -250h2l229 250h59l-266 -287h-46zM598 1374l-315 -827h635l-315 827h-5zM1125 0l-189 501h-671l-190 -501h-55l555 1443h51l555 -1443h-56z" />
    <glyph glyph-name="acaron" unicode="&#x1ce;" horiz-adv-x="1021" 
d="M555 1254h-44l-265 303h56l230 -264h2l230 264h56zM440 -16q-150 0 -250 84t-100 220q0 274 380 304l389 30v97q-1 153 -87 240t-238 87t-244 -74q-93 -74 -114 -209h-47q17 153 126 241t281 88t272 -100t100 -270v-722h-49v245h-1q-40 -117 -154 -189t-264 -72zM466 30
q152 0 272 108t121 258v182l-381 -29q-166 -13 -252 -80t-86 -181t88 -186q86 -72 238 -72z" />
    <glyph glyph-name="Icaron" unicode="&#x1cf;" horiz-adv-x="298" 
d="M126 1554l-266 287h59l229 -250h2l229 250h59l-266 -287h-46zM174 0h-50v1443h50v-1443z" />
    <glyph glyph-name="icaron" unicode="&#x1d0;" horiz-adv-x="309" 
d="M130 0v1076h49v-1076h-49zM177 1254h-44l-265 303h56l230 -264h2l230 264h56z" />
    <glyph glyph-name="Ocaron" unicode="&#x1d1;" horiz-adv-x="1398" 
d="M698 1416q-268 0 -426 -188t-159 -506q0 -318 159 -506q158 -188 426 -189q268 1 428 189t159 506q0 318 -159 506q-160 188 -428 188zM698 1463q292 -1 464 -201t173 -540q0 -340 -172 -542q-173 -200 -465 -200t-464 200t-171 542q0 340 172 540q171 200 463 201z
M676 1554l-266 287h59l229 -250h2l229 250h59l-266 -287h-46z" />
    <glyph glyph-name="ocaron" unicode="&#x1d2;" horiz-adv-x="1078" 
d="M539 31q193 -1 309 137t116 370t-116 370t-309 138q-192 0 -308 -138t-116 -370q0 -233 116 -370t308 -137zM538 -16q-214 0 -343 150q-130 150 -130 404q1 254 131 404t343 150t343 -150t131 -404q-1 -254 -131 -404t-344 -150zM561 1253h-44l-265 303h56l230 -264h2
l230 264h56z" />
    <glyph glyph-name="Ucaron" unicode="&#x1d3;" horiz-adv-x="1305" 
d="M174 1443v-943q0 -218 130 -346t350 -127q220 -1 350 127t129 346v943h50v-944q1 -237 -143 -378t-387 -141t-386 141t-143 378v944h50zM630 1554l-266 287h59l229 -250h2l229 250h59l-266 -287h-46z" />
    <glyph glyph-name="ucaron" unicode="&#x1d4;" horiz-adv-x="1063" 
d="M944 1076v-1076h-46v251h-2q-34 -115 -144 -191t-246 -76q-175 0 -284 106t-109 285v701h49v-694q0 -164 96 -258t257 -93q159 0 269 109t110 287v649h50zM550 1253h-44l-265 303h56l230 -264h2l230 264h56z" />
    <glyph glyph-name="Udieresismacron" unicode="&#x1d5;" horiz-adv-x="1305" 
d="M792 1662q22 0 38 -16t15 -37q1 -22 -15 -37t-38 -15t-38 15t-16 37q0 21 16 37t38 16zM371 1888h564v-42h-564v42zM514 1662q22 0 38 -16t16 -37q0 -22 -16 -37t-38 -15t-38 15t-15 37q-1 21 15 37t38 16zM174 1443v-943q0 -218 130 -346t350 -127q220 -1 350 127
t129 346v943h50v-944q1 -237 -143 -378t-387 -141t-386 141t-143 378v944h50z" />
    <glyph glyph-name="udieresismacron" unicode="&#x1d6;" horiz-adv-x="1063" 
d="M813 1627v-43h-584v43h584zM668 1253q-22 0 -39 16q-16 16 -16 38q0 21 16 37t38 16t38 -16t16 -38q1 -22 -15 -38t-38 -15zM388 1253q-22 -1 -38 15t-15 38q0 22 16 38t38 16t38 -16t16 -37q0 -22 -16 -38q-17 -16 -39 -16zM944 1076v-1076h-46v251h-2
q-34 -115 -144 -191t-246 -76q-175 0 -284 106t-109 285v701h49v-694q0 -164 96 -258t257 -93q159 0 269 109t110 287v649h50z" />
    <glyph glyph-name="Udieresisacute" unicode="&#x1d7;" horiz-adv-x="1305" 
d="M174 1443v-943q0 -218 130 -346t350 -127q220 -1 350 127t129 346v943h50v-944q1 -237 -143 -378t-387 -141t-386 141t-143 378v944h50zM792 1557q-22 0 -38 15t-16 37q0 21 16 37t38 16t38 -16t15 -37q1 -22 -15 -37t-38 -15zM514 1557q-22 0 -38 15t-15 37q-1 21 15 37
t38 16t38 -16t16 -37q0 -22 -16 -37t-38 -15zM609 1755l214 202h63l-221 -202h-56z" />
    <glyph glyph-name="udieresisacute" unicode="&#x1d8;" horiz-adv-x="1063" 
d="M944 1076v-1076h-46v251h-2q-34 -115 -144 -191t-246 -76q-175 0 -284 106t-109 285v701h49v-694q0 -164 96 -258t257 -93q159 0 269 109t110 287v649h50zM667 1253q-22 0 -38 16t-16 38q0 21 16 37q17 16 39 16t38 -16t16 -37q0 -22 -16 -38t-39 -16zM389 1253
q-23 0 -39 16t-16 38q0 21 16 37t38 16t39 -16q16 -16 16 -37q0 -22 -16 -38t-38 -16zM489 1511l240 291h66l-252 -291h-54z" />
    <glyph glyph-name="Udieresiscaron" unicode="&#x1d9;" horiz-adv-x="1305" 
d="M174 1443v-943q0 -218 130 -346t350 -127q220 -1 350 127t129 346v943h50v-944q1 -237 -143 -378t-387 -141t-386 141t-143 378v944h50zM792 1662q22 0 38 -16t15 -37q1 -22 -15 -37t-38 -15t-38 15t-16 37q0 21 16 37t38 16zM514 1662q22 0 38 -16t16 -37q0 -22 -16 -37
t-38 -15t-38 15t-15 37q-1 21 15 37t38 16zM630 1755l-265 202h67l220 -167h2l220 167h67l-265 -202h-46z" />
    <glyph glyph-name="udieresiscaron" unicode="&#x1da;" horiz-adv-x="1063" 
d="M944 1076v-1076h-46v251h-2q-34 -115 -144 -191t-246 -76q-175 0 -284 106t-109 285v701h49v-694q0 -164 96 -258t257 -93q159 0 269 109t110 287v649h50zM552 1511h-48l-263 291h55l231 -253h2l231 253h55zM667 1253q-22 0 -38 16t-16 38q0 21 16 37q17 16 39 16t38 -16
t16 -37q0 -22 -16 -38t-39 -16zM389 1253q-23 0 -39 16t-16 38q0 21 16 37t38 16t39 -16q16 -16 16 -37q0 -22 -16 -38t-38 -16z" />
    <glyph glyph-name="Udieresisgrave" unicode="&#x1db;" horiz-adv-x="1305" 
d="M174 1443v-943q0 -218 130 -346t350 -127q220 -1 350 127t129 346v943h50v-944q1 -237 -143 -378t-387 -141t-386 141t-143 378v944h50zM792 1557q-22 0 -38 15t-16 37q0 21 16 37t38 16t38 -16t15 -37q1 -22 -15 -37t-38 -15zM514 1557q-22 0 -38 15t-15 37q-1 21 15 37
t38 16t38 -16t16 -37q0 -22 -16 -37t-38 -15zM697 1755h-56l-221 202h63z" />
    <glyph glyph-name="udieresisgrave" unicode="&#x1dc;" horiz-adv-x="1063" 
d="M944 1076v-1076h-46v251h-2q-34 -115 -144 -191t-246 -76q-175 0 -284 106t-109 285v701h49v-694q0 -164 96 -258t257 -93q159 0 269 109t110 287v649h50zM667 1253q-22 0 -38 16t-16 38q0 21 16 37q17 16 39 16t38 -16t16 -37q0 -22 -16 -38t-39 -16zM389 1253
q-23 0 -39 16t-16 38q0 21 16 37t38 16t39 -16q16 -16 16 -37q0 -22 -16 -38t-38 -16zM567 1511h-54l-252 291h66z" />
    <glyph glyph-name="Adieresismacron" unicode="&#x1de;" horiz-adv-x="1201" 
d="M739 1662q21 0 37 -16t16 -37q0 -22 -16 -37t-37 -15q-22 0 -38 15t-16 37q0 21 16 37t38 16zM318 1888h564v-42h-564v42zM461 1662q22 0 38 -16t16 -37q0 -22 -16 -37t-38 -15q-21 0 -37 15t-16 37q0 21 16 37t37 16zM598 1374l-315 -827h635l-315 827h-5zM1125 0
l-189 501h-671l-190 -501h-55l555 1443h51l555 -1443h-56z" />
    <glyph glyph-name="adieresismacron" unicode="&#x1df;" horiz-adv-x="1021" 
d="M818 1628v-43h-584v43h584zM672 1254q-22 0 -38 16t-16 38t16 38t38 15q22 1 38 -15t16 -38t-16 -38t-38 -16zM394 1254q-22 0 -38 16t-16 38t16 38t38 15q22 1 38 -15t16 -38t-16 -38t-38 -16zM440 -16q-150 0 -250 84t-100 220q0 274 380 304l389 30v97q-1 153 -87 240
t-238 87t-244 -74q-93 -74 -114 -209h-47q17 153 126 241t281 88t272 -100t100 -270v-722h-49v245h-1q-40 -117 -154 -189t-264 -72zM466 30q152 0 272 108t121 258v182l-381 -29q-166 -13 -252 -80t-86 -181t88 -186q86 -72 238 -72z" />
    <glyph glyph-name="Adotmacron" unicode="&#x1e0;" horiz-adv-x="1201" 
d="M882 1888v-42h-564v42h564zM600 1555q-26 0 -45 19q-19 18 -19 44t19 44t45 19q26 -1 45 -19t19 -44t-19 -44q-19 -19 -45 -19zM598 1374l-315 -827h635l-315 827h-5zM1125 0l-189 501h-671l-190 -501h-55l555 1443h51l555 -1443h-56z" />
    <glyph glyph-name="adotmacron" unicode="&#x1e1;" horiz-adv-x="1021" 
d="M818 1628v-43h-584v43h584zM533 1254q-26 0 -45 19t-19 45t19 44q19 19 45 19t45 -19q19 -18 19 -44t-19 -45t-45 -19zM440 -16q-150 0 -250 84t-100 220q0 274 380 304l389 30v97q-1 153 -87 240t-238 87t-244 -74q-93 -74 -114 -209h-47q17 153 126 241t281 88
t272 -100t100 -270v-722h-49v245h-1q-40 -117 -154 -189t-264 -72zM466 30q152 0 272 108t121 258v182l-381 -29q-166 -13 -252 -80t-86 -181t88 -186q86 -72 238 -72z" />
    <glyph glyph-name="AEmacron" unicode="&#x1e2;" horiz-adv-x="1889" 
d="M1593 1659v-43h-564v43h564zM1010 0v411h-689l-208 -411h-55l733 1443h985v-47h-718v-633h681v-46h-681v-670h718v-47h-766zM1010 458v939h-191l-476 -939h667z" />
    <glyph glyph-name="aemacron" unicode="&#x1e3;" horiz-adv-x="1848" 
d="M1219 1348v-43h-584v43h584zM468 30q154 0 272 108q119 108 119 263v150l-384 -26q-165 -11 -250 -73t-85 -171t87 -180t241 -71zM1330 1046q-182 0 -297 -126t-124 -332h824q0 206 -110 332q-111 126 -293 126zM1340 -16q-166 0 -280 84t-163 243h-4q-39 -151 -159 -239
t-282 -88t-262 83t-100 213q0 264 375 289l394 27v141q0 145 -88 227t-239 82t-246 -75t-114 -208h-48q16 149 126 239t274 90t266 -82t109 -226h5q44 136 156 222t272 86q206 0 328 -138t123 -371v-40h-875v-7q0 -230 117 -368t311 -138q153 0 253 75t125 194h51
q-28 -139 -143 -227q-116 -88 -282 -88z" />
    <glyph glyph-name="Gcaron" unicode="&#x1e6;" horiz-adv-x="1332" 
d="M1259 564q1 -272 -153 -428t-421 -156q-181 0 -323 94t-220 266q-78 171 -79 391q0 329 171 531t451 201q213 0 369 -118t195 -309h-49q-42 172 -183 276t-332 104q-258 0 -415 -188t-157 -499t159 -507t408 -195q250 0 390 143t140 392v100h-531v46h580v-144zM662 1554
l-266 287h59l229 -250h2l229 250h59l-266 -287h-46z" />
    <glyph glyph-name="gcaron" unicode="&#x1e7;" horiz-adv-x="1106" 
d="M558 -354q-182 0 -293 64q-110 64 -134 169h53q20 -83 118 -135t258 -52t268 82t109 224v318h-2q-33 -142 -147 -236t-269 -95q-202 -1 -328 153t-126 400q1 246 127 400t327 154q156 0 270 -96t149 -241h2v321h46v-1076q0 -166 -123 -260t-305 -94zM522 31
q182 -1 299 141q116 142 116 366t-116 366q-117 142 -299 142t-294 -141t-113 -367q1 -226 113 -366t294 -141zM581 1254h-44l-265 303h56l230 -264h2l230 264h56z" />
    <glyph glyph-name="Kcaron" unicode="&#x1e8;" horiz-adv-x="1107" 
d="M502 1554l-266 287h59l229 -250h2l229 250h59l-266 -287h-46zM174 0h-50v1443h50v-836h4l784 836h64l-594 -635l664 -808h-64l-636 773l-222 -237v-536z" />
    <glyph glyph-name="kcaron" unicode="&#x1e9;" horiz-adv-x="913" 
d="M132 1617l-266 287h59l229 -250h2l229 250h59l-266 -287h-46zM179 0h-49v1506h49v-1003h2l645 573h70l-517 -463l519 -613h-65l-493 583l-161 -142v-441z" />
    <glyph glyph-name="Oogonek" unicode="&#x1ea;" horiz-adv-x="1397" 
d="M698 1416q-268 0 -426 -188q-159 -188 -159 -506q0 -317 159 -506q158 -189 426 -189t428 189t159 506q1 318 -159 506t-428 188zM901 -406q-83 0 -135 50t-53 130q0 123 131 219v4q-58 -17 -145 -17q-295 0 -465 199t-171 543q1 344 171 542q170 199 464 199t466 -199
q171 -199 171 -542q0 -280 -104 -446q-64 -103 -138 -162t-162 -110q-169 -104 -169 -225q0 -63 42 -101t107 -38h16v-45q-1 -1 -26 -1z" />
    <glyph glyph-name="oogonek" unicode="&#x1eb;" horiz-adv-x="1078" 
d="M539 31q193 1 309 139t116 368t-116 369t-309 139t-309 -138t-116 -370q0 -230 116 -368t309 -139zM509 -218q0 123 123 211v4q-39 -13 -93 -13q-217 0 -346 150t-129 404t129 404t346 150t345 -150t129 -404q0 -357 -255 -504q-199 -116 -199 -246q-1 -66 41 -107
t107 -41h18v-45l-27 -1q-80 0 -134 54t-55 134z" />
    <glyph glyph-name="Oogonekmacron" unicode="&#x1ec;" horiz-adv-x="1397" 
d="M981 1659v-43h-564v43h564zM698 1416q-268 0 -426 -188q-159 -188 -159 -506q0 -317 159 -506q158 -189 426 -189t428 189t159 506q1 318 -159 506t-428 188zM901 -406q-83 0 -135 50t-53 130q0 123 131 219v4q-58 -17 -145 -17q-295 0 -465 199t-171 543q1 344 171 542
q170 199 464 199t466 -199q171 -199 171 -542q0 -280 -104 -446q-64 -103 -138 -162t-162 -110q-169 -104 -169 -225q0 -63 42 -101t107 -38h16v-45q-1 -1 -26 -1z" />
    <glyph glyph-name="oogonekmacron" unicode="&#x1ed;" horiz-adv-x="1078" 
d="M539 31q193 1 309 139t116 368t-116 369t-309 139t-309 -138t-116 -370q0 -230 116 -368t309 -139zM509 -218q0 123 123 211v4q-39 -13 -93 -13q-217 0 -346 150t-129 404t129 404t346 150t345 -150t129 -404q0 -357 -255 -504q-199 -116 -199 -246q-1 -66 41 -107
t107 -41h18v-45l-27 -1q-80 0 -134 54t-55 134zM824 1347v-43h-584v43h584z" />
    <glyph glyph-name="u01F1" unicode="&#x1f1;" horiz-adv-x="2459" 
d="M175 1396v-1349h384q309 0 475 175q166 176 166 500t-166 499t-475 175h-384zM124 1443h436q330 0 510 -188q180 -187 180 -533t-180 -534t-510 -188h-436v1443zM1377 0v42l954 1350v4h-925v47h989v-43l-953 -1349v-4h954v-47h-1019z" />
    <glyph glyph-name="u01F2" unicode="&#x1f2;" horiz-adv-x="2223" 
d="M175 1396v-1349h384q309 0 475 175q166 176 166 500t-166 499t-475 175h-384zM124 1443h436q330 0 510 -188q180 -187 180 -533t-180 -534t-510 -188h-436v1443zM1371 0v47l734 982v2h-734v45h794v-47l-736 -982v-2h736v-45h-794z" />
    <glyph glyph-name="u01F3" unicode="&#x1f3;" horiz-adv-x="2036" 
d="M528 1046q-182 0 -298 -141q-115 -141 -115 -367t115 -366q116 -141 298 -141q182 -1 300 141t118 366t-118 366t-300 142zM524 -16q-202 0 -330 154t-129 400q1 246 129 400t330 154q156 0 272 -95t148 -236h2v745h50v-1506h-46v322h-2q-36 -146 -152 -242t-272 -96z
M1184 0v47l734 982v2h-734v45h794v-47l-736 -982v-2h736v-45h-794z" />
    <glyph glyph-name="Gacute" unicode="&#x1f4;" horiz-adv-x="1332" 
d="M1259 564q1 -272 -153 -428t-421 -156q-181 0 -323 94t-220 266q-78 171 -79 391q0 329 171 531t451 201q213 0 369 -118t195 -309h-49q-42 172 -183 276t-332 104q-258 0 -415 -188t-157 -499t159 -507t408 -195q250 0 390 143t140 392v100h-531v46h580v-144zM703 1554
h-56l293 287h66z" />
    <glyph glyph-name="gacute" unicode="&#x1f5;" horiz-adv-x="1106" 
d="M558 -354q-182 0 -293 64q-110 64 -134 169h53q20 -83 118 -135t258 -52t268 82t109 224v318h-2q-33 -142 -147 -236t-269 -95q-202 -1 -328 153t-126 400q1 246 127 400t327 154q156 0 270 -96t149 -241h2v321h46v-1076q0 -166 -123 -260t-305 -94zM522 31
q182 -1 299 141q116 142 116 366t-116 366q-117 142 -299 142t-294 -141t-113 -367q1 -226 113 -366t294 -141zM564 1254h-53l236 303h63z" />
    <glyph glyph-name="Ngrave" unicode="&#x1f8;" horiz-adv-x="1315" 
d="M174 0h-50v1443h55l958 -1348h4v1348h50v-1443h-46l-967 1359h-4v-1359zM639 1554l-303 287h66l294 -287h-57z" />
    <glyph glyph-name="ngrave" unicode="&#x1f9;" horiz-adv-x="1063" 
d="M120 0v1076h46v-254h2q35 122 139 196t243 74q180 0 290 -108t110 -288v-696h-49v694q0 160 -99 256q-100 96 -262 96t-266 -112t-105 -288v-646h-49zM586 1254h-53l-246 303h63z" />
    <glyph glyph-name="Aringacute" unicode="&#x1fa;" horiz-adv-x="1201" 
d="M720 2083h62l-163 -164h-53zM600 1542q54 0 90 37t36 91t-36 90q-36 37 -90 37t-90 -37q-36 -36 -36 -90t36 -91t90 -37zM600 1504q-68 0 -116 49t-49 117q1 68 49 116q48 49 116 49t116 -49q48 -48 49 -116q-1 -68 -49 -117t-116 -49zM598 1374l-315 -827h635l-315 827
h-5zM1125 0l-189 501h-671l-190 -501h-55l555 1443h51l555 -1443h-56z" />
    <glyph glyph-name="aringacute" unicode="&#x1fb;" horiz-adv-x="1021" 
d="M501 1648l153 165h60l-162 -165h-51zM407 1396q1 -53 37 -90t89 -37t89 37t37 90q-1 53 -37 90t-89 37t-89 -37t-37 -90zM533 1231q-67 1 -116 49t-49 116t49 117t116 49t116 -49t49 -117t-49 -116t-116 -49zM440 -16q-150 0 -250 84t-100 220q0 274 380 304l389 30v97
q-1 153 -87 240t-238 87t-244 -74q-93 -74 -114 -209h-47q17 153 126 241t281 88t272 -100t100 -270v-722h-49v245h-1q-40 -117 -154 -189t-264 -72zM466 30q152 0 272 108t121 258v182l-381 -29q-166 -13 -252 -80t-86 -181t88 -186q86 -72 238 -72z" />
    <glyph glyph-name="AEacute" unicode="&#x1fc;" horiz-adv-x="1889" 
d="M1010 0v411h-689l-208 -411h-55l733 1443h985v-47h-718v-633h681v-46h-681v-670h718v-47h-766zM1010 458v939h-191l-476 -939h667zM1329 1554h-56l293 287h66z" />
    <glyph glyph-name="aeacute" unicode="&#x1fd;" horiz-adv-x="1848" 
d="M468 30q154 0 272 108q119 108 119 263v150l-384 -26q-165 -11 -250 -73t-85 -171t87 -180t241 -71zM1330 1046q-182 0 -297 -126t-124 -332h824q0 206 -110 332q-111 126 -293 126zM1340 -16q-166 0 -280 84t-163 243h-4q-39 -151 -159 -239t-282 -88t-262 83t-100 213
q0 264 375 289l394 27v141q0 145 -88 227t-239 82t-246 -75t-114 -208h-48q16 149 126 239t274 90t266 -82t109 -226h5q44 136 156 222t272 86q206 0 328 -138t123 -371v-40h-875v-7q0 -230 117 -368t311 -138q153 0 253 75t125 194h51q-28 -139 -143 -227
q-116 -88 -282 -88zM939 1254h-53l236 303h63z" />
    <glyph glyph-name="Oslashacute" unicode="&#x1fe;" horiz-adv-x="1398" 
d="M1335 718q0 -338 -172 -538t-464 -200q-248 0 -412 147l-173 -222l-37 25l178 228q-192 200 -192 552t172 552t453 201q281 0 450 -174l151 194l36 -25l-157 -202q167 -200 167 -538zM690 1416q-260 0 -418 -188t-159 -513q0 -326 174 -516l820 1050q-157 167 -417 167z
M699 27q267 1 427 189t159 500q0 312 -149 500l-818 -1049q152 -140 381 -140zM1065 1841l-303 -287h-56l293 287h66z" />
    <glyph glyph-name="oslashacute" unicode="&#x1ff;" horiz-adv-x="1078" 
d="M1013 540q-1 -254 -131 -406q-130 -150 -343 -150q-165 0 -284 93l-125 -174l-37 26l128 178q-156 151 -156 417q1 266 131 418q130 150 329 150t322 -114l115 159l37 -25l-120 -167q134 -151 134 -405zM528 1046q-180 0 -297 -138q-116 -138 -116 -379q0 -242 135 -382
l569 791q-111 108 -291 108zM539 31q193 -1 309 137t116 369t-114 368l-566 -788q104 -86 255 -86zM829 1557l-246 -303h-53l236 303h63z" />
    <glyph glyph-name="Adblgrave" unicode="&#x200;" horiz-adv-x="1201" 
d="M436 1554l-303 287h65l294 -287h-56zM690 1554l-303 287h66l293 -287h-56zM598 1374l-315 -827h635l-315 827h-5zM1125 0l-189 501h-671l-190 -501h-55l555 1443h51l555 -1443h-56z" />
    <glyph glyph-name="adblgrave" unicode="&#x201;" horiz-adv-x="1021" 
d="M672 1254h-52l-245 303h62zM449 1254h-52l-245 303h62zM440 -16q-150 0 -250 84t-100 220q0 274 380 304l389 30v97q-1 153 -87 240t-238 87t-244 -74q-93 -74 -114 -209h-47q17 153 126 241t281 88t272 -100t100 -270v-722h-49v245h-1q-40 -117 -154 -189t-264 -72z
M466 30q152 0 272 108t121 258v182l-381 -29q-166 -13 -252 -80t-86 -181t88 -186q86 -72 238 -72z" />
    <glyph glyph-name="Ainvertedbreve" unicode="&#x202;" horiz-adv-x="1201" 
d="M343 1554q-1 99 71 158t186 59t186 -59t71 -158h-45q0 74 -58 124t-154 50t-154 -50t-58 -124h-45zM598 1374l-315 -827h635l-315 827h-5zM1125 0l-189 501h-671l-190 -501h-55l555 1443h51l555 -1443h-56z" />
    <glyph glyph-name="ainvertedbreve" unicode="&#x203;" horiz-adv-x="1021" 
d="M275 1254q0 112 72 174t186 62t186 -62t72 -174h-45q0 88 -58 140t-155 53q-97 -1 -155 -53t-58 -140h-45zM440 -16q-150 0 -250 84t-100 220q0 274 380 304l389 30v97q-1 153 -87 240t-238 87t-244 -74q-93 -74 -114 -209h-47q17 153 126 241t281 88t272 -100t100 -270
v-722h-49v245h-1q-40 -117 -154 -189t-264 -72zM466 30q152 0 272 108t121 258v182l-381 -29q-166 -13 -252 -80t-86 -181t88 -186q86 -72 238 -72z" />
    <glyph glyph-name="Edblgrave" unicode="&#x204;" horiz-adv-x="1050" 
d="M950 47v-47h-826v1443h826v-47h-776v-632h740v-46h-740v-671h776zM373 1554l-303 287h65l294 -287h-56zM627 1554l-303 287h66l293 -287h-56z" />
    <glyph glyph-name="edblgrave" unicode="&#x205;" horiz-adv-x="1056" 
d="M672 1254h-52l-245 303h62zM449 1254h-52l-245 303h62zM541 -16q-219 0 -347 147t-129 402q0 255 128 407q129 152 337 152t334 -143t127 -375v-38h-876v-2q0 -236 116 -370t311 -134q156 0 258 75t126 194h51q-28 -139 -144 -227t-292 -88zM534 1046q-182 0 -295 -128
q-114 -128 -123 -337h825q-1 207 -113 336t-294 129z" />
    <glyph glyph-name="Einvertedbreve" unicode="&#x206;" horiz-adv-x="1050" 
d="M280 1554q0 99 72 158t185 59t185 -59t72 -158h-45q-1 74 -59 124t-153 50t-153 -50t-59 -124h-45zM950 47v-47h-826v1443h826v-47h-776v-632h740v-46h-740v-671h776z" />
    <glyph glyph-name="einvertedbreve" unicode="&#x207;" horiz-adv-x="1056" 
d="M275 1254q0 112 72 174t186 62t186 -62t72 -174h-45q0 88 -58 140t-155 53q-97 -1 -155 -53t-58 -140h-45zM541 -16q-219 0 -347 147t-129 402q0 255 128 407q129 152 337 152t334 -143t127 -375v-38h-876v-2q0 -236 116 -370t311 -134q156 0 258 75t126 194h51
q-28 -139 -144 -227t-292 -88zM534 1046q-182 0 -295 -128q-114 -128 -123 -337h825q-1 207 -113 336t-294 129z" />
    <glyph glyph-name="Idblgrave" unicode="&#x208;" horiz-adv-x="298" 
d="M-15 1554l-303 287h65l294 -287h-56zM239 1554l-303 287h66l293 -287h-56zM174 0h-50v1443h50v-1443z" />
    <glyph glyph-name="idblgrave" unicode="&#x209;" horiz-adv-x="309" 
d="M294 1254h-52l-245 303h62zM71 1254h-52l-245 303h62zM130 0v1076h49v-1076h-49z" />
    <glyph glyph-name="Iinvertedbreve" unicode="&#x20a;" horiz-adv-x="298" 
d="M-108 1554q0 99 72 158t185 59t185 -59t72 -158h-45q-1 74 -59 124t-153 50t-153 -50t-59 -124h-45zM174 0h-50v1443h50v-1443z" />
    <glyph glyph-name="iinvertedbreve" unicode="&#x20b;" horiz-adv-x="309" 
d="M-103 1254q0 112 72 174t186 62t186 -62t72 -174h-45q0 88 -58 140t-155 53q-97 -1 -155 -53t-58 -140h-45zM130 0v1076h49v-1076h-49z" />
    <glyph glyph-name="Odblgrave" unicode="&#x20c;" horiz-adv-x="1398" 
d="M698 1416q-268 0 -426 -188t-159 -506q0 -318 159 -506q158 -188 426 -189q268 1 428 189t159 506q0 318 -159 506q-160 188 -428 188zM698 1463q292 -1 464 -201t173 -540q0 -340 -172 -542q-173 -200 -465 -200t-464 200t-171 542q0 340 172 540q171 200 463 201z
M535 1554l-303 287h65l294 -287h-56zM789 1554l-303 287h66l293 -287h-56z" />
    <glyph glyph-name="odblgrave" unicode="&#x20d;" horiz-adv-x="1078" 
d="M678 1253h-52l-245 303h62zM455 1253h-52l-245 303h62zM539 31q193 -1 309 137t116 370t-116 370t-309 138q-192 0 -308 -138t-116 -370q0 -233 116 -370t308 -137zM538 -16q-214 0 -343 150q-130 150 -130 404q1 254 131 404t343 150t343 -150t131 -404
q-1 -254 -131 -404t-344 -150z" />
    <glyph glyph-name="Oinvertedbreve" unicode="&#x20e;" horiz-adv-x="1398" 
d="M698 1416q-268 0 -426 -188t-159 -506q0 -318 159 -506q158 -188 426 -189q268 1 428 189t159 506q0 318 -159 506q-160 188 -428 188zM698 1463q292 -1 464 -201t173 -540q0 -340 -172 -542q-173 -200 -465 -200t-464 200t-171 542q0 340 172 540q171 200 463 201z
M442 1554q0 99 72 158t185 59t185 -59t72 -158h-45q-1 74 -59 124t-153 50t-153 -50t-59 -124h-45z" />
    <glyph glyph-name="oinvertedbreve" unicode="&#x20f;" horiz-adv-x="1078" 
d="M281 1253q0 111 72 173t186 63q114 -1 186 -63t72 -173h-45q0 89 -58 141t-155 52t-155 -52t-58 -141h-45zM539 31q193 -1 309 137t116 370t-116 370t-309 138q-192 0 -308 -138t-116 -370q0 -233 116 -370t308 -137zM538 -16q-214 0 -343 150q-130 150 -130 404
q1 254 131 404t343 150t343 -150t131 -404q-1 -254 -131 -404t-344 -150z" />
    <glyph glyph-name="Rdblgrave" unicode="&#x210;" horiz-adv-x="1124" 
d="M174 630v-630h-50v1443h448q216 -1 340 -109t124 -282t-92 -279t-255 -133l381 -640h-57l-376 632q-36 -2 -66 -2h-397zM174 1396v-720h397q193 0 303 96t111 266q0 168 -110 263t-305 95h-396zM319 1554l-303 287h65l294 -287h-56zM573 1554l-303 287h66l293 -287h-56z
" />
    <glyph glyph-name="rdblgrave" unicode="&#x211;" horiz-adv-x="603" 
d="M473 1254h-52l-245 303h62zM250 1254h-52l-245 303h62zM465 1092q59 0 108 -21v-51q-50 25 -116 25q-132 -1 -210 -105t-78 -270v-670h-49v1076h46v-223h2q71 239 297 239z" />
    <glyph glyph-name="Rinvertedbreve" unicode="&#x212;" horiz-adv-x="1124" 
d="M226 1554q0 99 72 158t185 59t185 -59t72 -158h-45q-1 74 -59 124t-153 50t-153 -50t-59 -124h-45zM174 630v-630h-50v1443h448q216 -1 340 -109t124 -282t-92 -279t-255 -133l381 -640h-57l-376 632q-36 -2 -66 -2h-397zM174 1396v-720h397q193 0 303 96t111 266
q0 168 -110 263t-305 95h-396z" />
    <glyph glyph-name="rinvertedbreve" unicode="&#x213;" horiz-adv-x="603" 
d="M76 1254q0 112 72 174t186 62t186 -62t72 -174h-45q0 88 -58 140t-155 53q-97 -1 -155 -53t-58 -140h-45zM465 1092q59 0 108 -21v-51q-50 25 -116 25q-132 -1 -210 -105t-78 -270v-670h-49v1076h46v-223h2q71 239 297 239z" />
    <glyph glyph-name="Udblgrave" unicode="&#x214;" horiz-adv-x="1305" 
d="M174 1443v-943q0 -218 130 -346t350 -127q220 -1 350 127t129 346v943h50v-944q1 -237 -143 -378t-387 -141t-386 141t-143 378v944h50zM489 1554l-303 287h65l294 -287h-56zM743 1554l-303 287h66l293 -287h-56z" />
    <glyph glyph-name="udblgrave" unicode="&#x215;" horiz-adv-x="1063" 
d="M667 1253h-52l-245 303h62zM444 1253h-52l-245 303h62zM944 1076v-1076h-46v251h-2q-34 -115 -144 -191t-246 -76q-175 0 -284 106t-109 285v701h49v-694q0 -164 96 -258t257 -93q159 0 269 109t110 287v649h50z" />
    <glyph glyph-name="Uinvertedbreve" unicode="&#x216;" horiz-adv-x="1305" 
d="M396 1554q0 99 72 158t185 59t185 -59t72 -158h-45q-1 74 -59 124t-153 50t-153 -50t-59 -124h-45zM174 1443v-943q0 -218 130 -346t350 -127q220 -1 350 127t129 346v943h50v-944q1 -237 -143 -378t-387 -141t-386 141t-143 378v944h50z" />
    <glyph glyph-name="uinvertedbreve" unicode="&#x217;" horiz-adv-x="1063" 
d="M270 1253q0 111 72 173t186 63q114 -1 186 -63t72 -173h-45q0 89 -58 141t-155 52t-155 -52t-58 -141h-45zM944 1076v-1076h-46v251h-2q-34 -115 -144 -191t-246 -76q-175 0 -284 106t-109 285v701h49v-694q0 -164 96 -258t257 -93q159 0 269 109t110 287v649h50z" />
    <glyph glyph-name="Scommaaccent" unicode="&#x218;" horiz-adv-x="1114" 
d="M501 -480h-46l102 338h57zM568 26q196 0 319 100t123 251q0 120 -85 193t-277 121l-167 42q-201 49 -295 133t-94 216q0 163 135 272t331 109q196 1 331 -103q136 -104 143 -258h-50q-7 135 -129 225t-297 90q-174 1 -294 -95t-120 -240q0 -114 85 -185t270 -117l165 -41
q206 -53 302 -137t96 -223q0 -175 -136 -287t-356 -112q-218 0 -363 113t-153 289h50q8 -156 140 -256q130 -100 326 -100z" />
    <glyph glyph-name="scommaaccent" unicode="&#x219;" horiz-adv-x="905" 
d="M390 -480h-46l102 338h57zM92 820q0 112 105 192t261 80t258 -88t116 -240h-48q-14 126 -102 204t-222 78q-135 0 -227 -67t-92 -161t57 -142t182 -78l167 -40q160 -38 231 -104t71 -186t-110 -202t-280 -82q-171 0 -283 92t-120 228h50q10 -114 109 -194t243 -80t242 68
t99 170q0 101 -62 156t-205 89l-169 39q-139 33 -205 94q-66 62 -66 174z" />
    <glyph glyph-name="Tcommaaccent" unicode="&#x21a;" horiz-adv-x="1117" 
d="M583 0h-49v1396h-521v47h1091v-47h-521v-1396zM490 -480h-46l102 338h57z" />
    <glyph glyph-name="tcommaaccent" unicode="&#x21b;" horiz-adv-x="527" 
d="M180 1364h49v-288h228v-45h-228v-796q1 -102 39 -146t124 -44l41 1h42v-46h-42q-42 -1 -44 -1q-109 0 -159 55t-50 180v797h-160v45h160v288zM283 -480h-46l102 338h57z" />
    <glyph glyph-name="Hcaron" unicode="&#x21e;" horiz-adv-x="1296" 
d="M625 1554l-266 287h59l229 -250h2l229 250h59l-266 -287h-46zM1172 0h-50v718h-948v-718h-50v1443h50v-678h948v678h50v-1443z" />
    <glyph glyph-name="hcaron" unicode="&#x21f;" horiz-adv-x="1075" 
d="M132 1617l-266 287h59l229 -250h2l229 250h59l-266 -287h-46zM130 0v1506h49v-684h2q35 120 139 195t244 75q178 0 288 -108t110 -289v-695h-50v693q0 163 -98 258t-260 95t-268 -112t-107 -289v-645h-49z" />
    <glyph glyph-name="Adotaccent" unicode="&#x226;" horiz-adv-x="1201" 
d="M600 1556q-26 0 -45 19t-19 45t19 44q19 19 45 19t45 -19q19 -18 19 -44t-19 -45t-45 -19zM598 1374l-315 -827h635l-315 827h-5zM1125 0l-189 501h-671l-190 -501h-55l555 1443h51l555 -1443h-56z" />
    <glyph glyph-name="adotaccent" unicode="&#x227;" horiz-adv-x="1021" 
d="M534 1254q-26 0 -46 19t-19 45q0 26 19 45t45 19q25 0 45 -19t20 -45t-20 -45q-18 -19 -44 -19zM440 -16q-150 0 -250 84t-100 220q0 274 380 304l389 30v97q-1 153 -87 240t-238 87t-244 -74q-93 -74 -114 -209h-47q17 153 126 241t281 88t272 -100t100 -270v-722h-49
v245h-1q-40 -117 -154 -189t-264 -72zM466 30q152 0 272 108t121 258v182l-381 -29q-166 -13 -252 -80t-86 -181t88 -186q86 -72 238 -72z" />
    <glyph glyph-name="Ecedilla" unicode="&#x228;" horiz-adv-x="1050" 
d="M950 1396h-776v-632h740v-46h-740v-671h776v-47h-390l-59 -140q94 0 150 -42t56 -114t-60 -118t-146 -48q-86 0 -132 17v43q45 -17 119 -17t124 36t49 89q-1 52 -43 82t-121 30h-50v33l66 149h-389v1443h826v-47z" />
    <glyph glyph-name="ecedilla" unicode="&#x229;" horiz-adv-x="1056" 
d="M991 536h-876v-2q0 -236 116 -370t311 -134q156 0 258 75t126 194h51q-27 -135 -139 -223t-281 -92l-52 -124q94 0 150 -42t56 -114t-60 -118t-146 -48q-86 0 -132 17v43q45 -17 119 -17t124 36t49 89q-1 52 -43 82t-121 30h-50v33l60 134q-206 11 -326 157t-120 396
t128 402q129 152 337 152t334 -143t127 -375v-38zM941 581q-1 207 -113 336t-294 129t-295 -128q-114 -128 -123 -337h825z" />
    <glyph glyph-name="Odieresismacron" unicode="&#x22a;" horiz-adv-x="1398" 
d="M838 1662q22 0 38 -16t15 -37q1 -22 -15 -37t-38 -15t-38 15t-16 37q0 21 16 37t38 16zM417 1888h564v-42h-564v42zM560 1662q22 0 38 -16t16 -37q0 -22 -16 -37t-38 -15t-38 15t-15 37q-1 21 15 37t38 16zM698 1416q-268 0 -426 -188t-159 -506q0 -318 159 -506
q158 -188 426 -189q268 1 428 189t159 506q0 318 -159 506q-160 188 -428 188zM698 1463q292 -1 464 -201t173 -540q0 -340 -172 -542q-173 -200 -465 -200t-464 200t-171 542q0 340 172 540q171 200 463 201z" />
    <glyph glyph-name="odieresismacron" unicode="&#x22b;" horiz-adv-x="1078" 
d="M539 31q193 -1 309 137t116 370t-116 370t-309 138q-192 0 -308 -138t-116 -370q0 -233 116 -370t308 -137zM538 -16q-214 0 -343 150q-130 150 -130 404q1 254 131 404t343 150t343 -150t131 -404q-1 -254 -131 -404t-344 -150zM824 1627v-43h-584v43h584zM678 1253
q-22 0 -38 16t-16 38q0 21 16 37t38 16t38 -16t16 -38t-16 -38t-38 -15zM400 1253q-22 -1 -38 15t-16 38t16 38t38 16t38 -16t16 -37q0 -22 -16 -38t-38 -16z" />
    <glyph glyph-name="Otildemacron" unicode="&#x22c;" horiz-adv-x="1398" 
d="M698 1416q-268 0 -426 -188t-159 -506q0 -318 159 -506q158 -188 426 -189q268 1 428 189t159 506q0 318 -159 506q-160 188 -428 188zM698 1463q292 -1 464 -201t173 -540q0 -340 -172 -542q-173 -200 -465 -200t-464 200t-171 542q0 340 172 540q171 200 463 201z
M981 1888v-42h-564v42h564zM910 1726h45q0 -78 -36 -126t-99 -48q-64 0 -112 52q-20 22 -37 44q-43 53 -90 53t-71 -36t-23 -95h-45q0 78 36 126t90 48q88 0 140 -74q53 -75 109 -75q93 0 93 131z" />
    <glyph glyph-name="otildemacron" unicode="&#x22d;" horiz-adv-x="1078" 
d="M539 31q193 -1 309 137t116 370t-116 370t-309 138q-192 0 -308 -138t-116 -370q0 -233 116 -370t308 -137zM538 -16q-214 0 -343 150q-130 150 -130 404q1 254 131 404t343 150t343 -150t131 -404q-1 -254 -131 -404t-344 -150zM831 1627v-43h-584v43h584zM409 1402
q-97 0 -97 -158h-45q0 92 36 146t105 55q68 -1 124 -59q24 -24 46 -49q53 -59 105 -59q97 0 97 158h45q0 -94 -36 -148t-104 -54q-67 0 -125 60q-24 24 -46 48q-54 60 -105 60z" />
    <glyph glyph-name="Odotaccent" unicode="&#x22e;" horiz-adv-x="1398" 
d="M698 1416q-268 0 -426 -188t-159 -506q0 -318 159 -506q158 -188 426 -189q268 1 428 189t159 506q0 318 -159 506q-160 188 -428 188zM698 1463q292 -1 464 -201t173 -540q0 -340 -172 -542q-173 -200 -465 -200t-464 200t-171 542q0 340 172 540q171 200 463 201z
M699 1556q-26 0 -45 19t-19 45t19 44q19 19 45 19t45 -19q19 -18 19 -44t-19 -45t-45 -19z" />
    <glyph glyph-name="odotaccent" unicode="&#x22f;" horiz-adv-x="1078" 
d="M539 31q193 -1 309 137t116 370t-116 370t-309 138q-192 0 -308 -138t-116 -370q0 -233 116 -370t308 -137zM538 -16q-214 0 -343 150q-130 150 -130 404q1 254 131 404t343 150t343 -150t131 -404q-1 -254 -131 -404t-344 -150zM540 1253q-26 -1 -46 19t-19 46
q0 26 19 44q19 19 45 19q25 0 45 -19t20 -45t-20 -45q-18 -19 -44 -19z" />
    <glyph glyph-name="Odotaccentmacron" unicode="&#x230;" horiz-adv-x="1398" 
d="M698 1416q-268 0 -426 -188t-159 -506q0 -318 159 -506q158 -188 426 -189q268 1 428 189t159 506q0 318 -159 506q-160 188 -428 188zM698 1463q292 -1 464 -201t173 -540q0 -340 -172 -542q-173 -200 -465 -200t-464 200t-171 542q0 340 172 540q171 200 463 201z
M981 1888v-42h-564v42h564zM699 1555q-26 0 -45 19q-19 18 -19 44t19 44t45 19q26 -1 45 -19t19 -44t-19 -44q-19 -19 -45 -19z" />
    <glyph glyph-name="odotaccentmacron" unicode="&#x231;" horiz-adv-x="1078" 
d="M824 1627v-43h-584v43h584zM539 1253q-26 0 -45 19q-19 18 -19 44t19 45t45 19t45 -19t19 -45t-19 -44q-19 -19 -45 -19zM539 31q193 -1 309 137t116 370t-116 370t-309 138q-192 0 -308 -138t-116 -370q0 -233 116 -370t308 -137zM538 -16q-214 0 -343 150
q-130 150 -130 404q1 254 131 404t343 150t343 -150t131 -404q-1 -254 -131 -404t-344 -150z" />
    <glyph glyph-name="Ymacron" unicode="&#x232;" horiz-adv-x="1148" 
d="M856 1659v-43h-564v43h564zM600 0h-50v631l-529 812h60l492 -758h4l491 758h59l-527 -812v-631z" />
    <glyph glyph-name="ymacron" unicode="&#x233;" horiz-adv-x="888" 
d="M729 1347v-43h-584v43h584zM178 -343q-26 0 -47 9v47q23 -9 53 -9q70 0 116 46t89 159l28 72l-415 1095h54l387 -1029h2l388 1029h54l-417 -1101q-74 -195 -130 -257t-162 -61z" />
    <glyph glyph-name="dotlessj" unicode="&#x237;" horiz-adv-x="309" 
d="M179 1076v-1156q0 -138 -65 -200t-198 -62h-29v45h27q112 0 164 50t52 163v1160h49z" />
    <glyph glyph-name="circumflex" unicode="&#x2c6;" horiz-adv-x="686" 
d="M365 1557l265 -303h-56l-230 264h-2l-230 -264h-56l265 303h44z" />
    <glyph glyph-name="caron" unicode="&#x2c7;" horiz-adv-x="686" 
d="M365 1254h-44l-265 303h56l230 -264h2l230 264h56z" />
    <glyph glyph-name="breve" unicode="&#x2d8;" horiz-adv-x="814" 
d="M149 1490h45q0 -88 58 -141t155 -53t155 53t58 141h45q0 -112 -72 -174t-186 -63q-114 1 -186 63t-72 174z" />
    <glyph glyph-name="dotaccent" unicode="&#x2d9;" horiz-adv-x="807" 
d="M404 1254q-26 0 -46 19t-19 45q0 26 19 45t45 19q25 0 45 -19t20 -45t-20 -45q-18 -19 -44 -19z" />
    <glyph glyph-name="ring" unicode="&#x2da;" horiz-adv-x="689" 
d="M344 1288q54 0 90 37t37 90q-1 53 -37 90t-90 37t-90 -37t-36 -90t36 -90t90 -37zM344 1249q-68 0 -116 49t-48 117q0 69 48 117t116 48t116 -48t49 -117q-1 -68 -49 -117t-116 -49z" />
    <glyph glyph-name="ogonek" unicode="&#x2db;" horiz-adv-x="516" 
d="M169 -197q0 -61 37 -97q38 -36 102 -37q64 0 103 27v-44q-47 -28 -119 -28t-122 46t-49 122q0 138 150 230l39 -7q-141 -84 -141 -212z" />
    <glyph glyph-name="tilde" unicode="&#x2dc;" horiz-adv-x="686" 
d="M206 1422q-97 0 -97 -158h-45q0 92 36 146t105 55q69 -1 125 -59q24 -24 46 -49q53 -59 104 -59q97 0 97 158h45q0 -94 -36 -148t-104 -54t-126 60q-24 24 -46 48q-54 60 -104 60z" />
    <glyph glyph-name="hungarumlaut" unicode="&#x2dd;" horiz-adv-x="815" 
d="M167 1254l235 303h62l-245 -303h-52zM390 1254l235 303h62l-245 -303h-52z" />
    <glyph glyph-name="gravecmb" unicode="&#x300;" 
d="M48 1254h-53l-246 303h63z" />
    <glyph glyph-name="acutecmb" unicode="&#x301;" 
d="M5 1254h-53l236 303h63z" />
    <glyph glyph-name="circumflexcmb" unicode="&#x302;" 
d="M22 1557l265 -303h-56l-230 264h-2l-230 -264h-56l265 303h44z" />
    <glyph glyph-name="tildecmb" unicode="&#x303;" 
d="M-137 1422q-97 0 -97 -158h-45q0 92 36 146t105 55q68 -1 124 -59q24 -24 46 -49q53 -59 105 -59q97 0 97 158h45q0 -94 -36 -148t-104 -54q-67 0 -125 60q-24 24 -46 48q-54 60 -105 60z" />
    <glyph glyph-name="macroncmb" unicode="&#x304;" 
d="M285 1348v-43h-584v43h584z" />
    <glyph glyph-name="brevecmb" unicode="&#x306;" 
d="M-258 1490h45q0 -88 58 -141t155 -53t155 53t58 141h45q0 -112 -72 -174t-186 -63q-114 1 -186 63t-72 174z" />
    <glyph glyph-name="dotaccentcmb" unicode="&#x307;" 
d="M0 1254q-26 0 -45 19t-19 45t19 45t45 19t46 -19t19 -45q1 -26 -19 -45t-46 -19z" />
    <glyph glyph-name="dieresiscmb" unicode="&#x308;" 
d="M139 1254q-22 0 -38 16t-16 38t16 38q17 16 39 15q22 1 38 -15t16 -38t-16 -38t-39 -16zM-139 1254q-23 0 -39 16t-16 38t16 38t38 15q22 1 39 -15q16 -16 16 -38t-16 -38t-38 -16z" />
    <glyph glyph-name="hookabovecmb" unicode="&#x309;" 
d="M-8 1514q64 0 104 -36t41 -89q0 -103 -99 -147l-27 32q80 35 80 107q1 40 -29 65t-84 25t-93 -31v45q43 29 107 29z" />
    <glyph glyph-name="ringcmb" unicode="&#x30a;" 
d="M0 1288q54 0 90 37t36 90t-36 90t-90 37t-90 -37t-37 -90q1 -53 37 -90t90 -37zM0 1249q-68 0 -116 49t-49 117q1 69 49 117t116 48t116 -48t48 -117q0 -68 -48 -117t-116 -49z" />
    <glyph glyph-name="hungarumlautcmb" unicode="&#x30b;" 
d="M-139 1254l235 303h62l-245 -303h-52zM84 1254l235 303h62l-245 -303h-52z" />
    <glyph glyph-name="caroncmb" unicode="&#x30c;" 
d="M22 1254h-44l-265 303h56l230 -264h2l230 264h56z" />
    <glyph glyph-name="dblgravecmb" unicode="&#x30f;" 
d="M139 1254h-52l-245 303h62zM-84 1254h-52l-245 303h62z" />
    <glyph glyph-name="invertedbrevecmb" unicode="&#x311;" 
d="M-258 1254q0 112 72 174t186 62t186 -62t72 -174h-45q0 88 -58 140t-155 53q-97 -1 -155 -53t-58 -140h-45z" />
    <glyph glyph-name="horncmb" unicode="&#x31b;" 
d="M42 1086q164 0 164 160v114h49v-123q-1 -97 -57 -147t-154 -49q-41 0 -44 3v45q3 -3 42 -3z" />
    <glyph glyph-name="dotbelowcmb" unicode="&#x323;" 
d="M0 -268q-26 0 -45 19t-19 45t19 44q19 19 45 19t45 -19q19 -18 19 -44t-19 -45t-45 -19z" />
    <glyph glyph-name="dieresisbelowcmb" unicode="&#x324;" 
d="M139 -249q-22 0 -38 16t-16 38q0 21 16 37q17 16 39 16t38 -16t16 -37q0 -22 -16 -38t-39 -16zM-139 -249q-23 0 -39 16t-16 38q0 21 16 37t38 16t39 -16q16 -16 16 -37q0 -22 -16 -38t-38 -16z" />
    <glyph glyph-name="ringbelowcmb" unicode="&#x325;" 
d="M0 -434q54 0 90 37t36 90t-36 90t-90 37t-90 -37t-37 -90q1 -53 37 -90t90 -37zM0 -473q-68 0 -116 49t-49 117q1 69 49 117t116 48t116 -48t48 -117q0 -68 -48 -117t-116 -49z" />
    <glyph glyph-name="commabelowcmb" unicode="&#x326;" 
d="M-69 -480h-46l102 338h57z" />
    <glyph glyph-name="cedillacmb" unicode="&#x327;" 
d="M-90 -182v33l69 155l44 -6l-59 -140q94 0 150 -42t56 -114t-60 -118t-146 -48q-86 0 -132 17v43q45 -17 119 -17q73 0 123 36t50 89q0 52 -42 82t-122 30h-50z" />
    <glyph glyph-name="ogonekcmb" unicode="&#x328;" 
d="M-123 -197q0 -61 37 -97q38 -36 102 -37q64 0 103 27v-44q-47 -28 -119 -28t-122 46t-49 122q0 138 150 230l39 -7q-141 -84 -141 -212z" />
    <glyph glyph-name="circumflexbelowcmb" unicode="&#x32d;" 
d="M-23 -141h46l266 -287h-59l-229 249h-2l-229 -249h-59z" />
    <glyph glyph-name="brevebelowcmb" unicode="&#x32e;" 
d="M-257 -144h45q0 -75 58 -125t154 -50t154 50t58 125h45q1 -99 -71 -158t-186 -59t-186 59t-71 158z" />
    <glyph glyph-name="tildebelowcmb" unicode="&#x330;" 
d="M-234 -342h-45q0 92 36 146t105 55q68 -1 124 -59q24 -24 46 -49q53 -59 105 -59q97 0 97 158h45q0 -94 -36 -148t-104 -54q-67 0 -125 60q-24 24 -46 48q-55 60 -105 60q-97 0 -97 -158z" />
    <glyph glyph-name="macronbelowcmb" unicode="&#x331;" 
d="M282 -201v-43h-564v43h564z" />
    <glyph glyph-name="greekquestionmark" unicode="&#x37e;" horiz-adv-x="488" 
d="M204 -211h-41l56 384h53zM244 770q-24 0 -40 17q-17 17 -17 41t17 40q16 16 40 16t40 -16t17 -40q-1 -24 -17 -41t-40 -17z" />
    <glyph glyph-name="tonosgreek" unicode="&#x384;" horiz-adv-x="541" 
d="M177 1254l91 317h62l-110 -317h-43z" />
    <glyph glyph-name="dieresistonosgreek" unicode="&#x385;" horiz-adv-x="795" 
d="M406 1254h-44l54 317h63zM572 1254q-22 0 -38 16t-17 38q0 22 16 38q17 16 39 15q22 1 38 -15t16 -38t-16 -38t-38 -16zM224 1254q-22 0 -38 16t-17 38q0 22 16 38q17 16 39 15q22 1 38 -15t16 -38t-16 -38t-38 -16z" />
    <glyph glyph-name="Alphatonosgreek" unicode="&#x386;" horiz-adv-x="1199" 
d="M189 1101h-45l99 342h63zM597 1374l-315 -827h635l-315 827h-5zM1124 0l-189 501h-671l-190 -501h-55l555 1443h51l555 -1443h-56z" />
    <glyph glyph-name="anoteleia" unicode="&#x387;" horiz-adv-x="488" 
d="M244 962q-24 0 -40 17q-17 17 -17 41t17 40q16 17 40 17t40 -17q16 -16 17 -40q-1 -24 -17 -41t-40 -17z" />
    <glyph glyph-name="Epsilontonosgreek" unicode="&#x388;" horiz-adv-x="1227" 
d="M1154 47v-47h-826v1443h826v-47h-776v-632h740v-46h-740v-671h776zM89 1101h-45l99 342h63z" />
    <glyph glyph-name="Etatonosgreek" unicode="&#x389;" horiz-adv-x="1501" 
d="M1376 0h-50v718h-948v-718h-50v1443h50v-678h948v678h50v-1443zM89 1101h-45l99 342h63z" />
    <glyph glyph-name="Iotatonosgreek" unicode="&#x38a;" horiz-adv-x="502" 
d="M89 1101h-45l99 342h63zM378 0h-50v1443h50v-1443z" />
    <glyph glyph-name="Omicrontonosgreek" unicode="&#x38c;" horiz-adv-x="1516" 
d="M87 1101h-45l99 342h63zM818 1416q-268 0 -428 -188q-158 -188 -158 -506t159 -506t427 -189q268 1 426 189q160 188 160 506t-159 506t-427 188zM818 1463q292 -1 464 -201t172 -540t-172 -542q-172 -200 -464 -200t-464 200t-172 542q0 340 172 540t464 201z" />
    <glyph glyph-name="Upsilontonosgreek" unicode="&#x38e;" horiz-adv-x="1433" 
d="M886 0h-50v631l-529 812h60l492 -758h4l491 758h59l-527 -812v-631zM88 1102h-45l99 342h63z" />
    <glyph glyph-name="Omegatonosgreek" unicode="&#x38f;" horiz-adv-x="1585" 
d="M87 1101h-45l99 342h63zM1431 765q-1 187 -75 335t-210 232t-311 84q-265 0 -432 -182t-167 -469q0 -239 116 -407t359 -283v-75h-528v47h476v4q-473 231 -473 715q0 152 48 282t132 221t205 143t287 51q166 0 314 -89q148 -90 228 -248t81 -360q0 -482 -473 -715v-4h476
v-47h-528v75q244 115 360 283t115 407z" />
    <glyph glyph-name="iotadieresistonosgreek" unicode="&#x390;" horiz-adv-x="468" 
d="M167 1254h-44l54 317h63zM333 1254q-23 0 -39 16t-16 38t16 38t38 15q22 1 39 -15q16 -16 16 -38t-16 -38t-38 -16zM-15 1254q-23 0 -39 16t-16 38t16 38t38 15q22 1 39 -15q16 -16 16 -38t-16 -38t-38 -16zM355 -10q-127 0 -181 58t-54 194v834h49v-833q0 -110 44 -159
t144 -49q55 0 89 10l1 -45q-35 -10 -92 -10z" />
    <glyph glyph-name="Alphagreek" unicode="&#x391;" horiz-adv-x="1201" 
d="M598 1374l-315 -827h635l-315 827h-5zM1125 0l-189 501h-671l-190 -501h-55l555 1443h51l555 -1443h-56z" />
    <glyph glyph-name="Betagreek" unicode="&#x392;" horiz-adv-x="1139" 
d="M174 46h426q204 0 321 90t117 246q0 155 -123 246t-337 91h-404v-673zM174 1397v-632h401q173 -1 279 89t106 233t-103 227t-273 83h-410zM602 0h-478v1443h464q188 -1 305 -97t117 -240t-78 -238q-78 -92 -215 -119v-4q161 -15 265 -113t105 -262q0 -164 -130 -268
q-130 -102 -355 -102z" />
    <glyph glyph-name="Gammagreek" unicode="&#x393;" horiz-adv-x="973" 
d="M174 0h-50v1443h797v-47h-747v-1396z" />
    <glyph glyph-name="Deltagreek" unicode="&#x394;" horiz-adv-x="1254" 
d="M102 47h1050v5l-523 1322h-4l-523 -1322v-5zM1213 0h-1172v37l560 1406h51l561 -1406v-37z" />
    <glyph glyph-name="Epsilongreek" unicode="&#x395;" horiz-adv-x="1023" 
d="M950 47v-47h-826v1443h826v-47h-776v-632h740v-46h-740v-671h776z" />
    <glyph glyph-name="Zetagreek" unicode="&#x396;" horiz-adv-x="1147" 
d="M64 0v42l954 1350v4h-925v47h989v-43l-953 -1349v-4h954v-47h-1019z" />
    <glyph glyph-name="Etagreek" unicode="&#x397;" horiz-adv-x="1296" 
d="M1172 0h-50v718h-948v-718h-50v1443h50v-678h948v678h50v-1443z" />
    <glyph glyph-name="Thetagreek" unicode="&#x398;" horiz-adv-x="1398" 
d="M698 1416q-268 0 -426 -188t-159 -506q0 -318 159 -506t427 -189q267 1 427 189t160 506t-160 506t-428 188zM699 1463q293 -1 465 -201t172 -540t-172 -542q-172 -200 -465 -200t-465 200t-171 542q0 340 172 540t464 201zM1052 707h-706v47h706v-47z" />
    <glyph glyph-name="Iotagreek" unicode="&#x399;" horiz-adv-x="298" 
d="M174 0h-50v1443h50v-1443z" />
    <glyph glyph-name="Kappagreek" unicode="&#x39a;" horiz-adv-x="1107" 
d="M174 0h-50v1443h50v-836h4l784 836h64l-594 -635l664 -808h-64l-636 773l-222 -237v-536z" />
    <glyph glyph-name="Lambdagreek" unicode="&#x39b;" horiz-adv-x="1161" 
d="M1085 0l-502 1369h-5l-503 -1369h-55l535 1443h51l535 -1443h-56z" />
    <glyph glyph-name="Mugreek" unicode="&#x39c;" horiz-adv-x="1576" 
d="M1451 1443v-1443h-49v1328h-4l-584 -1327h-53l-584 1327h-4v-1328h-49v1443h53l609 -1380h4l606 1380h55z" />
    <glyph glyph-name="Nugreek" unicode="&#x39d;" horiz-adv-x="1315" 
d="M174 0h-50v1443h55l958 -1348h4v1348h50v-1443h-46l-967 1359h-4v-1359z" />
    <glyph glyph-name="Xigreek" unicode="&#x39e;" horiz-adv-x="1154" 
d="M73 49h1009v-49h-1009v49zM1023 719h-892v49h892v-49zM73 1443h1009v-49h-1009v49z" />
    <glyph glyph-name="Omicrongreek" unicode="&#x39f;" horiz-adv-x="1398" 
d="M698 1416q-268 0 -426 -188t-159 -506q0 -318 159 -506q158 -188 426 -189q268 1 428 189t159 506q0 318 -159 506q-160 188 -428 188zM698 1463q292 -1 464 -201t173 -540q0 -340 -172 -542q-173 -200 -465 -200t-464 200t-171 542q0 340 172 540q171 200 463 201z" />
    <glyph glyph-name="Pigreek" unicode="&#x3a0;" horiz-adv-x="1276" 
d="M1152 0h-50v1396h-928v-1396h-50v1443h1028v-1443z" />
    <glyph glyph-name="Rhogreek" unicode="&#x3a1;" horiz-adv-x="1087" 
d="M174 1396v-748h394q192 0 304 100t113 274q-1 174 -113 274t-304 100h-394zM124 1443h448q212 0 338 -114t125 -307q0 -193 -126 -307t-338 -114h-397v-601h-50v1443z" />
    <glyph glyph-name="Sigmagreek" unicode="&#x3a3;" horiz-adv-x="1126" 
d="M128 47h934v-47h-998v42l483 698l-465 659v44h960v-47h-894v-4l457 -648v-4l-477 -689v-4z" />
    <glyph glyph-name="Taugreek" unicode="&#x3a4;" horiz-adv-x="1117" 
d="M583 0h-49v1396h-521v47h1091v-47h-521v-1396z" />
    <glyph glyph-name="Upsilongreek" unicode="&#x3a5;" horiz-adv-x="1148" 
d="M600 0h-50v631l-529 812h60l492 -758h4l491 758h59l-527 -812v-631z" />
    <glyph glyph-name="Phigreek" unicode="&#x3a6;" horiz-adv-x="1511" 
d="M780 -59h-50v123q-325 1 -506 175q-181 175 -181 485t181 484t506 176v106h50v-106q324 -2 506 -176t183 -484q-1 -310 -183 -485q-182 -174 -506 -175v-123zM93 724q0 -286 169 -450q169 -163 468 -164v1227q-300 -3 -468 -165t-169 -448zM1417 724q0 286 -169 448
t-468 165v-1227q299 1 468 164q169 164 169 450z" />
    <glyph glyph-name="Chigreek" unicode="&#x3a7;" horiz-adv-x="1190" 
d="M41 0l524 721v1l-523 721h60l493 -680h1l494 680h59l-523 -721l522 -722h-60l-492 680h-1l-495 -680h-59z" />
    <glyph glyph-name="Psigreek" unicode="&#x3a8;" horiz-adv-x="1399" 
d="M724 0h-50v357q-281 0 -426 142t-145 417v527h50v-527q0 -252 133 -382t388 -130v1039h50v-1039q256 0 389 130t133 382v527h50v-527q0 -275 -146 -417t-426 -142v-357z" />
    <glyph glyph-name="Omegagreek" unicode="&#x3a9;" horiz-adv-x="1503" 
d="M1349 765q-1 187 -75 335t-210 232t-311 84q-265 0 -432 -182t-167 -469q0 -239 116 -407t359 -283v-75h-528v47h476v4q-473 231 -473 715q0 152 48 282t132 221t205 143t287 51q166 0 314 -89q148 -90 228 -248t81 -360q0 -482 -473 -715v-4h476v-47h-528v75
q244 115 360 283t115 407z" />
    <glyph glyph-name="Iotadieresisgreek" unicode="&#x3aa;" horiz-adv-x="347" 
d="M337 1556q-22 0 -38 16t-16 38t16 38q17 16 39 15q22 1 38 -15t16 -38t-16 -38t-39 -16zM59 1556q-23 0 -39 16t-16 38t16 38t38 15q22 1 39 -15q16 -16 16 -38t-16 -38t-38 -16zM223 0h-50v1443h50v-1443z" />
    <glyph glyph-name="Upsilondieresisgreek" unicode="&#x3ab;" horiz-adv-x="1208" 
d="M773 1556q-22 0 -38 16t-16 38t16 38q17 16 39 15q22 1 38 -15t16 -38t-16 -38t-39 -16zM495 1556q-23 0 -39 16t-16 38t16 38t38 15q22 1 39 -15q16 -16 16 -38t-16 -38t-38 -16zM660 0h-50v631l-529 812h60l492 -758h4l491 758h59l-527 -812v-631z" />
    <glyph glyph-name="alphatonosgreek" unicode="&#x3ac;" horiz-adv-x="1209" 
d="M509 1254l91 317h62l-110 -317h-43zM976 192q0 -156 102 -156q48 0 81 9l5 -44q-23 -10 -78 -10q-158 0 -160 190v134h-2q-28 -135 -144 -233t-258 -98q-200 0 -328 156t-129 398q1 242 129 398t325 156q90 0 175 -42t149 -120t85 -175h2v321h46v-884zM522 31
q176 1 290 145t114 362t-118 364q-118 144 -290 144q-173 0 -288 -144t-115 -365t115 -363q116 -142 292 -143z" />
    <glyph glyph-name="epsilontonosgreek" unicode="&#x3ad;" horiz-adv-x="1019" 
d="M147 795q0 -215 310 -215h145v-48h-147q-154 0 -242 -66t-88 -184q1 -118 95 -184t256 -67q162 0 280 76t150 199h51q-29 -142 -163 -232t-318 -90t-292 79t-108 219q0 106 63 178t173 93v2q-98 9 -156 73t-58 167q0 135 110 216t292 81q180 0 299 -90t139 -241h-49
q-12 125 -122 205t-268 80t-255 -69t-97 -182zM480 1254l91 317h62l-110 -317h-43z" />
    <glyph glyph-name="etatonosgreek" unicode="&#x3ae;" horiz-adv-x="1203" 
d="M480 1254l91 317h62l-110 -317h-43zM270 884q0 157 -117 157q-43 0 -72 -10v45q33 10 95 10t100 -48t39 -132q1 -83 1 -84h2q40 126 144 198t257 72q155 0 263 -110t108 -277v-1098h-49v1081q1 158 -95 258t-258 100t-265 -111q-104 -111 -104 -297v-638h-49v884z" />
    <glyph glyph-name="iotatonosgreek" unicode="&#x3af;" horiz-adv-x="468" 
d="M126 1254l91 317h62l-110 -317h-43zM355 -10q-127 0 -181 58t-54 194v834h49v-833q0 -110 44 -159t144 -49q55 0 89 10l1 -45q-35 -10 -92 -10z" />
    <glyph glyph-name="upsilondieresistonosgreek" unicode="&#x3b0;" horiz-adv-x="1031" 
d="M518 -16q-196 0 -301 110q-104 110 -104 313v669h49v-666q0 -183 91 -281t265 -98q174 1 276 145t101 422q0 278 -81 478h51q80 -204 80 -490q1 -286 -115 -444t-312 -158zM495 1254h-44l54 317h63zM661 1254q-23 0 -39 16t-16 38t16 38t38 15q22 1 39 -15q16 -16 16 -38
t-16 -38t-38 -16zM313 1254q-23 0 -39 16t-16 38t16 38t38 15q22 1 39 -15q16 -16 16 -38t-16 -38t-38 -16z" />
    <glyph glyph-name="alphagreek" unicode="&#x3b1;" horiz-adv-x="1209" 
d="M976 192q0 -156 102 -156q48 0 81 9l5 -44q-23 -10 -78 -10q-158 0 -160 190v134h-2q-28 -135 -144 -233t-258 -98q-200 0 -328 156t-129 398q1 242 129 398t325 156q90 0 175 -42t149 -120t85 -175h2v321h46v-884zM522 31q176 1 290 145t114 362t-118 364
q-118 144 -290 144q-173 0 -288 -144t-115 -365t115 -363q116 -142 292 -143z" />
    <glyph glyph-name="betagreek" unicode="&#x3b2;" horiz-adv-x="1108" 
d="M120 1020q0 242 112 372t306 130t298 -100t105 -265q-1 -127 -71 -219t-198 -119v-2q180 -25 276 -131t95 -288q0 -180 -120 -297q-119 -117 -299 -117t-298 88t-155 243h-2v-708h-49v1413zM414 791v48h149q149 -1 239 87t91 231q-1 143 -93 231t-264 87t-269 -117
q-98 -116 -98 -342v-470q1 -236 119 -376t306 -139t293 105q106 104 106 279q1 175 -119 275t-324 101h-136z" />
    <glyph glyph-name="gammagreek" unicode="&#x3b3;" horiz-adv-x="971" 
d="M876 878q0 -118 -42 -256t-126 -278q-84 -141 -240 -351v-347h-49v340l-388 1090h54l362 -1025h2q211 285 295 470t83 394q0 77 -14 161h51q12 -80 12 -198z" />
    <glyph glyph-name="deltagreek" unicode="&#x3b4;" horiz-adv-x="1049" 
d="M524 30q186 0 301 124t115 322q0 284 -187 414q-104 73 -236 72q-169 0 -291 -121t-122 -337t117 -345t303 -129zM524 -16q-206 0 -338 140q-130 140 -130 368t120 364t326 147v3q-142 56 -202 118t-60 166q0 102 88 167t256 65t293 -66l-1 -47q-132 67 -286 67
q-301 0 -301 -197q1 -86 73 -145q72 -60 264 -134t278 -198q85 -124 85 -334q1 -208 -129 -346t-336 -138z" />
    <glyph glyph-name="epsilongreek" unicode="&#x3b5;" horiz-adv-x="1019" 
d="M147 795q0 -215 310 -215h145v-48h-147q-154 0 -242 -66t-88 -184q1 -118 95 -184t256 -67q162 0 280 76t150 199h51q-29 -142 -163 -232t-318 -90t-292 79t-108 219q0 106 63 178t173 93v2q-98 9 -156 73t-58 167q0 135 110 216t292 81q180 0 299 -90t139 -241h-49
q-12 125 -122 205t-268 80t-255 -69t-97 -182z" />
    <glyph glyph-name="zetagreek" unicode="&#x3b6;" horiz-adv-x="838" 
d="M777 -218q-1 84 -57 140t-194 107q-261 95 -361 208t-100 306q1 242 189 499t471 414v2h-580v48h670v-48q-312 -170 -506 -420t-194 -494q0 -92 19 -156q18 -64 70 -120t135 -102t227 -101q144 -56 202 -118t58 -160t-61 -180l-43 11q55 80 55 164z" />
    <glyph glyph-name="etagreek" unicode="&#x3b7;" horiz-adv-x="1203" 
d="M270 884q0 157 -117 157q-43 0 -72 -10v45q33 10 95 10t100 -48t39 -132q1 -83 1 -84h2q40 126 144 198t257 72q155 0 263 -110t108 -277v-1098h-49v1081q1 158 -95 258t-258 100t-265 -111q-104 -111 -104 -297v-638h-49v884z" />
    <glyph glyph-name="thetagreek" unicode="&#x3b8;" horiz-adv-x="1092" 
d="M546 1475q-204 -1 -308 -177q-106 -176 -107 -518h831q0 342 -106 518t-310 177zM547 31q203 0 309 179t106 524h-831q1 -344 107 -524t309 -179zM1011 755q0 -771 -465 -771t-465 771q0 379 118 573q117 194 347 194t348 -194t117 -573z" />
    <glyph glyph-name="iotagreek" unicode="&#x3b9;" horiz-adv-x="468" 
d="M355 -10q-127 0 -181 58t-54 194v834h49v-833q0 -110 44 -159t144 -49q55 0 89 10l1 -45q-35 -10 -92 -10z" />
    <glyph glyph-name="kappagreek" unicode="&#x3ba;" horiz-adv-x="1057" 
d="M120 0v1076h49v-721h2l536 618q55 63 99 88t94 25t77 -10v-45q-27 10 -69 10t-79 -22q-36 -22 -87 -81l-238 -275l484 -663h-62l-455 625l-302 -343v-282h-49z" />
    <glyph glyph-name="lambdagreek" unicode="&#x3bb;" horiz-adv-x="1084" 
d="M205 1474q-64 0 -91 -10v48q33 10 77 10q99 0 155 -50t104 -183l405 -1154q21 -57 47 -78t70 -21q42 0 72 9l6 -44q-30 -10 -86 -10t-90 27t-61 101l-299 861h-2l-419 -980h-53l450 1046l-81 225q-42 115 -91 159t-113 44z" />
    <glyph glyph-name="mugreek" unicode="&#x3bc;" horiz-adv-x="1189" 
d="M940 192q0 -156 104 -156q48 0 80 9l5 -44q-23 -10 -78 -10q-157 0 -159 188q0 65 -1 66h-2q-38 -119 -141 -190t-235 -71q-133 0 -225 61t-117 163h-2v-601h-49v1469h49v-683q-1 -169 91 -265t255 -97q163 0 269 113t107 288v644h49v-884z" />
    <glyph glyph-name="nugreek" unicode="&#x3bd;" horiz-adv-x="970" 
d="M825 915q0 77 -14 161h51q13 -79 13 -198q-1 -118 -41 -254t-123 -276t-238 -348h-60l-382 1076h54l362 -1025h2q210 284 293 469t83 395z" />
    <glyph glyph-name="xigreek" unicode="&#x3be;" horiz-adv-x="869" 
d="M130 1128q0 129 93 215t260 113v2h-353v48h651v-45l-116 -10q-241 -20 -367 -103q-126 -82 -126 -218t117 -210t326 -75h89v-48h-87q-502 0 -502 -347q0 -86 37 -144q36 -58 126 -112q90 -53 257 -117q167 -65 229 -125t62 -162t-61 -183l-43 11q55 79 55 165t-58 140
t-196 107q-139 53 -225 97t-140 94q-54 49 -74 103t-19 129q1 155 97 251t267 113v2q-299 77 -299 309z" />
    <glyph glyph-name="omicrongreek" unicode="&#x3bf;" horiz-adv-x="1069" 
d="M534 31q188 0 304 138q117 139 117 369t-117 369t-304 139t-303 -138t-116 -370q-1 -232 115 -370t304 -137zM534 -16q-213 0 -341 150t-128 403q0 255 128 405t341 150q214 0 342 -150t128 -405q0 -253 -128 -403t-342 -150z" />
    <glyph glyph-name="pigreek" unicode="&#x3c0;" horiz-adv-x="1278" 
d="M983 191q1 -155 103 -155q48 0 80 9l5 -44q-23 -10 -91 -10q-146 0 -146 195v843h-597v-1028h-49v1028h-214v47h1128v-47h-219v-838z" />
    <glyph glyph-name="rhogreek" unicode="&#x3c1;" horiz-adv-x="1072" 
d="M85 -393v943q-1 250 125 396t334 146t336 -154t127 -402q0 -248 -127 -400t-333 -152q-145 0 -261 94t-149 237h-2v-708h-50zM549 31q183 1 295 141t113 367q0 227 -113 367q-114 140 -302 140t-298 -132t-109 -364q-1 -232 115 -376t299 -143z" />
    <glyph glyph-name="sigmafinalgreek" unicode="&#x3c2;" horiz-adv-x="1018" 
d="M777 -218q-1 84 -57 140t-194 107q-260 95 -360 207t-101 304q0 254 127 403t341 149q163 0 280 -92t144 -239h-51q-26 125 -128 205t-245 80q-193 0 -305 -137t-113 -367q1 -122 39 -200t131 -142q93 -62 259 -126t224 -127q58 -62 58 -160t-61 -180l-43 11
q55 80 55 164z" />
    <glyph glyph-name="sigmagreek" unicode="&#x3c3;" horiz-adv-x="1195" 
d="M530 31q188 -1 305 139q118 140 118 368q1 228 -107 358q-108 132 -302 132t-312 -136q-117 -136 -117 -362q-1 -226 113 -363q114 -136 302 -136zM530 -16q-209 0 -337 149t-128 399t132 397t365 147h558v-47h-377v-3q121 -54 189 -182t68 -306q0 -248 -130 -401
t-340 -153z" />
    <glyph glyph-name="taugreek" unicode="&#x3c4;" horiz-adv-x="971" 
d="M672 -10q-128 0 -182 58t-54 195v786h-376v47h860v-47h-434v-783q0 -112 44 -162t145 -49q53 0 86 10l5 -45q-33 -10 -94 -10z" />
    <glyph glyph-name="upsilongreek" unicode="&#x3c5;" horiz-adv-x="1031" 
d="M518 -16q-196 0 -301 110q-104 110 -104 313v669h49v-666q0 -183 91 -281t265 -98q174 1 276 145t101 422q0 278 -81 478h51q80 -204 80 -490q1 -286 -115 -444t-312 -158z" />
    <glyph glyph-name="phigreek" unicode="&#x3c6;" horiz-adv-x="1350" 
d="M105 538q0 -228 151 -368q151 -141 395 -142v1020q-245 -2 -395 -142t-151 -368zM1246 538q0 228 -150 368t-396 142v-1020q244 1 395 142q151 140 151 368zM651 -393v377q-274 8 -435 158t-161 397q0 248 160 397t436 156v263h49v-263q276 -7 436 -156t159 -397
q-1 -247 -161 -397t-434 -158v-377h-49z" />
    <glyph glyph-name="chigreek" unicode="&#x3c7;" horiz-adv-x="1152" 
d="M148 1041q-47 0 -74 -10v45q32 10 88 10t96 -31t79 -110l282 -560h2l379 691h56l-408 -736l288 -576q33 -67 66 -94t77 -27t75 10l5 -45q-33 -10 -91 -10t-98 33q-39 33 -78 112l-278 551h-2l-375 -687h-56l404 732l-289 579q-36 72 -68 98t-80 25z" />
    <glyph glyph-name="psigreek" unicode="&#x3c8;" horiz-adv-x="1269" 
d="M607 -393v377q-236 2 -365 110t-129 312v670h49v-674q0 -167 108 -269t337 -102v1324h49v-1325q113 2 200 38t138 90q140 148 140 435t-83 483h52q80 -198 80 -496t-164 -463q-128 -128 -363 -134v-376h-49z" />
    <glyph glyph-name="omegagreek" unicode="&#x3c9;" horiz-adv-x="1445" 
d="M426 -19q-164 1 -252 135t-88 381q0 157 47 317t122 262h60q-83 -101 -131 -257t-49 -350q0 -194 77 -318t210 -124q132 0 204 101t72 282v326h49v-326q-1 -181 71 -282t205 -101t210 124t77 318t-48 350t-132 257h61q75 -102 122 -263t47 -316q0 -247 -89 -381
t-252 -135q-111 0 -189 69t-106 192h-2q-28 -124 -106 -192t-190 -69z" />
    <glyph glyph-name="iotadieresisgreek" unicode="&#x3ca;" horiz-adv-x="468" 
d="M355 -10q-127 0 -181 58t-54 194v834h49v-833q0 -110 44 -159t144 -49q55 0 89 10l1 -45q-35 -10 -92 -10zM290 1254q-22 0 -38 16t-16 38t16 38t38 15q22 1 39 -15q16 -16 16 -38q-1 -22 -17 -38t-38 -16zM12 1254q-22 0 -38 16t-17 38q0 22 16 38q17 16 39 15
q22 1 38 -15t16 -38t-16 -38t-38 -16z" />
    <glyph glyph-name="upsilondieresisgreek" unicode="&#x3cb;" horiz-adv-x="1031" 
d="M518 -16q-196 0 -301 110q-104 110 -104 313v669h49v-666q0 -183 91 -281t265 -98q174 1 276 145t101 422q0 278 -81 478h51q80 -204 80 -490q1 -286 -115 -444t-312 -158zM624 1254q-22 0 -38 16t-16 38t16 38t38 15q22 1 39 -15q16 -16 16 -38q-1 -22 -17 -38t-38 -16z
M346 1254q-22 0 -38 16t-17 38q0 22 16 38q17 16 39 15q22 1 38 -15t16 -38t-16 -38t-38 -16z" />
    <glyph glyph-name="omicrontonosgreek" unicode="&#x3cc;" horiz-adv-x="1069" 
d="M509 1254l91 317h62l-110 -317h-43zM534 31q188 0 304 138q117 139 117 369t-117 369t-304 139t-303 -138t-116 -370q-1 -232 115 -370t304 -137zM534 -16q-213 0 -341 150t-128 403q0 255 128 405t341 150q214 0 342 -150t128 -405q0 -253 -128 -403t-342 -150z" />
    <glyph glyph-name="upsilontonosgreek" unicode="&#x3cd;" horiz-adv-x="1031" 
d="M518 -16q-196 0 -301 110q-104 110 -104 313v669h49v-666q0 -183 91 -281t265 -98q174 1 276 145t101 422q0 278 -81 478h51q80 -204 80 -490q1 -286 -115 -444t-312 -158zM441 1254l91 317h62l-110 -317h-43z" />
    <glyph glyph-name="omegatonosgreek" unicode="&#x3ce;" horiz-adv-x="1445" 
d="M702 1254l91 317h62l-110 -317h-43zM426 -19q-164 1 -252 135t-88 381q0 157 47 317t122 262h60q-83 -101 -131 -257t-49 -350q0 -194 77 -318t210 -124q132 0 204 101t72 282v326h49v-326q-1 -181 71 -282t205 -101t210 124t77 318t-48 350t-132 257h61
q75 -102 122 -263t47 -316q0 -247 -89 -381t-252 -135q-111 0 -189 69t-106 192h-2q-28 -124 -106 -192t-190 -69z" />
    <glyph glyph-name="Iocyrillic" unicode="&#x401;" horiz-adv-x="1043" 
d="M960 47v-47h-826v1443h826v-47h-776v-632h740v-46h-740v-671h776zM686 1556q-22 0 -38 16t-16 38t16 38t38 15q22 1 39 -15q16 -16 16 -38q-1 -22 -17 -38t-38 -16zM408 1556q-22 0 -38 16t-17 38q0 22 16 38q17 16 39 15q22 1 38 -15t16 -38t-16 -38t-38 -16z" />
    <glyph glyph-name="Djecyrillic" unicode="&#x402;" horiz-adv-x="1524" 
d="M1055 -10q-70 0 -103 10v47q30 -9 101 -9q149 0 239 104t90 280q0 175 -106 281t-288 106q-118 -1 -224 -49t-172 -127v-633h-49v1396h-520v47h1091v-47h-522v-694h5q71 72 173 113t219 41q203 0 323 -120t119 -315q0 -195 -104 -313t-272 -118z" />
    <glyph glyph-name="Gjecyrillic" unicode="&#x403;" horiz-adv-x="1011" 
d="M184 0h-50v1443h815v-47h-765v-1396zM527 1554h-56l293 287h66z" />
    <glyph glyph-name="Ecyrillic" unicode="&#x404;" horiz-adv-x="1322" 
d="M702 -20q-287 0 -458 204t-171 544q-1 340 169 538q170 197 460 197q215 0 377 -137t181 -335h-49q-20 179 -167 302t-342 123q-260 0 -416 -175t-163 -476h772v-47h-772q3 -317 161 -504t418 -187q202 -1 346 111t162 290h49q-17 -196 -174 -322t-383 -126z" />
    <glyph glyph-name="Dzecyrillic" unicode="&#x405;" horiz-adv-x="1134" 
d="M578 26q196 0 319 100t123 251q0 120 -85 193t-277 121l-167 42q-201 49 -295 133t-94 216q0 163 135 272t331 109q196 1 331 -103q136 -104 143 -258h-50q-7 135 -129 225t-297 90q-174 1 -294 -95t-120 -240q0 -114 85 -185t270 -117l165 -41q206 -53 302 -137t96 -223
q0 -175 -136 -287t-356 -112q-218 0 -363 113t-153 289h50q8 -156 140 -256q130 -100 326 -100z" />
    <glyph glyph-name="Icyrillic" unicode="&#x406;" horiz-adv-x="318" 
d="M184 0h-50v1443h50v-1443z" />
    <glyph glyph-name="Yicyrillic" unicode="&#x407;" horiz-adv-x="318" 
d="M298 1556q-22 0 -38 16t-16 38t16 38t38 15q22 1 39 -15q16 -16 16 -38q-1 -22 -17 -38t-38 -16zM20 1556q-22 0 -38 16t-17 38q0 22 16 38q17 16 39 15q22 1 38 -15t16 -38t-16 -38t-38 -16zM184 0h-50v1443h50v-1443z" />
    <glyph glyph-name="Jecyrillic" unicode="&#x408;" horiz-adv-x="953" 
d="M438 26q148 0 240 95q91 95 91 263v1059h50v-1062q-1 -185 -105 -293t-275 -109q-171 0 -277 94t-111 242h49q6 -129 98 -209t240 -80z" />
    <glyph glyph-name="Ljecyrillic" unicode="&#x409;" horiz-adv-x="2039" 
d="M1115 47h393q190 -1 304 101t114 272t-114 272t-304 101h-393v-746zM76 38q104 0 151 114t60 305l60 986h768v-603h396q212 0 338 -114t126 -306t-126 -306t-338 -114h-446v1396h-670l-57 -946q-23 -459 -265 -459q-24 0 -56 9v47q9 -9 59 -9z" />
    <glyph glyph-name="Njecyrillic" unicode="&#x40a;" horiz-adv-x="2083" 
d="M184 718v-718h-50v1443h50v-678h927v678h50v-678h396q213 0 339 -101q126 -100 125 -276q1 -176 -125 -282t-339 -106h-446v718h-927zM1161 47h393q192 -1 305 93t113 248t-114 242t-304 88h-393v-671z" />
    <glyph glyph-name="Tshecyrillic" unicode="&#x40b;" horiz-adv-x="1544" 
d="M989 856q195 0 314 -126t119 -335v-395h-50v387q0 190 -106 306t-279 116q-113 0 -221 -48t-174 -128v-633h-49v1396h-520v47h1091v-47h-522v-693h5q157 153 392 153z" />
    <glyph glyph-name="Kjecyrillic" unicode="&#x40c;" horiz-adv-x="1135" 
d="M184 723v-723h-50v1443h50v-684h4l792 684h73l-814 -699l868 -744h-76l-843 723h-4zM859 1841l-303 -287h-56l293 287h66z" />
    <glyph glyph-name="Ushortcyrillic" unicode="&#x40e;" horiz-adv-x="1114" 
d="M258 38q38 0 74 17q65 31 114 107t102 193l-517 1088h57l484 -1025h5l452 1025h54l-474 -1072q-81 -181 -111 -225q-64 -90 -118 -122q-54 -33 -107 -33q-54 0 -81 9v47q27 -9 66 -9zM318 1770h46q0 -83 58 -130t154 -47t154 47t58 130h46q0 -103 -70 -160t-188 -57
t-188 57t-70 160z" />
    <glyph glyph-name="Dzhecyrillic" unicode="&#x40f;" horiz-adv-x="1305" 
d="M628 0h-494v1443h50v-1396h937v1396h50v-1443h-494v-285h-49v285z" />
    <glyph glyph-name="Acyrillic" unicode="&#x410;" horiz-adv-x="1221" 
d="M608 1374l-315 -827h635l-315 827h-5zM1135 0l-189 501h-671l-190 -501h-55l555 1443h51l555 -1443h-56z" />
    <glyph glyph-name="Becyrillic" unicode="&#x411;" horiz-adv-x="1118" 
d="M184 47h402q192 0 305 98t113 264q0 167 -114 265t-304 98h-402v-725zM1053 410q1 -188 -125 -299t-339 -111h-455v1443h802v-47h-752v-577h405q212 0 338 -111q126 -110 126 -298z" />
    <glyph glyph-name="Vecyrillic" unicode="&#x412;" horiz-adv-x="1159" 
d="M184 46h426q204 0 321 90t117 246q0 155 -123 246t-337 91h-404v-673zM184 1397v-632h401q173 -1 279 89t106 233t-103 227t-273 83h-410zM612 0h-478v1443h464q188 -1 305 -97t117 -240t-78 -238q-78 -92 -215 -119v-4q161 -15 265 -113t105 -262q0 -164 -130 -268
q-130 -102 -355 -102z" />
    <glyph glyph-name="Gecyrillic" unicode="&#x413;" horiz-adv-x="1011" 
d="M184 0h-50v1443h815v-47h-765v-1396z" />
    <glyph glyph-name="Decyrillic" unicode="&#x414;" horiz-adv-x="1341" 
d="M60 0v-286h-49v333h93q138 67 158 407l60 989h816v-1396h189v-333h-49v286h-1218zM189 47h899v1349h-718l-57 -948q-17 -299 -124 -396v-5z" />
    <glyph glyph-name="Iecyrillic" unicode="&#x415;" horiz-adv-x="1043" 
d="M960 47v-47h-826v1443h826v-47h-776v-632h740v-46h-740v-671h776z" />
    <glyph glyph-name="Zhecyrillic" unicode="&#x416;" horiz-adv-x="1756" 
d="M903 723v-723h-50v723h-4l-757 -723h-73l779 744l-727 699h72l706 -684h4v684h50v-684h4l706 684h69l-726 -698l781 -745h-74l-756 723h-4z" />
    <glyph glyph-name="Zecyrillic" unicode="&#x417;" horiz-adv-x="1102" 
d="M358 728v46h166q192 0 302 89t110 229t-106 234q-106 92 -272 92t-275 -88q-108 -88 -127 -226h-49q19 159 139 260t310 101t310 -105t120 -249q0 -143 -84 -235t-233 -120v-4q176 -12 274 -109t98 -264q1 -167 -135 -283t-349 -117q-213 0 -349 110t-146 267h50
q10 -136 133 -233t313 -97t311 104q122 104 122 264q1 160 -117 247t-350 87h-166z" />
    <glyph glyph-name="Iicyrillic" unicode="&#x418;" horiz-adv-x="1335" 
d="M1151 0v1358h-5l-962 -1358h-50v1443h50v-1358h5l962 1358h50v-1443h-50z" />
    <glyph glyph-name="Iishortcyrillic" unicode="&#x419;" horiz-adv-x="1335" 
d="M1151 0v1358h-5l-962 -1358h-50v1443h50v-1358h5l962 1358h50v-1443h-50zM410 1770h46q0 -83 58 -130t154 -47t154 47t58 130h46q0 -103 -70 -160t-188 -57t-188 57t-70 160z" />
    <glyph glyph-name="Kacyrillic" unicode="&#x41a;" horiz-adv-x="1136" 
d="M184 723v-723h-50v1443h50v-684h4l792 684h73l-814 -699l868 -744h-76l-843 723h-4z" />
    <glyph glyph-name="Elcyrillic" unicode="&#x41b;" horiz-adv-x="1258" 
d="M76 38q104 0 151 115q48 115 60 304l60 986h777v-1443h-50v1396h-679l-57 -946q-20 -336 -144 -424q-50 -36 -121 -35q-24 0 -56 9v47q9 -9 59 -9z" />
    <glyph glyph-name="Emcyrillic" unicode="&#x41c;" horiz-adv-x="1596" 
d="M1461 1443v-1443h-49v1328h-4l-584 -1327h-53l-584 1327h-4v-1328h-49v1443h53l609 -1380h4l606 1380h55z" />
    <glyph glyph-name="Encyrillic" unicode="&#x41d;" horiz-adv-x="1316" 
d="M1182 0h-50v718h-948v-718h-50v1443h50v-678h948v678h50v-1443z" />
    <glyph glyph-name="Ocyrillic" unicode="&#x41e;" horiz-adv-x="1418" 
d="M708 1416q-268 0 -426 -188t-159 -506q0 -318 159 -506q158 -188 426 -189q268 1 428 189t159 506q0 318 -159 506q-160 188 -428 188zM708 1463q292 -1 464 -201t173 -540q0 -340 -172 -542q-173 -200 -465 -200t-464 200t-171 542q0 340 172 540q171 200 463 201z" />
    <glyph glyph-name="Pecyrillic" unicode="&#x41f;" horiz-adv-x="1305" 
d="M1171 0h-49v1396h-938v-1396h-50v1443h1037v-1443z" />
    <glyph glyph-name="Ercyrillic" unicode="&#x420;" horiz-adv-x="1107" 
d="M184 1396v-748h394q192 0 304 100t113 274q-1 174 -113 274t-304 100h-394zM134 1443h448q212 0 338 -114t125 -307q0 -193 -126 -307t-338 -114h-397v-601h-50v1443z" />
    <glyph glyph-name="Escyrillic" unicode="&#x421;" horiz-adv-x="1322" 
d="M702 -20q-287 0 -458 204t-171 544q-1 340 169 538q170 197 460 197q215 0 377 -137t181 -335h-49q-20 179 -167 302t-342 123q-266 0 -422 -184t-157 -504t157 -510t422 -191q202 -1 346 111t162 290h49q-17 -196 -174 -322t-383 -126z" />
    <glyph glyph-name="Tecyrillic" unicode="&#x422;" horiz-adv-x="1137" 
d="M593 0h-49v1396h-521v47h1091v-47h-521v-1396z" />
    <glyph glyph-name="Ucyrillic" unicode="&#x423;" horiz-adv-x="1114" 
d="M258 38q38 0 74 17q65 31 114 107t102 193l-517 1088h57l484 -1025h5l452 1025h54l-474 -1072q-81 -181 -111 -225q-64 -90 -118 -122q-54 -33 -107 -33q-54 0 -81 9v47q27 -9 66 -9z" />
    <glyph glyph-name="Efcyrillic" unicode="&#x424;" horiz-adv-x="1498" 
d="M725 149q-307 -1 -485 153t-177 420q0 266 178 418q178 154 484 155v159h50v-159q305 -1 483 -155t178 -418t-178 -419q-178 -154 -483 -154v-160h-50v160zM1386 722q0 240 -166 383t-445 143v-1053q279 1 445 144t166 383zM725 1248q-280 0 -446 -143t-166 -383
q1 -240 167 -383t445 -144v1053z" />
    <glyph glyph-name="Xacyrillic" unicode="&#x425;" horiz-adv-x="1210" 
d="M51 0l524 721v1l-523 721h60l493 -680h1l494 680h59l-523 -721l522 -722h-60l-492 680h-1l-495 -680h-59z" />
    <glyph glyph-name="Tsecyrillic" unicode="&#x426;" horiz-adv-x="1365" 
d="M1351 -285h-49v285h-1168v1443h50v-1396h928v1396h50v-1396h189v-332z" />
    <glyph glyph-name="Checyrillic" unicode="&#x427;" horiz-adv-x="1185" 
d="M1051 0h-50v753h-3q-159 -165 -429 -165q-206 0 -335 126t-129 336v393h49v-385q0 -197 116 -310t305 -113q189 -1 335 101q65 45 91 82v625h50v-1443z" />
    <glyph glyph-name="Shacyrillic" unicode="&#x428;" horiz-adv-x="1737" 
d="M134 0v1443h50v-1396h660v1396h49v-1396h660v1396h50v-1443h-1469z" />
    <glyph glyph-name="Shchacyrillic" unicode="&#x429;" horiz-adv-x="1806" 
d="M1792 -285h-49v285h-1609v1443h50v-1396h660v1396h49v-1396h660v1396h50v-1396h189v-332z" />
    <glyph glyph-name="Hardsigncyrillic" unicode="&#x42a;" horiz-adv-x="1356" 
d="M433 47h394q191 -1 305 101t113 272q1 170 -113 272t-305 101h-394v-746zM830 0h-446v1396h-358v47h407v-603h397q212 0 338 -114t126 -306t-126 -306t-338 -114z" />
    <glyph glyph-name="Yericyrillic" unicode="&#x42b;" horiz-adv-x="1462" 
d="M184 47h394q191 -1 304 101t113 272q1 170 -113 272t-304 101h-394v-746zM134 0v1443h50v-603h397q212 0 338 -114t126 -306t-126 -306t-338 -114h-447zM1328 0h-50v1443h50v-1443z" />
    <glyph glyph-name="Softsigncyrillic" unicode="&#x42c;" horiz-adv-x="1107" 
d="M184 47h394q191 -1 304 101t113 272q1 170 -113 272t-304 101h-394v-746zM134 0v1443h50v-603h397q212 0 338 -114t126 -306t-126 -306t-338 -114h-447z" />
    <glyph glyph-name="Ereversedcyrillic" unicode="&#x42d;" horiz-adv-x="1334" 
d="M639 -20q-233 0 -394 124t-183 324h51q21 -175 170 -288t356 -113q263 -1 417 187t155 504h-763v47h762q-10 299 -164 475t-407 176q-127 0 -243 -56t-192 -154t-91 -215h-51q16 131 98 239t209 171q127 62 270 62q288 1 455 -199t167 -544t-166 -542t-456 -198z" />
    <glyph glyph-name="IUcyrillic" unicode="&#x42e;" horiz-adv-x="1813" 
d="M1124 1417q-258 0 -412 -189q-154 -188 -154 -506t154 -507t412 -189t412 190t154 506q0 317 -154 506t-412 189zM1124 -21q-286 0 -450 198q-165 198 -166 541h-324v-718h-50v1443h50v-678h325q11 325 175 512t445 187t447 -199t165 -543q1 -344 -165 -544t-452 -199z
" />
    <glyph glyph-name="IAcyrillic" unicode="&#x42f;" horiz-adv-x="1119" 
d="M78 1046q0 180 124 288q124 109 340 109h442v-1443h-49v628h-425l-422 -628h-56l425 635q-171 23 -275 127t-104 284zM935 675v721h-390q-194 0 -306 -96t-112 -264t112 -264t306 -97h390z" />
    <glyph glyph-name="acyrillic" unicode="&#x430;" horiz-adv-x="1030" 
d="M450 -16q-150 0 -250 84t-100 220q0 274 380 304l389 30v97q-1 153 -87 240t-238 87t-244 -74q-93 -74 -114 -209h-47q17 153 126 241t281 88t272 -100t100 -270v-722h-49v245h-1q-40 -117 -154 -189t-264 -72zM476 30q152 0 272 108t121 258v182l-381 -29
q-166 -13 -252 -80t-86 -181t88 -186q86 -72 238 -72z" />
    <glyph glyph-name="becyrillic" unicode="&#x431;" horiz-adv-x="1114" 
d="M564 26q193 0 309 139t116 367t-116 364q-115 136 -309 135q-194 1 -310 -135t-115 -364q0 -228 116 -368q116 -138 309 -138zM636 1438q-130 0 -216 -34t-146 -114t-90 -202q-32 -123 -47 -310h3q48 142 160 220t266 79q215 0 344 -148t129 -397q0 -248 -130 -400
q-131 -152 -351 -152t-344 158t-124 432q0 272 28 440t92 275q66 107 168 153t300 46q197 0 290 39v-43q-92 -42 -332 -42z" />
    <glyph glyph-name="vecyrillic" unicode="&#x432;" horiz-adv-x="968" 
d="M130 0v1076h383q149 0 237 -70t88 -180t-58 -178t-155 -86v-3q116 -9 194 -77t78 -200q1 -130 -97 -206t-280 -76h-390zM520 45q329 0 329 254q1 115 -91 175t-250 60h-329v-489h341zM512 1030h-333v-450h328q129 0 205 64t77 169q0 105 -73 161t-204 56z" />
    <glyph glyph-name="gecyrillic" unicode="&#x433;" horiz-adv-x="851" 
d="M799 1031h-620v-1031h-49v1076h669v-45z" />
    <glyph glyph-name="decyrillic" unicode="&#x434;" horiz-adv-x="1178" 
d="M73 -285h-48v330h83q60 38 90 141q54 183 89 890h682v-1031h179v-330h-49v285h-1026v-285zM919 45v986h-586q-23 -386 -40 -561t-41 -272t-75 -150v-3h742z" />
    <glyph glyph-name="iecyrillic" unicode="&#x435;" horiz-adv-x="1076" 
d="M551 -16q-219 0 -347 147t-129 402q0 255 128 407q129 152 337 152t334 -143t127 -375v-38h-876v-2q0 -236 116 -370t311 -134q156 0 258 75t126 194h51q-28 -139 -144 -227t-292 -88zM544 1046q-182 0 -295 -128q-114 -128 -123 -337h825q-1 207 -113 336t-294 129z" />
    <glyph glyph-name="zhecyrillic" unicode="&#x436;" horiz-adv-x="1383" 
d="M714 539v-539h-49v539h-2l-566 -539h-70l588 559l-560 517h70l538 -498h2v498h49v-498h3l537 498h70l-559 -515l591 -561h-73l-566 539h-3z" />
    <glyph glyph-name="zecyrillic" unicode="&#x437;" horiz-adv-x="926" 
d="M476 -20q-170 0 -277 80t-134 212h49q25 -106 119 -176q95 -70 243 -70t237 69t89 190t-91 183t-249 63h-176v45h176q141 0 222 64t81 172q-1 106 -79 169t-215 63t-225 -72t-114 -187h-49q27 133 127 219t260 86q162 0 253 -75t91 -188t-64 -181t-164 -87v-4
q113 -13 189 -81t76 -200t-102 -214q-103 -80 -273 -80z" />
    <glyph glyph-name="iicyrillic" unicode="&#x438;" horiz-adv-x="1086" 
d="M130 0v1076h49v-997h3l725 997h49v-1076h-49v996h-3l-725 -996h-49z" />
    <glyph glyph-name="iishortcyrillic" unicode="&#x439;" horiz-adv-x="1086" 
d="M130 0v1076h49v-997h3l725 997h49v-1076h-49v996h-3l-725 -996h-49zM307 1490h47q0 -92 56 -144t156 -52q98 0 154 52t57 144h47q0 -111 -69 -174t-189 -63t-190 63q-69 63 -69 174z" />
    <glyph glyph-name="kacyrillic" unicode="&#x43a;" horiz-adv-x="924" 
d="M179 539v-539h-49v1076h49v-498h3l612 498h72l-632 -517l664 -559h-75l-641 539h-3z" />
    <glyph glyph-name="elcyrillic" unicode="&#x43b;" horiz-adv-x="1083" 
d="M82 -9q-34 0 -61 9v47q-1 -9 49 -9q93 0 132 114q38 114 57 334q19 221 38 590h656v-1076h-49v1031h-561q-34 -568 -47 -662q-12 -93 -24 -149t-28 -94t-40 -70q-22 -32 -55 -49q-33 -16 -67 -16z" />
    <glyph glyph-name="emcyrillic" unicode="&#x43c;" horiz-adv-x="1360" 
d="M179 0h-49v1076h54l497 -1013h3l492 1013h54v-1076h-49v976h-3l-477 -974h-41l-478 974h-3v-976z" />
    <glyph glyph-name="encyrillic" unicode="&#x43d;" horiz-adv-x="1075" 
d="M896 0v535h-717v-535h-49v1076h49v-496h717v496h50v-1076h-50z" />
    <glyph glyph-name="ocyrillic" unicode="&#x43e;" horiz-adv-x="1098" 
d="M549 31q193 -1 309 137t116 370t-116 370t-309 138q-192 0 -308 -138t-116 -370q0 -233 116 -370t308 -137zM548 -16q-214 0 -343 150q-130 150 -130 404q1 254 131 404t343 150t343 -150t131 -404q-1 -254 -131 -404t-344 -150z" />
    <glyph glyph-name="pecyrillic" unicode="&#x43f;" horiz-adv-x="1065" 
d="M886 0v1031h-707v-1031h-49v1076h806v-1076h-50z" />
    <glyph glyph-name="ercyrillic" unicode="&#x440;" horiz-adv-x="1126" 
d="M593 31q181 1 295 141t114 366t-114 366q-114 142 -295 142q-182 0 -298 -142t-116 -366t116 -366t298 -141zM597 1092q201 0 327 -154t127 -400q0 -246 -126 -400t-328 -154q-155 0 -269 94t-147 237h-2v-655h-49v1416h46v-321h2q34 145 148 241t271 96z" />
    <glyph glyph-name="escyrillic" unicode="&#x441;" horiz-adv-x="1025" 
d="M535 1046q-193 0 -307 -138t-113 -370q0 -233 113 -370t307 -137q135 0 233 67t131 178h51q-34 -132 -146 -212t-269 -80q-215 0 -342 150t-127 404t127 404t341 150q158 0 272 -86t148 -225h-51q-31 117 -131 191t-237 74z" />
    <glyph glyph-name="tecyrillic" unicode="&#x442;" horiz-adv-x="937" 
d="M897 1076v-45h-404v-1031h-49v1031h-404v45h857z" />
    <glyph glyph-name="ucyrillic" unicode="&#x443;" horiz-adv-x="927" 
d="M197 -343q-26 0 -47 9v47q22 -9 53 -9q69 0 115 46t90 159l28 72l-415 1095h54l387 -1029h2l388 1029h54l-417 -1101q-74 -195 -130 -257t-162 -61z" />
    <glyph glyph-name="efcyrillic" unicode="&#x444;" horiz-adv-x="1364" 
d="M75 534q0 252 158 400q158 147 425 155v383h49v-383q267 -9 425 -155t157 -398q0 -252 -158 -400t-424 -156v-373h-49v373q-267 8 -425 155t-158 399zM1239 535q0 229 -145 365t-387 143v-1017q242 8 387 144t145 365zM124 534q0 -230 146 -365t388 -143v1017
q-242 -7 -388 -143t-146 -366z" />
    <glyph glyph-name="hacyrillic" unicode="&#x445;" horiz-adv-x="889" 
d="M446 506h-3l-370 -506h-61l403 548l-402 528h62l369 -489h2l369 489h62l-402 -527l401 -549h-60z" />
    <glyph glyph-name="tsecyrillic" unicode="&#x446;" horiz-adv-x="1145" 
d="M1114 -285h-48v285h-936v1076h49v-1031h707v1031h49v-1031h179v-330z" />
    <glyph glyph-name="checyrillic" unicode="&#x447;" horiz-adv-x="990" 
d="M860 0h-49v558h-2q-53 -68 -141 -107t-190 -39q-178 0 -278 106t-100 280v278h49v-265q0 -163 87 -258t242 -95q108 0 197 48t136 127v443h49v-1076z" />
    <glyph glyph-name="shacyrillic" unicode="&#x448;" horiz-adv-x="1562" 
d="M130 0v1076h49v-1031h577v1031h50v-1031h577v1031h49v-1076h-1302z" />
    <glyph glyph-name="shchacyrillic" unicode="&#x449;" horiz-adv-x="1642" 
d="M1612 -285h-49v285h-1433v1076h49v-1031h577v1031h50v-1031h577v1031h49v-1031h180v-330z" />
    <glyph glyph-name="hardsigncyrillic" unicode="&#x44a;" horiz-adv-x="1105" 
d="M674 622h-295v-577h295q142 1 226 79t85 210q-1 132 -85 210t-226 78zM674 0h-344v1031h-290v45h339v-408h295q165 0 263 -90t98 -244t-98 -244t-263 -90z" />
    <glyph glyph-name="yericyrillic" unicode="&#x44b;" horiz-adv-x="1223" 
d="M130 0v1076h49v-408h295q164 0 262 -90t99 -244q0 -152 -99 -243t-262 -91h-344zM474 622h-295v-577h295q142 1 226 79t85 210q-1 132 -85 210t-226 78zM1044 0v1076h49v-1076h-49z" />
    <glyph glyph-name="softsigncyrillic" unicode="&#x44c;" horiz-adv-x="905" 
d="M130 0v1076h49v-408h295q164 0 262 -90t99 -244q0 -152 -99 -243t-262 -91h-344zM474 622h-295v-577h295q142 1 226 79t85 210q-1 132 -85 210t-226 78z" />
    <glyph glyph-name="ereversedcyrillic" unicode="&#x44d;" horiz-adv-x="1037" 
d="M498 31q194 0 304 136t110 368h-595v45h594q-11 214 -121 340t-292 126q-138 0 -240 -74t-134 -191h-50q33 137 150 224t274 87q214 0 339 -150t125 -404t-124 -404t-340 -150q-158 0 -272 80t-148 212h51q33 -110 133 -178t236 -67z" />
    <glyph glyph-name="iucyrillic" unicode="&#x44e;" horiz-adv-x="1480" 
d="M940 26q187 0 301 138t114 371q0 232 -114 370t-301 138q-186 0 -300 -138q-114 -139 -114 -371t114 -370t300 -138zM940 -20q-212 0 -337 150q-126 150 -127 405h-297v-535h-49v1076h49v-496h299q12 236 137 373t331 137t332 -150t127 -406q-1 -254 -127 -404t-338 -150
z" />
    <glyph glyph-name="iacyrillic" unicode="&#x44f;" horiz-adv-x="935" 
d="M756 0v448h-297l-339 -448h-61l342 451q-147 11 -233 93t-85 222q-1 140 97 225t263 85h363v-1076h-50zM443 494h313v537h-313q-143 1 -227 -73t-84 -196t85 -195t226 -73z" />
    <glyph glyph-name="iocyrillic" unicode="&#x451;" horiz-adv-x="1076" 
d="M682 1254q-22 0 -38 16t-16 38t16 38t38 15q22 1 39 -15q16 -16 16 -38q-1 -22 -17 -38t-38 -16zM404 1254q-22 0 -38 16t-17 38q0 22 16 38q17 16 39 15q22 1 38 -15t16 -38t-16 -38t-38 -16zM551 -16q-219 0 -347 147t-129 402q0 255 128 407q129 152 337 152t334 -143
t127 -375v-38h-876v-2q0 -236 116 -370t311 -134q156 0 258 75t126 194h51q-28 -139 -144 -227t-292 -88zM544 1046q-182 0 -295 -128q-114 -128 -123 -337h825q-1 207 -113 336t-294 129z" />
    <glyph glyph-name="djecyrillic" unicode="&#x452;" horiz-adv-x="1133" 
d="M1010 -80q0 -140 -65 -201t-198 -61h-29v45h27q113 0 165 50t51 163v778q0 158 -101 255t-258 97q-158 0 -266 -112t-108 -292v-642h-50v1280h-148v44h148v186h50v-186h297v-44h-297v-449h4q40 121 142 191t237 70q177 0 288 -106t111 -282v-784z" />
    <glyph glyph-name="gjecyrillic" unicode="&#x453;" horiz-adv-x="851" 
d="M799 1031h-620v-1031h-49v1076h669v-45zM457 1254h-53l236 303h63z" />
    <glyph glyph-name="ecyrillic" unicode="&#x454;" horiz-adv-x="1056" 
d="M553 -16q-215 0 -342 150t-127 404t127 404t342 150q157 0 271 -87t148 -224h-50q-32 117 -132 191t-237 74q-183 0 -295 -126t-123 -340h594v-45h-595q2 -232 114 -368t305 -136q135 0 233 67t132 178h51q-35 -132 -147 -212t-269 -80z" />
    <glyph glyph-name="dzecyrillic" unicode="&#x455;" horiz-adv-x="925" 
d="M102 820q0 112 105 192t261 80t258 -88t116 -240h-48q-14 126 -102 204t-222 78q-135 0 -227 -67t-92 -161t57 -142t182 -78l167 -40q160 -38 231 -104t71 -186t-110 -202t-280 -82q-171 0 -283 92t-120 228h50q10 -114 109 -194t243 -80t242 68t99 170q0 101 -62 156
t-205 89l-169 39q-139 33 -205 94q-66 62 -66 174z" />
    <glyph glyph-name="icyrillic" unicode="&#x456;" horiz-adv-x="355" 
d="M178 1366q-20 0 -34 14t-15 34q1 20 15 34t34 14t34 -14t14 -34t-14 -34t-34 -14zM153 0v1076h49v-1076h-49z" />
    <glyph glyph-name="yicyrillic" unicode="&#x457;" horiz-adv-x="329" 
d="M304 1254q-22 0 -38 16t-16 38t16 38t38 15q22 1 39 -15q16 -16 16 -38q-1 -22 -17 -38t-38 -16zM26 1254q-22 0 -38 16t-17 38q0 22 16 38q17 16 39 15q22 1 38 -15t16 -38t-16 -38t-38 -16zM140 0v1076h49v-1076h-49z" />
    <glyph glyph-name="jecyrillic" unicode="&#x458;" horiz-adv-x="330" 
d="M164 1366q-20 0 -34 14t-14 34t14 34t35 14q20 0 34 -14t14 -34q-1 -20 -15 -34t-34 -14zM189 1076v-1156q0 -138 -65 -200t-198 -62h-29v45h27q112 0 164 50t52 163v1160h49z" />
    <glyph glyph-name="ljecyrillic" unicode="&#x459;" horiz-adv-x="1678" 
d="M1248 622h-295v-577h295q142 1 226 79t85 210q-1 132 -85 210t-226 78zM82 -9q-34 0 -61 9v47q-1 -9 49 -9q93 0 132 114q38 114 57 334q19 221 38 590h656v-408h295q164 0 262 -90t98 -244t-98 -244t-262 -90h-344v1031h-561q-34 -568 -47 -662q-12 -93 -24 -149
t-28 -94t-40 -70q-22 -32 -55 -49q-33 -16 -67 -16z" />
    <glyph glyph-name="njecyrillic" unicode="&#x45a;" horiz-adv-x="1651" 
d="M876 0v560h-697v-560h-49v1076h49v-471h697v471h50v-469h295q165 0 263 -82t97 -221q1 -140 -97 -222t-263 -82h-345zM1221 562h-295v-517h295q143 1 227 71t84 188t-84 188t-227 70z" />
    <glyph glyph-name="tshecyrillic" unicode="&#x45b;" horiz-adv-x="1133" 
d="M228 831h4q40 121 142 191t237 70q177 0 288 -106t111 -282v-704h-49v694q0 158 -101 255t-258 97q-158 0 -266 -112t-108 -292v-642h-50v1280h-148v44h148v186h50v-186h297v-44h-297v-449z" />
    <glyph glyph-name="kjecyrillic" unicode="&#x45c;" horiz-adv-x="924" 
d="M179 539v-539h-49v1076h49v-498h3l612 498h72l-632 -517l664 -559h-75l-641 539h-3zM717 1557l-246 -303h-53l236 303h63z" />
    <glyph glyph-name="ushortcyrillic" unicode="&#x45e;" horiz-adv-x="927" 
d="M197 -343q-26 0 -47 9v47q22 -9 53 -9q69 0 115 46t90 159l28 72l-415 1095h54l387 -1029h2l388 1029h54l-417 -1101q-74 -195 -130 -257t-162 -61zM226 1490h47q1 -92 57 -144t154 -52t156 52q56 52 56 144h47q0 -111 -69 -174q-70 -63 -190 -63t-189 63t-69 174z" />
    <glyph glyph-name="dzhecyrillic" unicode="&#x45f;" horiz-adv-x="1065" 
d="M936 0h-379v-285h-49v285h-378v1076h49v-1031h707v1031h50v-1076z" />
    <glyph glyph-name="Geupturncyrillic" unicode="&#x490;" horiz-adv-x="1011" 
d="M184 1396v-1396h-50v1443h766v250h49v-297h-765z" />
    <glyph glyph-name="geupturncyrillic" unicode="&#x491;" horiz-adv-x="851" 
d="M799 1031h-620v-1031h-49v1076h621v250h48v-295z" />
    <glyph glyph-name="baht" unicode="&#xe3f;" horiz-adv-x="1179" 
d="M1064 373q0 -169 -130 -271t-370 -102h-35v-176h-44v176h-370v1443h370v153h44v-153h24q201 1 317 -93t117 -244q-1 -150 -79 -234q-78 -85 -216 -110v-5q164 -12 268 -113t104 -271zM551 1397h-22v-618h14q179 1 287 83t107 227t-105 227t-281 81zM165 1397v-618h320
v618h-320zM165 46h320v687h-320v-687zM529 46h33q216 0 334 90t118 252t-124 254t-344 91h-17v-687z" />
    <glyph glyph-name="Aringbelow" unicode="&#x1e00;" horiz-adv-x="1201" 
d="M600 -434q54 0 90 37t36 90t-36 90t-90 37t-90 -37t-37 -90q1 -53 37 -90t90 -37zM600 -473q-68 0 -116 49t-49 117q1 69 49 117t116 48t116 -48t48 -117q0 -68 -48 -117t-116 -49zM598 1374l-315 -827h635l-315 827h-5zM1125 0l-189 501h-671l-190 -501h-55l555 1443h51
l555 -1443h-56z" />
    <glyph glyph-name="aringbelow" unicode="&#x1e01;" horiz-adv-x="1021" 
d="M518 -434q54 0 90 37t37 90q-1 53 -37 90t-90 37t-90 -37t-36 -90t36 -90t90 -37zM518 -473q-68 0 -116 49t-48 117q0 69 48 117t116 48t116 -48t49 -117q-1 -68 -49 -117t-116 -49zM440 -16q-150 0 -250 84t-100 220q0 274 380 304l389 30v97q-1 153 -87 240t-238 87
t-244 -74q-93 -74 -114 -209h-47q17 153 126 241t281 88t272 -100t100 -270v-722h-49v245h-1q-40 -117 -154 -189t-264 -72zM466 30q152 0 272 108t121 258v182l-381 -29q-166 -13 -252 -80t-86 -181t88 -186q86 -72 238 -72z" />
    <glyph glyph-name="Bdotaccent" unicode="&#x1e02;" horiz-adv-x="1139" 
d="M174 46h426q204 0 321 90t117 246q0 155 -123 246t-337 91h-404v-673zM174 1397v-632h401q173 -1 279 89t106 233t-103 227t-273 83h-410zM602 0h-478v1443h464q188 -1 305 -97t117 -240t-78 -238q-78 -92 -215 -119v-4q161 -15 265 -113t105 -262q0 -164 -130 -268
q-130 -102 -355 -102zM503 1556q-26 0 -45 19t-19 45t19 44q19 19 45 19t45 -19q19 -18 19 -44t-19 -45t-45 -19z" />
    <glyph glyph-name="bdotaccent" unicode="&#x1e03;" horiz-adv-x="1116" 
d="M594 1046q-182 0 -298 -143q-117 -143 -117 -365q1 -222 117 -365q116 -142 298 -142t294 141q114 140 114 366t-113 367t-295 141zM600 -16q-152 0 -266 91t-153 244h-2v-319h-49v1506h49v-745h2q37 151 151 241t267 90q200 0 326 -154t126 -399q0 -247 -126 -401
t-325 -154zM155 1619q-26 0 -45 19q-19 18 -19 44t19 45t45 19t45 -19t19 -45t-19 -44q-19 -19 -45 -19z" />
    <glyph glyph-name="Bdotbelow" unicode="&#x1e04;" horiz-adv-x="1139" 
d="M174 46h426q204 0 321 90t117 246q0 155 -123 246t-337 91h-404v-673zM174 1397v-632h401q173 -1 279 89t106 233t-103 227t-273 83h-410zM602 0h-478v1443h464q188 -1 305 -97t117 -240t-78 -238q-78 -92 -215 -119v-4q161 -15 265 -113t105 -262q0 -164 -130 -268
q-130 -102 -355 -102zM503 -268q-26 0 -45 19t-19 45t19 44q19 19 45 19t45 -19q19 -18 19 -44t-19 -45t-45 -19z" />
    <glyph glyph-name="bdotbelow" unicode="&#x1e05;" horiz-adv-x="1116" 
d="M594 1046q-182 0 -298 -143q-117 -143 -117 -365q1 -222 117 -365q116 -142 298 -142t294 141q114 140 114 366t-113 367t-295 141zM600 -16q-152 0 -266 91t-153 244h-2v-319h-49v1506h49v-745h2q37 151 151 241t267 90q200 0 326 -154t126 -399q0 -247 -126 -401
t-325 -154zM595 -268q-26 0 -45 19t-19 45t19 44q19 19 45 19t45 -19q19 -18 19 -44t-19 -45t-45 -19z" />
    <glyph glyph-name="Blinebelow" unicode="&#x1e06;" horiz-adv-x="1139" 
d="M785 -201v-43h-564v43h564zM174 46h426q204 0 321 90t117 246q0 155 -123 246t-337 91h-404v-673zM174 1397v-632h401q173 -1 279 89t106 233t-103 227t-273 83h-410zM602 0h-478v1443h464q188 -1 305 -97t117 -240t-78 -238q-78 -92 -215 -119v-4q161 -15 265 -113
t105 -262q0 -164 -130 -268q-130 -102 -355 -102z" />
    <glyph glyph-name="blinebelow" unicode="&#x1e07;" horiz-adv-x="1116" 
d="M594 1046q-182 0 -298 -143q-117 -143 -117 -365q1 -222 117 -365q116 -142 298 -142t294 141q114 140 114 366t-113 367t-295 141zM600 -16q-152 0 -266 91t-153 244h-2v-319h-49v1506h49v-745h2q37 151 151 241t267 90q200 0 326 -154t126 -399q0 -247 -126 -401
t-325 -154zM877 -201v-43h-564v43h564z" />
    <glyph glyph-name="Ccedillaacute" unicode="&#x1e08;" horiz-adv-x="1303" 
d="M692 1416q-266 0 -422 -184t-157 -504t157 -510t422 -191q203 0 347 115t162 298h49q-10 -131 -84 -235t-194 -163t-264 -62l-51 -120q94 0 150 -42t56 -114t-60 -118t-146 -48q-86 0 -132 17v43q45 -17 119 -17t124 36t49 89q-1 52 -43 82t-121 30h-50v33l58 130
q-274 11 -436 214t-162 539q-1 336 169 532q170 197 460 197q215 -1 377 -141t181 -343h-49q-20 185 -167 311t-342 126zM1014 1841l-303 -287h-56l293 287h66z" />
    <glyph glyph-name="ccedillaacute" unicode="&#x1e09;" horiz-adv-x="1019" 
d="M534 1046q-193 0 -306 -138t-113 -370q1 -233 113 -370t306 -137q145 0 246 76t126 200h50q-25 -141 -135 -229t-271 -94l-52 -124q94 0 150 -42t56 -114t-60 -118t-146 -48q-86 0 -132 17v43q45 -17 119 -17q73 0 123 36t50 89q0 52 -42 82t-122 30h-50v33l60 134
q-203 11 -321 159t-118 398t127 400t342 150q163 0 280 -94t144 -238h-50q-26 126 -128 206t-246 80zM785 1557l-246 -303h-53l236 303h63z" />
    <glyph glyph-name="Ddotaccent" unicode="&#x1e0a;" horiz-adv-x="1313" 
d="M175 1396v-1349h384q309 0 475 175q166 176 166 500t-166 499t-475 175h-384zM124 1443h436q330 0 510 -188q180 -187 180 -533t-180 -534t-510 -188h-436v1443zM553 1556q-26 0 -45 19t-19 45t19 44q19 19 45 19t45 -19q19 -18 19 -44t-19 -45t-45 -19z" />
    <glyph glyph-name="ddotaccent" unicode="&#x1e0b;" horiz-adv-x="1126" 
d="M528 1046q-182 0 -298 -141q-115 -141 -115 -367t115 -366q116 -141 298 -141q182 -1 300 141t118 366t-118 366t-300 142zM524 -16q-202 0 -330 154t-129 400q1 246 129 400t330 154q156 0 272 -95t148 -236h2v745h50v-1506h-46v322h-2q-36 -146 -152 -242t-272 -96z
M971 1619q-26 0 -45 19q-19 18 -19 44t19 45t45 19t45 -19t19 -45t-19 -44q-19 -19 -45 -19z" />
    <glyph glyph-name="Ddotbelow" unicode="&#x1e0c;" horiz-adv-x="1313" 
d="M175 1396v-1349h384q309 0 475 175q166 176 166 500t-166 499t-475 175h-384zM124 1443h436q330 0 510 -188q180 -187 180 -533t-180 -534t-510 -188h-436v1443zM553 -268q-26 0 -45 19t-19 45t19 44q19 19 45 19t45 -19q19 -18 19 -44t-19 -45t-45 -19z" />
    <glyph glyph-name="ddotbelow" unicode="&#x1e0d;" horiz-adv-x="1126" 
d="M528 1046q-182 0 -298 -141q-115 -141 -115 -367t115 -366q116 -141 298 -141q182 -1 300 141t118 366t-118 366t-300 142zM524 -16q-202 0 -330 154t-129 400q1 246 129 400t330 154q156 0 272 -95t148 -236h2v745h50v-1506h-46v322h-2q-36 -146 -152 -242t-272 -96z
M552 -268q-26 0 -45 19t-19 45t19 44q19 19 45 19t45 -19q19 -18 19 -44t-19 -45t-45 -19z" />
    <glyph glyph-name="Dlinebelow" unicode="&#x1e0e;" horiz-adv-x="1313" 
d="M175 1396v-1349h384q309 0 475 175q166 176 166 500t-166 499t-475 175h-384zM124 1443h436q330 0 510 -188q180 -187 180 -533t-180 -534t-510 -188h-436v1443zM835 -201v-43h-564v43h564z" />
    <glyph glyph-name="dlinebelow" unicode="&#x1e0f;" horiz-adv-x="1126" 
d="M528 1046q-182 0 -298 -141q-115 -141 -115 -367t115 -366q116 -141 298 -141q182 -1 300 141t118 366t-118 366t-300 142zM524 -16q-202 0 -330 154t-129 400q1 246 129 400t330 154q156 0 272 -95t148 -236h2v745h50v-1506h-46v322h-2q-36 -146 -152 -242t-272 -96z
M834 -201v-43h-564v43h564z" />
    <glyph glyph-name="Dcommaaccent" unicode="&#x1e10;" horiz-adv-x="1313" 
d="M175 1396v-1349h384q309 0 475 175q166 176 166 500t-166 499t-475 175h-384zM124 1443h436q330 0 510 -188q180 -187 180 -533t-180 -534t-510 -188h-436v1443zM484 -480h-46l102 338h57z" />
    <glyph glyph-name="dcommaaccent" unicode="&#x1e11;" horiz-adv-x="1126" 
d="M528 1046q-182 0 -298 -141q-115 -141 -115 -367t115 -366q116 -141 298 -141q182 -1 300 141t118 366t-118 366t-300 142zM524 -16q-202 0 -330 154t-129 400q1 246 129 400t330 154q156 0 272 -95t148 -236h2v745h50v-1506h-46v322h-2q-36 -146 -152 -242t-272 -96z
M483 -480h-46l102 338h57z" />
    <glyph glyph-name="Dcircumflexbelow" unicode="&#x1e12;" horiz-adv-x="1313" 
d="M530 -141h46l266 -287h-59l-229 249h-2l-229 -249h-59zM175 1396v-1349h384q309 0 475 175q166 176 166 500t-166 499t-475 175h-384zM124 1443h436q330 0 510 -188q180 -187 180 -533t-180 -534t-510 -188h-436v1443z" />
    <glyph glyph-name="dcircumflexbelow" unicode="&#x1e13;" horiz-adv-x="1126" 
d="M529 -141h46l266 -287h-59l-229 249h-2l-229 -249h-59zM528 1046q-182 0 -298 -141q-115 -141 -115 -367t115 -366q116 -141 298 -141q182 -1 300 141t118 366t-118 366t-300 142zM524 -16q-202 0 -330 154t-129 400q1 246 129 400t330 154q156 0 272 -95t148 -236h2v745
h50v-1506h-46v322h-2q-36 -146 -152 -242t-272 -96z" />
    <glyph glyph-name="Emacrongrave" unicode="&#x1e14;" horiz-adv-x="1050" 
d="M950 47v-47h-826v1443h826v-47h-776v-632h740v-46h-740v-671h776zM581 1755h-56l-221 202h63zM255 1616v43h564v-43h-564z" />
    <glyph glyph-name="emacrongrave" unicode="&#x1e15;" horiz-adv-x="1056" 
d="M818 1348v-43h-584v43h584zM585 1506h-52l-257 307h59zM541 -16q-219 0 -347 147t-129 402q0 255 128 407q129 152 337 152t334 -143t127 -375v-38h-876v-2q0 -236 116 -370t311 -134q156 0 258 75t126 194h51q-28 -139 -144 -227t-292 -88zM534 1046q-182 0 -295 -128
q-114 -128 -123 -337h825q-1 207 -113 336t-294 129z" />
    <glyph glyph-name="Emacronacute" unicode="&#x1e16;" horiz-adv-x="1050" 
d="M950 47v-47h-826v1443h826v-47h-776v-632h740v-46h-740v-671h776zM493 1755l214 202h63l-221 -202h-56zM819 1616h-564v43h564v-43z" />
    <glyph glyph-name="emacronacute" unicode="&#x1e17;" horiz-adv-x="1056" 
d="M818 1348v-43h-584v43h584zM481 1506l250 307h59l-257 -307h-52zM541 -16q-219 0 -347 147t-129 402q0 255 128 407q129 152 337 152t334 -143t127 -375v-38h-876v-2q0 -236 116 -370t311 -134q156 0 258 75t126 194h51q-28 -139 -144 -227t-292 -88zM534 1046
q-182 0 -295 -128q-114 -128 -123 -337h825q-1 207 -113 336t-294 129z" />
    <glyph glyph-name="Ecircumflexbelow" unicode="&#x1e18;" horiz-adv-x="1050" 
d="M514 -141h46l266 -287h-59l-229 249h-2l-229 -249h-59zM950 47v-47h-826v1443h826v-47h-776v-632h740v-46h-740v-671h776z" />
    <glyph glyph-name="ecircumflexbelow" unicode="&#x1e19;" horiz-adv-x="1056" 
d="M518 -141h46l266 -287h-59l-229 249h-2l-229 -249h-59zM541 -16q-219 0 -347 147t-129 402q0 255 128 407q129 152 337 152t334 -143t127 -375v-38h-876v-2q0 -236 116 -370t311 -134q156 0 258 75t126 194h51q-28 -139 -144 -227t-292 -88zM534 1046q-182 0 -295 -128
q-114 -128 -123 -337h825q-1 207 -113 336t-294 129z" />
    <glyph glyph-name="Etildebelow" unicode="&#x1e1a;" horiz-adv-x="1050" 
d="M950 47v-47h-826v1443h826v-47h-776v-632h740v-46h-740v-671h776zM303 -342h-45q0 92 36 146t105 55q69 -1 125 -59q24 -24 46 -49q53 -59 104 -59q97 0 97 158h45q0 -94 -36 -148t-104 -54t-126 60q-24 24 -46 48q-55 59 -104 60q-97 0 -97 -158z" />
    <glyph glyph-name="etildebelow" unicode="&#x1e1b;" horiz-adv-x="1056" 
d="M541 -16q-219 0 -347 147t-129 402q0 255 128 407q129 152 337 152t334 -143t127 -375v-38h-876v-2q0 -236 116 -370t311 -134q156 0 258 75t126 194h51q-28 -139 -144 -227t-292 -88zM534 1046q-182 0 -295 -128q-114 -128 -123 -337h825q-1 207 -113 336t-294 129z
M307 -342h-45q0 92 36 146t105 55q69 -1 125 -59q24 -24 46 -49q53 -59 104 -59q97 0 97 158h45q0 -94 -36 -148t-104 -54t-126 60q-24 24 -46 48q-55 60 -104 60q-97 0 -97 -158z" />
    <glyph glyph-name="Ecedillabreve" unicode="&#x1e1c;" horiz-adv-x="1050" 
d="M950 1396h-776v-632h740v-46h-740v-671h776v-47h-390l-59 -140q94 0 150 -42t56 -114t-60 -118t-146 -48q-86 0 -132 17v43q45 -17 119 -17t124 36t49 89q-1 52 -43 82t-121 30h-50v33l66 149h-389v1443h826v-47zM749 1771h45q0 -99 -72 -158t-185 -59t-185 59t-72 158
h45q1 -75 59 -125t153 -50t153 50t59 125z" />
    <glyph glyph-name="ecedillabreve" unicode="&#x1e1d;" horiz-adv-x="1056" 
d="M991 536h-876v-2q0 -236 116 -370t311 -134q156 0 258 75t126 194h51q-27 -135 -139 -223t-281 -92l-52 -124q94 0 150 -42t56 -114t-60 -118t-146 -48q-86 0 -132 17v43q45 -17 119 -17t124 36t49 89q-1 52 -43 82t-121 30h-50v33l60 134q-206 11 -326 157t-120 396
t128 402q129 152 337 152t334 -143t127 -375v-38zM941 581q-1 207 -113 336t-294 129t-295 -128q-114 -128 -123 -337h825zM746 1490h45q0 -112 -72 -174t-186 -63q-114 1 -186 63t-72 174h45q0 -88 58 -141t155 -53t155 53t58 141z" />
    <glyph glyph-name="Fdotaccent" unicode="&#x1e1e;" horiz-adv-x="1020" 
d="M174 0h-50v1443h817v-47h-767v-634h706v-47h-706v-715zM532 1556q-26 0 -45 19t-19 45t19 44q19 19 45 19t45 -19q19 -18 19 -44t-19 -45t-45 -19z" />
    <glyph glyph-name="fdotaccent" unicode="&#x1e1f;" horiz-adv-x="509" 
d="M170 0v1031h-150v45h150v169q0 123 58 181t165 59q47 0 74 -10v-46q-30 10 -73 10q-174 0 -174 -201v-162h237v-45h-237v-1031h-50zM305 1583q-26 0 -45 19q-19 18 -19 44t19 45t45 19t45 -19t19 -45t-19 -44q-19 -19 -45 -19z" />
    <glyph glyph-name="Gmacron" unicode="&#x1e20;" horiz-adv-x="1332" 
d="M967 1659v-43h-564v43h564zM1259 564q1 -272 -153 -428t-421 -156q-181 0 -323 94t-220 266q-78 171 -79 391q0 329 171 531t451 201q213 0 369 -118t195 -309h-49q-42 172 -183 276t-332 104q-258 0 -415 -188t-157 -499t159 -507t408 -195q250 0 390 143t140 392v100
h-531v46h580v-144z" />
    <glyph glyph-name="gmacron" unicode="&#x1e21;" horiz-adv-x="1106" 
d="M558 -354q-182 0 -293 64q-110 64 -134 169h53q20 -83 118 -135t258 -52t268 82t109 224v318h-2q-33 -142 -147 -236t-269 -95q-202 -1 -328 153t-126 400q1 246 127 400t327 154q156 0 270 -96t149 -241h2v321h46v-1076q0 -166 -123 -260t-305 -94zM522 31
q182 -1 299 141q116 142 116 366t-116 366q-117 142 -299 142t-294 -141t-113 -367q1 -226 113 -366t294 -141zM844 1348v-43h-584v43h584z" />
    <glyph glyph-name="Hdotaccent" unicode="&#x1e22;" horiz-adv-x="1296" 
d="M648 1556q-26 0 -45 19t-19 45t19 44q19 19 45 19t45 -19q19 -18 19 -44t-19 -45t-45 -19zM1172 0h-50v718h-948v-718h-50v1443h50v-678h948v678h50v-1443z" />
    <glyph glyph-name="hdotaccent" unicode="&#x1e23;" horiz-adv-x="1075" 
d="M155 1619q-26 0 -45 19q-19 18 -19 44t19 45t45 19t45 -19t19 -45t-19 -44q-19 -19 -45 -19zM130 0v1506h49v-684h2q35 120 139 195t244 75q178 0 288 -108t110 -289v-695h-50v693q0 163 -98 258t-260 95t-268 -112t-107 -289v-645h-49z" />
    <glyph glyph-name="Hdotbelow" unicode="&#x1e24;" horiz-adv-x="1296" 
d="M648 -268q-26 0 -45 19t-19 45t19 44q19 19 45 19t45 -19q19 -18 19 -44t-19 -45t-45 -19zM1172 0h-50v718h-948v-718h-50v1443h50v-678h948v678h50v-1443z" />
    <glyph glyph-name="hdotbelow" unicode="&#x1e25;" horiz-adv-x="1075" 
d="M544 -268q-26 0 -45 19t-19 45t19 44q19 19 45 19t45 -19q19 -18 19 -44t-19 -45t-45 -19zM130 0v1506h49v-684h2q35 120 139 195t244 75q178 0 288 -108t110 -289v-695h-50v693q0 163 -98 258t-260 95t-268 -112t-107 -289v-645h-49z" />
    <glyph glyph-name="Hdieresis" unicode="&#x1e26;" horiz-adv-x="1296" 
d="M787 1556q-22 0 -38 16t-16 38t16 38q17 16 39 15q22 1 38 -15t16 -38t-16 -38t-39 -16zM509 1556q-23 0 -39 16t-16 38t16 38t38 15q22 1 39 -15q16 -16 16 -38t-16 -38t-38 -16zM1172 0h-50v718h-948v-718h-50v1443h50v-678h948v678h50v-1443z" />
    <glyph glyph-name="hdieresis" unicode="&#x1e27;" horiz-adv-x="1075" 
d="M294 1619q-22 0 -38 16t-16 38q0 21 16 37t38 16t39 -16q16 -16 16 -37q-1 -22 -17 -38t-38 -16zM16 1619q-22 0 -38 16t-17 38q0 21 16 37q17 16 39 16t38 -16t16 -37q0 -22 -16 -38t-38 -16zM130 0v1506h49v-684h2q35 120 139 195t244 75q178 0 288 -108t110 -289v-695
h-50v693q0 163 -98 258t-260 95t-268 -112t-107 -289v-645h-49z" />
    <glyph glyph-name="Hcedilla" unicode="&#x1e28;" horiz-adv-x="1296" 
d="M1122 1443h50v-1443h-50v718h-948v-718h-2l-59 -140q94 0 150 -42t56 -114t-60 -118t-146 -48q-86 0 -132 17v43q45 -17 119 -17t124 36t49 89q-1 52 -43 82t-121 30h-50v33l66 149h-1v1443h50v-678h948v678z" />
    <glyph glyph-name="hcedilla" unicode="&#x1e29;" horiz-adv-x="1075" 
d="M179 822h2q35 120 139 195t244 75q178 0 288 -108t110 -289v-695h-50v693q0 163 -98 258t-260 95t-268 -112t-107 -289v-645h-1l-59 -140q94 0 150 -42t56 -114t-60 -118t-146 -48q-86 0 -132 17v43q45 -17 119 -17t124 36t49 89q-1 52 -43 82t-121 30h-50v33l66 149h-1
v1506h49v-684z" />
    <glyph glyph-name="Hbrevebelow" unicode="&#x1e2a;" horiz-adv-x="1296" 
d="M1172 0h-50v718h-948v-718h-50v1443h50v-678h948v678h50v-1443zM391 -144h45q0 -75 58 -125t154 -50t154 50t58 125h45q1 -99 -71 -158t-186 -59t-186 59t-71 158z" />
    <glyph glyph-name="hbrevebelow" unicode="&#x1e2b;" horiz-adv-x="1075" 
d="M130 0v1506h49v-684h2q35 120 139 195t244 75q178 0 288 -108t110 -289v-695h-50v693q0 163 -98 258t-260 95t-268 -112t-107 -289v-645h-49zM287 -144h45q0 -75 58 -125t154 -50t154 50t58 125h45q1 -99 -71 -158t-186 -59t-186 59t-71 158z" />
    <glyph glyph-name="Itildebelow" unicode="&#x1e2c;" horiz-adv-x="298" 
d="M12 -184q-97 0 -97 -158h-45q0 92 36 146t105 55q69 -1 125 -59q24 -24 46 -49q53 -59 104 -59q97 0 97 158h45q0 -94 -36 -148t-104 -54t-126 60q-24 24 -46 48q-54 60 -104 60zM174 0h-50v1443h50v-1443z" />
    <glyph glyph-name="itildebelow" unicode="&#x1e2d;" horiz-adv-x="309" 
d="M18 -184q-97 0 -97 -158h-45q0 92 36 146t105 55q69 -1 125 -59q24 -24 46 -49q53 -59 104 -59q97 0 97 158h45q0 -94 -36 -148t-104 -54t-126 60q-24 24 -46 48q-54 60 -104 60zM154 1366q-20 0 -34 14t-14 34t14 34t35 14q20 0 34 -14t14 -34q-1 -20 -15 -34t-34 -14z
M130 0v1076h49v-1076h-49z" />
    <glyph glyph-name="Idieresisacute" unicode="&#x1e2e;" horiz-adv-x="298" 
d="M288 1557q-22 0 -38 15t-16 37q0 21 16 37t38 16t38 -16t15 -37q1 -22 -15 -37t-38 -15zM10 1557q-22 0 -38 15t-15 37q-1 21 15 37t38 16t38 -16t16 -37q0 -22 -16 -37t-38 -15zM105 1755l214 202h63l-221 -202h-56zM174 0h-50v1443h50v-1443z" />
    <glyph glyph-name="idieresisacute" unicode="&#x1e2f;" horiz-adv-x="309" 
d="M130 0v1076h49v-1076h-49zM294 1254q-22 0 -38 16t-16 38t16 38t38 15q22 1 39 -15q16 -16 16 -38q-1 -22 -17 -38t-38 -16zM16 1254q-22 0 -38 16t-17 38q0 22 16 38q17 16 39 15q22 1 38 -15t16 -38t-16 -38t-38 -16zM116 1512l240 291h66l-252 -291h-54z" />
    <glyph glyph-name="Kacute" unicode="&#x1e30;" horiz-adv-x="1107" 
d="M174 0h-50v1443h50v-836h4l784 836h64l-594 -635l664 -808h-64l-636 773l-222 -237v-536zM543 1554h-56l293 287h66z" />
    <glyph glyph-name="kacute" unicode="&#x1e31;" horiz-adv-x="913" 
d="M179 0h-49v1506h49v-1003h2l645 573h70l-517 -463l519 -613h-65l-493 583l-161 -142v-441zM173 1617h-56l293 287h66z" />
    <glyph glyph-name="Kdotbelow" unicode="&#x1e32;" horiz-adv-x="1107" 
d="M174 0h-50v1443h50v-836h4l784 836h64l-594 -635l664 -808h-64l-636 773l-222 -237v-536zM525 -268q-26 0 -45 19t-19 45t19 44q19 19 45 19t45 -19q19 -18 19 -44t-19 -45t-45 -19z" />
    <glyph glyph-name="kdotbelow" unicode="&#x1e33;" horiz-adv-x="913" 
d="M179 0h-49v1506h49v-1003h2l645 573h70l-517 -463l519 -613h-65l-493 583l-161 -142v-441zM467 -268q-26 0 -45 19t-19 45t19 44q19 19 45 19t45 -19q19 -18 19 -44t-19 -45t-45 -19z" />
    <glyph glyph-name="Klinebelow" unicode="&#x1e34;" horiz-adv-x="1107" 
d="M807 -201v-43h-564v43h564zM174 0h-50v1443h50v-836h4l784 836h64l-594 -635l664 -808h-64l-636 773l-222 -237v-536z" />
    <glyph glyph-name="klinebelow" unicode="&#x1e35;" horiz-adv-x="913" 
d="M749 -201v-43h-564v43h564zM179 0h-49v1506h49v-1003h2l645 573h70l-517 -463l519 -613h-65l-493 583l-161 -142v-441z" />
    <glyph glyph-name="Ldotbelow" unicode="&#x1e36;" horiz-adv-x="1009" 
d="M949 47v-47h-825v1443h50v-1396h775zM537 -268q-26 0 -45 19t-19 45t19 44q19 19 45 19t45 -19q19 -18 19 -44t-19 -45t-45 -19z" />
    <glyph glyph-name="ldotbelow" unicode="&#x1e37;" horiz-adv-x="309" 
d="M130 0v1506h49v-1506h-49zM155 -268q-26 0 -45 19t-19 45t19 44q19 19 45 19t45 -19q19 -18 19 -44t-19 -45t-45 -19z" />
    <glyph glyph-name="Ldotbelowmacron" unicode="&#x1e38;" horiz-adv-x="1009" 
d="M431 1659v-43h-564v43h564zM949 47v-47h-825v1443h50v-1396h775zM537 -268q-26 0 -45 19t-19 45t19 44q19 19 45 19t45 -19q19 -18 19 -44t-19 -45t-45 -19z" />
    <glyph glyph-name="ldotbelowmacron" unicode="&#x1e39;" horiz-adv-x="309" 
d="M437 1722v-43h-564v43h564zM130 0v1506h49v-1506h-49zM155 -268q-26 0 -45 19t-19 45t19 44q19 19 45 19t45 -19q19 -18 19 -44t-19 -45t-45 -19z" />
    <glyph glyph-name="Llinebelow" unicode="&#x1e3a;" horiz-adv-x="1009" 
d="M949 47v-47h-825v1443h50v-1396h775zM819 -201v-43h-564v43h564z" />
    <glyph glyph-name="llinebelow" unicode="&#x1e3b;" horiz-adv-x="309" 
d="M130 0v1506h49v-1506h-49zM437 -201v-43h-564v43h564z" />
    <glyph glyph-name="Lcircumflexbelow" unicode="&#x1e3c;" horiz-adv-x="1009" 
d="M514 -141h46l266 -287h-59l-229 249h-2l-229 -249h-59zM949 47v-47h-825v1443h50v-1396h775z" />
    <glyph glyph-name="lcircumflexbelow" unicode="&#x1e3d;" horiz-adv-x="309" 
d="M132 -141h46l266 -287h-59l-229 249h-2l-229 -249h-59zM130 0v1506h49v-1506h-49z" />
    <glyph glyph-name="Macute" unicode="&#x1e3e;" horiz-adv-x="1576" 
d="M807 1554h-56l293 287h66zM1451 1443v-1443h-49v1328h-4l-584 -1327h-53l-584 1327h-4v-1328h-49v1443h53l609 -1380h4l606 1380h55z" />
    <glyph glyph-name="macute" unicode="&#x1e3f;" horiz-adv-x="1628" 
d="M120 0v1076h46v-254h2q30 118 116 194t214 76t218 -78t112 -193h2q25 113 118 192t236 79t237 -101t94 -270v-721h-49v710q0 156 -80 246t-223 90q-141 0 -231 -106t-90 -276v-664h-49v708q0 150 -84 244t-222 94t-228 -112t-90 -301v-633h-49zM823 1254h-53l236 303h63z
" />
    <glyph glyph-name="Mdotaccent" unicode="&#x1e40;" horiz-adv-x="1576" 
d="M789 1556q-26 0 -45 19t-19 45t19 44q19 19 45 19t45 -19q19 -18 19 -44t-19 -45t-45 -19zM1451 1443v-1443h-49v1328h-4l-584 -1327h-53l-584 1327h-4v-1328h-49v1443h53l609 -1380h4l606 1380h55z" />
    <glyph glyph-name="mdotaccent" unicode="&#x1e41;" horiz-adv-x="1628" 
d="M120 0v1076h46v-254h2q30 118 116 194t214 76t218 -78t112 -193h2q25 113 118 192t236 79t237 -101t94 -270v-721h-49v710q0 156 -80 246t-223 90q-141 0 -231 -106t-90 -276v-664h-49v708q0 150 -84 244t-222 94t-228 -112t-90 -301v-633h-49zM818 1254q-26 0 -45 19
t-19 45t19 45t45 19t46 -19t19 -45q1 -26 -19 -45t-46 -19z" />
    <glyph glyph-name="Mdotbelow" unicode="&#x1e42;" horiz-adv-x="1576" 
d="M789 -268q-26 0 -45 19t-19 45t19 44q19 19 45 19t45 -19q19 -18 19 -44t-19 -45t-45 -19zM1451 1443v-1443h-49v1328h-4l-584 -1327h-53l-584 1327h-4v-1328h-49v1443h53l609 -1380h4l606 1380h55z" />
    <glyph glyph-name="mdotbelow" unicode="&#x1e43;" horiz-adv-x="1628" 
d="M120 0v1076h46v-254h2q30 118 116 194t214 76t218 -78t112 -193h2q25 113 118 192t236 79t237 -101t94 -270v-721h-49v710q0 156 -80 246t-223 90q-141 0 -231 -106t-90 -276v-664h-49v708q0 150 -84 244t-222 94t-228 -112t-90 -301v-633h-49zM818 -268q-26 0 -45 19
t-19 45t19 44q19 19 45 19t45 -19q19 -18 19 -44t-19 -45t-45 -19z" />
    <glyph glyph-name="Ndotaccent" unicode="&#x1e44;" horiz-adv-x="1315" 
d="M174 0h-50v1443h55l958 -1348h4v1348h50v-1443h-46l-967 1359h-4v-1359zM657 1556q-26 0 -45 19t-19 45t19 44q19 19 45 19t45 -19q19 -18 19 -44t-19 -45t-45 -19z" />
    <glyph glyph-name="ndotaccent" unicode="&#x1e45;" horiz-adv-x="1063" 
d="M120 0v1076h46v-254h2q35 122 139 196t243 74q180 0 290 -108t110 -288v-696h-49v694q0 160 -99 256q-100 96 -262 96t-266 -112t-105 -288v-646h-49zM538 1254q-26 0 -45 19t-19 45t19 45t45 19t46 -19t19 -45q1 -26 -19 -45t-46 -19z" />
    <glyph glyph-name="Ndotbelow" unicode="&#x1e46;" horiz-adv-x="1315" 
d="M174 0h-50v1443h55l958 -1348h4v1348h50v-1443h-46l-967 1359h-4v-1359zM657 -268q-26 0 -45 19t-19 45t19 44q19 19 45 19t45 -19q19 -18 19 -44t-19 -45t-45 -19z" />
    <glyph glyph-name="ndotbelow" unicode="&#x1e47;" horiz-adv-x="1063" 
d="M120 0v1076h46v-254h2q35 122 139 196t243 74q180 0 290 -108t110 -288v-696h-49v694q0 160 -99 256q-100 96 -262 96t-266 -112t-105 -288v-646h-49zM520 -268q-26 0 -45 19t-19 45t19 44q19 19 45 19t45 -19q19 -18 19 -44t-19 -45t-45 -19z" />
    <glyph glyph-name="Nlinebelow" unicode="&#x1e48;" horiz-adv-x="1315" 
d="M174 0h-50v1443h55l958 -1348h4v1348h50v-1443h-46l-967 1359h-4v-1359zM939 -201v-43h-564v43h564z" />
    <glyph glyph-name="nlinebelow" unicode="&#x1e49;" horiz-adv-x="1063" 
d="M120 0v1076h46v-254h2q35 122 139 196t243 74q180 0 290 -108t110 -288v-696h-49v694q0 160 -99 256q-100 96 -262 96t-266 -112t-105 -288v-646h-49zM802 -201v-43h-564v43h564z" />
    <glyph glyph-name="Ncircumflexbelow" unicode="&#x1e4a;" horiz-adv-x="1315" 
d="M634 -141h46l266 -287h-59l-229 249h-2l-229 -249h-59zM174 0h-50v1443h55l958 -1348h4v1348h50v-1443h-46l-967 1359h-4v-1359z" />
    <glyph glyph-name="ncircumflexbelow" unicode="&#x1e4b;" horiz-adv-x="1063" 
d="M497 -141h46l266 -287h-59l-229 249h-2l-229 -249h-59zM120 0v1076h46v-254h2q35 122 139 196t243 74q180 0 290 -108t110 -288v-696h-49v694q0 160 -99 256q-100 96 -262 96t-266 -112t-105 -288v-646h-49z" />
    <glyph glyph-name="Otildeacute" unicode="&#x1e4c;" horiz-adv-x="1398" 
d="M711 1792l158 165h63l-167 -165h-54zM818 1595q92 0 92 131h45q0 -78 -36 -126t-89 -48q-88 0 -140 74q-53 74 -105 75q-98 0 -98 -131h-45q0 78 36 126t100 48t112 -52q20 -22 37 -44q43 -53 91 -53zM698 1416q-268 0 -426 -188t-159 -506q0 -318 159 -506
q158 -188 426 -189q268 1 428 189t159 506q0 318 -159 506q-160 188 -428 188zM698 1463q292 -1 464 -201t173 -540q0 -340 -172 -542q-173 -200 -465 -200t-464 200t-171 542q0 340 172 540q171 200 463 201z" />
    <glyph glyph-name="otildeacute" unicode="&#x1e4d;" horiz-adv-x="1078" 
d="M539 31q193 -1 309 137t116 370t-116 370t-309 138q-192 0 -308 -138t-116 -370q0 -233 116 -370t308 -137zM538 -16q-214 0 -343 150q-130 150 -130 404q1 254 131 404t343 150t343 -150t131 -404q-1 -254 -131 -404t-344 -150zM402 1402q-97 0 -97 -158h-45
q0 92 36 146t105 55q69 -1 125 -59q24 -24 46 -49q53 -59 104 -59q97 0 97 158h45q0 -94 -36 -148t-104 -54t-126 60q-24 24 -46 48q-54 60 -104 60zM488 1543l156 269h59l-165 -269h-50z" />
    <glyph glyph-name="Otildedieresis" unicode="&#x1e4e;" horiz-adv-x="1398" 
d="M698 1416q-268 0 -426 -188t-159 -506q0 -318 159 -506q158 -188 426 -189q268 1 428 189t159 506q0 318 -159 506q-160 188 -428 188zM698 1463q292 -1 464 -201t173 -540q0 -340 -172 -542q-173 -200 -465 -200t-464 200t-171 542q0 340 172 540q171 200 463 201z
M838 1949q22 1 38 -15t15 -38q1 -22 -15 -36q-16 -16 -38 -16t-38 16t-16 36q0 22 16 38t38 15zM560 1949q22 1 38 -15t16 -38t-16 -36q-16 -16 -38 -16t-38 16t-15 36q-1 22 15 38t38 15zM910 1726h46q0 -78 -36 -126t-90 -48q-88 0 -140 74q-53 74 -109 75q-93 0 -93 -131
h-46q0 78 36 126t101 48q64 0 111 -52q20 -22 38 -44q45 -53 90 -53q92 0 92 131z" />
    <glyph glyph-name="otildedieresis" unicode="&#x1e4f;" horiz-adv-x="1078" 
d="M539 31q193 -1 309 137t116 370t-116 370t-309 138q-192 0 -308 -138t-116 -370q0 -233 116 -370t308 -137zM538 -16q-214 0 -343 150q-130 150 -130 404q1 254 131 404t343 150t343 -150t131 -404q-1 -254 -131 -404t-344 -150zM402 1402q-97 0 -97 -158h-45
q0 92 36 146t105 55q69 -1 125 -59q24 -24 46 -49q53 -59 104 -59q97 0 97 158h45q0 -94 -36 -148t-104 -54t-126 60q-24 24 -46 48q-54 60 -104 60zM678 1543q-22 -1 -38 15t-16 38t16 38t38 15q22 1 38 -15t15 -38q1 -22 -15 -38t-38 -15zM400 1543q-22 -1 -38 15t-15 38
q-1 22 15 38t38 15q22 1 38 -15t16 -38t-16 -38t-38 -15z" />
    <glyph glyph-name="Omacrongrave" unicode="&#x1e50;" horiz-adv-x="1398" 
d="M698 1416q-268 0 -426 -188t-159 -506q0 -318 159 -506q158 -188 426 -189q268 1 428 189t159 506q0 318 -159 506q-160 188 -428 188zM698 1463q292 -1 464 -201t173 -540q0 -340 -172 -542q-173 -200 -465 -200t-464 200t-171 542q0 340 172 540q171 200 463 201z
M743 1755h-56l-221 202h63zM417 1616v43h564v-43h-564z" />
    <glyph glyph-name="omacrongrave" unicode="&#x1e51;" horiz-adv-x="1078" 
d="M824 1347v-43h-584v43h584zM591 1505h-52l-257 307h59zM539 31q193 -1 309 137t116 370t-116 370t-309 138q-192 0 -308 -138t-116 -370q0 -233 116 -370t308 -137zM538 -16q-214 0 -343 150q-130 150 -130 404q1 254 131 404t343 150t343 -150t131 -404
q-1 -254 -131 -404t-344 -150z" />
    <glyph glyph-name="Omacronacute" unicode="&#x1e52;" horiz-adv-x="1398" 
d="M698 1416q-268 0 -426 -188t-159 -506q0 -318 159 -506q158 -188 426 -189q268 1 428 189t159 506q0 318 -159 506q-160 188 -428 188zM698 1463q292 -1 464 -201t173 -540q0 -340 -172 -542q-173 -200 -465 -200t-464 200t-171 542q0 340 172 540q171 200 463 201z
M655 1755l214 202h63l-221 -202h-56zM981 1616h-564v43h564v-43z" />
    <glyph glyph-name="omacronacute" unicode="&#x1e53;" horiz-adv-x="1078" 
d="M824 1347v-43h-584v43h584zM487 1505l250 307h59l-257 -307h-52zM539 31q193 -1 309 137t116 370t-116 370t-309 138q-192 0 -308 -138t-116 -370q0 -233 116 -370t308 -137zM538 -16q-214 0 -343 150q-130 150 -130 404q1 254 131 404t343 150t343 -150t131 -404
q-1 -254 -131 -404t-344 -150z" />
    <glyph glyph-name="Pacute" unicode="&#x1e54;" horiz-adv-x="1087" 
d="M174 1396v-748h394q192 0 304 100t113 274q-1 174 -113 274t-304 100h-394zM124 1443h448q212 0 338 -114t125 -307q0 -193 -126 -307t-338 -114h-397v-601h-50v1443zM508 1554h-56l293 287h66z" />
    <glyph glyph-name="pacute" unicode="&#x1e55;" horiz-adv-x="1106" 
d="M587 1254h-53l236 303h63zM583 31q181 1 295 141t114 366t-114 366q-114 142 -295 142q-182 0 -298 -142t-116 -366t116 -366t298 -141zM587 1092q201 0 327 -154t127 -400q0 -246 -126 -400t-328 -154q-155 0 -269 94t-147 237h-2v-655h-49v1416h46v-321h2
q34 145 148 241t271 96z" />
    <glyph glyph-name="Pdotaccent" unicode="&#x1e56;" horiz-adv-x="1087" 
d="M490 1556q-26 0 -45 19t-19 45t19 44q19 19 45 19t45 -19q19 -18 19 -44t-19 -45t-45 -19zM174 1396v-748h394q192 0 304 100t113 274q-1 174 -113 274t-304 100h-394zM124 1443h448q212 0 338 -114t125 -307q0 -193 -126 -307t-338 -114h-397v-601h-50v1443z" />
    <glyph glyph-name="pdotaccent" unicode="&#x1e57;" horiz-adv-x="1106" 
d="M582 1254q-26 0 -45 19t-19 45t19 45t45 19t46 -19t19 -45q1 -26 -19 -45t-46 -19zM583 31q181 1 295 141t114 366t-114 366q-114 142 -295 142q-182 0 -298 -142t-116 -366t116 -366t298 -141zM587 1092q201 0 327 -154t127 -400q0 -246 -126 -400t-328 -154
q-155 0 -269 94t-147 237h-2v-655h-49v1416h46v-321h2q34 145 148 241t271 96z" />
    <glyph glyph-name="Rdotaccent" unicode="&#x1e58;" horiz-adv-x="1124" 
d="M174 630v-630h-50v1443h448q216 -1 340 -109t124 -282t-92 -279t-255 -133l381 -640h-57l-376 632q-36 -2 -66 -2h-397zM174 1396v-720h397q193 0 303 96t111 266q0 168 -110 263t-305 95h-396zM483 1556q-26 0 -45 19t-19 45t19 44q19 19 45 19t45 -19q19 -18 19 -44
t-19 -45t-45 -19z" />
    <glyph glyph-name="rdotaccent" unicode="&#x1e59;" horiz-adv-x="603" 
d="M334 1254q-26 0 -45 19t-19 45t19 45t45 19t46 -19t19 -45q1 -26 -19 -45t-46 -19zM465 1092q59 0 108 -21v-51q-50 25 -116 25q-132 -1 -210 -105t-78 -270v-670h-49v1076h46v-223h2q71 239 297 239z" />
    <glyph glyph-name="Rdotbelow" unicode="&#x1e5a;" horiz-adv-x="1124" 
d="M174 630v-630h-50v1443h448q216 -1 340 -109t124 -282t-92 -279t-255 -133l381 -640h-57l-376 632q-36 -2 -66 -2h-397zM174 1396v-720h397q193 0 303 96t111 266q0 168 -110 263t-305 95h-396zM483 -268q-26 0 -45 19t-19 45t19 44q19 19 45 19t45 -19q19 -18 19 -44
t-19 -45t-45 -19z" />
    <glyph glyph-name="rdotbelow" unicode="&#x1e5b;" horiz-adv-x="603" 
d="M465 1092q59 0 108 -21v-51q-50 25 -116 25q-132 -1 -210 -105t-78 -270v-670h-49v1076h46v-223h2q71 239 297 239zM145 -268q-26 0 -45 19t-19 45t19 44q19 19 45 19t45 -19q19 -18 19 -44t-19 -45t-45 -19z" />
    </font>
</defs>
</svg>
