<?xml version="1.0" standalone="no"?>
<!DOCTYPE svg PUBLIC "-//W3C//DTD SVG 1.1//EN" "http://www.w3.org/Graphics/SVG/1.1/DTD/svg11.dtd" >
<svg xmlns="http://www.w3.org/2000/svg">
<metadata>
Created by FontPrep 20130207 at Mon Oct 26 22:34:52 2015
 By Alex
(c) 2014 Apple Inc. All rights reserved.
</metadata>
<defs>
<font id="992f7f964919ca564457458f3b04ba35" horiz-adv-x='1024' >
  <font-face 
    font-family="SFUIDisplay-Light"
    font-weight="300"
    font-stretch="normal"
    units-per-em="2048"
    panose-1="0 0 4 0 0 0 0 0 0 0"
    ascent="1638"
    descent="-410"
    x-height="1077"
    cap-height="1443"
    bbox="-516 -882 2508 2091"
    underline-thickness="50"
    underline-position="-25"
    unicode-range="U+0020-FB02"
  />
<missing-glyph horiz-adv-x="1293" 
d="M632 1018q56 0 88 -30q33 -30 33 -74q-1 -44 -21 -72t-86 -74t-91 -97q-26 -51 -22 -140h166v15q0 48 19 76t90 78t101 101q30 50 30 116q0 113 -81 181q-82 68 -220 69q-138 0 -220 -76t-79 -203h169q0 58 34 94t90 36zM501 314q-1 -48 33 -78t88 -30t88 30t33 78
q1 48 -33 78t-88 29q-54 0 -88 -30q-33 -29 -33 -77zM120 0v1365h1053v-1365h-1053z" />
    <glyph glyph-name=".notdef" horiz-adv-x="1293" 
d="M632 1018q56 0 88 -30q33 -30 33 -74q-1 -44 -21 -72t-86 -74t-91 -97q-26 -51 -22 -140h166v15q0 48 19 76t90 78t101 101q30 50 30 116q0 113 -81 181q-82 68 -220 69q-138 0 -220 -76t-79 -203h169q0 58 34 94t90 36zM501 314q-1 -48 33 -78t88 -30t88 30t33 78
q1 48 -33 78t-88 29q-54 0 -88 -30q-33 -29 -33 -77zM120 0v1365h1053v-1365h-1053z" />
    <glyph glyph-name=".null" 
 />
    <glyph glyph-name="nonmarkingreturn" 
 />
    <glyph glyph-name="space" unicode=" " horiz-adv-x="454" 
 />
    <glyph glyph-name="exclam" unicode="!" horiz-adv-x="531" 
d="M265 -10q-39 0 -67 28t-28 67t28 67t68 28t68 -28t27 -67q0 -39 -28 -67t-68 -28zM196 1443h138l-8 -987h-121z" />
    <glyph glyph-name="quotedbl" unicode="&#x22;" horiz-adv-x="703" 
d="M580 955h-123v488h123v-488zM246 955h-123v488h123v-488z" />
    <glyph glyph-name="numbersign" unicode="#" horiz-adv-x="1214" 
d="M478 919l-78 -384h342l77 384h-341zM1180 918h-250l-77 -381h235l-21 -111h-237l-87 -426h-112l88 426h-341l-87 -426h-111l87 426h-229l21 111h232l76 381h-218l22 110h218l87 417h111l-85 -417h339l87 417h111l-86 -417h248z" />
    <glyph glyph-name="dollar" unicode="$" horiz-adv-x="1219" 
d="M263 1086q0 -104 71 -168q71 -62 224 -96v521q-128 -5 -212 -79t-83 -178zM986 382q0 116 -76 181q-76 66 -248 105v-560q148 6 236 82t88 192zM662 -150h-104v141q-203 13 -331 123t-130 277h130q9 -115 99 -191t232 -90v579l-55 15q-189 48 -280 139t-91 242t116 257
t310 119v138h104v-137q186 -14 306 -120t124 -262h-130q-4 104 -88 178t-212 85v-544l58 -15q210 -52 304 -144t94 -254t-123 -272q-123 -108 -333 -122v-142z" />
    <glyph glyph-name="percent" unicode="%" horiz-adv-x="1470" 
d="M268 0h-136l1065 1443h134zM332 846q74 0 116 70t42 189t-42 188t-116 69t-116 -70t-43 -188q1 -118 43 -188t116 -70zM613 1104q0 -160 -76 -256t-205 -97q-130 1 -206 97t-76 256t76 258q76 96 206 96q129 0 205 -96q76 -98 76 -258zM1140 81q74 0 116 70t42 189
t-42 188t-116 69q-74 1 -116 -69t-43 -188q1 -118 43 -189q42 -70 116 -70zM1421 340q0 -160 -76 -258q-76 -96 -205 -96q-130 0 -206 96t-76 258q0 160 76 256t206 97q129 -1 205 -97t76 -256z" />
    <glyph glyph-name="ampersand" unicode="&#x26;" horiz-adv-x="1372" 
d="M818 1152q0 86 -64 145t-160 59t-161 -60t-65 -137q0 -76 38 -139t139 -164q145 72 209 141t64 155zM214 384q0 -128 96 -210t251 -81q106 1 211 45t171 117l-434 468q-40 -18 -72 -39q-117 -68 -170 -140t-53 -160zM550 -23q-208 -1 -340 111t-131 288q0 242 279 391
q12 5 43 22q30 16 33 17q-108 112 -152 190t-44 157q0 133 102 223t254 89q152 0 252 -88t100 -210q0 -123 -76 -211t-250 -178l397 -425q93 158 93 401v58h127v-59q0 -291 -131 -491l250 -262h-172l-159 168q-91 -90 -217 -140t-258 -51z" />
    <glyph glyph-name="quotesingle" unicode="'" horiz-adv-x="369" 
d="M246 955h-123v488h123v-488z" />
    <glyph glyph-name="parenleft" unicode="(" horiz-adv-x="607" 
d="M166 598q0 302 80 499t196 345h115q-93 -115 -175 -329t-82 -513q0 -476 255 -868h-120q-269 345 -269 866z" />
    <glyph glyph-name="parenright" unicode=")" horiz-adv-x="607" 
d="M442 598q0 -520 -270 -866h-120q255 392 255 868q0 398 -168 708q-42 78 -88 134h115q202 -256 254 -563q22 -130 22 -281z" />
    <glyph glyph-name="asterisk" unicode="*" horiz-adv-x="973" 
d="M793 866l-265 167l11 -312h-105l11 313l-265 -168l-51 91l275 147l-275 145l51 93l265 -169l-11 315h105l-11 -315l265 169l51 -92l-275 -146l275 -147z" />
    <glyph glyph-name="plus" unicode="+" horiz-adv-x="1218" 
d="M671 510v-478h-124v478h-438v124h438v465h124v-465h438v-124h-438z" />
    <glyph glyph-name="comma" unicode="," horiz-adv-x="522" 
d="M227 -242h-104l86 434h141z" />
    <glyph glyph-name="hyphen" unicode="-" horiz-adv-x="874" 
d="M765 510h-656v124h656v-124z" />
    <glyph glyph-name="period" unicode="." horiz-adv-x="509" 
d="M255 -10q-39 0 -67 28t-28 67t28 67t68 28t67 -27t27 -67t-28 -68t-67 -28z" />
    <glyph glyph-name="slash" unicode="/" horiz-adv-x="559" 
d="M113 -330h-113l443 1774h116z" />
    <glyph glyph-name="zero" unicode="0" horiz-adv-x="1222" 
d="M611 97q181 0 283 168t102 456t-102 456t-282 168t-283 -169t-103 -456t102 -455t283 -168zM610 -23q-244 1 -383 201t-139 543t140 544t384 201t382 -200q139 -200 139 -544q0 -343 -139 -544q-140 -201 -384 -201z" />
    <glyph glyph-name="one" unicode="1" horiz-adv-x="863" 
d="M617 1445v-1445h-132v1298h-4q-8 -5 -160 -112t-227 -154v146l389 267h134z" />
    <glyph glyph-name="two" unicode="2" horiz-adv-x="1152" 
d="M572 1466q194 0 324 -114t130 -280q0 -118 -66 -228t-245 -298l-402 -420v-4h750v-122h-941v96l510 539q154 163 206 249t52 192t-92 188t-228 82t-228 -88t-95 -219v-1h-132v1q1 183 133 305q130 122 324 122z" />
    <glyph glyph-name="three" unicode="3" horiz-adv-x="1183" 
d="M399 687v116h168q141 0 230 78t89 198q0 119 -84 193t-224 74q-139 0 -227 -74t-99 -194h-132q12 174 138 281t319 107t320 -104t127 -252t-81 -240t-220 -117v-4q167 -9 265 -105t98 -232t-66 -233q-66 -96 -180 -149t-253 -53q-216 0 -353 111t-144 286h132
q8 -122 108 -200t257 -77q156 0 258 83t102 216t-100 212t-274 79h-174z" />
    <glyph glyph-name="four" unicode="4" horiz-adv-x="1214" 
d="M213 447h594v878h-2q-364 -504 -592 -874v-4zM807 0v326h-732v125q222 373 665 994h200v-998h215v-121h-215v-326h-133z" />
    <glyph glyph-name="five" unicode="5" horiz-adv-x="1186" 
d="M605 -23q-129 0 -237 51t-173 142t-74 206h134q14 -122 113 -200q100 -78 250 -78t254 102t103 262q-1 158 -103 262t-259 104q-109 0 -199 -49t-140 -135h-131l82 799h800v-122h-687l-54 -533h4q54 74 146 116t201 43q205 0 341 -137t136 -348t-143 -348t-364 -137z" />
    <glyph glyph-name="six" unicode="6" horiz-adv-x="1206" 
d="M626 99q154 0 260 106t105 260q-1 155 -103 257t-258 102t-262 -102t-106 -254t106 -260q104 -108 258 -109zM629 -23q-145 0 -259 71t-182 202q-97 169 -97 441q-1 363 145 569t403 206q180 0 307 -100t158 -266h-138q-27 110 -117 178t-211 67q-198 -1 -306 -177
t-109 -497h3q44 122 162 198t263 76q207 0 343 -136q136 -137 136 -345t-142 -348t-359 -139z" />
    <glyph glyph-name="seven" unicode="7" horiz-adv-x="1105" 
d="M882 1321h-803v122h940v-128l-661 -1315h-145l669 1317v4z" />
    <glyph glyph-name="eight" unicode="8" horiz-adv-x="1211" 
d="M604 818q142 0 232 73t91 189t-89 191q-90 76 -233 76t-233 -76q-90 -75 -90 -191t90 -189t232 -73zM605 97q167 -1 271 85t104 217t-104 214t-270 83t-271 -83t-105 -214t104 -217t271 -85zM606 -23q-226 0 -371 117q-144 117 -144 298q0 136 89 238t233 133v3
q-123 34 -195 120t-72 203q0 165 130 271t330 106t328 -106q129 -106 129 -271q0 -114 -72 -201t-194 -122v-3q144 -31 233 -133t89 -238q1 -182 -143 -298t-370 -117z" />
    <glyph glyph-name="nine" unicode="9" horiz-adv-x="1206" 
d="M576 619q156 0 262 102q106 101 107 253q0 152 -106 260q-107 108 -261 109q-154 0 -259 -106q-105 -105 -105 -259t103 -256t259 -103zM555 498q-207 0 -343 136t-136 344t142 348t359 140q147 0 261 -71t180 -202q97 -169 97 -441q0 -363 -145 -569t-402 -206
q-182 1 -309 101t-157 265h139q27 -110 116 -178t212 -68q193 -1 301 169t113 475l-1 33h-2q-41 -122 -159 -199t-266 -77z" />
    <glyph glyph-name="colon" unicode=":" horiz-adv-x="509" 
d="M255 741q-39 -1 -67 27t-28 68t28 68t68 27q40 1 67 -27t27 -68t-28 -68t-67 -27zM255 -10q-39 0 -67 28t-28 67t28 67t68 28t67 -27t27 -67t-28 -68t-67 -28z" />
    <glyph glyph-name="semicolon" unicode=";" horiz-adv-x="509" 
d="M199 -242h-103l84 434h142zM255 741q-39 -1 -67 27t-28 68t28 68t68 27q40 1 67 -27t27 -68t-28 -68t-67 -27z" />
    <glyph glyph-name="less" unicode="&#x3c;" horiz-adv-x="1219" 
d="M1035 1011l-717 -446v-8l717 -431v-142l-851 518v109l851 543v-143z" />
    <glyph glyph-name="equal" unicode="=" horiz-adv-x="1219" 
d="M1096 703h-973v118h973v-118zM1096 323h-973v118h973v-118z" />
    <glyph glyph-name="greater" unicode="&#x3e;" horiz-adv-x="1219" 
d="M184 1012v143l851 -543v-109l-851 -519v143l717 431v8z" />
    <glyph glyph-name="question" unicode="?" horiz-adv-x="972" 
d="M443 -10q-39 0 -67 28t-28 67t28 67t68 28t67 -27t27 -67t-28 -68t-67 -28zM472 1456q184 0 300 -102t115 -256q0 -206 -211 -341q-98 -63 -133 -115t-35 -137v-75h-133v94q-1 98 45 168t146 136t140 125t40 153t-77 162q-77 69 -197 69t-197 -70t-87 -188h-130
q9 165 120 271q110 106 294 106z" />
    <glyph glyph-name="at" unicode="@" horiz-adv-x="1770" 
d="M936 1434q206 0 388 -93t284 -263t102 -400t-94 -370t-257 -140q-92 0 -156 51t-73 133h-7q-35 -85 -103 -131t-159 -46q-155 0 -252 117t-97 303t98 302t251 116q86 0 156 -44t98 -117h7v141h116v-575q0 -70 36 -109t105 -39q101 0 161 112t61 310q0 286 -195 464
t-505 179q-201 0 -362 -94t-251 -262t-91 -386q0 -217 94 -385t257 -254q162 -86 378 -87q216 0 327 44v-99q-129 -44 -353 -44t-410 98q-188 98 -296 290q-108 191 -107 448q0 182 61 336t169 264q108 108 261 169t358 61zM879 906q-111 0 -177 -86t-67 -226
q0 -142 66 -226q67 -84 177 -84t176 86t66 228t-65 225t-176 83z" />
    <glyph glyph-name="A" unicode="A" horiz-adv-x="1262" 
d="M628 1274l-259 -714h524l-259 714h-6zM1094 0l-160 442h-606l-160 -442h-145l540 1443h136l539 -1443h-144z" />
    <glyph glyph-name="B" unicode="B" horiz-adv-x="1217" 
d="M271 121h380q176 -1 271 73t95 209q1 135 -99 208t-286 73h-361v-563zM271 1322v-520h326q164 0 256 72t92 194t-82 188t-226 66h-366zM669 0h-534v1443h531q186 0 302 -98t115 -258q-1 -120 -75 -212t-189 -113v-7q152 -19 245 -115t93 -244q0 -184 -130 -290t-358 -106
z" />
    <glyph glyph-name="C" unicode="C" horiz-adv-x="1371" 
d="M720 -23q-295 1 -469 203t-174 543q1 341 175 542t468 201q152 0 278 -61t207 -171t100 -249h-137q-30 156 -155 255t-293 99q-230 -1 -366 -167t-137 -449q1 -283 137 -451t367 -168q173 0 294 87t153 236h137q-38 -211 -194 -331t-391 -119z" />
    <glyph glyph-name="D" unicode="D" horiz-adv-x="1370" 
d="M272 1319v-1195h330q266 0 410 155t143 443q1 288 -143 442q-144 155 -410 155h-330zM135 1443h475q324 1 504 -189t180 -532t-180 -532t-504 -190h-475v1443z" />
    <glyph glyph-name="E" unicode="E" horiz-adv-x="1104" 
d="M1006 124v-124h-871v1443h871v-124h-735v-519h698v-122h-698v-554h735z" />
    <glyph glyph-name="F" unicode="F" horiz-adv-x="1061" 
d="M271 0h-136v1443h856v-124h-720v-542h662v-122h-662v-655z" />
    <glyph glyph-name="G" unicode="G" horiz-adv-x="1409" 
d="M1324 586q0 -286 -159 -448t-446 -161q-287 0 -465 206t-177 544q1 339 177 539t471 200q227 0 388 -125t202 -332h-142q-43 154 -163 242t-285 88q-235 1 -371 -163t-137 -448q0 -284 138 -454q139 -170 359 -170t347 123t127 327v51h-448v120h584v-139z" />
    <glyph glyph-name="H" unicode="H" horiz-adv-x="1387" 
d="M1252 0h-137v677h-844v-677h-136v1443h136v-642h844v642h137v-1443z" />
    <glyph glyph-name="I" unicode="I" horiz-adv-x="406" 
d="M271 0h-136v1443h136v-1443z" />
    <glyph glyph-name="J" unicode="J" horiz-adv-x="987" 
d="M449 97q123 0 195 78t72 222v1046h136v-1048q0 -199 -110 -312t-292 -113q-184 0 -296 101t-112 260h135q5 -104 77 -169t195 -65z" />
    <glyph glyph-name="K" unicode="K" horiz-adv-x="1209" 
d="M271 0h-136v1443h136v-748h8l686 748h173l-593 -638l652 -805h-175l-573 708l-178 -193v-515z" />
    <glyph glyph-name="L" unicode="L" horiz-adv-x="1052" 
d="M994 124v-124h-859v1443h136v-1319h723z" />
    <glyph glyph-name="M" unicode="M" horiz-adv-x="1660" 
d="M1525 1443v-1443h-128v1184h-6l-502 -1177h-119l-501 1177h-6v-1184h-128v1443h157l535 -1263h6l534 1263h158z" />
    <glyph glyph-name="N" unicode="N" horiz-adv-x="1393" 
d="M270 0h-135v1443h135l846 -1205h7v1205h135v-1443h-132l-849 1206h-7v-1206z" />
    <glyph glyph-name="O" unicode="O" horiz-adv-x="1465" 
d="M732 1339q-237 0 -376 -167q-139 -166 -139 -450q-1 -284 139 -451t376 -167t376 167t140 451t-140 450q-140 167 -376 167zM732 1466q302 0 479 -201t177 -544t-177 -543t-479 -201q-302 1 -478 201t-177 543q0 343 177 544q176 201 478 201z" />
    <glyph glyph-name="P" unicode="P" horiz-adv-x="1171" 
d="M271 1321v-655h344q167 0 261 87t94 241t-94 240t-261 87h-344zM135 1443h512q207 0 335 -124t128 -325q0 -202 -129 -326t-335 -124h-375v-544h-136v1443z" />
    <glyph glyph-name="Q" unicode="Q" horiz-adv-x="1465" 
d="M732 104q102 0 190 34l-187 257h154l143 -196q104 77 160 211t55 311q0 284 -139 451t-376 167t-376 -167q-139 -166 -139 -450q-1 -284 139 -451t376 -167zM732 -23q-302 1 -478 201t-177 543q0 343 177 544q176 201 478 201t479 -201t177 -544q0 -213 -72 -375
t-204 -257l188 -258h-154l-145 198q-122 -52 -269 -52z" />
    <glyph glyph-name="R" unicode="R" horiz-adv-x="1199" 
d="M271 591v-591h-136v1443h516q211 -1 337 -115t125 -307q0 -153 -82 -262t-227 -146l349 -613h-159l-332 591h-391zM271 1321v-609h369q156 0 244 80t88 224t-90 224t-247 81h-364z" />
    <glyph glyph-name="S" unicode="S" horiz-adv-x="1182" 
d="M602 101q166 0 270 79q104 78 105 190q0 112 -73 176t-234 104l-179 46q-201 51 -293 140t-93 231q0 175 140 287t352 112q211 0 351 -112t146 -283h-137q-10 123 -109 197q-100 74 -252 74t-250 -76t-99 -181q0 -107 71 -165t231 -99l156 -40q218 -55 315 -145t97 -240
q0 -190 -142 -304q-143 -114 -375 -115q-232 1 -378 115t-157 300h137q11 -130 123 -210q111 -80 277 -81z" />
    <glyph glyph-name="T" unicode="T" horiz-adv-x="1179" 
d="M658 0h-137v1319h-483v124h1103v-124h-483v-1319z" />
    <glyph glyph-name="U" unicode="U" horiz-adv-x="1386" 
d="M271 1443v-931q0 -184 113 -296t309 -112t309 112t113 296v931h137v-939q0 -236 -151 -382t-408 -145q-257 -1 -407 145t-151 382v939h136z" />
    <glyph glyph-name="V" unicode="V" horiz-adv-x="1262" 
d="M699 0h-136l-540 1443h145l460 -1273h6l461 1273h144z" />
    <glyph glyph-name="W" unicode="W" horiz-adv-x="1854" 
d="M923 1209l-355 -1209h-127l-397 1443h142l318 -1233h6l349 1233h136l348 -1233h7l317 1233h143l-398 -1443h-126l-355 1209h-8z" />
    <glyph glyph-name="X" unicode="X" horiz-adv-x="1263" 
d="M44 0l502 722v5l-498 716h165l421 -613h5l424 613h157l-507 -722v-4l499 -717h-164l-419 610h-5l-425 -610h-155z" />
    <glyph glyph-name="Y" unicode="Y" horiz-adv-x="1219" 
d="M678 0h-137v624l-517 819h156l427 -685h5l427 685h156l-517 -819v-624z" />
    <glyph glyph-name="Z" unicode="Z" horiz-adv-x="1224" 
d="M87 0v99l866 1214v6h-838v124h1011v-100l-864 -1213v-6h876v-124h-1051z" />
    <glyph glyph-name="bracketleft" unicode="[" horiz-adv-x="628" 
d="M186 1444h417v-106h-288v-1472h301v-104h-430v1682z" />
    <glyph glyph-name="backslash" unicode="\" horiz-adv-x="559" 
d="M446 -330l-446 1774h116l443 -1774h-113z" />
    <glyph glyph-name="bracketright" unicode="]" horiz-adv-x="628" 
d="M442 1444v-1682h-430v104h302v1472h-288v106h416z" />
    <glyph glyph-name="asciicircum" unicode="^" horiz-adv-x="847" 
d="M418 1312l-234 -493h-130l299 617h141l299 -617h-130l-234 493h-11z" />
    <glyph glyph-name="underscore" unicode="_" horiz-adv-x="819" 
d="M877 -222h-935v100h935v-100z" />
    <glyph glyph-name="grave" unicode="`" horiz-adv-x="899" 
d="M640 1251h-117l-256 301h153z" />
    <glyph glyph-name="a" unicode="a" horiz-adv-x="1048" 
d="M418 -12q-142 0 -242 86t-100 226q0 138 101 216t295 93l331 22v92q1 118 -71 183t-194 65q-122 -1 -195 -55q-74 -54 -92 -150h-127q8 142 122 232t292 91q178 0 288 -96t109 -259v-734h-126v206h-3q-44 -98 -144 -158q-102 -60 -244 -60zM480 104q128 0 226 86t97 215
v119l-315 -22q-277 -18 -277 -203q0 -87 70 -141q71 -54 199 -54z" />
    <glyph glyph-name="b" unicode="b" horiz-adv-x="1154" 
d="M610 971q-154 0 -252 -121t-98 -312t98 -311t252 -120q154 1 249 119t95 312t-94 314q-94 119 -250 119zM632 -12q-130 0 -228 64t-146 176h-3v-228h-126v1506h132v-650h3q47 109 145 171t225 62q203 0 329 -152q126 -153 126 -399q-1 -246 -127 -398t-330 -152z" />
    <glyph glyph-name="c" unicode="c" horiz-adv-x="1046" 
d="M550 971q-158 0 -254 -118q-96 -117 -96 -315t96 -314t255 -117q124 -1 206 59t105 166h131q-23 -154 -144 -249t-298 -95q-221 0 -353 148t-133 401q1 252 133 402t351 150q183 0 303 -101t140 -250h-131q-20 103 -103 168t-208 65z" />
    <glyph glyph-name="d" unicode="d" horiz-adv-x="1157" 
d="M547 971q-155 0 -251 -119t-96 -313t96 -313t251 -119t253 120q98 119 97 311q1 192 -97 312t-253 121zM526 -12q-203 0 -332 152t-129 398t128 398t330 153q128 1 227 -63t143 -170h3v650h133v-1506h-126v229h-3q-47 -111 -146 -176t-228 -65z" />
    <glyph glyph-name="e" unicode="e" horiz-adv-x="1075" 
d="M553 -12q-224 0 -356 148t-132 399q-1 252 131 403t346 151q214 -1 342 -143q126 -142 126 -382v-58h-808v-7q0 -182 96 -288t258 -106q119 0 202 55t107 145h131q-24 -139 -146 -228t-297 -89zM544 972q-146 0 -240 -98t-102 -260h670q-2 162 -92 260t-236 98z" />
    <glyph glyph-name="f" unicode="f" horiz-adv-x="589" 
d="M173 0v966h-150v111h150v123q-1 140 65 206t201 66q49 0 89 -9v-111q-35 8 -93 8q-127 0 -129 -162v-121h219v-111h-219v-966h-133z" />
    <glyph glyph-name="g" unicode="g" horiz-adv-x="1144" 
d="M572 -375q-198 0 -316 76t-138 200h138q20 -73 102 -117t218 -43t226 73q91 72 91 196v219h-3q-46 -106 -144 -170t-226 -64q-203 0 -329 151q-126 150 -126 396t126 396t332 151q127 0 227 -64t147 -171h2v223h126v-1057q0 -184 -128 -290q-127 -106 -325 -105zM544 114
q156 0 252 118q97 118 97 310q0 190 -97 310t-252 119q-156 0 -250 -118q-94 -117 -94 -311t94 -311t250 -117z" />
    <glyph glyph-name="h" unicode="h" horiz-adv-x="1136" 
d="M129 0v1506h132v-630h3q46 101 140 157t223 56q178 1 287 -109t109 -290v-690h-133v669q0 141 -81 221t-223 81q-142 0 -234 -95q-91 -95 -91 -248v-628h-132z" />
    <glyph glyph-name="i" unicode="i" horiz-adv-x="390" 
d="M195 1290q-37 0 -63 26t-27 64q1 36 27 62t63 27q37 -1 63 -27t26 -62t-26 -64q-26 -26 -63 -26zM129 0v1077h132v-1077h-132z" />
    <glyph glyph-name="j" unicode="j" horiz-adv-x="390" 
d="M195 1290q-37 0 -63 26t-27 64q1 36 27 62t63 27q37 -1 63 -27t26 -62t-26 -64q-26 -26 -63 -26zM261 1077v-1158q-1 -156 -75 -227t-233 -71h-31v113h27q97 0 139 42t41 140v1161h132z" />
    <glyph glyph-name="k" unicode="k" horiz-adv-x="988" 
d="M261 0h-132v1506h132v-941h1l537 512h164l-486 -465l496 -612h-156l-434 531l-122 -111v-420z" />
    <glyph glyph-name="l" unicode="l" horiz-adv-x="390" 
d="M129 0v1506h132v-1506h-132z" />
    <glyph glyph-name="m" unicode="m" horiz-adv-x="1677" 
d="M119 0v1077h124v-201h4q35 97 118 155t197 58t196 -61t114 -165h3q39 102 131 164t210 62q158 1 253 -97t95 -261v-731h-133v701q-1 126 -67 198t-185 72q-119 1 -195 -83t-77 -215v-673h-132v714q0 115 -69 186q-68 71 -184 71t-194 -88t-77 -226v-657h-132z" />
    <glyph glyph-name="n" unicode="n" horiz-adv-x="1111" 
d="M119 0v1077h124v-201h4q45 101 139 157t223 56q177 -1 283 -107t106 -289v-693h-132v672q0 142 -78 220t-219 79t-229 -93t-89 -245v-633h-132z" />
    <glyph glyph-name="o" unicode="o" horiz-adv-x="1109" 
d="M554 107q164 -1 260 115q95 116 95 317t-95 317q-96 116 -260 115q-164 1 -259 -115t-95 -317t95 -317t259 -115zM554 -12q-222 0 -356 150t-133 400q-1 252 133 402t356 149q222 1 356 -149t134 -401t-134 -401t-356 -150z" />
    <glyph glyph-name="p" unicode="p" horiz-adv-x="1144" 
d="M598 107q154 1 250 119t96 312t-96 314t-250 119q-156 -1 -252 -121t-96 -312t96 -311q96 -120 252 -120zM620 1089q204 0 332 -152t127 -398q-1 -247 -127 -399t-330 -152q-126 0 -224 64t-144 170h-3v-575h-132v1430h125v-223h3q43 104 145 170t228 65z" />
    <glyph glyph-name="q" unicode="q" horiz-adv-x="1147" 
d="M545 107q155 0 253 120q98 119 98 311t-98 312t-253 121q-155 0 -250 -119t-95 -314t95 -313t250 -118zM525 1089q129 1 229 -63t146 -172h3v223h126v-1430h-133v575h-3q-46 -106 -145 -170t-226 -64q-203 0 -330 152t-127 399q-1 246 127 398t333 152z" />
    <glyph glyph-name="r" unicode="r" horiz-adv-x="634" 
d="M119 0v1077h124v-191h4q28 96 100 150t173 53q43 0 80 -11v-132q-34 16 -98 16q-114 0 -182 -82t-69 -212v-668h-132z" />
    <glyph glyph-name="s" unicode="s" horiz-adv-x="958" 
d="M97 800q-1 120 109 204t276 85q166 0 273 -88q108 -88 116 -227h-127q-10 92 -80 148t-182 55q-110 0 -182 -51t-72 -124t48 -114t153 -67l165 -40q162 -41 230 -105t68 -190t-116 -212t-294 -86t-292 88t-125 227h134q13 -93 89 -149t198 -55q122 -1 196 51
q76 52 76 129t-46 117t-155 68l-182 46q-140 35 -209 103q-69 67 -69 187z" />
    <glyph glyph-name="t" unicode="t" horiz-adv-x="598" 
d="M309 270q0 -160 129 -160q60 0 92 4v-113q-24 -7 -103 -7q-134 0 -192 63t-58 208v701h-154v111h154v258h132v-258h216v-111h-216v-696z" />
    <glyph glyph-name="u" unicode="u" horiz-adv-x="1111" 
d="M993 1077v-1077h-125v202h-3q-45 -100 -142 -157t-224 -57q-176 0 -281 106t-105 289v694h132v-672q0 -143 77 -221t217 -77q141 1 231 93t90 244v633h133z" />
    <glyph glyph-name="v" unicode="v" horiz-adv-x="977" 
d="M960 1077l-401 -1077h-140l-402 1077h139l331 -936h3l332 936h138z" />
    <glyph glyph-name="w" unicode="w" horiz-adv-x="1477" 
d="M1456 1077l-307 -1077h-139l-270 897h-3l-270 -897h-139l-307 1077h133l244 -927h3l270 927h134l271 -927h3l244 927h133z" />
    <glyph glyph-name="x" unicode="x" horiz-adv-x="950" 
d="M476 444h-4l-298 -444h-150l380 542l-376 535h150l299 -434h3l296 434h150l-377 -530l374 -547h-150z" />
    <glyph glyph-name="y" unicode="y" horiz-adv-x="980" 
d="M199 -375q-34 0 -66 8v113q30 -7 65 -7q72 1 118 43t82 144l24 67l-405 1084h142l330 -943h3l331 943h140l-420 -1129q-69 -190 -141 -256t-203 -67z" />
    <glyph glyph-name="z" unicode="z" horiz-adv-x="963" 
d="M83 0v100l645 864v2h-645v111h796v-101l-644 -862v-3h646v-111h-798z" />
    <glyph glyph-name="braceleft" unicode="{" horiz-adv-x="717" 
d="M431 374v-360q0 -118 58 -174t183 -56h53v-109h-56q-188 0 -276 82t-88 258v309q0 120 -39 168t-138 48v158q99 0 138 48t39 170v268q-1 172 87 252t277 79h56v-109h-53q-127 0 -184 -54t-57 -177v-313q0 -215 -175 -231v-24q175 -16 175 -233z" />
    <glyph glyph-name="bar" unicode="|" horiz-adv-x="407" 
d="M260 -328h-113v1771h113v-1771z" />
    <glyph glyph-name="braceright" unicode="}" horiz-adv-x="717" 
d="M286 862v313q0 123 -57 177t-184 54h-54v109h56q189 1 277 -79t88 -252v-268q0 -122 39 -170t137 -48v-158q-100 0 -138 -47t-38 -169v-309q0 -176 -88 -258t-277 -82h-56v109h54q125 0 183 56t58 174v360q0 217 175 233v24q-175 16 -175 231z" />
    <glyph glyph-name="asciitilde" unicode="~" horiz-adv-x="1219" 
d="M397 755q-67 1 -107 -51t-44 -145h-123q1 148 75 235t202 87q110 1 234 -119q64 -62 105 -86q40 -24 78 -24q68 0 110 53t46 147h123q0 -146 -77 -236t-204 -90q-64 0 -119 28q-54 28 -120 92t-104 86q-38 23 -75 23z" />
    <glyph glyph-name="nonbreakingspace" unicode="&#xa0;" horiz-adv-x="454" 
 />
    <glyph glyph-name="exclamdown" unicode="&#xa1;" horiz-adv-x="531" 
d="M265 923q-39 0 -67 28t-28 68q0 39 28 67t68 28t68 -28t27 -67q0 -40 -28 -68t-68 -28zM196 -340l9 986h121l8 -986h-138z" />
    <glyph glyph-name="cent" unicode="&#xa2;" horiz-adv-x="1219" 
d="M692 -29h-131v189q-203 23 -327 173t-123 380q0 231 124 379t326 171v183h131v-182q164 -14 282 -116t134 -244h-133q-21 113 -117 179t-230 66q-166 0 -274 -120q-108 -119 -108 -315t108 -318t260 -123q154 1 246 61t114 178h133q-19 -144 -135 -242t-280 -112v-187z
" />
    <glyph glyph-name="sterling" unicode="&#xa3;" horiz-adv-x="1219" 
d="M741 1476q214 0 326 -56v-123q-41 25 -125 41t-177 16q-170 0 -265 -76t-95 -204q-1 -94 23 -164t46 -133h470v-112h-431q34 -105 34 -181q0 -142 -72 -230t-168 -132v-4h841v-118h-1064v117q143 34 236 129t93 223q0 81 -37 196h-277v112h236q-69 188 -69 294
q0 189 130 297t345 108z" />
    <glyph glyph-name="currency" unicode="&#xa4;" horiz-adv-x="1219" 
d="M996 655q0 -127 -76 -228l168 -168l-83 -82l-167 168q-102 -75 -228 -75t-228 75l-169 -168l-82 82l169 169q-75 102 -75 228t75 228l-169 168l82 82l168 -168q101 76 229 76t229 -75l166 167l83 -82l-167 -168q75 -102 75 -229zM325 656q-1 -118 83 -202t202 -84t202 84
t84 202t-84 202t-202 84t-202 -84t-83 -202z" />
    <glyph glyph-name="yen" unicode="&#xa5;" horiz-adv-x="1219" 
d="M982 310h-304v-310h-136v310h-305v105h305v184h-305v106h259l-472 738h157l426 -675h6l425 675h157l-471 -738h258v-106h-304v-184h304v-105z" />
    <glyph glyph-name="brokenbar" unicode="&#xa6;" horiz-adv-x="408" 
d="M261 -328h-113v680h113v-680zM261 765h-113v678h113v-678z" />
    <glyph glyph-name="section" unicode="&#xa7;" horiz-adv-x="973" 
d="M494 -250q-170 0 -280 80q-111 80 -122 207h134q12 -79 87 -127t187 -47q112 0 182 51q72 50 72 124t-53 118t-169 72l-129 33q-167 43 -245 113t-78 172t64 172t178 97v12q-230 79 -230 268q0 133 108 217t276 83q168 1 273 -75q106 -76 123 -204h-132q-12 76 -84 122
t-181 45q-111 -1 -181 -51t-70 -124t52 -117q52 -44 168 -73l130 -34q165 -42 242 -110t77 -172q-1 -104 -73 -181t-190 -99v-12q254 -60 254 -257q0 -133 -110 -218t-280 -85zM758 572q0 147 -211 193l-81 18q-107 -1 -179 -61t-72 -149q0 -145 212 -193l81 -18
q108 1 179 61t71 149z" />
    <glyph glyph-name="dieresis" unicode="&#xa8;" horiz-adv-x="898" 
d="M627 1259q-37 0 -65 27t-28 65q0 37 28 65t65 28t65 -28t28 -65q0 -38 -28 -65t-65 -27zM271 1259q-37 -1 -65 27t-28 66t28 64q28 28 65 28t65 -28t28 -65q0 -38 -28 -65t-65 -27z" />
    <glyph glyph-name="copyright" unicode="&#xa9;" horiz-adv-x="1717" 
d="M853 955q-113 1 -191 -87t-78 -240t78 -240q78 -89 192 -89q114 -1 178 45q65 46 84 124h109q-21 -118 -115 -192t-257 -74t-271 116t-109 310q1 196 109 310t270 115q162 -1 258 -79t115 -194h-108q-21 77 -86 126t-178 49zM859 -49q141 -1 265 51t214 141t142 215
t52 292t-89 322q-89 155 -243 242t-318 87q-164 1 -288 -51t-214 -140t-142 -215t-53 -269q1 -142 53 -268t142 -215t214 -141t265 -51zM859 -158q-163 0 -308 60t-249 164t-165 250t-61 310t61 311q61 145 165 249t249 164t308 60t308 -60t249 -164t166 -249
q60 -147 60 -311t-60 -310t-166 -250q-104 -104 -249 -164t-308 -60z" />
    <glyph glyph-name="ordfeminine" unicode="&#xaa;" horiz-adv-x="883" 
d="M364 597q-105 0 -180 69t-75 179q0 109 78 173t226 74l246 17v75q1 81 -53 127t-143 46t-141 -34t-65 -92h-116q11 103 97 165t227 63q141 -1 225 -75t84 -203v-568h-110v135h-9q-38 -69 -112 -110t-179 -41zM228 850q0 -70 50 -112t146 -43q94 0 166 64t71 157v106
l-232 -18q-201 -15 -201 -154z" />
    <glyph glyph-name="guillemotleft" unicode="&#xab;" horiz-adv-x="1252" 
d="M301 572v-12l357 -411h-157l-358 414v6l358 414h157zM752 572v-12l357 -411h-157l-359 414v6l359 414h157z" />
    <glyph glyph-name="logicalnot" unicode="&#xac;" horiz-adv-x="1219" 
d="M1086 677v-532h-115v418h-838v114h953z" />
    <glyph glyph-name="registered" unicode="&#xae;" horiz-adv-x="1129" 
d="M460 1244v-160h112q45 0 69 22t24 59q1 37 -23 58t-68 21h-114zM460 853h-72v453h199q67 0 111 -38t44 -96t-30 -94t-78 -42l130 -183h-90l-117 173h-97v-173zM564 690q157 0 266 108t109 266q-1 158 -109 266t-266 108t-266 -108t-108 -266t108 -266t266 -108zM564 614
q-124 0 -229 60t-165 164t-61 226q1 188 133 319t322 131t324 -130q132 -130 132 -320q0 -188 -132 -319t-324 -131z" />
    <glyph glyph-name="macron" unicode="&#xaf;" horiz-adv-x="938" 
d="M778 1400v-85h-618v85h618z" />
    <glyph glyph-name="degree" unicode="&#xb0;" horiz-adv-x="672" 
d="M336 1020q66 0 112 47t47 113q-1 66 -47 112t-112 46t-112 -47q-48 -47 -48 -112t48 -112q46 -47 112 -47zM335 921q-107 -1 -182 75t-75 183t75 183t182 75q107 1 183 -75t76 -183t-76 -183t-183 -75z" />
    <glyph glyph-name="plusminus" unicode="&#xb1;" horiz-adv-x="1219" 
d="M666 671v-317h-113v317h-444v105h444v309h113v-309h444v-105h-444zM1110 112h-1001v114h1001v-114z" />
    <glyph glyph-name="two.sups" unicode="&#xb2;" horiz-adv-x="595" 
d="M53 1597q-1 93 67 153t174 60t172 -54t65 -140q-1 -53 -29 -101t-101 -120l-178 -175v-3h322v-98h-486v84l256 249q54 54 75 88t21 74t-34 70q-35 30 -87 30t-87 -34t-35 -83v-3h-115v3z" />
    <glyph glyph-name="three.sups" unicode="&#xb3;" horiz-adv-x="613" 
d="M216 1423v88h82q54 1 87 29t33 74t-33 73q-33 28 -87 28q-54 1 -88 -29t-36 -77h-114q4 91 70 146t171 55t170 -50t65 -120t-38 -113t-103 -54v-3q77 -6 123 -50t45 -124q0 -79 -73 -135t-187 -56q-114 1 -183 57t-73 147h118q3 -47 40 -76t96 -29t97 31t38 80t-37 79
t-101 29h-82z" />
    <glyph glyph-name="acute" unicode="&#xb4;" horiz-adv-x="899" 
d="M375 1251h-117l220 301h153z" />
    <glyph glyph-name="paragraph" unicode="&#xb6;" horiz-adv-x="1186" 
d="M919 -195v1638h137v-1638h-137zM760 -195h-136v770h-20q-206 0 -340 122t-134 311t134 312t341 123h155v-1638z" />
    <glyph glyph-name="periodcentered" unicode="&#xb7;" horiz-adv-x="509" 
d="M255 507q-39 -1 -67 27t-28 68t28 68t68 27q40 1 67 -27t27 -68t-28 -68t-67 -27z" />
    <glyph glyph-name="cedilla" unicode="&#xb8;" horiz-adv-x="899" 
d="M319 -214v60l65 161l87 -7l-54 -141q101 1 155 -39t53 -114q1 -74 -61 -124q-62 -48 -152 -48t-144 16v80q41 -16 113 -16t109 24t37 66q0 82 -155 82h-53z" />
    <glyph glyph-name="one.sups" unicode="&#xb9;" horiz-adv-x="470" 
d="M245 1119v568h-3l-178 -121v111l177 120h121v-678h-117z" />
    <glyph glyph-name="ordmasculine" unicode="&#xba;" horiz-adv-x="958" 
d="M478 593q-176 -1 -277 115q-102 116 -102 316q1 200 103 315q102 116 277 116q175 1 277 -115t103 -316q-1 -200 -103 -315q-102 -116 -278 -116zM222 1024q0 -154 68 -240t190 -87q120 1 188 87t69 240q-1 154 -69 240t-188 87q-120 -1 -190 -87q-68 -86 -68 -240z" />
    <glyph glyph-name="guillemotright" unicode="&#xbb;" horiz-adv-x="1251" 
d="M950 572l-357 411h157l359 -414v-6l-359 -414h-157l357 411v12zM500 572l-357 411h157l358 -414v-6l-358 -414h-157l357 411v12z" />
    <glyph glyph-name="onequarter" unicode="&#xbc;" horiz-adv-x="1433" 
d="M226 0h-136l1065 1443h134zM252 765v568h-3l-178 -121v111l177 120h121v-678h-117zM958 226h232v363h-2q-156 -230 -230 -361v-2zM1187 0v130h-339v106q89 158 284 442h174v-449h92v-99h-92v-130h-119z" />
    <glyph glyph-name="onehalf" unicode="&#xbd;" horiz-adv-x="1439" 
d="M226 0h-136l1065 1443h134zM252 765v568h-3l-178 -121v111l177 120h121v-678h-117zM910 478q0 94 68 154t173 59q105 0 171 -54t66 -140q0 -53 -28 -101t-102 -120l-178 -175v-3h322v-98h-486v84l256 249q54 55 75 89t21 74t-34 70t-86 29q-52 1 -88 -33q-35 -34 -35 -84
v-3h-115v3z" />
    <glyph glyph-name="threequarters" unicode="&#xbe;" horiz-adv-x="1524" 
d="M330 0h-136l1065 1443h134zM1049 226h232v363h-2q-156 -230 -230 -361v-2zM1278 0v130h-339v106q89 158 284 442h174v-449h92v-99h-92v-130h-119zM213 1069v88h82q54 1 87 29t33 74t-33 73q-32 28 -86 28q-54 1 -88 -29t-37 -77h-114q3 91 69 146t172 55q105 0 170 -50
t65 -120t-38 -113t-103 -54v-3q76 -6 122 -50t46 -124q0 -79 -73 -135t-187 -56q-114 1 -183 57t-73 147h118q3 -47 40 -76t96 -29t97 31t38 80t-37 79t-101 29h-82z" />
    <glyph glyph-name="questiondown" unicode="&#xbf;" horiz-adv-x="972" 
d="M519 923q-39 0 -67 28t-28 68q0 39 28 67t68 28t67 -27t27 -67t-28 -69q-28 -28 -67 -28zM498 -359q-184 0 -298 102q-115 102 -115 257q0 203 210 341q98 63 133 115t35 136v75h133v-94q2 -97 -44 -167t-146 -136t-140 -125t-40 -153t76 -162q76 -70 198 -70
q120 0 197 70t87 189h130q-8 -165 -120 -271t-296 -107z" />
    <glyph glyph-name="Agrave" unicode="&#xc0;" horiz-adv-x="1262" 
d="M576 1551l-289 295h154l252 -295h-117zM628 1274l-259 -714h524l-259 714h-6zM1094 0l-160 442h-606l-160 -442h-145l540 1443h136l539 -1443h-144z" />
    <glyph glyph-name="Aacute" unicode="&#xc1;" horiz-adv-x="1262" 
d="M688 1551h-117l252 295h154zM628 1274l-259 -714h524l-259 714h-6zM1094 0l-160 442h-606l-160 -442h-145l540 1443h136l539 -1443h-144z" />
    <glyph glyph-name="Acircumflex" unicode="&#xc2;" horiz-adv-x="1262" 
d="M576 1846h110l283 -295h-131l-206 217h-2l-206 -217h-131zM628 1274l-259 -714h524l-259 714h-6zM1094 0l-160 442h-606l-160 -442h-145l540 1443h136l539 -1443h-144z" />
    <glyph glyph-name="Atilde" unicode="&#xc3;" horiz-adv-x="1262" 
d="M426 1554h-91q-1 110 43 172t123 62q46 0 86 -24t64 -54q64 -78 111 -79q73 0 73 144h91q0 -107 -44 -171t-115 -63q-72 -1 -127 55q-23 24 -44 47q-50 55 -92 55q-78 0 -78 -144zM628 1274l-259 -714h524l-259 714h-6zM1094 0l-160 442h-606l-160 -442h-145l540 1443
h136l539 -1443h-144z" />
    <glyph glyph-name="Adieresis" unicode="&#xc4;" horiz-adv-x="1262" 
d="M809 1576q-37 0 -65 27t-28 65t28 66t65 27q37 1 65 -27t28 -66t-28 -65t-65 -27zM453 1576q-37 0 -65 28t-28 64q0 38 28 66t65 27q37 1 65 -27t28 -66t-28 -65t-65 -27zM628 1274l-259 -714h524l-259 714h-6zM1094 0l-160 442h-606l-160 -442h-145l540 1443h136
l539 -1443h-144z" />
    <glyph glyph-name="Aring" unicode="&#xc5;" horiz-adv-x="1262" 
d="M632 1575q50 0 84 35q35 35 35 85t-35 85q-34 35 -84 35t-85 -35t-35 -85t35 -85t85 -35zM631 1507q-77 -1 -132 55t-55 133t55 133t132 55q77 1 133 -55t55 -133q1 -77 -55 -133t-133 -55zM628 1274l-259 -714h524l-259 714h-6zM1094 0l-160 442h-606l-160 -442h-145
l540 1443h136l539 -1443h-144z" />
    <glyph glyph-name="AE" unicode="&#xc6;" horiz-adv-x="1941" 
d="M978 0v443h-600l-214 -443h-141l702 1443h1091v-124h-702v-526h665v-122h-665v-547h702v-124h-838zM978 561v766h-170l-374 -766h544z" />
    <glyph glyph-name="Ccedilla" unicode="&#xc7;" horiz-adv-x="1371" 
d="M720 1339q-230 -1 -366 -167t-137 -449q1 -283 137 -451t367 -168q173 0 294 87t153 236h137q-37 -201 -180 -319t-360 -130l-46 -119q101 1 155 -39t53 -114q1 -74 -61 -124q-62 -48 -152 -48t-144 16v80q41 -16 113 -16t109 24t37 66q0 82 -155 82h-53v60l53 132
q-275 18 -436 218t-161 534q1 334 175 535t468 201q152 0 278 -61t207 -171t100 -249h-137q-30 156 -155 255t-293 99z" />
    <glyph glyph-name="Egrave" unicode="&#xc8;" horiz-adv-x="1104" 
d="M1006 124v-124h-871v1443h871v-124h-735v-519h698v-122h-698v-554h735zM515 1551l-289 295h154l252 -295h-117z" />
    <glyph glyph-name="Eacute" unicode="&#xc9;" horiz-adv-x="1104" 
d="M1006 124v-124h-871v1443h871v-124h-735v-519h698v-122h-698v-554h735zM627 1551h-117l252 295h154z" />
    <glyph glyph-name="Ecircumflex" unicode="&#xca;" horiz-adv-x="1104" 
d="M1006 124v-124h-871v1443h871v-124h-735v-519h698v-122h-698v-554h735zM515 1846h110l283 -295h-131l-206 217h-2l-206 -217h-131z" />
    <glyph glyph-name="Edieresis" unicode="&#xcb;" horiz-adv-x="1104" 
d="M1006 124v-124h-871v1443h871v-124h-735v-519h698v-122h-698v-554h735zM748 1576q-38 0 -66 27t-27 65q-1 38 27 66t66 27q38 1 66 -27t27 -66q1 -38 -27 -65t-66 -27zM392 1576q-38 0 -66 28t-27 64q-1 38 27 66t66 27q38 1 66 -27t27 -66q1 -38 -27 -65t-66 -27z" />
    <glyph glyph-name="Igrave" unicode="&#xcc;" horiz-adv-x="406" 
d="M148 1551l-289 295h154l252 -295h-117zM271 0h-136v1443h136v-1443z" />
    <glyph glyph-name="Iacute" unicode="&#xcd;" horiz-adv-x="406" 
d="M260 1551h-117l252 295h154zM271 0h-136v1443h136v-1443z" />
    <glyph glyph-name="Icircumflex" unicode="&#xce;" horiz-adv-x="406" 
d="M148 1846h110l283 -295h-131l-206 217h-2l-206 -217h-131zM271 0h-136v1443h136v-1443z" />
    <glyph glyph-name="Idieresis" unicode="&#xcf;" horiz-adv-x="406" 
d="M381 1576q-37 0 -65 27t-28 65t28 66t65 27q37 1 65 -27t28 -66t-28 -65t-65 -27zM25 1576q-37 0 -65 28t-28 64q0 38 28 66t65 27q37 1 65 -27t28 -66t-28 -65t-65 -27zM271 0h-136v1443h136v-1443z" />
    <glyph glyph-name="Eth" unicode="&#xd0;" horiz-adv-x="1429" 
d="M135 1443h475q324 1 504 -189t180 -532t-180 -532t-504 -190h-475v681h-123v124h123v638zM272 124h330q266 0 410 155t143 443q1 288 -143 442q-144 155 -410 155h-330v-514h312v-124h-312v-557z" />
    <glyph glyph-name="Ntilde" unicode="&#xd1;" horiz-adv-x="1393" 
d="M270 0h-135v1443h135l846 -1205h7v1205h135v-1443h-132l-849 1206h-7v-1206zM491 1554h-91q0 110 44 172t122 62q46 0 86 -24t64 -54q64 -78 111 -79q73 0 73 144h91q1 -107 -43 -171t-116 -63q-72 -1 -127 55q-23 24 -44 47q-50 55 -92 55q-78 0 -78 -144z" />
    <glyph glyph-name="Ograve" unicode="&#xd2;" horiz-adv-x="1465" 
d="M732 1339q-237 0 -376 -167q-139 -166 -139 -450q-1 -284 139 -451t376 -167t376 167t140 451t-140 450q-140 167 -376 167zM732 1466q302 0 479 -201t177 -544t-177 -543t-479 -201q-302 1 -478 201t-177 543q0 343 177 544q176 201 478 201zM677 1551l-289 295h154
l252 -295h-117z" />
    <glyph glyph-name="Oacute" unicode="&#xd3;" horiz-adv-x="1465" 
d="M732 1339q-237 0 -376 -167q-139 -166 -139 -450q-1 -284 139 -451t376 -167t376 167t140 451t-140 450q-140 167 -376 167zM732 1466q302 0 479 -201t177 -544t-177 -543t-479 -201q-302 1 -478 201t-177 543q0 343 177 544q176 201 478 201zM789 1551h-117l252 295h154
z" />
    <glyph glyph-name="Ocircumflex" unicode="&#xd4;" horiz-adv-x="1465" 
d="M732 1339q-237 0 -376 -167q-139 -166 -139 -450q-1 -284 139 -451t376 -167t376 167t140 451t-140 450q-140 167 -376 167zM732 1466q302 0 479 -201t177 -544t-177 -543t-479 -201q-302 1 -478 201t-177 543q0 343 177 544q176 201 478 201zM677 1846h110l283 -295
h-131l-206 217h-2l-206 -217h-131z" />
    <glyph glyph-name="Otilde" unicode="&#xd5;" horiz-adv-x="1465" 
d="M527 1554h-91q0 110 44 172t122 62q46 0 86 -24t64 -54q64 -78 111 -79q73 0 73 144h91q1 -107 -43 -171t-116 -63q-72 -1 -127 55q-23 24 -44 47q-50 55 -92 55q-78 0 -78 -144zM732 1339q-237 0 -376 -167q-139 -166 -139 -450q-1 -284 139 -451t376 -167t376 167
t140 451t-140 450q-140 167 -376 167zM732 1466q302 0 479 -201t177 -544t-177 -543t-479 -201q-302 1 -478 201t-177 543q0 343 177 544q176 201 478 201z" />
    <glyph glyph-name="Odieresis" unicode="&#xd6;" horiz-adv-x="1465" 
d="M732 1339q-237 0 -376 -167q-139 -166 -139 -450q-1 -284 139 -451t376 -167t376 167t140 451t-140 450q-140 167 -376 167zM732 1466q302 0 479 -201t177 -544t-177 -543t-479 -201q-302 1 -478 201t-177 543q0 343 177 544q176 201 478 201zM910 1576q-38 0 -66 27
t-27 65q-1 38 27 66t66 27q38 1 66 -27t27 -66q1 -38 -27 -65t-66 -27zM554 1576q-38 0 -66 28t-27 64q-1 38 27 66t66 27q38 1 66 -27t27 -66q1 -38 -27 -65t-66 -27z" />
    <glyph glyph-name="multiply" unicode="&#xd7;" horiz-adv-x="1219" 
d="M610 499l-314 -314l-81 80l314 315l-314 314l81 81l314 -314l313 313l81 -80l-313 -314l313 -314l-81 -81z" />
    <glyph glyph-name="Oslash" unicode="&#xd8;" horiz-adv-x="1465" 
d="M1388 714q0 -336 -177 -536t-479 -201q-233 0 -396 124l-126 -164l-79 59l132 171q-186 201 -186 549t177 549t478 201q255 0 424 -147l130 167l77 -54l-140 -182q165 -200 165 -536zM716 1339q-221 0 -360 -167t-139 -447t133 -446l723 932q-136 128 -357 128zM732 104
q236 0 376 167t140 435t-113 431l-716 -929q129 -104 313 -104z" />
    <glyph glyph-name="Ugrave" unicode="&#xd9;" horiz-adv-x="1386" 
d="M271 1443v-931q0 -184 113 -296t309 -112t309 112t113 296v931h137v-939q0 -236 -151 -382t-408 -145q-257 -1 -407 145t-151 382v939h136zM638 1551l-289 295h154l252 -295h-117z" />
    <glyph glyph-name="Uacute" unicode="&#xda;" horiz-adv-x="1386" 
d="M271 1443v-931q0 -184 113 -296t309 -112t309 112t113 296v931h137v-939q0 -236 -151 -382t-408 -145q-257 -1 -407 145t-151 382v939h136zM750 1551h-117l252 295h154z" />
    <glyph glyph-name="Ucircumflex" unicode="&#xdb;" horiz-adv-x="1386" 
d="M271 1443v-931q0 -184 113 -296t309 -112t309 112t113 296v931h137v-939q0 -236 -151 -382t-408 -145q-257 -1 -407 145t-151 382v939h136zM638 1846h110l283 -295h-131l-206 217h-2l-206 -217h-131z" />
    <glyph glyph-name="Udieresis" unicode="&#xdc;" horiz-adv-x="1386" 
d="M271 1443v-931q0 -184 113 -296t309 -112t309 112t113 296v931h137v-939q0 -236 -151 -382t-408 -145q-257 -1 -407 145t-151 382v939h136zM871 1576q-37 0 -65 27t-28 65t28 66t65 27q37 1 65 -27t28 -66t-28 -65t-65 -27zM515 1576q-37 0 -65 28t-28 64q0 38 28 66
t65 27q37 1 65 -27t28 -66t-28 -65t-65 -27z" />
    <glyph glyph-name="Yacute" unicode="&#xdd;" horiz-adv-x="1219" 
d="M666 1551h-117l252 295h154zM678 0h-137v624l-517 819h156l427 -685h5l427 685h156l-517 -819v-624z" />
    <glyph glyph-name="Thorn" unicode="&#xde;" horiz-adv-x="1222" 
d="M298 1046v-576h352q149 0 237 76t88 212q0 138 -88 213t-237 75h-352zM161 1443h137v-274h386q184 0 308 -111t123 -299q-1 -127 -59 -221t-156 -142t-217 -48h-385v-348h-137v1443z" />
    <glyph glyph-name="germandbls" unicode="&#xdf;" horiz-adv-x="1174" 
d="M292 0h-131v1089q1 179 109 283t290 104t293 -100q112 -100 112 -261q0 -126 -67 -220t-175 -124v-4q163 -21 259 -119t95 -266q1 -168 -125 -283t-326 -115q-86 0 -156 14v119q62 -16 147 -16q145 1 237 83t92 216t-101 215q-101 80 -273 80h-77v129h70q121 0 196 79
t75 198t-75 189t-199 69t-198 -75q-72 -74 -72 -207v-1077z" />
    <glyph glyph-name="agrave" unicode="&#xe0;" horiz-adv-x="1048" 
d="M588 1251h-117l-256 301h153zM418 -12q-142 0 -242 86t-100 226q0 138 101 216t295 93l331 22v92q1 118 -71 183t-194 65q-122 -1 -195 -55q-74 -54 -92 -150h-127q8 142 122 232t292 91q178 0 288 -96t109 -259v-734h-126v206h-3q-44 -98 -144 -158q-102 -60 -244 -60z
M480 104q128 0 226 86t97 215v119l-315 -22q-277 -18 -277 -203q0 -87 70 -141q71 -54 199 -54z" />
    <glyph glyph-name="aacute" unicode="&#xe1;" horiz-adv-x="1048" 
d="M579 1251h-117l220 301h153zM418 -12q-142 0 -242 86t-100 226q0 138 101 216t295 93l331 22v92q1 118 -71 183t-194 65q-122 -1 -195 -55q-74 -54 -92 -150h-127q8 142 122 232t292 91q178 0 288 -96t109 -259v-734h-126v206h-3q-44 -98 -144 -158q-102 -60 -244 -60z
M480 104q128 0 226 86t97 215v119l-315 -22q-277 -18 -277 -203q0 -87 70 -141q71 -54 199 -54z" />
    <glyph glyph-name="acircumflex" unicode="&#xe2;" horiz-adv-x="1048" 
d="M576 1552l273 -301h-127l-192 220h-5l-192 -220h-127l273 301h97zM418 -12q-142 0 -242 86t-100 226q0 138 101 216t295 93l331 22v92q1 118 -71 183t-194 65q-122 -1 -195 -55q-74 -54 -92 -150h-127q8 142 122 232t292 91q178 0 288 -96t109 -259v-734h-126v206h-3
q-44 -98 -144 -158q-102 -60 -244 -60zM480 104q128 0 226 86t97 215v119l-315 -22q-277 -18 -277 -203q0 -87 70 -141q71 -54 199 -54z" />
    <glyph glyph-name="atilde" unicode="&#xe3;" horiz-adv-x="1048" 
d="M326 1270h-91q-1 110 43 172t123 62q46 0 86 -24t64 -54q64 -78 111 -79q73 0 73 144h91q0 -107 -44 -171t-115 -63q-72 -1 -127 55q-23 24 -44 47q-50 55 -92 55q-78 0 -78 -144zM418 -12q-142 0 -242 86t-100 226q0 138 101 216t295 93l331 22v92q1 118 -71 183
t-194 65q-122 -1 -195 -55q-74 -54 -92 -150h-127q8 142 122 232t292 91q178 0 288 -96t109 -259v-734h-126v206h-3q-44 -98 -144 -158q-102 -60 -244 -60zM480 104q128 0 226 86t97 215v119l-315 -22q-277 -18 -277 -203q0 -87 70 -141q71 -54 199 -54z" />
    <glyph glyph-name="adieresis" unicode="&#xe4;" horiz-adv-x="1048" 
d="M706 1259q-38 0 -66 27t-27 65q-1 37 27 65t66 28t66 -28t27 -65q1 -38 -27 -65t-66 -27zM350 1259q-38 -1 -66 27t-27 66q-1 38 27 64q28 28 66 28t66 -28t27 -65q1 -38 -27 -65t-66 -27zM418 -12q-142 0 -242 86t-100 226q0 138 101 216t295 93l331 22v92
q1 118 -71 183t-194 65q-122 -1 -195 -55q-74 -54 -92 -150h-127q8 142 122 232t292 91q178 0 288 -96t109 -259v-734h-126v206h-3q-44 -98 -144 -158q-102 -60 -244 -60zM480 104q128 0 226 86t97 215v119l-315 -22q-277 -18 -277 -203q0 -87 70 -141q71 -54 199 -54z" />
    <glyph glyph-name="aring" unicode="&#xe5;" horiz-adv-x="1048" 
d="M528 1274q50 0 85 35t35 85t-35 85t-85 35t-84 -35q-35 -35 -35 -85t35 -85q34 -35 84 -35zM528 1206q-77 0 -132 56t-55 132t55 132t132 56q76 0 132 -56t56 -132t-56 -132t-132 -56zM418 -12q-142 0 -242 86t-100 226q0 138 101 216t295 93l331 22v92q1 118 -71 183
t-194 65q-122 -1 -195 -55q-74 -54 -92 -150h-127q8 142 122 232t292 91q178 0 288 -96t109 -259v-734h-126v206h-3q-44 -98 -144 -158q-102 -60 -244 -60zM480 104q128 0 226 86t97 215v119l-315 -22q-277 -18 -277 -203q0 -87 70 -141q71 -54 199 -54z" />
    <glyph glyph-name="ae" unicode="&#xe6;" horiz-adv-x="1795" 
d="M475 104q127 0 227 88t100 215v104l-318 -19q-133 -8 -203 -58t-70 -136t68 -140t196 -54zM1274 972q-144 0 -237 -98t-102 -258h658q-2 164 -88 260q-87 96 -231 96zM873 246q-119 -258 -432 -258q-157 0 -261 84t-104 222t102 216t291 89l333 19v98q0 116 -76 186
t-198 69q-122 0 -198 -55q-74 -55 -85 -150h-130q12 144 123 234q112 90 268 89q156 0 256 -65t129 -179h8q51 115 151 179t235 65q205 0 325 -141t120 -381v-58h-795v-10q0 -179 96 -287t256 -107q117 0 195 54t102 146h132q-25 -141 -143 -229t-274 -88q-311 0 -418 258
h-8z" />
    <glyph glyph-name="ccedilla" unicode="&#xe7;" horiz-adv-x="1046" 
d="M758 -294q0 -74 -62 -124q-62 -48 -150 -48q-90 0 -145 16v80q41 -16 113 -16t109 24t37 66q0 82 -155 82h-53v60l58 143q-204 13 -324 161t-121 394q1 246 133 395q132 150 351 150q183 0 303 -101t140 -250h-131q-20 103 -103 168t-208 65q-158 0 -254 -118
q-96 -117 -96 -315t96 -314t255 -117q124 -1 206 59t105 166h131q-22 -143 -128 -236t-265 -106l-50 -131q100 1 154 -39t54 -114z" />
    <glyph glyph-name="egrave" unicode="&#xe8;" horiz-adv-x="1075" 
d="M553 -12q-224 0 -356 148t-132 399q-1 252 131 403t346 151q214 -1 342 -143q126 -142 126 -382v-58h-808v-7q0 -182 96 -288t258 -106q119 0 202 55t107 145h131q-24 -139 -146 -228t-297 -89zM544 972q-146 0 -240 -98t-102 -260h670q-2 162 -92 260t-236 98zM605 1251
h-117l-256 301h153z" />
    <glyph glyph-name="eacute" unicode="&#xe9;" horiz-adv-x="1075" 
d="M553 -12q-224 0 -356 148t-132 399q-1 252 131 403t346 151q214 -1 342 -143q126 -142 126 -382v-58h-808v-7q0 -182 96 -288t258 -106q119 0 202 55t107 145h131q-24 -139 -146 -228t-297 -89zM544 972q-146 0 -240 -98t-102 -260h670q-2 162 -92 260t-236 98zM596 1251
h-117l220 301h153z" />
    <glyph glyph-name="ecircumflex" unicode="&#xea;" horiz-adv-x="1075" 
d="M553 -12q-224 0 -356 148t-132 399q-1 252 131 403t346 151q214 -1 342 -143q126 -142 126 -382v-58h-808v-7q0 -182 96 -288t258 -106q119 0 202 55t107 145h131q-24 -139 -146 -228t-297 -89zM544 972q-146 0 -240 -98t-102 -260h670q-2 162 -92 260t-236 98zM593 1552
l273 -301h-127l-192 220h-5l-192 -220h-127l273 301h97z" />
    <glyph glyph-name="edieresis" unicode="&#xeb;" horiz-adv-x="1075" 
d="M723 1259q-37 0 -65 27t-28 65q0 37 28 65t65 28t65 -28t28 -65q0 -38 -28 -65t-65 -27zM367 1259q-37 -1 -65 27t-28 66t28 64q28 28 65 28t65 -28t28 -65q0 -38 -28 -65t-65 -27zM553 -12q-224 0 -356 148t-132 399q-1 252 131 403t346 151q214 -1 342 -143
q126 -142 126 -382v-58h-808v-7q0 -182 96 -288t258 -106q119 0 202 55t107 145h131q-24 -139 -146 -228t-297 -89zM544 972q-146 0 -240 -98t-102 -260h670q-2 162 -92 260t-236 98z" />
    <glyph glyph-name="igrave" unicode="&#xec;" horiz-adv-x="390" 
d="M129 0v1077h132v-1077h-132zM255 1251h-117l-256 301h153z" />
    <glyph glyph-name="iacute" unicode="&#xed;" horiz-adv-x="390" 
d="M129 0v1077h132v-1077h-132zM246 1251h-117l220 301h153z" />
    <glyph glyph-name="icircumflex" unicode="&#xee;" horiz-adv-x="390" 
d="M129 0v1077h132v-1077h-132zM243 1552l273 -301h-127l-192 220h-5l-192 -220h-127l273 301h97z" />
    <glyph glyph-name="idieresis" unicode="&#xef;" horiz-adv-x="390" 
d="M373 1259q-37 0 -65 27t-28 65q0 37 28 65t65 28t65 -28t28 -65q0 -38 -28 -65t-65 -27zM17 1259q-37 -1 -65 27t-28 66t28 64q28 28 65 28t65 -28t28 -65q0 -38 -28 -65t-65 -27zM129 0v1077h132v-1077h-132z" />
    <glyph glyph-name="eth" unicode="&#xf0;" horiz-adv-x="1131" 
d="M564 937q-158 0 -254 -114q-96 -113 -97 -301q1 -188 97 -304t254 -117q158 0 252 115q96 114 96 304t-96 304q-94 114 -252 113zM562 -18q-220 0 -352 148t-132 390q0 243 130 389t339 146q105 1 197 -53t135 -140h11q-24 104 -78 210t-122 183l-282 -102l-29 88l246 89
q-72 77 -214 180h164q95 -66 166 -141l257 92l29 -88l-221 -78q233 -297 233 -729q0 -268 -128 -426q-129 -158 -349 -158z" />
    <glyph glyph-name="ntilde" unicode="&#xf1;" horiz-adv-x="1111" 
d="M119 0v1077h124v-201h4q45 101 139 157t223 56q177 -1 283 -107t106 -289v-693h-132v672q0 142 -78 220t-219 79t-229 -93t-89 -245v-633h-132zM435 1414q-78 0 -78 -144h-91q0 110 44 172t122 62q46 0 86 -24t64 -54q64 -78 111 -79q73 0 73 144h91q1 -107 -43 -171
t-116 -63q-72 -1 -127 55q-23 24 -44 47q-50 55 -92 55z" />
    <glyph glyph-name="ograve" unicode="&#xf2;" horiz-adv-x="1109" 
d="M554 107q164 -1 260 115q95 116 95 317t-95 317q-96 116 -260 115q-164 1 -259 -115t-95 -317t95 -317t259 -115zM554 -12q-222 0 -356 150t-133 400q-1 252 133 402t356 149q222 1 356 -149t134 -401t-134 -401t-356 -150zM614 1251h-117l-256 301h153z" />
    <glyph glyph-name="oacute" unicode="&#xf3;" horiz-adv-x="1109" 
d="M554 107q164 -1 260 115q95 116 95 317t-95 317q-96 116 -260 115q-164 1 -259 -115t-95 -317t95 -317t259 -115zM554 -12q-222 0 -356 150t-133 400q-1 252 133 402t356 149q222 1 356 -149t134 -401t-134 -401t-356 -150zM605 1251h-117l220 301h153z" />
    <glyph glyph-name="ocircumflex" unicode="&#xf4;" horiz-adv-x="1109" 
d="M554 107q164 -1 260 115q95 116 95 317t-95 317q-96 116 -260 115q-164 1 -259 -115t-95 -317t95 -317t259 -115zM554 -12q-222 0 -356 150t-133 400q-1 252 133 402t356 149q222 1 356 -149t134 -401t-134 -401t-356 -150zM602 1552l273 -301h-127l-192 220h-5
l-192 -220h-127l273 301h97z" />
    <glyph glyph-name="otilde" unicode="&#xf5;" horiz-adv-x="1109" 
d="M554 107q164 -1 260 115q95 116 95 317t-95 317q-96 116 -260 115q-164 1 -259 -115t-95 -317t95 -317t259 -115zM554 -12q-222 0 -356 150t-133 400q-1 252 133 402t356 149q222 1 356 -149t134 -401t-134 -401t-356 -150zM430 1414q-78 0 -78 -144h-91q-1 110 43 172
t123 62q46 0 86 -24t64 -54q64 -79 111 -79q73 0 73 144h91q0 -107 -44 -171t-115 -63q-72 -1 -127 55q-23 24 -44 47q-50 55 -92 55z" />
    <glyph glyph-name="odieresis" unicode="&#xf6;" horiz-adv-x="1109" 
d="M554 107q164 -1 260 115q95 116 95 317t-95 317q-96 116 -260 115q-164 1 -259 -115t-95 -317t95 -317t259 -115zM554 -12q-222 0 -356 150t-133 400q-1 252 133 402t356 149q222 1 356 -149t134 -401t-134 -401t-356 -150zM732 1259q-38 0 -66 27t-27 65q-1 37 27 65
t66 28t66 -28t27 -65q1 -38 -27 -65t-66 -27zM376 1259q-38 -1 -66 27t-27 66q-1 38 27 64q28 28 66 28t66 -28t27 -65q1 -38 -27 -65t-66 -27z" />
    <glyph glyph-name="divide" unicode="&#xf7;" horiz-adv-x="1219" 
d="M1110 516h-1001v113h1001v-113zM610 109q-46 1 -76 31t-31 76q1 46 31 76t76 31q46 -1 76 -31q31 -30 31 -76t-31 -76q-30 -30 -76 -31zM610 815q-46 1 -76 31t-31 76q1 46 31 76t76 30t76 -30q31 -30 31 -76t-31 -76q-30 -30 -76 -31z" />
    <glyph glyph-name="oslash" unicode="&#xf8;" horiz-adv-x="1109" 
d="M1044 542q0 -254 -134 -404t-356 -150q-152 0 -264 72l-81 -117l-82 55l86 124q-148 152 -148 410q-1 258 133 408t356 149q162 0 278 -81l81 116l79 -51l-88 -127q140 -150 140 -404zM554 971q-164 1 -259 -115t-95 -313t89 -313l472 676q-87 65 -207 65zM554 107
q165 -1 260 115t95 308t-81 307l-467 -675q81 -55 193 -55z" />
    <glyph glyph-name="ugrave" unicode="&#xf9;" horiz-adv-x="1111" 
d="M993 1077v-1077h-125v202h-3q-45 -100 -142 -157t-224 -57q-176 0 -281 106t-105 289v694h132v-672q0 -143 77 -221t217 -77q141 1 231 93t90 244v633h133zM613 1251h-117l-256 301h153z" />
    <glyph glyph-name="uacute" unicode="&#xfa;" horiz-adv-x="1111" 
d="M993 1077v-1077h-125v202h-3q-45 -100 -142 -157t-224 -57q-176 0 -281 106t-105 289v694h132v-672q0 -143 77 -221t217 -77q141 1 231 93t90 244v633h133zM604 1251h-117l220 301h153z" />
    <glyph glyph-name="ucircumflex" unicode="&#xfb;" horiz-adv-x="1111" 
d="M993 1077v-1077h-125v202h-3q-45 -100 -142 -157t-224 -57q-176 0 -281 106t-105 289v694h132v-672q0 -143 77 -221t217 -77q141 1 231 93t90 244v633h133zM601 1552l273 -301h-127l-192 220h-5l-192 -220h-127l273 301h97z" />
    <glyph glyph-name="udieresis" unicode="&#xfc;" horiz-adv-x="1111" 
d="M731 1259q-37 0 -65 27t-28 65q0 37 28 65t65 28t65 -28t28 -65q0 -38 -28 -65t-65 -27zM375 1259q-37 -1 -65 27t-28 66t28 64q28 28 65 28t65 -28t28 -65q0 -38 -28 -65t-65 -27zM993 1077v-1077h-125v202h-3q-45 -100 -142 -157t-224 -57q-176 0 -281 106t-105 289
v694h132v-672q0 -143 77 -221t217 -77q141 1 231 93t90 244v633h133z" />
    <glyph glyph-name="yacute" unicode="&#xfd;" horiz-adv-x="980" 
d="M542 1251h-117l220 301h153zM199 -375q-34 0 -66 8v113q30 -7 65 -7q72 1 118 43t82 144l24 67l-405 1084h142l330 -943h3l331 943h140l-420 -1129q-69 -190 -141 -256t-203 -67z" />
    <glyph glyph-name="thorn" unicode="&#xfe;" horiz-adv-x="1153" 
d="M607 101q159 0 252 118q93 117 93 319t-93 320t-252 119q-159 0 -255 -120t-96 -318t96 -318t255 -120zM634 1095q206 -1 330 -153t124 -403t-124 -404t-330 -153q-125 0 -222 60t-141 163h-11v-576h-131v1867h125v-639h12q50 111 148 175t220 63z" />
    <glyph glyph-name="ydieresis" unicode="&#xff;" horiz-adv-x="980" 
d="M669 1259q-37 0 -65 27t-28 65q0 37 28 65t65 28t65 -28t28 -65q0 -38 -28 -65t-65 -27zM313 1259q-37 -1 -65 27t-28 66t28 64q28 28 65 28t65 -28t28 -65q0 -38 -28 -65t-65 -27zM199 -375q-34 0 -66 8v113q30 -7 65 -7q72 1 118 43t82 144l24 67l-405 1084h142
l330 -943h3l331 943h140l-420 -1129q-69 -190 -141 -256t-203 -67z" />
    <glyph glyph-name="Amacron" unicode="&#x100;" horiz-adv-x="1262" 
d="M936 1718v-85h-610v85h610zM628 1274l-259 -714h524l-259 714h-6zM1094 0l-160 442h-606l-160 -442h-145l540 1443h136l539 -1443h-144z" />
    <glyph glyph-name="amacron" unicode="&#x101;" horiz-adv-x="1048" 
d="M835 1400v-85h-618v85h618zM418 -12q-142 0 -242 86t-100 226q0 138 101 216t295 93l331 22v92q1 118 -71 183t-194 65q-122 -1 -195 -55q-74 -54 -92 -150h-127q8 142 122 232t292 91q178 0 288 -96t109 -259v-734h-126v206h-3q-44 -98 -144 -158q-102 -60 -244 -60z
M480 104q128 0 226 86t97 215v119l-315 -22q-277 -18 -277 -203q0 -87 70 -141q71 -54 199 -54z" />
    <glyph glyph-name="Abreve" unicode="&#x102;" horiz-adv-x="1262" 
d="M339 1823h94q0 -81 56 -135t142 -54t142 54t56 135h94q1 -121 -81 -197t-211 -75q-129 -1 -211 75t-81 197zM628 1274l-259 -714h524l-259 714h-6zM1094 0l-160 442h-606l-160 -442h-145l540 1443h136l539 -1443h-144z" />
    <glyph glyph-name="abreve" unicode="&#x103;" horiz-adv-x="1048" 
d="M226 1530h97q0 -86 58 -143t146 -57t146 57t58 143h97q0 -130 -84 -208t-217 -78t-217 78t-84 208zM418 -12q-142 0 -242 86t-100 226q0 138 101 216t295 93l331 22v92q1 118 -71 183t-194 65q-122 -1 -195 -55q-74 -54 -92 -150h-127q8 142 122 232t292 91
q178 0 288 -96t109 -259v-734h-126v206h-3q-44 -98 -144 -158q-102 -60 -244 -60zM480 104q128 0 226 86t97 215v119l-315 -22q-277 -18 -277 -203q0 -87 70 -141q71 -54 199 -54z" />
    <glyph glyph-name="Aogonek" unicode="&#x104;" horiz-adv-x="1262" 
d="M625 1264l-256 -704h524l-256 704h-12zM1167 -423q-97 1 -159 59t-61 151q0 135 141 232l-154 423h-606l-160 -442h-145l540 1443h136l536 -1434q-164 -80 -164 -203q0 -56 36 -90t94 -35q19 0 37 2v-99q-27 -7 -71 -7z" />
    <glyph glyph-name="aogonek" unicode="&#x105;" horiz-adv-x="1048" 
d="M480 104q128 0 226 86t97 215v119l-315 -22q-277 -18 -277 -203q0 -87 70 -141q71 -54 199 -54zM868 -423q-96 0 -156 56t-60 147q0 144 157 240v186h-3q-44 -98 -144 -158t-244 -60q-142 0 -242 86t-100 226q0 138 101 216t295 93l331 22v92q1 118 -71 183t-194 65
q-122 -1 -195 -55q-74 -54 -92 -150h-127q8 142 122 232t292 91q178 0 288 -96t109 -259v-722q-162 -84 -162 -206q0 -56 35 -90t93 -35q18 0 34 2v-99q-24 -7 -67 -7z" />
    <glyph glyph-name="Cacute" unicode="&#x106;" horiz-adv-x="1371" 
d="M720 -23q-295 1 -469 203t-174 543q1 341 175 542t468 201q152 0 278 -61t207 -171t100 -249h-137q-30 156 -155 255t-293 99q-230 -1 -366 -167t-137 -449q1 -283 137 -451t367 -168q173 0 294 87t153 236h137q-38 -211 -194 -331t-391 -119zM777 1552h-117l252 295h154
z" />
    <glyph glyph-name="cacute" unicode="&#x107;" horiz-adv-x="1046" 
d="M600 1251h-117l220 301h153zM550 971q-158 0 -254 -118q-96 -117 -96 -315t96 -314t255 -117q124 -1 206 59t105 166h131q-23 -154 -144 -249t-298 -95q-221 0 -353 148t-133 401q1 252 133 402t351 150q183 0 303 -101t140 -250h-131q-20 103 -103 168t-208 65z" />
    <glyph glyph-name="Ccircumflex" unicode="&#x108;" horiz-adv-x="1371" 
d="M665 1847h110l283 -295h-131l-206 217h-2l-206 -217h-131zM720 -23q-295 1 -469 203t-174 543q1 341 175 542t468 201q152 0 278 -61t207 -171t100 -249h-137q-30 156 -155 255t-293 99q-230 -1 -366 -167t-137 -449q1 -283 137 -451t367 -168q173 0 294 87t153 236h137
q-38 -211 -194 -331t-391 -119z" />
    <glyph glyph-name="ccircumflex" unicode="&#x109;" horiz-adv-x="1046" 
d="M550 971q-158 0 -254 -118q-96 -117 -96 -315t96 -314t255 -117q124 -1 206 59t105 166h131q-23 -154 -144 -249t-298 -95q-221 0 -353 148t-133 401q1 252 133 402t351 150q183 0 303 -101t140 -250h-131q-20 103 -103 168t-208 65zM597 1552l273 -301h-127l-192 220h-5
l-192 -220h-127l273 301h97z" />
    <glyph glyph-name="Cdotaccent" unicode="&#x10a;" horiz-adv-x="1371" 
d="M720 -23q-295 1 -469 203t-174 543q1 341 175 542t468 201q152 0 278 -61t207 -171t100 -249h-137q-30 156 -155 255t-293 99q-230 -1 -366 -167t-137 -449q1 -283 137 -451t367 -168q173 0 294 87t153 236h137q-38 -211 -194 -331t-391 -119zM720 1576q-42 0 -72 30
t-30 72t30 72t72 30t72 -30t30 -72t-30 -72t-72 -30z" />
    <glyph glyph-name="cdotaccent" unicode="&#x10b;" horiz-adv-x="1046" 
d="M549 1259q-43 1 -73 31t-31 73q1 43 31 73t73 31q43 -1 73 -31t31 -73q-1 -43 -31 -73t-73 -31zM550 971q-158 0 -254 -118q-96 -117 -96 -315t96 -314t255 -117q124 -1 206 59t105 166h131q-23 -154 -144 -249t-298 -95q-221 0 -353 148t-133 401q1 252 133 402t351 150
q183 0 303 -101t140 -250h-131q-20 103 -103 168t-208 65z" />
    <glyph glyph-name="Ccaron" unicode="&#x10c;" horiz-adv-x="1371" 
d="M665 1552l-283 295h131l206 -217h2l206 217h131l-283 -295h-110zM720 -23q-295 1 -469 203t-174 543q1 341 175 542t468 201q152 0 278 -61t207 -171t100 -249h-137q-30 156 -155 255t-293 99q-230 -1 -366 -167t-137 -449q1 -283 137 -451t367 -168q173 0 294 87
t153 236h137q-38 -211 -194 -331t-391 -119z" />
    <glyph glyph-name="ccaron" unicode="&#x10d;" horiz-adv-x="1046" 
d="M550 971q-158 0 -254 -118q-96 -117 -96 -315t96 -314t255 -117q124 -1 206 59t105 166h131q-23 -154 -144 -249t-298 -95q-221 0 -353 148t-133 401q1 252 133 402t351 150q183 0 303 -101t140 -250h-131q-20 103 -103 168t-208 65zM597 1251h-97l-273 301h127l192 -219
h5l192 219h127z" />
    <glyph glyph-name="Dcaron" unicode="&#x10e;" horiz-adv-x="1370" 
d="M272 1319v-1195h330q266 0 410 155t143 443q1 288 -143 442q-144 155 -410 155h-330zM135 1443h475q324 1 504 -189t180 -532t-180 -532t-504 -190h-475v1443zM496 1551l-283 295h131l206 -217h2l206 217h131l-283 -295h-110z" />
    <glyph glyph-name="dcaron" unicode="&#x10f;" horiz-adv-x="1274" 
d="M547 971q-155 0 -251 -119t-96 -313t96 -313t251 -119t253 120q98 119 97 311q1 192 -97 312t-253 121zM526 -12q-203 0 -332 152t-129 398t128 398t330 153q128 1 227 -63t143 -170h3v650h133v-1506h-126v229h-3q-47 -111 -146 -176t-228 -65zM1195 1496h109l-24 -444
h-85v444z" />
    <glyph glyph-name="Dcroat" unicode="&#x110;" horiz-adv-x="1476" 
d="M202 1443h475q324 1 504 -189t180 -532q1 -342 -179 -532t-505 -190h-475v681h-123v124h123v638zM339 124h330q265 0 409 155t144 443t-144 442q-144 155 -409 155h-330v-514h312v-124h-312v-557z" />
    <glyph glyph-name="dcroat" unicode="&#x111;" horiz-adv-x="1183" 
d="M1159 1383v-98h-119v-1285h-125v215h-12q-48 -109 -146 -171t-222 -62q-205 0 -331 152t-126 404q0 250 126 404t331 153q123 1 220 -61t143 -167h11v418h-272v98h272v163h131v-163h119zM562 101q158 -1 254 119t96 318t-96 319q-96 120 -254 120t-254 -119
q-95 -120 -95 -320t95 -318t254 -119z" />
    <glyph glyph-name="Emacron" unicode="&#x112;" horiz-adv-x="1104" 
d="M875 1718v-85h-610v85h610zM1006 124v-124h-871v1443h871v-124h-735v-519h698v-122h-698v-554h735z" />
    <glyph glyph-name="emacron" unicode="&#x113;" horiz-adv-x="1075" 
d="M852 1400v-85h-618v85h618zM553 -12q-224 0 -356 148t-132 399q-1 252 131 403t346 151q214 -1 342 -143q126 -142 126 -382v-58h-808v-7q0 -182 96 -288t258 -106q119 0 202 55t107 145h131q-24 -139 -146 -228t-297 -89zM544 972q-146 0 -240 -98t-102 -260h670
q-2 162 -92 260t-236 98z" />
    <glyph glyph-name="Ebreve" unicode="&#x114;" horiz-adv-x="1104" 
d="M278 1823h94q0 -81 56 -135t142 -54t142 54t56 135h94q0 -121 -82 -197t-210 -75q-128 -1 -210 75t-82 197zM1006 124v-124h-871v1443h871v-124h-735v-519h698v-122h-698v-554h735z" />
    <glyph glyph-name="ebreve" unicode="&#x115;" horiz-adv-x="1075" 
d="M243 1530h97q0 -86 58 -143t146 -57t146 57t58 143h97q1 -130 -83 -208t-218 -78t-218 78t-83 208zM553 -12q-224 0 -356 148t-132 399q-1 252 131 403t346 151q214 -1 342 -143q126 -142 126 -382v-58h-808v-7q0 -182 96 -288t258 -106q119 0 202 55t107 145h131
q-24 -139 -146 -228t-297 -89zM544 972q-146 0 -240 -98t-102 -260h670q-2 162 -92 260t-236 98z" />
    <glyph glyph-name="Edotaccent" unicode="&#x116;" horiz-adv-x="1104" 
d="M1006 124v-124h-871v1443h871v-124h-735v-519h698v-122h-698v-554h735zM570 1575q-42 0 -72 30t-30 72t30 72t72 30t72 -30t30 -72t-30 -72t-72 -30z" />
    <glyph glyph-name="edotaccent" unicode="&#x117;" horiz-adv-x="1075" 
d="M553 -12q-224 0 -356 148t-132 399q-1 252 131 403t346 151q214 -1 342 -143q126 -142 126 -382v-58h-808v-7q0 -182 96 -288t258 -106q119 0 202 55t107 145h131q-24 -139 -146 -228t-297 -89zM544 972q-146 0 -240 -98t-102 -260h670q-2 162 -92 260t-236 98zM545 1259
q-43 1 -73 31t-31 73q1 43 31 73t73 31q43 -1 73 -31t31 -73q-1 -43 -31 -73t-73 -31z" />
    <glyph glyph-name="Eogonek" unicode="&#x118;" horiz-adv-x="1104" 
d="M135 0v1443h871v-124h-735v-519h698v-122h-698v-554h735v-98q-187 -89 -187 -223q1 -54 37 -88t85 -34t65 6v-97q-22 -13 -106 -13t-146 56t-61 147q0 124 126 220h-684z" />
    <glyph glyph-name="eogonek" unicode="&#x119;" horiz-adv-x="1075" 
d="M544 972q-146 0 -240 -98t-102 -260h670q-1 160 -92 259q-90 99 -236 99zM731 -423q-79 0 -140 59q-61 58 -61 158t108 198v2q-34 -6 -85 -6q-225 0 -357 148t-131 399q-1 252 131 403t346 151q214 -1 342 -143q126 -142 126 -382v-58h-808v-7q0 -181 96 -287t258 -107
q116 0 200 54t109 146h131q-23 -139 -183 -266q-162 -122 -162 -232q-1 -52 35 -86t82 -34t65 6v-103q-23 -13 -102 -13z" />
    <glyph glyph-name="Ecaron" unicode="&#x11a;" horiz-adv-x="1104" 
d="M1006 124v-124h-871v1443h871v-124h-735v-519h698v-122h-698v-554h735zM515 1551l-283 295h131l206 -217h2l206 217h131l-283 -295h-110z" />
    <glyph glyph-name="ecaron" unicode="&#x11b;" horiz-adv-x="1075" 
d="M553 -12q-224 0 -356 148t-132 399q-1 252 131 403t346 151q214 -1 342 -143q126 -142 126 -382v-58h-808v-7q0 -182 96 -288t258 -106q119 0 202 55t107 145h131q-24 -139 -146 -228t-297 -89zM544 972q-146 0 -240 -98t-102 -260h670q-2 162 -92 260t-236 98zM593 1251
h-97l-273 301h127l192 -219h5l192 219h127z" />
    <glyph glyph-name="Gcircumflex" unicode="&#x11c;" horiz-adv-x="1409" 
d="M1324 586q0 -286 -159 -448t-446 -161q-287 0 -465 206t-177 544q1 339 177 539t471 200q227 0 388 -125t202 -332h-142q-43 154 -163 242t-285 88q-235 1 -371 -163t-137 -448q0 -284 138 -454q139 -170 359 -170t347 123t127 327v51h-448v120h584v-139zM670 1846h110
l283 -295h-131l-206 217h-2l-206 -217h-131z" />
    <glyph glyph-name="gcircumflex" unicode="&#x11d;" horiz-adv-x="1144" 
d="M572 -375q-198 0 -316 76t-138 200h138q20 -73 102 -117t218 -43t226 73q91 72 91 196v219h-3q-46 -106 -144 -170t-226 -64q-203 0 -329 151q-126 150 -126 396t126 396t332 151q127 0 227 -64t147 -171h2v223h126v-1057q0 -184 -128 -290q-127 -106 -325 -105zM544 114
q156 0 252 118q97 118 97 310q0 190 -97 310t-252 119q-156 0 -250 -118q-94 -117 -94 -311t94 -311t250 -117zM604 1552l273 -301h-127l-192 220h-5l-192 -220h-127l273 301h97z" />
    <glyph glyph-name="Gbreve" unicode="&#x11e;" horiz-adv-x="1409" 
d="M433 1823h94q0 -81 56 -135t142 -54t142 54t56 135h94q1 -121 -81 -197t-211 -75q-129 -1 -211 75t-81 197zM1324 586q0 -286 -159 -448t-446 -161q-287 0 -465 206t-177 544q1 339 177 539t471 200q227 0 388 -125t202 -332h-142q-43 154 -163 242t-285 88
q-235 1 -371 -163t-137 -448q0 -284 138 -454q139 -170 359 -170t347 123t127 327v51h-448v120h584v-139z" />
    <glyph glyph-name="gbreve" unicode="&#x11f;" horiz-adv-x="1144" 
d="M572 -375q-198 0 -316 76t-138 200h138q20 -73 102 -117t218 -43t226 73q91 72 91 196v219h-3q-46 -106 -144 -170t-226 -64q-203 0 -329 151q-126 150 -126 396t126 396t332 151q127 0 227 -64t147 -171h2v223h126v-1057q0 -184 -128 -290q-127 -106 -325 -105zM544 114
q156 0 252 118q97 118 97 310q0 190 -97 310t-252 119q-156 0 -250 -118q-94 -117 -94 -311t94 -311t250 -117zM254 1530h97q0 -86 58 -143t146 -57t146 57t58 143h97q0 -130 -84 -208t-217 -78t-217 78t-84 208z" />
    <glyph glyph-name="Gdotaccent" unicode="&#x120;" horiz-adv-x="1409" 
d="M1324 586q0 -286 -159 -448t-446 -161q-287 0 -465 206t-177 544q1 339 177 539t471 200q227 0 388 -125t202 -332h-142q-43 154 -163 242t-285 88q-235 1 -371 -163t-137 -448q0 -284 138 -454q139 -170 359 -170t347 123t127 327v51h-448v120h584v-139zM725 1575
q-42 0 -72 30t-30 72t30 72t72 30t72 -30t30 -72t-30 -72t-72 -30z" />
    <glyph glyph-name="gdotaccent" unicode="&#x121;" horiz-adv-x="1144" 
d="M572 -375q-198 0 -316 76t-138 200h138q20 -73 102 -117t218 -43t226 73q91 72 91 196v219h-3q-46 -106 -144 -170t-226 -64q-203 0 -329 151q-126 150 -126 396t126 396t332 151q127 0 227 -64t147 -171h2v223h126v-1057q0 -184 -128 -290q-127 -106 -325 -105zM544 114
q156 0 252 118q97 118 97 310q0 190 -97 310t-252 119q-156 0 -250 -118q-94 -117 -94 -311t94 -311t250 -117zM556 1259q-44 1 -74 31t-30 73t30 73t74 31q44 -1 74 -31t30 -73t-30 -73t-74 -31z" />
    <glyph glyph-name="Gcommaaccent" unicode="&#x122;" horiz-adv-x="1409" 
d="M1324 586q0 -286 -159 -448t-446 -161q-287 0 -465 206t-177 544q1 339 177 539t471 200q227 0 388 -125t202 -332h-142q-43 154 -163 242t-285 88q-235 1 -371 -163t-137 -448q0 -284 138 -454q139 -170 359 -170t347 123t127 327v51h-448v120h584v-139zM692 -520h-100
l95 358h121z" />
    <glyph glyph-name="gcommaaccent" unicode="&#x123;" horiz-adv-x="1144" 
d="M572 -375q-198 0 -316 76t-138 200h138q20 -73 102 -117t218 -43t226 73q91 72 91 196v219h-3q-46 -106 -144 -170t-226 -64q-203 0 -329 151q-126 150 -126 396t126 396t332 151q127 0 227 -64t147 -171h2v223h126v-1057q0 -184 -128 -290q-127 -106 -325 -105zM544 114
q156 0 252 118q97 118 97 310q0 190 -97 310t-252 119q-156 0 -250 -118q-94 -117 -94 -311t94 -311t250 -117zM519 -882h-100l95 358h121z" />
    <glyph glyph-name="Hcircumflex" unicode="&#x124;" horiz-adv-x="1387" 
d="M638 1846h110l283 -295h-131l-206 217h-2l-206 -217h-131zM1252 0h-137v677h-844v-677h-136v1443h136v-642h844v642h137v-1443z" />
    <glyph glyph-name="hcircumflex" unicode="&#x125;" horiz-adv-x="1136" 
d="M141 1909h110l283 -295h-131l-206 217h-2l-206 -217h-131zM129 0v1506h132v-630h3q46 101 140 157t223 56q178 1 287 -109t109 -290v-690h-133v669q0 141 -81 221t-223 81q-142 0 -234 -95q-91 -95 -91 -248v-628h-132z" />
    <glyph glyph-name="Hbar" unicode="&#x126;" horiz-adv-x="1413" 
d="M1403 1206v-111h-138v-1095h-137v677h-844v-677h-136v1095h-138v111h138v237h136v-237h844v237h137v-237h138zM1128 801v294h-844v-294h844z" />
    <glyph glyph-name="hbar" unicode="&#x127;" horiz-adv-x="1187" 
d="M286 879h4q46 101 140 155t221 55q177 -1 287 -109t109 -287v-693h-132v669q0 139 -82 221q-83 82 -223 81q-140 0 -232 -95t-92 -249v-627h-133v1258h-130v97h130v186h133v-186h272v-97h-272v-379z" />
    <glyph glyph-name="Itilde" unicode="&#x128;" horiz-adv-x="406" 
d="M76 1698q-78 0 -78 -144h-91q-1 110 43 172t123 62q46 0 86 -24t64 -54q64 -78 111 -79q73 0 73 144h91q0 -107 -44 -171t-115 -63q-72 -1 -127 55q-23 24 -44 47q-50 55 -92 55zM271 0h-136v1443h136v-1443z" />
    <glyph glyph-name="itilde" unicode="&#x129;" horiz-adv-x="390" 
d="M71 1414q-78 0 -78 -144h-91q0 110 44 172t122 62q46 0 86 -24t64 -54q64 -79 111 -79q73 0 73 144h91q1 -107 -43 -171t-116 -63q-72 -1 -127 55q-23 24 -44 47q-50 55 -92 55zM129 0v1077h132v-1077h-132z" />
    <glyph glyph-name="Imacron" unicode="&#x12a;" horiz-adv-x="406" 
d="M508 1718v-85h-610v85h610zM271 0h-136v1443h136v-1443z" />
    <glyph glyph-name="imacron" unicode="&#x12b;" horiz-adv-x="390" 
d="M502 1400v-85h-618v85h618zM129 0v1077h132v-1077h-132z" />
    <glyph glyph-name="Ibreve" unicode="&#x12c;" horiz-adv-x="406" 
d="M-89 1823h94q0 -81 56 -135t142 -54t142 54t56 135h94q1 -121 -81 -197t-211 -75q-129 -1 -211 75t-81 197zM271 0h-136v1443h136v-1443z" />
    <glyph glyph-name="ibreve" unicode="&#x12d;" horiz-adv-x="390" 
d="M-107 1530h97q0 -86 58 -143t146 -57t146 57t58 143h97q1 -130 -83 -208t-218 -78t-218 78t-83 208zM129 0v1077h132v-1077h-132z" />
    <glyph glyph-name="Iogonek" unicode="&#x12e;" horiz-adv-x="406" 
d="M202 -423q-97 0 -157 56q-60 57 -60 139q-1 82 35 139t115 109v1423h136v-1436q-165 -85 -165 -201q0 -56 36 -90t92 -35q17 0 35 2v-99q-27 -7 -67 -7z" />
    <glyph glyph-name="iogonek" unicode="&#x12f;" horiz-adv-x="390" 
d="M193 -423q-97 0 -157 56t-59 147q0 147 152 240v1057h132v-1065q-163 -85 -163 -206q0 -56 35 -90t93 -35q18 0 34 2v-99q-25 -7 -67 -7zM195 1290q-37 0 -63 26t-27 64q1 36 27 62t63 27q37 -1 63 -27t26 -62t-26 -64q-26 -26 -63 -26z" />
    <glyph glyph-name="Idotaccent" unicode="&#x130;" horiz-adv-x="406" 
d="M203 1575q-42 0 -72 30t-30 72t30 72t72 30t72 -30t30 -72t-30 -72t-72 -30zM271 0h-136v1443h136v-1443z" />
    <glyph glyph-name="dotlessi" unicode="&#x131;" horiz-adv-x="390" 
d="M129 0v1077h132v-1077h-132z" />
    <glyph glyph-name="u0132" unicode="&#x132;" horiz-adv-x="1393" 
d="M855 97q123 0 195 78t72 222v1046h136v-1048q0 -199 -110 -312t-292 -113q-184 0 -296 101t-112 260h135q5 -104 77 -169t195 -65zM271 0h-136v1443h136v-1443z" />
    <glyph glyph-name="u0133" unicode="&#x133;" horiz-adv-x="779" 
d="M585 1290q-37 0 -63 26t-27 64q1 36 27 62t63 27q37 -1 63 -27t26 -62t-26 -64q-26 -26 -63 -26zM651 1077v-1158q-1 -156 -75 -227t-233 -71h-31v113h27q97 0 139 42t41 140v1161h132zM195 1290q-37 0 -63 26t-27 64q1 36 27 62t63 27q37 -1 63 -27t26 -62t-26 -64
q-26 -26 -63 -26zM129 0v1077h132v-1077h-132z" />
    <glyph glyph-name="Jcircumflex" unicode="&#x134;" horiz-adv-x="987" 
d="M729 1846h110l283 -295h-131l-206 217h-2l-206 -217h-131zM449 97q123 0 195 78t72 222v1046h136v-1048q0 -199 -110 -312t-292 -113q-184 0 -296 101t-112 260h135q5 -104 77 -169t195 -65z" />
    <glyph glyph-name="jcircumflex" unicode="&#x135;" horiz-adv-x="388" 
d="M242 1552l273 -301h-127l-192 220h-5l-192 -220h-127l273 301h97zM260 1077v-1158q0 -156 -74 -227t-234 -71h-30v113h27q97 0 139 42t41 140v1161h131z" />
    <glyph glyph-name="Kcommaaccent" unicode="&#x136;" horiz-adv-x="1209" 
d="M548 -520h-100l95 358h121zM271 0h-136v1443h136v-748h8l686 748h173l-593 -638l652 -805h-175l-573 708l-178 -193v-515z" />
    <glyph glyph-name="kcommaaccent" unicode="&#x137;" horiz-adv-x="988" 
d="M493 -520h-100l95 358h121zM261 0h-132v1506h132v-941h1l537 512h164l-486 -465l496 -612h-156l-434 531l-122 -111v-420z" />
    <glyph glyph-name="Lacute" unicode="&#x139;" horiz-adv-x="1052" 
d="M994 124v-124h-859v1443h136v-1319h723zM260 1551h-117l252 295h154z" />
    <glyph glyph-name="lacute" unicode="&#x13a;" horiz-adv-x="390" 
d="M129 0v1506h132v-1506h-132zM252 1614h-117l252 295h154z" />
    <glyph glyph-name="Lcommaaccent" unicode="&#x13b;" horiz-adv-x="1052" 
d="M994 124v-124h-859v1443h136v-1319h723zM531 -520h-100l95 358h121z" />
    <glyph glyph-name="lcommaaccent" unicode="&#x13c;" horiz-adv-x="390" 
d="M129 0v1506h132v-1506h-132zM162 -520h-100l95 358h121z" />
    <glyph glyph-name="Lcaron" unicode="&#x13d;" horiz-adv-x="1052" 
d="M994 124v-124h-859v1443h136v-1319h723zM529 1443h129l-37 -444h-92v444z" />
    <glyph glyph-name="lcaron" unicode="&#x13e;" horiz-adv-x="508" 
d="M129 0v1506h132v-1506h-132zM427 1496h109l-23 -444h-86v444z" />
    <glyph glyph-name="Lslash" unicode="&#x141;" horiz-adv-x="1065" 
d="M283 124h723v-124h-859v705l-124 -60v111l124 60v627h136v-560l360 175v-111l-360 -175v-648z" />
    <glyph glyph-name="lslash" unicode="&#x142;" horiz-adv-x="416" 
d="M261 0h-132v714l-114 -59v113l114 58v680h132v-612l134 68v-112l-134 -69v-781z" />
    <glyph glyph-name="Nacute" unicode="&#x143;" horiz-adv-x="1393" 
d="M270 0h-135v1443h135l846 -1205h7v1205h135v-1443h-132l-849 1206h-7v-1206zM753 1551h-117l252 295h154z" />
    <glyph glyph-name="nacute" unicode="&#x144;" horiz-adv-x="1111" 
d="M119 0v1077h124v-201h4q45 101 139 157t223 56q177 -1 283 -107t106 -289v-693h-132v672q0 142 -78 220t-219 79t-229 -93t-89 -245v-633h-132zM610 1251h-117l220 301h153z" />
    <glyph glyph-name="Ncommaaccent" unicode="&#x145;" horiz-adv-x="1393" 
d="M270 0h-135v1443h135l846 -1205h7v1205h135v-1443h-132l-849 1206h-7v-1206zM663 -520h-100l95 358h121z" />
    <glyph glyph-name="ncommaaccent" unicode="&#x146;" horiz-adv-x="1111" 
d="M119 0v1077h124v-201h4q45 101 139 157t223 56q177 -1 283 -107t106 -289v-693h-132v672q0 142 -78 220t-219 79t-229 -93t-89 -245v-633h-132zM520 -520h-100l95 358h121z" />
    <glyph glyph-name="Ncaron" unicode="&#x147;" horiz-adv-x="1393" 
d="M270 0h-135v1443h135l846 -1205h7v1205h135v-1443h-132l-849 1206h-7v-1206zM641 1551l-283 295h131l206 -217h2l206 217h131l-283 -295h-110z" />
    <glyph glyph-name="ncaron" unicode="&#x148;" horiz-adv-x="1111" 
d="M119 0v1077h124v-201h4q45 101 139 157t223 56q177 -1 283 -107t106 -289v-693h-132v672q0 142 -78 220t-219 79t-229 -93t-89 -245v-633h-132zM607 1251h-97l-273 301h127l192 -219h5l192 219h127z" />
    <glyph glyph-name="Omacron" unicode="&#x14c;" horiz-adv-x="1465" 
d="M1037 1718v-85h-610v85h610zM732 1339q-237 0 -376 -167q-139 -166 -139 -450q-1 -284 139 -451t376 -167t376 167t140 451t-140 450q-140 167 -376 167zM732 1466q302 0 479 -201t177 -544t-177 -543t-479 -201q-302 1 -478 201t-177 543q0 343 177 544q176 201 478 201
z" />
    <glyph glyph-name="omacron" unicode="&#x14d;" horiz-adv-x="1109" 
d="M554 107q164 -1 260 115q95 116 95 317t-95 317q-96 116 -260 115q-164 1 -259 -115t-95 -317t95 -317t259 -115zM554 -12q-222 0 -356 150t-133 400q-1 252 133 402t356 149q222 1 356 -149t134 -401t-134 -401t-356 -150zM861 1400v-85h-618v85h618z" />
    <glyph glyph-name="Obreve" unicode="&#x14e;" horiz-adv-x="1465" 
d="M440 1823h94q0 -81 56 -135t142 -54t142 54t56 135h94q0 -121 -82 -197t-210 -75q-128 -1 -210 75t-82 197zM732 1339q-237 0 -376 -167q-139 -166 -139 -450q-1 -284 139 -451t376 -167t376 167t140 451t-140 450q-140 167 -376 167zM732 1466q302 0 479 -201t177 -544
t-177 -543t-479 -201q-302 1 -478 201t-177 543q0 343 177 544q176 201 478 201z" />
    <glyph glyph-name="obreve" unicode="&#x14f;" horiz-adv-x="1109" 
d="M554 107q164 -1 260 115q95 116 95 317t-95 317q-96 116 -260 115q-164 1 -259 -115t-95 -317t95 -317t259 -115zM554 -12q-222 0 -356 150t-133 400q-1 252 133 402t356 149q222 1 356 -149t134 -401t-134 -401t-356 -150zM252 1530h97q0 -86 58 -143t146 -57t146 57
t58 143h97q0 -130 -84 -208t-217 -78t-217 78t-84 208z" />
    <glyph glyph-name="Ohungarumlaut" unicode="&#x150;" horiz-adv-x="1465" 
d="M732 1339q-237 0 -376 -167q-139 -166 -139 -450q-1 -284 139 -451t376 -167t376 167t140 451t-140 450q-140 167 -376 167zM732 1466q302 0 479 -201t177 -544t-177 -543t-479 -201q-302 1 -478 201t-177 543q0 343 177 544q176 201 478 201zM645 1551h-111l252 295h147
zM936 1551h-111l252 295h147z" />
    <glyph glyph-name="ohungarumlaut" unicode="&#x151;" horiz-adv-x="1109" 
d="M554 107q164 -1 260 115q95 116 95 317t-95 317q-96 116 -260 115q-164 1 -259 -115t-95 -317t95 -317t259 -115zM554 -12q-222 0 -356 150t-133 400q-1 252 133 402t356 149q222 1 356 -149t134 -401t-134 -401t-356 -150zM357 1251l209 301h151l-252 -301h-108z
M642 1251l209 301h151l-252 -301h-108z" />
    <glyph glyph-name="OE" unicode="&#x152;" horiz-adv-x="2200" 
d="M1262 0v290q-71 -149 -208 -231t-315 -82q-305 1 -483 201t-179 544q1 344 179 544t483 200q180 0 316 -80t207 -230v287h849v-124h-712v-519h674v-122h-674v-554h712v-124h-849zM738 1339q-240 0 -380 -167q-141 -166 -141 -450t141 -451q140 -167 380 -167t381 167
t141 450t-141 451t-381 167z" />
    <glyph glyph-name="oe" unicode="&#x153;" horiz-adv-x="1919" 
d="M200 537q0 -201 95 -316t259 -115t260 115q95 115 95 317t-95 316q-96 116 -260 116t-259 -116t-95 -317zM1388 972q-144 0 -239 -99q-94 -99 -103 -260h671q-1 161 -93 260t-236 99zM1412 -12q-160 0 -273 74t-161 196h-7q-55 -131 -161 -201t-256 -70q-223 0 -356 149
t-133 401q0 251 133 401t356 150q149 0 255 -70t162 -202h7q48 125 158 199t253 74q213 0 339 -142t126 -383v-58h-808v-8q0 -177 97 -285t257 -108q119 0 202 55t107 145h132q-24 -139 -147 -228q-122 -89 -282 -89z" />
    <glyph glyph-name="Racute" unicode="&#x154;" horiz-adv-x="1199" 
d="M271 591v-591h-136v1443h516q211 -1 337 -115t125 -307q0 -153 -82 -262t-227 -146l349 -613h-159l-332 591h-391zM271 1321v-609h369q156 0 244 80t88 224t-90 224t-247 81h-364zM575 1551h-117l252 295h154z" />
    <glyph glyph-name="racute" unicode="&#x155;" horiz-adv-x="634" 
d="M119 0v1077h124v-191h4q28 96 100 150t173 53q43 0 80 -11v-132q-34 16 -98 16q-114 0 -182 -82t-69 -212v-668h-132zM406 1251h-117l220 301h153z" />
    <glyph glyph-name="Rcommaaccent" unicode="&#x156;" horiz-adv-x="1199" 
d="M485 -520h-100l95 358h121zM271 591v-591h-136v1443h516q211 -1 337 -115t125 -307q0 -153 -82 -262t-227 -146l349 -613h-159l-332 591h-391zM271 1321v-609h369q156 0 244 80t88 224t-90 224t-247 81h-364z" />
    <glyph glyph-name="rcommaaccent" unicode="&#x157;" horiz-adv-x="634" 
d="M152 -520h-100l95 358h121zM119 0v1077h124v-191h4q28 96 100 150t173 53q43 0 80 -11v-132q-34 16 -98 16q-114 0 -182 -82t-69 -212v-668h-132z" />
    <glyph glyph-name="Rcaron" unicode="&#x158;" horiz-adv-x="1199" 
d="M463 1551l-283 295h131l206 -217h2l206 217h131l-283 -295h-110zM271 591v-591h-136v1443h516q211 -1 337 -115t125 -307q0 -153 -82 -262t-227 -146l349 -613h-159l-332 591h-391zM271 1321v-609h369q156 0 244 80t88 224t-90 224t-247 81h-364z" />
    <glyph glyph-name="rcaron" unicode="&#x159;" horiz-adv-x="634" 
d="M119 0v1077h124v-191h4q28 96 100 150t173 53q43 0 80 -11v-132q-34 16 -98 16q-114 0 -182 -82t-69 -212v-668h-132zM403 1251h-97l-273 301h127l192 -219h5l192 219h127z" />
    <glyph glyph-name="Sacute" unicode="&#x15a;" horiz-adv-x="1182" 
d="M602 101q166 0 270 79q104 78 105 190q0 112 -73 176t-234 104l-179 46q-201 51 -293 140t-93 231q0 175 140 287t352 112q211 0 351 -112t146 -283h-137q-10 123 -109 197q-100 74 -252 74t-250 -76t-99 -181q0 -107 71 -165t231 -99l156 -40q218 -55 315 -145t97 -240
q0 -190 -142 -304q-143 -114 -375 -115q-232 1 -378 115t-157 300h137q11 -130 123 -210q111 -80 277 -81zM656 1551h-117l252 295h154z" />
    <glyph glyph-name="sacute" unicode="&#x15b;" horiz-adv-x="958" 
d="M535 1251h-117l220 301h153zM97 800q-1 120 109 204t276 85q166 0 273 -88q108 -88 116 -227h-127q-10 92 -80 148t-182 55q-110 0 -182 -51t-72 -124t48 -114t153 -67l165 -40q162 -41 230 -105t68 -190t-116 -212t-294 -86t-292 88t-125 227h134q13 -93 89 -149
t198 -55q122 -1 196 51q76 52 76 129t-46 117t-155 68l-182 46q-140 35 -209 103q-69 67 -69 187z" />
    <glyph glyph-name="Scircumflex" unicode="&#x15c;" horiz-adv-x="1182" 
d="M544 1846h110l283 -295h-131l-206 217h-2l-206 -217h-131zM602 101q166 0 270 79q104 78 105 190q0 112 -73 176t-234 104l-179 46q-201 51 -293 140t-93 231q0 175 140 287t352 112q211 0 351 -112t146 -283h-137q-10 123 -109 197q-100 74 -252 74t-250 -76t-99 -181
q0 -107 71 -165t231 -99l156 -40q218 -55 315 -145t97 -240q0 -190 -142 -304q-143 -114 -375 -115q-232 1 -378 115t-157 300h137q11 -130 123 -210q111 -80 277 -81z" />
    <glyph glyph-name="scircumflex" unicode="&#x15d;" horiz-adv-x="958" 
d="M97 800q-1 120 109 204t276 85q166 0 273 -88q108 -88 116 -227h-127q-10 92 -80 148t-182 55q-110 0 -182 -51t-72 -124t48 -114t153 -67l165 -40q162 -41 230 -105t68 -190t-116 -212t-294 -86t-292 88t-125 227h134q13 -93 89 -149t198 -55q122 -1 196 51
q76 52 76 129t-46 117t-155 68l-182 46q-140 35 -209 103q-69 67 -69 187zM532 1552l273 -301h-127l-192 220h-5l-192 -220h-127l273 301h97z" />
    <glyph glyph-name="Scedilla" unicode="&#x15e;" horiz-adv-x="1182" 
d="M1117 380q0 -166 -129 -278q-129 -113 -349 -124l-46 -119q101 1 155 -39t53 -114q1 -74 -61 -124q-62 -48 -152 -48t-144 16v80q41 -16 113 -16t109 24t37 66q0 82 -155 82h-53v60l53 132q-208 12 -340 125t-143 289h137q11 -130 123 -210q111 -80 277 -81q166 0 270 79
q104 78 105 190q0 112 -73 176t-234 104l-179 46q-201 51 -293 140t-93 231q0 175 140 287t352 112q211 0 351 -112t146 -283h-137q-10 123 -109 197q-100 74 -252 74t-250 -76t-99 -181q0 -107 71 -165t231 -99l156 -40q218 -55 315 -145t97 -256z" />
    <glyph glyph-name="scedilla" unicode="&#x15f;" horiz-adv-x="958" 
d="M892 290q0 -120 -101 -204t-264 -96l-50 -131q101 1 155 -39t53 -114q1 -74 -61 -124q-62 -48 -152 -48t-144 16v80q41 -16 113 -16t109 24t37 66q0 82 -155 82h-53v60l58 143q-157 11 -259 98t-113 216h134q13 -93 89 -149t198 -55q122 -1 196 51q76 52 76 129t-46 117
t-155 68l-182 46q-278 70 -278 277q-1 133 109 217t276 85q166 0 273 -88q108 -88 116 -227h-127q-10 92 -80 148t-182 55q-110 0 -182 -51t-72 -124t48 -114t153 -67l165 -40q162 -41 230 -105q68 -66 68 -186z" />
    <glyph glyph-name="Scaron" unicode="&#x160;" horiz-adv-x="1182" 
d="M544 1551l-283 295h131l206 -217h2l206 217h131l-283 -295h-110zM602 101q166 0 270 79q104 78 105 190q0 112 -73 176t-234 104l-179 46q-201 51 -293 140t-93 231q0 175 140 287t352 112q211 0 351 -112t146 -283h-137q-10 123 -109 197q-100 74 -252 74t-250 -76
t-99 -181q0 -107 71 -165t231 -99l156 -40q218 -55 315 -145t97 -240q0 -190 -142 -304q-143 -114 -375 -115q-232 1 -378 115t-157 300h137q11 -130 123 -210q111 -80 277 -81z" />
    <glyph glyph-name="scaron" unicode="&#x161;" horiz-adv-x="958" 
d="M97 800q-1 120 109 204t276 85q166 0 273 -88q108 -88 116 -227h-127q-10 92 -80 148t-182 55q-110 0 -182 -51t-72 -124t48 -114t153 -67l165 -40q162 -41 230 -105t68 -190t-116 -212t-294 -86t-292 88t-125 227h134q13 -93 89 -149t198 -55q122 -1 196 51
q76 52 76 129t-46 117t-155 68l-182 46q-140 35 -209 103q-69 67 -69 187zM532 1251h-97l-273 301h127l192 -219h5l192 219h127z" />
    <glyph glyph-name="Tcedilla" unicode="&#x162;" horiz-adv-x="1179" 
d="M658 0h-15l-54 -141q101 1 155 -39t53 -114q1 -74 -61 -124q-62 -48 -152 -48t-144 16v80q41 -16 113 -16t109 24t37 66q0 82 -155 82h-53v60l62 154h-32v1319h-483v124h1103v-124h-483v-1319z" />
    <glyph glyph-name="tcedilla" unicode="&#x163;" horiz-adv-x="598" 
d="M309 270q0 -160 129 -160q60 0 92 4v-113q-24 -7 -103 -7h-14l-52 -135q101 1 155 -39t53 -114q1 -74 -61 -124q-62 -48 -152 -48t-144 16v80q41 -16 113 -16t109 24t37 66q0 82 -155 82h-53v60l64 159q-78 21 -114 83t-36 177v701h-154v111h154v258h132v-258h216v-111
h-216v-696z" />
    <glyph glyph-name="Tcaron" unicode="&#x164;" horiz-adv-x="1179" 
d="M658 0h-137v1319h-483v124h1103v-124h-483v-1319zM535 1551l-283 295h131l206 -217h2l206 217h131l-283 -295h-110z" />
    <glyph glyph-name="tcaron" unicode="&#x165;" horiz-adv-x="694" 
d="M309 270q0 -160 129 -160q60 0 92 4v-113q-24 -7 -103 -7q-134 0 -192 63t-58 208v701h-154v111h154v258h132v-258h216v-111h-216v-696zM457 1677h109l-24 -444h-85v444z" />
    <glyph glyph-name="Tbar" unicode="&#x166;" horiz-adv-x="1207" 
d="M1141 1319h-483v-531h317v-110h-317v-678h-137v678h-289v110h289v531h-483v124h1103v-124z" />
    <glyph glyph-name="tbar" unicode="&#x167;" horiz-adv-x="600" 
d="M309 270q0 -160 129 -160q60 0 92 4v-113q-24 -7 -103 -7q-134 0 -192 63t-58 208v274h-154v111h154v316h-154v111h154v258h132v-258h216v-111h-216v-316h217v-111h-217v-269z" />
    <glyph glyph-name="Utilde" unicode="&#x168;" horiz-adv-x="1386" 
d="M488 1554h-91q-1 110 43 172t123 62q46 0 86 -24t64 -54q64 -78 111 -79q73 0 73 144h91q0 -107 -44 -171t-115 -63q-72 -1 -127 55q-23 24 -44 47q-50 55 -92 55q-78 0 -78 -144zM271 1443v-931q0 -184 113 -296t309 -112t309 112t113 296v931h137v-939
q0 -236 -151 -382t-408 -145q-257 -1 -407 145t-151 382v939h136z" />
    <glyph glyph-name="utilde" unicode="&#x169;" horiz-adv-x="1111" 
d="M428 1414q-78 0 -78 -144h-91q-1 110 43 172t123 62q46 0 86 -24t64 -54q64 -78 111 -79q73 0 73 144h91q0 -107 -44 -171t-115 -63q-72 -1 -127 55q-23 24 -44 47q-50 55 -92 55zM993 1077v-1077h-125v202h-3q-45 -100 -142 -157t-224 -57q-176 0 -281 106t-105 289v694
h132v-672q0 -143 77 -221t217 -77q141 1 231 93t90 244v633h133z" />
    <glyph glyph-name="Umacron" unicode="&#x16a;" horiz-adv-x="1386" 
d="M998 1718v-85h-610v85h610zM271 1443v-931q0 -184 113 -296t309 -112t309 112t113 296v931h137v-939q0 -236 -151 -382t-408 -145q-257 -1 -407 145t-151 382v939h136z" />
    <glyph glyph-name="umacron" unicode="&#x16b;" horiz-adv-x="1111" 
d="M860 1400v-85h-618v85h618zM993 1077v-1077h-125v202h-3q-45 -100 -142 -157t-224 -57q-176 0 -281 106t-105 289v694h132v-672q0 -143 77 -221t217 -77q141 1 231 93t90 244v633h133z" />
    <glyph glyph-name="Ubreve" unicode="&#x16c;" horiz-adv-x="1386" 
d="M401 1823h94q0 -81 56 -135t142 -54t142 54t56 135h94q1 -121 -81 -197t-211 -75q-129 -1 -211 75t-81 197zM271 1443v-931q0 -184 113 -296t309 -112t309 112t113 296v931h137v-939q0 -236 -151 -382t-408 -145q-257 -1 -407 145t-151 382v939h136z" />
    <glyph glyph-name="ubreve" unicode="&#x16d;" horiz-adv-x="1111" 
d="M251 1530h97q0 -86 58 -143t146 -57t146 57t58 143h97q1 -130 -83 -208t-218 -78t-218 78t-83 208zM993 1077v-1077h-125v202h-3q-45 -100 -142 -157t-224 -57q-176 0 -281 106t-105 289v694h132v-672q0 -143 77 -221t217 -77q141 1 231 93t90 244v633h133z" />
    <glyph glyph-name="Uring" unicode="&#x16e;" horiz-adv-x="1386" 
d="M271 1443v-931q0 -184 113 -296t309 -112t309 112t113 296v931h137v-939q0 -236 -151 -382t-408 -145q-257 -1 -407 145t-151 382v939h136zM694 1575q50 0 84 35q35 35 35 85t-35 85q-34 35 -84 35t-85 -35t-35 -85t35 -85t85 -35zM693 1507q-77 -1 -132 55t-55 133
t55 133t132 55q77 1 133 -55t55 -133q1 -77 -55 -133t-133 -55z" />
    <glyph glyph-name="uring" unicode="&#x16f;" horiz-adv-x="1111" 
d="M554 1274q50 0 84 35q35 35 35 85t-35 85q-34 35 -84 35t-85 -35t-35 -85t35 -85t85 -35zM553 1206q-77 0 -132 56t-55 132t55 132t132 56t133 -56t55 -132q1 -76 -55 -132t-133 -56zM993 1077v-1077h-125v202h-3q-45 -100 -142 -157t-224 -57q-176 0 -281 106t-105 289
v694h132v-672q0 -143 77 -221t217 -77q141 1 231 93t90 244v633h133z" />
    <glyph glyph-name="Uhungarumlaut" unicode="&#x170;" horiz-adv-x="1386" 
d="M606 1551h-111l252 295h147zM897 1551h-111l252 295h147zM271 1443v-931q0 -184 113 -296t309 -112t309 112t113 296v931h137v-939q0 -236 -151 -382t-408 -145q-257 -1 -407 145t-151 382v939h136z" />
    <glyph glyph-name="uhungarumlaut" unicode="&#x171;" horiz-adv-x="1111" 
d="M993 1077v-1077h-125v202h-3q-45 -100 -142 -157t-224 -57q-176 0 -281 106t-105 289v694h132v-672q0 -143 77 -221t217 -77q141 1 231 93t90 244v633h133zM356 1251l209 301h151l-252 -301h-108zM641 1251l209 301h151l-252 -301h-108z" />
    <glyph glyph-name="Uogonek" unicode="&#x172;" horiz-adv-x="1386" 
d="M927 -423q-95 1 -157 57t-63 142q0 119 111 217v4q-63 -20 -125 -20q-254 -1 -406 143t-152 384v939h136v-931q-1 -184 115 -296t307 -112t307 112t115 296v931h137v-939q0 -156 -60 -260t-176 -190q-126 -102 -146 -132q-42 -64 -41 -117q-1 -55 37 -89t81 -34t63 4v-98
q-35 -11 -83 -11z" />
    <glyph glyph-name="uogonek" unicode="&#x173;" horiz-adv-x="1111" 
d="M926 -423q-97 0 -157 56t-60 147q0 142 159 240v180h-4q-47 -102 -141 -157t-223 -55q-177 0 -282 106t-105 288v695h132v-671q0 -141 77 -220t218 -79q140 -1 230 93t90 245v632h133v-1065q-163 -84 -163 -206q0 -56 36 -90t92 -35q17 0 35 2v-99q-25 -7 -67 -7z" />
    <glyph glyph-name="Wcircumflex" unicode="&#x174;" horiz-adv-x="1854" 
d="M923 1209l-355 -1209h-127l-397 1443h142l318 -1233h6l349 1233h136l348 -1233h7l317 1233h143l-398 -1443h-126l-355 1209h-8zM872 1846h110l283 -295h-131l-206 217h-2l-206 -217h-131z" />
    <glyph glyph-name="wcircumflex" unicode="&#x175;" horiz-adv-x="1477" 
d="M1456 1077l-307 -1077h-139l-270 897h-3l-270 -897h-139l-307 1077h133l244 -927h3l270 927h134l271 -927h3l244 927h133zM786 1552l273 -301h-127l-192 220h-5l-192 -220h-127l273 301h97z" />
    <glyph glyph-name="Ycircumflex" unicode="&#x176;" horiz-adv-x="1219" 
d="M554 1846h110l283 -295h-131l-206 217h-2l-206 -217h-131zM678 0h-137v624l-517 819h156l427 -685h5l427 685h156l-517 -819v-624z" />
    <glyph glyph-name="ycircumflex" unicode="&#x177;" horiz-adv-x="980" 
d="M539 1552l273 -301h-127l-192 220h-5l-192 -220h-127l273 301h97zM199 -375q-34 0 -66 8v113q30 -7 65 -7q72 1 118 43t82 144l24 67l-405 1084h142l330 -943h3l331 943h140l-420 -1129q-69 -190 -141 -256t-203 -67z" />
    <glyph glyph-name="Ydieresis" unicode="&#x178;" horiz-adv-x="1219" 
d="M787 1576q-37 0 -65 27t-28 65t28 66t65 27q37 1 65 -27t28 -66t-28 -65t-65 -27zM431 1576q-37 0 -65 28t-28 64q0 38 28 66t65 27q37 1 65 -27t28 -66t-28 -65t-65 -27zM678 0h-137v624l-517 819h156l427 -685h5l427 685h156l-517 -819v-624z" />
    <glyph glyph-name="Zacute" unicode="&#x179;" horiz-adv-x="1224" 
d="M87 0v99l866 1214v6h-838v124h1011v-100l-864 -1213v-6h876v-124h-1051zM669 1551h-117l252 295h154z" />
    <glyph glyph-name="zacute" unicode="&#x17a;" horiz-adv-x="963" 
d="M83 0v100l645 864v2h-645v111h796v-101l-644 -862v-3h646v-111h-798zM533 1251h-117l220 301h153z" />
    <glyph glyph-name="Zdotaccent" unicode="&#x17b;" horiz-adv-x="1224" 
d="M87 0v99l866 1214v6h-838v124h1011v-100l-864 -1213v-6h876v-124h-1051zM612 1575q-42 0 -72 30t-30 72t30 72t72 30t72 -30t30 -72t-30 -72t-72 -30z" />
    <glyph glyph-name="zdotaccent" unicode="&#x17c;" horiz-adv-x="963" 
d="M83 0v100l645 864v2h-645v111h796v-101l-644 -862v-3h646v-111h-798zM482 1259q-44 1 -74 31t-30 73t30 73t74 31q44 -1 74 -31t30 -73t-30 -73t-74 -31z" />
    <glyph glyph-name="Zcaron" unicode="&#x17d;" horiz-adv-x="1224" 
d="M557 1551l-283 295h131l206 -217h2l206 217h131l-283 -295h-110zM87 0v99l866 1214v6h-838v124h1011v-100l-864 -1213v-6h876v-124h-1051z" />
    <glyph glyph-name="zcaron" unicode="&#x17e;" horiz-adv-x="963" 
d="M83 0v100l645 864v2h-645v111h796v-101l-644 -862v-3h646v-111h-798zM530 1251h-97l-273 301h127l192 -219h5l192 219h127z" />
    <glyph glyph-name="florin" unicode="&#x192;" horiz-adv-x="1219" 
d="M231 99q111 -1 172 59t81 193l60 390h-361v111h378l41 263q56 351 383 351q119 0 195 -39v-121q-74 40 -186 40t-176 -58t-84 -182l-39 -254h389v-111h-406l-63 -406q-29 -181 -121 -269t-255 -88q-116 0 -199 43v127q80 -49 191 -49z" />
    <glyph glyph-name="Ohorn" unicode="&#x1a0;" horiz-adv-x="1501" 
d="M1388 721q0 -344 -176 -544t-480 -200q-302 1 -478 201t-177 544q1 344 177 544t479 200q97 0 183 -26t135 -55q132 -81 206 -81q108 0 108 162v149h122v-183q0 -109 -44 -170t-122 -61q-45 0 -75 16l-3 -3q145 -214 145 -493zM732 1339q-237 0 -376 -167
q-139 -166 -139 -450q-1 -284 139 -451t376 -167t376 167t140 451t-140 450q-140 167 -376 167z" />
    <glyph glyph-name="ohorn" unicode="&#x1a1;" horiz-adv-x="1220" 
d="M1044 539q0 -251 -133 -401t-357 -150t-356 150q-133 150 -133 402t133 400q133 149 358 149q132 -1 229 -55q40 -22 98 -60t111 -38q107 0 107 162v149h122v-182q0 -109 -59 -173t-157 -64q-11 0 -21 4l-4 -1q62 -122 62 -292zM554 107q164 0 260 116q95 116 95 316
t-95 316t-260 116t-260 -116t-95 -316q-1 -200 95 -316t260 -116z" />
    <glyph glyph-name="Uhorn" unicode="&#x1af;" horiz-adv-x="1591" 
d="M1346 1298q66 0 96 39t31 128v144h122v-179q1 -112 -61 -176t-152 -64t-130 30v-716q0 -240 -152 -384t-407 -143q-254 -1 -406 143t-152 384v939h136v-931q-1 -184 115 -296t308 -112t306 112q115 112 115 296v931h137v-115q28 -30 94 -30z" />
    <glyph glyph-name="uhorn" unicode="&#x1b0;" horiz-adv-x="1351" 
d="M500 -12q-177 0 -282 106t-105 288v695h132v-671q0 -141 77 -220t218 -79q140 -1 230 93t90 245v632h133v-117q25 -24 88 -24t93 39t30 128v144h123v-179q1 -111 -61 -176t-168 -65q-69 0 -105 27v-854h-125v200h-4q-47 -102 -141 -157t-223 -55z" />
    <glyph glyph-name="u01C4" unicode="&#x1c4;" horiz-adv-x="2594" 
d="M1927 1551l-283 295h131l206 -217h2l206 217h131l-283 -295h-110zM1457 0v99l866 1214v6h-838v124h1011v-100l-864 -1213v-6h876v-124h-1051zM272 1319v-1195h330q266 0 410 155t143 443q1 288 -143 442q-144 155 -410 155h-330zM135 1443h475q324 1 504 -189t180 -532
t-180 -532t-504 -190h-475v1443z" />
    <glyph glyph-name="u01C5" unicode="&#x1c5;" horiz-adv-x="2334" 
d="M1453 0v100l645 864v2h-645v111h796v-101l-644 -862v-3h646v-111h-798zM1900 1251h-97l-273 301h127l192 -219h5l192 219h127zM272 1319v-1195h330q266 0 410 155t143 443q1 288 -143 442q-144 155 -410 155h-330zM135 1443h475q324 1 504 -189t180 -532t-180 -532
t-504 -190h-475v1443z" />
    <glyph glyph-name="u01C6" unicode="&#x1c6;" horiz-adv-x="2121" 
d="M1240 0v100l645 864v2h-645v111h796v-101l-644 -862v-3h646v-111h-798zM1687 1251h-97l-273 301h127l192 -219h5l192 219h127zM547 971q-155 0 -251 -119t-96 -313t96 -313t251 -119t253 120q98 119 97 311q1 192 -97 312t-253 121zM526 -12q-203 0 -332 152t-129 398
t128 398t330 153q128 1 227 -63t143 -170h3v650h133v-1506h-126v229h-3q-47 -111 -146 -176t-228 -65z" />
    <glyph glyph-name="u01C7" unicode="&#x1c7;" horiz-adv-x="2037" 
d="M994 124v-124h-859v1443h136v-1319h723zM1499 97q123 0 195 78t72 222v1046h136v-1048q0 -199 -110 -312t-292 -113q-184 0 -296 101t-112 260h135q5 -104 77 -169t195 -65z" />
    <glyph glyph-name="u01C8" unicode="&#x1c8;" horiz-adv-x="1439" 
d="M994 124v-124h-859v1443h136v-1319h723zM1245 1290q-37 0 -63 26t-27 64q1 36 27 62t63 27q37 -1 63 -27t26 -62t-26 -64q-26 -26 -63 -26zM1311 1077v-1158q-1 -156 -75 -227t-233 -71h-31v113h27q97 0 139 42t41 140v1161h132z" />
    <glyph glyph-name="u01C9" unicode="&#x1c9;" horiz-adv-x="779" 
d="M129 0v1506h132v-1506h-132zM585 1290q-37 0 -63 26t-27 64q1 36 27 62t63 27q37 -1 63 -27t26 -62t-26 -64q-26 -26 -63 -26zM651 1077v-1158q-1 -156 -75 -227t-233 -71h-31v113h27q97 0 139 42t41 140v1161h132z" />
    <glyph glyph-name="u01CA" unicode="&#x1ca;" horiz-adv-x="2380" 
d="M270 0h-135v1443h135l846 -1205h7v1205h135v-1443h-132l-849 1206h-7v-1206zM1842 97q122 0 194 78t73 222v1046h136v-1048q1 -199 -109 -312t-294 -113t-294 101q-112 101 -113 260h135q6 -104 78 -169t194 -65z" />
    <glyph glyph-name="u01CB" unicode="&#x1cb;" horiz-adv-x="1783" 
d="M270 0h-135v1443h135l846 -1205h7v1205h135v-1443h-132l-849 1206h-7v-1206zM1588 1290q-38 0 -64 26t-26 64q0 36 26 62t64 27q37 -1 63 -27t26 -62t-26 -64q-26 -26 -63 -26zM1654 1077v-1158q0 -156 -74 -227t-234 -71h-31v113h27q96 0 138 42t42 140v1161h132z" />
    <glyph glyph-name="u01CC" unicode="&#x1cc;" horiz-adv-x="1501" 
d="M119 0v1077h124v-201h4q45 101 139 157t223 56q177 -1 283 -107t106 -289v-693h-132v672q0 142 -78 220t-219 79t-229 -93t-89 -245v-633h-132zM1306 1290q-38 0 -64 26t-26 64q0 36 26 62t64 27q37 -1 63 -27t26 -62t-26 -64q-26 -26 -63 -26zM1372 1077v-1158
q0 -156 -74 -227t-234 -71h-31v113h27q96 0 138 42t42 140v1161h132z" />
    <glyph glyph-name="Acaron" unicode="&#x1cd;" horiz-adv-x="1262" 
d="M576 1551l-283 295h131l206 -217h2l206 217h131l-283 -295h-110zM628 1274l-259 -714h524l-259 714h-6zM1094 0l-160 442h-606l-160 -442h-145l540 1443h136l539 -1443h-144z" />
    <glyph glyph-name="acaron" unicode="&#x1ce;" horiz-adv-x="1048" 
d="M576 1251h-97l-273 301h127l192 -219h5l192 219h127zM418 -12q-142 0 -242 86t-100 226q0 138 101 216t295 93l331 22v92q1 118 -71 183t-194 65q-122 -1 -195 -55q-74 -54 -92 -150h-127q8 142 122 232t292 91q178 0 288 -96t109 -259v-734h-126v206h-3
q-44 -98 -144 -158q-102 -60 -244 -60zM480 104q128 0 226 86t97 215v119l-315 -22q-277 -18 -277 -203q0 -87 70 -141q71 -54 199 -54z" />
    <glyph glyph-name="Icaron" unicode="&#x1cf;" horiz-adv-x="406" 
d="M148 1551l-283 295h131l206 -217h2l206 217h131l-283 -295h-110zM271 0h-136v1443h136v-1443z" />
    <glyph glyph-name="icaron" unicode="&#x1d0;" horiz-adv-x="390" 
d="M129 0v1077h132v-1077h-132zM243 1251h-97l-273 301h127l192 -219h5l192 219h127z" />
    <glyph glyph-name="Ocaron" unicode="&#x1d1;" horiz-adv-x="1465" 
d="M732 1339q-237 0 -376 -167q-139 -166 -139 -450q-1 -284 139 -451t376 -167t376 167t140 451t-140 450q-140 167 -376 167zM732 1466q302 0 479 -201t177 -544t-177 -543t-479 -201q-302 1 -478 201t-177 543q0 343 177 544q176 201 478 201zM677 1551l-283 295h131
l206 -217h2l206 217h131l-283 -295h-110z" />
    <glyph glyph-name="ocaron" unicode="&#x1d2;" horiz-adv-x="1109" 
d="M554 107q164 -1 260 115q95 116 95 317t-95 317q-96 116 -260 115q-164 1 -259 -115t-95 -317t95 -317t259 -115zM554 -12q-222 0 -356 150t-133 400q-1 252 133 402t356 149q222 1 356 -149t134 -401t-134 -401t-356 -150zM602 1251h-97l-273 301h127l192 -219h5
l192 219h127z" />
    <glyph glyph-name="Ucaron" unicode="&#x1d3;" horiz-adv-x="1386" 
d="M271 1443v-931q0 -184 113 -296t309 -112t309 112t113 296v931h137v-939q0 -236 -151 -382t-408 -145q-257 -1 -407 145t-151 382v939h136zM638 1551l-283 295h131l206 -217h2l206 217h131l-283 -295h-110z" />
    <glyph glyph-name="ucaron" unicode="&#x1d4;" horiz-adv-x="1111" 
d="M993 1077v-1077h-125v202h-3q-45 -100 -142 -157t-224 -57q-176 0 -281 106t-105 289v694h132v-672q0 -143 77 -221t217 -77q141 1 231 93t90 244v633h133zM601 1251h-97l-273 301h127l192 -219h5l192 219h127z" />
    <glyph glyph-name="Udieresismacron" unicode="&#x1d5;" horiz-adv-x="1386" 
d="M864 1747q34 -1 58 -25t25 -58q-1 -34 -25 -60q-24 -24 -58 -24t-60 24q-24 24 -24 60q0 34 24 58q26 24 60 25zM388 1979h610v-84h-610v84zM522 1747q34 -1 60 -25q24 -24 24 -58t-24 -60q-24 -24 -60 -24q-34 0 -58 24t-25 60q1 34 25 58t58 25zM271 1443v-931
q0 -184 113 -296t309 -112t309 112t113 296v931h137v-939q0 -236 -151 -382t-408 -145q-257 -1 -407 145t-151 382v939h136z" />
    <glyph glyph-name="udieresismacron" unicode="&#x1d6;" horiz-adv-x="1111" 
d="M860 1719v-85h-618v85h618zM731 1259q-37 0 -63 26t-27 63q1 37 27 63t63 26q37 1 63 -25t26 -64t-26 -63q-26 -26 -63 -26zM375 1259q-37 0 -63 26t-26 63t26 63t64 26t63 -26q26 -26 26 -63q-1 -37 -27 -63t-63 -26zM993 1077v-1077h-125v202h-3q-45 -100 -142 -157
t-224 -57q-176 0 -281 106t-105 289v694h132v-672q0 -143 77 -221t217 -77q141 1 231 93t90 244v633h133z" />
    <glyph glyph-name="Udieresisacute" unicode="&#x1d7;" horiz-adv-x="1386" 
d="M271 1443v-931q0 -184 113 -296t309 -112t309 112t113 296v931h137v-939q0 -236 -151 -382t-408 -145q-257 -1 -407 145t-151 382v939h136zM864 1580q-34 0 -60 24q-24 24 -24 60q0 34 24 58t60 25q34 -1 58 -25t25 -58q-1 -34 -25 -60q-24 -24 -58 -24zM522 1580
q-34 0 -58 24t-25 60q1 34 25 58t58 25q34 -1 60 -25q24 -24 24 -58t-24 -60q-26 -24 -60 -24zM633 1818l195 203h145l-231 -203h-109z" />
    <glyph glyph-name="udieresisacute" unicode="&#x1d8;" horiz-adv-x="1111" 
d="M993 1077v-1077h-125v202h-3q-45 -100 -142 -157t-224 -57q-176 0 -281 106t-105 289v694h132v-672q0 -143 77 -221t217 -77q141 1 231 93t90 244v633h133zM731 1259q-37 0 -65 27t-28 65q0 37 28 65t65 28t65 -28t28 -65q0 -38 -28 -65t-65 -27zM375 1259q-37 -1 -65 27
t-28 66t28 64q28 28 65 28t65 -28t28 -65q0 -38 -28 -65t-65 -27zM490 1565l187 269h148l-217 -269h-118z" />
    <glyph glyph-name="Udieresiscaron" unicode="&#x1d9;" horiz-adv-x="1386" 
d="M271 1443v-931q0 -184 113 -296t309 -112t309 112t113 296v931h137v-939q0 -236 -151 -382t-408 -145q-257 -1 -407 145t-151 382v939h136zM864 1747q34 -1 58 -25t25 -58q-1 -34 -25 -60q-24 -24 -58 -24t-60 24q-24 24 -24 60q0 34 24 58q26 24 60 25zM522 1747
q34 -1 60 -25q24 -24 24 -58t-24 -60q-24 -24 -60 -24q-34 0 -58 24t-25 60q1 34 25 58t58 25zM634 1818l-266 203h144l176 -135h10l176 135h144l-266 -203h-118z" />
    <glyph glyph-name="udieresiscaron" unicode="&#x1da;" horiz-adv-x="1111" 
d="M993 1077v-1077h-125v202h-3q-45 -100 -142 -157t-224 -57q-176 0 -281 106t-105 289v694h132v-672q0 -143 77 -221t217 -77q141 1 231 93t90 244v633h133zM618 1565h-130l-261 269h125l199 -205h4l199 205h125zM731 1259q-37 0 -65 27t-28 65q0 37 28 65t65 28t65 -28
t28 -65q0 -38 -28 -65t-65 -27zM375 1259q-37 -1 -65 27t-28 66t28 64q28 28 65 28t65 -28t28 -65q0 -38 -28 -65t-65 -27z" />
    <glyph glyph-name="Udieresisgrave" unicode="&#x1db;" horiz-adv-x="1386" 
d="M271 1443v-931q0 -184 113 -296t309 -112t309 112t113 296v931h137v-939q0 -236 -151 -382t-408 -145q-257 -1 -407 145t-151 382v939h136zM864 1580q-34 0 -60 24q-24 24 -24 60q0 34 24 58t60 25q34 -1 58 -25t25 -58q-1 -34 -25 -60q-24 -24 -58 -24zM522 1580
q-34 0 -58 24t-25 60q1 34 25 58t58 25q34 -1 60 -25q24 -24 24 -58t-24 -60q-26 -24 -60 -24zM753 1818h-109l-231 203h145z" />
    <glyph glyph-name="udieresisgrave" unicode="&#x1dc;" horiz-adv-x="1111" 
d="M993 1077v-1077h-125v202h-3q-45 -100 -142 -157t-224 -57q-176 0 -281 106t-105 289v694h132v-672q0 -143 77 -221t217 -77q141 1 231 93t90 244v633h133zM731 1259q-37 0 -65 27t-28 65q0 37 28 65t65 28t65 -28t28 -65q0 -38 -28 -65t-65 -27zM375 1259q-37 -1 -65 27
t-28 66t28 64q28 28 65 28t65 -28t28 -65q0 -38 -28 -65t-65 -27zM616 1565h-118l-217 269h148z" />
    <glyph glyph-name="Adieresismacron" unicode="&#x1de;" horiz-adv-x="1262" 
d="M802 1747q34 -1 58 -25t25 -58q-1 -34 -25 -60q-24 -24 -58 -24t-60 24q-24 24 -24 60q0 34 24 58q26 24 60 25zM326 1979h610v-84h-610v84zM460 1747q34 -1 60 -25q24 -24 24 -58t-24 -60q-24 -24 -60 -24q-34 0 -58 24t-25 60q1 34 25 58t58 25zM628 1274l-259 -714
h524l-259 714h-6zM1094 0l-160 442h-606l-160 -442h-145l540 1443h136l539 -1443h-144z" />
    <glyph glyph-name="adieresismacron" unicode="&#x1df;" horiz-adv-x="1048" 
d="M835 1719v-85h-618v85h618zM706 1259q-38 0 -64 26t-26 63t26 63t64 26q38 1 64 -25t25 -64q0 -38 -26 -63q-26 -26 -63 -26zM350 1259q-37 0 -63 26t-26 63t26 63q25 26 63 26t64 -26t26 -63t-26 -63t-64 -26zM418 -12q-142 0 -242 86t-100 226q0 138 101 216t295 93
l331 22v92q1 118 -71 183t-194 65q-122 -1 -195 -55q-74 -54 -92 -150h-127q8 142 122 232t292 91q178 0 288 -96t109 -259v-734h-126v206h-3q-44 -98 -144 -158q-102 -60 -244 -60zM480 104q128 0 226 86t97 215v119l-315 -22q-277 -18 -277 -203q0 -87 70 -141
q71 -54 199 -54z" />
    <glyph glyph-name="Adotmacron" unicode="&#x1e0;" horiz-adv-x="1262" 
d="M936 1979v-84h-610v84h610zM631 1568q-41 0 -70 29t-29 69t29 70q29 28 70 28t70 -28t29 -70q0 -40 -29 -69t-70 -29zM628 1274l-259 -714h524l-259 714h-6zM1094 0l-160 442h-606l-160 -442h-145l540 1443h136l539 -1443h-144z" />
    <glyph glyph-name="adotmacron" unicode="&#x1e1;" horiz-adv-x="1048" 
d="M835 1719v-85h-618v85h618zM528 1259q-42 0 -72 30t-31 72q0 43 31 73t72 30t72 -30t31 -73q-1 -42 -31 -72t-72 -30zM418 -12q-142 0 -242 86t-100 226q0 138 101 216t295 93l331 22v92q1 118 -71 183t-194 65q-122 -1 -195 -55q-74 -54 -92 -150h-127q8 142 122 232
t292 91q178 0 288 -96t109 -259v-734h-126v206h-3q-44 -98 -144 -158q-102 -60 -244 -60zM480 104q128 0 226 86t97 215v119l-315 -22q-277 -18 -277 -203q0 -87 70 -141q71 -54 199 -54z" />
    <glyph glyph-name="AEmacron" unicode="&#x1e2;" horiz-adv-x="1945" 
d="M1675 1718v-85h-610v85h610zM978 0v443h-600l-214 -443h-141l702 1443h1091v-124h-702v-526h665v-122h-665v-547h702v-124h-838zM978 561v766h-170l-374 -766h544z" />
    <glyph glyph-name="aemacron" unicode="&#x1e3;" horiz-adv-x="1795" 
d="M1212 1400v-85h-618v85h618zM475 104q127 0 227 88t100 215v104l-318 -19q-133 -8 -203 -58t-70 -136t68 -140t196 -54zM1274 972q-144 0 -237 -98t-102 -258h658q-2 164 -88 260q-87 96 -231 96zM873 246q-119 -258 -432 -258q-157 0 -261 84t-104 222t102 216t291 89
l333 19v98q0 116 -76 186t-198 69q-122 0 -198 -55q-74 -55 -85 -150h-130q12 144 123 234q112 90 268 89q156 0 256 -65t129 -179h8q51 115 151 179t235 65q205 0 325 -141t120 -381v-58h-795v-10q0 -179 96 -287t256 -107q117 0 195 54t102 146h132q-25 -141 -143 -229
t-274 -88q-311 0 -418 258h-8z" />
    <glyph glyph-name="Gcaron" unicode="&#x1e6;" horiz-adv-x="1409" 
d="M1324 586q0 -286 -159 -448t-446 -161q-287 0 -465 206t-177 544q1 339 177 539t471 200q227 0 388 -125t202 -332h-142q-43 154 -163 242t-285 88q-235 1 -371 -163t-137 -448q0 -284 138 -454q139 -170 359 -170t347 123t127 327v51h-448v120h584v-139zM670 1551
l-283 295h131l206 -217h2l206 217h131l-283 -295h-110z" />
    <glyph glyph-name="gcaron" unicode="&#x1e7;" horiz-adv-x="1144" 
d="M572 -375q-198 0 -316 76t-138 200h138q20 -73 102 -117t218 -43t226 73q91 72 91 196v219h-3q-46 -106 -144 -170t-226 -64q-203 0 -329 151q-126 150 -126 396t126 396t332 151q127 0 227 -64t147 -171h2v223h126v-1057q0 -184 -128 -290q-127 -106 -325 -105zM544 114
q156 0 252 118q97 118 97 310q0 190 -97 310t-252 119q-156 0 -250 -118q-94 -117 -94 -311t94 -311t250 -117zM604 1251h-97l-273 301h127l192 -219h5l192 219h127z" />
    <glyph glyph-name="Kcaron" unicode="&#x1e8;" horiz-adv-x="1209" 
d="M526 1551l-283 295h131l206 -217h2l206 217h131l-283 -295h-110zM271 0h-136v1443h136v-748h8l686 748h173l-593 -638l652 -805h-175l-573 708l-178 -193v-515z" />
    <glyph glyph-name="kcaron" unicode="&#x1e9;" horiz-adv-x="988" 
d="M140 1614l-283 295h131l206 -217h2l206 217h131l-283 -295h-110zM261 0h-132v1506h132v-941h1l537 512h164l-486 -465l496 -612h-156l-434 531l-122 -111v-420z" />
    <glyph glyph-name="Oogonek" unicode="&#x1ea;" horiz-adv-x="1464" 
d="M732 1339q-238 -1 -376 -167q-139 -166 -139 -451q1 -285 139 -451t376 -166t376 166t139 452q-1 285 -139 451t-376 166zM975 -423q-97 0 -159 56t-62 145q0 127 112 214v5q-61 -20 -133 -20q-305 0 -481 199t-175 545q0 345 176 545t480 200t479 -200t175 -553
q0 -354 -210 -559q-37 -36 -67 -60t-66 -54l-48 -40t-38 -34q-83 -78 -83 -163q0 -53 36 -87q35 -34 81 -34t64 5v-99q-27 -11 -81 -11z" />
    <glyph glyph-name="oogonek" unicode="&#x1eb;" horiz-adv-x="1109" 
d="M554 107q164 0 260 116q95 116 95 316t-95 316t-260 116t-260 -116t-95 -316q-1 -200 95 -316t260 -116zM747 -423q-95 0 -155 59q-60 60 -61 160q0 100 103 194v4q-38 -6 -80 -6q-224 0 -356 150t-133 401q1 252 133 401t356 149t357 -149t133 -401q0 -305 -205 -469
q-103 -84 -145 -144t-42 -118q0 -59 36 -93t80 -34q45 0 73 6v-97q-39 -13 -94 -13z" />
    <glyph glyph-name="Oogonekmacron" unicode="&#x1ec;" horiz-adv-x="1464" 
d="M1037 1718v-85h-610v85h610zM732 1339q-238 -1 -376 -167q-139 -166 -139 -451q1 -285 139 -451t376 -166t376 166t139 452q-1 285 -139 451t-376 166zM975 -423q-97 0 -159 56t-62 145q0 127 112 214v5q-61 -20 -133 -20q-305 0 -481 199t-175 545q0 345 176 545
t480 200t479 -200t175 -553q0 -354 -210 -559q-37 -36 -67 -60t-66 -54l-48 -40t-38 -34q-83 -78 -83 -163q0 -53 36 -87q35 -34 81 -34t64 5v-99q-27 -11 -81 -11z" />
    <glyph glyph-name="oogonekmacron" unicode="&#x1ed;" horiz-adv-x="1109" 
d="M554 107q164 0 260 116q95 116 95 316t-95 316t-260 116t-260 -116t-95 -316q-1 -200 95 -316t260 -116zM747 -423q-95 0 -155 59q-60 60 -61 160q0 100 103 194v4q-38 -6 -80 -6q-224 0 -356 150t-133 401q1 252 133 401t356 149t357 -149t133 -401q0 -305 -205 -469
q-103 -84 -145 -144t-42 -118q0 -59 36 -93t80 -34q45 0 73 6v-97q-39 -13 -94 -13zM861 1400v-85h-618v85h618z" />
    <glyph glyph-name="u01F1" unicode="&#x1f1;" horiz-adv-x="2594" 
d="M272 1319v-1195h330q266 0 410 155t143 443q1 288 -143 442q-144 155 -410 155h-330zM135 1443h475q324 1 504 -189t180 -532t-180 -532t-504 -190h-475v1443zM1457 0v99l866 1214v6h-838v124h1011v-100l-864 -1213v-6h876v-124h-1051z" />
    <glyph glyph-name="u01F2" unicode="&#x1f2;" horiz-adv-x="2334" 
d="M272 1319v-1195h330q266 0 410 155t143 443q1 288 -143 442q-144 155 -410 155h-330zM135 1443h475q324 1 504 -189t180 -532t-180 -532t-504 -190h-475v1443zM1453 0v100l645 864v2h-645v111h796v-101l-644 -862v-3h646v-111h-798z" />
    <glyph glyph-name="u01F3" unicode="&#x1f3;" horiz-adv-x="2121" 
d="M547 971q-155 0 -251 -119t-96 -313t96 -313t251 -119t253 120q98 119 97 311q1 192 -97 312t-253 121zM526 -12q-203 0 -332 152t-129 398t128 398t330 153q128 1 227 -63t143 -170h3v650h133v-1506h-126v229h-3q-47 -111 -146 -176t-228 -65zM1240 0v100l645 864v2
h-645v111h796v-101l-644 -862v-3h646v-111h-798z" />
    <glyph glyph-name="Gacute" unicode="&#x1f4;" horiz-adv-x="1409" 
d="M1324 586q0 -286 -159 -448t-446 -161q-287 0 -465 206t-177 544q1 339 177 539t471 200q227 0 388 -125t202 -332h-142q-43 154 -163 242t-285 88q-235 1 -371 -163t-137 -448q0 -284 138 -454q139 -170 359 -170t347 123t127 327v51h-448v120h584v-139zM782 1551h-117
l252 295h154z" />
    <glyph glyph-name="gacute" unicode="&#x1f5;" horiz-adv-x="1144" 
d="M572 -375q-198 0 -316 76t-138 200h138q20 -73 102 -117t218 -43t226 73q91 72 91 196v219h-3q-46 -106 -144 -170t-226 -64q-203 0 -329 151q-126 150 -126 396t126 396t332 151q127 0 227 -64t147 -171h2v223h126v-1057q0 -184 -128 -290q-127 -106 -325 -105zM544 114
q156 0 252 118q97 118 97 310q0 190 -97 310t-252 119q-156 0 -250 -118q-94 -117 -94 -311t94 -311t250 -117zM607 1251h-117l220 301h153z" />
    <glyph glyph-name="Ngrave" unicode="&#x1f8;" horiz-adv-x="1393" 
d="M270 0h-135v1443h135l846 -1205h7v1205h135v-1443h-132l-849 1206h-7v-1206zM641 1551l-289 295h154l252 -295h-117z" />
    <glyph glyph-name="ngrave" unicode="&#x1f9;" horiz-adv-x="1111" 
d="M119 0v1077h124v-201h4q45 101 139 157t223 56q177 -1 283 -107t106 -289v-693h-132v672q0 142 -78 220t-219 79t-229 -93t-89 -245v-633h-132zM619 1251h-117l-256 301h153z" />
    <glyph glyph-name="Aringacute" unicode="&#x1fa;" horiz-adv-x="1262" 
d="M715 2091h137l-173 -178h-95zM631 1553q50 0 85 35t35 85q0 49 -35 85t-85 36t-85 -36t-35 -85q0 -50 35 -85t85 -35zM631 1485q-77 -1 -133 55t-55 133q-1 77 55 133t133 55q77 1 133 -55t55 -133q1 -77 -55 -133t-133 -55zM628 1274l-259 -714h524l-259 714h-6zM1094 0
l-160 442h-606l-160 -442h-145l540 1443h136l539 -1443h-144z" />
    <glyph glyph-name="aringacute" unicode="&#x1fb;" horiz-adv-x="1048" 
d="M474 1651l132 186h125l-160 -186h-97zM409 1388q1 -50 35 -85t84 -35t84 35t35 85q-1 50 -35 84q-34 35 -84 35t-84 -35q-34 -34 -35 -84zM528 1200q-76 0 -132 55t-56 132t56 133t132 55q76 1 132 -55t56 -133t-56 -132t-132 -55zM418 -12q-142 0 -242 86t-100 226
q0 138 101 216t295 93l331 22v92q1 118 -71 183t-194 65q-122 -1 -195 -55q-74 -54 -92 -150h-127q8 142 122 232t292 91q178 0 288 -96t109 -259v-734h-126v206h-3q-44 -98 -144 -158q-102 -60 -244 -60zM480 104q128 0 226 86t97 215v119l-315 -22q-277 -18 -277 -203
q0 -87 70 -141q71 -54 199 -54z" />
    <glyph glyph-name="AEacute" unicode="&#x1fc;" horiz-adv-x="1945" 
d="M978 0v443h-600l-214 -443h-141l702 1443h1091v-124h-702v-526h665v-122h-665v-547h702v-124h-838zM978 561v766h-170l-374 -766h544zM1427 1551h-117l252 295h154z" />
    <glyph glyph-name="aeacute" unicode="&#x1fd;" horiz-adv-x="1795" 
d="M475 104q127 0 227 88t100 215v104l-318 -19q-133 -8 -203 -58t-70 -136t68 -140t196 -54zM1274 972q-144 0 -237 -98t-102 -258h658q-2 164 -88 260q-87 96 -231 96zM873 246q-119 -258 -432 -258q-157 0 -261 84t-104 222t102 216t291 89l333 19v98q0 116 -76 186
t-198 69q-122 0 -198 -55q-74 -55 -85 -150h-130q12 144 123 234q112 90 268 89q156 0 256 -65t129 -179h8q51 115 151 179t235 65q205 0 325 -141t120 -381v-58h-795v-10q0 -179 96 -287t256 -107q117 0 195 54t102 146h132q-25 -141 -143 -229t-274 -88q-311 0 -418 258
h-8zM956 1251h-117l220 301h153z" />
    <glyph glyph-name="Oslashacute" unicode="&#x1fe;" horiz-adv-x="1465" 
d="M1388 714q0 -336 -177 -536t-479 -201q-233 0 -396 124l-126 -164l-79 59l132 171q-186 201 -186 549t177 549t478 201q255 0 424 -147l130 167l77 -54l-140 -182q165 -200 165 -536zM716 1339q-221 0 -360 -167t-139 -447t133 -446l723 932q-136 128 -357 128zM732 104
q236 0 376 167t140 435t-113 431l-716 -929q129 -104 313 -104zM1111 1846l-289 -295h-117l252 295h154z" />
    <glyph glyph-name="oslashacute" unicode="&#x1ff;" horiz-adv-x="1109" 
d="M1044 542q0 -254 -134 -404t-356 -150q-152 0 -264 72l-81 -117l-82 55l86 124q-148 152 -148 410q-1 258 133 408t356 149q162 0 278 -81l81 116l79 -51l-88 -127q140 -150 140 -404zM554 971q-164 1 -259 -115t-95 -313t89 -313l472 676q-87 65 -207 65zM554 107
q165 -1 260 115t95 308t-81 307l-467 -675q81 -55 193 -55zM887 1552l-256 -301h-117l220 301h153z" />
    <glyph glyph-name="Adblgrave" unicode="&#x200;" horiz-adv-x="1262" 
d="M427 1551l-288 295h147l252 -295h-111zM718 1551l-288 295h147l252 -295h-111zM628 1274l-259 -714h524l-259 714h-6zM1094 0l-160 442h-606l-160 -442h-145l540 1443h136l539 -1443h-144z" />
    <glyph glyph-name="adblgrave" unicode="&#x201;" horiz-adv-x="1048" 
d="M725 1251h-108l-252 301h151zM440 1251h-108l-252 301h151zM418 -12q-142 0 -242 86t-100 226q0 138 101 216t295 93l331 22v92q1 118 -71 183t-194 65q-122 -1 -195 -55q-74 -54 -92 -150h-127q8 142 122 232t292 91q178 0 288 -96t109 -259v-734h-126v206h-3
q-44 -98 -144 -158q-102 -60 -244 -60zM480 104q128 0 226 86t97 215v119l-315 -22q-277 -18 -277 -203q0 -87 70 -141q71 -54 199 -54z" />
    <glyph glyph-name="Ainvertedbreve" unicode="&#x202;" horiz-adv-x="1262" 
d="M339 1551q-1 121 81 197t211 75q129 1 211 -75t81 -197h-94q0 81 -56 135t-142 54t-142 -54t-56 -135h-94zM628 1274l-259 -714h524l-259 714h-6zM1094 0l-160 442h-606l-160 -442h-145l540 1443h136l539 -1443h-144z" />
    <glyph glyph-name="ainvertedbreve" unicode="&#x203;" horiz-adv-x="1048" 
d="M227 1251q-1 129 83 207t218 79q134 -1 218 -79t83 -207h-97q0 86 -58 143t-146 57t-146 -57t-58 -143h-97zM418 -12q-142 0 -242 86t-100 226q0 138 101 216t295 93l331 22v92q1 118 -71 183t-194 65q-122 -1 -195 -55q-74 -54 -92 -150h-127q8 142 122 232t292 91
q178 0 288 -96t109 -259v-734h-126v206h-3q-44 -98 -144 -158q-102 -60 -244 -60zM480 104q128 0 226 86t97 215v119l-315 -22q-277 -18 -277 -203q0 -87 70 -141q71 -54 199 -54z" />
    <glyph glyph-name="Edblgrave" unicode="&#x204;" horiz-adv-x="1104" 
d="M1006 124v-124h-871v1443h871v-124h-735v-519h698v-122h-698v-554h735zM366 1551l-288 295h147l252 -295h-111zM657 1551l-288 295h147l252 -295h-111z" />
    <glyph glyph-name="edblgrave" unicode="&#x205;" horiz-adv-x="1075" 
d="M742 1251h-108l-252 301h151zM457 1251h-108l-252 301h151zM553 -12q-224 0 -356 148t-132 399q-1 252 131 403t346 151q214 -1 342 -143q126 -142 126 -382v-58h-808v-7q0 -182 96 -288t258 -106q119 0 202 55t107 145h131q-24 -139 -146 -228t-297 -89zM544 972
q-146 0 -240 -98t-102 -260h670q-2 162 -92 260t-236 98z" />
    <glyph glyph-name="Einvertedbreve" unicode="&#x206;" horiz-adv-x="1104" 
d="M278 1551q0 121 82 197t210 75q128 1 210 -75t82 -197h-94q0 81 -56 135t-142 54t-142 -54t-56 -135h-94zM1006 124v-124h-871v1443h871v-124h-735v-519h698v-122h-698v-554h735z" />
    <glyph glyph-name="einvertedbreve" unicode="&#x207;" horiz-adv-x="1075" 
d="M244 1251q0 129 84 207t217 79q133 -1 217 -79t84 -207h-97q0 86 -58 143t-146 57t-146 -57t-58 -143h-97zM553 -12q-224 0 -356 148t-132 399q-1 252 131 403t346 151q214 -1 342 -143q126 -142 126 -382v-58h-808v-7q0 -182 96 -288t258 -106q119 0 202 55t107 145h131
q-24 -139 -146 -228t-297 -89zM544 972q-146 0 -240 -98t-102 -260h670q-2 162 -92 260t-236 98z" />
    <glyph glyph-name="Idblgrave" unicode="&#x208;" horiz-adv-x="406" 
d="M-1 1551l-288 295h147l252 -295h-111zM290 1551l-288 295h147l252 -295h-111zM271 0h-136v1443h136v-1443z" />
    <glyph glyph-name="idblgrave" unicode="&#x209;" horiz-adv-x="390" 
d="M392 1251h-108l-252 301h151zM107 1251h-108l-252 301h151zM129 0v1077h132v-1077h-132z" />
    <glyph glyph-name="Iinvertedbreve" unicode="&#x20a;" horiz-adv-x="406" 
d="M-89 1551q-1 121 81 197t211 75q129 1 211 -75t81 -197h-94q0 81 -56 135t-142 54t-142 -54t-56 -135h-94zM271 0h-136v1443h136v-1443z" />
    <glyph glyph-name="iinvertedbreve" unicode="&#x20b;" horiz-adv-x="390" 
d="M-106 1251q0 129 84 207t217 79q133 -1 217 -79t84 -207h-97q0 86 -58 143t-146 57t-146 -57t-58 -143h-97zM129 0v1077h132v-1077h-132z" />
    <glyph glyph-name="Odblgrave" unicode="&#x20c;" horiz-adv-x="1465" 
d="M732 1339q-237 0 -376 -167q-139 -166 -139 -450q-1 -284 139 -451t376 -167t376 167t140 451t-140 450q-140 167 -376 167zM732 1466q302 0 479 -201t177 -544t-177 -543t-479 -201q-302 1 -478 201t-177 543q0 343 177 544q176 201 478 201zM528 1551l-288 295h147
l252 -295h-111zM819 1551l-288 295h147l252 -295h-111z" />
    <glyph glyph-name="odblgrave" unicode="&#x20d;" horiz-adv-x="1109" 
d="M751 1251h-108l-252 301h151zM466 1251h-108l-252 301h151zM554 107q164 -1 260 115q95 116 95 317t-95 317q-96 116 -260 115q-164 1 -259 -115t-95 -317t95 -317t259 -115zM554 -12q-222 0 -356 150t-133 400q-1 252 133 402t356 149q222 1 356 -149t134 -401
t-134 -401t-356 -150z" />
    <glyph glyph-name="Oinvertedbreve" unicode="&#x20e;" horiz-adv-x="1465" 
d="M732 1339q-237 0 -376 -167q-139 -166 -139 -450q-1 -284 139 -451t376 -167t376 167t140 451t-140 450q-140 167 -376 167zM732 1466q302 0 479 -201t177 -544t-177 -543t-479 -201q-302 1 -478 201t-177 543q0 343 177 544q176 201 478 201zM440 1551q0 121 82 197
t210 75q128 1 210 -75t82 -197h-94q0 81 -56 135t-142 54t-142 -54t-56 -135h-94z" />
    <glyph glyph-name="oinvertedbreve" unicode="&#x20f;" horiz-adv-x="1109" 
d="M253 1251q-1 129 83 207t218 79q134 -1 218 -79t83 -207h-97q0 86 -58 143t-146 57t-146 -57t-58 -143h-97zM554 107q164 -1 260 115q95 116 95 317t-95 317q-96 116 -260 115q-164 1 -259 -115t-95 -317t95 -317t259 -115zM554 -12q-222 0 -356 150t-133 400
q-1 252 133 402t356 149q222 1 356 -149t134 -401t-134 -401t-356 -150z" />
    <glyph glyph-name="Rdblgrave" unicode="&#x210;" horiz-adv-x="1199" 
d="M271 591v-591h-136v1443h516q211 -1 337 -115t125 -307q0 -153 -82 -262t-227 -146l349 -613h-159l-332 591h-391zM271 1321v-609h369q156 0 244 80t88 224t-90 224t-247 81h-364zM314 1551l-288 295h147l252 -295h-111zM605 1551l-288 295h147l252 -295h-111z" />
    <glyph glyph-name="rdblgrave" unicode="&#x211;" horiz-adv-x="634" 
d="M552 1251h-108l-252 301h151zM267 1251h-108l-252 301h151zM119 0v1077h124v-191h4q28 96 100 150t173 53q43 0 80 -11v-132q-34 16 -98 16q-114 0 -182 -82t-69 -212v-668h-132z" />
    <glyph glyph-name="Rinvertedbreve" unicode="&#x212;" horiz-adv-x="1199" 
d="M226 1551q0 121 82 197t210 75q128 1 210 -75t82 -197h-94q0 81 -56 135t-142 54t-142 -54t-56 -135h-94zM271 591v-591h-136v1443h516q211 -1 337 -115t125 -307q0 -153 -82 -262t-227 -146l349 -613h-159l-332 591h-391zM271 1321v-609h369q156 0 244 80t88 224
t-90 224t-247 81h-364z" />
    <glyph glyph-name="rinvertedbreve" unicode="&#x213;" horiz-adv-x="634" 
d="M54 1251q0 129 84 207t217 79q133 -1 217 -79t84 -207h-97q0 86 -58 143t-146 57t-146 -57t-58 -143h-97zM119 0v1077h124v-191h4q28 96 100 150t173 53q43 0 80 -11v-132q-34 16 -98 16q-114 0 -182 -82t-69 -212v-668h-132z" />
    <glyph glyph-name="Udblgrave" unicode="&#x214;" horiz-adv-x="1386" 
d="M271 1443v-931q0 -184 113 -296t309 -112t309 112t113 296v931h137v-939q0 -236 -151 -382t-408 -145q-257 -1 -407 145t-151 382v939h136zM489 1551l-288 295h147l252 -295h-111zM780 1551l-288 295h147l252 -295h-111z" />
    <glyph glyph-name="udblgrave" unicode="&#x215;" horiz-adv-x="1111" 
d="M750 1251h-108l-252 301h151zM465 1251h-108l-252 301h151zM993 1077v-1077h-125v202h-3q-45 -100 -142 -157t-224 -57q-176 0 -281 106t-105 289v694h132v-672q0 -143 77 -221t217 -77q141 1 231 93t90 244v633h133z" />
    <glyph glyph-name="Uinvertedbreve" unicode="&#x216;" horiz-adv-x="1386" 
d="M401 1551q-1 121 81 197t211 75q129 1 211 -75t81 -197h-94q0 81 -56 135t-142 54t-142 -54t-56 -135h-94zM271 1443v-931q0 -184 113 -296t309 -112t309 112t113 296v931h137v-939q0 -236 -151 -382t-408 -145q-257 -1 -407 145t-151 382v939h136z" />
    <glyph glyph-name="uinvertedbreve" unicode="&#x217;" horiz-adv-x="1111" 
d="M252 1251q0 129 84 207t217 79q133 -1 217 -79t84 -207h-97q0 86 -58 143t-146 57t-146 -57t-58 -143h-97zM993 1077v-1077h-125v202h-3q-45 -100 -142 -157t-224 -57q-176 0 -281 106t-105 289v694h132v-672q0 -143 77 -221t217 -77q141 1 231 93t90 244v633h133z" />
    <glyph glyph-name="Scommaaccent" unicode="&#x218;" horiz-adv-x="1182" 
d="M561 -520h-100l95 358h121zM602 101q166 0 270 79q104 78 105 190q0 112 -73 176t-234 104l-179 46q-201 51 -293 140t-93 231q0 175 140 287t352 112q211 0 351 -112t146 -283h-137q-10 123 -109 197q-100 74 -252 74t-250 -76t-99 -181q0 -107 71 -165t231 -99l156 -40
q218 -55 315 -145t97 -240q0 -190 -142 -304q-143 -114 -375 -115q-232 1 -378 115t-157 300h137q11 -130 123 -210q111 -80 277 -81z" />
    <glyph glyph-name="scommaaccent" unicode="&#x219;" horiz-adv-x="958" 
d="M445 -520h-100l95 358h121zM97 800q-1 120 109 204t276 85q166 0 273 -88q108 -88 116 -227h-127q-10 92 -80 148t-182 55q-110 0 -182 -51t-72 -124t48 -114t153 -67l165 -40q162 -41 230 -105t68 -190t-116 -212t-294 -86t-292 88t-125 227h134q13 -93 89 -149t198 -55
q122 -1 196 51q76 52 76 129t-46 117t-155 68l-182 46q-140 35 -209 103q-69 67 -69 187z" />
    <glyph glyph-name="Tcommaaccent" unicode="&#x21a;" horiz-adv-x="1179" 
d="M658 0h-137v1319h-483v124h1103v-124h-483v-1319zM557 -520h-100l95 358h121z" />
    <glyph glyph-name="tcommaaccent" unicode="&#x21b;" horiz-adv-x="598" 
d="M309 270q0 -160 129 -160q60 0 92 4v-113q-24 -7 -103 -7q-134 0 -192 63t-58 208v701h-154v111h154v258h132v-258h216v-111h-216v-696zM329 -520h-100l95 358h121z" />
    <glyph glyph-name="Hcaron" unicode="&#x21e;" horiz-adv-x="1387" 
d="M638 1551l-283 295h131l206 -217h2l206 217h131l-283 -295h-110zM1252 0h-137v677h-844v-677h-136v1443h136v-642h844v642h137v-1443z" />
    <glyph glyph-name="hcaron" unicode="&#x21f;" horiz-adv-x="1136" 
d="M141 1614l-283 295h131l206 -217h2l206 217h131l-283 -295h-110zM129 0v1506h132v-630h3q46 101 140 157t223 56q178 1 287 -109t109 -290v-690h-133v669q0 141 -81 221t-223 81q-142 0 -234 -95q-91 -95 -91 -248v-628h-132z" />
    <glyph glyph-name="Adotaccent" unicode="&#x226;" horiz-adv-x="1262" 
d="M631 1575q-42 0 -72 30t-30 72t30 72t72 30t72 -30t30 -72t-30 -72t-72 -30zM628 1274l-259 -714h524l-259 714h-6zM1094 0l-160 442h-606l-160 -442h-145l540 1443h136l539 -1443h-144z" />
    <glyph glyph-name="adotaccent" unicode="&#x227;" horiz-adv-x="1048" 
d="M528 1259q-44 1 -74 31t-30 73t30 73t74 31q44 -1 74 -31t30 -73t-30 -73t-74 -31zM418 -12q-142 0 -242 86t-100 226q0 138 101 216t295 93l331 22v92q1 118 -71 183t-194 65q-122 -1 -195 -55q-74 -54 -92 -150h-127q8 142 122 232t292 91q178 0 288 -96t109 -259v-734
h-126v206h-3q-44 -98 -144 -158q-102 -60 -244 -60zM480 104q128 0 226 86t97 215v119l-315 -22q-277 -18 -277 -203q0 -87 70 -141q71 -54 199 -54z" />
    <glyph glyph-name="Ecedilla" unicode="&#x228;" horiz-adv-x="1104" 
d="M1006 1319h-735v-519h698v-122h-698v-554h735v-124h-383l-54 -141q101 1 155 -39t53 -114q1 -74 -61 -124q-62 -48 -152 -48t-144 16v80q41 -16 113 -16t109 24t37 66q0 82 -155 82h-53v60l62 154h-398v1443h871v-124z" />
    <glyph glyph-name="ecedilla" unicode="&#x229;" horiz-adv-x="1075" 
d="M1010 506h-808v-7q0 -182 96 -288t258 -106q119 0 202 55t107 145h131q-23 -129 -130 -215t-264 -100l-50 -131q100 1 154 -39t54 -114t-62 -124q-62 -48 -150 -48q-90 0 -145 16v80q41 -16 113 -16t109 24t37 66q0 82 -155 82h-53v60l58 143q-207 14 -327 160t-120 392
q-1 246 131 397t346 151q214 -1 342 -143q126 -142 126 -382v-58zM544 972q-146 0 -240 -98t-102 -260h670q-2 162 -92 260t-236 98z" />
    <glyph glyph-name="Odieresismacron" unicode="&#x22a;" horiz-adv-x="1465" 
d="M902 1747q34 -1 60 -25q24 -24 24 -58t-24 -60q-24 -24 -60 -24q-34 0 -58 24t-25 60q1 34 25 58t58 25zM427 1979h610v-84h-610v84zM562 1747q34 -1 58 -25t25 -58q-1 -34 -25 -60q-24 -24 -58 -24t-60 24q-24 24 -24 60q0 34 24 58q26 24 60 25zM732 1339
q-237 0 -376 -167q-139 -166 -139 -450q-1 -284 139 -451t376 -167t376 167t140 451t-140 450q-140 167 -376 167zM732 1466q302 0 479 -201t177 -544t-177 -543t-479 -201q-302 1 -478 201t-177 543q0 343 177 544q176 201 478 201z" />
    <glyph glyph-name="odieresismacron" unicode="&#x22b;" horiz-adv-x="1109" 
d="M554 107q164 -1 260 115q95 116 95 317t-95 317q-96 116 -260 115q-164 1 -259 -115t-95 -317t95 -317t259 -115zM554 -12q-222 0 -356 150t-133 400q-1 252 133 402t356 149q222 1 356 -149t134 -401t-134 -401t-356 -150zM861 1719v-85h-618v85h618zM732 1259
q-38 0 -64 26t-26 63t26 63t64 26q38 1 64 -25t25 -64q0 -38 -26 -63q-26 -26 -63 -26zM376 1259q-37 0 -63 26t-26 63t26 63q25 26 63 26t64 -26t26 -63t-26 -63t-64 -26z" />
    <glyph glyph-name="Otildemacron" unicode="&#x22c;" horiz-adv-x="1465" 
d="M732 1339q-237 0 -376 -167q-139 -166 -139 -450q-1 -284 139 -451t376 -167t376 167t140 451t-140 450q-140 167 -376 167zM732 1466q302 0 479 -201t177 -544t-177 -543t-479 -201q-302 1 -478 201t-177 543q0 343 177 544q176 201 478 201zM1037 1979v-84h-610v84h610
zM532 1557h-91q-1 104 43 164t118 60t126 -53q22 -22 42 -44q46 -54 84 -54q72 0 72 136h91q0 -102 -44 -164t-114 -61q-71 0 -123 53q-22 22 -40 44q-45 54 -87 54q-77 0 -77 -135z" />
    <glyph glyph-name="otildemacron" unicode="&#x22d;" horiz-adv-x="1109" 
d="M554 107q164 -1 260 115q95 116 95 317t-95 317q-96 116 -260 115q-164 1 -259 -115t-95 -317t95 -317t259 -115zM554 -12q-222 0 -356 150t-133 400q-1 252 133 402t356 149q222 1 356 -149t134 -401t-134 -401t-356 -150zM863 1719v-85h-618v85h618zM432 1400
q-78 0 -78 -144h-91q-1 110 43 172t123 62q46 0 86 -24t64 -54q64 -78 111 -79q73 0 73 144h91q0 -107 -44 -171t-115 -63q-72 -1 -127 55q-23 24 -44 47q-50 55 -92 55z" />
    <glyph glyph-name="Odotaccent" unicode="&#x22e;" horiz-adv-x="1465" 
d="M732 1339q-237 0 -376 -167q-139 -166 -139 -450q-1 -284 139 -451t376 -167t376 167t140 451t-140 450q-140 167 -376 167zM732 1466q302 0 479 -201t177 -544t-177 -543t-479 -201q-302 1 -478 201t-177 543q0 343 177 544q176 201 478 201zM732 1575q-42 0 -72 30
t-30 72t30 72t72 30t72 -30t30 -72t-30 -72t-72 -30z" />
    <glyph glyph-name="odotaccent" unicode="&#x22f;" horiz-adv-x="1109" 
d="M554 107q164 -1 260 115q95 116 95 317t-95 317q-96 116 -260 115q-164 1 -259 -115t-95 -317t95 -317t259 -115zM554 -12q-222 0 -356 150t-133 400q-1 252 133 402t356 149q222 1 356 -149t134 -401t-134 -401t-356 -150zM554 1259q-44 1 -74 31t-30 73t30 73t74 31
q44 -1 74 -31t30 -73t-30 -73t-74 -31z" />
    <glyph glyph-name="Odotaccentmacron" unicode="&#x230;" horiz-adv-x="1465" 
d="M732 1339q-237 0 -376 -167q-139 -166 -139 -450q-1 -284 139 -451t376 -167t376 167t140 451t-140 450q-140 167 -376 167zM732 1466q302 0 479 -201t177 -544t-177 -543t-479 -201q-302 1 -478 201t-177 543q0 343 177 544q176 201 478 201zM1037 1979v-84h-610v84h610
zM732 1568q-41 0 -70 29t-29 69t29 70q29 28 70 28t70 -28t29 -70q0 -40 -29 -69t-70 -29z" />
    <glyph glyph-name="odotaccentmacron" unicode="&#x231;" horiz-adv-x="1109" 
d="M861 1719v-85h-618v85h618zM554 1259q-42 0 -72 30t-31 72q0 43 31 73t72 30t72 -30t31 -73q-1 -42 -31 -72t-72 -30zM554 107q164 -1 260 115q95 116 95 317t-95 317q-96 116 -260 115q-164 1 -259 -115t-95 -317t95 -317t259 -115zM554 -12q-222 0 -356 150t-133 400
q-1 252 133 402t356 149q222 1 356 -149t134 -401t-134 -401t-356 -150z" />
    <glyph glyph-name="Ymacron" unicode="&#x232;" horiz-adv-x="1219" 
d="M914 1718v-85h-610v85h610zM678 0h-137v624l-517 819h156l427 -685h5l427 685h156l-517 -819v-624z" />
    <glyph glyph-name="ymacron" unicode="&#x233;" horiz-adv-x="980" 
d="M798 1400v-85h-618v85h618zM199 -375q-34 0 -66 8v113q30 -7 65 -7q72 1 118 43t82 144l24 67l-405 1084h142l330 -943h3l331 943h140l-420 -1129q-69 -190 -141 -256t-203 -67z" />
    <glyph glyph-name="dotlessj" unicode="&#x237;" horiz-adv-x="388" 
d="M260 1077v-1158q0 -156 -74 -227t-234 -71h-30v113h27q97 0 139 42t41 140v1161h131z" />
    <glyph glyph-name="circumflex" unicode="&#x2c6;" horiz-adv-x="899" 
d="M498 1552l273 -301h-127l-192 220h-5l-192 -220h-127l273 301h97z" />
    <glyph glyph-name="caron" unicode="&#x2c7;" horiz-adv-x="899" 
d="M498 1251h-97l-273 301h127l192 -219h5l192 219h127z" />
    <glyph glyph-name="breve" unicode="&#x2d8;" horiz-adv-x="938" 
d="M168 1530h97q0 -86 58 -143t146 -57t146 57t58 143h97q0 -130 -84 -208t-217 -78t-217 78t-84 208z" />
    <glyph glyph-name="dotaccent" unicode="&#x2d9;" horiz-adv-x="868" 
d="M434 1259q-44 1 -74 31t-30 73t30 73t74 31q44 -1 74 -31t30 -73t-30 -73t-74 -31z" />
    <glyph glyph-name="ring" unicode="&#x2da;" horiz-adv-x="928" 
d="M464 1275q50 0 85 35t35 85t-35 85t-85 35t-84 -35q-35 -35 -35 -85t35 -85q34 -35 84 -35zM464 1207q-77 -1 -132 55t-55 133t55 133t132 55q76 1 132 -55t56 -133t-56 -133t-132 -55z" />
    <glyph glyph-name="ogonek" unicode="&#x2db;" horiz-adv-x="839" 
d="M266 -255q0 149 164 262l88 -2q-140 -110 -140 -224q0 -53 34 -84t84 -31t87 15v-96q-49 -20 -128 -20t-134 49t-55 131z" />
    <glyph glyph-name="tilde" unicode="&#x2dc;" horiz-adv-x="899" 
d="M323 1414q-78 0 -78 -144h-91q0 110 44 172t122 62q46 0 86 -24t64 -54q64 -78 111 -79q73 0 73 144h91q1 -107 -43 -171t-116 -63q-72 -1 -127 55q-23 24 -44 47q-50 55 -92 55z" />
    <glyph glyph-name="hungarumlaut" unicode="&#x2dd;" horiz-adv-x="938" 
d="M158 1251l209 301h151l-252 -301h-108zM443 1251l209 301h151l-252 -301h-108z" />
    <glyph glyph-name="gravecmb" unicode="&#x300;" 
d="M60 1251h-117l-256 301h153z" />
    <glyph glyph-name="acutecmb" unicode="&#x301;" 
d="M51 1251h-117l220 301h153z" />
    <glyph glyph-name="circumflexcmb" unicode="&#x302;" 
d="M48 1552l273 -301h-127l-192 220h-5l-192 -220h-127l273 301h97z" />
    <glyph glyph-name="tildecmb" unicode="&#x303;" 
d="M-124 1414q-78 0 -78 -144h-91q-1 110 43 172t123 62q46 0 86 -24t64 -54q64 -78 111 -79q73 0 73 144h91q0 -107 -44 -171t-115 -63q-72 -1 -127 55q-23 24 -44 47q-50 55 -92 55z" />
    <glyph glyph-name="macroncmb" unicode="&#x304;" 
d="M307 1400v-85h-618v85h618z" />
    <glyph glyph-name="brevecmb" unicode="&#x306;" 
d="M-302 1530h97q0 -86 58 -143t146 -57t146 57t58 143h97q0 -130 -84 -208t-217 -78t-217 78t-84 208z" />
    <glyph glyph-name="dotaccentcmb" unicode="&#x307;" 
d="M0 1259q-44 1 -74 31t-30 73t30 73t74 31q44 -1 74 -31t30 -73t-30 -73t-74 -31z" />
    <glyph glyph-name="dieresiscmb" unicode="&#x308;" 
d="M178 1259q-38 0 -66 27t-27 65q-1 37 27 65t66 28t66 -28t27 -65q1 -38 -27 -65t-66 -27zM-178 1259q-38 -1 -66 27t-27 66q-1 38 27 64q28 28 66 28t66 -28t27 -65q1 -38 -27 -65t-66 -27z" />
    <glyph glyph-name="hookabovecmb" unicode="&#x309;" 
d="M14 1545q74 0 122 -44t48 -109t-38 -113t-103 -72l-50 66q88 32 88 106q0 35 -27 58q-28 23 -72 23t-97 -27v85q55 27 129 27z" />
    <glyph glyph-name="ringcmb" unicode="&#x30a;" 
d="M0 1274q50 0 85 35t35 85t-35 85t-85 35t-84 -35q-35 -35 -35 -85t35 -85q34 -35 84 -35zM0 1206q-77 0 -132 56t-55 132t55 132t132 56q76 0 132 -56t56 -132t-56 -132t-132 -56z" />
    <glyph glyph-name="hungarumlautcmb" unicode="&#x30b;" 
d="M-197 1251l209 301h151l-252 -301h-108zM88 1251l209 301h151l-252 -301h-108z" />
    <glyph glyph-name="caroncmb" unicode="&#x30c;" 
d="M48 1251h-97l-273 301h127l192 -219h5l192 219h127z" />
    <glyph glyph-name="dblgravecmb" unicode="&#x30f;" 
d="M197 1251h-108l-252 301h151zM-88 1251h-108l-252 301h151z" />
    <glyph glyph-name="invertedbrevecmb" unicode="&#x311;" 
d="M-301 1251q-1 129 83 207t218 79q134 -1 218 -79t83 -207h-97q0 86 -58 143t-146 57t-146 -57t-58 -143h-97z" />
    <glyph glyph-name="horncmb" unicode="&#x31b;" 
d="M90 1074q128 0 128 169v142h122v-177q0 -110 -64 -176t-171 -66q-67 0 -105 30v108q28 -30 90 -30z" />
    <glyph glyph-name="dotbelowcmb" unicode="&#x323;" 
d="M0 -351q-42 0 -72 30t-30 72t30 72t72 30t72 -30t30 -72t-30 -72t-72 -30z" />
    <glyph glyph-name="dieresisbelowcmb" unicode="&#x324;" 
d="M178 -339q-38 0 -66 27t-27 65q-1 37 27 65t66 28t66 -28t27 -65q1 -38 -27 -65t-66 -27zM-178 -339q-38 -1 -66 27t-27 66q-1 38 27 64q28 28 66 28t66 -28t27 -65q1 -38 -27 -65t-66 -27z" />
    <glyph glyph-name="ringbelowcmb" unicode="&#x325;" 
d="M0 -461q50 0 85 35t35 85t-35 85t-85 35t-84 -35q-35 -35 -35 -85t35 -85q34 -35 84 -35zM0 -529q-77 -1 -132 55t-55 133t55 133t132 55q76 1 132 -55t56 -133t-56 -133t-132 -55z" />
    <glyph glyph-name="commabelowcmb" unicode="&#x326;" 
d="M-33 -520h-100l95 358h121z" />
    <glyph glyph-name="cedillacmb" unicode="&#x327;" 
d="M-99 -214v60l65 161l87 -7l-54 -141q101 1 155 -39t53 -114q1 -74 -61 -124q-62 -48 -152 -48t-144 16v80q41 -16 113 -16t109 24t37 66q0 82 -155 82h-53z" />
    <glyph glyph-name="ogonekcmb" unicode="&#x328;" 
d="M-201 -255q0 149 164 262l88 -2q-140 -110 -140 -224q-1 -53 33 -84t84 -31t88 15v-96q-49 -20 -128 -20t-134 49t-55 131z" />
    <glyph glyph-name="circumflexbelowcmb" unicode="&#x32d;" 
d="M-55 -158h110l283 -295h-131l-206 217h-2l-206 -217h-131z" />
    <glyph glyph-name="brevebelowcmb" unicode="&#x32e;" 
d="M-292 -179h94q0 -81 56 -135t142 -54t142 54t56 135h94q0 -121 -82 -197t-210 -75q-128 -1 -210 75t-82 197z" />
    <glyph glyph-name="tildebelowcmb" unicode="&#x330;" 
d="M-205 -381h-91q0 109 44 171t122 63q46 -1 86 -25t64 -54q64 -78 111 -78q73 0 73 144h91q1 -106 -43 -170t-116 -64t-127 55q-23 23 -44 47q-50 56 -92 55q-78 0 -78 -144z" />
    <glyph glyph-name="macronbelowcmb" unicode="&#x331;" 
d="M305 -214v-85h-610v85h610z" />
    <glyph glyph-name="greekquestionmark" unicode="&#x37e;" horiz-adv-x="509" 
d="M199 -242h-103l84 434h142zM255 741q-39 -1 -67 27t-28 68t28 68t68 27q40 1 67 -27t27 -68t-28 -68t-67 -27z" />
    <glyph glyph-name="tonosgreek" unicode="&#x384;" horiz-adv-x="777" 
d="M258 1251l83 313h168l-140 -313h-111z" />
    <glyph glyph-name="dieresistonosgreek" unicode="&#x385;" horiz-adv-x="1072" 
d="M557 1251h-104l39 313h162zM781 1259q-37 0 -65 27t-28 65q0 37 28 65t65 28q38 0 65 -28t27 -65q0 -38 -27 -65t-65 -27zM291 1259q-37 -1 -65 27t-28 66t28 64q28 28 65 28t65 -28t28 -65q0 -38 -28 -65t-65 -27z" />
    <glyph glyph-name="Alphatonosgreek" unicode="&#x386;" horiz-adv-x="1261" 
d="M228 1122h-111l85 321h169zM628 1274l-259 -714h524l-259 714h-6zM1094 0l-160 442h-606l-160 -442h-145l540 1443h136l539 -1443h-144z" />
    <glyph glyph-name="anoteleia" unicode="&#x387;" horiz-adv-x="509" 
d="M255 894q-39 0 -67 28t-28 67t28 67t68 28t67 -27t27 -67t-28 -68t-67 -28z" />
    <glyph glyph-name="Epsilontonosgreek" unicode="&#x388;" horiz-adv-x="1390" 
d="M1301 124v-124h-871v1443h871v-124h-735v-519h698v-122h-698v-554h735zM165 1122h-111l85 321h169z" />
    <glyph glyph-name="Etatonosgreek" unicode="&#x389;" horiz-adv-x="1682" 
d="M1547 0h-137v677h-844v-677h-136v1443h136v-642h844v642h137v-1443zM165 1122h-111l85 321h169z" />
    <glyph glyph-name="Iotatonosgreek" unicode="&#x38a;" horiz-adv-x="701" 
d="M165 1122h-111l85 321h169zM566 0h-136v1443h136v-1443z" />
    <glyph glyph-name="Omicrontonosgreek" unicode="&#x38c;" horiz-adv-x="1625" 
d="M149 1122h-111l85 321h169zM892 1339q-237 0 -376 -167q-139 -166 -139 -450q-1 -284 139 -451t376 -167t376 167t140 451t-140 450q-140 167 -376 167zM892 1466q302 0 479 -201t177 -544t-177 -543t-479 -201q-302 1 -478 201t-177 543q0 343 177 544q176 201 478 201z
" />
    <glyph glyph-name="Upsilontonosgreek" unicode="&#x38e;" horiz-adv-x="1561" 
d="M1021 0h-137v624l-517 819h156l427 -685h5l427 685h156l-517 -819v-624zM152 1122h-111l85 321h169z" />
    <glyph glyph-name="Omegatonosgreek" unicode="&#x38f;" horiz-adv-x="1671" 
d="M149 1122h-111l85 321h169zM1426 784q0 251 -140 403t-376 152q-236 1 -375 -151q-140 -152 -140 -404q-1 -208 93 -361t292 -269v-154h-526v124h366v6q-177 106 -271 274t-94 376q0 206 82 360q81 154 231 240t343 86q291 0 473 -190t182 -489q0 -214 -94 -382
t-271 -275v-6h366v-124h-526v154q197 116 291 269t94 361z" />
    <glyph glyph-name="iotadieresistonosgreek" unicode="&#x390;" horiz-adv-x="541" 
d="M232 1251h-104l39 313h162zM456 1259q-38 0 -66 27t-27 65q-1 37 27 65t66 28t65 -28t27 -65q0 -38 -27 -65t-65 -27zM-34 1259q-38 -1 -66 27t-27 66q-1 38 27 64q28 28 66 28t66 -28t27 -65q1 -38 -27 -65t-66 -27zM400 -9q-152 0 -218 66t-67 216v804h131v-776
q0 -102 40 -148t130 -46q49 0 85 9l7 -115q-47 -10 -108 -10z" />
    <glyph glyph-name="Alphagreek" unicode="&#x391;" horiz-adv-x="1262" 
d="M628 1274l-259 -714h524l-259 714h-6zM1094 0l-160 442h-606l-160 -442h-145l540 1443h136l539 -1443h-144z" />
    <glyph glyph-name="Betagreek" unicode="&#x392;" horiz-adv-x="1217" 
d="M271 121h380q176 -1 271 73t95 209q1 135 -99 208t-286 73h-361v-563zM271 1322v-520h326q164 0 256 72t92 194t-82 188t-226 66h-366zM669 0h-534v1443h531q186 0 302 -98t115 -258q-1 -120 -75 -212t-189 -113v-7q152 -19 245 -115t93 -244q0 -184 -130 -290t-358 -106
z" />
    <glyph glyph-name="Gammagreek" unicode="&#x393;" horiz-adv-x="1032" 
d="M271 0h-136v1443h836v-124h-700v-1319z" />
    <glyph glyph-name="Deltagreek" unicode="&#x394;" horiz-adv-x="1283" 
d="M205 124h874v6l-435 1151h-5l-434 -1151v-6zM1233 0h-1183v97l524 1346h135l524 -1346v-97z" />
    <glyph glyph-name="Epsilongreek" unicode="&#x395;" horiz-adv-x="1095" 
d="M1006 124v-124h-871v1443h871v-124h-735v-519h698v-122h-698v-554h735z" />
    <glyph glyph-name="Zetagreek" unicode="&#x396;" horiz-adv-x="1224" 
d="M87 0v99l866 1214v6h-838v124h1011v-100l-864 -1213v-6h876v-124h-1051z" />
    <glyph glyph-name="Etagreek" unicode="&#x397;" horiz-adv-x="1387" 
d="M1252 0h-137v677h-844v-677h-136v1443h136v-642h844v642h137v-1443z" />
    <glyph glyph-name="Thetagreek" unicode="&#x398;" horiz-adv-x="1471" 
d="M736 1339q-240 -1 -380 -167t-139 -450q-1 -284 139 -452q140 -166 380 -166t380 166t139 452q1 284 -139 450t-380 167zM736 1466q305 0 482 -200t177 -544t-177 -544t-482 -201q-305 1 -482 201t-177 543t177 544t482 201zM1055 661h-638v124h638v-124z" />
    <glyph glyph-name="Iotagreek" unicode="&#x399;" horiz-adv-x="406" 
d="M271 0h-136v1443h136v-1443z" />
    <glyph glyph-name="Kappagreek" unicode="&#x39a;" horiz-adv-x="1209" 
d="M271 0h-136v1443h136v-748h8l686 748h173l-593 -638l652 -805h-175l-573 708l-178 -193v-515z" />
    <glyph glyph-name="Lambdagreek" unicode="&#x39b;" horiz-adv-x="1222" 
d="M1054 0l-440 1266h-6l-440 -1266h-145l520 1443h136l519 -1443h-144z" />
    <glyph glyph-name="Mugreek" unicode="&#x39c;" horiz-adv-x="1660" 
d="M1525 1443v-1443h-128v1184h-6l-502 -1177h-119l-501 1177h-6v-1184h-128v1443h157l535 -1263h6l534 1263h158z" />
    <glyph glyph-name="Nugreek" unicode="&#x39d;" horiz-adv-x="1393" 
d="M270 0h-135v1443h135l846 -1205h7v1205h135v-1443h-132l-849 1206h-7v-1206z" />
    <glyph glyph-name="Xigreek" unicode="&#x39e;" horiz-adv-x="1220" 
d="M89 126h1042v-126h-1042v126zM1054 676h-888v124h888v-124zM89 1443h1042v-126h-1042v126z" />
    <glyph glyph-name="Omicrongreek" unicode="&#x39f;" horiz-adv-x="1465" 
d="M732 1339q-237 0 -376 -167q-139 -166 -139 -450q-1 -284 139 -451t376 -167t376 167t140 451t-140 450q-140 167 -376 167zM732 1466q302 0 479 -201t177 -544t-177 -543t-479 -201q-302 1 -478 201t-177 543q0 343 177 544q176 201 478 201z" />
    <glyph glyph-name="Pigreek" unicode="&#x3a0;" horiz-adv-x="1367" 
d="M1232 0h-137v1319h-824v-1319h-136v1443h1097v-1443z" />
    <glyph glyph-name="Rhogreek" unicode="&#x3a1;" horiz-adv-x="1171" 
d="M271 1321v-655h344q167 0 261 87t94 241t-94 240t-261 87h-344zM135 1443h512q207 0 335 -124t128 -325q0 -202 -129 -326t-335 -124h-375v-544h-136v1443z" />
    <glyph glyph-name="Sigmagreek" unicode="&#x3a3;" horiz-adv-x="1197" 
d="M253 124h858v-124h-1024v99l440 631l-423 604v109h981v-124h-810v-6l400 -571v-6l-422 -606v-6z" />
    <glyph glyph-name="Taugreek" unicode="&#x3a4;" horiz-adv-x="1179" 
d="M658 0h-137v1319h-483v124h1103v-124h-483v-1319z" />
    <glyph glyph-name="Upsilongreek" unicode="&#x3a5;" horiz-adv-x="1219" 
d="M678 0h-137v624l-517 819h156l427 -685h5l427 685h156l-517 -819v-624z" />
    <glyph glyph-name="Phigreek" unicode="&#x3a6;" horiz-adv-x="1576" 
d="M856 -58h-137v136q-307 10 -485 182t-177 460q-1 288 177 460t485 182v133h137v-133q307 -10 485 -182t178 -460t-178 -460t-485 -182v-136zM196 720q0 -238 139 -376t384 -143v1038q-245 -5 -384 -143t-139 -376zM1379 720q0 238 -139 376t-384 143v-1038q245 5 384 143
t139 376z" />
    <glyph glyph-name="Chigreek" unicode="&#x3a7;" horiz-adv-x="1263" 
d="M44 0l502 722v5l-498 716h165l421 -613h5l424 613h157l-507 -722v-4l499 -717h-164l-419 610h-5l-425 -610h-155z" />
    <glyph glyph-name="Psigreek" unicode="&#x3a8;" horiz-adv-x="1492" 
d="M814 0h-137v345q-268 1 -422 151t-154 408v539h137v-535q0 -210 113 -322t326 -115v972h137v-972q212 3 326 115t114 322v535h137v-539q0 -259 -155 -409t-422 -150v-345z" />
    <glyph glyph-name="Omegagreek" unicode="&#x3a9;" horiz-adv-x="1521" 
d="M1276 784q0 251 -140 403t-376 152q-236 1 -375 -151q-140 -152 -140 -404q-1 -208 93 -361t292 -269v-154h-526v124h366v6q-177 106 -271 274t-94 376q0 206 82 360q81 154 231 240t343 86q291 0 473 -190t182 -489q0 -214 -94 -382t-271 -275v-6h366v-124h-526v154
q197 116 291 269t94 361z" />
    <glyph glyph-name="Iotadieresisgreek" unicode="&#x3aa;" horiz-adv-x="422" 
d="M397 1576q-37 0 -65 27t-28 65t28 66t65 27q37 1 65 -27t28 -66t-28 -65t-65 -27zM41 1576q-37 0 -65 28t-28 64q0 38 28 66t65 27q37 1 65 -27t28 -66t-28 -65t-65 -27zM287 0h-136v1443h136v-1443z" />
    <glyph glyph-name="Upsilondieresisgreek" unicode="&#x3ab;" horiz-adv-x="1239" 
d="M807 1576q-37 0 -65 27t-28 65t28 66t65 27q37 1 65 -27t28 -66t-28 -65t-65 -27zM451 1576q-37 0 -65 28t-28 64q0 38 28 66t65 27q37 1 65 -27t28 -66t-28 -65t-65 -27zM698 0h-137v624l-517 819h156l427 -685h5l427 685h156l-517 -819v-624z" />
    <glyph glyph-name="alphatonosgreek" unicode="&#x3ac;" horiz-adv-x="1222" 
d="M487 1251l83 313h168l-140 -313h-111zM1009 254q0 -142 89 -142q42 0 71 9l8 -114q-35 -10 -88 -10q-193 0 -213 181l-1 45h-2q-39 -100 -139 -167t-214 -67q-202 0 -328 153q-126 154 -127 398q1 244 127 397t328 153q116 0 216 -64t144 -171h3v223h126v-824zM532 108
q152 0 248 120t96 311q0 189 -98 311t-245 122q-149 0 -241 -120t-92 -314t90 -312t242 -118z" />
    <glyph glyph-name="epsilontonosgreek" unicode="&#x3ad;" horiz-adv-x="1054" 
d="M506 -12q-198 0 -311 82t-113 219q0 95 55 161t154 92v3q-89 23 -139 85t-50 153q0 137 117 221t312 85q195 0 312 -92t134 -252h-132q-33 226 -319 226q-136 0 -216 -51q-80 -52 -80 -138t70 -132t199 -45h151v-115h-152q-131 0 -206 -51t-75 -142t76 -141t219 -49
q144 -1 234 57t114 162h133q-26 -154 -158 -246q-131 -92 -329 -92zM472 1251l83 313h168l-140 -313h-111z" />
    <glyph glyph-name="etatonosgreek" unicode="&#x3ae;" horiz-adv-x="1232" 
d="M472 1251l83 313h168l-140 -313h-111zM250 824q0 142 -98 142q-46 0 -71 -8v114q51 10 94 10q164 0 193 -158q2 -4 4 -24t3 -24h3q48 103 140 158t217 55q176 0 280 -107t104 -288v-1065h-132v1030q1 147 -75 229t-215 83q-139 0 -227 -94t-88 -246v-631h-132v824z" />
    <glyph glyph-name="iotatonosgreek" unicode="&#x3af;" horiz-adv-x="541" 
d="M129 1251l83 313h168l-140 -313h-111zM400 -9q-152 0 -218 66t-67 216v804h131v-776q0 -102 40 -148t130 -46q49 0 85 9l7 -115q-47 -10 -108 -10z" />
    <glyph glyph-name="upsilondieresistonosgreek" unicode="&#x3b0;" horiz-adv-x="1082" 
d="M854 558q0 293 -86 519h132q40 -98 65 -236t25 -267q0 -274 -121 -430t-329 -156t-317 113q-110 113 -110 319v657h131v-650q0 -319 287 -319q159 0 241 118t82 332zM533 1251h-104l39 313h162zM757 1259q-37 0 -65 27t-28 65q0 37 28 65t65 28q38 0 65 -28t27 -65
q0 -38 -27 -65t-65 -27zM267 1259q-37 -1 -65 27t-28 66t28 64q28 28 65 28t65 -28t28 -65q0 -38 -28 -65t-65 -27z" />
    <glyph glyph-name="alphagreek" unicode="&#x3b1;" horiz-adv-x="1222" 
d="M1009 253q0 -142 89 -142q42 0 71 9l8 -114q-35 -10 -88 -10q-193 0 -213 181l-1 45h-2q-39 -100 -139 -167t-214 -67q-202 0 -328 153t-127 397q1 244 127 398q126 153 328 153q116 -1 216 -65t144 -170h3v223h126v-824zM532 107q152 1 248 121t96 310t-98 312t-245 121
q-149 -1 -241 -121t-92 -313t90 -311t242 -119z" />
    <glyph glyph-name="betagreek" unicode="&#x3b2;" horiz-adv-x="1157" 
d="M752 823q340 -70 340 -414q0 -177 -124 -299t-319 -122q-140 0 -245 62t-150 172h-3v-593h-132v1396q-1 237 117 365t324 128t318 -100t113 -270q-1 -114 -63 -200t-176 -123v-2zM457 756v115h107q140 0 218 71t78 193t-78 193t-207 71q-325 0 -325 -387v-471
q0 -201 102 -317t265 -117t251 87t88 238t-104 238q-104 86 -294 86h-101z" />
    <glyph glyph-name="gammagreek" unicode="&#x3b3;" horiz-adv-x="1054" 
d="M959 894q0 -221 -98 -428q-98 -206 -306 -487v-330h-131v332l-380 1096h140l318 -964h4q172 239 250 421t78 378q0 79 -11 165h126q10 -81 10 -183z" />
    <glyph glyph-name="deltagreek" unicode="&#x3b4;" horiz-adv-x="1092" 
d="M545 104q157 0 253 106t97 294q0 188 -100 292t-255 104q-156 0 -250 -110t-94 -290t96 -288t253 -108zM546 -12q-216 0 -350 140t-134 362t116 354t305 146v3q-130 55 -189 121t-59 147q1 121 97 189t276 68t315 -71l-7 -117q-168 72 -302 72q-248 0 -248 -140
q0 -60 53 -104t234 -128t279 -212t97 -338q1 -210 -133 -352q-134 -140 -350 -140z" />
    <glyph glyph-name="epsilongreek" unicode="&#x3b5;" horiz-adv-x="1054" 
d="M506 -12q-198 0 -311 82t-113 219q0 95 55 161t154 92v3q-89 23 -139 85t-50 153q0 137 117 221t312 85q195 0 312 -92t134 -252h-132q-33 226 -319 226q-136 0 -216 -51q-80 -52 -80 -138t70 -132t199 -45h151v-115h-152q-131 0 -206 -51t-75 -142t76 -141t219 -49
q144 -1 234 57t114 162h133q-26 -154 -158 -246q-131 -92 -329 -92z" />
    <glyph glyph-name="zetagreek" unicode="&#x3b6;" horiz-adv-x="869" 
d="M746 -180q0 78 -48 124t-185 92q-248 82 -348 199t-100 332q-1 215 159 436t426 380v4h-500v119h704v-118q-314 -178 -484 -389t-170 -438q0 -162 77 -248q77 -85 271 -153t260 -136t67 -177q0 -108 -69 -218l-112 24q52 89 52 167z" />
    <glyph glyph-name="etagreek" unicode="&#x3b7;" horiz-adv-x="1232" 
d="M250 824q0 142 -98 142q-46 0 -71 -8v114q51 10 94 10q164 0 193 -158q2 -4 4 -24t3 -24h3q48 103 140 158t217 55q176 0 280 -107t104 -288v-1065h-132v1030q1 147 -75 229t-215 83q-139 0 -227 -94t-88 -246v-631h-132v824z" />
    <glyph glyph-name="thetagreek" unicode="&#x3b8;" horiz-adv-x="1157" 
d="M579 1399q-338 0 -353 -576h706q-6 286 -96 431t-257 145zM225 705q10 -598 354 -598t354 598h-708zM578 -12q-240 0 -364 196t-124 570t126 569t363 195q238 0 363 -196t125 -569t-125 -569q-124 -196 -364 -196z" />
    <glyph glyph-name="iotagreek" unicode="&#x3b9;" horiz-adv-x="541" 
d="M400 -9q-152 0 -218 66t-67 216v804h131v-776q0 -102 40 -148t130 -46q49 0 85 9l7 -115q-47 -10 -108 -10z" />
    <glyph glyph-name="kappagreek" unicode="&#x3ba;" horiz-adv-x="1092" 
d="M119 0v1077h131v-625h2l406 472q78 92 133 125t117 33t98 -10v-114q-22 8 -71 8t-88 -26t-104 -102l-156 -182l448 -656h-150l-380 562l-255 -283v-279h-131z" />
    <glyph glyph-name="lambdagreek" unicode="&#x3bb;" horiz-adv-x="1107" 
d="M224 1401q-58 0 -87 -9v115q47 11 88 11q119 0 182 -58t121 -224l357 -1018q22 -62 50 -84q27 -22 69 -23q42 0 69 9l9 -114q-40 -10 -110 -10t-119 40t-89 154l-234 677h-2l-352 -867h-136l431 1027l-63 173q-46 124 -86 162t-98 39z" />
    <glyph glyph-name="mugreek" unicode="&#x3bc;" horiz-adv-x="1214" 
d="M988 252q0 -141 91 -141q43 0 70 9l8 -114q-31 -10 -91 -10q-174 0 -201 166q-5 15 -5 46h-2q-46 -102 -134 -161t-192 -59q-102 0 -176 45t-103 121h-2v-525h-132v1448h132v-665q-1 -144 73 -224t214 -80t229 92t89 245v632h132v-825z" />
    <glyph glyph-name="nugreek" unicode="&#x3bd;" horiz-adv-x="1040" 
d="M816 912q0 72 -12 165h131q10 -71 10 -165q0 -234 -84 -436t-291 -476h-153l-373 1077h140l318 -964h4q166 229 238 413t72 386z" />
    <glyph glyph-name="xigreek" unicode="&#x3be;" horiz-adv-x="906" 
d="M746 -180q0 80 -52 126t-206 98q-155 52 -252 114t-134 131q-37 68 -37 161q0 136 85 229t240 120v2q-134 43 -198 113t-63 182q-1 112 71 185q72 74 203 104v2h-272v119h711v-106l-107 -11q-243 -23 -363 -95t-120 -200q0 -225 396 -225h120v-119h-121q-447 0 -447 -287
q0 -104 76 -170q76 -67 269 -133q192 -66 261 -134t69 -178t-69 -219l-112 24q52 87 52 167z" />
    <glyph glyph-name="omicrongreek" unicode="&#x3bf;" horiz-adv-x="1099" 
d="M549 107q162 1 256 115t94 315t-95 317t-255 117q-161 -1 -255 -117t-94 -317t94 -315t255 -115zM549 -12q-219 0 -351 150t-133 402t131 400q132 149 354 149t352 -149q132 -148 132 -400t-133 -402t-352 -150z" />
    <glyph glyph-name="pigreek" unicode="&#x3c0;" horiz-adv-x="1323" 
d="M1024 247q0 -136 102 -136q29 0 59 9l8 -114q-39 -10 -89 -10q-108 0 -158 56t-49 182v728h-502v-962h-128v962h-199v115h1173v-115h-217v-715z" />
    <glyph glyph-name="rhogreek" unicode="&#x3c1;" horiz-adv-x="1113" 
d="M88 -371v910q0 252 130 401t346 149t350 -150q134 -151 134 -399t-126 -400t-336 -152q-122 0 -222 64t-141 170h-3v-593h-132zM565 107q159 0 253 119q94 120 94 318t-94 312t-254 115q-160 0 -252 -114t-92 -312t94 -318t251 -120z" />
    <glyph glyph-name="sigmafinalgreek" unicode="&#x3c2;" horiz-adv-x="1034" 
d="M746 -180q0 78 -48 124t-185 92q-248 82 -348 200t-100 340q1 223 129 368t329 145q201 -1 316 -93t142 -257h-133q-22 108 -102 170t-201 62q-161 -1 -253 -113t-92 -286t77 -260t271 -153t260 -135t67 -177q0 -108 -69 -218l-112 24q52 89 52 167z" />
    <glyph glyph-name="sigmagreek" unicode="&#x3c3;" horiz-adv-x="1236" 
d="M546 108q158 0 256 116q96 116 96 312t-89 308q-89 114 -251 114t-260 -116t-98 -310t94 -310q94 -114 252 -114zM546 -11q-216 -1 -348 149t-133 398q1 248 141 394q140 147 381 147h580v-115h-342v-3q93 -55 147 -168t54 -254q0 -246 -132 -397t-348 -151z" />
    <glyph glyph-name="taugreek" unicode="&#x3c4;" horiz-adv-x="1012" 
d="M545 302q0 -195 162 -195q77 0 112 9l8 -115q-47 -10 -118 -10q-159 0 -227 65t-68 216v690h-354v115h899v-115h-414v-660z" />
    <glyph glyph-name="upsilongreek" unicode="&#x3c5;" horiz-adv-x="1082" 
d="M854 558q0 293 -86 519h132q40 -98 65 -236t25 -267q0 -274 -121 -430t-329 -156t-317 113q-110 113 -110 319v657h131v-650q0 -319 287 -319q159 0 241 118t82 332z" />
    <glyph glyph-name="phigreek" unicode="&#x3c6;" horiz-adv-x="1406" 
d="M191 540q0 -192 122 -311t327 -128v876q-209 -5 -329 -125t-120 -312zM1215 540q0 192 -120 312t-328 125v-876q205 9 327 128t121 311zM640 -371v360q-266 9 -424 159t-158 393t156 393t426 155v288h127v-288q269 -5 425 -155t156 -393t-158 -393t-423 -159v-360h-127z
" />
    <glyph glyph-name="chigreek" unicode="&#x3c7;" horiz-adv-x="1143" 
d="M132 966q-47 0 -71 -8v114q49 10 113 10t114 -37t102 -143l216 -434h2l324 609h141l-406 -731l242 -485q35 -71 66 -96t73 -25t69 9l9 -114q-32 -10 -104 -10q-72 1 -120 35t-97 136l-219 435h-2l-321 -602h-141l404 723l-248 499q-35 69 -67 92t-79 23z" />
    <glyph glyph-name="psigreek" unicode="&#x3c8;" horiz-adv-x="1366" 
d="M612 -371v359q-236 2 -368 115t-131 317v657h131v-644q0 -153 93 -239t275 -86v1269h127v-1269q206 2 303 124t97 312t-22 302q-22 114 -74 231h136q43 -90 69 -226q26 -135 26 -267q0 -265 -134 -430q-134 -164 -401 -166v-359h-127z" />
    <glyph glyph-name="omegagreek" unicode="&#x3c9;" horiz-adv-x="1512" 
d="M1049 107q236 0 236 397q0 322 -172 573h146q71 -103 116 -263t45 -311q0 -249 -94 -383t-268 -133q-109 1 -186 63t-114 181h-5q-37 -119 -114 -181t-186 -63q-175 -1 -268 133t-93 383q0 151 44 311t117 263h145q-171 -250 -171 -573q0 -397 236 -397q105 0 166 85
t61 232v334h131v-334q0 -147 61 -232t167 -85z" />
    <glyph glyph-name="iotadieresisgreek" unicode="&#x3ca;" horiz-adv-x="541" 
d="M400 -9q-152 0 -218 66t-67 216v804h131v-776q0 -102 40 -148t130 -46q49 0 85 9l7 -115q-47 -10 -108 -10zM371 1259q-37 0 -65 27t-28 65q0 37 28 65t65 28t65 -28t28 -65q0 -38 -28 -65t-65 -27zM15 1259q-37 -1 -65 27t-28 66t28 64q28 28 65 28t65 -28t28 -65
q0 -38 -28 -65t-65 -27z" />
    <glyph glyph-name="upsilondieresisgreek" unicode="&#x3cb;" horiz-adv-x="1082" 
d="M854 558q0 293 -86 519h132q40 -98 65 -236t25 -267q0 -274 -121 -430t-329 -156t-317 113q-110 113 -110 319v657h131v-650q0 -319 287 -319q159 0 241 118t82 332zM694 1259q-38 0 -66 27t-27 65q-1 37 27 65t66 28t66 -28t27 -65q1 -38 -27 -65t-66 -27zM338 1259
q-38 -1 -66 27t-27 66q-1 38 27 64q28 28 66 28t66 -28t27 -65q1 -38 -27 -65t-66 -27z" />
    <glyph glyph-name="omicrontonosgreek" unicode="&#x3cc;" horiz-adv-x="1099" 
d="M497 1251l83 313h168l-140 -313h-111zM549 107q162 1 256 115t94 315t-95 317t-255 117q-161 -1 -255 -117t-94 -317t94 -315t255 -115zM549 -12q-219 0 -351 150t-133 402t131 400q132 149 354 149t352 -149q132 -148 132 -400t-133 -402t-352 -150z" />
    <glyph glyph-name="upsilontonosgreek" unicode="&#x3cd;" horiz-adv-x="1082" 
d="M854 558q0 293 -86 519h132q40 -98 65 -236t25 -267q0 -274 -121 -430t-329 -156t-317 113q-110 113 -110 319v657h131v-650q0 -319 287 -319q159 0 241 118t82 332zM441 1251l83 313h168l-140 -313h-111z" />
    <glyph glyph-name="omegatonosgreek" unicode="&#x3ce;" horiz-adv-x="1512" 
d="M702 1251l83 313h168l-140 -313h-111zM1049 107q236 0 236 397q0 322 -172 573h146q71 -103 116 -263t45 -311q0 -249 -94 -383t-268 -133q-109 1 -186 63t-114 181h-5q-37 -119 -114 -181t-186 -63q-175 -1 -268 133t-93 383q0 151 44 311t117 263h145
q-171 -250 -171 -573q0 -397 236 -397q105 0 166 85t61 232v334h131v-334q0 -147 61 -232t167 -85z" />
    <glyph glyph-name="Iocyrillic" unicode="&#x401;" horiz-adv-x="1115" 
d="M1016 124v-124h-871v1443h871v-124h-735v-519h698v-122h-698v-554h735zM758 1576q-38 0 -66 27t-27 65q-1 38 27 66t66 27q38 1 66 -27t27 -66q1 -38 -27 -65t-66 -27zM402 1576q-38 0 -66 28t-27 64q-1 38 27 66t66 27q38 1 66 -27t27 -66q1 -38 -27 -65t-66 -27z" />
    <glyph glyph-name="Djecyrillic" unicode="&#x402;" horiz-adv-x="1626" 
d="M1038 890q222 0 350 -126t127 -329q0 -205 -115 -327t-305 -122q-78 0 -121 15v123q37 -13 119 -13q132 0 209 87q77 86 77 236t-92 241t-246 91q-115 0 -219 -56t-155 -142v-568h-136v1319h-483v124h1103v-124h-484v-578h7q142 149 364 149z" />
    <glyph glyph-name="Gjecyrillic" unicode="&#x403;" horiz-adv-x="1051" 
d="M282 0h-137v1443h842v-125h-705v-1318zM615 1551h-117l252 295h154z" />
    <glyph glyph-name="Ecyrillic" unicode="&#x404;" horiz-adv-x="1388" 
d="M730 -23q-295 1 -469 203t-174 543q1 341 175 542t468 201q226 0 388 -130t195 -334h-139q-32 149 -156 243t-288 94q-214 0 -350 -145t-150 -393h684v-124h-686q6 -263 144 -418t359 -155q169 0 289 82t153 225h139q-41 -203 -196 -319t-386 -115z" />
    <glyph glyph-name="Dzecyrillic" unicode="&#x405;" horiz-adv-x="1201" 
d="M612 101q166 0 270 79q104 78 104 190t-73 176t-234 104l-179 46q-202 51 -294 140t-92 231q0 175 140 287t352 112t352 -112t145 -283h-137q-10 123 -109 197t-251 74t-252 -76q-98 -76 -98 -181q0 -107 71 -165t231 -99l156 -40q218 -55 315 -145t97 -240
q0 -190 -142 -304t-374 -115q-232 1 -379 115q-146 114 -157 300h137q11 -130 123 -210t278 -81z" />
    <glyph glyph-name="Icyrillic" unicode="&#x406;" horiz-adv-x="426" 
d="M281 0h-136v1443h136v-1443z" />
    <glyph glyph-name="Yicyrillic" unicode="&#x407;" horiz-adv-x="426" 
d="M391 1576q-37 0 -65 27t-28 65t28 66t65 27q37 1 65 -27t28 -66t-28 -65t-65 -27zM35 1576q-37 0 -65 28t-28 64q0 38 28 66t65 27q37 1 65 -27t28 -66t-28 -65t-65 -27zM281 0h-136v1443h136v-1443z" />
    <glyph glyph-name="Jecyrillic" unicode="&#x408;" horiz-adv-x="1007" 
d="M459 97q123 0 195 78t72 222v1046h136v-1048q0 -199 -110 -312t-292 -113q-184 0 -296 101t-112 260h135q5 -104 77 -169t195 -65z" />
    <glyph glyph-name="Ljecyrillic" unicode="&#x409;" horiz-adv-x="2115" 
d="M1199 124h336q167 0 261 84t95 234q-1 150 -95 235t-261 85h-336v-638zM130 -9q-60 0 -91 10v123q19 -7 60 -7t76 20q66 38 94 132t39 248l54 926h837v-558h367q208 -1 336 -123t128 -320t-128 -320t-334 -122h-506v1319h-574l-50 -809q-22 -388 -186 -483
q-62 -36 -122 -36z" />
    <glyph glyph-name="Njecyrillic" unicode="&#x40a;" horiz-adv-x="2130" 
d="M281 677v-677h-136v1443h136v-642h811v642h136v-642h368q208 -1 336 -109t128 -287t-128 -292t-335 -113h-505v677h-811zM1228 124h337q167 0 261 76t94 205q0 130 -94 201t-261 71h-337v-553z" />
    <glyph glyph-name="Tshecyrillic" unicode="&#x40b;" horiz-adv-x="1646" 
d="M1034 766q-112 0 -214 -56t-153 -142v-568h-136v1319h-483v124h1103v-124h-484v-576h7q68 71 166 109t207 38q213 0 339 -132t126 -355v-403h-137v392q-1 174 -91 274t-250 100z" />
    <glyph glyph-name="Kjecyrillic" unicode="&#x40c;" horiz-adv-x="1223" 
d="M281 708v-708h-136v1443h136v-671h7l677 671h175l-708 -693l771 -750h-190l-725 708h-7zM927 1846l-289 -295h-117l252 295h154z" />
    <glyph glyph-name="Ushortcyrillic" unicode="&#x40e;" horiz-adv-x="1185" 
d="M280 -10q-49 0 -75 12v124q31 -9 75 -9q84 -1 144 51t111 156l-501 1119h147l422 -965h7l405 965h143l-453 -1044q-96 -223 -188 -316t-237 -93zM314 1823h98q0 -84 55 -138t140 -54t140 54t55 138h98q0 -122 -82 -197t-211 -75t-211 75t-82 197z" />
    <glyph glyph-name="Dzhecyrillic" unicode="&#x40f;" horiz-adv-x="1389" 
d="M631 0h-486v1443h136v-1319h827v1319h136v-1443h-486v-285h-127v285z" />
    <glyph glyph-name="Acyrillic" unicode="&#x410;" horiz-adv-x="1282" 
d="M638 1274l-259 -714h524l-259 714h-6zM1104 0l-160 442h-606l-160 -442h-145l540 1443h136l539 -1443h-144z" />
    <glyph glyph-name="Becyrillic" unicode="&#x411;" horiz-adv-x="1211" 
d="M281 124h333q167 0 261 80t94 221q0 143 -94 223t-261 80h-333v-604zM1109 425q0 -189 -128 -307t-335 -118h-501v1443h829v-124h-693v-467h364q206 0 335 -118t129 -309z" />
    <glyph glyph-name="Vecyrillic" unicode="&#x412;" horiz-adv-x="1237" 
d="M281 121h380q176 -1 271 73t95 209q1 135 -99 208t-286 73h-361v-563zM281 1322v-520h326q164 0 256 72t92 194t-82 188t-226 66h-366zM679 0h-534v1443h531q186 0 302 -98t115 -258q-1 -120 -75 -212t-189 -113v-7q152 -19 245 -115t93 -244q0 -184 -130 -290t-358 -106
z" />
    <glyph glyph-name="Gecyrillic" unicode="&#x413;" horiz-adv-x="1051" 
d="M282 0h-137v1443h842v-125h-705v-1318z" />
    <glyph glyph-name="Decyrillic" unicode="&#x414;" horiz-adv-x="1434" 
d="M151 0v-285h-127v409h102q75 39 111 135t45 249l57 935h867v-1319h183v-409h-128v285h-1110zM303 124h766v1195h-607l-50 -816q-8 -139 -32 -227t-77 -145v-7z" />
    <glyph glyph-name="Iecyrillic" unicode="&#x415;" horiz-adv-x="1115" 
d="M1016 124v-124h-871v1443h871v-124h-735v-519h698v-122h-698v-554h735z" />
    <glyph glyph-name="Zhecyrillic" unicode="&#x416;" horiz-adv-x="1897" 
d="M1015 708v-708h-137v708h-6l-673 -708h-179l709 748l-654 695h176l621 -671h6v671h137v-671h7l622 671h171l-653 -693l715 -750h-186l-669 708h-7z" />
    <glyph glyph-name="Zecyrillic" unicode="&#x417;" horiz-adv-x="1158" 
d="M380 681v122h185q152 0 245 78q93 77 93 199t-87 196q-88 74 -232 75q-144 0 -234 -73t-105 -195h-133q15 178 143 284t330 106q202 1 329 -107t127 -272q1 -124 -77 -216t-207 -122v-7q155 -17 243 -113t88 -260t-144 -286q-144 -120 -361 -120q-218 0 -360 112
t-152 287h132q11 -121 117 -199t266 -77q160 0 261 84q101 85 101 219t-98 210t-279 75h-191z" />
    <glyph glyph-name="Iicyrillic" unicode="&#x418;" horiz-adv-x="1413" 
d="M1133 0v1218h-12l-841 -1218h-135v1443h135v-1221h12l841 1221h135v-1443h-135z" />
    <glyph glyph-name="Iishortcyrillic" unicode="&#x419;" horiz-adv-x="1413" 
d="M1133 0v1218h-12l-841 -1218h-135v1443h135v-1221h12l841 1221h135v-1443h-135zM413 1823h98q0 -84 55 -138t140 -54t140 54t55 138h98q1 -122 -81 -197t-212 -75t-212 75t-81 197z" />
    <glyph glyph-name="Kacyrillic" unicode="&#x41a;" horiz-adv-x="1231" 
d="M281 708v-708h-136v1443h136v-671h7l677 671h175l-708 -693l771 -750h-190l-725 708h-7z" />
    <glyph glyph-name="Elcyrillic" unicode="&#x41b;" horiz-adv-x="1347" 
d="M1202 0h-137v1319h-577l-50 -809q-16 -262 -94 -390t-240 -129q-32 0 -65 10v123q19 -7 54 -7q103 -1 153 97t62 303l54 926h840v-1443z" />
    <glyph glyph-name="Emcyrillic" unicode="&#x41c;" horiz-adv-x="1680" 
d="M1535 1443v-1443h-128v1184h-6l-502 -1177h-119l-501 1177h-6v-1184h-128v1443h157l535 -1263h6l534 1263h158z" />
    <glyph glyph-name="Encyrillic" unicode="&#x41d;" horiz-adv-x="1407" 
d="M1262 0h-137v677h-844v-677h-136v1443h136v-642h844v642h137v-1443z" />
    <glyph glyph-name="Ocyrillic" unicode="&#x41e;" horiz-adv-x="1485" 
d="M742 1339q-237 0 -376 -167q-139 -166 -139 -450q-1 -284 139 -451t376 -167t376 167t140 451t-140 450q-140 167 -376 167zM742 1466q302 0 479 -201t177 -544t-177 -543t-479 -201q-302 1 -478 201t-177 543q0 343 177 544q176 201 478 201z" />
    <glyph glyph-name="Pecyrillic" unicode="&#x41f;" horiz-adv-x="1389" 
d="M1244 0h-135v1318h-827v-1318h-137v1443h1099v-1443z" />
    <glyph glyph-name="Ercyrillic" unicode="&#x420;" horiz-adv-x="1190" 
d="M281 1321v-655h344q167 0 261 87t94 241t-94 240t-261 87h-344zM145 1443h512q207 0 335 -124t128 -325q0 -202 -129 -326t-335 -124h-375v-544h-136v1443z" />
    <glyph glyph-name="Escyrillic" unicode="&#x421;" horiz-adv-x="1388" 
d="M730 -23q-295 1 -469 203t-174 543q1 341 175 542t468 201q226 0 388 -130t195 -334h-139q-32 149 -156 243t-288 94q-230 -1 -366 -167t-137 -449q1 -283 137 -451t367 -168q169 0 289 82t153 225h139q-41 -203 -196 -319t-386 -115z" />
    <glyph glyph-name="Tecyrillic" unicode="&#x422;" horiz-adv-x="1199" 
d="M668 0h-137v1319h-483v124h1103v-124h-483v-1319z" />
    <glyph glyph-name="Ucyrillic" unicode="&#x423;" horiz-adv-x="1185" 
d="M280 -10q-49 0 -75 12v124q31 -9 75 -9q84 -1 144 51t111 156l-501 1119h147l422 -965h7l405 965h143l-453 -1044q-96 -223 -188 -316t-237 -93z" />
    <glyph glyph-name="Efcyrillic" unicode="&#x424;" horiz-adv-x="1581" 
d="M78 725q0 266 174 424t472 164v147h135v-147q297 -4 471 -163t174 -425q0 -267 -174 -425t-471 -163v-154h-135v154q-298 4 -472 163t-174 425zM1366 725q0 209 -137 335t-370 130v-930q233 4 370 130t137 335zM216 724q0 -210 137 -334q137 -125 371 -130v930
q-234 -4 -371 -130t-137 -336z" />
    <glyph glyph-name="Xacyrillic" unicode="&#x425;" horiz-adv-x="1283" 
d="M54 0l502 722v5l-498 716h165l421 -613h5l424 613h157l-507 -722v-4l499 -717h-164l-419 610h-5l-425 -610h-155z" />
    <glyph glyph-name="Tsecyrillic" unicode="&#x426;" horiz-adv-x="1470" 
d="M1425 -285h-128v285h-1152v1443h136v-1319h824v1319h137v-1319h183v-409z" />
    <glyph glyph-name="Checyrillic" unicode="&#x427;" horiz-adv-x="1306" 
d="M1162 0h-137v707h-6q-67 -69 -168 -111t-226 -43q-227 -1 -367 139t-140 369v382h137v-372q0 -179 101 -285q102 -106 256 -106t263 61t150 144v558h137v-1443z" />
    <glyph glyph-name="Shacyrillic" unicode="&#x428;" horiz-adv-x="1835" 
d="M145 0v1443h136v-1319h568v1319h137v-1319h568v1319h136v-1443h-1545z" />
    <glyph glyph-name="Shchacyrillic" unicode="&#x429;" horiz-adv-x="1918" 
d="M1873 -285h-127v285h-1601v1443h136v-1319h568v1319h137v-1319h568v1319h136v-1319h183v-409z" />
    <glyph glyph-name="Hardsigncyrillic" unicode="&#x42a;" horiz-adv-x="1453" 
d="M551 124h337q167 0 261 84t94 234q-1 150 -95 235t-260 85h-337v-638zM920 0h-505v1319h-340v124h476v-558h368q207 -1 335 -123t129 -320q-1 -198 -129 -320t-334 -122z" />
    <glyph glyph-name="Yericyrillic" unicode="&#x42b;" horiz-adv-x="1601" 
d="M281 124h337q167 0 261 84t94 234q-1 150 -95 235t-260 85h-337v-638zM145 0v1443h136v-558h368q207 -1 335 -123t129 -320q0 -198 -128 -320t-335 -122h-505zM1456 0h-136v1443h136v-1443z" />
    <glyph glyph-name="Softsigncyrillic" unicode="&#x42c;" horiz-adv-x="1184" 
d="M281 124h337q167 0 261 84t94 234q-1 150 -95 235t-260 85h-337v-638zM145 0v1443h136v-558h368q207 -1 335 -123t129 -320q0 -198 -128 -320t-335 -122h-505z" />
    <glyph glyph-name="Ereversedcyrillic" unicode="&#x42d;" horiz-adv-x="1392" 
d="M668 -23q-234 0 -392 115t-201 319h140q35 -141 158 -224t294 -83q221 0 355 155t142 418h-683v124h680q-13 247 -147 393t-346 145q-165 -1 -292 -95t-161 -242h-140q34 204 200 334t393 130q293 0 465 -202t172 -544t-171 -542t-466 -201z" />
    <glyph glyph-name="IUcyrillic" unicode="&#x42e;" horiz-adv-x="1932" 
d="M1206 1346q-230 0 -366 -168t-135 -456q1 -286 135 -456t365 -169q231 -1 365 169t135 456q0 286 -134 456q-135 168 -365 168zM1210 -30q-292 0 -462 190t-181 517h-286v-677h-136v1443h136v-642h287q20 313 190 493t457 179q287 0 459 -202t171 -549q0 -348 -171 -550
q-172 -202 -464 -202z" />
    <glyph glyph-name="IAcyrillic" unicode="&#x42f;" horiz-adv-x="1231" 
d="M113 1027q-1 178 127 297t335 119h511v-1443h-136v579h-335l-406 -579h-162l418 596q-160 31 -256 142t-96 289zM950 703v616h-342q-168 -1 -262 -81t-94 -226t94 -228t262 -81h342z" />
    <glyph glyph-name="acyrillic" unicode="&#x430;" horiz-adv-x="1061" 
d="M428 -12q-142 0 -242 86t-100 226q0 138 101 216t295 93l331 22v92q1 118 -71 183t-194 65q-122 -1 -195 -55q-74 -54 -92 -150h-127q8 142 122 232t292 91q178 0 288 -96t109 -259v-734h-126v206h-3q-44 -98 -144 -158q-102 -60 -244 -60zM490 104q128 0 226 86t97 215
v119l-315 -22q-277 -18 -277 -203q0 -87 70 -141q71 -54 199 -54z" />
    <glyph glyph-name="becyrillic" unicode="&#x431;" horiz-adv-x="1147" 
d="M579 99q167 0 263 115t95 313q1 198 -95 308t-263 110t-262 -110t-95 -308t95 -313t262 -115zM597 1063q217 -1 346 -145t129 -392t-133 -397q-133 -148 -367 -148t-359 163q-126 163 -126 473q0 471 127 671t438 207q242 0 349 54v-116q-56 -43 -229 -54q-46 -5 -140 -7
t-173 -30q-79 -30 -131 -97t-82 -164q-28 -97 -45 -246h6q51 110 153 169t237 59z" />
    <glyph glyph-name="vecyrillic" unicode="&#x432;" horiz-adv-x="1017" 
d="M129 0v1077h435q150 -1 237 -73t87 -197q0 -89 -53 -156t-135 -84v-6q106 -12 173 -81t67 -174q0 -144 -99 -225t-273 -81h-439zM565 111q245 -1 245 195t-271 196h-279v-391h305zM549 966h-289v-353h269q111 0 170 47t59 132q0 86 -54 130t-155 44z" />
    <glyph glyph-name="gecyrillic" unicode="&#x433;" horiz-adv-x="876" 
d="M812 966h-552v-966h-131v1077h683v-111z" />
    <glyph glyph-name="decyrillic" unicode="&#x434;" horiz-adv-x="1207" 
d="M146 -285h-124v396h87q108 70 131 357q33 422 42 609h718v-966h174v-396h-124v285h-904v-285zM868 111v855h-468q-9 -202 -33 -479q-25 -277 -101 -370v-6h602z" />
    <glyph glyph-name="iecyrillic" unicode="&#x435;" horiz-adv-x="1095" 
d="M563 -12q-224 0 -356 148t-132 399q-1 252 131 403t346 151q214 -1 342 -143q126 -142 126 -382v-58h-808v-7q0 -182 96 -288t258 -106q119 0 202 55t107 145h131q-24 -139 -146 -228t-297 -89zM554 972q-146 0 -240 -98t-102 -260h670q-2 162 -92 260t-236 98z" />
    <glyph glyph-name="zhecyrillic" unicode="&#x436;" horiz-adv-x="1505" 
d="M816 527v-527h-131v527h-6l-483 -527h-170l521 562l-505 515h167l470 -485h6v485h131v-485h6l470 485h166l-503 -512l524 -565h-174l-483 527h-6z" />
    <glyph glyph-name="zecyrillic" unicode="&#x437;" horiz-adv-x="963" 
d="M485 -19q-177 1 -291 81t-132 213h134q18 -83 93 -133t197 -49t195 57t73 151q0 201 -278 201h-167v111h167q118 1 180 49t62 134t-61 136t-173 50t-184 -50t-87 -132h-129q20 133 126 214t276 81t265 -78q96 -78 96 -209q-1 -88 -55 -154t-141 -86v-6q109 -20 171 -86
t62 -168q0 -149 -110 -238t-289 -89z" />
    <glyph glyph-name="iicyrillic" unicode="&#x438;" horiz-adv-x="1137" 
d="M129 0v1077h131v-871h6l612 871h131v-1077h-131v871h-7l-611 -871h-131z" />
    <glyph glyph-name="iishortcyrillic" unicode="&#x439;" horiz-adv-x="1137" 
d="M129 0v1077h131v-871h6l612 871h131v-1077h-131v871h-7l-611 -871h-131zM278 1530h101q1 -90 55 -146t145 -57q91 1 145 57t54 146h101q-1 -130 -83 -208t-218 -78t-218 78t-82 208z" />
    <glyph glyph-name="kacyrillic" unicode="&#x43a;" horiz-adv-x="994" 
d="M260 527v-527h-131v1077h131v-485h6l515 485h168l-549 -512l569 -565h-175l-528 527h-6z" />
    <glyph glyph-name="elcyrillic" unicode="&#x43b;" horiz-adv-x="1108" 
d="M108 -9q-54 0 -81 10v121q24 -8 54 -8q79 0 117 91t51 251t42 621h689v-1077h-131v966h-439q-23 -364 -34 -489q-12 -126 -28 -206q-16 -81 -48 -147t-85 -100t-107 -33z" />
    <glyph glyph-name="emcyrillic" unicode="&#x43c;" horiz-adv-x="1423" 
d="M260 0h-131v1077h157l426 -902h6l425 902h152v-1077h-132v837h-6l-394 -816h-103l-394 816h-6v-837z" />
    <glyph glyph-name="encyrillic" unicode="&#x43d;" horiz-adv-x="1124" 
d="M864 0v504h-604v-504h-131v1077h131v-462h604v462h131v-1077h-131z" />
    <glyph glyph-name="ocyrillic" unicode="&#x43e;" horiz-adv-x="1129" 
d="M564 107q164 -1 260 115q95 116 95 317t-95 317q-96 116 -260 115q-164 1 -259 -115t-95 -317t95 -317t259 -115zM564 -12q-222 0 -356 150t-133 400q-1 252 133 402t356 149q222 1 356 -149t134 -401t-134 -401t-356 -150z" />
    <glyph glyph-name="pecyrillic" unicode="&#x43f;" horiz-adv-x="1114" 
d="M854 0v966h-594v-966h-131v1077h856v-1077h-131z" />
    <glyph glyph-name="ercyrillic" unicode="&#x440;" horiz-adv-x="1164" 
d="M608 107q154 1 250 119t96 312t-96 314t-250 119q-156 -1 -252 -121t-96 -312t96 -311q96 -120 252 -120zM630 1089q204 0 332 -152t127 -398q-1 -247 -127 -399t-330 -152q-126 0 -224 64t-144 170h-3v-575h-132v1430h125v-223h3q43 104 145 170t228 65z" />
    <glyph glyph-name="escyrillic" unicode="&#x441;" horiz-adv-x="1060" 
d="M557 971q-159 0 -255 -118q-96 -117 -96 -315t96 -314t256 -117q116 -1 196 53t109 150h132q-31 -146 -149 -234t-288 -88q-222 0 -354 148t-132 401q0 252 132 402t352 150q176 0 294 -94t145 -236h-132q-27 95 -107 153t-199 59z" />
    <glyph glyph-name="tecyrillic" unicode="&#x442;" horiz-adv-x="947" 
d="M907 1077v-111h-368v-966h-131v966h-368v111h867z" />
    <glyph glyph-name="ucyrillic" unicode="&#x443;" horiz-adv-x="1006" 
d="M212 -375q-34 0 -66 8v113q30 -7 65 -7q73 1 119 43t81 144l24 67l-405 1084h142l330 -943h3l331 943h140l-420 -1129q-70 -190 -142 -256t-202 -67z" />
    <glyph glyph-name="efcyrillic" unicode="&#x444;" horiz-adv-x="1407" 
d="M75 538q0 250 154 398q154 149 411 154v363h128v-363q256 -5 410 -154q154 -148 154 -398t-154 -399t-410 -154v-356h-128v356q-257 5 -411 154t-154 399zM1199 538q0 199 -117 316t-314 122v-877q197 5 314 123t117 316zM208 537q0 -199 117 -315t315 -123v877
q-198 -4 -315 -122t-117 -317z" />
    <glyph glyph-name="hacyrillic" unicode="&#x445;" horiz-adv-x="970" 
d="M486 444h-4l-298 -444h-150l380 542l-376 535h150l299 -434h3l296 434h150l-377 -530l374 -547h-150z" />
    <glyph glyph-name="tsecyrillic" unicode="&#x446;" horiz-adv-x="1186" 
d="M1153 -285h-124v285h-900v1077h131v-966h587v966h131v-966h175v-396z" />
    <glyph glyph-name="checyrillic" unicode="&#x447;" horiz-adv-x="1043" 
d="M915 0h-131v513h-6q-118 -120 -299 -120q-181 -1 -280 105t-99 281v298h131v-293q0 -127 66 -200t181 -73t192 46t114 103v417h131v-1077z" />
    <glyph glyph-name="shacyrillic" unicode="&#x448;" horiz-adv-x="1579" 
d="M129 0v1077h131v-966h464v966h131v-966h465v966h131v-1077h-1322z" />
    <glyph glyph-name="shchacyrillic" unicode="&#x449;" horiz-adv-x="1659" 
d="M1625 -285h-124v285h-1372v1077h131v-966h464v966h131v-966h465v966h131v-966h174v-396z" />
    <glyph glyph-name="hardsigncyrillic" unicode="&#x44a;" horiz-adv-x="1155" 
d="M695 599h-234v-488h234q119 1 189 67t70 178t-70 177q-70 66 -189 66zM695 0h-365v966h-290v111h421v-366h234q179 -1 285 -97t105 -259q1 -163 -105 -259t-285 -96z" />
    <glyph glyph-name="yericyrillic" unicode="&#x44b;" horiz-adv-x="1304" 
d="M129 0v1077h131v-366h233q179 -1 285 -97t106 -258t-106 -260q-106 -96 -285 -96h-364zM493 599h-233v-488h233q119 1 189 67t70 178t-70 177q-70 66 -189 66zM1044 0v1077h131v-1077h-131z" />
    <glyph glyph-name="softsigncyrillic" unicode="&#x44c;" horiz-adv-x="954" 
d="M129 0v1077h131v-366h233q179 -1 285 -97t106 -258t-106 -260q-106 -96 -285 -96h-364zM493 599h-233v-488h233q119 1 189 67t70 178t-70 177q-70 66 -189 66z" />
    <glyph glyph-name="ereversedcyrillic" unicode="&#x44d;" horiz-adv-x="1064" 
d="M505 107q153 0 247 107t101 290h-527v111h524q-16 164 -109 260t-223 96t-212 -59t-108 -153h-132q26 141 146 235t295 95q219 0 351 -150t131 -402q1 -253 -131 -401t-353 -148q-169 0 -289 88t-150 233h132q30 -95 110 -149t197 -53z" />
    <glyph glyph-name="iucyrillic" unicode="&#x44e;" horiz-adv-x="1523" 
d="M968 99q160 1 252 117t92 322t-92 322t-252 116t-252 -116t-92 -322t92 -322t252 -117zM972 -19q-217 -1 -345 139t-138 384h-229v-504h-131v1077h131v-462h233q20 224 146 352t338 128q211 1 341 -149t130 -408t-130 -408t-346 -149z" />
    <glyph glyph-name="iacyrillic" unicode="&#x44f;" horiz-adv-x="992" 
d="M732 0v407h-229l-296 -407h-154l315 429q-126 27 -198 107t-71 198q-1 159 105 251t285 92h374v-1077h-131zM489 518h243v448h-243q-119 0 -189 -62t-70 -163q0 -103 71 -163t188 -60z" />
    <glyph glyph-name="iocyrillic" unicode="&#x451;" horiz-adv-x="1095" 
d="M733 1259q-37 0 -65 27t-28 65q0 37 28 65t65 28t65 -28t28 -65q0 -38 -28 -65t-65 -27zM377 1259q-37 -1 -65 27t-28 66t28 64q28 28 65 28t65 -28t28 -65q0 -38 -28 -65t-65 -27zM563 -12q-224 0 -356 148t-132 399q-1 252 131 403t346 151q214 -1 342 -143
q126 -142 126 -382v-58h-808v-7q0 -182 96 -288t258 -106q119 0 202 55t107 145h131q-24 -139 -146 -228t-297 -89zM554 972q-146 0 -240 -98t-102 -260h670q-2 162 -92 260t-236 98z" />
    <glyph glyph-name="djecyrillic" unicode="&#x452;" horiz-adv-x="1180" 
d="M1057 -83q1 -155 -75 -225t-234 -71h-30v113h26q98 0 140 42t41 140v753q0 139 -82 221q-83 82 -223 81q-140 0 -232 -95t-92 -249v-627h-133v1258h-130v97h130v186h133v-186h272v-97h-272v-379h4q46 101 140 155t221 55q177 -1 287 -109t109 -287v-776z" />
    <glyph glyph-name="gjecyrillic" unicode="&#x453;" horiz-adv-x="882" 
d="M812 966h-552v-966h-131v1077h683v-111zM503 1251h-117l220 301h153z" />
    <glyph glyph-name="ecyrillic" unicode="&#x454;" horiz-adv-x="1071" 
d="M564 -12q-222 0 -354 148t-132 401q0 252 132 402t352 150q176 -1 294 -95t145 -235h-132q-27 95 -107 153t-211 59q-131 -1 -225 -97t-108 -259h524v-111h-528q6 -183 102 -290t248 -107q116 0 196 53t109 149h133q-30 -145 -149 -233t-289 -88z" />
    <glyph glyph-name="dzecyrillic" unicode="&#x455;" horiz-adv-x="977" 
d="M107 800q-1 120 109 204t276 85q166 0 273 -88q108 -88 116 -227h-127q-10 92 -80 148t-182 55q-110 0 -182 -51t-72 -124t48 -114t153 -67l165 -40q162 -41 230 -105t68 -190t-116 -212t-294 -86t-292 88t-125 227h134q13 -93 89 -149t198 -55q122 -1 196 51
q76 52 76 129t-46 117t-155 68l-182 46q-140 35 -209 103q-69 67 -69 187z" />
    <glyph glyph-name="icyrillic" unicode="&#x456;" horiz-adv-x="418" 
d="M209 1290q-37 0 -63 26t-27 64q1 36 27 62t63 27q37 -1 63 -27t26 -62t-26 -64q-26 -26 -63 -26zM143 0v1077h132v-1077h-132z" />
    <glyph glyph-name="yicyrillic" unicode="&#x457;" horiz-adv-x="410" 
d="M383 1259q-37 0 -65 27t-28 65q0 37 28 65t65 28t65 -28t28 -65q0 -38 -28 -65t-65 -27zM27 1259q-37 -1 -65 27t-28 66t28 64q28 28 65 28t65 -28t28 -65q0 -38 -28 -65t-65 -27zM139 0v1077h132v-1077h-132z" />
    <glyph glyph-name="jecyrillic" unicode="&#x458;" horiz-adv-x="419" 
d="M205 1290q-37 0 -63 26t-27 64q1 36 27 62t63 27q37 -1 63 -27t26 -62t-26 -64q-26 -26 -63 -26zM271 1077v-1158q-1 -156 -75 -227t-233 -71h-31v113h27q97 0 139 42t41 140v1161h132z" />
    <glyph glyph-name="ljecyrillic" unicode="&#x459;" horiz-adv-x="1673" 
d="M1213 599h-233v-488h233q119 1 189 67t70 178t-70 177q-70 66 -189 66zM108 -9q-54 0 -81 10v121q24 -8 54 -8q79 0 117 91t51 251t42 621h689v-366h233q179 -1 285 -97t105 -259q1 -163 -105 -259t-285 -96h-364v966h-439q-23 -364 -34 -489q-12 -126 -28 -206
q-16 -81 -48 -147t-85 -100t-107 -33z" />
    <glyph glyph-name="njecyrillic" unicode="&#x45a;" horiz-adv-x="1669" 
d="M844 0v532h-584v-532h-131v1077h131v-434h584v434h131v-433h241q176 0 280 -87t103 -235q1 -148 -103 -235t-280 -87h-372zM1216 533h-241v-422h241q116 -1 184 57t68 154t-69 154t-183 57z" />
    <glyph glyph-name="tshecyrillic" unicode="&#x45b;" horiz-adv-x="1180" 
d="M296 879h4q46 101 140 155t221 55q177 -1 287 -109t109 -287v-693h-132v669q0 139 -82 221q-83 82 -223 81q-140 0 -232 -95t-92 -249v-627h-133v1258h-130v97h130v186h133v-186h272v-97h-272v-379z" />
    <glyph glyph-name="kjecyrillic" unicode="&#x45c;" horiz-adv-x="994" 
d="M260 527v-527h-131v1077h131v-485h6l515 485h168l-549 -512l569 -565h-175l-528 527h-6zM804 1552l-256 -301h-117l220 301h153z" />
    <glyph glyph-name="ushortcyrillic" unicode="&#x45e;" horiz-adv-x="1006" 
d="M212 -375q-34 0 -66 8v113q30 -7 65 -7q73 1 119 43t81 144l24 67l-405 1084h142l330 -943h3l331 943h140l-420 -1129q-70 -190 -142 -256t-202 -67zM210 1530h101q1 -90 55 -146t145 -57q91 1 145 57t54 146h101q-1 -130 -83 -208t-218 -78t-218 78t-82 208z" />
    <glyph glyph-name="dzhecyrillic" unicode="&#x45f;" horiz-adv-x="1114" 
d="M985 0h-366v-285h-124v285h-366v1077h131v-966h594v966h131v-1077z" />
    <glyph glyph-name="Geupturncyrillic" unicode="&#x490;" horiz-adv-x="1051" 
d="M282 1318v-1318h-137v1443h714v273h128v-398h-705z" />
    <glyph glyph-name="geupturncyrillic" unicode="&#x491;" horiz-adv-x="876" 
d="M812 966h-552v-966h-131v1077h559v274h124v-385z" />
    <glyph glyph-name="baht" unicode="&#xe3f;" horiz-adv-x="1219" 
d="M1098 399q0 -189 -130 -294t-363 -105h-15v-150h-104v150h-365v1443h365v156h104v-156h4q198 0 314 -96t116 -260q0 -121 -74 -209t-191 -109v-13q153 -18 246 -114t93 -243zM886 1066q0 116 -78 184t-218 72v-513q144 11 220 76t76 181zM258 1322v-515h228v515h-228z
M258 121h228v567h-228v-567zM958 404q0 136 -94 208t-274 76v-567q180 1 274 74t94 209z" />
    <glyph glyph-name="Aringbelow" unicode="&#x1e00;" horiz-adv-x="1262" 
d="M632 -461q50 0 84 35q35 35 35 85t-35 85q-34 35 -84 35t-85 -35t-35 -85t35 -85t85 -35zM631 -529q-77 -1 -132 55t-55 133t55 133t132 55q77 1 133 -55t55 -133q1 -77 -55 -133t-133 -55zM628 1274l-259 -714h524l-259 714h-6zM1094 0l-160 442h-606l-160 -442h-145
l540 1443h136l539 -1443h-144z" />
    <glyph glyph-name="aringbelow" unicode="&#x1e01;" horiz-adv-x="1048" 
d="M514 -461q50 0 85 35t35 85t-35 85t-85 35t-84 -35q-35 -35 -35 -85t35 -85q34 -35 84 -35zM514 -529q-77 -1 -132 55t-55 133t55 133t132 55q76 1 132 -55t56 -133t-56 -133t-132 -55zM418 -12q-142 0 -242 86t-100 226q0 138 101 216t295 93l331 22v92q1 118 -71 183
t-194 65q-122 -1 -195 -55q-74 -54 -92 -150h-127q8 142 122 232t292 91q178 0 288 -96t109 -259v-734h-126v206h-3q-44 -98 -144 -158q-102 -60 -244 -60zM480 104q128 0 226 86t97 215v119l-315 -22q-277 -18 -277 -203q0 -87 70 -141q71 -54 199 -54z" />
    <glyph glyph-name="Bdotaccent" unicode="&#x1e02;" horiz-adv-x="1217" 
d="M271 121h380q176 -1 271 73t95 209q1 135 -99 208t-286 73h-361v-563zM271 1322v-520h326q164 0 256 72t92 194t-82 188t-226 66h-366zM669 0h-534v1443h531q186 0 302 -98t115 -258q-1 -120 -75 -212t-189 -113v-7q152 -19 245 -115t93 -244q0 -184 -130 -290t-358 -106
zM542 1575q-42 0 -72 30t-30 72t30 72t72 30t72 -30t30 -72t-30 -72t-72 -30z" />
    <glyph glyph-name="bdotaccent" unicode="&#x1e03;" horiz-adv-x="1154" 
d="M610 971q-154 0 -252 -121t-98 -312t98 -311t252 -120q154 1 249 119t95 312t-94 314q-94 119 -250 119zM632 -12q-130 0 -228 64t-146 176h-3v-228h-126v1506h132v-650h3q47 109 145 171t225 62q203 0 329 -152q126 -153 126 -399q-1 -246 -127 -398t-330 -152z
M195 1638q-42 0 -72 30t-30 72t30 72t72 30t72 -30t30 -72t-30 -72t-72 -30z" />
    <glyph glyph-name="Bdotbelow" unicode="&#x1e04;" horiz-adv-x="1217" 
d="M271 121h380q176 -1 271 73t95 209q1 135 -99 208t-286 73h-361v-563zM271 1322v-520h326q164 0 256 72t92 194t-82 188t-226 66h-366zM669 0h-534v1443h531q186 0 302 -98t115 -258q-1 -120 -75 -212t-189 -113v-7q152 -19 245 -115t93 -244q0 -184 -130 -290t-358 -106
zM542 -351q-42 0 -72 30t-30 72t30 72t72 30t72 -30t30 -72t-30 -72t-72 -30z" />
    <glyph glyph-name="bdotbelow" unicode="&#x1e05;" horiz-adv-x="1154" 
d="M610 971q-154 0 -252 -121t-98 -312t98 -311t252 -120q154 1 249 119t95 312t-94 314q-94 119 -250 119zM632 -12q-130 0 -228 64t-146 176h-3v-228h-126v1506h132v-650h3q47 109 145 171t225 62q203 0 329 -152q126 -153 126 -399q-1 -246 -127 -398t-330 -152z
M610 -351q-42 0 -72 30t-30 72t30 72t72 30t72 -30t30 -72t-30 -72t-72 -30z" />
    <glyph glyph-name="Blinebelow" unicode="&#x1e06;" horiz-adv-x="1217" 
d="M847 -214v-85h-610v85h610zM271 121h380q176 -1 271 73t95 209q1 135 -99 208t-286 73h-361v-563zM271 1322v-520h326q164 0 256 72t92 194t-82 188t-226 66h-366zM669 0h-534v1443h531q186 0 302 -98t115 -258q-1 -120 -75 -212t-189 -113v-7q152 -19 245 -115t93 -244
q0 -184 -130 -290t-358 -106z" />
    <glyph glyph-name="blinebelow" unicode="&#x1e07;" horiz-adv-x="1154" 
d="M610 971q-154 0 -252 -121t-98 -312t98 -311t252 -120q154 1 249 119t95 312t-94 314q-94 119 -250 119zM632 -12q-130 0 -228 64t-146 176h-3v-228h-126v1506h132v-650h3q47 109 145 171t225 62q203 0 329 -152q126 -153 126 -399q-1 -246 -127 -398t-330 -152z
M915 -214v-85h-610v85h610z" />
    <glyph glyph-name="Ccedillaacute" unicode="&#x1e08;" horiz-adv-x="1371" 
d="M720 1339q-230 -1 -366 -167t-137 -449q1 -283 137 -451t367 -168q173 0 294 87t153 236h137q-37 -201 -180 -319t-360 -130l-46 -119q101 1 155 -39t53 -114q1 -74 -61 -124q-62 -48 -152 -48t-144 16v80q41 -16 113 -16t109 24t37 66q0 82 -155 82h-53v60l53 132
q-275 18 -436 218t-161 534q1 334 175 535t468 201q152 0 278 -61t207 -171t100 -249h-137q-30 156 -155 255t-293 99zM1066 1847l-289 -295h-117l252 295h154z" />
    <glyph glyph-name="ccedillaacute" unicode="&#x1e09;" horiz-adv-x="1046" 
d="M758 -294q0 -74 -62 -124q-62 -48 -150 -48q-90 0 -145 16v80q41 -16 113 -16t109 24t37 66q0 82 -155 82h-53v60l58 143q-204 13 -324 161t-121 394q1 246 133 395q132 150 351 150q183 0 303 -101t140 -250h-131q-20 103 -103 168t-208 65q-158 0 -254 -118
q-96 -117 -96 -315t96 -314t255 -117q124 -1 206 59t105 166h131q-22 -143 -128 -236t-265 -106l-50 -131q100 1 154 -39t54 -114zM856 1552l-256 -301h-117l220 301h153z" />
    <glyph glyph-name="Ddotaccent" unicode="&#x1e0a;" horiz-adv-x="1370" 
d="M272 1319v-1195h330q266 0 410 155t143 443q1 288 -143 442q-144 155 -410 155h-330zM135 1443h475q324 1 504 -189t180 -532t-180 -532t-504 -190h-475v1443zM551 1575q-42 0 -72 30t-30 72t30 72t72 30t72 -30t30 -72t-30 -72t-72 -30z" />
    <glyph glyph-name="ddotaccent" unicode="&#x1e0b;" horiz-adv-x="1157" 
d="M547 971q-155 0 -251 -119t-96 -313t96 -313t251 -119t253 120q98 119 97 311q1 192 -97 312t-253 121zM526 -12q-203 0 -332 152t-129 398t128 398t330 153q128 1 227 -63t143 -170h3v650h133v-1506h-126v229h-3q-47 -111 -146 -176t-228 -65zM962 1638q-42 0 -72 30
t-30 72t30 72t72 30t72 -30t30 -72t-30 -72t-72 -30z" />
    <glyph glyph-name="Ddotbelow" unicode="&#x1e0c;" horiz-adv-x="1370" 
d="M272 1319v-1195h330q266 0 410 155t143 443q1 288 -143 442q-144 155 -410 155h-330zM135 1443h475q324 1 504 -189t180 -532t-180 -532t-504 -190h-475v1443zM551 -351q-42 0 -72 30t-30 72t30 72t72 30t72 -30t30 -72t-30 -72t-72 -30z" />
    <glyph glyph-name="ddotbelow" unicode="&#x1e0d;" horiz-adv-x="1157" 
d="M547 971q-155 0 -251 -119t-96 -313t96 -313t251 -119t253 120q98 119 97 311q1 192 -97 312t-253 121zM526 -12q-203 0 -332 152t-129 398t128 398t330 153q128 1 227 -63t143 -170h3v650h133v-1506h-126v229h-3q-47 -111 -146 -176t-228 -65zM535 -351q-42 0 -72 30
t-30 72t30 72t72 30t72 -30t30 -72t-30 -72t-72 -30z" />
    <glyph glyph-name="Dlinebelow" unicode="&#x1e0e;" horiz-adv-x="1370" 
d="M272 1319v-1195h330q266 0 410 155t143 443q1 288 -143 442q-144 155 -410 155h-330zM135 1443h475q324 1 504 -189t180 -532t-180 -532t-504 -190h-475v1443zM856 -214v-85h-610v85h610z" />
    <glyph glyph-name="dlinebelow" unicode="&#x1e0f;" horiz-adv-x="1157" 
d="M547 971q-155 0 -251 -119t-96 -313t96 -313t251 -119t253 120q98 119 97 311q1 192 -97 312t-253 121zM526 -12q-203 0 -332 152t-129 398t128 398t330 153q128 1 227 -63t143 -170h3v650h133v-1506h-126v229h-3q-47 -111 -146 -176t-228 -65zM840 -214v-85h-610v85h610
z" />
    <glyph glyph-name="Dcommaaccent" unicode="&#x1e10;" horiz-adv-x="1370" 
d="M272 1319v-1195h330q266 0 410 155t143 443q1 288 -143 442q-144 155 -410 155h-330zM135 1443h475q324 1 504 -189t180 -532t-180 -532t-504 -190h-475v1443zM518 -520h-100l95 358h121z" />
    <glyph glyph-name="dcommaaccent" unicode="&#x1e11;" horiz-adv-x="1157" 
d="M547 971q-155 0 -251 -119t-96 -313t96 -313t251 -119t253 120q98 119 97 311q1 192 -97 312t-253 121zM526 -12q-203 0 -332 152t-129 398t128 398t330 153q128 1 227 -63t143 -170h3v650h133v-1506h-126v229h-3q-47 -111 -146 -176t-228 -65zM502 -520h-100l95 358h121
z" />
    <glyph glyph-name="Dcircumflexbelow" unicode="&#x1e12;" horiz-adv-x="1370" 
d="M496 -158h110l283 -295h-131l-206 217h-2l-206 -217h-131zM272 1319v-1195h330q266 0 410 155t143 443q1 288 -143 442q-144 155 -410 155h-330zM135 1443h475q324 1 504 -189t180 -532t-180 -532t-504 -190h-475v1443z" />
    <glyph glyph-name="dcircumflexbelow" unicode="&#x1e13;" horiz-adv-x="1157" 
d="M480 -158h110l283 -295h-131l-206 217h-2l-206 -217h-131zM547 971q-155 0 -251 -119t-96 -313t96 -313t251 -119t253 120q98 119 97 311q1 192 -97 312t-253 121zM526 -12q-203 0 -332 152t-129 398t128 398t330 153q128 1 227 -63t143 -170h3v650h133v-1506h-126v229
h-3q-47 -111 -146 -176t-228 -65z" />
    <glyph glyph-name="Emacrongrave" unicode="&#x1e14;" horiz-adv-x="1104" 
d="M1006 124v-124h-871v1443h871v-124h-735v-519h698v-122h-698v-554h735zM630 1818h-109l-231 203h145zM265 1633v85h610v-85h-610z" />
    <glyph glyph-name="emacrongrave" unicode="&#x1e15;" horiz-adv-x="1075" 
d="M852 1400v-85h-618v85h618zM612 1563h-117l-218 274h145zM553 -12q-224 0 -356 148t-132 399q-1 252 131 403t346 151q214 -1 342 -143q126 -142 126 -382v-58h-808v-7q0 -182 96 -288t258 -106q119 0 202 55t107 145h131q-24 -139 -146 -228t-297 -89zM544 972
q-146 0 -240 -98t-102 -260h670q-2 162 -92 260t-236 98z" />
    <glyph glyph-name="Emacronacute" unicode="&#x1e16;" horiz-adv-x="1104" 
d="M1006 124v-124h-871v1443h871v-124h-735v-519h698v-122h-698v-554h735zM510 1818l195 203h145l-231 -203h-109zM875 1633h-610v85h610v-85z" />
    <glyph glyph-name="emacronacute" unicode="&#x1e17;" horiz-adv-x="1075" 
d="M852 1400v-85h-618v85h618zM478 1563l190 274h145l-218 -274h-117zM553 -12q-224 0 -356 148t-132 399q-1 252 131 403t346 151q214 -1 342 -143q126 -142 126 -382v-58h-808v-7q0 -182 96 -288t258 -106q119 0 202 55t107 145h131q-24 -139 -146 -228t-297 -89zM544 972
q-146 0 -240 -98t-102 -260h670q-2 162 -92 260t-236 98z" />
    <glyph glyph-name="Ecircumflexbelow" unicode="&#x1e18;" horiz-adv-x="1104" 
d="M515 -158h110l283 -295h-131l-206 217h-2l-206 -217h-131zM1006 124v-124h-871v1443h871v-124h-735v-519h698v-122h-698v-554h735z" />
    <glyph glyph-name="ecircumflexbelow" unicode="&#x1e19;" horiz-adv-x="1075" 
d="M498 -158h110l283 -295h-131l-206 217h-2l-206 -217h-131zM553 -12q-224 0 -356 148t-132 399q-1 252 131 403t346 151q214 -1 342 -143q126 -142 126 -382v-58h-808v-7q0 -182 96 -288t258 -106q119 0 202 55t107 145h131q-24 -139 -146 -228t-297 -89zM544 972
q-146 0 -240 -98t-102 -260h670q-2 162 -92 260t-236 98z" />
    <glyph glyph-name="Etildebelow" unicode="&#x1e1a;" horiz-adv-x="1104" 
d="M1006 124v-124h-871v1443h871v-124h-735v-519h698v-122h-698v-554h735zM365 -381h-91q0 109 44 171t122 63q46 -1 86 -25t64 -54q64 -78 111 -78q73 0 73 144h91q1 -106 -43 -170t-116 -64t-127 55q-23 23 -44 47q-50 56 -92 55q-78 0 -78 -144z" />
    <glyph glyph-name="etildebelow" unicode="&#x1e1b;" horiz-adv-x="1075" 
d="M553 -12q-224 0 -356 148t-132 399q-1 252 131 403t346 151q214 -1 342 -143q126 -142 126 -382v-58h-808v-7q0 -182 96 -288t258 -106q119 0 202 55t107 145h131q-24 -139 -146 -228t-297 -89zM544 972q-146 0 -240 -98t-102 -260h670q-2 162 -92 260t-236 98zM348 -381
h-91q-1 109 43 171t123 63q46 -1 86 -25t64 -54q64 -78 111 -78q73 0 73 144h91q0 -106 -44 -170t-115 -64q-72 0 -127 55q-23 23 -44 47q-50 56 -92 55q-78 0 -78 -144z" />
    <glyph glyph-name="Ecedillabreve" unicode="&#x1e1c;" horiz-adv-x="1104" 
d="M1006 1319h-735v-519h698v-122h-698v-554h735v-124h-383l-54 -141q101 1 155 -39t53 -114q1 -74 -61 -124q-62 -48 -152 -48t-144 16v80q41 -16 113 -16t109 24t37 66q0 82 -155 82h-53v60l62 154h-398v1443h871v-124zM768 1823h94q0 -121 -82 -197t-210 -75
q-128 -1 -210 75t-82 197h94q0 -81 56 -135t142 -54t142 54t56 135z" />
    <glyph glyph-name="ecedillabreve" unicode="&#x1e1d;" horiz-adv-x="1075" 
d="M1010 506h-808v-7q0 -182 96 -288t258 -106q119 0 202 55t107 145h131q-23 -129 -130 -215t-264 -100l-50 -131q100 1 154 -39t54 -114t-62 -124q-62 -48 -150 -48q-90 0 -145 16v80q41 -16 113 -16t109 24t37 66q0 82 -155 82h-53v60l58 143q-207 14 -327 160t-120 392
q-1 246 131 397t346 151q214 -1 342 -143q126 -142 126 -382v-58zM544 972q-146 0 -240 -98t-102 -260h670q-2 162 -92 260t-236 98zM748 1530h97q1 -130 -83 -208t-218 -78t-218 78t-83 208h97q0 -86 58 -143t146 -57t146 57t58 143z" />
    <glyph glyph-name="Fdotaccent" unicode="&#x1e1e;" horiz-adv-x="1061" 
d="M271 0h-136v1443h856v-124h-720v-542h662v-122h-662v-655zM563 1575q-42 0 -72 30t-30 72t30 72t72 30t72 -30t30 -72t-30 -72t-72 -30z" />
    <glyph glyph-name="fdotaccent" unicode="&#x1e1f;" horiz-adv-x="589" 
d="M173 0v966h-150v111h150v123q-1 140 65 206t201 66q49 0 89 -9v-111q-35 8 -93 8q-127 0 -129 -162v-121h219v-111h-219v-966h-133zM346 1597q-42 0 -72 30t-30 72t30 72t72 30t72 -30t30 -72t-30 -72t-72 -30z" />
    <glyph glyph-name="Gmacron" unicode="&#x1e20;" horiz-adv-x="1409" 
d="M1030 1718v-85h-610v85h610zM1324 586q0 -286 -159 -448t-446 -161q-287 0 -465 206t-177 544q1 339 177 539t471 200q227 0 388 -125t202 -332h-142q-43 154 -163 242t-285 88q-235 1 -371 -163t-137 -448q0 -284 138 -454q139 -170 359 -170t347 123t127 327v51h-448
v120h584v-139z" />
    <glyph glyph-name="gmacron" unicode="&#x1e21;" horiz-adv-x="1144" 
d="M572 -375q-198 0 -316 76t-138 200h138q20 -73 102 -117t218 -43t226 73q91 72 91 196v219h-3q-46 -106 -144 -170t-226 -64q-203 0 -329 151q-126 150 -126 396t126 396t332 151q127 0 227 -64t147 -171h2v223h126v-1057q0 -184 -128 -290q-127 -106 -325 -105zM544 114
q156 0 252 118q97 118 97 310q0 190 -97 310t-252 119q-156 0 -250 -118q-94 -117 -94 -311t94 -311t250 -117zM863 1400v-85h-618v85h618z" />
    <glyph glyph-name="Hdotaccent" unicode="&#x1e22;" horiz-adv-x="1387" 
d="M693 1575q-42 0 -72 30t-30 72t30 72t72 30t72 -30t30 -72t-30 -72t-72 -30zM1252 0h-137v677h-844v-677h-136v1443h136v-642h844v642h137v-1443z" />
    <glyph glyph-name="hdotaccent" unicode="&#x1e23;" horiz-adv-x="1136" 
d="M196 1638q-42 0 -72 30t-30 72t30 72t72 30t72 -30t30 -72t-30 -72t-72 -30zM129 0v1506h132v-630h3q46 101 140 157t223 56q178 1 287 -109t109 -290v-690h-133v669q0 141 -81 221t-223 81q-142 0 -234 -95q-91 -95 -91 -248v-628h-132z" />
    <glyph glyph-name="Hdotbelow" unicode="&#x1e24;" horiz-adv-x="1387" 
d="M693 -351q-42 0 -72 30t-30 72t30 72t72 30t72 -30t30 -72t-30 -72t-72 -30zM1252 0h-137v677h-844v-677h-136v1443h136v-642h844v642h137v-1443z" />
    <glyph glyph-name="hdotbelow" unicode="&#x1e25;" horiz-adv-x="1136" 
d="M575 -351q-42 0 -72 30t-30 72t30 72t72 30t72 -30t30 -72t-30 -72t-72 -30zM129 0v1506h132v-630h3q46 101 140 157t223 56q178 1 287 -109t109 -290v-690h-133v669q0 141 -81 221t-223 81q-142 0 -234 -95q-91 -95 -91 -248v-628h-132z" />
    <glyph glyph-name="Hdieresis" unicode="&#x1e26;" horiz-adv-x="1387" 
d="M871 1576q-37 0 -65 27t-28 65t28 66t65 27q37 1 65 -27t28 -66t-28 -65t-65 -27zM515 1576q-37 0 -65 28t-28 64q0 38 28 66t65 27q37 1 65 -27t28 -66t-28 -65t-65 -27zM1252 0h-137v677h-844v-677h-136v1443h136v-642h844v642h137v-1443z" />
    <glyph glyph-name="hdieresis" unicode="&#x1e27;" horiz-adv-x="1136" 
d="M374 1639q-38 0 -66 27t-27 65q-1 37 27 65t66 28t66 -28t27 -65q1 -38 -27 -65t-66 -27zM18 1639q-38 -1 -66 27t-27 66q-1 38 27 64q28 28 66 28t66 -28t27 -65q1 -38 -27 -65t-66 -27zM129 0v1506h132v-630h3q46 101 140 157t223 56q178 1 287 -109t109 -290v-690
h-133v669q0 141 -81 221t-223 81q-142 0 -234 -95q-91 -95 -91 -248v-628h-132z" />
    <glyph glyph-name="Hcedilla" unicode="&#x1e28;" horiz-adv-x="1387" 
d="M1115 1443h137v-1443h-137v677h-844v-677h-15l-54 -141q100 1 154 -39t54 -114t-62 -124q-62 -48 -150 -48q-90 0 -145 16v80q41 -16 113 -16t109 24t37 66q0 82 -155 82h-53v60l62 154h-31v1443h136v-642h844v642z" />
    <glyph glyph-name="hcedilla" unicode="&#x1e29;" horiz-adv-x="1136" 
d="M261 876h3q46 101 140 157t223 56q178 1 287 -109t109 -290v-690h-133v669q0 141 -81 221t-223 81q-142 0 -234 -95q-91 -95 -91 -248v-628h-12l-54 -141q101 1 155 -39t53 -114q1 -74 -61 -124q-62 -48 -152 -48t-144 16v80q41 -16 113 -16t109 24t37 66q0 82 -155 82
h-53v60l62 154h-30v1506h132v-630z" />
    <glyph glyph-name="Hbrevebelow" unicode="&#x1e2a;" horiz-adv-x="1387" 
d="M1252 0h-137v677h-844v-677h-136v1443h136v-642h844v642h137v-1443zM401 -179h94q0 -81 56 -135t142 -54t142 54t56 135h94q1 -121 -81 -197t-211 -75q-129 -1 -211 75t-81 197z" />
    <glyph glyph-name="hbrevebelow" unicode="&#x1e2b;" horiz-adv-x="1136" 
d="M129 0v1506h132v-630h3q46 101 140 157t223 56q178 1 287 -109t109 -290v-690h-133v669q0 141 -81 221t-223 81q-142 0 -234 -95q-91 -95 -91 -248v-628h-132zM283 -179h94q0 -81 56 -135t142 -54t142 54t56 135h94q1 -121 -81 -197t-211 -75q-129 -1 -211 75t-81 197z
" />
    <glyph glyph-name="Itildebelow" unicode="&#x1e2c;" horiz-adv-x="406" 
d="M76 -237q-78 0 -78 -144h-91q-1 109 43 171t123 63q46 -1 86 -25t64 -54q64 -78 111 -78q73 0 73 144h91q0 -106 -44 -170t-115 -64q-72 0 -127 55q-23 23 -44 47q-50 56 -92 55zM271 0h-136v1443h136v-1443z" />
    <glyph glyph-name="itildebelow" unicode="&#x1e2d;" horiz-adv-x="390" 
d="M68 -237q-78 0 -78 -144h-91q-1 109 43 171t123 63q46 -1 86 -25t64 -54q64 -78 111 -78q73 0 73 144h91q0 -106 -44 -170t-115 -64q-72 0 -127 55q-23 23 -44 47q-50 56 -92 55zM195 1290q-37 0 -63 26t-27 64q1 36 27 62t63 27q37 -1 63 -27t26 -62t-26 -64
q-26 -26 -63 -26zM129 0v1077h132v-1077h-132z" />
    <glyph glyph-name="Idieresisacute" unicode="&#x1e2e;" horiz-adv-x="406" 
d="M374 1580q-34 0 -60 24q-24 24 -24 60q0 34 24 58t60 25q34 -1 58 -25t25 -58q-1 -34 -25 -60q-24 -24 -58 -24zM32 1580q-34 0 -58 24t-25 60q1 34 25 58t58 25q34 -1 60 -25q24 -24 24 -58t-24 -60q-26 -24 -60 -24zM143 1818l195 203h145l-231 -203h-109zM271 0h-136
v1443h136v-1443z" />
    <glyph glyph-name="idieresisacute" unicode="&#x1e2f;" horiz-adv-x="390" 
d="M129 0v1077h132v-1077h-132zM373 1259q-37 0 -65 27t-28 65q0 37 28 65t65 28t65 -28t28 -65q0 -38 -28 -65t-65 -27zM17 1259q-37 -1 -65 27t-28 66t28 64q28 28 65 28t65 -28t28 -65q0 -38 -28 -65t-65 -27zM132 1565l187 269h148l-217 -269h-118z" />
    <glyph glyph-name="Kacute" unicode="&#x1e30;" horiz-adv-x="1209" 
d="M271 0h-136v1443h136v-748h8l686 748h173l-593 -638l652 -805h-175l-573 708l-178 -193v-515zM638 1551h-117l252 295h154z" />
    <glyph glyph-name="kacute" unicode="&#x1e31;" horiz-adv-x="988" 
d="M261 0h-132v1506h132v-941h1l537 512h164l-486 -465l496 -612h-156l-434 531l-122 -111v-420zM252 1614h-117l252 295h154z" />
    <glyph glyph-name="Kdotbelow" unicode="&#x1e32;" horiz-adv-x="1209" 
d="M271 0h-136v1443h136v-748h8l686 748h173l-593 -638l652 -805h-175l-573 708l-178 -193v-515zM581 -351q-42 0 -72 30t-30 72t30 72t72 30t72 -30t30 -72t-30 -72t-72 -30z" />
    <glyph glyph-name="kdotbelow" unicode="&#x1e33;" horiz-adv-x="988" 
d="M261 0h-132v1506h132v-941h1l537 512h164l-486 -465l496 -612h-156l-434 531l-122 -111v-420zM526 -351q-42 0 -72 30t-30 72t30 72t72 30t72 -30t30 -72t-30 -72t-72 -30z" />
    <glyph glyph-name="Klinebelow" unicode="&#x1e34;" horiz-adv-x="1209" 
d="M886 -214v-85h-610v85h610zM271 0h-136v1443h136v-748h8l686 748h173l-593 -638l652 -805h-175l-573 708l-178 -193v-515z" />
    <glyph glyph-name="klinebelow" unicode="&#x1e35;" horiz-adv-x="988" 
d="M831 -214v-85h-610v85h610zM261 0h-132v1506h132v-941h1l537 512h164l-486 -465l496 -612h-156l-434 531l-122 -111v-420z" />
    <glyph glyph-name="Ldotbelow" unicode="&#x1e36;" horiz-adv-x="1052" 
d="M994 124v-124h-859v1443h136v-1319h723zM564 -351q-42 0 -72 30t-30 72t30 72t72 30t72 -30t30 -72t-30 -72t-72 -30z" />
    <glyph glyph-name="ldotbelow" unicode="&#x1e37;" horiz-adv-x="390" 
d="M129 0v1506h132v-1506h-132zM195 -351q-42 0 -72 30t-30 72t30 72t72 30t72 -30t30 -72t-30 -72t-72 -30z" />
    <glyph glyph-name="Ldotbelowmacron" unicode="&#x1e38;" horiz-adv-x="1052" 
d="M508 1718v-85h-610v85h610zM994 124v-124h-859v1443h136v-1319h723zM564 -351q-42 0 -72 30t-30 72t30 72t72 30t72 -30t30 -72t-30 -72t-72 -30z" />
    <glyph glyph-name="ldotbelowmacron" unicode="&#x1e39;" horiz-adv-x="390" 
d="M500 1781v-85h-610v85h610zM129 0v1506h132v-1506h-132zM195 -351q-42 0 -72 30t-30 72t30 72t72 30t72 -30t30 -72t-30 -72t-72 -30z" />
    <glyph glyph-name="Llinebelow" unicode="&#x1e3a;" horiz-adv-x="1052" 
d="M994 124v-124h-859v1443h136v-1319h723zM869 -214v-85h-610v85h610z" />
    <glyph glyph-name="llinebelow" unicode="&#x1e3b;" horiz-adv-x="390" 
d="M129 0v1506h132v-1506h-132zM500 -214v-85h-610v85h610z" />
    <glyph glyph-name="Lcircumflexbelow" unicode="&#x1e3c;" horiz-adv-x="1052" 
d="M509 -158h110l283 -295h-131l-206 217h-2l-206 -217h-131zM994 124v-124h-859v1443h136v-1319h723z" />
    <glyph glyph-name="lcircumflexbelow" unicode="&#x1e3d;" horiz-adv-x="390" 
d="M140 -158h110l283 -295h-131l-206 217h-2l-206 -217h-131zM129 0v1506h132v-1506h-132z" />
    <glyph glyph-name="Macute" unicode="&#x1e3e;" horiz-adv-x="1660" 
d="M887 1551h-117l252 295h154zM1525 1443v-1443h-128v1184h-6l-502 -1177h-119l-501 1177h-6v-1184h-128v1443h157l535 -1263h6l534 1263h158z" />
    <glyph glyph-name="macute" unicode="&#x1e3f;" horiz-adv-x="1677" 
d="M119 0v1077h124v-201h4q35 97 118 155t197 58t196 -61t114 -165h3q39 102 131 164t210 62q158 1 253 -97t95 -261v-731h-133v701q-1 126 -67 198t-185 72q-119 1 -195 -83t-77 -215v-673h-132v714q0 115 -69 186q-68 71 -184 71t-194 -88t-77 -226v-657h-132zM892 1251
h-117l220 301h153z" />
    <glyph glyph-name="Mdotaccent" unicode="&#x1e40;" horiz-adv-x="1660" 
d="M830 1575q-42 0 -72 30t-30 72t30 72t72 30t72 -30t30 -72t-30 -72t-72 -30zM1525 1443v-1443h-128v1184h-6l-502 -1177h-119l-501 1177h-6v-1184h-128v1443h157l535 -1263h6l534 1263h158z" />
    <glyph glyph-name="mdotaccent" unicode="&#x1e41;" horiz-adv-x="1677" 
d="M119 0v1077h124v-201h4q35 97 118 155t197 58t196 -61t114 -165h3q39 102 131 164t210 62q158 1 253 -97t95 -261v-731h-133v701q-1 126 -67 198t-185 72q-119 1 -195 -83t-77 -215v-673h-132v714q0 115 -69 186q-68 71 -184 71t-194 -88t-77 -226v-657h-132zM841 1259
q-43 1 -73 31t-31 73q1 43 31 73t73 31q43 -1 73 -31t31 -73q-1 -43 -31 -73t-73 -31z" />
    <glyph glyph-name="Mdotbelow" unicode="&#x1e42;" horiz-adv-x="1660" 
d="M830 -351q-42 0 -72 30t-30 72t30 72t72 30t72 -30t30 -72t-30 -72t-72 -30zM1525 1443v-1443h-128v1184h-6l-502 -1177h-119l-501 1177h-6v-1184h-128v1443h157l535 -1263h6l534 1263h158z" />
    <glyph glyph-name="mdotbelow" unicode="&#x1e43;" horiz-adv-x="1677" 
d="M119 0v1077h124v-201h4q35 97 118 155t197 58t196 -61t114 -165h3q39 102 131 164t210 62q158 1 253 -97t95 -261v-731h-133v701q-1 126 -67 198t-185 72q-119 1 -195 -83t-77 -215v-673h-132v714q0 115 -69 186q-68 71 -184 71t-194 -88t-77 -226v-657h-132zM841 -351
q-42 0 -72 30t-30 72t30 72t72 30t72 -30t30 -72t-30 -72t-72 -30z" />
    <glyph glyph-name="Ndotaccent" unicode="&#x1e44;" horiz-adv-x="1393" 
d="M270 0h-135v1443h135l846 -1205h7v1205h135v-1443h-132l-849 1206h-7v-1206zM696 1575q-42 0 -72 30t-30 72t30 72t72 30t72 -30t30 -72t-30 -72t-72 -30z" />
    <glyph glyph-name="ndotaccent" unicode="&#x1e45;" horiz-adv-x="1111" 
d="M119 0v1077h124v-201h4q45 101 139 157t223 56q177 -1 283 -107t106 -289v-693h-132v672q0 142 -78 220t-219 79t-229 -93t-89 -245v-633h-132zM559 1259q-43 1 -73 31t-31 73q1 43 31 73t73 31q43 -1 73 -31t31 -73q-1 -43 -31 -73t-73 -31z" />
    <glyph glyph-name="Ndotbelow" unicode="&#x1e46;" horiz-adv-x="1393" 
d="M270 0h-135v1443h135l846 -1205h7v1205h135v-1443h-132l-849 1206h-7v-1206zM696 -351q-42 0 -72 30t-30 72t30 72t72 30t72 -30t30 -72t-30 -72t-72 -30z" />
    <glyph glyph-name="ndotbelow" unicode="&#x1e47;" horiz-adv-x="1111" 
d="M119 0v1077h124v-201h4q45 101 139 157t223 56q177 -1 283 -107t106 -289v-693h-132v672q0 142 -78 220t-219 79t-229 -93t-89 -245v-633h-132zM553 -351q-42 0 -72 30t-30 72t30 72t72 30t72 -30t30 -72t-30 -72t-72 -30z" />
    <glyph glyph-name="Nlinebelow" unicode="&#x1e48;" horiz-adv-x="1393" 
d="M270 0h-135v1443h135l846 -1205h7v1205h135v-1443h-132l-849 1206h-7v-1206zM1001 -214v-85h-610v85h610z" />
    <glyph glyph-name="nlinebelow" unicode="&#x1e49;" horiz-adv-x="1111" 
d="M119 0v1077h124v-201h4q45 101 139 157t223 56q177 -1 283 -107t106 -289v-693h-132v672q0 142 -78 220t-219 79t-229 -93t-89 -245v-633h-132zM858 -214v-85h-610v85h610z" />
    <glyph glyph-name="Ncircumflexbelow" unicode="&#x1e4a;" horiz-adv-x="1393" 
d="M641 -158h110l283 -295h-131l-206 217h-2l-206 -217h-131zM270 0h-135v1443h135l846 -1205h7v1205h135v-1443h-132l-849 1206h-7v-1206z" />
    <glyph glyph-name="ncircumflexbelow" unicode="&#x1e4b;" horiz-adv-x="1111" 
d="M498 -158h110l283 -295h-131l-206 217h-2l-206 -217h-131zM119 0v1077h124v-201h4q45 101 139 157t223 56q177 -1 283 -107t106 -289v-693h-132v672q0 142 -78 220t-219 79t-229 -93t-89 -245v-633h-132z" />
    <glyph glyph-name="Otildeacute" unicode="&#x1e4c;" horiz-adv-x="1465" 
d="M692 1830l176 191h146l-213 -191h-109zM533 1557h-91q0 104 44 164t116 60q74 0 127 -53q21 -22 41 -44q46 -54 86 -54q72 0 72 136h91q0 -102 -44 -164t-114 -61q-71 0 -123 53q-22 22 -40 44q-46 53 -87 54q-78 0 -78 -135zM732 1339q-237 0 -376 -167
q-139 -166 -139 -450q-1 -284 139 -451t376 -167t376 167t140 451t-140 450q-140 167 -376 167zM732 1466q302 0 479 -201t177 -544t-177 -543t-479 -201q-302 1 -478 201t-177 543q0 343 177 544q176 201 478 201z" />
    <glyph glyph-name="otildeacute" unicode="&#x1e4d;" horiz-adv-x="1109" 
d="M554 107q164 -1 260 115q95 116 95 317t-95 317q-96 116 -260 115q-164 1 -259 -115t-95 -317t95 -317t259 -115zM554 -12q-222 0 -356 150t-133 400q-1 252 133 402t356 149q222 1 356 -149t134 -401t-134 -401t-356 -150zM430 1400q-78 0 -78 -144h-91q-1 110 43 172
t123 62q46 0 86 -24t64 -54q64 -79 111 -79q73 0 73 144h91q0 -107 -44 -171t-115 -63q-72 -1 -127 55q-23 24 -44 47q-50 55 -92 55zM494 1576l159 261h132l-188 -261h-103z" />
    <glyph glyph-name="Otildedieresis" unicode="&#x1e4e;" horiz-adv-x="1465" 
d="M732 1339q-237 0 -376 -167q-139 -166 -139 -450q-1 -284 139 -451t376 -167t376 167t140 451t-140 450q-140 167 -376 167zM732 1466q302 0 479 -201t177 -544t-177 -543t-479 -201q-302 1 -478 201t-177 543q0 343 177 544q176 201 478 201zM902 2046q34 0 60 -24
q24 -24 24 -60q0 -34 -24 -58t-60 -25q-34 0 -58 25t-25 59q1 35 25 59t58 24zM562 2046q34 0 58 -24t25 -59q-1 -34 -25 -59t-58 -25q-34 1 -60 25q-24 24 -24 58t24 60q26 24 60 24zM535 1557h-91q0 104 44 164t117 60t125 -53q22 -22 42 -44q46 -54 85 -54q72 0 72 136
h91q0 -102 -44 -164t-114 -61q-70 0 -122 53q-22 22 -41 44q-45 54 -87 54q-77 0 -77 -135z" />
    <glyph glyph-name="otildedieresis" unicode="&#x1e4f;" horiz-adv-x="1109" 
d="M554 107q164 -1 260 115q95 116 95 317t-95 317q-96 116 -260 115q-164 1 -259 -115t-95 -317t95 -317t259 -115zM554 -12q-222 0 -356 150t-133 400q-1 252 133 402t356 149q222 1 356 -149t134 -401t-134 -401t-356 -150zM430 1400q-78 0 -78 -144h-91q-1 110 43 172
t123 62q46 0 86 -24t64 -54q64 -79 111 -79q73 0 73 144h91q0 -107 -44 -171t-115 -63q-72 -1 -127 55q-23 24 -44 47q-50 55 -92 55zM724 1576q-37 0 -63 26t-26 62t26 63q26 26 63 26q36 0 62 -26q26 -27 26 -63t-26 -62t-62 -26zM384 1576q-36 0 -62 26t-26 62t26 63
q26 26 62 26t63 -26q26 -27 26 -63t-26 -62q-27 -26 -63 -26z" />
    <glyph glyph-name="Omacrongrave" unicode="&#x1e50;" horiz-adv-x="1465" 
d="M732 1339q-237 0 -376 -167q-139 -166 -139 -450q-1 -284 139 -451t376 -167t376 167t140 451t-140 450q-140 167 -376 167zM732 1466q302 0 479 -201t177 -544t-177 -543t-479 -201q-302 1 -478 201t-177 543q0 343 177 544q176 201 478 201zM792 1818h-109l-231 203
h145zM427 1633v85h610v-85h-610z" />
    <glyph glyph-name="omacrongrave" unicode="&#x1e51;" horiz-adv-x="1109" 
d="M861 1400v-85h-618v85h618zM621 1563h-117l-218 274h145zM554 107q164 -1 260 115q95 116 95 317t-95 317q-96 116 -260 115q-164 1 -259 -115t-95 -317t95 -317t259 -115zM554 -12q-222 0 -356 150t-133 400q-1 252 133 402t356 149q222 1 356 -149t134 -401t-134 -401
t-356 -150z" />
    <glyph glyph-name="Omacronacute" unicode="&#x1e52;" horiz-adv-x="1465" 
d="M732 1339q-237 0 -376 -167q-139 -166 -139 -450q-1 -284 139 -451t376 -167t376 167t140 451t-140 450q-140 167 -376 167zM732 1466q302 0 479 -201t177 -544t-177 -543t-479 -201q-302 1 -478 201t-177 543q0 343 177 544q176 201 478 201zM672 1818l195 203h145
l-231 -203h-109zM1037 1633h-610v85h610v-85z" />
    <glyph glyph-name="omacronacute" unicode="&#x1e53;" horiz-adv-x="1109" 
d="M861 1400v-85h-618v85h618zM487 1563l190 274h145l-218 -274h-117zM554 107q164 -1 260 115q95 116 95 317t-95 317q-96 116 -260 115q-164 1 -259 -115t-95 -317t95 -317t259 -115zM554 -12q-222 0 -356 150t-133 400q-1 252 133 402t356 149q222 1 356 -149t134 -401
t-134 -401t-356 -150z" />
    <glyph glyph-name="Pacute" unicode="&#x1e54;" horiz-adv-x="1171" 
d="M271 1321v-655h344q167 0 261 87t94 241t-94 240t-261 87h-344zM135 1443h512q207 0 335 -124t128 -325q0 -202 -129 -326t-335 -124h-375v-544h-136v1443zM557 1551h-117l252 295h154z" />
    <glyph glyph-name="pacute" unicode="&#x1e55;" horiz-adv-x="1144" 
d="M650 1251h-117l220 301h153zM598 107q154 1 250 119t96 312t-96 314t-250 119q-156 -1 -252 -121t-96 -312t96 -311q96 -120 252 -120zM620 1089q204 0 332 -152t127 -398q-1 -247 -127 -399t-330 -152q-126 0 -224 64t-144 170h-3v-575h-132v1430h125v-223h3
q43 104 145 170t228 65z" />
    <glyph glyph-name="Pdotaccent" unicode="&#x1e56;" horiz-adv-x="1171" 
d="M500 1575q-42 0 -72 30t-30 72t30 72t72 30t72 -30t30 -72t-30 -72t-72 -30zM271 1321v-655h344q167 0 261 87t94 241t-94 240t-261 87h-344zM135 1443h512q207 0 335 -124t128 -325q0 -202 -129 -326t-335 -124h-375v-544h-136v1443z" />
    <glyph glyph-name="pdotaccent" unicode="&#x1e57;" horiz-adv-x="1144" 
d="M599 1259q-43 1 -73 31t-31 73q1 43 31 73t73 31q43 -1 73 -31t31 -73q-1 -43 -31 -73t-73 -31zM598 107q154 1 250 119t96 312t-96 314t-250 119q-156 -1 -252 -121t-96 -312t96 -311q96 -120 252 -120zM620 1089q204 0 332 -152t127 -398q-1 -247 -127 -399t-330 -152
q-126 0 -224 64t-144 170h-3v-575h-132v1430h125v-223h3q43 104 145 170t228 65z" />
    <glyph glyph-name="Rdotaccent" unicode="&#x1e58;" horiz-adv-x="1199" 
d="M271 591v-591h-136v1443h516q211 -1 337 -115t125 -307q0 -153 -82 -262t-227 -146l349 -613h-159l-332 591h-391zM271 1321v-609h369q156 0 244 80t88 224t-90 224t-247 81h-364zM518 1575q-42 0 -72 30t-30 72t30 72t72 30t72 -30t30 -72t-30 -72t-72 -30z" />
    <glyph glyph-name="rdotaccent" unicode="&#x1e59;" horiz-adv-x="634" 
d="M355 1259q-43 1 -73 31t-31 73q1 43 31 73t73 31q43 -1 73 -31t31 -73q-1 -43 -31 -73t-73 -31zM119 0v1077h124v-191h4q28 96 100 150t173 53q43 0 80 -11v-132q-34 16 -98 16q-114 0 -182 -82t-69 -212v-668h-132z" />
    <glyph glyph-name="Rdotbelow" unicode="&#x1e5a;" horiz-adv-x="1199" 
d="M271 591v-591h-136v1443h516q211 -1 337 -115t125 -307q0 -153 -82 -262t-227 -146l349 -613h-159l-332 591h-391zM271 1321v-609h369q156 0 244 80t88 224t-90 224t-247 81h-364zM518 -351q-42 0 -72 30t-30 72t30 72t72 30t72 -30t30 -72t-30 -72t-72 -30z" />
    </font>
</defs>
</svg>
